%TF.GenerationSoftware,KiCad,Pcbnew,10.0.4-10.0.4~ubuntu24.04.1*%
%TF.CreationDate,2026-07-25T13:52:39+02:00*%
%TF.ProjectId,hzk65,687a6b36-352e-46b6-9963-61645f706362,rev?*%
%TF.SameCoordinates,Original*%
%TF.FileFunction,Legend,Top*%
%TF.FilePolarity,Positive*%
%FSLAX46Y46*%
G04 Gerber Fmt 4.6, Leading zero omitted, Abs format (unit mm)*
G04 Created by KiCad (PCBNEW 10.0.4-10.0.4~ubuntu24.04.1) date 2026-07-25 13:52:39*
%MOMM*%
%LPD*%
G01*
G04 APERTURE LIST*
%ADD10C,0.125000*%
%ADD11C,0.000000*%
%ADD12C,0.003087*%
G04 APERTURE END LIST*
D10*
X357908004Y-135582862D02*
X357908004Y-135106672D01*
X358193719Y-135678100D02*
X357193719Y-135344767D01*
X357193719Y-135344767D02*
X358193719Y-135011434D01*
X358193719Y-138835243D02*
X357527052Y-138835243D01*
X357717528Y-138835243D02*
X357622290Y-138787624D01*
X357622290Y-138787624D02*
X357574671Y-138740005D01*
X357574671Y-138740005D02*
X357527052Y-138644767D01*
X357527052Y-138644767D02*
X357527052Y-138549529D01*
X358146100Y-137835243D02*
X358193719Y-137930481D01*
X358193719Y-137930481D02*
X358193719Y-138120957D01*
X358193719Y-138120957D02*
X358146100Y-138216195D01*
X358146100Y-138216195D02*
X358050861Y-138263814D01*
X358050861Y-138263814D02*
X357669909Y-138263814D01*
X357669909Y-138263814D02*
X357574671Y-138216195D01*
X357574671Y-138216195D02*
X357527052Y-138120957D01*
X357527052Y-138120957D02*
X357527052Y-137930481D01*
X357527052Y-137930481D02*
X357574671Y-137835243D01*
X357574671Y-137835243D02*
X357669909Y-137787624D01*
X357669909Y-137787624D02*
X357765147Y-137787624D01*
X357765147Y-137787624D02*
X357860385Y-138263814D01*
X357527052Y-137454290D02*
X358193719Y-137216195D01*
X358193719Y-137216195D02*
X357527052Y-136978100D01*
X358098480Y-136597147D02*
X358146100Y-136549528D01*
X358146100Y-136549528D02*
X358193719Y-136597147D01*
X358193719Y-136597147D02*
X358146100Y-136644766D01*
X358146100Y-136644766D02*
X358098480Y-136597147D01*
X358098480Y-136597147D02*
X358193719Y-136597147D01*
D11*
G36*
X356134449Y-135776264D02*
G01*
X353646255Y-135776264D01*
X353646255Y-135256415D01*
X356134449Y-135256415D01*
X356134449Y-135776264D01*
G37*
G36*
X356134449Y-137073349D02*
G01*
X354610242Y-137073349D01*
X354610242Y-138557179D01*
X356134449Y-138557179D01*
X356134449Y-139102265D01*
X352601512Y-139102265D01*
X352601512Y-138557179D01*
X354115626Y-138557179D01*
X354115626Y-137073349D01*
X352601512Y-137073349D01*
X352601512Y-136528266D01*
X356134449Y-136528266D01*
X356134449Y-137073349D01*
G37*
G36*
X356134449Y-134585160D02*
G01*
X355498522Y-134585160D01*
X354156008Y-133116475D01*
X354085349Y-133116475D01*
X354085349Y-134534700D01*
X353646255Y-134534700D01*
X353646255Y-132551206D01*
X354287231Y-132551206D01*
X355629748Y-134024946D01*
X355695362Y-134024946D01*
X355695362Y-132510827D01*
X356134449Y-132510827D01*
X356134449Y-134585160D01*
G37*
G36*
X356134449Y-129901510D02*
G01*
X354635470Y-131254122D01*
X354635470Y-131334872D01*
X356134449Y-131334872D01*
X356134449Y-131879949D01*
X352601512Y-131879949D01*
X352601512Y-131334872D01*
X354070203Y-131334872D01*
X354070203Y-131254122D01*
X352601512Y-129936840D01*
X352601512Y-129225202D01*
X354342743Y-130820069D01*
X356134449Y-129169685D01*
X356134449Y-129901510D01*
G37*
G36*
X352696727Y-135378181D02*
G01*
X352702809Y-135378693D01*
X352708840Y-135379595D01*
X352714796Y-135380886D01*
X352720664Y-135382562D01*
X352726417Y-135384623D01*
X352732050Y-135387059D01*
X352737526Y-135389864D01*
X352742835Y-135393042D01*
X352747957Y-135396589D01*
X352752870Y-135400494D01*
X352757513Y-135404725D01*
X352761837Y-135409211D01*
X352765825Y-135413943D01*
X352769477Y-135418895D01*
X352772783Y-135424062D01*
X352775733Y-135429418D01*
X352778329Y-135434940D01*
X352780559Y-135440610D01*
X352782419Y-135446417D01*
X352783899Y-135452335D01*
X352784994Y-135458355D01*
X352785705Y-135464445D01*
X352786009Y-135470597D01*
X352785909Y-135476780D01*
X352785408Y-135482984D01*
X352784476Y-135489196D01*
X352783552Y-135495410D01*
X352783044Y-135501614D01*
X352782947Y-135507803D01*
X352783250Y-135513952D01*
X352783955Y-135520045D01*
X352785054Y-135526064D01*
X352786535Y-135531979D01*
X352788394Y-135537785D01*
X352790629Y-135543460D01*
X352793218Y-135548982D01*
X352796177Y-135554334D01*
X352799485Y-135559503D01*
X352803130Y-135564456D01*
X352807119Y-135569187D01*
X352811442Y-135573678D01*
X352816084Y-135577903D01*
X352820993Y-135581810D01*
X352826122Y-135585355D01*
X352831433Y-135588528D01*
X352836903Y-135591338D01*
X352842539Y-135593774D01*
X352848290Y-135595834D01*
X352854160Y-135597506D01*
X352860120Y-135598802D01*
X352866146Y-135599705D01*
X352872224Y-135600221D01*
X352878337Y-135600341D01*
X352884465Y-135600061D01*
X352890586Y-135599381D01*
X352896677Y-135598292D01*
X352902722Y-135596794D01*
X352908700Y-135594889D01*
X352914540Y-135592578D01*
X352920175Y-135589915D01*
X352925580Y-135586907D01*
X352930751Y-135583570D01*
X352935676Y-135579913D01*
X352940336Y-135575950D01*
X352944723Y-135571707D01*
X352948816Y-135567202D01*
X352952619Y-135562430D01*
X352956102Y-135557418D01*
X352959260Y-135552184D01*
X352962079Y-135546737D01*
X352964552Y-135541101D01*
X352966654Y-135535281D01*
X352968383Y-135529295D01*
X352967044Y-135535434D01*
X352963595Y-135547400D01*
X352959384Y-135559038D01*
X352954443Y-135570319D01*
X352948806Y-135581206D01*
X352942488Y-135591679D01*
X352935519Y-135601691D01*
X352927924Y-135611235D01*
X352919724Y-135620260D01*
X352910950Y-135628744D01*
X352901632Y-135636659D01*
X352891781Y-135643969D01*
X352881448Y-135650648D01*
X352870631Y-135656675D01*
X352859367Y-135662001D01*
X352847688Y-135666607D01*
X352835724Y-135670422D01*
X352823631Y-135673418D01*
X352811448Y-135675592D01*
X352799211Y-135676954D01*
X352786957Y-135677515D01*
X352774737Y-135677276D01*
X352762570Y-135676250D01*
X352750517Y-135674443D01*
X352738599Y-135671858D01*
X352726866Y-135668503D01*
X352715355Y-135664391D01*
X352704098Y-135659520D01*
X352693143Y-135653899D01*
X352682518Y-135647543D01*
X352672274Y-135640460D01*
X352662450Y-135632643D01*
X352653156Y-135624196D01*
X352644517Y-135615219D01*
X352636542Y-135605752D01*
X352629243Y-135595834D01*
X352622630Y-135585508D01*
X352616724Y-135574802D01*
X352611532Y-135563756D01*
X352607078Y-135552410D01*
X352603357Y-135540796D01*
X352600392Y-135528958D01*
X352598200Y-135516933D01*
X352596787Y-135504744D01*
X352596169Y-135492448D01*
X352596367Y-135480076D01*
X352597381Y-135467657D01*
X352599238Y-135455237D01*
X352600572Y-135449098D01*
X352602304Y-135443119D01*
X352604408Y-135437300D01*
X352606871Y-135431664D01*
X352609700Y-135426214D01*
X352612853Y-135420980D01*
X352616338Y-135415969D01*
X352620134Y-135411202D01*
X352624230Y-135406691D01*
X352628622Y-135402444D01*
X352633282Y-135398486D01*
X352638202Y-135394834D01*
X352643374Y-135391492D01*
X352648784Y-135388480D01*
X352654408Y-135385821D01*
X352660254Y-135383517D01*
X352666238Y-135381604D01*
X352672280Y-135380112D01*
X352678372Y-135379020D01*
X352684494Y-135378336D01*
X352690616Y-135378056D01*
X352696727Y-135378181D01*
G37*
G36*
X352981993Y-135525836D02*
G01*
X352993959Y-135529286D01*
X353005597Y-135533498D01*
X353016879Y-135538438D01*
X353027766Y-135544075D01*
X353038238Y-135550393D01*
X353048251Y-135557361D01*
X353057794Y-135564957D01*
X353066820Y-135573156D01*
X353075303Y-135581930D01*
X353083219Y-135591248D01*
X353090531Y-135601099D01*
X353097208Y-135611435D01*
X353103234Y-135622249D01*
X353108561Y-135633513D01*
X353113167Y-135645193D01*
X353116982Y-135657156D01*
X353119976Y-135669249D01*
X353122151Y-135681432D01*
X353123514Y-135693669D01*
X353124075Y-135705923D01*
X353123836Y-135718143D01*
X353122809Y-135730310D01*
X353121002Y-135742363D01*
X353118417Y-135754281D01*
X353115063Y-135766015D01*
X353110949Y-135777526D01*
X353106080Y-135788782D01*
X353100459Y-135799739D01*
X353094102Y-135810361D01*
X353087019Y-135820606D01*
X353079203Y-135830430D01*
X353070756Y-135839724D01*
X353061779Y-135848364D01*
X353052312Y-135856338D01*
X353042394Y-135863637D01*
X353032068Y-135870251D01*
X353021362Y-135876156D01*
X353010316Y-135881349D01*
X352998972Y-135885805D01*
X352987356Y-135889525D01*
X352975517Y-135892489D01*
X352963492Y-135894680D01*
X352951304Y-135896094D01*
X352939008Y-135896709D01*
X352926636Y-135896513D01*
X352914217Y-135895499D01*
X352901795Y-135893642D01*
X352895658Y-135892309D01*
X352889678Y-135890579D01*
X352883860Y-135888472D01*
X352878222Y-135886010D01*
X352872774Y-135883182D01*
X352867539Y-135880027D01*
X352862529Y-135876542D01*
X352857759Y-135872746D01*
X352853251Y-135868650D01*
X352849004Y-135864258D01*
X352845046Y-135859599D01*
X352841394Y-135854678D01*
X352838052Y-135849507D01*
X352835041Y-135844096D01*
X352832379Y-135838472D01*
X352830076Y-135832626D01*
X352828163Y-135826643D01*
X352826672Y-135820601D01*
X352825580Y-135814509D01*
X352824896Y-135808386D01*
X352824616Y-135802264D01*
X352824741Y-135796153D01*
X352825253Y-135790072D01*
X352826154Y-135784040D01*
X352827446Y-135778085D01*
X352829122Y-135772218D01*
X352831184Y-135766463D01*
X352833619Y-135760832D01*
X352836423Y-135755354D01*
X352839602Y-135750045D01*
X352843149Y-135744924D01*
X352847054Y-135740010D01*
X352851285Y-135735367D01*
X352855770Y-135731042D01*
X352860502Y-135727055D01*
X352865454Y-135723404D01*
X352870622Y-135720097D01*
X352875978Y-135717148D01*
X352881500Y-135714552D01*
X352887170Y-135712322D01*
X352892977Y-135710461D01*
X352898895Y-135708981D01*
X352904915Y-135707887D01*
X352911005Y-135707175D01*
X352917157Y-135706871D01*
X352923340Y-135706969D01*
X352929544Y-135707474D01*
X352935755Y-135708404D01*
X352941969Y-135709329D01*
X352948174Y-135709836D01*
X352954363Y-135709935D01*
X352960511Y-135709630D01*
X352966605Y-135708926D01*
X352972624Y-135707827D01*
X352978539Y-135706345D01*
X352984345Y-135704484D01*
X352990018Y-135702252D01*
X352995543Y-135699662D01*
X353000893Y-135696703D01*
X353006060Y-135693397D01*
X353011018Y-135689750D01*
X353015747Y-135685761D01*
X353020238Y-135681438D01*
X353024463Y-135676798D01*
X353028372Y-135671887D01*
X353031915Y-135666758D01*
X353035088Y-135661449D01*
X353037898Y-135655978D01*
X353040334Y-135650343D01*
X353042394Y-135644590D01*
X353044066Y-135638720D01*
X353045360Y-135632763D01*
X353046265Y-135626733D01*
X353046780Y-135620657D01*
X353046901Y-135614543D01*
X353046620Y-135608415D01*
X353045941Y-135602294D01*
X353044850Y-135596203D01*
X353043353Y-135590159D01*
X353041447Y-135584180D01*
X353039137Y-135578340D01*
X353036475Y-135572705D01*
X353033467Y-135567300D01*
X353030129Y-135562128D01*
X353026473Y-135557204D01*
X353022510Y-135552544D01*
X353018267Y-135548157D01*
X353013762Y-135544064D01*
X353008990Y-135540262D01*
X353003978Y-135536778D01*
X352998744Y-135533620D01*
X352993298Y-135530801D01*
X352987661Y-135528329D01*
X352981841Y-135526226D01*
X352975855Y-135524497D01*
X352981993Y-135525836D01*
G37*
G36*
X353012804Y-135149807D02*
G01*
X353025223Y-135150821D01*
X353037645Y-135152678D01*
X353043782Y-135154012D01*
X353049762Y-135155744D01*
X353055580Y-135157848D01*
X353061218Y-135160311D01*
X353066667Y-135163138D01*
X353071901Y-135166294D01*
X353076911Y-135169778D01*
X353081681Y-135173574D01*
X353086189Y-135177671D01*
X353090436Y-135182062D01*
X353094394Y-135186721D01*
X353098046Y-135191643D01*
X353101388Y-135196813D01*
X353104401Y-135202224D01*
X353107061Y-135207849D01*
X353109364Y-135213694D01*
X353111277Y-135219679D01*
X353112768Y-135225720D01*
X353113860Y-135231811D01*
X353114544Y-135237934D01*
X353114824Y-135244057D01*
X353114699Y-135250168D01*
X353114187Y-135256249D01*
X353113286Y-135262280D01*
X353111994Y-135268236D01*
X353110318Y-135274104D01*
X353108257Y-135279859D01*
X353105821Y-135285491D01*
X353103017Y-135290966D01*
X353099838Y-135296275D01*
X353096291Y-135301398D01*
X353092386Y-135306310D01*
X353088155Y-135310955D01*
X353083670Y-135315277D01*
X353078938Y-135319265D01*
X353073986Y-135322917D01*
X353068819Y-135326223D01*
X353063462Y-135329175D01*
X353057940Y-135331769D01*
X353052270Y-135333999D01*
X353046463Y-135335859D01*
X353040545Y-135337340D01*
X353034525Y-135338434D01*
X353028435Y-135339145D01*
X353022287Y-135339449D01*
X353016100Y-135339351D01*
X353009896Y-135338846D01*
X353003685Y-135337916D01*
X352997471Y-135336992D01*
X352991266Y-135336486D01*
X352985078Y-135336387D01*
X352978929Y-135336691D01*
X352972835Y-135337398D01*
X352966818Y-135338496D01*
X352960901Y-135339975D01*
X352955095Y-135341836D01*
X352949422Y-135344068D01*
X352943897Y-135346658D01*
X352938547Y-135349617D01*
X352933380Y-135352925D01*
X352928424Y-135356570D01*
X352923693Y-135360559D01*
X352919202Y-135364883D01*
X352914977Y-135369524D01*
X352911071Y-135374433D01*
X352907525Y-135379562D01*
X352904352Y-135384873D01*
X352901542Y-135390346D01*
X352899106Y-135395977D01*
X352897046Y-135401730D01*
X352895374Y-135407600D01*
X352894080Y-135413561D01*
X352893175Y-135419587D01*
X352892660Y-135425665D01*
X352892539Y-135431777D01*
X352892820Y-135437906D01*
X352893499Y-135444026D01*
X352894590Y-135450117D01*
X352896087Y-135456162D01*
X352897993Y-135462140D01*
X352900303Y-135467981D01*
X352902966Y-135473616D01*
X352905973Y-135479020D01*
X352909311Y-135484192D01*
X352912968Y-135489116D01*
X352916930Y-135493776D01*
X352921173Y-135498164D01*
X352925678Y-135502257D01*
X352930450Y-135506059D01*
X352935462Y-135509543D01*
X352940696Y-135512700D01*
X352946142Y-135515520D01*
X352951779Y-135517992D01*
X352957599Y-135520094D01*
X352963585Y-135521824D01*
X352957447Y-135520485D01*
X352945481Y-135517035D01*
X352933843Y-135512822D01*
X352922561Y-135507883D01*
X352911674Y-135502246D01*
X352901202Y-135495930D01*
X352891189Y-135488959D01*
X352881646Y-135481364D01*
X352872620Y-135473164D01*
X352864137Y-135464391D01*
X352856221Y-135455074D01*
X352848911Y-135445221D01*
X352842232Y-135434887D01*
X352836206Y-135424073D01*
X352830879Y-135412808D01*
X352826273Y-135401128D01*
X352822458Y-135389164D01*
X352819464Y-135377071D01*
X352817289Y-135364889D01*
X352815926Y-135352651D01*
X352815365Y-135340397D01*
X352815604Y-135328177D01*
X352816631Y-135316010D01*
X352818438Y-135303958D01*
X352821023Y-135292039D01*
X352824378Y-135280308D01*
X352828491Y-135268795D01*
X352833360Y-135257538D01*
X352838981Y-135246583D01*
X352845337Y-135235958D01*
X352852421Y-135225714D01*
X352860237Y-135215889D01*
X352868684Y-135206597D01*
X352877661Y-135197958D01*
X352887128Y-135189983D01*
X352897046Y-135182683D01*
X352907372Y-135176073D01*
X352918078Y-135170164D01*
X352929124Y-135164972D01*
X352940468Y-135160515D01*
X352952084Y-135156797D01*
X352963923Y-135153833D01*
X352975948Y-135151640D01*
X352988136Y-135150227D01*
X353000432Y-135149611D01*
X353012804Y-135149807D01*
G37*
G36*
X353164703Y-135369045D02*
G01*
X353176870Y-135370070D01*
X353188923Y-135371879D01*
X353200841Y-135374463D01*
X353212574Y-135377818D01*
X353224085Y-135381931D01*
X353235342Y-135386801D01*
X353246297Y-135392422D01*
X353256922Y-135398778D01*
X353267166Y-135405862D01*
X353276990Y-135413677D01*
X353286284Y-135422124D01*
X353294923Y-135431101D01*
X353302898Y-135440568D01*
X353310197Y-135450486D01*
X353316810Y-135460812D01*
X353322716Y-135471519D01*
X353327908Y-135482564D01*
X353332362Y-135493910D01*
X353336083Y-135505525D01*
X353339048Y-135517364D01*
X353341240Y-135529390D01*
X353342653Y-135541576D01*
X353343271Y-135553872D01*
X353343073Y-135566244D01*
X353342059Y-135578663D01*
X353340202Y-135591086D01*
X353338868Y-135597222D01*
X353337137Y-135603202D01*
X353335032Y-135609020D01*
X353332569Y-135614658D01*
X353329740Y-135620107D01*
X353326587Y-135625341D01*
X353323102Y-135630352D01*
X353319306Y-135635122D01*
X353315210Y-135639629D01*
X353310818Y-135643876D01*
X353306158Y-135647834D01*
X353301238Y-135651489D01*
X353296066Y-135654828D01*
X353290656Y-135657841D01*
X353285032Y-135660501D01*
X353279186Y-135662804D01*
X353273202Y-135664719D01*
X353267160Y-135666211D01*
X353261069Y-135667300D01*
X353254946Y-135667984D01*
X353248824Y-135668264D01*
X353242713Y-135668139D01*
X353236631Y-135667627D01*
X353230600Y-135666726D01*
X353224644Y-135665434D01*
X353218776Y-135663759D01*
X353213023Y-135661697D01*
X353207390Y-135659261D01*
X353201914Y-135656457D01*
X353196605Y-135653278D01*
X353191483Y-135649732D01*
X353186570Y-135645827D01*
X353181927Y-135641595D01*
X353177603Y-135637111D01*
X353173615Y-135632378D01*
X353169963Y-135627426D01*
X353166657Y-135622258D01*
X353163707Y-135616902D01*
X353161111Y-135611382D01*
X353158881Y-135605710D01*
X353157021Y-135599903D01*
X353155541Y-135593985D01*
X353154446Y-135587967D01*
X353153735Y-135581875D01*
X353153431Y-135575723D01*
X353153531Y-135569540D01*
X353154032Y-135563336D01*
X353154964Y-135557125D01*
X353155888Y-135550912D01*
X353156396Y-135544706D01*
X353156493Y-135538518D01*
X353156190Y-135532369D01*
X353155485Y-135526274D01*
X353154386Y-135520258D01*
X353152905Y-135514343D01*
X353151046Y-135508535D01*
X353148812Y-135502860D01*
X353146222Y-135497338D01*
X353143263Y-135491987D01*
X353139955Y-135486820D01*
X353136310Y-135481865D01*
X353132321Y-135477133D01*
X353127998Y-135472642D01*
X353123356Y-135468418D01*
X353118447Y-135464511D01*
X353113318Y-135460965D01*
X353108007Y-135457793D01*
X353102537Y-135454983D01*
X353096901Y-135452548D01*
X353091150Y-135450486D01*
X353085280Y-135448814D01*
X353079320Y-135447522D01*
X353073294Y-135446616D01*
X353067216Y-135446099D01*
X353061101Y-135445980D01*
X353054974Y-135446260D01*
X353048854Y-135446940D01*
X353042763Y-135448032D01*
X353036718Y-135449527D01*
X353030740Y-135451434D01*
X353024900Y-135453743D01*
X353019265Y-135456407D01*
X353013860Y-135459413D01*
X353008689Y-135462751D01*
X353003764Y-135466407D01*
X352999104Y-135470370D01*
X352994717Y-135474613D01*
X352990624Y-135479120D01*
X352986821Y-135483891D01*
X352983339Y-135488902D01*
X352980180Y-135494136D01*
X352977361Y-135499582D01*
X352974888Y-135505219D01*
X352972786Y-135511039D01*
X352971056Y-135517025D01*
X352972396Y-135510888D01*
X352975845Y-135498922D01*
X352980056Y-135487285D01*
X352984997Y-135476001D01*
X352990634Y-135465114D01*
X352996952Y-135454642D01*
X353003921Y-135444629D01*
X353011516Y-135435086D01*
X353019716Y-135426062D01*
X353028490Y-135417577D01*
X353037808Y-135409661D01*
X353047659Y-135402351D01*
X353057995Y-135395673D01*
X353068809Y-135389646D01*
X353080073Y-135384319D01*
X353091752Y-135379713D01*
X353103716Y-135375898D01*
X353115809Y-135372904D01*
X353127992Y-135370729D01*
X353140229Y-135369366D01*
X353152483Y-135368805D01*
X353164703Y-135369045D01*
G37*
G36*
X355069683Y-116370829D02*
G01*
X355097557Y-116372274D01*
X355125049Y-116374670D01*
X355152164Y-116378034D01*
X355178894Y-116382368D01*
X355205246Y-116387650D01*
X355231216Y-116393901D01*
X355256811Y-116401122D01*
X355282008Y-116409287D01*
X355306827Y-116418429D01*
X355331267Y-116428516D01*
X355355313Y-116439582D01*
X355378985Y-116451607D01*
X355402265Y-116464595D01*
X355425157Y-116478547D01*
X355447668Y-116493462D01*
X355477211Y-116514925D01*
X355504860Y-116537422D01*
X355530600Y-116560927D01*
X355554436Y-116585456D01*
X355576362Y-116611000D01*
X355596383Y-116637565D01*
X355605677Y-116651235D01*
X355614503Y-116665153D01*
X355622848Y-116679326D01*
X355630715Y-116693749D01*
X355638103Y-116708433D01*
X355645016Y-116723370D01*
X355651452Y-116738561D01*
X355657418Y-116754004D01*
X355667905Y-116785652D01*
X355676497Y-116818324D01*
X355683169Y-116852002D01*
X355687940Y-116886706D01*
X355690801Y-116922423D01*
X355691759Y-116959134D01*
X355691222Y-116988569D01*
X355689618Y-117017313D01*
X355686937Y-117045369D01*
X355683183Y-117072724D01*
X355678364Y-117099402D01*
X355672467Y-117125386D01*
X355665501Y-117150700D01*
X355657467Y-117175304D01*
X355648362Y-117199231D01*
X355638182Y-117222472D01*
X355626934Y-117245013D01*
X355614614Y-117266881D01*
X355601234Y-117288059D01*
X355586770Y-117308540D01*
X355571246Y-117328341D01*
X355554648Y-117347455D01*
X355537122Y-117365735D01*
X355518866Y-117383082D01*
X355499872Y-117399487D01*
X355480146Y-117414947D01*
X355459685Y-117429458D01*
X355438485Y-117443038D01*
X355416551Y-117455661D01*
X355393872Y-117467351D01*
X355370465Y-117478099D01*
X355346324Y-117487902D01*
X355321442Y-117496758D01*
X355295824Y-117504671D01*
X355269471Y-117511644D01*
X355242383Y-117517666D01*
X355214560Y-117522756D01*
X355186004Y-117526893D01*
X355149511Y-117198427D01*
X355164272Y-117196452D01*
X355178627Y-117194054D01*
X355192601Y-117191217D01*
X355206189Y-117187951D01*
X355219378Y-117184255D01*
X355232179Y-117180120D01*
X355244590Y-117175551D01*
X355256614Y-117170557D01*
X355268247Y-117165132D01*
X355279488Y-117159279D01*
X355290337Y-117152994D01*
X355300806Y-117146272D01*
X355310878Y-117139130D01*
X355320568Y-117131549D01*
X355329866Y-117123542D01*
X355338780Y-117115095D01*
X355347258Y-117106381D01*
X355355176Y-117097483D01*
X355362560Y-117088431D01*
X355369389Y-117079203D01*
X355375676Y-117069816D01*
X355381411Y-117060263D01*
X355386598Y-117050537D01*
X355391238Y-117040646D01*
X355395325Y-117030601D01*
X355398871Y-117020382D01*
X355401874Y-117009997D01*
X355404332Y-116999443D01*
X355406236Y-116988736D01*
X355407598Y-116977859D01*
X355408417Y-116966818D01*
X355408691Y-116955616D01*
X355408342Y-116942845D01*
X355407284Y-116930322D01*
X355405520Y-116918046D01*
X355403058Y-116906015D01*
X355399880Y-116894230D01*
X355396015Y-116882687D01*
X355391439Y-116871398D01*
X355386164Y-116860351D01*
X355380176Y-116849559D01*
X355373498Y-116839004D01*
X355366108Y-116828711D01*
X355358020Y-116818653D01*
X355349228Y-116808844D01*
X355339742Y-116799292D01*
X355329543Y-116789983D01*
X355318658Y-116780919D01*
X355307074Y-116772245D01*
X355294779Y-116764126D01*
X355281764Y-116756576D01*
X355268046Y-116749585D01*
X355253603Y-116743156D01*
X355238446Y-116737284D01*
X355222568Y-116731970D01*
X355205982Y-116727217D01*
X355188686Y-116723023D01*
X355170663Y-116719389D01*
X355151943Y-116716319D01*
X355132491Y-116713793D01*
X355112329Y-116711843D01*
X355091454Y-116710443D01*
X355069870Y-116709614D01*
X355047558Y-116709331D01*
X355026673Y-116709614D01*
X355006449Y-116710441D01*
X354986883Y-116711834D01*
X354967984Y-116713774D01*
X354949743Y-116716271D01*
X354932163Y-116719328D01*
X354915250Y-116722934D01*
X354898996Y-116727108D01*
X354883405Y-116731820D01*
X354868481Y-116737101D01*
X354854219Y-116742932D01*
X354840627Y-116749315D01*
X354827697Y-116756254D01*
X354815429Y-116763752D01*
X354803830Y-116771797D01*
X354792891Y-116780406D01*
X354782606Y-116789416D01*
X354772992Y-116798771D01*
X354764031Y-116808466D01*
X354755737Y-116818496D01*
X354748103Y-116828869D01*
X354741129Y-116839585D01*
X354734831Y-116850626D01*
X354729185Y-116862003D01*
X354724208Y-116873726D01*
X354719896Y-116885772D01*
X354716243Y-116898151D01*
X354713258Y-116910862D01*
X354710927Y-116923915D01*
X354709271Y-116937285D01*
X354708273Y-116951007D01*
X354707943Y-116965044D01*
X354708468Y-116982678D01*
X354710048Y-117000076D01*
X354712678Y-117017250D01*
X354716363Y-117034197D01*
X354721099Y-117050914D01*
X354726888Y-117067389D01*
X354733724Y-117083646D01*
X354741620Y-117099663D01*
X354750557Y-117115461D01*
X354760553Y-117131032D01*
X354771598Y-117146362D01*
X354783695Y-117161469D01*
X354796839Y-117176341D01*
X354811029Y-117190992D01*
X354826272Y-117205407D01*
X354842563Y-117219591D01*
X354800985Y-117487046D01*
X353841293Y-117318079D01*
X353841293Y-116446622D01*
X354172121Y-116446622D01*
X354172121Y-117068262D01*
X354485423Y-117119900D01*
X354478267Y-117106104D01*
X354471557Y-117092269D01*
X354465320Y-117078402D01*
X354459539Y-117064484D01*
X354454234Y-117050550D01*
X354449378Y-117036576D01*
X354444983Y-117022552D01*
X354441054Y-117008500D01*
X354437586Y-116994406D01*
X354434589Y-116980275D01*
X354432044Y-116966107D01*
X354429963Y-116951899D01*
X354428350Y-116937651D01*
X354427194Y-116923361D01*
X354426499Y-116909036D01*
X354426269Y-116894668D01*
X354426933Y-116867527D01*
X354428940Y-116840907D01*
X354432281Y-116814802D01*
X354436958Y-116789219D01*
X354442971Y-116764153D01*
X354450319Y-116739608D01*
X354459013Y-116715581D01*
X354469037Y-116692078D01*
X354480402Y-116669092D01*
X354493101Y-116646630D01*
X354507136Y-116624697D01*
X354522506Y-116603275D01*
X354539219Y-116582387D01*
X354557266Y-116562008D01*
X354576656Y-116542166D01*
X354597379Y-116522840D01*
X354619135Y-116504380D01*
X354641695Y-116487103D01*
X354665052Y-116471018D01*
X354689209Y-116456131D01*
X354714172Y-116442424D01*
X354739928Y-116429922D01*
X354766480Y-116418600D01*
X354793836Y-116408475D01*
X354821994Y-116399535D01*
X354850947Y-116391791D01*
X354880696Y-116385246D01*
X354911243Y-116379884D01*
X354942595Y-116375717D01*
X354974743Y-116372735D01*
X355007691Y-116370944D01*
X355041431Y-116370346D01*
X355069683Y-116370829D01*
G37*
G36*
X356672271Y-123553618D02*
G01*
X356699598Y-123555217D01*
X356726214Y-123557882D01*
X356752116Y-123561605D01*
X356777316Y-123566400D01*
X356801805Y-123572254D01*
X356825575Y-123579173D01*
X356848637Y-123587154D01*
X356871002Y-123596206D01*
X356892647Y-123606321D01*
X356913585Y-123617496D01*
X356933809Y-123629742D01*
X356953326Y-123643045D01*
X356972141Y-123657416D01*
X356990237Y-123672859D01*
X357007625Y-123689358D01*
X357024134Y-123706154D01*
X357039566Y-123723744D01*
X357053934Y-123742116D01*
X357067242Y-123761282D01*
X357079488Y-123781227D01*
X357090665Y-123801972D01*
X357100781Y-123823501D01*
X357109833Y-123845816D01*
X357117818Y-123868924D01*
X357124736Y-123892819D01*
X357130587Y-123917507D01*
X357135387Y-123942976D01*
X357139102Y-123969237D01*
X357141764Y-123996281D01*
X357143366Y-124024120D01*
X357143896Y-124052740D01*
X357143900Y-125597150D01*
X356689669Y-125597150D01*
X356689669Y-124209209D01*
X356689518Y-124200518D01*
X356689070Y-124192095D01*
X356688336Y-124183956D01*
X356687301Y-124176078D01*
X356685969Y-124168494D01*
X356684347Y-124161181D01*
X356682430Y-124154145D01*
X356680216Y-124147382D01*
X356677702Y-124140895D01*
X356674893Y-124134686D01*
X356671798Y-124128752D01*
X356668391Y-124123089D01*
X356664704Y-124117715D01*
X356660713Y-124112606D01*
X356656428Y-124107772D01*
X356651849Y-124103217D01*
X356646971Y-124098941D01*
X356641807Y-124094941D01*
X356636334Y-124091216D01*
X356630570Y-124087758D01*
X356624509Y-124084589D01*
X356618157Y-124081693D01*
X356611502Y-124079070D01*
X356604560Y-124076718D01*
X356597314Y-124074653D01*
X356589774Y-124072862D01*
X356581943Y-124071345D01*
X356573812Y-124070097D01*
X356565384Y-124069125D01*
X356556660Y-124068445D01*
X356547651Y-124068026D01*
X356538329Y-124067889D01*
X355771066Y-124067901D01*
X355771066Y-124148637D01*
X355783663Y-124154521D01*
X355796222Y-124160780D01*
X355808741Y-124167450D01*
X355821223Y-124174510D01*
X355833659Y-124181958D01*
X355846062Y-124189803D01*
X355858423Y-124198045D01*
X355870744Y-124206686D01*
X355883027Y-124215713D01*
X355895273Y-124225140D01*
X355907478Y-124234962D01*
X355919636Y-124245170D01*
X355931767Y-124255774D01*
X355943851Y-124266770D01*
X355955896Y-124278171D01*
X355967903Y-124289956D01*
X355979136Y-124301575D01*
X355990141Y-124313692D01*
X356000900Y-124326333D01*
X356011435Y-124339482D01*
X356021725Y-124353149D01*
X356031784Y-124367324D01*
X356041596Y-124382014D01*
X356051175Y-124397210D01*
X356060523Y-124412922D01*
X356069632Y-124429155D01*
X356078505Y-124445890D01*
X356087136Y-124463140D01*
X356095538Y-124480899D01*
X356103698Y-124499173D01*
X356111620Y-124517959D01*
X356119311Y-124537263D01*
X356126646Y-124557139D01*
X356133505Y-124577640D01*
X356139890Y-124598779D01*
X356145805Y-124620537D01*
X356151254Y-124642939D01*
X356156214Y-124665960D01*
X356160711Y-124689621D01*
X356164733Y-124713912D01*
X356168284Y-124738830D01*
X356171352Y-124764382D01*
X356173956Y-124790564D01*
X356176089Y-124817378D01*
X356177748Y-124844819D01*
X356178928Y-124872894D01*
X356179640Y-124901602D01*
X356179878Y-124930927D01*
X356179385Y-124966029D01*
X356177904Y-125000647D01*
X356175440Y-125034795D01*
X356171989Y-125068469D01*
X356167547Y-125101669D01*
X356162139Y-125134395D01*
X356155721Y-125166650D01*
X356148333Y-125198426D01*
X356139948Y-125229735D01*
X356130589Y-125260569D01*
X356120237Y-125290931D01*
X356108899Y-125320827D01*
X356096577Y-125350235D01*
X356083270Y-125379176D01*
X356068976Y-125407647D01*
X356053702Y-125435638D01*
X356037517Y-125463022D01*
X356020498Y-125489659D01*
X356002659Y-125515545D01*
X355983983Y-125540680D01*
X355964491Y-125565074D01*
X355944161Y-125588713D01*
X355923008Y-125611599D01*
X355901030Y-125633737D01*
X355878215Y-125655128D01*
X355854574Y-125675765D01*
X355830111Y-125695666D01*
X355804817Y-125714807D01*
X355778690Y-125733195D01*
X355751746Y-125750843D01*
X355723965Y-125767742D01*
X355695362Y-125783886D01*
X355666001Y-125799166D01*
X355635972Y-125813456D01*
X355605279Y-125826769D01*
X355573913Y-125839093D01*
X355541878Y-125850425D01*
X355509171Y-125860777D01*
X355475788Y-125870138D01*
X355441740Y-125878516D01*
X355407021Y-125885906D01*
X355371639Y-125892316D01*
X355335575Y-125897738D01*
X355298850Y-125902178D01*
X355261449Y-125905627D01*
X355223378Y-125908089D01*
X355184640Y-125909575D01*
X355145230Y-125910063D01*
X353646255Y-125910063D01*
X353646255Y-125390217D01*
X355104854Y-125390217D01*
X355144583Y-125389580D01*
X355183001Y-125387692D01*
X355220135Y-125384540D01*
X355255946Y-125380122D01*
X355290475Y-125374446D01*
X355323693Y-125367510D01*
X355355610Y-125359301D01*
X355386230Y-125349841D01*
X355415551Y-125339111D01*
X355443555Y-125327128D01*
X355470272Y-125313880D01*
X355495689Y-125299372D01*
X355519799Y-125283599D01*
X355542606Y-125266566D01*
X355564118Y-125248272D01*
X355584319Y-125228710D01*
X355602659Y-125208031D01*
X355619813Y-125186363D01*
X355635781Y-125163713D01*
X355650565Y-125140077D01*
X355664171Y-125115447D01*
X355676590Y-125089839D01*
X355687825Y-125063243D01*
X355697883Y-125035662D01*
X355706753Y-125007093D01*
X355714447Y-124977542D01*
X355720945Y-124946997D01*
X355726271Y-124915478D01*
X355730409Y-124882966D01*
X355733365Y-124849469D01*
X355735140Y-124814988D01*
X355735739Y-124779523D01*
X355734903Y-124740276D01*
X355732417Y-124702009D01*
X355728279Y-124664717D01*
X355722490Y-124628429D01*
X355715036Y-124593121D01*
X355705921Y-124558793D01*
X355695162Y-124525457D01*
X355682739Y-124493103D01*
X355668664Y-124461735D01*
X355652931Y-124431358D01*
X355635544Y-124401959D01*
X355616493Y-124373553D01*
X355595801Y-124346128D01*
X355573441Y-124319693D01*
X355549427Y-124294230D01*
X355523762Y-124269772D01*
X355496506Y-124245936D01*
X355467763Y-124223640D01*
X355437523Y-124202880D01*
X355405781Y-124183657D01*
X355372549Y-124165972D01*
X355337805Y-124149823D01*
X355301572Y-124135217D01*
X355263836Y-124122142D01*
X355224606Y-124110610D01*
X355183871Y-124100620D01*
X355141637Y-124092160D01*
X355097910Y-124085238D01*
X355052685Y-124079855D01*
X355005969Y-124076013D01*
X354957739Y-124073708D01*
X354908017Y-124072935D01*
X353646255Y-124072935D01*
X353646255Y-123553085D01*
X356644240Y-123553085D01*
X356672271Y-123553618D01*
G37*
G36*
X356126300Y-115214560D02*
G01*
X356155670Y-115216794D01*
X356184612Y-115220473D01*
X356213088Y-115225559D01*
X356241062Y-115232018D01*
X356268504Y-115239806D01*
X356295378Y-115248898D01*
X356321640Y-115259243D01*
X356347253Y-115270831D01*
X356372192Y-115283602D01*
X356396404Y-115297533D01*
X356419861Y-115312561D01*
X356442537Y-115328686D01*
X356464373Y-115345856D01*
X356485365Y-115364025D01*
X356505442Y-115383174D01*
X356524597Y-115403263D01*
X356542768Y-115424240D01*
X356559939Y-115446088D01*
X356576063Y-115468764D01*
X356591100Y-115492216D01*
X356605022Y-115516441D01*
X356617795Y-115541376D01*
X356629376Y-115566991D01*
X356639724Y-115593244D01*
X356648820Y-115620119D01*
X356656608Y-115647560D01*
X356663066Y-115675529D01*
X356668159Y-115704016D01*
X356671824Y-115732954D01*
X356674066Y-115762318D01*
X356674815Y-115792074D01*
X356674815Y-118105162D01*
X356674066Y-118134907D01*
X356671824Y-118164266D01*
X356668159Y-118193199D01*
X356663066Y-118221671D01*
X356656608Y-118249641D01*
X356648820Y-118277078D01*
X356639724Y-118303947D01*
X356629376Y-118330200D01*
X356617795Y-118355817D01*
X356605022Y-118380750D01*
X356591100Y-118404975D01*
X356576063Y-118428427D01*
X356559939Y-118451102D01*
X356542768Y-118472947D01*
X356524597Y-118493933D01*
X356505442Y-118514021D01*
X356485365Y-118533166D01*
X356464373Y-118551344D01*
X356442537Y-118568518D01*
X356419861Y-118584642D01*
X356396404Y-118599685D01*
X356372192Y-118613605D01*
X356347253Y-118626384D01*
X356321640Y-118637969D01*
X356295378Y-118648333D01*
X356268504Y-118657420D01*
X356241062Y-118665215D01*
X356213088Y-118671677D01*
X356184612Y-118676768D01*
X356155670Y-118680437D01*
X356126300Y-118682682D01*
X356096546Y-118683426D01*
X353802774Y-118683426D01*
X353783463Y-118683426D01*
X353753705Y-118682682D01*
X353724332Y-118680437D01*
X353695393Y-118676768D01*
X353666915Y-118671677D01*
X353638945Y-118665215D01*
X353611504Y-118657420D01*
X353584625Y-118648333D01*
X353558368Y-118637969D01*
X353532759Y-118626384D01*
X353507821Y-118613605D01*
X353483601Y-118599685D01*
X353460140Y-118584642D01*
X353437472Y-118568518D01*
X353415624Y-118551344D01*
X353394643Y-118533166D01*
X353374554Y-118514021D01*
X353355414Y-118493933D01*
X353337239Y-118472947D01*
X353320072Y-118451102D01*
X353303947Y-118428427D01*
X353288906Y-118404975D01*
X353274985Y-118380750D01*
X353262215Y-118355817D01*
X353250636Y-118330200D01*
X353240282Y-118303947D01*
X353231189Y-118277078D01*
X353223399Y-118249641D01*
X353216938Y-118221671D01*
X353211856Y-118193199D01*
X353208172Y-118164266D01*
X353205943Y-118134907D01*
X353205194Y-118105162D01*
X353205194Y-115984755D01*
X353320847Y-115984755D01*
X353320847Y-117912361D01*
X353321439Y-117936256D01*
X353323209Y-117959997D01*
X353326123Y-117983527D01*
X353330191Y-118006831D01*
X353335386Y-118029841D01*
X353341681Y-118052530D01*
X353349069Y-118074860D01*
X353357529Y-118096793D01*
X353367056Y-118118280D01*
X353377613Y-118139297D01*
X353389211Y-118159802D01*
X353401811Y-118179735D01*
X353415409Y-118199081D01*
X353429985Y-118217794D01*
X353445520Y-118235821D01*
X353461997Y-118253141D01*
X353479318Y-118269619D01*
X353497342Y-118285152D01*
X353516056Y-118299726D01*
X353535398Y-118313332D01*
X353555342Y-118325926D01*
X353575836Y-118337520D01*
X353596858Y-118348084D01*
X353618348Y-118357611D01*
X353640285Y-118366076D01*
X353662615Y-118373466D01*
X353685305Y-118379762D01*
X353708313Y-118384951D01*
X353731605Y-118389025D01*
X353755143Y-118391943D01*
X353778874Y-118393709D01*
X353802774Y-118394298D01*
X355730270Y-118394298D01*
X355754166Y-118393709D01*
X355777898Y-118391943D01*
X355801437Y-118389025D01*
X355824722Y-118384951D01*
X355847739Y-118379762D01*
X355870429Y-118373466D01*
X355892762Y-118366076D01*
X355914691Y-118357611D01*
X355936184Y-118348084D01*
X355957208Y-118337520D01*
X355977704Y-118325926D01*
X355997644Y-118313332D01*
X356016991Y-118299726D01*
X356035698Y-118285152D01*
X356053726Y-118269619D01*
X356071040Y-118253141D01*
X356087522Y-118235821D01*
X356103055Y-118217794D01*
X356117631Y-118199081D01*
X356131231Y-118179735D01*
X356143830Y-118159802D01*
X356155428Y-118139297D01*
X356165994Y-118118283D01*
X356175518Y-118096793D01*
X356183979Y-118074864D01*
X356191370Y-118052530D01*
X356197654Y-118029841D01*
X356202855Y-118006831D01*
X356206916Y-117983527D01*
X356209840Y-117959997D01*
X356211607Y-117936256D01*
X356212201Y-117912361D01*
X356212201Y-115984870D01*
X356211611Y-115960980D01*
X356209851Y-115937245D01*
X356206935Y-115913709D01*
X356202878Y-115890415D01*
X356197688Y-115867408D01*
X356191400Y-115844714D01*
X356184014Y-115822390D01*
X356175553Y-115800456D01*
X356166041Y-115778968D01*
X356155477Y-115757947D01*
X356143889Y-115737453D01*
X356131296Y-115717512D01*
X356117697Y-115698166D01*
X356103125Y-115679456D01*
X356087591Y-115661420D01*
X356071121Y-115644106D01*
X356053802Y-115627624D01*
X356035781Y-115612087D01*
X356017066Y-115597508D01*
X355997725Y-115583918D01*
X355977789Y-115571309D01*
X355957290Y-115559721D01*
X355936271Y-115549160D01*
X355914779Y-115539633D01*
X355892839Y-115531167D01*
X355870507Y-115523777D01*
X355847801Y-115517474D01*
X355824793Y-115512285D01*
X355801486Y-115508225D01*
X355777933Y-115505303D01*
X355754185Y-115503539D01*
X355730270Y-115502944D01*
X353802774Y-115502944D01*
X353778878Y-115503529D01*
X353755145Y-115505286D01*
X353731613Y-115508210D01*
X353708319Y-115512265D01*
X353685312Y-115517454D01*
X353662619Y-115523740D01*
X353640290Y-115531124D01*
X353618356Y-115539587D01*
X353596862Y-115549103D01*
X353575844Y-115559663D01*
X353555348Y-115571254D01*
X353535407Y-115583860D01*
X353516064Y-115597444D01*
X353497361Y-115612021D01*
X353479321Y-115627547D01*
X353462010Y-115644029D01*
X353445532Y-115661336D01*
X353429995Y-115679366D01*
X353415421Y-115698071D01*
X353401814Y-115717413D01*
X353389221Y-115737351D01*
X353377618Y-115757851D01*
X353367058Y-115778858D01*
X353357539Y-115800350D01*
X353349070Y-115822276D01*
X353341684Y-115844608D01*
X353335386Y-115867301D01*
X353330192Y-115890307D01*
X353326131Y-115913596D01*
X353323209Y-115937130D01*
X353321439Y-115960866D01*
X353320847Y-115984755D01*
X353205194Y-115984755D01*
X353205194Y-115792074D01*
X353205943Y-115762318D01*
X353208172Y-115732954D01*
X353211856Y-115704016D01*
X353216938Y-115675529D01*
X353223399Y-115647560D01*
X353231189Y-115620119D01*
X353240282Y-115593244D01*
X353250636Y-115566991D01*
X353262215Y-115541376D01*
X353274985Y-115516441D01*
X353288906Y-115492216D01*
X353303947Y-115468764D01*
X353320072Y-115446088D01*
X353337239Y-115424240D01*
X353355414Y-115403263D01*
X353374554Y-115383174D01*
X353394643Y-115364025D01*
X353415624Y-115345856D01*
X353437472Y-115328686D01*
X353460140Y-115312561D01*
X353483601Y-115297533D01*
X353507821Y-115283602D01*
X353532759Y-115270831D01*
X353558368Y-115259243D01*
X353584625Y-115248898D01*
X353611504Y-115239806D01*
X353638945Y-115232018D01*
X353666915Y-115225559D01*
X353695393Y-115220473D01*
X353724332Y-115216794D01*
X353753705Y-115214560D01*
X353783463Y-115213803D01*
X356096546Y-115213803D01*
X356126300Y-115214560D01*
G37*
G36*
X356126300Y-119284395D02*
G01*
X356155670Y-119286628D01*
X356184612Y-119290307D01*
X356213088Y-119295386D01*
X356241062Y-119301847D01*
X356268504Y-119309638D01*
X356295378Y-119318728D01*
X356321640Y-119329084D01*
X356347253Y-119340667D01*
X356372192Y-119353433D01*
X356396404Y-119367359D01*
X356419861Y-119382396D01*
X356442537Y-119398521D01*
X356464373Y-119415691D01*
X356485365Y-119433868D01*
X356505442Y-119453013D01*
X356524597Y-119473093D01*
X356542768Y-119494077D01*
X356559939Y-119515917D01*
X356576063Y-119538594D01*
X356591100Y-119562051D01*
X356605022Y-119586270D01*
X356617795Y-119611204D01*
X356629376Y-119636819D01*
X356639724Y-119663083D01*
X356648820Y-119689949D01*
X356656608Y-119717387D01*
X356663066Y-119745369D01*
X356668159Y-119773846D01*
X356671824Y-119802789D01*
X356674066Y-119832151D01*
X356674815Y-119861909D01*
X356674815Y-122174989D01*
X356674066Y-122204741D01*
X356671824Y-122234103D01*
X356668159Y-122263029D01*
X356663066Y-122291508D01*
X356656608Y-122319475D01*
X356648820Y-122346918D01*
X356639724Y-122373776D01*
X356629376Y-122400031D01*
X356617795Y-122425650D01*
X356605022Y-122450582D01*
X356591100Y-122474798D01*
X356576063Y-122498264D01*
X356559939Y-122520935D01*
X356542768Y-122542784D01*
X356524597Y-122563768D01*
X356505442Y-122583849D01*
X356485365Y-122602999D01*
X356464373Y-122621174D01*
X356442537Y-122638349D01*
X356419861Y-122654475D01*
X356396404Y-122669517D01*
X356372192Y-122683448D01*
X356347253Y-122696216D01*
X356321640Y-122707811D01*
X356295378Y-122718159D01*
X356268504Y-122727256D01*
X356241062Y-122735052D01*
X356213088Y-122741510D01*
X356184612Y-122746596D01*
X356155670Y-122750279D01*
X356126300Y-122752505D01*
X356096546Y-122753260D01*
X353802774Y-122753260D01*
X353783463Y-122753260D01*
X353753705Y-122752505D01*
X353724332Y-122750279D01*
X353695393Y-122746596D01*
X353666915Y-122741510D01*
X353638945Y-122735052D01*
X353611504Y-122727256D01*
X353584625Y-122718159D01*
X353558368Y-122707811D01*
X353532759Y-122696216D01*
X353507821Y-122683448D01*
X353483601Y-122669517D01*
X353460140Y-122654475D01*
X353437472Y-122638349D01*
X353415624Y-122621174D01*
X353394643Y-122602999D01*
X353374554Y-122583849D01*
X353355414Y-122563768D01*
X353337239Y-122542784D01*
X353320072Y-122520935D01*
X353303947Y-122498264D01*
X353288906Y-122474798D01*
X353274985Y-122450582D01*
X353262215Y-122425650D01*
X353250636Y-122400031D01*
X353240282Y-122373776D01*
X353231189Y-122346918D01*
X353223399Y-122319475D01*
X353216938Y-122291508D01*
X353211856Y-122263029D01*
X353208172Y-122234103D01*
X353205943Y-122204741D01*
X353205194Y-122174989D01*
X353205194Y-120054594D01*
X353320847Y-120054594D01*
X353320847Y-121982198D01*
X353321439Y-122006096D01*
X353323209Y-122029829D01*
X353326123Y-122053360D01*
X353330191Y-122076663D01*
X353335386Y-122099665D01*
X353341681Y-122122356D01*
X353349069Y-122144693D01*
X353357529Y-122166622D01*
X353367056Y-122188114D01*
X353377613Y-122209131D01*
X353389211Y-122229635D01*
X353401811Y-122249573D01*
X353415409Y-122268913D01*
X353429985Y-122287623D01*
X353445520Y-122305653D01*
X353461997Y-122322973D01*
X353479318Y-122339451D01*
X353497342Y-122354994D01*
X353516056Y-122369569D01*
X353535398Y-122383156D01*
X353555342Y-122395765D01*
X353575836Y-122407354D01*
X353596858Y-122417919D01*
X353618348Y-122427444D01*
X353640285Y-122435905D01*
X353662615Y-122443299D01*
X353685305Y-122449593D01*
X353708313Y-122454783D01*
X353731605Y-122458850D01*
X353755143Y-122461766D01*
X353778874Y-122463537D01*
X353802774Y-122464128D01*
X355730270Y-122464128D01*
X355754166Y-122463537D01*
X355777898Y-122461766D01*
X355801437Y-122458850D01*
X355824722Y-122454783D01*
X355847739Y-122449593D01*
X355870429Y-122443299D01*
X355892762Y-122435905D01*
X355914691Y-122427444D01*
X355936184Y-122417919D01*
X355957208Y-122407354D01*
X355977704Y-122395765D01*
X355997644Y-122383156D01*
X356016991Y-122369569D01*
X356035698Y-122354994D01*
X356053726Y-122339451D01*
X356071040Y-122322973D01*
X356087522Y-122305653D01*
X356103055Y-122287623D01*
X356117631Y-122268913D01*
X356131231Y-122249573D01*
X356143830Y-122229635D01*
X356155428Y-122209131D01*
X356165994Y-122188114D01*
X356175518Y-122166622D01*
X356183979Y-122144693D01*
X356191370Y-122122356D01*
X356197654Y-122099665D01*
X356202855Y-122076663D01*
X356206916Y-122053360D01*
X356209840Y-122029829D01*
X356211607Y-122006096D01*
X356212201Y-121982198D01*
X356212201Y-120054707D01*
X356211611Y-120030813D01*
X356209851Y-120007080D01*
X356206935Y-119983542D01*
X356202878Y-119960251D01*
X356197688Y-119937246D01*
X356191400Y-119914562D01*
X356184014Y-119892228D01*
X356175553Y-119870287D01*
X356166041Y-119848805D01*
X356155477Y-119827782D01*
X356143889Y-119807273D01*
X356131296Y-119787342D01*
X356117697Y-119767996D01*
X356103125Y-119749291D01*
X356087591Y-119731258D01*
X356071121Y-119713939D01*
X356053802Y-119697462D01*
X356035781Y-119681922D01*
X356017066Y-119667349D01*
X355997725Y-119653750D01*
X355977789Y-119641156D01*
X355957290Y-119629559D01*
X355936271Y-119618991D01*
X355914779Y-119609465D01*
X355892839Y-119600998D01*
X355870507Y-119593610D01*
X355847801Y-119587312D01*
X355824793Y-119582122D01*
X355801486Y-119578062D01*
X355777933Y-119575137D01*
X355754185Y-119573369D01*
X355730270Y-119572768D01*
X353802774Y-119572768D01*
X353778878Y-119573367D01*
X353755145Y-119575126D01*
X353731613Y-119578042D01*
X353708319Y-119582102D01*
X353685312Y-119587282D01*
X353662619Y-119593576D01*
X353640290Y-119600958D01*
X353618356Y-119609419D01*
X353596862Y-119618937D01*
X353575844Y-119629501D01*
X353555348Y-119641093D01*
X353535407Y-119653688D01*
X353516064Y-119667279D01*
X353497361Y-119681850D01*
X353479321Y-119697385D01*
X353462010Y-119713856D01*
X353445532Y-119731171D01*
X353429995Y-119749192D01*
X353415421Y-119767906D01*
X353401814Y-119787249D01*
X353389221Y-119807181D01*
X353377618Y-119827680D01*
X353367058Y-119848693D01*
X353357539Y-119870190D01*
X353349070Y-119892119D01*
X353341684Y-119914441D01*
X353335386Y-119937132D01*
X353330192Y-119960138D01*
X353326131Y-119983419D01*
X353323209Y-120006966D01*
X353321439Y-120030704D01*
X353320847Y-120054594D01*
X353205194Y-120054594D01*
X353205194Y-119861909D01*
X353205943Y-119832151D01*
X353208172Y-119802789D01*
X353211856Y-119773846D01*
X353216938Y-119745369D01*
X353223399Y-119717387D01*
X353231189Y-119689949D01*
X353240282Y-119663083D01*
X353250636Y-119636819D01*
X353262215Y-119611204D01*
X353274985Y-119586270D01*
X353288906Y-119562051D01*
X353303947Y-119538594D01*
X353320072Y-119515917D01*
X353337239Y-119494077D01*
X353355414Y-119473093D01*
X353374554Y-119453013D01*
X353394643Y-119433868D01*
X353415624Y-119415691D01*
X353437472Y-119398521D01*
X353460140Y-119382396D01*
X353483601Y-119367359D01*
X353507821Y-119353433D01*
X353532759Y-119340667D01*
X353558368Y-119329084D01*
X353584625Y-119318728D01*
X353611504Y-119309638D01*
X353638945Y-119301847D01*
X353666915Y-119295386D01*
X353695393Y-119290307D01*
X353724332Y-119286628D01*
X353753705Y-119284395D01*
X353783463Y-119283638D01*
X356096546Y-119283638D01*
X356126300Y-119284395D01*
G37*
G36*
X355034191Y-128423498D02*
G01*
X355074690Y-128421466D01*
X355114154Y-128417894D01*
X355152606Y-128412792D01*
X355190018Y-128406145D01*
X355226419Y-128397961D01*
X355261785Y-128388242D01*
X355296124Y-128376981D01*
X355329447Y-128364185D01*
X355361739Y-128349858D01*
X355393009Y-128333995D01*
X355423250Y-128316581D01*
X355452465Y-128297637D01*
X355480659Y-128277148D01*
X355507826Y-128255126D01*
X355533971Y-128231566D01*
X355559084Y-128206473D01*
X355582310Y-128179582D01*
X355604034Y-128151899D01*
X355624265Y-128123429D01*
X355642992Y-128094172D01*
X355660221Y-128064130D01*
X355675954Y-128033295D01*
X355690190Y-128001672D01*
X355702924Y-127969258D01*
X355714165Y-127936059D01*
X355723905Y-127902072D01*
X355732142Y-127867297D01*
X355738882Y-127831726D01*
X355744129Y-127795374D01*
X355747881Y-127758234D01*
X355750123Y-127720298D01*
X355750877Y-127681579D01*
X355750355Y-127645556D01*
X355748824Y-127610684D01*
X355746262Y-127576951D01*
X355742674Y-127544363D01*
X355738054Y-127512917D01*
X355732415Y-127482613D01*
X355725753Y-127453452D01*
X355718073Y-127425437D01*
X355709354Y-127398568D01*
X355699615Y-127372840D01*
X355688853Y-127348262D01*
X355677062Y-127324812D01*
X355664246Y-127302516D01*
X355650408Y-127281361D01*
X355635540Y-127261354D01*
X355619650Y-127242485D01*
X355603091Y-127223833D01*
X355586210Y-127205737D01*
X355569021Y-127188186D01*
X355551513Y-127171191D01*
X355533688Y-127154755D01*
X355515556Y-127138863D01*
X355497094Y-127123521D01*
X355478329Y-127108736D01*
X355459249Y-127094500D01*
X355439848Y-127080815D01*
X355420129Y-127067686D01*
X355400102Y-127055106D01*
X355379758Y-127043078D01*
X355359097Y-127031612D01*
X355338121Y-127020687D01*
X355316826Y-127010318D01*
X355538893Y-126581319D01*
X355556621Y-126590410D01*
X355574463Y-126600010D01*
X355610496Y-126620749D01*
X355647014Y-126643534D01*
X355684000Y-126668378D01*
X355721457Y-126695271D01*
X355759390Y-126724215D01*
X355797790Y-126755206D01*
X355836671Y-126788249D01*
X355856034Y-126804982D01*
X355875000Y-126822398D01*
X355893568Y-126840469D01*
X355911747Y-126859227D01*
X355929527Y-126878641D01*
X355946922Y-126898726D01*
X355963917Y-126919493D01*
X355980508Y-126940919D01*
X355996721Y-126963015D01*
X356012525Y-126985790D01*
X356027946Y-127009234D01*
X356042969Y-127033346D01*
X356057593Y-127058129D01*
X356071830Y-127083577D01*
X356085670Y-127109700D01*
X356099119Y-127136494D01*
X356111956Y-127164097D01*
X356123953Y-127192644D01*
X356135141Y-127222132D01*
X356145489Y-127252574D01*
X356155008Y-127283962D01*
X356163711Y-127316294D01*
X356171574Y-127349579D01*
X356178613Y-127383800D01*
X356184820Y-127418976D01*
X356190202Y-127455099D01*
X356194754Y-127492149D01*
X356198485Y-127530166D01*
X356201381Y-127569122D01*
X356203446Y-127609024D01*
X356204695Y-127649878D01*
X356205113Y-127691675D01*
X356205114Y-127691675D01*
X356204498Y-127738618D01*
X356202662Y-127784807D01*
X356199607Y-127830248D01*
X356195330Y-127874943D01*
X356189830Y-127918893D01*
X356183105Y-127962083D01*
X356175164Y-128004531D01*
X356165995Y-128046227D01*
X356155610Y-128087176D01*
X356143994Y-128127373D01*
X356131163Y-128166819D01*
X356117108Y-128205525D01*
X356101825Y-128243478D01*
X356085322Y-128280678D01*
X356067599Y-128317129D01*
X356048656Y-128352838D01*
X356027969Y-128387690D01*
X356006303Y-128421600D01*
X355983654Y-128454568D01*
X355960011Y-128486578D01*
X355935388Y-128517648D01*
X355909778Y-128547778D01*
X355883187Y-128576957D01*
X355855596Y-128605187D01*
X355827037Y-128632474D01*
X355797479Y-128658812D01*
X355766944Y-128684203D01*
X355735419Y-128708652D01*
X355702908Y-128732150D01*
X355669413Y-128754704D01*
X355634928Y-128776316D01*
X355599467Y-128796977D01*
X355562518Y-128815919D01*
X355524860Y-128833648D01*
X355486493Y-128850148D01*
X355447420Y-128865425D01*
X355407638Y-128879475D01*
X355367142Y-128892322D01*
X355325934Y-128903932D01*
X355284019Y-128914318D01*
X355241399Y-128923487D01*
X355198062Y-128931433D01*
X355154020Y-128938155D01*
X355109267Y-128943656D01*
X355063808Y-128947933D01*
X355017630Y-128950988D01*
X354970747Y-128952824D01*
X354923161Y-128953434D01*
X354862587Y-128953434D01*
X354814407Y-128952824D01*
X354767017Y-128950988D01*
X354720409Y-128947933D01*
X354674592Y-128943656D01*
X354635470Y-128938880D01*
X354629563Y-128938155D01*
X354585321Y-128931433D01*
X354541868Y-128923487D01*
X354499205Y-128914318D01*
X354457333Y-128903932D01*
X354416241Y-128892322D01*
X354375946Y-128879475D01*
X354336437Y-128865425D01*
X354297715Y-128850148D01*
X354259797Y-128833648D01*
X354222645Y-128815919D01*
X354186293Y-128796977D01*
X354150227Y-128776943D01*
X354115232Y-128755966D01*
X354081306Y-128734043D01*
X354048441Y-128711175D01*
X354016641Y-128687362D01*
X353985906Y-128662602D01*
X353956234Y-128636893D01*
X353927626Y-128610237D01*
X353900090Y-128582635D01*
X353873607Y-128554087D01*
X353848197Y-128524589D01*
X353823846Y-128494153D01*
X353800564Y-128462762D01*
X353778347Y-128430435D01*
X353757189Y-128397153D01*
X353737100Y-128362933D01*
X353717540Y-128327269D01*
X353699246Y-128290933D01*
X353682213Y-128253928D01*
X353666444Y-128216251D01*
X353651936Y-128177903D01*
X353638684Y-128138881D01*
X353626691Y-128099199D01*
X353615971Y-128058845D01*
X353606506Y-128017818D01*
X353598309Y-127976124D01*
X353591365Y-127933747D01*
X353585694Y-127890711D01*
X353581271Y-127847009D01*
X353578117Y-127802625D01*
X353576223Y-127757572D01*
X353575667Y-127716905D01*
X354034870Y-127716905D01*
X354035503Y-127753087D01*
X354037399Y-127788432D01*
X354040554Y-127822955D01*
X354044974Y-127856649D01*
X354050650Y-127889515D01*
X354057587Y-127921548D01*
X354065793Y-127952761D01*
X354075254Y-127983140D01*
X354085980Y-128012693D01*
X354097966Y-128041418D01*
X354111211Y-128069315D01*
X354125718Y-128096385D01*
X354141497Y-128122624D01*
X354158534Y-128148038D01*
X354176827Y-128172616D01*
X354196383Y-128196378D01*
X354216434Y-128218541D01*
X354237469Y-128239592D01*
X354259497Y-128259544D01*
X354282499Y-128278392D01*
X354306496Y-128296137D01*
X354331469Y-128312775D01*
X354357435Y-128328309D01*
X354384387Y-128342743D01*
X354412326Y-128356065D01*
X354441240Y-128368288D01*
X354471151Y-128379411D01*
X354502042Y-128389428D01*
X354533930Y-128398337D01*
X354566794Y-128406145D01*
X354600641Y-128412849D01*
X354635470Y-128418449D01*
X354635470Y-127040603D01*
X354600641Y-127043756D01*
X354566787Y-127048173D01*
X354533924Y-127053846D01*
X354502039Y-127060786D01*
X354471149Y-127068984D01*
X354441240Y-127078450D01*
X354412326Y-127089177D01*
X354384385Y-127101164D01*
X354357434Y-127114417D01*
X354331466Y-127128922D01*
X354306490Y-127144691D01*
X354282499Y-127161731D01*
X354259488Y-127180027D01*
X354237463Y-127199582D01*
X354216434Y-127220403D01*
X354196383Y-127242485D01*
X354176827Y-127265636D01*
X354158534Y-127289644D01*
X354141497Y-127314521D01*
X354125718Y-127340268D01*
X354111211Y-127366883D01*
X354097966Y-127394372D01*
X354085980Y-127422719D01*
X354075254Y-127451940D01*
X354065793Y-127482025D01*
X354057587Y-127512976D01*
X354050650Y-127544795D01*
X354044974Y-127577484D01*
X354040554Y-127611040D01*
X354037399Y-127645461D01*
X354035503Y-127680748D01*
X354034870Y-127716905D01*
X353575667Y-127716905D01*
X353575598Y-127711857D01*
X353576223Y-127667417D01*
X353578117Y-127623697D01*
X353581271Y-127580670D01*
X353585694Y-127538367D01*
X353591365Y-127496765D01*
X353598309Y-127455879D01*
X353606506Y-127415698D01*
X353615971Y-127376228D01*
X353626691Y-127337468D01*
X353638684Y-127299417D01*
X353651936Y-127262080D01*
X353666444Y-127225451D01*
X353682213Y-127189531D01*
X353699246Y-127154319D01*
X353717540Y-127119813D01*
X353737100Y-127086027D01*
X353757156Y-127052428D01*
X353778192Y-127019783D01*
X353800214Y-126988080D01*
X353823216Y-126957322D01*
X353847212Y-126927511D01*
X353872190Y-126898652D01*
X353898148Y-126870739D01*
X353925102Y-126843764D01*
X353953045Y-126817746D01*
X353981961Y-126792663D01*
X354011869Y-126768533D01*
X354042765Y-126745345D01*
X354074644Y-126723114D01*
X354107504Y-126701818D01*
X354141361Y-126681470D01*
X354176190Y-126662067D01*
X354211901Y-126643735D01*
X354248350Y-126626580D01*
X354285554Y-126610615D01*
X354323504Y-126595820D01*
X354362207Y-126582221D01*
X354401652Y-126569806D01*
X354441848Y-126558569D01*
X354482800Y-126548516D01*
X354524498Y-126539645D01*
X354566943Y-126531950D01*
X354610145Y-126525445D01*
X354654086Y-126520122D01*
X354698781Y-126515985D01*
X354744221Y-126513025D01*
X354790416Y-126511254D01*
X354837355Y-126510660D01*
X355034191Y-126510660D01*
X355034191Y-128423498D01*
G37*
G36*
X355111688Y-120440788D02*
G01*
X355145165Y-120442623D01*
X355177787Y-120445662D01*
X355209546Y-120449922D01*
X355240448Y-120455396D01*
X355270485Y-120462097D01*
X355299669Y-120470003D01*
X355327984Y-120479137D01*
X355355449Y-120489490D01*
X355382044Y-120501055D01*
X355407786Y-120513835D01*
X355432671Y-120527837D01*
X355456691Y-120543054D01*
X355479850Y-120559491D01*
X355502154Y-120577152D01*
X355523595Y-120596022D01*
X355543941Y-120615882D01*
X355562980Y-120636426D01*
X355580709Y-120657652D01*
X355597127Y-120679576D01*
X355612233Y-120702190D01*
X355626029Y-120725498D01*
X355638508Y-120749498D01*
X355649680Y-120774182D01*
X355659541Y-120799564D01*
X355668085Y-120825636D01*
X355675318Y-120852391D01*
X355681233Y-120879843D01*
X355685837Y-120907979D01*
X355689120Y-120936807D01*
X355691101Y-120966323D01*
X355691759Y-120996536D01*
X355690921Y-121028953D01*
X355688427Y-121060637D01*
X355684259Y-121091599D01*
X355678426Y-121121836D01*
X355670919Y-121151336D01*
X355661754Y-121180114D01*
X355650918Y-121208151D01*
X355638421Y-121235477D01*
X355624264Y-121262066D01*
X355608429Y-121287923D01*
X355590939Y-121313055D01*
X355571778Y-121337462D01*
X355550953Y-121361129D01*
X355528461Y-121384078D01*
X355504307Y-121406271D01*
X355478489Y-121427750D01*
X355450772Y-121448207D01*
X355420933Y-121467336D01*
X355388965Y-121485152D01*
X355354860Y-121501654D01*
X355318635Y-121516834D01*
X355280274Y-121530696D01*
X355239787Y-121543237D01*
X355197168Y-121554456D01*
X355152419Y-121564364D01*
X355105541Y-121572950D01*
X355056539Y-121580208D01*
X355050108Y-121580956D01*
X355005404Y-121586157D01*
X354952133Y-121590783D01*
X354896732Y-121594085D01*
X354839195Y-121596064D01*
X354779534Y-121596726D01*
X354718338Y-121596038D01*
X354659320Y-121593974D01*
X354602473Y-121590533D01*
X354547797Y-121585708D01*
X354495296Y-121579519D01*
X354444970Y-121571947D01*
X354396819Y-121563004D01*
X354350840Y-121552684D01*
X354307034Y-121540987D01*
X354265402Y-121527912D01*
X354225954Y-121513472D01*
X354188677Y-121497647D01*
X354153569Y-121480464D01*
X354120646Y-121461894D01*
X354089899Y-121441953D01*
X354061321Y-121420640D01*
X354034676Y-121398233D01*
X354009744Y-121374998D01*
X353986538Y-121350948D01*
X353965051Y-121326072D01*
X353945279Y-121300369D01*
X353927229Y-121273860D01*
X353910901Y-121246516D01*
X353896288Y-121218353D01*
X353883398Y-121189367D01*
X353872224Y-121159559D01*
X353862768Y-121128937D01*
X353855039Y-121097489D01*
X353849024Y-121065211D01*
X353844722Y-121032118D01*
X353842145Y-120998207D01*
X353841293Y-120963460D01*
X353841738Y-120939079D01*
X353843094Y-120915229D01*
X353845347Y-120891905D01*
X353848510Y-120869107D01*
X353852573Y-120846847D01*
X353857539Y-120825104D01*
X353863399Y-120803898D01*
X353870170Y-120783216D01*
X353877842Y-120763072D01*
X353886420Y-120743444D01*
X353895900Y-120724357D01*
X353906277Y-120705797D01*
X353917564Y-120687765D01*
X353929753Y-120670259D01*
X353942836Y-120653296D01*
X353956829Y-120636850D01*
X353971697Y-120621048D01*
X353987392Y-120605990D01*
X354003887Y-120591650D01*
X354021209Y-120578041D01*
X354039335Y-120565177D01*
X354058282Y-120553037D01*
X354078041Y-120541631D01*
X354098614Y-120530963D01*
X354119994Y-120521029D01*
X354142198Y-120511822D01*
X354165197Y-120503357D01*
X354189016Y-120495625D01*
X354213647Y-120488624D01*
X354239087Y-120482357D01*
X354265337Y-120476834D01*
X354292400Y-120472041D01*
X354329578Y-120793387D01*
X354316816Y-120795019D01*
X354304466Y-120796941D01*
X354292553Y-120799161D01*
X354281050Y-120801674D01*
X354269978Y-120804479D01*
X354259338Y-120807581D01*
X354249108Y-120810975D01*
X354239320Y-120814665D01*
X354229949Y-120818652D01*
X354221011Y-120822941D01*
X354212491Y-120827517D01*
X354204401Y-120832390D01*
X354196747Y-120837562D01*
X354189513Y-120843035D01*
X354182708Y-120848802D01*
X354176341Y-120854861D01*
X354170346Y-120861182D01*
X354164743Y-120867722D01*
X354159538Y-120874510D01*
X354154706Y-120881504D01*
X354150260Y-120888752D01*
X354146212Y-120896224D01*
X354142543Y-120903925D01*
X354139257Y-120911856D01*
X354136362Y-120920020D01*
X354133851Y-120928413D01*
X354131726Y-120937039D01*
X354129984Y-120945897D01*
X354128632Y-120954984D01*
X354127670Y-120964299D01*
X354127091Y-120973859D01*
X354126897Y-120983641D01*
X354127284Y-120996670D01*
X354128440Y-121009430D01*
X354130371Y-121021950D01*
X354133077Y-121034206D01*
X354136550Y-121046217D01*
X354140798Y-121057963D01*
X354145818Y-121069456D01*
X354151607Y-121080699D01*
X354158175Y-121091680D01*
X354165506Y-121102407D01*
X354173618Y-121112878D01*
X354182492Y-121123094D01*
X354192148Y-121133060D01*
X354202564Y-121142762D01*
X354213757Y-121152203D01*
X354225728Y-121161399D01*
X354238926Y-121170274D01*
X354253803Y-121178731D01*
X354270349Y-121186762D01*
X354288563Y-121194377D01*
X354308451Y-121201558D01*
X354330010Y-121208339D01*
X354353239Y-121214693D01*
X354378134Y-121220619D01*
X354404711Y-121226130D01*
X354432950Y-121231226D01*
X354462860Y-121235899D01*
X354494454Y-121240160D01*
X354527704Y-121243994D01*
X354562633Y-121247417D01*
X354599238Y-121250415D01*
X354637507Y-121252996D01*
X354618916Y-121237254D01*
X354601528Y-121221049D01*
X354585337Y-121204361D01*
X354570346Y-121187215D01*
X354556561Y-121169594D01*
X354543969Y-121151505D01*
X354532585Y-121132932D01*
X354522388Y-121113902D01*
X354513397Y-121094403D01*
X354505607Y-121074424D01*
X354499018Y-121053977D01*
X354493624Y-121033058D01*
X354489432Y-121011666D01*
X354487359Y-120996536D01*
X354739925Y-120996536D01*
X354740223Y-121008387D01*
X354741142Y-121020014D01*
X354742673Y-121031399D01*
X354744810Y-121042560D01*
X354747562Y-121053491D01*
X354750927Y-121064187D01*
X354754903Y-121074647D01*
X354759493Y-121084886D01*
X354764698Y-121094881D01*
X354770513Y-121104654D01*
X354776935Y-121114191D01*
X354783983Y-121123490D01*
X354791634Y-121132569D01*
X354799893Y-121141405D01*
X354808778Y-121150010D01*
X354818269Y-121158396D01*
X354828389Y-121166417D01*
X354839093Y-121173920D01*
X354850387Y-121180908D01*
X354862248Y-121187367D01*
X354874704Y-121193315D01*
X354887742Y-121198743D01*
X354901359Y-121203648D01*
X354915566Y-121208036D01*
X354930351Y-121211909D01*
X354945717Y-121215265D01*
X354961666Y-121218103D01*
X354978198Y-121220421D01*
X354995302Y-121222228D01*
X355012994Y-121223528D01*
X355031261Y-121224293D01*
X355050108Y-121224549D01*
X355070977Y-121224258D01*
X355091246Y-121223387D01*
X355110909Y-121221925D01*
X355129970Y-121219888D01*
X355148419Y-121217269D01*
X355166271Y-121214065D01*
X355183507Y-121210276D01*
X355200150Y-121205919D01*
X355216184Y-121200977D01*
X355231614Y-121195462D01*
X355246441Y-121189346D01*
X355260669Y-121182662D01*
X355274290Y-121175399D01*
X355287307Y-121167551D01*
X355299726Y-121159123D01*
X355311541Y-121150126D01*
X355322695Y-121140747D01*
X355333136Y-121131202D01*
X355342850Y-121121496D01*
X355351853Y-121111610D01*
X355360136Y-121101564D01*
X355367696Y-121091356D01*
X355374541Y-121080967D01*
X355380661Y-121070427D01*
X355386060Y-121059713D01*
X355390750Y-121048831D01*
X355394709Y-121037784D01*
X355397947Y-121026566D01*
X355400476Y-121015195D01*
X355402270Y-121003638D01*
X355403357Y-120991926D01*
X355403721Y-120980050D01*
X355403428Y-120968647D01*
X355402540Y-120957486D01*
X355401060Y-120946567D01*
X355398998Y-120935881D01*
X355396334Y-120925449D01*
X355393092Y-120915255D01*
X355389253Y-120905300D01*
X355384828Y-120895588D01*
X355379821Y-120886100D01*
X355374219Y-120876873D01*
X355368022Y-120867881D01*
X355361253Y-120859119D01*
X355353879Y-120850597D01*
X355345926Y-120842314D01*
X355337379Y-120834270D01*
X355328256Y-120826464D01*
X355318454Y-120819039D01*
X355307902Y-120812092D01*
X355296593Y-120805612D01*
X355284528Y-120799618D01*
X355271713Y-120794090D01*
X355258141Y-120789052D01*
X355243816Y-120784486D01*
X355228738Y-120780401D01*
X355212913Y-120776791D01*
X355196337Y-120773674D01*
X355178997Y-120771019D01*
X355160909Y-120768855D01*
X355142068Y-120767171D01*
X355122477Y-120765961D01*
X355102142Y-120765239D01*
X355081044Y-120764999D01*
X355059315Y-120765255D01*
X355038317Y-120766039D01*
X355018067Y-120767327D01*
X354998563Y-120769134D01*
X354979792Y-120771456D01*
X354961759Y-120774301D01*
X354944475Y-120777659D01*
X354927926Y-120781539D01*
X354912115Y-120785928D01*
X354897045Y-120790839D01*
X354882701Y-120796283D01*
X354869099Y-120802223D01*
X354856234Y-120808691D01*
X354844102Y-120815676D01*
X354832705Y-120823189D01*
X354822034Y-120831211D01*
X354812112Y-120839623D01*
X354802817Y-120848289D01*
X354794162Y-120857204D01*
X354786151Y-120866382D01*
X354778776Y-120875808D01*
X354772042Y-120885492D01*
X354765941Y-120895427D01*
X354760488Y-120905628D01*
X354755674Y-120916085D01*
X354751493Y-120926798D01*
X354747958Y-120937778D01*
X354745066Y-120949005D01*
X354742814Y-120960494D01*
X354741206Y-120972251D01*
X354740244Y-120984262D01*
X354739925Y-120996536D01*
X354487359Y-120996536D01*
X354486436Y-120989804D01*
X354484636Y-120967467D01*
X354484038Y-120944665D01*
X354484684Y-120918917D01*
X354486630Y-120893637D01*
X354489877Y-120868805D01*
X354494409Y-120844448D01*
X354500241Y-120820562D01*
X354507371Y-120797142D01*
X354515793Y-120774168D01*
X354525514Y-120751668D01*
X354536527Y-120729642D01*
X354548834Y-120708081D01*
X354562434Y-120686991D01*
X354577327Y-120666369D01*
X354593513Y-120646215D01*
X354610987Y-120626520D01*
X354629760Y-120607311D01*
X354649825Y-120588569D01*
X354670900Y-120570585D01*
X354692732Y-120553765D01*
X354715308Y-120538112D01*
X354738635Y-120523617D01*
X354762729Y-120510284D01*
X354787557Y-120498107D01*
X354813150Y-120487100D01*
X354839490Y-120477243D01*
X354866586Y-120468557D01*
X354894437Y-120461023D01*
X354923038Y-120454656D01*
X354952386Y-120449454D01*
X354982499Y-120445391D01*
X355013362Y-120442497D01*
X355044972Y-120440761D01*
X355077342Y-120440189D01*
X355111688Y-120440788D01*
G37*
D12*
X352599238Y-135455237D02*
X352599772Y-135452545D01*
X352600383Y-135449872D01*
X352601071Y-135447219D01*
X352601836Y-135444588D01*
X352602678Y-135441982D01*
X352603594Y-135439401D01*
X352604585Y-135436849D01*
X352605651Y-135434325D01*
X352606790Y-135431834D01*
X352608001Y-135429376D01*
X352609283Y-135426954D01*
X352610636Y-135424570D01*
X352612058Y-135422225D01*
X352613549Y-135419922D01*
X352615106Y-135417663D01*
X352616729Y-135415449D01*
X352618416Y-135413284D01*
X352620166Y-135411168D01*
X352621064Y-135410129D01*
X352621977Y-135409103D01*
X352622905Y-135408091D01*
X352623847Y-135407092D01*
X352624804Y-135406107D01*
X352625775Y-135405136D01*
X352626761Y-135404180D01*
X352627760Y-135403237D01*
X352628773Y-135402310D01*
X352629799Y-135401397D01*
X352630838Y-135400500D01*
X352631891Y-135399617D01*
X352632955Y-135398751D01*
X352634033Y-135397899D01*
X352635122Y-135397064D01*
X352636225Y-135396245D01*
X352637338Y-135395442D01*
X352638463Y-135394655D01*
X352639599Y-135393885D01*
X352640748Y-135393131D01*
X352641905Y-135392395D01*
X352643075Y-135391674D01*
X352644254Y-135390972D01*
X352645445Y-135390286D01*
X352646644Y-135389619D01*
X352647854Y-135388968D01*
X352649072Y-135388335D01*
X352650301Y-135387720D01*
X352651538Y-135387123D01*
X352652785Y-135386544D01*
X352654039Y-135385983D01*
X352655304Y-135385440D01*
X352656574Y-135384915D01*
X352657855Y-135384409D01*
X352660254Y-135383517D01*
X352660254Y-135383517D02*
X352662853Y-135382633D01*
X352665475Y-135381826D01*
X352668117Y-135381096D01*
X352670778Y-135380443D01*
X352673457Y-135379868D01*
X352676150Y-135379372D01*
X352678857Y-135378954D01*
X352681576Y-135378615D01*
X352684303Y-135378356D01*
X352687038Y-135378176D01*
X352689777Y-135378075D01*
X352692519Y-135378055D01*
X352695261Y-135378114D01*
X352698001Y-135378254D01*
X352700736Y-135378473D01*
X352703465Y-135378772D01*
X352706184Y-135379150D01*
X352708891Y-135379607D01*
X352710240Y-135379865D01*
X352711585Y-135380143D01*
X352712925Y-135380440D01*
X352714261Y-135380757D01*
X352715593Y-135381094D01*
X352716919Y-135381449D01*
X352718240Y-135381824D01*
X352719556Y-135382219D01*
X352720865Y-135382632D01*
X352722169Y-135383064D01*
X352723465Y-135383516D01*
X352724755Y-135383986D01*
X352726038Y-135384475D01*
X352727314Y-135384982D01*
X352728582Y-135385508D01*
X352729842Y-135386053D01*
X352731094Y-135386615D01*
X352732338Y-135387197D01*
X352733573Y-135387795D01*
X352734800Y-135388413D01*
X352736016Y-135389047D01*
X352737224Y-135389700D01*
X352738422Y-135390370D01*
X352739611Y-135391058D01*
X352740788Y-135391763D01*
X352741957Y-135392485D01*
X352743113Y-135393224D01*
X352744260Y-135393981D01*
X352745395Y-135394753D01*
X352746521Y-135395543D01*
X352747633Y-135396349D01*
X352748735Y-135397172D01*
X352749825Y-135398011D01*
X352750903Y-135398866D01*
X352752870Y-135400494D01*
X352662450Y-135632643D02*
X352659517Y-135630096D01*
X352656640Y-135627491D01*
X352653817Y-135624828D01*
X352651052Y-135622110D01*
X352648344Y-135619335D01*
X352645694Y-135616507D01*
X352643103Y-135613624D01*
X352640573Y-135610690D01*
X352638104Y-135607703D01*
X352635696Y-135604667D01*
X352633352Y-135601581D01*
X352631072Y-135598448D01*
X352628856Y-135595267D01*
X352626706Y-135592042D01*
X352624622Y-135588772D01*
X352622606Y-135585459D01*
X352620659Y-135582104D01*
X352618780Y-135578710D01*
X352616972Y-135575277D01*
X352615234Y-135571807D01*
X352613568Y-135568301D01*
X352611974Y-135564761D01*
X352610453Y-135561188D01*
X352609006Y-135557585D01*
X352607633Y-135553952D01*
X352606336Y-135550292D01*
X352605715Y-135548451D01*
X352605114Y-135546605D01*
X352604531Y-135544752D01*
X352603968Y-135542894D01*
X352603423Y-135541029D01*
X352602898Y-135539159D01*
X352602393Y-135537285D01*
X352601906Y-135535404D01*
X352601439Y-135533519D01*
X352600992Y-135531629D01*
X352600564Y-135529736D01*
X352600156Y-135527837D01*
X352599767Y-135525935D01*
X352599398Y-135524028D01*
X352599048Y-135522119D01*
X352598718Y-135520205D01*
X352598408Y-135518289D01*
X352598118Y-135516369D01*
X352597848Y-135514447D01*
X352597597Y-135512521D01*
X352597367Y-135510594D01*
X352597156Y-135508664D01*
X352596965Y-135506733D01*
X352596794Y-135504799D01*
X352596643Y-135502865D01*
X352596512Y-135500928D01*
X352596401Y-135498991D01*
X352596310Y-135497051D01*
X352596239Y-135495113D01*
X352596188Y-135493172D01*
X352596158Y-135491232D01*
X352596147Y-135489290D01*
X352596156Y-135487350D01*
X352596185Y-135485409D01*
X352596234Y-135483469D01*
X352596304Y-135481528D01*
X352596393Y-135479590D01*
X352596502Y-135477650D01*
X352596632Y-135475714D01*
X352596781Y-135473776D01*
X352596950Y-135471842D01*
X352597140Y-135469908D01*
X352597349Y-135467977D01*
X352597578Y-135466046D01*
X352597827Y-135464119D01*
X352598097Y-135462192D01*
X352598385Y-135460270D01*
X352598695Y-135458348D01*
X352599238Y-135455237D01*
X352752870Y-135400494D02*
X352754935Y-135402303D01*
X352756945Y-135404170D01*
X352758899Y-135406094D01*
X352760795Y-135408072D01*
X352762632Y-135410105D01*
X352764408Y-135412190D01*
X352766124Y-135414326D01*
X352767776Y-135416511D01*
X352769365Y-135418743D01*
X352770888Y-135421022D01*
X352772345Y-135423344D01*
X352773733Y-135425708D01*
X352775053Y-135428113D01*
X352776302Y-135430556D01*
X352777480Y-135433035D01*
X352778586Y-135435547D01*
X352779618Y-135438092D01*
X352780576Y-135440665D01*
X352781026Y-135441962D01*
X352781458Y-135443266D01*
X352781871Y-135444576D01*
X352782265Y-135445891D01*
X352782639Y-135447212D01*
X352782994Y-135448539D01*
X352783330Y-135449871D01*
X352783646Y-135451207D01*
X352783943Y-135452548D01*
X352784220Y-135453893D01*
X352784478Y-135455241D01*
X352784716Y-135456594D01*
X352784934Y-135457949D01*
X352785132Y-135459308D01*
X352785310Y-135460669D01*
X352785469Y-135462033D01*
X352785608Y-135463398D01*
X352785726Y-135464767D01*
X352785825Y-135466135D01*
X352785904Y-135467506D01*
X352785962Y-135468877D01*
X352786001Y-135470250D01*
X352786020Y-135471622D01*
X352786018Y-135472995D01*
X352785997Y-135474367D01*
X352785955Y-135475740D01*
X352785894Y-135477111D01*
X352785812Y-135478483D01*
X352785711Y-135479852D01*
X352785589Y-135481222D01*
X352785447Y-135482588D01*
X352785286Y-135483954D01*
X352785104Y-135485316D01*
X352784902Y-135486678D01*
X352784476Y-135489196D01*
X352784476Y-135489196D02*
X352784020Y-135491903D01*
X352783644Y-135494620D01*
X352783347Y-135497346D01*
X352783129Y-135500077D01*
X352782991Y-135502813D01*
X352782933Y-135505552D01*
X352782955Y-135508291D01*
X352783056Y-135511029D01*
X352783237Y-135513763D01*
X352783498Y-135516491D01*
X352783838Y-135519211D01*
X352784258Y-135521921D01*
X352784756Y-135524618D01*
X352785333Y-135527301D01*
X352785988Y-135529966D01*
X352786720Y-135532611D01*
X352787530Y-135535235D01*
X352788415Y-135537835D01*
X352788886Y-135539125D01*
X352789376Y-135540408D01*
X352789885Y-135541683D01*
X352790412Y-135542952D01*
X352790957Y-135544212D01*
X352791521Y-135545464D01*
X352792103Y-135546708D01*
X352792703Y-135547944D01*
X352793321Y-135549170D01*
X352793957Y-135550388D01*
X352794610Y-135551595D01*
X352795281Y-135552794D01*
X352795969Y-135553982D01*
X352796675Y-135555160D01*
X352797397Y-135556327D01*
X352798137Y-135557485D01*
X352798893Y-135558630D01*
X352799667Y-135559765D01*
X352800456Y-135560888D01*
X352801262Y-135562000D01*
X352802083Y-135563099D01*
X352802921Y-135564188D01*
X352803775Y-135565262D01*
X352804644Y-135566326D01*
X352805529Y-135567375D01*
X352806429Y-135568413D01*
X352807344Y-135569436D01*
X352808275Y-135570448D01*
X352809219Y-135571444D01*
X352810180Y-135572429D01*
X352811154Y-135573398D01*
X352812143Y-135574354D01*
X352813145Y-135575295D01*
X352814163Y-135576223D01*
X352816084Y-135577903D01*
X352816084Y-135577903D02*
X352818200Y-135579651D01*
X352820365Y-135581336D01*
X352822577Y-135582956D01*
X352824833Y-135584510D01*
X352827134Y-135585997D01*
X352829476Y-135587417D01*
X352831859Y-135588768D01*
X352834281Y-135590049D01*
X352836739Y-135591259D01*
X352839232Y-135592397D01*
X352841758Y-135593463D01*
X352844315Y-135594454D01*
X352846900Y-135595372D01*
X352849512Y-135596213D01*
X352852147Y-135596979D01*
X352854805Y-135597668D01*
X352857482Y-135598279D01*
X352860176Y-135598812D01*
X352861529Y-135599049D01*
X352862885Y-135599266D01*
X352864244Y-135599464D01*
X352865606Y-135599641D01*
X352866970Y-135599799D01*
X352868337Y-135599937D01*
X352869705Y-135600055D01*
X352871075Y-135600153D01*
X352872446Y-135600231D01*
X352873818Y-135600290D01*
X352875191Y-135600328D01*
X352876564Y-135600346D01*
X352877937Y-135600344D01*
X352879311Y-135600322D01*
X352880683Y-135600280D01*
X352882055Y-135600218D01*
X352883425Y-135600136D01*
X352884794Y-135600034D01*
X352886161Y-135599912D01*
X352887527Y-135599770D01*
X352888890Y-135599608D01*
X352890251Y-135599427D01*
X352891609Y-135599225D01*
X352892964Y-135599004D01*
X352894315Y-135598763D01*
X352895664Y-135598502D01*
X352897008Y-135598221D01*
X352898349Y-135597921D01*
X352899684Y-135597601D01*
X352901016Y-135597262D01*
X352902342Y-135596903D01*
X352903665Y-135596525D01*
X352904981Y-135596127D01*
X352906293Y-135595710D01*
X352908700Y-135594889D01*
X352826273Y-135401128D02*
X352825007Y-135397456D01*
X352823817Y-135393760D01*
X352822705Y-135390043D01*
X352821669Y-135386305D01*
X352820711Y-135382548D01*
X352819831Y-135378773D01*
X352819029Y-135374982D01*
X352818305Y-135371175D01*
X352817660Y-135367354D01*
X352817094Y-135363520D01*
X352816606Y-135359675D01*
X352816199Y-135355821D01*
X352815870Y-135351959D01*
X352815621Y-135348090D01*
X352815452Y-135344216D01*
X352815363Y-135340339D01*
X352815354Y-135336460D01*
X352815424Y-135332581D01*
X352815575Y-135328704D01*
X352815805Y-135324830D01*
X352816115Y-135320960D01*
X352816505Y-135317098D01*
X352816975Y-135313243D01*
X352817523Y-135309399D01*
X352818151Y-135305566D01*
X352818858Y-135301747D01*
X352819241Y-135299844D01*
X352819643Y-135297944D01*
X352820065Y-135296048D01*
X352820507Y-135294157D01*
X352820968Y-135292270D01*
X352821448Y-135290388D01*
X352821948Y-135288512D01*
X352822467Y-135286640D01*
X352823005Y-135284775D01*
X352823562Y-135282914D01*
X352824139Y-135281060D01*
X352824735Y-135279211D01*
X352825349Y-135277370D01*
X352825983Y-135275534D01*
X352826635Y-135273706D01*
X352827306Y-135271883D01*
X352827996Y-135270069D01*
X352828705Y-135268261D01*
X352829432Y-135266462D01*
X352830178Y-135264669D01*
X352830941Y-135262885D01*
X352831724Y-135261108D01*
X352832524Y-135259340D01*
X352833343Y-135257580D01*
X352834180Y-135255830D01*
X352835035Y-135254087D01*
X352835908Y-135252354D01*
X352836799Y-135250629D01*
X352837707Y-135248914D01*
X352838633Y-135247208D01*
X352839576Y-135245513D01*
X352840538Y-135243826D01*
X352841516Y-135242150D01*
X352842512Y-135240484D01*
X352843525Y-135238828D01*
X352844555Y-135237182D01*
X352845602Y-135235548D01*
X352846667Y-135233923D01*
X352847747Y-135232311D01*
X352848845Y-135230708D01*
X352849959Y-135229118D01*
X352851090Y-135227537D01*
X352852237Y-135225969D01*
X352853401Y-135224412D01*
X352854580Y-135222868D01*
X352855777Y-135221334D01*
X352856989Y-135219813D01*
X352858218Y-135218303D01*
X352860237Y-135215889D01*
X352830076Y-135832626D02*
X352829192Y-135830027D01*
X352828385Y-135827405D01*
X352827655Y-135824763D01*
X352827002Y-135822102D01*
X352826427Y-135819423D01*
X352825931Y-135816730D01*
X352825513Y-135814023D01*
X352825174Y-135811304D01*
X352824915Y-135808577D01*
X352824735Y-135805842D01*
X352824634Y-135803103D01*
X352824614Y-135800361D01*
X352824673Y-135797619D01*
X352824813Y-135794879D01*
X352825032Y-135792144D01*
X352825331Y-135789416D01*
X352825709Y-135786696D01*
X352826166Y-135783989D01*
X352826424Y-135782640D01*
X352826702Y-135781296D01*
X352827000Y-135779955D01*
X352827316Y-135778619D01*
X352827653Y-135777288D01*
X352828009Y-135775961D01*
X352828383Y-135774640D01*
X352828778Y-135773325D01*
X352829191Y-135772016D01*
X352829623Y-135770712D01*
X352830075Y-135769416D01*
X352830545Y-135768125D01*
X352831034Y-135766843D01*
X352831541Y-135765566D01*
X352832067Y-135764299D01*
X352832612Y-135763038D01*
X352833174Y-135761787D01*
X352833756Y-135760542D01*
X352834354Y-135759308D01*
X352834972Y-135758081D01*
X352835606Y-135756865D01*
X352836259Y-135755656D01*
X352836929Y-135754459D01*
X352837617Y-135753270D01*
X352838322Y-135752093D01*
X352839044Y-135750924D01*
X352839783Y-135749768D01*
X352840540Y-135748620D01*
X352841312Y-135747486D01*
X352842102Y-135746360D01*
X352842908Y-135745248D01*
X352843731Y-135744146D01*
X352844570Y-135743056D01*
X352845425Y-135741978D01*
X352847054Y-135740010D01*
X352847054Y-135740010D02*
X352848863Y-135737945D01*
X352850730Y-135735935D01*
X352852654Y-135733981D01*
X352854632Y-135732085D01*
X352856665Y-135730248D01*
X352858750Y-135728472D01*
X352860886Y-135726756D01*
X352863071Y-135725103D01*
X352865303Y-135723515D01*
X352867582Y-135721992D01*
X352869904Y-135720535D01*
X352872269Y-135719147D01*
X352874673Y-135717827D01*
X352877116Y-135716578D01*
X352879595Y-135715400D01*
X352882107Y-135714294D01*
X352884652Y-135713262D01*
X352887225Y-135712304D01*
X352888522Y-135711854D01*
X352889826Y-135711422D01*
X352891136Y-135711009D01*
X352892451Y-135710615D01*
X352893773Y-135710241D01*
X352895099Y-135709886D01*
X352896431Y-135709550D01*
X352897767Y-135709234D01*
X352899108Y-135708937D01*
X352900453Y-135708660D01*
X352901801Y-135708402D01*
X352903154Y-135708164D01*
X352904509Y-135707946D01*
X352905868Y-135707748D01*
X352907229Y-135707570D01*
X352908593Y-135707411D01*
X352909958Y-135707272D01*
X352911326Y-135707154D01*
X352912695Y-135707055D01*
X352914066Y-135706976D01*
X352915437Y-135706918D01*
X352916810Y-135706879D01*
X352918181Y-135706860D01*
X352919555Y-135706862D01*
X352920927Y-135706883D01*
X352922300Y-135706925D01*
X352923671Y-135706986D01*
X352925043Y-135707068D01*
X352926412Y-135707169D01*
X352927781Y-135707291D01*
X352929147Y-135707433D01*
X352930513Y-135707594D01*
X352931876Y-135707776D01*
X352933238Y-135707978D01*
X352935755Y-135708404D01*
X352847688Y-135666607D02*
X352844015Y-135667873D01*
X352840320Y-135669063D01*
X352836602Y-135670175D01*
X352832865Y-135671211D01*
X352829107Y-135672169D01*
X352825332Y-135673049D01*
X352821540Y-135673852D01*
X352817733Y-135674576D01*
X352813912Y-135675221D01*
X352810079Y-135675787D01*
X352806234Y-135676274D01*
X352802380Y-135676682D01*
X352798517Y-135677011D01*
X352794648Y-135677260D01*
X352790775Y-135677429D01*
X352786898Y-135677518D01*
X352783019Y-135677527D01*
X352779140Y-135677457D01*
X352775262Y-135677306D01*
X352771388Y-135677076D01*
X352767519Y-135676766D01*
X352763657Y-135676376D01*
X352759802Y-135675907D01*
X352755958Y-135675358D01*
X352752126Y-135674730D01*
X352748307Y-135674024D01*
X352746403Y-135673641D01*
X352744503Y-135673238D01*
X352742608Y-135672816D01*
X352740717Y-135672375D01*
X352738830Y-135671914D01*
X352736948Y-135671434D01*
X352735072Y-135670934D01*
X352733201Y-135670415D01*
X352731335Y-135669877D01*
X352729475Y-135669320D01*
X352727621Y-135668743D01*
X352725772Y-135668147D01*
X352723931Y-135667533D01*
X352722095Y-135666899D01*
X352720267Y-135666247D01*
X352718445Y-135665576D01*
X352716630Y-135664886D01*
X352714823Y-135664177D01*
X352713023Y-135663450D01*
X352711231Y-135662705D01*
X352709447Y-135661941D01*
X352707670Y-135661158D01*
X352705902Y-135660358D01*
X352704142Y-135659539D01*
X352702392Y-135658702D01*
X352700649Y-135657847D01*
X352698916Y-135656975D01*
X352697191Y-135656084D01*
X352695477Y-135655176D01*
X352693771Y-135654249D01*
X352692076Y-135653306D01*
X352690389Y-135652345D01*
X352688713Y-135651367D01*
X352687047Y-135650370D01*
X352685392Y-135649358D01*
X352683746Y-135648327D01*
X352682112Y-135647281D01*
X352680487Y-135646216D01*
X352678874Y-135645136D01*
X352677272Y-135644038D01*
X352675681Y-135642924D01*
X352674101Y-135641793D01*
X352672533Y-135640646D01*
X352670976Y-135639482D01*
X352669432Y-135638302D01*
X352667898Y-135637106D01*
X352666377Y-135635894D01*
X352664868Y-135634665D01*
X352662450Y-135632643D01*
X352860237Y-135215889D02*
X352862784Y-135212956D01*
X352865389Y-135210079D01*
X352868052Y-135207256D01*
X352870770Y-135204491D01*
X352873545Y-135201783D01*
X352876374Y-135199133D01*
X352879256Y-135196542D01*
X352882191Y-135194012D01*
X352885177Y-135191543D01*
X352888213Y-135189136D01*
X352891299Y-135186791D01*
X352894433Y-135184511D01*
X352897613Y-135182295D01*
X352900839Y-135180145D01*
X352904109Y-135178062D01*
X352907422Y-135176046D01*
X352910776Y-135174098D01*
X352914171Y-135172220D01*
X352917604Y-135170411D01*
X352921074Y-135168674D01*
X352924580Y-135167007D01*
X352928120Y-135165414D01*
X352931692Y-135163893D01*
X352935296Y-135162446D01*
X352938929Y-135161073D01*
X352942589Y-135159775D01*
X352944429Y-135159155D01*
X352946276Y-135158553D01*
X352948129Y-135157971D01*
X352949987Y-135157407D01*
X352951851Y-135156863D01*
X352953721Y-135156338D01*
X352955596Y-135155833D01*
X352957477Y-135155346D01*
X352959362Y-135154879D01*
X352961251Y-135154432D01*
X352963145Y-135154004D01*
X352965044Y-135153595D01*
X352966946Y-135153207D01*
X352968853Y-135152837D01*
X352970763Y-135152488D01*
X352972676Y-135152158D01*
X352974592Y-135151848D01*
X352976513Y-135151558D01*
X352978434Y-135151288D01*
X352980360Y-135151037D01*
X352982287Y-135150807D01*
X352984217Y-135150596D01*
X352986148Y-135150405D01*
X352988082Y-135150234D01*
X352990017Y-135150083D01*
X352991954Y-135149952D01*
X352993891Y-135149841D01*
X352995830Y-135149750D01*
X352997769Y-135149679D01*
X352999710Y-135149628D01*
X353001650Y-135149598D01*
X353003591Y-135149587D01*
X353005531Y-135149596D01*
X353007473Y-135149625D01*
X353009413Y-135149674D01*
X353011354Y-135149744D01*
X353013292Y-135149833D01*
X353015232Y-135149942D01*
X353017168Y-135150072D01*
X353019106Y-135150221D01*
X353021040Y-135150390D01*
X353022974Y-135150580D01*
X353024905Y-135150789D01*
X353026836Y-135151018D01*
X353028763Y-135151267D01*
X353030690Y-135151537D01*
X353032613Y-135151826D01*
X353034535Y-135152135D01*
X353037645Y-135152678D01*
X352897993Y-135462140D02*
X352898952Y-135464713D01*
X352899985Y-135467254D01*
X352901091Y-135469763D01*
X352902269Y-135472238D01*
X352903518Y-135474677D01*
X352904837Y-135477078D01*
X352906226Y-135479439D01*
X352907683Y-135481760D01*
X352909207Y-135484037D01*
X352910797Y-135486270D01*
X352912452Y-135488455D01*
X352914171Y-135490593D01*
X352915951Y-135492680D01*
X352917792Y-135494714D01*
X352919692Y-135496695D01*
X352921650Y-135498620D01*
X352923663Y-135500488D01*
X352925729Y-135502297D01*
X352926782Y-135503178D01*
X352927848Y-135504044D01*
X352928926Y-135504895D01*
X352930017Y-135505730D01*
X352931120Y-135506549D01*
X352932234Y-135507351D01*
X352933360Y-135508138D01*
X352934498Y-135508908D01*
X352935646Y-135509661D01*
X352936806Y-135510397D01*
X352937975Y-135511116D01*
X352939155Y-135511819D01*
X352940345Y-135512503D01*
X352941546Y-135513171D01*
X352942755Y-135513820D01*
X352943974Y-135514453D01*
X352945201Y-135515066D01*
X352946439Y-135515663D01*
X352947683Y-135516240D01*
X352948937Y-135516800D01*
X352950198Y-135517342D01*
X352951468Y-135517865D01*
X352952744Y-135518369D01*
X352954029Y-135518855D01*
X352955319Y-135519321D01*
X352956618Y-135519770D01*
X352957921Y-135520198D01*
X352959233Y-135520609D01*
X352960549Y-135520999D01*
X352961873Y-135521371D01*
X352963200Y-135521724D01*
X352964535Y-135522057D01*
X352965873Y-135522371D01*
X352967218Y-135522665D01*
X352969720Y-135523159D01*
X352901795Y-135893642D02*
X352899103Y-135893108D01*
X352896430Y-135892497D01*
X352893777Y-135891808D01*
X352891147Y-135891043D01*
X352888540Y-135890202D01*
X352885960Y-135889286D01*
X352883407Y-135888294D01*
X352880884Y-135887229D01*
X352878393Y-135886090D01*
X352875935Y-135884879D01*
X352873513Y-135883597D01*
X352871129Y-135882244D01*
X352868784Y-135880821D01*
X352866481Y-135879331D01*
X352864222Y-135877773D01*
X352862008Y-135876150D01*
X352859843Y-135874463D01*
X352857726Y-135872713D01*
X352856688Y-135871816D01*
X352855662Y-135870902D01*
X352854650Y-135869975D01*
X352853651Y-135869032D01*
X352852666Y-135868075D01*
X352851695Y-135867104D01*
X352850738Y-135866118D01*
X352849796Y-135865119D01*
X352848869Y-135864106D01*
X352847956Y-135863080D01*
X352847058Y-135862041D01*
X352846176Y-135860988D01*
X352845309Y-135859924D01*
X352844458Y-135858846D01*
X352843623Y-135857756D01*
X352842803Y-135856654D01*
X352842000Y-135855541D01*
X352841213Y-135854415D01*
X352840443Y-135853279D01*
X352839689Y-135852131D01*
X352838953Y-135850973D01*
X352838233Y-135849803D01*
X352837531Y-135848624D01*
X352836845Y-135847434D01*
X352836177Y-135846235D01*
X352835526Y-135845024D01*
X352834894Y-135843806D01*
X352834278Y-135842577D01*
X352833682Y-135841340D01*
X352833102Y-135840093D01*
X352832541Y-135838839D01*
X352831998Y-135837574D01*
X352831474Y-135836304D01*
X352830967Y-135835023D01*
X352830076Y-135832626D01*
X352908700Y-135594889D02*
X352911273Y-135593929D01*
X352913815Y-135592896D01*
X352916324Y-135591790D01*
X352918799Y-135590612D01*
X352921238Y-135589363D01*
X352923639Y-135588044D01*
X352926001Y-135586655D01*
X352928321Y-135585198D01*
X352930598Y-135583673D01*
X352932831Y-135582083D01*
X352935017Y-135580428D01*
X352937154Y-135578709D01*
X352939241Y-135576928D01*
X352941276Y-135575087D01*
X352943256Y-135573187D01*
X352945182Y-135571230D01*
X352947049Y-135569217D01*
X352948858Y-135567150D01*
X352949739Y-135566097D01*
X352950605Y-135565031D01*
X352951456Y-135563953D01*
X352952291Y-135562862D01*
X352953109Y-135561759D01*
X352953912Y-135560645D01*
X352954698Y-135559519D01*
X352955468Y-135558381D01*
X352956221Y-135557233D01*
X352956958Y-135556073D01*
X352957677Y-135554904D01*
X352958379Y-135553723D01*
X352959064Y-135552533D01*
X352959732Y-135551333D01*
X352960381Y-135550124D01*
X352961013Y-135548904D01*
X352961627Y-135547677D01*
X352962224Y-135546440D01*
X352962801Y-135545195D01*
X352963361Y-135543941D01*
X352963903Y-135542680D01*
X352964426Y-135541410D01*
X352964930Y-135540133D01*
X352965416Y-135538848D01*
X352965882Y-135537558D01*
X352966331Y-135536259D01*
X352966760Y-135534955D01*
X352967170Y-135533643D01*
X352967561Y-135532327D01*
X352967933Y-135531003D01*
X352968285Y-135529676D01*
X352968619Y-135528341D01*
X352968932Y-135527002D01*
X352969227Y-135525657D01*
X352969720Y-135523159D01*
X352914977Y-135369524D02*
X352913229Y-135371641D01*
X352911544Y-135373805D01*
X352909925Y-135376017D01*
X352908370Y-135378274D01*
X352906883Y-135380575D01*
X352905463Y-135382917D01*
X352904112Y-135385300D01*
X352902831Y-135387722D01*
X352901621Y-135390180D01*
X352900483Y-135392674D01*
X352899418Y-135395200D01*
X352898426Y-135397756D01*
X352897509Y-135400342D01*
X352896667Y-135402953D01*
X352895902Y-135405589D01*
X352895213Y-135408247D01*
X352894602Y-135410924D01*
X352894069Y-135413618D01*
X352893832Y-135414971D01*
X352893615Y-135416327D01*
X352893417Y-135417686D01*
X352893240Y-135419048D01*
X352893082Y-135420412D01*
X352892944Y-135421779D01*
X352892826Y-135423147D01*
X352892728Y-135424517D01*
X352892650Y-135425888D01*
X352892592Y-135427260D01*
X352892553Y-135428633D01*
X352892535Y-135430006D01*
X352892537Y-135431379D01*
X352892559Y-135432752D01*
X352892601Y-135434124D01*
X352892663Y-135435496D01*
X352892745Y-135436866D01*
X352892848Y-135438236D01*
X352892969Y-135439603D01*
X352893111Y-135440969D01*
X352893273Y-135442331D01*
X352893455Y-135443693D01*
X352893657Y-135445050D01*
X352893878Y-135446406D01*
X352894119Y-135447756D01*
X352894380Y-135449105D01*
X352894661Y-135450449D01*
X352894961Y-135451790D01*
X352895281Y-135453125D01*
X352895620Y-135454457D01*
X352895979Y-135455783D01*
X352896358Y-135457106D01*
X352896755Y-135458421D01*
X352897172Y-135459734D01*
X352897993Y-135462140D01*
X352935755Y-135708404D02*
X352938462Y-135708860D01*
X352941179Y-135709236D01*
X352943904Y-135709534D01*
X352946635Y-135709752D01*
X352949371Y-135709890D01*
X352952110Y-135709948D01*
X352954848Y-135709927D01*
X352957586Y-135709825D01*
X352960320Y-135709644D01*
X352963048Y-135709384D01*
X352965768Y-135709044D01*
X352968477Y-135708624D01*
X352971174Y-135708126D01*
X352973857Y-135707549D01*
X352976522Y-135706895D01*
X352979167Y-135706163D01*
X352981791Y-135705353D01*
X352984390Y-135704468D01*
X352985680Y-135703997D01*
X352986963Y-135703507D01*
X352988239Y-135702999D01*
X352989507Y-135702472D01*
X352990768Y-135701926D01*
X352992020Y-135701363D01*
X352993264Y-135700781D01*
X352994500Y-135700181D01*
X352995726Y-135699563D01*
X352996944Y-135698927D01*
X352998151Y-135698274D01*
X352999350Y-135697603D01*
X353000538Y-135696915D01*
X353001716Y-135696209D01*
X353002883Y-135695487D01*
X353004041Y-135694747D01*
X353005186Y-135693991D01*
X353006321Y-135693218D01*
X353007444Y-135692429D01*
X353008557Y-135691623D01*
X353009656Y-135690801D01*
X353010744Y-135689963D01*
X353011819Y-135689110D01*
X353012882Y-135688240D01*
X353013932Y-135687356D01*
X353014970Y-135686455D01*
X353015993Y-135685541D01*
X353017005Y-135684610D01*
X353018002Y-135683665D01*
X353018986Y-135682705D01*
X353019955Y-135681731D01*
X353020912Y-135680742D01*
X353021852Y-135679740D01*
X353022780Y-135678722D01*
X353024463Y-135676798D01*
X352969720Y-135523159D02*
X352965906Y-135522419D01*
X352962111Y-135521602D01*
X352958335Y-135520707D01*
X352954581Y-135519735D01*
X352950848Y-135518686D01*
X352947138Y-135517561D01*
X352943454Y-135516360D01*
X352939795Y-135515084D01*
X352936163Y-135513732D01*
X352932560Y-135512306D01*
X352928986Y-135510806D01*
X352925445Y-135509232D01*
X352921936Y-135507586D01*
X352918461Y-135505867D01*
X352915021Y-135504077D01*
X352911619Y-135502215D01*
X352908255Y-135500284D01*
X352904931Y-135498284D01*
X352901648Y-135496215D01*
X352898408Y-135494078D01*
X352895212Y-135491875D01*
X352892062Y-135489607D01*
X352888959Y-135487273D01*
X352885904Y-135484876D01*
X352882899Y-135482416D01*
X352879945Y-135479895D01*
X352878487Y-135478611D01*
X352877043Y-135477313D01*
X352875612Y-135476000D01*
X352874195Y-135474672D01*
X352872792Y-135473329D01*
X352871402Y-135471973D01*
X352870027Y-135470602D01*
X352868665Y-135469216D01*
X352867319Y-135467818D01*
X352865986Y-135466405D01*
X352864669Y-135464978D01*
X352863366Y-135463538D01*
X352862078Y-135462085D01*
X352860805Y-135460619D01*
X352859547Y-135459140D01*
X352858305Y-135457647D01*
X352857078Y-135456143D01*
X352855867Y-135454625D01*
X352854672Y-135453096D01*
X352853492Y-135451554D01*
X352852329Y-135450000D01*
X352851182Y-135448434D01*
X352850051Y-135446857D01*
X352848936Y-135445268D01*
X352847838Y-135443668D01*
X352846756Y-135442056D01*
X352845691Y-135440434D01*
X352844643Y-135438799D01*
X352843612Y-135437156D01*
X352842598Y-135435500D01*
X352841601Y-135433836D01*
X352840621Y-135432160D01*
X352839659Y-135430475D01*
X352838713Y-135428779D01*
X352837786Y-135427074D01*
X352836875Y-135425359D01*
X352835983Y-135423635D01*
X352835108Y-135421901D01*
X352834252Y-135420159D01*
X352833413Y-135418406D01*
X352832592Y-135416647D01*
X352831789Y-135414876D01*
X352831005Y-135413100D01*
X352830238Y-135411312D01*
X352829490Y-135409519D01*
X352828760Y-135407715D01*
X352828049Y-135405906D01*
X352827355Y-135404086D01*
X352826273Y-135401128D01*
X352969720Y-135523159D02*
X352968980Y-135526973D01*
X352968163Y-135530768D01*
X352967268Y-135534544D01*
X352966296Y-135538299D01*
X352965248Y-135542031D01*
X352964123Y-135545741D01*
X352962922Y-135549426D01*
X352961645Y-135553085D01*
X352960294Y-135556717D01*
X352958867Y-135560320D01*
X352957367Y-135563893D01*
X352955794Y-135567435D01*
X352954147Y-135570944D01*
X352952428Y-135574419D01*
X352950638Y-135577858D01*
X352948777Y-135581261D01*
X352946846Y-135584624D01*
X352944846Y-135587949D01*
X352942777Y-135591231D01*
X352940640Y-135594471D01*
X352938437Y-135597667D01*
X352936169Y-135600817D01*
X352933835Y-135603921D01*
X352931438Y-135606975D01*
X352928978Y-135609981D01*
X352926457Y-135612935D01*
X352925174Y-135614392D01*
X352923875Y-135615836D01*
X352922562Y-135617267D01*
X352921234Y-135618684D01*
X352919892Y-135620088D01*
X352918535Y-135621477D01*
X352917164Y-135622852D01*
X352915779Y-135624214D01*
X352914380Y-135625560D01*
X352912967Y-135626893D01*
X352911541Y-135628210D01*
X352910101Y-135629514D01*
X352908648Y-135630801D01*
X352907182Y-135632074D01*
X352905703Y-135633332D01*
X352904210Y-135634574D01*
X352902706Y-135635800D01*
X352901188Y-135637012D01*
X352899659Y-135638207D01*
X352898117Y-135639387D01*
X352896563Y-135640550D01*
X352894997Y-135641697D01*
X352893420Y-135642828D01*
X352891831Y-135643943D01*
X352890231Y-135645041D01*
X352888619Y-135646123D01*
X352886997Y-135647187D01*
X352885363Y-135648236D01*
X352883719Y-135649267D01*
X352882064Y-135650281D01*
X352880399Y-135651278D01*
X352878723Y-135652258D01*
X352877038Y-135653220D01*
X352875342Y-135654166D01*
X352873638Y-135655093D01*
X352871922Y-135656003D01*
X352870199Y-135656895D01*
X352868464Y-135657770D01*
X352866723Y-135658627D01*
X352864970Y-135659466D01*
X352863210Y-135660286D01*
X352861440Y-135661090D01*
X352859663Y-135661874D01*
X352857876Y-135662641D01*
X352856083Y-135663389D01*
X352854279Y-135664119D01*
X352852470Y-135664830D01*
X352850651Y-135665523D01*
X352847688Y-135666607D01*
X352969720Y-135523159D02*
X352970460Y-135519345D01*
X352971277Y-135515550D01*
X352972172Y-135511775D01*
X352973144Y-135508020D01*
X352974193Y-135504287D01*
X352975318Y-135500578D01*
X352976519Y-135496893D01*
X352977796Y-135493234D01*
X352979147Y-135489602D01*
X352980574Y-135485999D01*
X352982074Y-135482426D01*
X352983648Y-135478884D01*
X352985294Y-135475375D01*
X352987013Y-135471900D01*
X352988804Y-135468461D01*
X352990665Y-135465058D01*
X352992596Y-135461694D01*
X352994597Y-135458370D01*
X352996666Y-135455087D01*
X352998802Y-135451847D01*
X353001006Y-135448651D01*
X353003274Y-135445501D01*
X353005608Y-135442398D01*
X353008005Y-135439343D01*
X353010465Y-135436338D01*
X353012987Y-135433383D01*
X353014270Y-135431926D01*
X353015569Y-135430482D01*
X353016882Y-135429051D01*
X353018210Y-135427634D01*
X353019552Y-135426230D01*
X353020909Y-135424841D01*
X353022280Y-135423466D01*
X353023665Y-135422104D01*
X353025064Y-135420757D01*
X353026477Y-135419425D01*
X353027904Y-135418107D01*
X353029344Y-135416804D01*
X353030797Y-135415517D01*
X353032263Y-135414244D01*
X353033742Y-135412986D01*
X353035235Y-135411744D01*
X353036739Y-135410517D01*
X353038257Y-135409306D01*
X353039786Y-135408111D01*
X353041329Y-135406931D01*
X353042882Y-135405768D01*
X353044448Y-135404620D01*
X353046025Y-135403490D01*
X353047615Y-135402374D01*
X353049215Y-135401277D01*
X353050827Y-135400195D01*
X353052449Y-135399130D01*
X353054083Y-135398082D01*
X353055727Y-135397051D01*
X353057382Y-135396036D01*
X353059047Y-135395040D01*
X353060723Y-135394059D01*
X353062408Y-135393097D01*
X353064104Y-135392152D01*
X353065808Y-135391225D01*
X353067524Y-135390314D01*
X353069248Y-135389422D01*
X353070982Y-135388547D01*
X353072724Y-135387691D01*
X353074476Y-135386852D01*
X353076236Y-135386031D01*
X353078006Y-135385228D01*
X353079783Y-135384444D01*
X353081570Y-135383677D01*
X353083364Y-135382929D01*
X353085167Y-135382199D01*
X353086977Y-135381488D01*
X353088796Y-135380794D01*
X353091752Y-135379713D01*
X352969720Y-135523161D02*
X352973534Y-135523901D01*
X352977329Y-135524718D01*
X352981104Y-135525613D01*
X352984859Y-135526585D01*
X352988592Y-135527634D01*
X352992301Y-135528759D01*
X352995986Y-135529960D01*
X352999645Y-135531236D01*
X353003277Y-135532588D01*
X353006880Y-135534014D01*
X353010453Y-135535514D01*
X353013995Y-135537088D01*
X353017504Y-135538734D01*
X353020979Y-135540453D01*
X353024418Y-135542243D01*
X353027821Y-135544105D01*
X353031185Y-135546036D01*
X353034509Y-135548036D01*
X353037791Y-135550105D01*
X353041031Y-135552242D01*
X353044227Y-135554445D01*
X353047377Y-135556713D01*
X353050481Y-135559047D01*
X353053536Y-135561444D01*
X353056541Y-135563904D01*
X353059495Y-135566425D01*
X353060952Y-135567709D01*
X353062397Y-135569007D01*
X353063827Y-135570320D01*
X353065245Y-135571648D01*
X353066648Y-135572991D01*
X353068038Y-135574348D01*
X353069413Y-135575718D01*
X353070774Y-135577104D01*
X353072121Y-135578503D01*
X353073453Y-135579916D01*
X353074771Y-135581342D01*
X353076074Y-135582782D01*
X353077362Y-135584235D01*
X353078635Y-135585701D01*
X353079892Y-135587180D01*
X353081135Y-135588673D01*
X353082361Y-135590177D01*
X353083573Y-135591695D01*
X353084768Y-135593224D01*
X353085947Y-135594767D01*
X353087110Y-135596320D01*
X353088258Y-135597886D01*
X353089389Y-135599463D01*
X353090504Y-135601053D01*
X353091602Y-135602653D01*
X353092684Y-135604265D01*
X353093748Y-135605887D01*
X353094797Y-135607521D01*
X353095828Y-135609165D01*
X353096842Y-135610820D01*
X353097839Y-135612485D01*
X353098819Y-135614161D01*
X353099781Y-135615846D01*
X353100727Y-135617542D01*
X353101654Y-135619246D01*
X353102564Y-135620962D01*
X353103456Y-135622685D01*
X353104331Y-135624420D01*
X353105188Y-135626162D01*
X353106027Y-135627914D01*
X353106848Y-135629674D01*
X353107651Y-135631444D01*
X353108435Y-135633221D01*
X353109202Y-135635008D01*
X353109950Y-135636802D01*
X353110680Y-135638605D01*
X353111391Y-135640415D01*
X353112085Y-135642234D01*
X353113167Y-135645193D01*
X353003685Y-135337916D02*
X353000978Y-135337460D01*
X352998260Y-135337084D01*
X352995535Y-135336787D01*
X352992803Y-135336569D01*
X352990067Y-135336431D01*
X352987328Y-135336373D01*
X352984589Y-135336395D01*
X352981852Y-135336496D01*
X352979118Y-135336677D01*
X352976389Y-135336938D01*
X352973669Y-135337278D01*
X352970959Y-135337698D01*
X352968262Y-135338196D01*
X352965580Y-135338773D01*
X352962914Y-135339428D01*
X352960269Y-135340160D01*
X352957645Y-135340970D01*
X352955045Y-135341855D01*
X352953756Y-135342326D01*
X352952473Y-135342816D01*
X352951197Y-135343325D01*
X352949929Y-135343852D01*
X352948668Y-135344397D01*
X352947416Y-135344961D01*
X352946172Y-135345543D01*
X352944936Y-135346143D01*
X352943710Y-135346761D01*
X352942492Y-135347397D01*
X352941285Y-135348050D01*
X352940086Y-135348721D01*
X352938898Y-135349409D01*
X352937720Y-135350115D01*
X352936553Y-135350837D01*
X352935396Y-135351577D01*
X352934250Y-135352333D01*
X352933115Y-135353106D01*
X352931992Y-135353895D01*
X352930880Y-135354702D01*
X352929781Y-135355523D01*
X352928693Y-135356361D01*
X352927618Y-135357214D01*
X352926554Y-135358084D01*
X352925505Y-135358968D01*
X352924467Y-135359869D01*
X352923444Y-135360784D01*
X352922432Y-135361715D01*
X352921436Y-135362659D01*
X352920451Y-135363620D01*
X352919482Y-135364593D01*
X352918526Y-135365583D01*
X352917585Y-135366585D01*
X352916657Y-135367602D01*
X352914977Y-135369524D01*
X353024463Y-135676798D02*
X353026211Y-135674681D01*
X353027896Y-135672516D01*
X353029516Y-135670305D01*
X353031070Y-135668048D01*
X353032557Y-135665747D01*
X353033977Y-135663404D01*
X353035328Y-135661021D01*
X353036609Y-135658599D01*
X353037819Y-135656141D01*
X353038957Y-135653647D01*
X353040022Y-135651121D01*
X353041014Y-135648565D01*
X353041931Y-135645979D01*
X353042773Y-135643368D01*
X353043538Y-135640732D01*
X353044227Y-135638074D01*
X353044838Y-135635397D01*
X353045371Y-135632703D01*
X353045608Y-135631350D01*
X353045825Y-135629994D01*
X353046023Y-135628635D01*
X353046200Y-135627273D01*
X353046358Y-135625909D01*
X353046496Y-135624542D01*
X353046614Y-135623174D01*
X353046712Y-135621803D01*
X353046790Y-135620433D01*
X353046848Y-135619060D01*
X353046887Y-135617688D01*
X353046905Y-135616314D01*
X353046903Y-135614941D01*
X353046881Y-135613568D01*
X353046839Y-135612196D01*
X353046777Y-135610824D01*
X353046695Y-135609454D01*
X353046592Y-135608084D01*
X353046471Y-135606717D01*
X353046329Y-135605351D01*
X353046167Y-135603989D01*
X353045985Y-135602627D01*
X353045783Y-135601270D01*
X353045562Y-135599914D01*
X353045321Y-135598564D01*
X353045060Y-135597215D01*
X353044779Y-135595871D01*
X353044479Y-135594530D01*
X353044159Y-135593195D01*
X353043820Y-135591862D01*
X353043461Y-135590537D01*
X353043082Y-135589214D01*
X353042685Y-135587898D01*
X353042268Y-135586586D01*
X353041447Y-135584180D01*
X353030740Y-135451434D02*
X353028167Y-135452393D01*
X353025626Y-135453426D01*
X353023117Y-135454532D01*
X353020642Y-135455709D01*
X353018204Y-135456958D01*
X353015803Y-135458277D01*
X353013441Y-135459666D01*
X353011121Y-135461123D01*
X353008844Y-135462647D01*
X353006612Y-135464237D01*
X353004426Y-135465892D01*
X353002289Y-135467610D01*
X353000202Y-135469391D01*
X352998167Y-135471232D01*
X352996186Y-135473132D01*
X352994261Y-135475089D01*
X352992393Y-135477102D01*
X352990585Y-135479169D01*
X352989703Y-135480222D01*
X352988837Y-135481288D01*
X352987986Y-135482366D01*
X352987152Y-135483457D01*
X352986333Y-135484559D01*
X352985530Y-135485674D01*
X352984744Y-135486800D01*
X352983974Y-135487937D01*
X352983221Y-135489086D01*
X352982484Y-135490245D01*
X352981765Y-135491415D01*
X352981062Y-135492595D01*
X352980378Y-135493785D01*
X352979710Y-135494986D01*
X352979061Y-135496195D01*
X352978428Y-135497414D01*
X352977814Y-135498641D01*
X352977218Y-135499879D01*
X352976640Y-135501123D01*
X352976080Y-135502378D01*
X352975539Y-135503639D01*
X352975015Y-135504909D01*
X352974511Y-135506185D01*
X352974025Y-135507470D01*
X352973558Y-135508760D01*
X352973110Y-135510059D01*
X352972681Y-135511363D01*
X352972271Y-135512675D01*
X352971880Y-135513991D01*
X352971508Y-135515315D01*
X352971155Y-135516642D01*
X352970822Y-135517977D01*
X352970508Y-135519315D01*
X352970214Y-135520661D01*
X352969720Y-135523161D01*
X353037645Y-135152678D02*
X353040337Y-135153212D01*
X353043010Y-135153823D01*
X353045663Y-135154512D01*
X353048293Y-135155277D01*
X353050900Y-135156118D01*
X353053480Y-135157034D01*
X353056033Y-135158026D01*
X353058556Y-135159091D01*
X353061047Y-135160230D01*
X353063505Y-135161441D01*
X353065927Y-135162723D01*
X353068311Y-135164076D01*
X353070656Y-135165499D01*
X353072959Y-135166989D01*
X353075218Y-135168547D01*
X353077432Y-135170170D01*
X353079597Y-135171857D01*
X353081714Y-135173607D01*
X353082752Y-135174504D01*
X353083778Y-135175418D01*
X353084790Y-135176345D01*
X353085789Y-135177288D01*
X353086774Y-135178245D01*
X353087745Y-135179216D01*
X353088702Y-135180202D01*
X353089644Y-135181201D01*
X353090571Y-135182214D01*
X353091484Y-135183240D01*
X353092382Y-135184279D01*
X353093264Y-135185332D01*
X353094131Y-135186396D01*
X353094982Y-135187474D01*
X353095817Y-135188564D01*
X353096637Y-135189666D01*
X353097440Y-135190779D01*
X353098227Y-135191905D01*
X353098997Y-135193041D01*
X353099751Y-135194189D01*
X353100487Y-135195347D01*
X353101207Y-135196517D01*
X353101909Y-135197696D01*
X353102595Y-135198886D01*
X353103263Y-135200085D01*
X353103914Y-135201296D01*
X353104546Y-135202514D01*
X353105162Y-135203743D01*
X353105758Y-135204980D01*
X353106338Y-135206227D01*
X353106899Y-135207481D01*
X353107442Y-135208746D01*
X353107966Y-135210017D01*
X353108473Y-135211297D01*
X353109364Y-135213694D01*
X353041447Y-135584180D02*
X353040488Y-135581607D01*
X353039455Y-135579066D01*
X353038349Y-135576557D01*
X353037171Y-135574082D01*
X353035922Y-135571644D01*
X353034603Y-135569243D01*
X353033214Y-135566881D01*
X353031757Y-135564561D01*
X353030233Y-135562283D01*
X353028643Y-135560051D01*
X353026988Y-135557865D01*
X353025269Y-135555728D01*
X353023488Y-135553641D01*
X353021647Y-135551606D01*
X353019747Y-135549625D01*
X353017790Y-135547700D01*
X353015777Y-135545832D01*
X353013710Y-135544024D01*
X353012657Y-135543142D01*
X353011591Y-135542276D01*
X353010512Y-135541425D01*
X353009422Y-135540590D01*
X353008319Y-135539771D01*
X353007204Y-135538969D01*
X353006078Y-135538182D01*
X353004941Y-135537412D01*
X353003792Y-135536659D01*
X353002633Y-135535923D01*
X353001463Y-135535203D01*
X353000283Y-135534501D01*
X352999093Y-135533816D01*
X352997892Y-135533149D01*
X352996683Y-135532499D01*
X352995464Y-135531867D01*
X352994236Y-135531253D01*
X352992999Y-135530656D01*
X352991754Y-135530078D01*
X352990500Y-135529518D01*
X352989239Y-135528977D01*
X352987969Y-135528454D01*
X352986693Y-135527950D01*
X352985408Y-135527464D01*
X352984117Y-135526997D01*
X352982818Y-135526548D01*
X352981515Y-135526120D01*
X352980203Y-135525709D01*
X352978887Y-135525318D01*
X352977563Y-135524946D01*
X352976235Y-135524594D01*
X352974900Y-135524260D01*
X352973562Y-135523947D01*
X352972217Y-135523652D01*
X352969720Y-135523159D01*
X353079203Y-135830430D02*
X353076656Y-135833363D01*
X353074051Y-135836241D01*
X353071388Y-135839063D01*
X353068669Y-135841829D01*
X353065895Y-135844537D01*
X353063066Y-135847187D01*
X353060184Y-135849777D01*
X353057249Y-135852308D01*
X353054263Y-135854777D01*
X353051226Y-135857184D01*
X353048141Y-135859529D01*
X353045007Y-135861809D01*
X353041827Y-135864025D01*
X353038601Y-135866175D01*
X353035331Y-135868259D01*
X353032018Y-135870275D01*
X353028663Y-135872222D01*
X353025269Y-135874101D01*
X353021836Y-135875909D01*
X353018366Y-135877647D01*
X353014860Y-135879313D01*
X353011320Y-135880907D01*
X353007748Y-135882428D01*
X353004144Y-135883875D01*
X353000511Y-135885248D01*
X352996851Y-135886546D01*
X352995011Y-135887166D01*
X352993164Y-135887768D01*
X352991312Y-135888350D01*
X352989453Y-135888914D01*
X352987589Y-135889458D01*
X352985719Y-135889983D01*
X352983844Y-135890489D01*
X352981964Y-135890975D01*
X352980079Y-135891442D01*
X352978189Y-135891889D01*
X352976295Y-135892317D01*
X352974397Y-135892726D01*
X352972495Y-135893114D01*
X352970588Y-135893484D01*
X352968679Y-135893833D01*
X352966765Y-135894163D01*
X352964849Y-135894473D01*
X352962929Y-135894763D01*
X352961007Y-135895033D01*
X352959082Y-135895284D01*
X352957155Y-135895515D01*
X352955225Y-135895725D01*
X352953294Y-135895916D01*
X352951360Y-135896087D01*
X352949426Y-135896238D01*
X352947489Y-135896369D01*
X352945552Y-135896480D01*
X352943612Y-135896571D01*
X352941674Y-135896642D01*
X352939733Y-135896693D01*
X352937793Y-135896723D01*
X352935852Y-135896734D01*
X352933912Y-135896725D01*
X352931970Y-135896696D01*
X352930031Y-135896647D01*
X352928090Y-135896577D01*
X352926152Y-135896488D01*
X352924212Y-135896379D01*
X352922276Y-135896249D01*
X352920338Y-135896100D01*
X352918404Y-135895931D01*
X352916470Y-135895741D01*
X352914539Y-135895532D01*
X352912608Y-135895303D01*
X352910681Y-135895054D01*
X352908755Y-135894784D01*
X352906832Y-135894495D01*
X352904910Y-135894186D01*
X352901795Y-135893642D01*
X353091752Y-135379713D02*
X353095425Y-135378447D01*
X353099120Y-135377257D01*
X353102838Y-135376145D01*
X353106576Y-135375109D01*
X353110333Y-135374151D01*
X353114108Y-135373271D01*
X353117900Y-135372469D01*
X353121707Y-135371745D01*
X353125529Y-135371100D01*
X353129362Y-135370533D01*
X353133207Y-135370046D01*
X353137061Y-135369638D01*
X353140924Y-135369310D01*
X353144793Y-135369061D01*
X353148667Y-135368892D01*
X353152544Y-135368802D01*
X353156423Y-135368793D01*
X353160302Y-135368864D01*
X353164179Y-135369014D01*
X353168053Y-135369245D01*
X353171922Y-135369555D01*
X353175785Y-135369945D01*
X353179639Y-135370414D01*
X353183483Y-135370963D01*
X353187316Y-135371590D01*
X353191135Y-135372297D01*
X353193039Y-135372680D01*
X353194938Y-135373082D01*
X353196834Y-135373504D01*
X353198725Y-135373946D01*
X353200612Y-135374407D01*
X353202493Y-135374887D01*
X353204370Y-135375387D01*
X353206241Y-135375906D01*
X353208107Y-135376444D01*
X353209967Y-135377001D01*
X353211821Y-135377578D01*
X353213670Y-135378173D01*
X353215511Y-135378788D01*
X353217347Y-135379422D01*
X353219175Y-135380074D01*
X353220997Y-135380745D01*
X353222811Y-135381435D01*
X353224619Y-135382144D01*
X353226418Y-135382870D01*
X353228211Y-135383616D01*
X353229995Y-135384380D01*
X353231772Y-135385163D01*
X353233539Y-135385963D01*
X353235300Y-135386782D01*
X353237050Y-135387619D01*
X353238793Y-135388474D01*
X353240526Y-135389346D01*
X353242250Y-135390237D01*
X353243965Y-135391145D01*
X353245671Y-135392072D01*
X353247366Y-135393015D01*
X353249053Y-135393976D01*
X353250728Y-135394954D01*
X353252395Y-135395951D01*
X353254050Y-135396963D01*
X353255696Y-135397994D01*
X353257330Y-135399040D01*
X353258955Y-135400105D01*
X353260567Y-135401185D01*
X353262170Y-135402283D01*
X353263760Y-135403397D01*
X353265341Y-135404528D01*
X353266908Y-135405675D01*
X353268465Y-135406839D01*
X353270010Y-135408019D01*
X353271543Y-135409215D01*
X353273064Y-135410427D01*
X353274574Y-135411656D01*
X353276990Y-135413677D01*
X353092386Y-135306310D02*
X353090577Y-135308375D01*
X353088710Y-135310385D01*
X353086786Y-135312339D01*
X353084808Y-135314235D01*
X353082775Y-135316072D01*
X353080690Y-135317849D01*
X353078555Y-135319564D01*
X353076370Y-135321217D01*
X353074137Y-135322805D01*
X353071859Y-135324328D01*
X353069537Y-135325785D01*
X353067172Y-135327174D01*
X353064767Y-135328493D01*
X353062325Y-135329743D01*
X353059846Y-135330921D01*
X353057334Y-135332026D01*
X353054789Y-135333058D01*
X353052216Y-135334016D01*
X353050919Y-135334467D01*
X353049615Y-135334899D01*
X353048306Y-135335311D01*
X353046990Y-135335705D01*
X353045669Y-135336079D01*
X353044342Y-135336435D01*
X353043011Y-135336770D01*
X353041674Y-135337087D01*
X353040334Y-135337383D01*
X353038989Y-135337661D01*
X353037640Y-135337918D01*
X353036287Y-135338156D01*
X353034932Y-135338374D01*
X353033573Y-135338573D01*
X353032213Y-135338751D01*
X353030849Y-135338910D01*
X353029483Y-135339048D01*
X353028115Y-135339167D01*
X353026747Y-135339265D01*
X353025376Y-135339344D01*
X353024005Y-135339403D01*
X353022632Y-135339442D01*
X353021261Y-135339460D01*
X353019887Y-135339459D01*
X353018515Y-135339437D01*
X353017142Y-135339396D01*
X353015771Y-135339334D01*
X353014399Y-135339253D01*
X353013031Y-135339151D01*
X353011661Y-135339029D01*
X353010295Y-135338888D01*
X353008929Y-135338726D01*
X353007567Y-135338545D01*
X353006205Y-135338343D01*
X353003685Y-135337916D01*
X353109364Y-135213694D02*
X353110248Y-135216293D01*
X353111055Y-135218915D01*
X353111785Y-135221557D01*
X353112438Y-135224218D01*
X353113013Y-135226897D01*
X353113509Y-135229590D01*
X353113927Y-135232297D01*
X353114266Y-135235016D01*
X353114525Y-135237743D01*
X353114705Y-135240478D01*
X353114806Y-135243217D01*
X353114826Y-135245959D01*
X353114767Y-135248701D01*
X353114627Y-135251441D01*
X353114408Y-135254176D01*
X353114109Y-135256905D01*
X353113731Y-135259624D01*
X353113274Y-135262331D01*
X353113016Y-135263680D01*
X353112738Y-135265025D01*
X353112440Y-135266365D01*
X353112124Y-135267701D01*
X353111787Y-135269033D01*
X353111432Y-135270359D01*
X353111057Y-135271680D01*
X353110662Y-135272996D01*
X353110249Y-135274305D01*
X353109817Y-135275608D01*
X353109365Y-135276905D01*
X353108895Y-135278195D01*
X353108406Y-135279478D01*
X353107899Y-135280754D01*
X353107373Y-135282021D01*
X353106828Y-135283282D01*
X353106266Y-135284534D01*
X353105684Y-135285778D01*
X353105086Y-135287012D01*
X353104468Y-135288239D01*
X353103834Y-135289455D01*
X353103181Y-135290664D01*
X353102511Y-135291861D01*
X353101823Y-135293050D01*
X353101119Y-135294227D01*
X353100396Y-135295396D01*
X353099657Y-135296552D01*
X353098901Y-135297699D01*
X353098128Y-135298834D01*
X353097338Y-135299959D01*
X353096532Y-135301072D01*
X353095709Y-135302174D01*
X353094871Y-135303263D01*
X353094015Y-135304342D01*
X353092386Y-135306310D01*
X353113167Y-135645193D02*
X353114433Y-135648866D01*
X353115623Y-135652561D01*
X353116735Y-135656279D01*
X353117771Y-135660017D01*
X353118729Y-135663774D01*
X353119609Y-135667549D01*
X353120411Y-135671341D01*
X353121135Y-135675148D01*
X353121780Y-135678969D01*
X353122347Y-135682803D01*
X353122834Y-135686647D01*
X353123242Y-135690502D01*
X353123570Y-135694364D01*
X353123819Y-135698233D01*
X353123988Y-135702107D01*
X353124078Y-135705984D01*
X353124087Y-135709863D01*
X353124016Y-135713742D01*
X353123866Y-135717619D01*
X353123635Y-135721493D01*
X353123325Y-135725363D01*
X353122935Y-135729225D01*
X353122466Y-135733079D01*
X353121917Y-135736923D01*
X353121290Y-135740756D01*
X353120583Y-135744575D01*
X353120200Y-135746479D01*
X353119798Y-135748378D01*
X353119376Y-135750274D01*
X353118934Y-135752165D01*
X353118473Y-135754052D01*
X353117993Y-135755933D01*
X353117493Y-135757810D01*
X353116974Y-135759681D01*
X353116436Y-135761547D01*
X353115879Y-135763407D01*
X353115302Y-135765261D01*
X353114707Y-135767110D01*
X353114092Y-135768951D01*
X353113458Y-135770787D01*
X353112806Y-135772615D01*
X353112135Y-135774437D01*
X353111445Y-135776251D01*
X353110736Y-135778059D01*
X353110010Y-135779858D01*
X353109264Y-135781651D01*
X353108500Y-135783435D01*
X353107717Y-135785212D01*
X353106917Y-135786979D01*
X353106098Y-135788739D01*
X353105261Y-135790490D01*
X353104406Y-135792233D01*
X353103534Y-135793966D01*
X353102643Y-135795690D01*
X353101735Y-135797405D01*
X353100808Y-135799111D01*
X353099865Y-135800806D01*
X353098904Y-135802493D01*
X353097926Y-135804168D01*
X353096929Y-135805835D01*
X353095917Y-135807490D01*
X353094886Y-135809136D01*
X353093840Y-135810770D01*
X353092775Y-135812395D01*
X353091695Y-135814007D01*
X353090597Y-135815610D01*
X353089483Y-135817200D01*
X353088352Y-135818781D01*
X353087205Y-135820348D01*
X353086041Y-135821905D01*
X353084861Y-135823450D01*
X353083665Y-135824983D01*
X353082453Y-135826504D01*
X353081224Y-135828014D01*
X353079203Y-135830430D01*
X353123356Y-135468418D02*
X353121240Y-135466670D01*
X353119075Y-135464985D01*
X353116864Y-135463365D01*
X353114607Y-135461811D01*
X353112307Y-135460324D01*
X353109964Y-135458904D01*
X353107581Y-135457553D01*
X353105160Y-135456272D01*
X353102702Y-135455062D01*
X353100209Y-135453924D01*
X353097683Y-135452858D01*
X353095127Y-135451867D01*
X353092542Y-135450950D01*
X353089930Y-135450108D01*
X353087295Y-135449342D01*
X353084637Y-135448654D01*
X353081960Y-135448043D01*
X353079266Y-135447510D01*
X353077914Y-135447273D01*
X353076558Y-135447055D01*
X353075199Y-135446858D01*
X353073837Y-135446680D01*
X353072472Y-135446522D01*
X353071106Y-135446384D01*
X353069738Y-135446266D01*
X353068368Y-135446168D01*
X353066997Y-135446090D01*
X353065624Y-135446032D01*
X353064252Y-135445994D01*
X353062878Y-135445976D01*
X353061506Y-135445978D01*
X353060132Y-135445999D01*
X353058761Y-135446041D01*
X353057388Y-135446103D01*
X353056019Y-135446185D01*
X353054649Y-135446287D01*
X353053282Y-135446409D01*
X353051916Y-135446551D01*
X353050554Y-135446713D01*
X353049192Y-135446895D01*
X353047835Y-135447096D01*
X353046479Y-135447318D01*
X353045128Y-135447559D01*
X353043779Y-135447820D01*
X353042436Y-135448100D01*
X353041095Y-135448401D01*
X353039760Y-135448720D01*
X353038427Y-135449060D01*
X353037101Y-135449419D01*
X353035779Y-135449797D01*
X353034463Y-135450194D01*
X353033151Y-135450612D01*
X353030740Y-135451434D01*
X353154964Y-135557125D02*
X353155420Y-135554418D01*
X353155796Y-135551701D01*
X353156093Y-135548975D01*
X353156311Y-135546244D01*
X353156449Y-135543508D01*
X353156507Y-135540769D01*
X353156485Y-135538030D01*
X353156384Y-135535292D01*
X353156203Y-135532558D01*
X353155942Y-135529830D01*
X353155602Y-135527110D01*
X353155182Y-135524400D01*
X353154684Y-135521703D01*
X353154107Y-135519020D01*
X353153452Y-135516355D01*
X353152720Y-135513709D01*
X353151910Y-135511086D01*
X353151025Y-135508486D01*
X353150554Y-135507196D01*
X353150064Y-135505913D01*
X353149555Y-135504637D01*
X353149028Y-135503369D01*
X353148483Y-135502109D01*
X353147919Y-135500856D01*
X353147337Y-135499612D01*
X353146737Y-135498377D01*
X353146119Y-135497151D01*
X353145483Y-135495933D01*
X353144830Y-135494725D01*
X353144159Y-135493527D01*
X353143471Y-135492339D01*
X353142765Y-135491161D01*
X353142043Y-135489994D01*
X353141303Y-135488836D01*
X353140547Y-135487691D01*
X353139774Y-135486556D01*
X353138985Y-135485433D01*
X353138179Y-135484321D01*
X353137357Y-135483222D01*
X353136519Y-135482133D01*
X353135666Y-135481059D01*
X353134796Y-135479995D01*
X353133912Y-135478946D01*
X353133011Y-135477908D01*
X353132096Y-135476885D01*
X353131166Y-135475873D01*
X353130221Y-135474877D01*
X353129261Y-135473893D01*
X353128287Y-135472924D01*
X353127298Y-135471967D01*
X353126296Y-135471026D01*
X353125278Y-135470099D01*
X353123356Y-135468418D01*
X353186570Y-135645827D02*
X353184505Y-135644018D01*
X353182495Y-135642150D01*
X353180541Y-135640227D01*
X353178645Y-135638248D01*
X353176808Y-135636216D01*
X353175031Y-135634131D01*
X353173316Y-135631995D01*
X353171663Y-135629810D01*
X353170075Y-135627577D01*
X353168552Y-135625298D01*
X353167095Y-135622976D01*
X353165706Y-135620611D01*
X353164387Y-135618207D01*
X353163137Y-135615764D01*
X353161959Y-135613285D01*
X353160854Y-135610772D01*
X353159822Y-135608228D01*
X353158864Y-135605654D01*
X353158413Y-135604357D01*
X353157982Y-135603054D01*
X353157569Y-135601744D01*
X353157175Y-135600428D01*
X353156801Y-135599107D01*
X353156446Y-135597780D01*
X353156110Y-135596449D01*
X353155794Y-135595112D01*
X353155497Y-135593772D01*
X353155220Y-135592426D01*
X353154962Y-135591078D01*
X353154724Y-135589725D01*
X353154506Y-135588370D01*
X353154308Y-135587011D01*
X353154129Y-135585650D01*
X353153971Y-135584286D01*
X353153832Y-135582921D01*
X353153714Y-135581553D01*
X353153615Y-135580184D01*
X353153536Y-135578813D01*
X353153478Y-135577443D01*
X353153439Y-135576070D01*
X353153420Y-135574698D01*
X353153422Y-135573324D01*
X353153443Y-135571953D01*
X353153485Y-135570579D01*
X353153546Y-135569208D01*
X353153628Y-135567837D01*
X353153729Y-135566468D01*
X353153851Y-135565098D01*
X353153993Y-135563732D01*
X353154154Y-135562366D01*
X353154336Y-135561004D01*
X353154538Y-135559642D01*
X353154964Y-135557125D01*
X353276990Y-135413677D02*
X353279923Y-135416224D01*
X353282800Y-135418829D01*
X353285623Y-135421492D01*
X353288388Y-135424211D01*
X353291097Y-135426985D01*
X353293746Y-135429814D01*
X353296337Y-135432696D01*
X353298867Y-135435631D01*
X353301337Y-135438617D01*
X353303744Y-135441654D01*
X353306088Y-135444739D01*
X353308369Y-135447873D01*
X353310584Y-135451053D01*
X353312734Y-135454279D01*
X353314818Y-135457549D01*
X353316834Y-135460862D01*
X353318781Y-135464217D01*
X353320660Y-135467611D01*
X353322468Y-135471044D01*
X353324206Y-135474514D01*
X353325872Y-135478020D01*
X353327466Y-135481560D01*
X353328987Y-135485133D01*
X353330434Y-135488736D01*
X353331807Y-135492369D01*
X353333104Y-135496030D01*
X353333725Y-135497870D01*
X353334327Y-135499717D01*
X353334909Y-135501569D01*
X353335472Y-135503428D01*
X353336017Y-135505292D01*
X353336542Y-135507162D01*
X353337047Y-135509037D01*
X353337534Y-135510917D01*
X353338001Y-135512802D01*
X353338448Y-135514692D01*
X353338876Y-135516586D01*
X353339284Y-135518485D01*
X353339673Y-135520387D01*
X353340042Y-135522294D01*
X353340392Y-135524203D01*
X353340722Y-135526117D01*
X353341032Y-135528033D01*
X353341322Y-135529953D01*
X353341592Y-135531875D01*
X353341843Y-135533801D01*
X353342073Y-135535727D01*
X353342284Y-135537658D01*
X353342475Y-135539589D01*
X353342646Y-135541523D01*
X353342797Y-135543457D01*
X353342928Y-135545394D01*
X353343039Y-135547331D01*
X353343130Y-135549271D01*
X353343201Y-135551209D01*
X353343252Y-135553150D01*
X353343282Y-135555090D01*
X353343293Y-135557032D01*
X353343284Y-135558972D01*
X353343255Y-135560914D01*
X353343206Y-135562853D01*
X353343136Y-135564794D01*
X353343047Y-135566733D01*
X353342938Y-135568672D01*
X353342808Y-135570609D01*
X353342659Y-135572546D01*
X353342490Y-135574480D01*
X353342300Y-135576415D01*
X353342091Y-135578346D01*
X353341862Y-135580277D01*
X353341613Y-135582204D01*
X353341343Y-135584131D01*
X353341055Y-135586053D01*
X353340745Y-135587975D01*
X353340202Y-135591086D01*
X353279186Y-135662804D02*
X353276587Y-135663688D01*
X353273965Y-135664495D01*
X353271323Y-135665225D01*
X353268662Y-135665878D01*
X353265983Y-135666453D01*
X353263290Y-135666949D01*
X353260583Y-135667367D01*
X353257864Y-135667706D01*
X353255137Y-135667965D01*
X353252402Y-135668145D01*
X353249663Y-135668246D01*
X353246921Y-135668266D01*
X353244179Y-135668207D01*
X353241439Y-135668067D01*
X353238704Y-135667848D01*
X353235975Y-135667549D01*
X353233256Y-135667171D01*
X353230549Y-135666714D01*
X353229200Y-135666456D01*
X353227855Y-135666178D01*
X353226515Y-135665881D01*
X353225179Y-135665564D01*
X353223847Y-135665227D01*
X353222521Y-135664872D01*
X353221200Y-135664497D01*
X353219884Y-135664102D01*
X353218575Y-135663689D01*
X353217271Y-135663257D01*
X353215975Y-135662805D01*
X353214685Y-135662335D01*
X353213402Y-135661846D01*
X353212126Y-135661339D01*
X353210858Y-135660813D01*
X353209598Y-135660268D01*
X353208346Y-135659706D01*
X353207102Y-135659124D01*
X353205867Y-135658526D01*
X353204640Y-135657908D01*
X353203424Y-135657274D01*
X353202216Y-135656621D01*
X353201018Y-135655951D01*
X353199829Y-135655263D01*
X353198652Y-135654558D01*
X353197483Y-135653836D01*
X353196327Y-135653097D01*
X353195180Y-135652340D01*
X353194045Y-135651568D01*
X353192919Y-135650778D01*
X353191807Y-135649972D01*
X353190705Y-135649149D01*
X353189615Y-135648310D01*
X353188537Y-135647455D01*
X353186570Y-135645827D01*
X353340202Y-135591086D02*
X353339668Y-135593778D01*
X353339057Y-135596451D01*
X353338368Y-135599104D01*
X353337603Y-135601734D01*
X353336762Y-135604340D01*
X353335846Y-135606921D01*
X353334854Y-135609473D01*
X353333789Y-135611996D01*
X353332650Y-135614488D01*
X353331439Y-135616945D01*
X353330156Y-135619367D01*
X353328803Y-135621752D01*
X353327381Y-135624096D01*
X353325891Y-135626399D01*
X353324333Y-135628659D01*
X353322710Y-135630872D01*
X353321023Y-135633038D01*
X353319273Y-135635154D01*
X353318375Y-135636193D01*
X353317462Y-135637219D01*
X353316534Y-135638231D01*
X353315592Y-135639230D01*
X353314635Y-135640215D01*
X353313663Y-135641186D01*
X353312678Y-135642142D01*
X353311679Y-135643084D01*
X353310666Y-135644012D01*
X353309640Y-135644925D01*
X353308601Y-135645822D01*
X353307548Y-135646704D01*
X353306483Y-135647571D01*
X353305405Y-135648422D01*
X353304316Y-135649257D01*
X353303214Y-135650077D01*
X353302100Y-135650880D01*
X353300975Y-135651667D01*
X353299839Y-135652437D01*
X353298690Y-135653191D01*
X353297532Y-135653927D01*
X353296363Y-135654647D01*
X353295184Y-135655350D01*
X353293993Y-135656035D01*
X353292794Y-135656703D01*
X353291584Y-135657354D01*
X353290365Y-135657986D01*
X353289136Y-135658602D01*
X353287899Y-135659199D01*
X353286652Y-135659778D01*
X353285398Y-135660339D01*
X353284134Y-135660882D01*
X353282863Y-135661407D01*
X353281582Y-135661913D01*
X353279186Y-135662804D01*
M02*
