%TF.GenerationSoftware,KiCad,Pcbnew,10.0.4-10.0.4~ubuntu24.04.1*%
%TF.CreationDate,2026-07-25T10:38:02+02:00*%
%TF.ProjectId,hzk65,687a6b36-352e-46b6-9963-61645f706362,rev?*%
%TF.SameCoordinates,Original*%
%TF.FileFunction,Soldermask,Top*%
%TF.FilePolarity,Negative*%
%FSLAX46Y46*%
G04 Gerber Fmt 4.6, Leading zero omitted, Abs format (unit mm)*
G04 Created by KiCad (PCBNEW 10.0.4-10.0.4~ubuntu24.04.1) date 2026-07-25 10:38:02*
%MOMM*%
%LPD*%
G01*
G04 APERTURE LIST*
G04 Aperture macros list*
%AMRoundRect*
0 Rectangle with rounded corners*
0 $1 Rounding radius*
0 $2 $3 $4 $5 $6 $7 $8 $9 X,Y pos of 4 corners*
0 Add a 4 corners polygon primitive as box body*
4,1,4,$2,$3,$4,$5,$6,$7,$8,$9,$2,$3,0*
0 Add four circle primitives for the rounded corners*
1,1,$1+$1,$2,$3*
1,1,$1+$1,$4,$5*
1,1,$1+$1,$6,$7*
1,1,$1+$1,$8,$9*
0 Add four rect primitives between the rounded corners*
20,1,$1+$1,$2,$3,$4,$5,0*
20,1,$1+$1,$4,$5,$6,$7,0*
20,1,$1+$1,$6,$7,$8,$9,0*
20,1,$1+$1,$8,$9,$2,$3,0*%
%AMFreePoly0*
4,1,37,0.000000,0.796148,0.078414,0.796148,0.232228,0.765552,0.377117,0.705537,0.507515,0.618408,0.618408,0.507515,0.705537,0.377117,0.765552,0.232228,0.796148,0.078414,0.796148,-0.078414,0.765552,-0.232228,0.705537,-0.377117,0.618408,-0.507515,0.507515,-0.618408,0.377117,-0.705537,0.232228,-0.765552,0.078414,-0.796148,0.000000,-0.796148,0.000000,-0.800000,-0.600000,-0.800000,
-0.603843,-0.796157,-0.639018,-0.796157,-0.711114,-0.766294,-0.766294,-0.711114,-0.796157,-0.639018,-0.796157,-0.603843,-0.800000,-0.600000,-0.800000,0.600000,-0.796157,0.603843,-0.796157,0.639018,-0.766294,0.711114,-0.711114,0.766294,-0.639018,0.796157,-0.603843,0.796157,-0.600000,0.800000,0.000000,0.800000,0.000000,0.796148,0.000000,0.796148,$1*%
%AMFreePoly1*
4,1,37,0.603843,0.796157,0.639018,0.796157,0.711114,0.766294,0.766294,0.711114,0.796157,0.639018,0.796157,0.603843,0.800000,0.600000,0.800000,-0.600000,0.796157,-0.603843,0.796157,-0.639018,0.766294,-0.711114,0.711114,-0.766294,0.639018,-0.796157,0.603843,-0.796157,0.600000,-0.800000,0.000000,-0.800000,0.000000,-0.796148,-0.078414,-0.796148,-0.232228,-0.765552,-0.377117,-0.705537,
-0.507515,-0.618408,-0.618408,-0.507515,-0.705537,-0.377117,-0.765552,-0.232228,-0.796148,-0.078414,-0.796148,0.078414,-0.765552,0.232228,-0.705537,0.377117,-0.618408,0.507515,-0.507515,0.618408,-0.377117,0.705537,-0.232228,0.765552,-0.078414,0.796148,0.000000,0.796148,0.000000,0.800000,0.600000,0.800000,0.603843,0.796157,0.603843,0.796157,$1*%
G04 Aperture macros list end*
%ADD10C,3.048000*%
%ADD11C,3.987800*%
%ADD12C,1.750000*%
%ADD13C,3.050000*%
%ADD14C,4.000000*%
%ADD15C,1.600000*%
%ADD16FreePoly0,0.000000*%
%ADD17FreePoly1,0.000000*%
%ADD18RoundRect,0.200000X-0.600000X-0.600000X0.600000X-0.600000X0.600000X0.600000X-0.600000X0.600000X0*%
G04 APERTURE END LIST*
D10*
%TO.C,H46*%
X61882300Y-159706000D03*
X85758300Y-159706000D03*
D11*
X61882300Y-174916000D03*
X85758300Y-174916000D03*
%TD*%
D10*
%TO.C,H44*%
X304763800Y-140653600D03*
X328639800Y-140653600D03*
D11*
X304763800Y-155863600D03*
X328639800Y-155863600D03*
%TD*%
D12*
%TO.C,SW27*%
X286063800Y-128589000D03*
D13*
X283523800Y-123509000D03*
D14*
X280983800Y-128589000D03*
D13*
X277173800Y-126049000D03*
D12*
X275903800Y-128589000D03*
%TD*%
%TO.C,SW46*%
X78900300Y-166691000D03*
D13*
X76360300Y-161611000D03*
D14*
X73820300Y-166691000D03*
D13*
X70010300Y-164151000D03*
D12*
X68740300Y-166691000D03*
%TD*%
%TO.C,SW58*%
X307494600Y-166688200D03*
D13*
X304954600Y-161608200D03*
D14*
X302414600Y-166688200D03*
D13*
X298604600Y-164148200D03*
D12*
X297334600Y-166688200D03*
%TD*%
%TO.C,SW42*%
X290826200Y-147638600D03*
D13*
X288286200Y-142558600D03*
D14*
X285746200Y-147638600D03*
D13*
X281936200Y-145098600D03*
D12*
X280666200Y-147638600D03*
%TD*%
%TO.C,SW70*%
X257489400Y-185737800D03*
D13*
X254949400Y-180657800D03*
D14*
X252409400Y-185737800D03*
D13*
X248599400Y-183197800D03*
D12*
X247329400Y-185737800D03*
%TD*%
%TO.C,SW41*%
X271776600Y-147638600D03*
D13*
X269236600Y-142558600D03*
D14*
X266696600Y-147638600D03*
D13*
X262886600Y-145098600D03*
D12*
X261616600Y-147638600D03*
%TD*%
%TO.C,SW25*%
X247964600Y-128589000D03*
D13*
X245424600Y-123509000D03*
D14*
X242884600Y-128589000D03*
D13*
X239074600Y-126049000D03*
D12*
X237804600Y-128589000D03*
%TD*%
%TO.C,SW67*%
X188434600Y-185737800D03*
D13*
X185894600Y-180657800D03*
D14*
X183354600Y-185737800D03*
D13*
X179544600Y-183197800D03*
D12*
X178274600Y-185737800D03*
%TD*%
%TO.C,SW29*%
X328925400Y-128589000D03*
D13*
X326385400Y-123509000D03*
D14*
X323845400Y-128589000D03*
D13*
X320035400Y-126049000D03*
D12*
X318765400Y-128589000D03*
%TD*%
%TO.C,SW34*%
X138429400Y-147638600D03*
D13*
X135889400Y-142558600D03*
D14*
X133349400Y-147638600D03*
D13*
X129539400Y-145098600D03*
D12*
X128269400Y-147638600D03*
%TD*%
%TO.C,SW2*%
X86043000Y-109539400D03*
D13*
X83503000Y-104459400D03*
D14*
X80963000Y-109539400D03*
D13*
X77153000Y-106999400D03*
D12*
X75883000Y-109539400D03*
%TD*%
%TO.C,SW19*%
X133667000Y-128589000D03*
D13*
X131127000Y-123509000D03*
D14*
X128587000Y-128589000D03*
D13*
X124777000Y-126049000D03*
D12*
X123507000Y-128589000D03*
%TD*%
%TO.C,SW53*%
X205103000Y-166688200D03*
D13*
X202563000Y-161608200D03*
D14*
X200023000Y-166688200D03*
D13*
X196213000Y-164148200D03*
D12*
X194943000Y-166688200D03*
%TD*%
%TO.C,SW54*%
X224152600Y-166688200D03*
D13*
X221612600Y-161608200D03*
D14*
X219072600Y-166688200D03*
D13*
X215262600Y-164148200D03*
D12*
X213992600Y-166688200D03*
%TD*%
%TO.C,SW52*%
X186053400Y-166688200D03*
D13*
X183513400Y-161608200D03*
D14*
X180973400Y-166688200D03*
D13*
X177163400Y-164148200D03*
D12*
X175893400Y-166688200D03*
%TD*%
%TO.C,SW10*%
X238439800Y-109539400D03*
D13*
X235899800Y-104459400D03*
D14*
X233359800Y-109539400D03*
D13*
X229549800Y-106999400D03*
D12*
X228279800Y-109539400D03*
%TD*%
%TO.C,SW40*%
X252727000Y-147638600D03*
D13*
X250187000Y-142558600D03*
D14*
X247647000Y-147638600D03*
D13*
X243837000Y-145098600D03*
D12*
X242567000Y-147638600D03*
%TD*%
%TO.C,SW6*%
X162241400Y-109539400D03*
D13*
X159701400Y-104459400D03*
D14*
X157161400Y-109539400D03*
D13*
X153351400Y-106999400D03*
D12*
X152081400Y-109539400D03*
%TD*%
%TO.C,SW62*%
X93186600Y-185737800D03*
D13*
X90646600Y-180657800D03*
D14*
X88106600Y-185737800D03*
D13*
X84296600Y-183197800D03*
D12*
X83026600Y-185737800D03*
%TD*%
%TO.C,SW20*%
X152716600Y-128589000D03*
D13*
X150176600Y-123509000D03*
D14*
X147636600Y-128589000D03*
D13*
X143826600Y-126049000D03*
D12*
X142556600Y-128589000D03*
%TD*%
%TO.C,SW7*%
X181291000Y-109539400D03*
D13*
X178751000Y-104459400D03*
D14*
X176211000Y-109539400D03*
D13*
X172401000Y-106999400D03*
D12*
X171131000Y-109539400D03*
%TD*%
%TO.C,SW61*%
X69374600Y-185737800D03*
D13*
X66834600Y-180657800D03*
D14*
X64294600Y-185737800D03*
D13*
X60484600Y-183197800D03*
D12*
X59214600Y-185737800D03*
%TD*%
%TO.C,SW50*%
X147954200Y-166688200D03*
D13*
X145414200Y-161608200D03*
D14*
X142874200Y-166688200D03*
D13*
X139064200Y-164148200D03*
D12*
X137794200Y-166688200D03*
%TD*%
%TO.C,SW5*%
X143191800Y-109539400D03*
D13*
X140651800Y-104459400D03*
D14*
X138111800Y-109539400D03*
D13*
X134301800Y-106999400D03*
D12*
X133031800Y-109539400D03*
%TD*%
%TO.C,SW21*%
X171766200Y-128589000D03*
D13*
X169226200Y-123509000D03*
D14*
X166686200Y-128589000D03*
D13*
X162876200Y-126049000D03*
D12*
X161606200Y-128589000D03*
%TD*%
D10*
%TO.C,H67*%
X233354600Y-192722800D03*
D11*
X233354600Y-177512800D03*
D10*
X133354600Y-192722800D03*
D11*
X133354600Y-177512800D03*
%TD*%
D12*
%TO.C,SW35*%
X157479000Y-147638600D03*
D13*
X154939000Y-142558600D03*
D14*
X152399000Y-147638600D03*
D13*
X148589000Y-145098600D03*
D12*
X147319000Y-147638600D03*
%TD*%
%TO.C,SW75*%
X357499800Y-190500200D03*
D13*
X354959800Y-185420200D03*
D14*
X352419800Y-190500200D03*
D13*
X348609800Y-187960200D03*
D12*
X347339800Y-190500200D03*
%TD*%
%TO.C,SW48*%
X109855000Y-166688200D03*
D13*
X107315000Y-161608200D03*
D14*
X104775000Y-166688200D03*
D13*
X100965000Y-164148200D03*
D12*
X99695000Y-166688200D03*
%TD*%
%TO.C,SW23*%
X209865400Y-128589000D03*
D13*
X207325400Y-123509000D03*
D14*
X204785400Y-128589000D03*
D13*
X200975400Y-126049000D03*
D12*
X199705400Y-128589000D03*
%TD*%
%TO.C,SW57*%
X281301400Y-166688200D03*
D13*
X278761400Y-161608200D03*
D14*
X276221400Y-166688200D03*
D13*
X272411400Y-164148200D03*
D12*
X271141400Y-166688200D03*
%TD*%
%TO.C,SW12*%
X276539000Y-109539400D03*
D13*
X273999000Y-104459400D03*
D14*
X271459000Y-109539400D03*
D13*
X267649000Y-106999400D03*
D12*
X266379000Y-109539400D03*
%TD*%
%TO.C,SW71*%
X276539000Y-185737800D03*
D13*
X273999000Y-180657800D03*
D14*
X271459000Y-185737800D03*
D13*
X267649000Y-183197800D03*
D12*
X266379000Y-185737800D03*
%TD*%
%TO.C,SW24*%
X228915000Y-128589000D03*
D13*
X226375000Y-123509000D03*
D14*
X223835000Y-128589000D03*
D13*
X220025000Y-126049000D03*
D12*
X218755000Y-128589000D03*
%TD*%
%TO.C,SW11*%
X257489400Y-109539400D03*
D13*
X254949400Y-104459400D03*
D14*
X252409400Y-109539400D03*
D13*
X248599400Y-106999400D03*
D12*
X247329400Y-109539400D03*
%TD*%
%TO.C,SW9*%
X219390200Y-109539400D03*
D13*
X216850200Y-104459400D03*
D14*
X214310200Y-109539400D03*
D13*
X210500200Y-106999400D03*
D12*
X209230200Y-109539400D03*
%TD*%
%TO.C,SW39*%
X233677400Y-147638600D03*
D13*
X231137400Y-142558600D03*
D14*
X228597400Y-147638600D03*
D13*
X224787400Y-145098600D03*
D12*
X223517400Y-147638600D03*
%TD*%
D11*
%TO.C,H14*%
X331033500Y-117767100D03*
D10*
X331033500Y-102557100D03*
D11*
X307157500Y-117767100D03*
D10*
X307157500Y-102557100D03*
%TD*%
D12*
%TO.C,SW1*%
X66993400Y-109539400D03*
D13*
X64453400Y-104459400D03*
D14*
X61913400Y-109539400D03*
D13*
X58103400Y-106999400D03*
D12*
X56833400Y-109539400D03*
%TD*%
%TO.C,SW36*%
X176528600Y-147638600D03*
D13*
X173988600Y-142558600D03*
D14*
X171448600Y-147638600D03*
D13*
X167638600Y-145098600D03*
D12*
X166368600Y-147638600D03*
%TD*%
%TO.C,SW51*%
X167003800Y-166688200D03*
D13*
X164463800Y-161608200D03*
D14*
X161923800Y-166688200D03*
D13*
X158113800Y-164148200D03*
D12*
X156843800Y-166688200D03*
%TD*%
%TO.C,SW56*%
X262251800Y-166688200D03*
D13*
X259711800Y-161608200D03*
D14*
X257171800Y-166688200D03*
D13*
X253361800Y-164148200D03*
D12*
X252091800Y-166688200D03*
%TD*%
%TO.C,SW28*%
X305113400Y-128589000D03*
D13*
X302573400Y-123509000D03*
D14*
X300033400Y-128589000D03*
D13*
X296223400Y-126049000D03*
D12*
X294953400Y-128589000D03*
%TD*%
%TO.C,SW74*%
X338450200Y-190500200D03*
D13*
X335910200Y-185420200D03*
D14*
X333370200Y-190500200D03*
D13*
X329560200Y-187960200D03*
D12*
X328290200Y-190500200D03*
%TD*%
D15*
%TO.C,A1*%
X363702400Y-102080250D03*
X363702400Y-104620250D03*
D16*
X363702400Y-107160250D03*
D15*
X363702400Y-109700250D03*
X363702400Y-112240250D03*
X363702400Y-114780250D03*
X363702400Y-117320250D03*
D16*
X363702400Y-119860250D03*
D15*
X363702400Y-122400250D03*
X363702400Y-124940250D03*
X363702400Y-127480250D03*
X363702400Y-130020250D03*
D16*
X363702400Y-132560250D03*
D15*
X363702400Y-135100250D03*
X363702400Y-137640250D03*
X363702400Y-140180250D03*
X363702400Y-142720250D03*
D16*
X363702400Y-145260250D03*
D15*
X363702400Y-147800250D03*
X363702400Y-150340250D03*
X345922400Y-150340250D03*
X345922400Y-147800250D03*
D17*
X345922400Y-145260250D03*
D15*
X345922400Y-142720250D03*
X345922400Y-140180250D03*
X345922400Y-137640250D03*
X345922400Y-135100250D03*
D17*
X345922400Y-132560250D03*
D15*
X345922400Y-130020250D03*
X345922400Y-127480250D03*
X345922400Y-124940250D03*
X345922400Y-122400250D03*
D17*
X345922400Y-119860250D03*
D15*
X345922400Y-117320250D03*
X345922400Y-114780250D03*
X345922400Y-112240250D03*
X345922400Y-109700250D03*
D17*
X345922400Y-107160250D03*
D15*
X345922400Y-104620250D03*
D18*
X345922400Y-102080250D03*
%TD*%
D12*
%TO.C,SW33*%
X119379800Y-147638600D03*
D13*
X116839800Y-142558600D03*
D14*
X114299800Y-147638600D03*
D13*
X110489800Y-145098600D03*
D12*
X109219800Y-147638600D03*
%TD*%
%TO.C,SW18*%
X114617400Y-128589000D03*
D13*
X112077400Y-123509000D03*
D14*
X109537400Y-128589000D03*
D13*
X105727400Y-126049000D03*
D12*
X104457400Y-128589000D03*
%TD*%
%TO.C,SW73*%
X319400600Y-190500200D03*
D13*
X316860600Y-185420200D03*
D14*
X314320600Y-190500200D03*
D13*
X310510600Y-187960200D03*
D12*
X309240600Y-190500200D03*
%TD*%
%TO.C,SW72*%
X295588600Y-185737800D03*
D13*
X293048600Y-180657800D03*
D14*
X290508600Y-185737800D03*
D13*
X286698600Y-183197800D03*
D12*
X285428600Y-185737800D03*
%TD*%
%TO.C,SW4*%
X124142200Y-109539400D03*
D13*
X121602200Y-104459400D03*
D14*
X119062200Y-109539400D03*
D13*
X115252200Y-106999400D03*
D12*
X113982200Y-109539400D03*
%TD*%
%TO.C,SW22*%
X190815800Y-128589000D03*
D13*
X188275800Y-123509000D03*
D14*
X185735800Y-128589000D03*
D13*
X181925800Y-126049000D03*
D12*
X180655800Y-128589000D03*
%TD*%
%TO.C,SW32*%
X100330200Y-147638600D03*
D13*
X97790200Y-142558600D03*
D14*
X95250200Y-147638600D03*
D13*
X91440200Y-145098600D03*
D12*
X90170200Y-147638600D03*
%TD*%
%TO.C,SW13*%
X295588600Y-109539400D03*
D13*
X293048600Y-104459400D03*
D14*
X290508600Y-109539400D03*
D13*
X286698600Y-106999400D03*
D12*
X285428600Y-109539400D03*
%TD*%
%TO.C,SW26*%
X267014200Y-128589000D03*
D13*
X264474200Y-123509000D03*
D14*
X261934200Y-128589000D03*
D13*
X258124200Y-126049000D03*
D12*
X256854200Y-128589000D03*
%TD*%
%TO.C,SW17*%
X95567800Y-128589000D03*
D13*
X93027800Y-123509000D03*
D14*
X90487800Y-128589000D03*
D13*
X86677800Y-126049000D03*
D12*
X85407800Y-128589000D03*
%TD*%
%TO.C,SW16*%
X71755800Y-128589000D03*
D13*
X69215800Y-123509000D03*
D14*
X66675800Y-128589000D03*
D13*
X62865800Y-126049000D03*
D12*
X61595800Y-128589000D03*
%TD*%
%TO.C,SW14*%
X324175500Y-109542100D03*
D13*
X321635500Y-104462100D03*
D14*
X319095500Y-109542100D03*
D13*
X315285500Y-107002100D03*
D12*
X314015500Y-109542100D03*
%TD*%
%TO.C,SW59*%
X338450200Y-171450600D03*
D13*
X335910200Y-166370600D03*
D14*
X333370200Y-171450600D03*
D13*
X329560200Y-168910600D03*
D12*
X328290200Y-171450600D03*
%TD*%
%TO.C,SW55*%
X243202200Y-166688200D03*
D13*
X240662200Y-161608200D03*
D14*
X238122200Y-166688200D03*
D13*
X234312200Y-164148200D03*
D12*
X233042200Y-166688200D03*
%TD*%
%TO.C,SW3*%
X105092600Y-109539400D03*
D13*
X102552600Y-104459400D03*
D14*
X100012600Y-109539400D03*
D13*
X96202600Y-106999400D03*
D12*
X94932600Y-109539400D03*
%TD*%
%TO.C,SW31*%
X74137000Y-147638600D03*
D13*
X71597000Y-142558600D03*
D14*
X69057000Y-147638600D03*
D13*
X65247000Y-145098600D03*
D12*
X63977000Y-147638600D03*
%TD*%
%TO.C,SW60*%
X352102200Y-166688200D03*
D13*
X353372200Y-164148200D03*
D14*
X357182200Y-166688200D03*
D13*
X359722200Y-161608200D03*
D12*
X362262200Y-166688200D03*
%TD*%
%TO.C,SW8*%
X200340600Y-109539400D03*
D13*
X197800600Y-104459400D03*
D14*
X195260600Y-109539400D03*
D13*
X191450600Y-106999400D03*
D12*
X190180600Y-109539400D03*
%TD*%
%TO.C,SW63*%
X116998600Y-185737800D03*
D13*
X114458600Y-180657800D03*
D14*
X111918600Y-185737800D03*
D13*
X108108600Y-183197800D03*
D12*
X106838600Y-185737800D03*
%TD*%
%TO.C,SW38*%
X214627800Y-147638600D03*
D13*
X212087800Y-142558600D03*
D14*
X209547800Y-147638600D03*
D13*
X205737800Y-145098600D03*
D12*
X204467800Y-147638600D03*
%TD*%
%TO.C,SW44*%
X321781800Y-147638600D03*
D13*
X319241800Y-142558600D03*
D14*
X316701800Y-147638600D03*
D13*
X312891800Y-145098600D03*
D12*
X311621800Y-147638600D03*
%TD*%
%TO.C,SW49*%
X128904600Y-166688200D03*
D13*
X126364600Y-161608200D03*
D14*
X123824600Y-166688200D03*
D13*
X120014600Y-164148200D03*
D12*
X118744600Y-166688200D03*
%TD*%
%TO.C,SW37*%
X195578200Y-147638600D03*
D13*
X193038200Y-142558600D03*
D14*
X190498200Y-147638600D03*
D13*
X186688200Y-145098600D03*
D12*
X185418200Y-147638600D03*
%TD*%
M02*
