M48
; DRILL file KiCad 10.0.4-10.0.4~ubuntu24.04.1 date 2026-07-28T17:27:47
; FORMAT={-:-/ absolute / metric / decimal}
; #@! TF.CreationDate,2026-07-28T17:27:47+02:00
; #@! TF.GenerationSoftware,Kicad,Pcbnew,10.0.4-10.0.4~ubuntu24.04.1
; #@! TF.FileFunction,NonPlated,1,2,NPTH
FMAT,2
METRIC
; #@! TA.AperFunction,NonPlated,NPTH,ComponentDrill
T1C1.750
; #@! TA.AperFunction,NonPlated,NPTH,ComponentDrill
T2C3.048
; #@! TA.AperFunction,NonPlated,NPTH,ComponentDrill
T3C3.050
; #@! TA.AperFunction,NonPlated,NPTH,ComponentDrill
T4C3.988
; #@! TA.AperFunction,NonPlated,NPTH,ComponentDrill
T5C4.000
%
G90
G05
T1
X57.149Y-109.358
X59.53Y-185.556
X61.912Y-128.407
X64.293Y-147.457
X67.309Y-109.358
X69.056Y-166.509
X69.69Y-185.556
X72.072Y-128.407
X74.453Y-147.457
X76.199Y-109.358
X79.216Y-166.509
X83.342Y-185.556
X85.724Y-128.407
X86.359Y-109.358
X90.486Y-147.457
X93.502Y-185.556
X95.248Y-109.358
X95.884Y-128.407
X100.011Y-166.506
X100.646Y-147.457
X104.773Y-128.407
X105.408Y-109.358
X107.154Y-185.556
X109.536Y-147.457
X110.171Y-166.506
X114.298Y-109.358
X114.933Y-128.407
X117.314Y-185.556
X119.06Y-166.506
X119.696Y-147.457
X123.823Y-128.407
X124.458Y-109.358
X128.585Y-147.457
X129.22Y-166.506
X133.348Y-109.358
X133.983Y-128.407
X138.11Y-166.506
X138.745Y-147.457
X142.872Y-128.407
X143.508Y-109.358
X147.635Y-147.457
X148.27Y-166.506
X152.397Y-109.358
X153.032Y-128.407
X157.16Y-166.506
X157.795Y-147.457
X161.922Y-128.407
X162.557Y-109.358
X166.684Y-147.457
X167.32Y-166.506
X171.447Y-109.358
X172.082Y-128.407
X176.209Y-166.506
X176.844Y-147.457
X178.59Y-185.556
X180.972Y-128.407
X181.607Y-109.358
X185.734Y-147.457
X186.369Y-166.506
X188.75Y-185.556
X190.496Y-109.358
X191.132Y-128.407
X195.259Y-166.506
X195.894Y-147.457
X200.021Y-128.407
X200.656Y-109.358
X204.784Y-147.457
X205.419Y-166.506
X209.546Y-109.358
X210.181Y-128.407
X214.308Y-166.506
X214.944Y-147.457
X219.071Y-128.407
X219.706Y-109.358
X223.833Y-147.457
X224.468Y-166.506
X228.596Y-109.358
X229.231Y-128.407
X233.358Y-166.506
X233.993Y-147.457
X238.12Y-128.407
X238.756Y-109.358
X242.883Y-147.457
X243.518Y-166.506
X247.645Y-109.358
X247.645Y-185.556
X248.28Y-128.407
X252.408Y-166.506
X253.043Y-147.457
X257.17Y-128.407
X257.805Y-109.358
X257.805Y-185.556
X261.932Y-147.457
X262.568Y-166.506
X266.695Y-109.358
X266.695Y-185.556
X267.33Y-128.407
X271.457Y-166.506
X272.092Y-147.457
X276.22Y-128.407
X276.855Y-109.358
X276.855Y-185.556
X280.982Y-147.457
X281.617Y-166.506
X285.744Y-109.358
X285.744Y-185.556
X286.38Y-128.407
X291.142Y-147.457
X295.269Y-128.407
X295.904Y-109.358
X295.904Y-185.556
X297.65Y-166.506
X305.429Y-128.407
X307.81Y-166.506
X309.556Y-190.318
X311.938Y-147.457
X314.331Y-109.36
X319.081Y-128.407
X319.716Y-190.318
X322.098Y-147.457
X324.491Y-109.36
X328.606Y-171.269
X328.606Y-190.318
X329.241Y-128.407
X338.766Y-171.269
X338.766Y-190.318
X347.656Y-190.318
X352.418Y-166.506
X357.816Y-190.318
X362.578Y-166.506
T2
X62.198Y-159.524
X86.074Y-159.524
X133.67Y-192.541
X233.67Y-192.541
X305.08Y-140.472
X307.473Y-102.375
X328.956Y-140.472
X331.349Y-102.375
T3
X58.419Y-106.818
X60.8Y-183.016
X63.182Y-125.867
X64.769Y-104.278
X65.563Y-144.917
X67.15Y-180.476
X69.532Y-123.327
X70.326Y-163.969
X71.913Y-142.377
X76.676Y-161.429
X77.469Y-106.818
X83.819Y-104.278
X84.612Y-183.016
X86.994Y-125.867
X90.962Y-180.476
X91.756Y-144.917
X93.344Y-123.327
X96.518Y-106.818
X98.106Y-142.377
X101.281Y-163.966
X102.868Y-104.278
X106.043Y-125.867
X107.631Y-161.426
X108.424Y-183.016
X110.806Y-144.917
X112.393Y-123.327
X114.774Y-180.476
X115.568Y-106.818
X117.156Y-142.377
X120.33Y-163.966
X121.918Y-104.278
X125.093Y-125.867
X126.68Y-161.426
X129.855Y-144.917
X131.443Y-123.327
X134.618Y-106.818
X136.205Y-142.377
X139.38Y-163.966
X140.968Y-104.278
X144.142Y-125.867
X145.73Y-161.426
X148.905Y-144.917
X150.492Y-123.327
X153.667Y-106.818
X155.255Y-142.377
X158.43Y-163.966
X160.017Y-104.278
X163.192Y-125.867
X164.78Y-161.426
X167.954Y-144.917
X169.542Y-123.327
X172.717Y-106.818
X174.304Y-142.377
X177.479Y-163.966
X179.067Y-104.278
X179.86Y-183.016
X182.242Y-125.867
X183.829Y-161.426
X186.21Y-180.476
X187.004Y-144.917
X188.592Y-123.327
X191.766Y-106.818
X193.354Y-142.377
X196.529Y-163.966
X198.116Y-104.278
X201.291Y-125.867
X202.879Y-161.426
X206.054Y-144.917
X207.641Y-123.327
X210.816Y-106.818
X212.404Y-142.377
X215.578Y-163.966
X217.166Y-104.278
X220.341Y-125.867
X221.928Y-161.426
X225.103Y-144.917
X226.691Y-123.327
X229.866Y-106.818
X231.453Y-142.377
X234.628Y-163.966
X236.216Y-104.278
X239.39Y-125.867
X240.978Y-161.426
X244.153Y-144.917
X245.74Y-123.327
X248.915Y-106.818
X248.915Y-183.016
X250.503Y-142.377
X253.678Y-163.966
X255.265Y-104.278
X255.265Y-180.476
X258.44Y-125.867
X260.028Y-161.426
X263.202Y-144.917
X264.79Y-123.327
X267.965Y-106.818
X267.965Y-183.016
X269.552Y-142.377
X272.727Y-163.966
X274.315Y-104.278
X274.315Y-180.476
X277.49Y-125.867
X279.077Y-161.426
X282.252Y-144.917
X283.84Y-123.327
X287.014Y-106.818
X287.014Y-183.016
X288.602Y-142.377
X293.364Y-104.278
X293.364Y-180.476
X296.539Y-125.867
X298.92Y-163.966
X302.889Y-123.327
X305.27Y-161.426
X310.826Y-187.778
X313.208Y-144.917
X315.601Y-106.82
X317.176Y-185.238
X319.558Y-142.377
X320.351Y-125.867
X321.951Y-104.28
X326.701Y-123.327
X329.876Y-168.729
X329.876Y-187.778
X336.226Y-166.189
X336.226Y-185.238
X348.926Y-187.778
X353.688Y-163.966
X355.276Y-185.238
X360.038Y-161.426
T4
X62.198Y-174.734
X86.074Y-174.734
X133.67Y-177.331
X233.67Y-177.331
X305.08Y-155.682
X307.473Y-117.585
X328.956Y-155.682
X331.349Y-117.585
T5
X62.229Y-109.358
X64.61Y-185.556
X66.992Y-128.407
X69.373Y-147.457
X74.136Y-166.509
X81.279Y-109.358
X88.422Y-185.556
X90.804Y-128.407
X95.566Y-147.457
X100.328Y-109.358
X105.091Y-166.506
X109.853Y-128.407
X112.234Y-185.556
X114.616Y-147.457
X119.378Y-109.358
X124.14Y-166.506
X128.903Y-128.407
X133.665Y-147.457
X138.428Y-109.358
X143.19Y-166.506
X147.952Y-128.407
X152.715Y-147.457
X157.477Y-109.358
X162.24Y-166.506
X167.002Y-128.407
X171.764Y-147.457
X176.527Y-109.358
X181.289Y-166.506
X183.67Y-185.556
X186.052Y-128.407
X190.814Y-147.457
X195.576Y-109.358
X200.339Y-166.506
X205.101Y-128.407
X209.864Y-147.457
X214.626Y-109.358
X219.388Y-166.506
X224.151Y-128.407
X228.913Y-147.457
X233.676Y-109.358
X238.438Y-166.506
X243.2Y-128.407
X247.963Y-147.457
X252.725Y-109.358
X252.725Y-185.556
X257.488Y-166.506
X262.25Y-128.407
X267.012Y-147.457
X271.775Y-109.358
X271.775Y-185.556
X276.537Y-166.506
X281.3Y-128.407
X286.062Y-147.457
X290.824Y-109.358
X290.824Y-185.556
X300.349Y-128.407
X302.73Y-166.506
X314.636Y-190.318
X317.018Y-147.457
X319.411Y-109.36
X324.161Y-128.407
X333.686Y-171.269
X333.686Y-190.318
X352.736Y-190.318
X357.498Y-166.506
M30
