%TF.GenerationSoftware,KiCad,Pcbnew,10.0.4-10.0.4~ubuntu24.04.1*%
%TF.CreationDate,2026-07-25T11:00:26+02:00*%
%TF.ProjectId,hzk65,687a6b36-352e-46b6-9963-61645f706362,rev?*%
%TF.SameCoordinates,Original*%
%TF.FileFunction,Paste,Bot*%
%TF.FilePolarity,Positive*%
%FSLAX46Y46*%
G04 Gerber Fmt 4.6, Leading zero omitted, Abs format (unit mm)*
G04 Created by KiCad (PCBNEW 10.0.4-10.0.4~ubuntu24.04.1) date 2026-07-25 11:00:26*
%MOMM*%
%LPD*%
G01*
G04 APERTURE LIST*
G04 Aperture macros list*
%AMRoundRect*
0 Rectangle with rounded corners*
0 $1 Rounding radius*
0 $2 $3 $4 $5 $6 $7 $8 $9 X,Y pos of 4 corners*
0 Add a 4 corners polygon primitive as box body*
4,1,4,$2,$3,$4,$5,$6,$7,$8,$9,$2,$3,0*
0 Add four circle primitives for the rounded corners*
1,1,$1+$1,$2,$3*
1,1,$1+$1,$4,$5*
1,1,$1+$1,$6,$7*
1,1,$1+$1,$8,$9*
0 Add four rect primitives between the rounded corners*
20,1,$1+$1,$2,$3,$4,$5,0*
20,1,$1+$1,$4,$5,$6,$7,0*
20,1,$1+$1,$6,$7,$8,$9,0*
20,1,$1+$1,$8,$9,$2,$3,0*%
G04 Aperture macros list end*
%ADD10RoundRect,0.250000X-1.025000X-1.000000X1.025000X-1.000000X1.025000X1.000000X-1.025000X1.000000X0*%
%ADD11RoundRect,0.225000X-0.225000X-0.375000X0.225000X-0.375000X0.225000X0.375000X-0.225000X0.375000X0*%
G04 APERTURE END LIST*
D10*
%TO.C,SW37*%
X183413200Y-145098600D03*
X196340200Y-142558600D03*
%TD*%
%TO.C,SW49*%
X116739600Y-164148200D03*
X129666600Y-161608200D03*
%TD*%
%TO.C,SW38*%
X202462800Y-145098600D03*
X215389800Y-142558600D03*
%TD*%
%TO.C,SW63*%
X104833600Y-183197800D03*
X117760600Y-180657800D03*
%TD*%
%TO.C,SW44*%
X309616800Y-145098600D03*
X322543800Y-142558600D03*
%TD*%
%TO.C,SW8*%
X188175600Y-106999400D03*
X201102600Y-104459400D03*
%TD*%
%TO.C,SW60*%
X350097200Y-164148200D03*
X363024200Y-161608200D03*
%TD*%
%TO.C,SW31*%
X61972000Y-145098600D03*
X74899000Y-142558600D03*
%TD*%
%TO.C,SW3*%
X92927600Y-106999400D03*
X105854600Y-104459400D03*
%TD*%
%TO.C,SW55*%
X231037200Y-164148200D03*
X243964200Y-161608200D03*
%TD*%
%TO.C,SW59*%
X326285200Y-168910600D03*
X339212200Y-166370600D03*
%TD*%
%TO.C,SW14*%
X312010500Y-107002100D03*
X324937500Y-104462100D03*
%TD*%
%TO.C,SW16*%
X59590800Y-126049000D03*
X72517800Y-123509000D03*
%TD*%
%TO.C,SW17*%
X83402800Y-126049000D03*
X96329800Y-123509000D03*
%TD*%
%TO.C,SW26*%
X254849200Y-126049000D03*
X267776200Y-123509000D03*
%TD*%
%TO.C,SW13*%
X283423600Y-106999400D03*
X296350600Y-104459400D03*
%TD*%
%TO.C,SW32*%
X88165200Y-145098600D03*
X101092200Y-142558600D03*
%TD*%
%TO.C,SW22*%
X178650800Y-126049000D03*
X191577800Y-123509000D03*
%TD*%
%TO.C,SW4*%
X111977200Y-106999400D03*
X124904200Y-104459400D03*
%TD*%
%TO.C,SW72*%
X283423600Y-183197800D03*
X296350600Y-180657800D03*
%TD*%
%TO.C,SW73*%
X307235600Y-187960200D03*
X320162600Y-185420200D03*
%TD*%
%TO.C,SW18*%
X102452400Y-126049000D03*
X115379400Y-123509000D03*
%TD*%
%TO.C,SW33*%
X107214800Y-145098600D03*
X120141800Y-142558600D03*
%TD*%
%TO.C,SW74*%
X326285200Y-187960200D03*
X339212200Y-185420200D03*
%TD*%
%TO.C,SW28*%
X292948400Y-126049000D03*
X305875400Y-123509000D03*
%TD*%
%TO.C,SW56*%
X250086800Y-164148200D03*
X263013800Y-161608200D03*
%TD*%
%TO.C,SW51*%
X154838800Y-164148200D03*
X167765800Y-161608200D03*
%TD*%
%TO.C,SW36*%
X164363600Y-145098600D03*
X177290600Y-142558600D03*
%TD*%
%TO.C,SW1*%
X54828400Y-106999400D03*
X67755400Y-104459400D03*
%TD*%
%TO.C,SW39*%
X221512400Y-145098600D03*
X234439400Y-142558600D03*
%TD*%
%TO.C,SW9*%
X207225200Y-106999400D03*
X220152200Y-104459400D03*
%TD*%
%TO.C,SW11*%
X245324400Y-106999400D03*
X258251400Y-104459400D03*
%TD*%
%TO.C,SW24*%
X216750000Y-126049000D03*
X229677000Y-123509000D03*
%TD*%
%TO.C,SW71*%
X264374000Y-183197800D03*
X277301000Y-180657800D03*
%TD*%
%TO.C,SW12*%
X264374000Y-106999400D03*
X277301000Y-104459400D03*
%TD*%
%TO.C,SW57*%
X269136400Y-164148200D03*
X282063400Y-161608200D03*
%TD*%
%TO.C,SW23*%
X197700400Y-126049000D03*
X210627400Y-123509000D03*
%TD*%
%TO.C,SW48*%
X97690000Y-164148200D03*
X110617000Y-161608200D03*
%TD*%
%TO.C,SW75*%
X345334800Y-187960200D03*
X358261800Y-185420200D03*
%TD*%
%TO.C,SW35*%
X145314000Y-145098600D03*
X158241000Y-142558600D03*
%TD*%
%TO.C,SW21*%
X159601200Y-126049000D03*
X172528200Y-123509000D03*
%TD*%
%TO.C,SW5*%
X131026800Y-106999400D03*
X143953800Y-104459400D03*
%TD*%
%TO.C,SW50*%
X135789200Y-164148200D03*
X148716200Y-161608200D03*
%TD*%
%TO.C,SW61*%
X57209600Y-183197800D03*
X70136600Y-180657800D03*
%TD*%
%TO.C,SW7*%
X169126000Y-106999400D03*
X182053000Y-104459400D03*
%TD*%
%TO.C,SW20*%
X140551600Y-126049000D03*
X153478600Y-123509000D03*
%TD*%
%TO.C,SW62*%
X81021600Y-183197800D03*
X93948600Y-180657800D03*
%TD*%
%TO.C,SW6*%
X150076400Y-106999400D03*
X163003400Y-104459400D03*
%TD*%
%TO.C,SW40*%
X240562000Y-145098600D03*
X253489000Y-142558600D03*
%TD*%
%TO.C,SW10*%
X226274800Y-106999400D03*
X239201800Y-104459400D03*
%TD*%
%TO.C,SW52*%
X173888400Y-164148200D03*
X186815400Y-161608200D03*
%TD*%
%TO.C,SW54*%
X211987600Y-164148200D03*
X224914600Y-161608200D03*
%TD*%
%TO.C,SW53*%
X192938000Y-164148200D03*
X205865000Y-161608200D03*
%TD*%
%TO.C,SW19*%
X121502000Y-126049000D03*
X134429000Y-123509000D03*
%TD*%
%TO.C,SW2*%
X73878000Y-106999400D03*
X86805000Y-104459400D03*
%TD*%
%TO.C,SW34*%
X126264400Y-145098600D03*
X139191400Y-142558600D03*
%TD*%
%TO.C,SW29*%
X316760400Y-126049000D03*
X329687400Y-123509000D03*
%TD*%
%TO.C,SW67*%
X176269600Y-183197800D03*
X189196600Y-180657800D03*
%TD*%
%TO.C,SW25*%
X235799600Y-126049000D03*
X248726600Y-123509000D03*
%TD*%
%TO.C,SW41*%
X259611600Y-145098600D03*
X272538600Y-142558600D03*
%TD*%
%TO.C,SW70*%
X245324400Y-183197800D03*
X258251400Y-180657800D03*
%TD*%
%TO.C,SW42*%
X278661200Y-145098600D03*
X291588200Y-142558600D03*
%TD*%
%TO.C,SW58*%
X295329600Y-164148200D03*
X308256600Y-161608200D03*
%TD*%
%TO.C,SW46*%
X66735300Y-164151000D03*
X79662300Y-161611000D03*
%TD*%
%TO.C,SW27*%
X273898800Y-126049000D03*
X286825800Y-123509000D03*
%TD*%
D11*
%TO.C,D74*%
X331721900Y-195501250D03*
X335021900Y-195501250D03*
%TD*%
%TO.C,D59*%
X331721900Y-176451650D03*
X335021900Y-176451650D03*
%TD*%
%TO.C,D54*%
X217424300Y-171689250D03*
X220724300Y-171689250D03*
%TD*%
%TO.C,D26*%
X260285900Y-133590050D03*
X263585900Y-133590050D03*
%TD*%
%TO.C,D70*%
X250761100Y-190738850D03*
X254061100Y-190738850D03*
%TD*%
%TO.C,D29*%
X322197100Y-133590050D03*
X325497100Y-133590050D03*
%TD*%
%TO.C,D1*%
X60265100Y-114540450D03*
X63565100Y-114540450D03*
%TD*%
%TO.C,D21*%
X165037900Y-133590050D03*
X168337900Y-133590050D03*
%TD*%
%TO.C,D23*%
X203137100Y-133590050D03*
X206437100Y-133590050D03*
%TD*%
%TO.C,D32*%
X93601900Y-152639650D03*
X96901900Y-152639650D03*
%TD*%
%TO.C,D42*%
X284097900Y-152639650D03*
X287397900Y-152639650D03*
%TD*%
%TO.C,D3*%
X98364300Y-114540450D03*
X101664300Y-114540450D03*
%TD*%
%TO.C,D33*%
X112651500Y-152639650D03*
X115951500Y-152639650D03*
%TD*%
%TO.C,D49*%
X122176300Y-171689250D03*
X125476300Y-171689250D03*
%TD*%
%TO.C,D60*%
X355533900Y-171689250D03*
X358833900Y-171689250D03*
%TD*%
%TO.C,D61*%
X62646300Y-190738850D03*
X65946300Y-190738850D03*
%TD*%
%TO.C,D35*%
X150750700Y-152639650D03*
X154050700Y-152639650D03*
%TD*%
%TO.C,D7*%
X174562700Y-114540450D03*
X177862700Y-114540450D03*
%TD*%
%TO.C,D20*%
X145988300Y-133590050D03*
X149288300Y-133590050D03*
%TD*%
%TO.C,D41*%
X265048300Y-152639650D03*
X268348300Y-152639650D03*
%TD*%
%TO.C,D58*%
X300766300Y-171689250D03*
X304066300Y-171689250D03*
%TD*%
%TO.C,D62*%
X86458300Y-190738850D03*
X89758300Y-190738850D03*
%TD*%
%TO.C,D52*%
X179325100Y-171689250D03*
X182625100Y-171689250D03*
%TD*%
%TO.C,D8*%
X193612300Y-114540450D03*
X196912300Y-114540450D03*
%TD*%
%TO.C,D19*%
X126938700Y-133590050D03*
X130238700Y-133590050D03*
%TD*%
%TO.C,D18*%
X107889100Y-133590050D03*
X111189100Y-133590050D03*
%TD*%
%TO.C,D63*%
X110270300Y-190738850D03*
X113570300Y-190738850D03*
%TD*%
%TO.C,D27*%
X279333800Y-133590050D03*
X282633800Y-133590050D03*
%TD*%
%TO.C,D44*%
X315053500Y-152639650D03*
X318353500Y-152639650D03*
%TD*%
%TO.C,D25*%
X241236300Y-133590050D03*
X244536300Y-133590050D03*
%TD*%
%TO.C,D34*%
X131701100Y-152639650D03*
X135001100Y-152639650D03*
%TD*%
%TO.C,D12*%
X269810700Y-114540450D03*
X273110700Y-114540450D03*
%TD*%
%TO.C,D13*%
X288860300Y-114540450D03*
X292160300Y-114540450D03*
%TD*%
%TO.C,D2*%
X79314700Y-114540450D03*
X82614700Y-114540450D03*
%TD*%
%TO.C,D72*%
X288860300Y-190738850D03*
X292160300Y-190738850D03*
%TD*%
%TO.C,D51*%
X160275500Y-171689250D03*
X163575500Y-171689250D03*
%TD*%
%TO.C,D5*%
X136463500Y-114540450D03*
X139763500Y-114540450D03*
%TD*%
%TO.C,D37*%
X188849900Y-152639650D03*
X192149900Y-152639650D03*
%TD*%
%TO.C,D22*%
X184087500Y-133590050D03*
X187387500Y-133590050D03*
%TD*%
%TO.C,D10*%
X231711500Y-114540450D03*
X235011500Y-114540450D03*
%TD*%
%TO.C,D9*%
X212661900Y-114540450D03*
X215961900Y-114540450D03*
%TD*%
%TO.C,D40*%
X245998700Y-152639650D03*
X249298700Y-152639650D03*
%TD*%
%TO.C,D4*%
X117413900Y-114540450D03*
X120713900Y-114540450D03*
%TD*%
%TO.C,D48*%
X103126700Y-171689250D03*
X106426700Y-171689250D03*
%TD*%
%TO.C,D67*%
X181706300Y-190738850D03*
X185006300Y-190738850D03*
%TD*%
%TO.C,D75*%
X350771500Y-195501250D03*
X354071500Y-195501250D03*
%TD*%
%TO.C,D38*%
X207899500Y-152639650D03*
X211199500Y-152639650D03*
%TD*%
%TO.C,D53*%
X198374700Y-171689250D03*
X201674700Y-171689250D03*
%TD*%
%TO.C,D11*%
X250761100Y-114540450D03*
X254061100Y-114540450D03*
%TD*%
%TO.C,D39*%
X226949100Y-152639650D03*
X230249100Y-152639650D03*
%TD*%
%TO.C,D50*%
X141225900Y-171689250D03*
X144525900Y-171689250D03*
%TD*%
%TO.C,D28*%
X298385100Y-133590050D03*
X301685100Y-133590050D03*
%TD*%
%TO.C,D24*%
X222186700Y-133590050D03*
X225486700Y-133590050D03*
%TD*%
%TO.C,D36*%
X169800300Y-152639650D03*
X173100300Y-152639650D03*
%TD*%
%TO.C,D31*%
X67408700Y-152639650D03*
X70708700Y-152639650D03*
%TD*%
%TO.C,D17*%
X88839500Y-133590050D03*
X92139500Y-133590050D03*
%TD*%
%TO.C,D71*%
X269810700Y-190738850D03*
X273110700Y-190738850D03*
%TD*%
%TO.C,D73*%
X312672300Y-195501250D03*
X315972300Y-195501250D03*
%TD*%
%TO.C,D56*%
X255523500Y-171689250D03*
X258823500Y-171689250D03*
%TD*%
%TO.C,D46*%
X72171100Y-171689250D03*
X75471100Y-171689250D03*
%TD*%
%TO.C,D16*%
X65027500Y-133590050D03*
X68327500Y-133590050D03*
%TD*%
%TO.C,D14*%
X317434700Y-114540450D03*
X320734700Y-114540450D03*
%TD*%
%TO.C,D6*%
X155513100Y-114540450D03*
X158813100Y-114540450D03*
%TD*%
%TO.C,D55*%
X236473900Y-171689250D03*
X239773900Y-171689250D03*
%TD*%
%TO.C,D57*%
X274573100Y-171689250D03*
X277873100Y-171689250D03*
%TD*%
M02*
