%TF.GenerationSoftware,KiCad,Pcbnew,10.0.4-10.0.4~ubuntu24.04.1*%
%TF.CreationDate,2026-07-26T15:45:38+02:00*%
%TF.ProjectId,hzk65,687a6b36-352e-46b6-9963-61645f706362,rev?*%
%TF.SameCoordinates,Original*%
%TF.FileFunction,Soldermask,Bot*%
%TF.FilePolarity,Negative*%
%FSLAX46Y46*%
G04 Gerber Fmt 4.6, Leading zero omitted, Abs format (unit mm)*
G04 Created by KiCad (PCBNEW 10.0.4-10.0.4~ubuntu24.04.1) date 2026-07-26 15:45:38*
%MOMM*%
%LPD*%
G01*
G04 APERTURE LIST*
G04 Aperture macros list*
%AMRoundRect*
0 Rectangle with rounded corners*
0 $1 Rounding radius*
0 $2 $3 $4 $5 $6 $7 $8 $9 X,Y pos of 4 corners*
0 Add a 4 corners polygon primitive as box body*
4,1,4,$2,$3,$4,$5,$6,$7,$8,$9,$2,$3,0*
0 Add four circle primitives for the rounded corners*
1,1,$1+$1,$2,$3*
1,1,$1+$1,$4,$5*
1,1,$1+$1,$6,$7*
1,1,$1+$1,$8,$9*
0 Add four rect primitives between the rounded corners*
20,1,$1+$1,$2,$3,$4,$5,0*
20,1,$1+$1,$4,$5,$6,$7,0*
20,1,$1+$1,$6,$7,$8,$9,0*
20,1,$1+$1,$8,$9,$2,$3,0*%
%AMFreePoly0*
4,1,37,0.603843,0.796157,0.639018,0.796157,0.711114,0.766294,0.766294,0.711114,0.796157,0.639018,0.796157,0.603843,0.800000,0.600000,0.800000,-0.600000,0.796157,-0.603843,0.796157,-0.639018,0.766294,-0.711114,0.711114,-0.766294,0.639018,-0.796157,0.603843,-0.796157,0.600000,-0.800000,0.000000,-0.800000,0.000000,-0.796148,-0.078414,-0.796148,-0.232228,-0.765552,-0.377117,-0.705537,
-0.507515,-0.618408,-0.618408,-0.507515,-0.705537,-0.377117,-0.765552,-0.232228,-0.796148,-0.078414,-0.796148,0.078414,-0.765552,0.232228,-0.705537,0.377117,-0.618408,0.507515,-0.507515,0.618408,-0.377117,0.705537,-0.232228,0.765552,-0.078414,0.796148,0.000000,0.796148,0.000000,0.800000,0.600000,0.800000,0.603843,0.796157,0.603843,0.796157,$1*%
%AMFreePoly1*
4,1,37,0.000000,0.796148,0.078414,0.796148,0.232228,0.765552,0.377117,0.705537,0.507515,0.618408,0.618408,0.507515,0.705537,0.377117,0.765552,0.232228,0.796148,0.078414,0.796148,-0.078414,0.765552,-0.232228,0.705537,-0.377117,0.618408,-0.507515,0.507515,-0.618408,0.377117,-0.705537,0.232228,-0.765552,0.078414,-0.796148,0.000000,-0.796148,0.000000,-0.800000,-0.600000,-0.800000,
-0.603843,-0.796157,-0.639018,-0.796157,-0.711114,-0.766294,-0.766294,-0.711114,-0.796157,-0.639018,-0.796157,-0.603843,-0.800000,-0.600000,-0.800000,0.600000,-0.796157,0.603843,-0.796157,0.639018,-0.766294,0.711114,-0.711114,0.766294,-0.639018,0.796157,-0.603843,0.796157,-0.600000,0.800000,0.000000,0.800000,0.000000,0.796148,0.000000,0.796148,$1*%
G04 Aperture macros list end*
%ADD10C,1.750000*%
%ADD11C,3.050000*%
%ADD12C,4.000000*%
%ADD13RoundRect,0.250000X-1.025000X-1.000000X1.025000X-1.000000X1.025000X1.000000X-1.025000X1.000000X0*%
%ADD14C,3.048000*%
%ADD15C,3.987800*%
%ADD16RoundRect,0.200000X-0.600000X-0.600000X0.600000X-0.600000X0.600000X0.600000X-0.600000X0.600000X0*%
%ADD17C,1.600000*%
%ADD18FreePoly0,0.000000*%
%ADD19FreePoly1,0.000000*%
%ADD20RoundRect,0.225000X-0.225000X-0.375000X0.225000X-0.375000X0.225000X0.375000X-0.225000X0.375000X0*%
G04 APERTURE END LIST*
D10*
%TO.C,SW37*%
X185734000Y-147456741D03*
D11*
X187004000Y-144916741D03*
D12*
X190814000Y-147456741D03*
D11*
X193354000Y-142376741D03*
D10*
X195894000Y-147456741D03*
D13*
X183729000Y-144916741D03*
X196656000Y-142376741D03*
%TD*%
D10*
%TO.C,SW49*%
X119060400Y-166506341D03*
D11*
X120330400Y-163966341D03*
D12*
X124140400Y-166506341D03*
D11*
X126680400Y-161426341D03*
D10*
X129220400Y-166506341D03*
D13*
X117055400Y-163966341D03*
X129982400Y-161426341D03*
%TD*%
D10*
%TO.C,SW38*%
X204783600Y-147456741D03*
D11*
X206053600Y-144916741D03*
D12*
X209863600Y-147456741D03*
D11*
X212403600Y-142376741D03*
D10*
X214943600Y-147456741D03*
D13*
X202778600Y-144916741D03*
X215705600Y-142376741D03*
%TD*%
D10*
%TO.C,SW63*%
X107154400Y-185555941D03*
D11*
X108424400Y-183015941D03*
D12*
X112234400Y-185555941D03*
D11*
X114774400Y-180475941D03*
D10*
X117314400Y-185555941D03*
D13*
X105149400Y-183015941D03*
X118076400Y-180475941D03*
%TD*%
D10*
%TO.C,SW44*%
X311937600Y-147456741D03*
D11*
X313207600Y-144916741D03*
D12*
X317017600Y-147456741D03*
D11*
X319557600Y-142376741D03*
D10*
X322097600Y-147456741D03*
D13*
X309932600Y-144916741D03*
X322859600Y-142376741D03*
%TD*%
D10*
%TO.C,SW8*%
X190496400Y-109357541D03*
D11*
X191766400Y-106817541D03*
D12*
X195576400Y-109357541D03*
D11*
X198116400Y-104277541D03*
D10*
X200656400Y-109357541D03*
D13*
X188491400Y-106817541D03*
X201418400Y-104277541D03*
%TD*%
D10*
%TO.C,SW60*%
X352418000Y-166506341D03*
D11*
X353688000Y-163966341D03*
D12*
X357498000Y-166506341D03*
D11*
X360038000Y-161426341D03*
D10*
X362578000Y-166506341D03*
D13*
X350413000Y-163966341D03*
X363340000Y-161426341D03*
%TD*%
D10*
%TO.C,SW31*%
X64292800Y-147456741D03*
D11*
X65562800Y-144916741D03*
D12*
X69372800Y-147456741D03*
D11*
X71912800Y-142376741D03*
D10*
X74452800Y-147456741D03*
D13*
X62287800Y-144916741D03*
X75214800Y-142376741D03*
%TD*%
D14*
%TO.C,H44*%
X305079600Y-140471741D03*
D15*
X305079600Y-155681741D03*
D14*
X328955600Y-140471741D03*
D15*
X328955600Y-155681741D03*
%TD*%
D10*
%TO.C,SW3*%
X95248400Y-109357541D03*
D11*
X96518400Y-106817541D03*
D12*
X100328400Y-109357541D03*
D11*
X102868400Y-104277541D03*
D10*
X105408400Y-109357541D03*
D13*
X93243400Y-106817541D03*
X106170400Y-104277541D03*
%TD*%
D10*
%TO.C,SW55*%
X233358000Y-166506341D03*
D11*
X234628000Y-163966341D03*
D12*
X238438000Y-166506341D03*
D11*
X240978000Y-161426341D03*
D10*
X243518000Y-166506341D03*
D13*
X231353000Y-163966341D03*
X244280000Y-161426341D03*
%TD*%
D10*
%TO.C,SW59*%
X328606000Y-171268741D03*
D11*
X329876000Y-168728741D03*
D12*
X333686000Y-171268741D03*
D11*
X336226000Y-166188741D03*
D10*
X338766000Y-171268741D03*
D13*
X326601000Y-168728741D03*
X339528000Y-166188741D03*
%TD*%
D10*
%TO.C,SW14*%
X314331300Y-109360241D03*
D11*
X315601300Y-106820241D03*
D12*
X319411300Y-109360241D03*
D11*
X321951300Y-104280241D03*
D10*
X324491300Y-109360241D03*
D13*
X312326300Y-106820241D03*
X325253300Y-104280241D03*
%TD*%
D10*
%TO.C,SW16*%
X61911600Y-128407141D03*
D11*
X63181600Y-125867141D03*
D12*
X66991600Y-128407141D03*
D11*
X69531600Y-123327141D03*
D10*
X72071600Y-128407141D03*
D13*
X59906600Y-125867141D03*
X72833600Y-123327141D03*
%TD*%
D10*
%TO.C,SW17*%
X85723600Y-128407141D03*
D11*
X86993600Y-125867141D03*
D12*
X90803600Y-128407141D03*
D11*
X93343600Y-123327141D03*
D10*
X95883600Y-128407141D03*
D13*
X83718600Y-125867141D03*
X96645600Y-123327141D03*
%TD*%
D10*
%TO.C,SW26*%
X257170000Y-128407141D03*
D11*
X258440000Y-125867141D03*
D12*
X262250000Y-128407141D03*
D11*
X264790000Y-123327141D03*
D10*
X267330000Y-128407141D03*
D13*
X255165000Y-125867141D03*
X268092000Y-123327141D03*
%TD*%
D10*
%TO.C,SW13*%
X285744400Y-109357541D03*
D11*
X287014400Y-106817541D03*
D12*
X290824400Y-109357541D03*
D11*
X293364400Y-104277541D03*
D10*
X295904400Y-109357541D03*
D13*
X283739400Y-106817541D03*
X296666400Y-104277541D03*
%TD*%
D10*
%TO.C,SW32*%
X90486000Y-147456741D03*
D11*
X91756000Y-144916741D03*
D12*
X95566000Y-147456741D03*
D11*
X98106000Y-142376741D03*
D10*
X100646000Y-147456741D03*
D13*
X88481000Y-144916741D03*
X101408000Y-142376741D03*
%TD*%
D10*
%TO.C,SW22*%
X180971600Y-128407141D03*
D11*
X182241600Y-125867141D03*
D12*
X186051600Y-128407141D03*
D11*
X188591600Y-123327141D03*
D10*
X191131600Y-128407141D03*
D13*
X178966600Y-125867141D03*
X191893600Y-123327141D03*
%TD*%
D10*
%TO.C,SW4*%
X114298000Y-109357541D03*
D11*
X115568000Y-106817541D03*
D12*
X119378000Y-109357541D03*
D11*
X121918000Y-104277541D03*
D10*
X124458000Y-109357541D03*
D13*
X112293000Y-106817541D03*
X125220000Y-104277541D03*
%TD*%
D10*
%TO.C,SW72*%
X285744400Y-185555941D03*
D11*
X287014400Y-183015941D03*
D12*
X290824400Y-185555941D03*
D11*
X293364400Y-180475941D03*
D10*
X295904400Y-185555941D03*
D13*
X283739400Y-183015941D03*
X296666400Y-180475941D03*
%TD*%
D10*
%TO.C,SW73*%
X309556400Y-190318341D03*
D11*
X310826400Y-187778341D03*
D12*
X314636400Y-190318341D03*
D11*
X317176400Y-185238341D03*
D10*
X319716400Y-190318341D03*
D13*
X307551400Y-187778341D03*
X320478400Y-185238341D03*
%TD*%
D10*
%TO.C,SW18*%
X104773200Y-128407141D03*
D11*
X106043200Y-125867141D03*
D12*
X109853200Y-128407141D03*
D11*
X112393200Y-123327141D03*
D10*
X114933200Y-128407141D03*
D13*
X102768200Y-125867141D03*
X115695200Y-123327141D03*
%TD*%
D10*
%TO.C,SW33*%
X109535600Y-147456741D03*
D11*
X110805600Y-144916741D03*
D12*
X114615600Y-147456741D03*
D11*
X117155600Y-142376741D03*
D10*
X119695600Y-147456741D03*
D13*
X107530600Y-144916741D03*
X120457600Y-142376741D03*
%TD*%
D16*
%TO.C,A1*%
X346238200Y-101898391D03*
D17*
X346238200Y-104438391D03*
D18*
X346238200Y-106978391D03*
D17*
X346238200Y-109518391D03*
X346238200Y-112058391D03*
X346238200Y-114598391D03*
X346238200Y-117138391D03*
D18*
X346238200Y-119678391D03*
D17*
X346238200Y-122218391D03*
X346238200Y-124758391D03*
X346238200Y-127298391D03*
X346238200Y-129838391D03*
D18*
X346238200Y-132378391D03*
D17*
X346238200Y-134918391D03*
X346238200Y-137458391D03*
X346238200Y-139998391D03*
X346238200Y-142538391D03*
D18*
X346238200Y-145078391D03*
D17*
X346238200Y-147618391D03*
X346238200Y-150158391D03*
X364018200Y-150158391D03*
X364018200Y-147618391D03*
D19*
X364018200Y-145078391D03*
D17*
X364018200Y-142538391D03*
X364018200Y-139998391D03*
X364018200Y-137458391D03*
X364018200Y-134918391D03*
D19*
X364018200Y-132378391D03*
D17*
X364018200Y-129838391D03*
X364018200Y-127298391D03*
X364018200Y-124758391D03*
X364018200Y-122218391D03*
D19*
X364018200Y-119678391D03*
D17*
X364018200Y-117138391D03*
X364018200Y-114598391D03*
X364018200Y-112058391D03*
X364018200Y-109518391D03*
D19*
X364018200Y-106978391D03*
D17*
X364018200Y-104438391D03*
X364018200Y-101898391D03*
%TD*%
D10*
%TO.C,SW74*%
X328606000Y-190318341D03*
D11*
X329876000Y-187778341D03*
D12*
X333686000Y-190318341D03*
D11*
X336226000Y-185238341D03*
D10*
X338766000Y-190318341D03*
D13*
X326601000Y-187778341D03*
X339528000Y-185238341D03*
%TD*%
D10*
%TO.C,SW28*%
X295269200Y-128407141D03*
D11*
X296539200Y-125867141D03*
D12*
X300349200Y-128407141D03*
D11*
X302889200Y-123327141D03*
D10*
X305429200Y-128407141D03*
D13*
X293264200Y-125867141D03*
X306191200Y-123327141D03*
%TD*%
D14*
%TO.C,H46*%
X62198100Y-159524141D03*
D15*
X62198100Y-174734141D03*
D14*
X86074100Y-159524141D03*
D15*
X86074100Y-174734141D03*
%TD*%
D10*
%TO.C,SW56*%
X252407600Y-166506341D03*
D11*
X253677600Y-163966341D03*
D12*
X257487600Y-166506341D03*
D11*
X260027600Y-161426341D03*
D10*
X262567600Y-166506341D03*
D13*
X250402600Y-163966341D03*
X263329600Y-161426341D03*
%TD*%
D10*
%TO.C,SW51*%
X157159600Y-166506341D03*
D11*
X158429600Y-163966341D03*
D12*
X162239600Y-166506341D03*
D11*
X164779600Y-161426341D03*
D10*
X167319600Y-166506341D03*
D13*
X155154600Y-163966341D03*
X168081600Y-161426341D03*
%TD*%
D10*
%TO.C,SW36*%
X166684400Y-147456741D03*
D11*
X167954400Y-144916741D03*
D12*
X171764400Y-147456741D03*
D11*
X174304400Y-142376741D03*
D10*
X176844400Y-147456741D03*
D13*
X164679400Y-144916741D03*
X177606400Y-142376741D03*
%TD*%
D10*
%TO.C,SW1*%
X57149200Y-109357541D03*
D11*
X58419200Y-106817541D03*
D12*
X62229200Y-109357541D03*
D11*
X64769200Y-104277541D03*
D10*
X67309200Y-109357541D03*
D13*
X55144200Y-106817541D03*
X68071200Y-104277541D03*
%TD*%
D14*
%TO.C,H14*%
X307473300Y-102375241D03*
D15*
X307473300Y-117585241D03*
D14*
X331349300Y-102375241D03*
D15*
X331349300Y-117585241D03*
%TD*%
D10*
%TO.C,SW39*%
X223833200Y-147456741D03*
D11*
X225103200Y-144916741D03*
D12*
X228913200Y-147456741D03*
D11*
X231453200Y-142376741D03*
D10*
X233993200Y-147456741D03*
D13*
X221828200Y-144916741D03*
X234755200Y-142376741D03*
%TD*%
D10*
%TO.C,SW9*%
X209546000Y-109357541D03*
D11*
X210816000Y-106817541D03*
D12*
X214626000Y-109357541D03*
D11*
X217166000Y-104277541D03*
D10*
X219706000Y-109357541D03*
D13*
X207541000Y-106817541D03*
X220468000Y-104277541D03*
%TD*%
D10*
%TO.C,SW11*%
X247645200Y-109357541D03*
D11*
X248915200Y-106817541D03*
D12*
X252725200Y-109357541D03*
D11*
X255265200Y-104277541D03*
D10*
X257805200Y-109357541D03*
D13*
X245640200Y-106817541D03*
X258567200Y-104277541D03*
%TD*%
D10*
%TO.C,SW24*%
X219070800Y-128407141D03*
D11*
X220340800Y-125867141D03*
D12*
X224150800Y-128407141D03*
D11*
X226690800Y-123327141D03*
D10*
X229230800Y-128407141D03*
D13*
X217065800Y-125867141D03*
X229992800Y-123327141D03*
%TD*%
D10*
%TO.C,SW71*%
X266694800Y-185555941D03*
D11*
X267964800Y-183015941D03*
D12*
X271774800Y-185555941D03*
D11*
X274314800Y-180475941D03*
D10*
X276854800Y-185555941D03*
D13*
X264689800Y-183015941D03*
X277616800Y-180475941D03*
%TD*%
D10*
%TO.C,SW12*%
X266694800Y-109357541D03*
D11*
X267964800Y-106817541D03*
D12*
X271774800Y-109357541D03*
D11*
X274314800Y-104277541D03*
D10*
X276854800Y-109357541D03*
D13*
X264689800Y-106817541D03*
X277616800Y-104277541D03*
%TD*%
D10*
%TO.C,SW57*%
X271457200Y-166506341D03*
D11*
X272727200Y-163966341D03*
D12*
X276537200Y-166506341D03*
D11*
X279077200Y-161426341D03*
D10*
X281617200Y-166506341D03*
D13*
X269452200Y-163966341D03*
X282379200Y-161426341D03*
%TD*%
D10*
%TO.C,SW23*%
X200021200Y-128407141D03*
D11*
X201291200Y-125867141D03*
D12*
X205101200Y-128407141D03*
D11*
X207641200Y-123327141D03*
D10*
X210181200Y-128407141D03*
D13*
X198016200Y-125867141D03*
X210943200Y-123327141D03*
%TD*%
D10*
%TO.C,SW48*%
X100010800Y-166506341D03*
D11*
X101280800Y-163966341D03*
D12*
X105090800Y-166506341D03*
D11*
X107630800Y-161426341D03*
D10*
X110170800Y-166506341D03*
D13*
X98005800Y-163966341D03*
X110932800Y-161426341D03*
%TD*%
D10*
%TO.C,SW75*%
X347655600Y-190318341D03*
D11*
X348925600Y-187778341D03*
D12*
X352735600Y-190318341D03*
D11*
X355275600Y-185238341D03*
D10*
X357815600Y-190318341D03*
D13*
X345650600Y-187778341D03*
X358577600Y-185238341D03*
%TD*%
D10*
%TO.C,SW35*%
X147634800Y-147456741D03*
D11*
X148904800Y-144916741D03*
D12*
X152714800Y-147456741D03*
D11*
X155254800Y-142376741D03*
D10*
X157794800Y-147456741D03*
D13*
X145629800Y-144916741D03*
X158556800Y-142376741D03*
%TD*%
D14*
%TO.C,H67*%
X233670400Y-192540941D03*
D15*
X233670400Y-177330941D03*
D14*
X133670400Y-192540941D03*
D15*
X133670400Y-177330941D03*
%TD*%
D10*
%TO.C,SW21*%
X161922000Y-128407141D03*
D11*
X163192000Y-125867141D03*
D12*
X167002000Y-128407141D03*
D11*
X169542000Y-123327141D03*
D10*
X172082000Y-128407141D03*
D13*
X159917000Y-125867141D03*
X172844000Y-123327141D03*
%TD*%
D10*
%TO.C,SW5*%
X133347600Y-109357541D03*
D11*
X134617600Y-106817541D03*
D12*
X138427600Y-109357541D03*
D11*
X140967600Y-104277541D03*
D10*
X143507600Y-109357541D03*
D13*
X131342600Y-106817541D03*
X144269600Y-104277541D03*
%TD*%
D10*
%TO.C,SW50*%
X138110000Y-166506341D03*
D11*
X139380000Y-163966341D03*
D12*
X143190000Y-166506341D03*
D11*
X145730000Y-161426341D03*
D10*
X148270000Y-166506341D03*
D13*
X136105000Y-163966341D03*
X149032000Y-161426341D03*
%TD*%
D10*
%TO.C,SW61*%
X59530400Y-185555941D03*
D11*
X60800400Y-183015941D03*
D12*
X64610400Y-185555941D03*
D11*
X67150400Y-180475941D03*
D10*
X69690400Y-185555941D03*
D13*
X57525400Y-183015941D03*
X70452400Y-180475941D03*
%TD*%
D10*
%TO.C,SW7*%
X171446800Y-109357541D03*
D11*
X172716800Y-106817541D03*
D12*
X176526800Y-109357541D03*
D11*
X179066800Y-104277541D03*
D10*
X181606800Y-109357541D03*
D13*
X169441800Y-106817541D03*
X182368800Y-104277541D03*
%TD*%
D10*
%TO.C,SW20*%
X142872400Y-128407141D03*
D11*
X144142400Y-125867141D03*
D12*
X147952400Y-128407141D03*
D11*
X150492400Y-123327141D03*
D10*
X153032400Y-128407141D03*
D13*
X140867400Y-125867141D03*
X153794400Y-123327141D03*
%TD*%
D10*
%TO.C,SW62*%
X83342400Y-185555941D03*
D11*
X84612400Y-183015941D03*
D12*
X88422400Y-185555941D03*
D11*
X90962400Y-180475941D03*
D10*
X93502400Y-185555941D03*
D13*
X81337400Y-183015941D03*
X94264400Y-180475941D03*
%TD*%
D10*
%TO.C,SW6*%
X152397200Y-109357541D03*
D11*
X153667200Y-106817541D03*
D12*
X157477200Y-109357541D03*
D11*
X160017200Y-104277541D03*
D10*
X162557200Y-109357541D03*
D13*
X150392200Y-106817541D03*
X163319200Y-104277541D03*
%TD*%
D10*
%TO.C,SW40*%
X242882800Y-147456741D03*
D11*
X244152800Y-144916741D03*
D12*
X247962800Y-147456741D03*
D11*
X250502800Y-142376741D03*
D10*
X253042800Y-147456741D03*
D13*
X240877800Y-144916741D03*
X253804800Y-142376741D03*
%TD*%
D10*
%TO.C,SW10*%
X228595600Y-109357541D03*
D11*
X229865600Y-106817541D03*
D12*
X233675600Y-109357541D03*
D11*
X236215600Y-104277541D03*
D10*
X238755600Y-109357541D03*
D13*
X226590600Y-106817541D03*
X239517600Y-104277541D03*
%TD*%
D10*
%TO.C,SW52*%
X176209200Y-166506341D03*
D11*
X177479200Y-163966341D03*
D12*
X181289200Y-166506341D03*
D11*
X183829200Y-161426341D03*
D10*
X186369200Y-166506341D03*
D13*
X174204200Y-163966341D03*
X187131200Y-161426341D03*
%TD*%
D10*
%TO.C,SW54*%
X214308400Y-166506341D03*
D11*
X215578400Y-163966341D03*
D12*
X219388400Y-166506341D03*
D11*
X221928400Y-161426341D03*
D10*
X224468400Y-166506341D03*
D13*
X212303400Y-163966341D03*
X225230400Y-161426341D03*
%TD*%
D10*
%TO.C,SW53*%
X195258800Y-166506341D03*
D11*
X196528800Y-163966341D03*
D12*
X200338800Y-166506341D03*
D11*
X202878800Y-161426341D03*
D10*
X205418800Y-166506341D03*
D13*
X193253800Y-163966341D03*
X206180800Y-161426341D03*
%TD*%
D10*
%TO.C,SW19*%
X123822800Y-128407141D03*
D11*
X125092800Y-125867141D03*
D12*
X128902800Y-128407141D03*
D11*
X131442800Y-123327141D03*
D10*
X133982800Y-128407141D03*
D13*
X121817800Y-125867141D03*
X134744800Y-123327141D03*
%TD*%
D10*
%TO.C,SW2*%
X76198800Y-109357541D03*
D11*
X77468800Y-106817541D03*
D12*
X81278800Y-109357541D03*
D11*
X83818800Y-104277541D03*
D10*
X86358800Y-109357541D03*
D13*
X74193800Y-106817541D03*
X87120800Y-104277541D03*
%TD*%
D10*
%TO.C,SW34*%
X128585200Y-147456741D03*
D11*
X129855200Y-144916741D03*
D12*
X133665200Y-147456741D03*
D11*
X136205200Y-142376741D03*
D10*
X138745200Y-147456741D03*
D13*
X126580200Y-144916741D03*
X139507200Y-142376741D03*
%TD*%
D10*
%TO.C,SW29*%
X319081200Y-128407141D03*
D11*
X320351200Y-125867141D03*
D12*
X324161200Y-128407141D03*
D11*
X326701200Y-123327141D03*
D10*
X329241200Y-128407141D03*
D13*
X317076200Y-125867141D03*
X330003200Y-123327141D03*
%TD*%
D10*
%TO.C,SW67*%
X178590400Y-185555941D03*
D11*
X179860400Y-183015941D03*
D12*
X183670400Y-185555941D03*
D11*
X186210400Y-180475941D03*
D10*
X188750400Y-185555941D03*
D13*
X176585400Y-183015941D03*
X189512400Y-180475941D03*
%TD*%
D10*
%TO.C,SW25*%
X238120400Y-128407141D03*
D11*
X239390400Y-125867141D03*
D12*
X243200400Y-128407141D03*
D11*
X245740400Y-123327141D03*
D10*
X248280400Y-128407141D03*
D13*
X236115400Y-125867141D03*
X249042400Y-123327141D03*
%TD*%
D10*
%TO.C,SW41*%
X261932400Y-147456741D03*
D11*
X263202400Y-144916741D03*
D12*
X267012400Y-147456741D03*
D11*
X269552400Y-142376741D03*
D10*
X272092400Y-147456741D03*
D13*
X259927400Y-144916741D03*
X272854400Y-142376741D03*
%TD*%
D10*
%TO.C,SW70*%
X247645200Y-185555941D03*
D11*
X248915200Y-183015941D03*
D12*
X252725200Y-185555941D03*
D11*
X255265200Y-180475941D03*
D10*
X257805200Y-185555941D03*
D13*
X245640200Y-183015941D03*
X258567200Y-180475941D03*
%TD*%
D10*
%TO.C,SW42*%
X280982000Y-147456741D03*
D11*
X282252000Y-144916741D03*
D12*
X286062000Y-147456741D03*
D11*
X288602000Y-142376741D03*
D10*
X291142000Y-147456741D03*
D13*
X278977000Y-144916741D03*
X291904000Y-142376741D03*
%TD*%
D10*
%TO.C,SW58*%
X297650400Y-166506341D03*
D11*
X298920400Y-163966341D03*
D12*
X302730400Y-166506341D03*
D11*
X305270400Y-161426341D03*
D10*
X307810400Y-166506341D03*
D13*
X295645400Y-163966341D03*
X308572400Y-161426341D03*
%TD*%
D10*
%TO.C,SW46*%
X69056100Y-166509141D03*
D11*
X70326100Y-163969141D03*
D12*
X74136100Y-166509141D03*
D11*
X76676100Y-161429141D03*
D10*
X79216100Y-166509141D03*
D13*
X67051100Y-163969141D03*
X79978100Y-161429141D03*
%TD*%
D10*
%TO.C,SW27*%
X276219600Y-128407141D03*
D11*
X277489600Y-125867141D03*
D12*
X281299600Y-128407141D03*
D11*
X283839600Y-123327141D03*
D10*
X286379600Y-128407141D03*
D13*
X274214600Y-125867141D03*
X287141600Y-123327141D03*
%TD*%
D20*
%TO.C,D74*%
X332037700Y-195319391D03*
X335337700Y-195319391D03*
%TD*%
%TO.C,D59*%
X332037700Y-176269791D03*
X335337700Y-176269791D03*
%TD*%
%TO.C,D54*%
X217740100Y-171507391D03*
X221040100Y-171507391D03*
%TD*%
%TO.C,D26*%
X260601700Y-133408191D03*
X263901700Y-133408191D03*
%TD*%
%TO.C,D70*%
X251076900Y-190556991D03*
X254376900Y-190556991D03*
%TD*%
%TO.C,D29*%
X322512900Y-133408191D03*
X325812900Y-133408191D03*
%TD*%
%TO.C,D1*%
X60580900Y-114358591D03*
X63880900Y-114358591D03*
%TD*%
%TO.C,D21*%
X165353700Y-133408191D03*
X168653700Y-133408191D03*
%TD*%
%TO.C,D23*%
X203452900Y-133408191D03*
X206752900Y-133408191D03*
%TD*%
%TO.C,D32*%
X93917700Y-152457791D03*
X97217700Y-152457791D03*
%TD*%
%TO.C,D42*%
X284413700Y-152457791D03*
X287713700Y-152457791D03*
%TD*%
%TO.C,D3*%
X98680100Y-114358591D03*
X101980100Y-114358591D03*
%TD*%
%TO.C,D33*%
X112967300Y-152457791D03*
X116267300Y-152457791D03*
%TD*%
%TO.C,D49*%
X122492100Y-171507391D03*
X125792100Y-171507391D03*
%TD*%
%TO.C,D60*%
X355849700Y-171507391D03*
X359149700Y-171507391D03*
%TD*%
%TO.C,D61*%
X62962100Y-190556991D03*
X66262100Y-190556991D03*
%TD*%
%TO.C,D35*%
X151066500Y-152457791D03*
X154366500Y-152457791D03*
%TD*%
%TO.C,D7*%
X174878500Y-114358591D03*
X178178500Y-114358591D03*
%TD*%
%TO.C,D20*%
X146304100Y-133408191D03*
X149604100Y-133408191D03*
%TD*%
%TO.C,D41*%
X265364100Y-152457791D03*
X268664100Y-152457791D03*
%TD*%
%TO.C,D58*%
X301082100Y-171507391D03*
X304382100Y-171507391D03*
%TD*%
%TO.C,D62*%
X86774100Y-190556991D03*
X90074100Y-190556991D03*
%TD*%
%TO.C,D52*%
X179640900Y-171507391D03*
X182940900Y-171507391D03*
%TD*%
%TO.C,D8*%
X193928100Y-114358591D03*
X197228100Y-114358591D03*
%TD*%
%TO.C,D19*%
X127254500Y-133408191D03*
X130554500Y-133408191D03*
%TD*%
%TO.C,D18*%
X108204900Y-133408191D03*
X111504900Y-133408191D03*
%TD*%
%TO.C,D63*%
X110586100Y-190556991D03*
X113886100Y-190556991D03*
%TD*%
%TO.C,D27*%
X279649600Y-133408191D03*
X282949600Y-133408191D03*
%TD*%
%TO.C,D44*%
X315369300Y-152457791D03*
X318669300Y-152457791D03*
%TD*%
%TO.C,D25*%
X241552100Y-133408191D03*
X244852100Y-133408191D03*
%TD*%
%TO.C,D34*%
X132016900Y-152457791D03*
X135316900Y-152457791D03*
%TD*%
%TO.C,D12*%
X270126500Y-114358591D03*
X273426500Y-114358591D03*
%TD*%
%TO.C,D13*%
X289176100Y-114358591D03*
X292476100Y-114358591D03*
%TD*%
%TO.C,D2*%
X79630500Y-114358591D03*
X82930500Y-114358591D03*
%TD*%
%TO.C,D72*%
X289176100Y-190556991D03*
X292476100Y-190556991D03*
%TD*%
%TO.C,D51*%
X160591300Y-171507391D03*
X163891300Y-171507391D03*
%TD*%
%TO.C,D5*%
X136779300Y-114358591D03*
X140079300Y-114358591D03*
%TD*%
%TO.C,D37*%
X189165700Y-152457791D03*
X192465700Y-152457791D03*
%TD*%
%TO.C,D22*%
X184403300Y-133408191D03*
X187703300Y-133408191D03*
%TD*%
%TO.C,D10*%
X232027300Y-114358591D03*
X235327300Y-114358591D03*
%TD*%
%TO.C,D9*%
X212977700Y-114358591D03*
X216277700Y-114358591D03*
%TD*%
%TO.C,D40*%
X246314500Y-152457791D03*
X249614500Y-152457791D03*
%TD*%
%TO.C,D4*%
X117729700Y-114358591D03*
X121029700Y-114358591D03*
%TD*%
%TO.C,D48*%
X103442500Y-171507391D03*
X106742500Y-171507391D03*
%TD*%
%TO.C,D67*%
X182022100Y-190556991D03*
X185322100Y-190556991D03*
%TD*%
%TO.C,D75*%
X351087300Y-195319391D03*
X354387300Y-195319391D03*
%TD*%
%TO.C,D38*%
X208215300Y-152457791D03*
X211515300Y-152457791D03*
%TD*%
%TO.C,D53*%
X198690500Y-171507391D03*
X201990500Y-171507391D03*
%TD*%
%TO.C,D11*%
X251076900Y-114358591D03*
X254376900Y-114358591D03*
%TD*%
%TO.C,D39*%
X227264900Y-152457791D03*
X230564900Y-152457791D03*
%TD*%
%TO.C,D50*%
X141541700Y-171507391D03*
X144841700Y-171507391D03*
%TD*%
%TO.C,D28*%
X298700900Y-133408191D03*
X302000900Y-133408191D03*
%TD*%
%TO.C,D24*%
X222502500Y-133408191D03*
X225802500Y-133408191D03*
%TD*%
%TO.C,D36*%
X170116100Y-152457791D03*
X173416100Y-152457791D03*
%TD*%
%TO.C,D31*%
X67724500Y-152457791D03*
X71024500Y-152457791D03*
%TD*%
%TO.C,D17*%
X89155300Y-133408191D03*
X92455300Y-133408191D03*
%TD*%
%TO.C,D71*%
X270126500Y-190556991D03*
X273426500Y-190556991D03*
%TD*%
%TO.C,D73*%
X312988100Y-195319391D03*
X316288100Y-195319391D03*
%TD*%
%TO.C,D56*%
X255839300Y-171507391D03*
X259139300Y-171507391D03*
%TD*%
%TO.C,D46*%
X72486900Y-171507391D03*
X75786900Y-171507391D03*
%TD*%
%TO.C,D16*%
X65343300Y-133408191D03*
X68643300Y-133408191D03*
%TD*%
%TO.C,D14*%
X317750500Y-114358591D03*
X321050500Y-114358591D03*
%TD*%
%TO.C,D6*%
X155828900Y-114358591D03*
X159128900Y-114358591D03*
%TD*%
%TO.C,D55*%
X236789700Y-171507391D03*
X240089700Y-171507391D03*
%TD*%
%TO.C,D57*%
X274888900Y-171507391D03*
X278188900Y-171507391D03*
%TD*%
M02*
