%TF.GenerationSoftware,KiCad,Pcbnew,10.0.4-10.0.4~ubuntu24.04.1*%
%TF.CreationDate,2026-07-11T11:19:17+02:00*%
%TF.ProjectId,hzk65_bottom,687a6b36-355f-4626-9f74-746f6d2e6b69,rev?*%
%TF.SameCoordinates,Original*%
%TF.FileFunction,Copper,L2,Bot*%
%TF.FilePolarity,Positive*%
%FSLAX46Y46*%
G04 Gerber Fmt 4.6, Leading zero omitted, Abs format (unit mm)*
G04 Created by KiCad (PCBNEW 10.0.4-10.0.4~ubuntu24.04.1) date 2026-07-11 11:19:17*
%MOMM*%
%LPD*%
G01*
G04 APERTURE LIST*
G04 APERTURE END LIST*
%TA.AperFunction,NonConductor*%
G36*
X369092096Y-95752866D02*
G01*
X369325414Y-95768163D01*
X369341494Y-95770280D01*
X369566839Y-95815108D01*
X369582508Y-95819306D01*
X369800039Y-95893151D01*
X369800072Y-95893162D01*
X369815055Y-95899368D01*
X370021128Y-96000994D01*
X370035166Y-96009100D01*
X370226208Y-96136752D01*
X370239073Y-96146623D01*
X370411815Y-96298115D01*
X370423284Y-96309584D01*
X370574776Y-96482326D01*
X370584650Y-96495194D01*
X370712297Y-96686229D01*
X370720407Y-96700275D01*
X370822030Y-96906342D01*
X370828237Y-96921327D01*
X370902093Y-97138893D01*
X370906291Y-97154560D01*
X370951119Y-97379905D01*
X370953236Y-97395985D01*
X370968534Y-97629302D01*
X370968800Y-97637415D01*
X370968800Y-202401984D01*
X370968534Y-202410093D01*
X370968534Y-202410097D01*
X370953236Y-202643414D01*
X370951119Y-202659494D01*
X370906291Y-202884839D01*
X370902093Y-202900506D01*
X370828237Y-203118072D01*
X370822030Y-203133057D01*
X370720407Y-203339124D01*
X370712297Y-203353170D01*
X370584650Y-203544205D01*
X370574776Y-203557073D01*
X370423284Y-203729815D01*
X370411815Y-203741284D01*
X370239073Y-203892776D01*
X370226205Y-203902650D01*
X370035170Y-204030297D01*
X370021124Y-204038407D01*
X369815057Y-204140030D01*
X369800072Y-204146237D01*
X369582506Y-204220093D01*
X369566839Y-204224291D01*
X369341494Y-204269119D01*
X369325414Y-204271236D01*
X369106710Y-204285575D01*
X369092095Y-204286534D01*
X369083984Y-204286800D01*
X99197459Y-204286800D01*
X49460267Y-204195370D01*
X49457047Y-204194835D01*
X49455333Y-204195262D01*
X49420637Y-204188790D01*
X49407348Y-204184279D01*
X49295304Y-204146245D01*
X49280330Y-204140042D01*
X49074264Y-204038421D01*
X49060217Y-204030311D01*
X48869179Y-203902664D01*
X48856311Y-203892790D01*
X48683569Y-203741299D01*
X48672100Y-203729830D01*
X48610777Y-203659905D01*
X48520606Y-203557085D01*
X48510735Y-203544220D01*
X48383088Y-203353182D01*
X48374978Y-203339135D01*
X48308868Y-203205078D01*
X48273352Y-203133057D01*
X48267151Y-203118085D01*
X48193297Y-202900517D01*
X48189099Y-202884851D01*
X48189097Y-202884839D01*
X48144273Y-202659494D01*
X48142159Y-202643445D01*
X48126865Y-202410093D01*
X48126600Y-202401983D01*
X48126600Y-202302063D01*
X48656850Y-202302063D01*
X48656850Y-202514636D01*
X48679796Y-202659515D01*
X48690104Y-202724593D01*
X48747265Y-202900517D01*
X48755794Y-202926764D01*
X48852301Y-203116170D01*
X48977240Y-203288136D01*
X49127563Y-203438459D01*
X49299529Y-203563398D01*
X49299531Y-203563399D01*
X49299534Y-203563401D01*
X49488938Y-203659907D01*
X49691107Y-203725596D01*
X49901063Y-203758850D01*
X49901064Y-203758850D01*
X50113636Y-203758850D01*
X50113637Y-203758850D01*
X50323593Y-203725596D01*
X50525762Y-203659907D01*
X50715166Y-203563401D01*
X50787860Y-203510586D01*
X50887136Y-203438459D01*
X50887138Y-203438456D01*
X50887142Y-203438454D01*
X51037454Y-203288142D01*
X51037456Y-203288138D01*
X51037459Y-203288136D01*
X51162398Y-203116170D01*
X51162397Y-203116170D01*
X51162401Y-203116166D01*
X51258907Y-202926762D01*
X51324596Y-202724593D01*
X51357850Y-202514637D01*
X51357850Y-202302063D01*
X155019683Y-202302063D01*
X155019683Y-202514636D01*
X155042629Y-202659515D01*
X155052937Y-202724593D01*
X155110098Y-202900517D01*
X155118627Y-202926764D01*
X155215134Y-203116170D01*
X155340073Y-203288136D01*
X155490396Y-203438459D01*
X155662362Y-203563398D01*
X155662364Y-203563399D01*
X155662367Y-203563401D01*
X155851771Y-203659907D01*
X156053940Y-203725596D01*
X156263896Y-203758850D01*
X156263897Y-203758850D01*
X156476469Y-203758850D01*
X156476470Y-203758850D01*
X156686426Y-203725596D01*
X156888595Y-203659907D01*
X157077999Y-203563401D01*
X157150693Y-203510586D01*
X157249969Y-203438459D01*
X157249971Y-203438456D01*
X157249975Y-203438454D01*
X157400287Y-203288142D01*
X157400289Y-203288138D01*
X157400292Y-203288136D01*
X157525231Y-203116170D01*
X157525230Y-203116170D01*
X157525234Y-203116166D01*
X157621740Y-202926762D01*
X157687429Y-202724593D01*
X157720683Y-202514637D01*
X157720683Y-202302063D01*
X261382516Y-202302063D01*
X261382516Y-202514636D01*
X261405462Y-202659515D01*
X261415770Y-202724593D01*
X261472931Y-202900517D01*
X261481460Y-202926764D01*
X261577967Y-203116170D01*
X261702906Y-203288136D01*
X261853229Y-203438459D01*
X262025195Y-203563398D01*
X262025197Y-203563399D01*
X262025200Y-203563401D01*
X262214604Y-203659907D01*
X262416773Y-203725596D01*
X262626729Y-203758850D01*
X262626730Y-203758850D01*
X262839302Y-203758850D01*
X262839303Y-203758850D01*
X263049259Y-203725596D01*
X263251428Y-203659907D01*
X263440832Y-203563401D01*
X263513526Y-203510586D01*
X263612802Y-203438459D01*
X263612804Y-203438456D01*
X263612808Y-203438454D01*
X263763120Y-203288142D01*
X263763122Y-203288138D01*
X263763125Y-203288136D01*
X263888064Y-203116170D01*
X263888063Y-203116170D01*
X263888067Y-203116166D01*
X263984573Y-202926762D01*
X264050262Y-202724593D01*
X264083516Y-202514637D01*
X264083516Y-202302063D01*
X367744350Y-202302063D01*
X367744350Y-202514636D01*
X367767296Y-202659515D01*
X367777604Y-202724593D01*
X367834765Y-202900517D01*
X367843294Y-202926764D01*
X367939801Y-203116170D01*
X368064740Y-203288136D01*
X368215063Y-203438459D01*
X368387029Y-203563398D01*
X368387031Y-203563399D01*
X368387034Y-203563401D01*
X368576438Y-203659907D01*
X368778607Y-203725596D01*
X368988563Y-203758850D01*
X368988564Y-203758850D01*
X369201136Y-203758850D01*
X369201137Y-203758850D01*
X369411093Y-203725596D01*
X369613262Y-203659907D01*
X369802666Y-203563401D01*
X369875360Y-203510586D01*
X369974636Y-203438459D01*
X369974638Y-203438456D01*
X369974642Y-203438454D01*
X370124954Y-203288142D01*
X370124956Y-203288138D01*
X370124959Y-203288136D01*
X370249898Y-203116170D01*
X370249897Y-203116170D01*
X370249901Y-203116166D01*
X370346407Y-202926762D01*
X370412096Y-202724593D01*
X370445350Y-202514637D01*
X370445350Y-202302063D01*
X370412096Y-202092107D01*
X370346407Y-201889938D01*
X370249901Y-201700534D01*
X370249899Y-201700531D01*
X370249898Y-201700529D01*
X370124959Y-201528563D01*
X369974636Y-201378240D01*
X369802670Y-201253301D01*
X369613264Y-201156794D01*
X369613263Y-201156793D01*
X369613262Y-201156793D01*
X369411093Y-201091104D01*
X369411091Y-201091103D01*
X369411090Y-201091103D01*
X369249807Y-201065558D01*
X369201137Y-201057850D01*
X368988563Y-201057850D01*
X368939892Y-201065558D01*
X368778610Y-201091103D01*
X368576435Y-201156794D01*
X368387029Y-201253301D01*
X368215063Y-201378240D01*
X368064740Y-201528563D01*
X367939801Y-201700529D01*
X367843294Y-201889935D01*
X367777603Y-202092110D01*
X367744350Y-202302063D01*
X264083516Y-202302063D01*
X264050262Y-202092107D01*
X263984573Y-201889938D01*
X263888067Y-201700534D01*
X263888065Y-201700531D01*
X263888064Y-201700529D01*
X263763125Y-201528563D01*
X263612802Y-201378240D01*
X263440836Y-201253301D01*
X263251430Y-201156794D01*
X263251429Y-201156793D01*
X263251428Y-201156793D01*
X263049259Y-201091104D01*
X263049257Y-201091103D01*
X263049256Y-201091103D01*
X262887973Y-201065558D01*
X262839303Y-201057850D01*
X262626729Y-201057850D01*
X262578058Y-201065558D01*
X262416776Y-201091103D01*
X262214601Y-201156794D01*
X262025195Y-201253301D01*
X261853229Y-201378240D01*
X261702906Y-201528563D01*
X261577967Y-201700529D01*
X261481460Y-201889935D01*
X261415769Y-202092110D01*
X261382516Y-202302063D01*
X157720683Y-202302063D01*
X157687429Y-202092107D01*
X157621740Y-201889938D01*
X157525234Y-201700534D01*
X157525232Y-201700531D01*
X157525231Y-201700529D01*
X157400292Y-201528563D01*
X157249969Y-201378240D01*
X157078003Y-201253301D01*
X156888597Y-201156794D01*
X156888596Y-201156793D01*
X156888595Y-201156793D01*
X156686426Y-201091104D01*
X156686424Y-201091103D01*
X156686423Y-201091103D01*
X156525140Y-201065558D01*
X156476470Y-201057850D01*
X156263896Y-201057850D01*
X156215225Y-201065558D01*
X156053943Y-201091103D01*
X155851768Y-201156794D01*
X155662362Y-201253301D01*
X155490396Y-201378240D01*
X155340073Y-201528563D01*
X155215134Y-201700529D01*
X155118627Y-201889935D01*
X155052936Y-202092110D01*
X155019683Y-202302063D01*
X51357850Y-202302063D01*
X51324596Y-202092107D01*
X51258907Y-201889938D01*
X51162401Y-201700534D01*
X51162399Y-201700531D01*
X51162398Y-201700529D01*
X51037459Y-201528563D01*
X50887136Y-201378240D01*
X50715170Y-201253301D01*
X50525764Y-201156794D01*
X50525763Y-201156793D01*
X50525762Y-201156793D01*
X50323593Y-201091104D01*
X50323591Y-201091103D01*
X50323590Y-201091103D01*
X50162307Y-201065558D01*
X50113637Y-201057850D01*
X49901063Y-201057850D01*
X49852392Y-201065558D01*
X49691110Y-201091103D01*
X49488935Y-201156794D01*
X49299529Y-201253301D01*
X49127563Y-201378240D01*
X48977240Y-201528563D01*
X48852301Y-201700529D01*
X48755794Y-201889935D01*
X48690103Y-202092110D01*
X48656850Y-202302063D01*
X48126600Y-202302063D01*
X48126600Y-97637416D01*
X48126865Y-97629306D01*
X48133566Y-97527063D01*
X48656850Y-97527063D01*
X48656850Y-97739636D01*
X48690103Y-97949589D01*
X48755794Y-98151764D01*
X48852301Y-98341170D01*
X48977240Y-98513136D01*
X49127563Y-98663459D01*
X49299529Y-98788398D01*
X49299531Y-98788399D01*
X49299534Y-98788401D01*
X49488938Y-98884907D01*
X49691107Y-98950596D01*
X49901063Y-98983850D01*
X49901064Y-98983850D01*
X50113636Y-98983850D01*
X50113637Y-98983850D01*
X50323593Y-98950596D01*
X50525762Y-98884907D01*
X50715166Y-98788401D01*
X50737139Y-98772436D01*
X50887136Y-98663459D01*
X50887138Y-98663456D01*
X50887142Y-98663454D01*
X51037454Y-98513142D01*
X51037456Y-98513138D01*
X51037459Y-98513136D01*
X51162398Y-98341170D01*
X51162397Y-98341170D01*
X51162401Y-98341166D01*
X51258907Y-98151762D01*
X51324596Y-97949593D01*
X51357850Y-97739637D01*
X51357850Y-97527063D01*
X155019683Y-97527063D01*
X155019683Y-97739636D01*
X155052936Y-97949589D01*
X155118627Y-98151764D01*
X155215134Y-98341170D01*
X155340073Y-98513136D01*
X155490396Y-98663459D01*
X155662362Y-98788398D01*
X155662364Y-98788399D01*
X155662367Y-98788401D01*
X155851771Y-98884907D01*
X156053940Y-98950596D01*
X156263896Y-98983850D01*
X156263897Y-98983850D01*
X156476469Y-98983850D01*
X156476470Y-98983850D01*
X156686426Y-98950596D01*
X156888595Y-98884907D01*
X157077999Y-98788401D01*
X157099972Y-98772436D01*
X157249969Y-98663459D01*
X157249971Y-98663456D01*
X157249975Y-98663454D01*
X157400287Y-98513142D01*
X157400289Y-98513138D01*
X157400292Y-98513136D01*
X157525231Y-98341170D01*
X157525230Y-98341170D01*
X157525234Y-98341166D01*
X157621740Y-98151762D01*
X157687429Y-97949593D01*
X157720683Y-97739637D01*
X157720683Y-97527063D01*
X261382516Y-97527063D01*
X261382516Y-97739636D01*
X261415769Y-97949589D01*
X261481460Y-98151764D01*
X261577967Y-98341170D01*
X261702906Y-98513136D01*
X261853229Y-98663459D01*
X262025195Y-98788398D01*
X262025197Y-98788399D01*
X262025200Y-98788401D01*
X262214604Y-98884907D01*
X262416773Y-98950596D01*
X262626729Y-98983850D01*
X262626730Y-98983850D01*
X262839302Y-98983850D01*
X262839303Y-98983850D01*
X263049259Y-98950596D01*
X263251428Y-98884907D01*
X263440832Y-98788401D01*
X263462805Y-98772436D01*
X263612802Y-98663459D01*
X263612804Y-98663456D01*
X263612808Y-98663454D01*
X263763120Y-98513142D01*
X263763122Y-98513138D01*
X263763125Y-98513136D01*
X263888064Y-98341170D01*
X263888063Y-98341170D01*
X263888067Y-98341166D01*
X263984573Y-98151762D01*
X264050262Y-97949593D01*
X264083516Y-97739637D01*
X264083516Y-97527063D01*
X367744350Y-97527063D01*
X367744350Y-97739636D01*
X367777603Y-97949589D01*
X367843294Y-98151764D01*
X367939801Y-98341170D01*
X368064740Y-98513136D01*
X368215063Y-98663459D01*
X368387029Y-98788398D01*
X368387031Y-98788399D01*
X368387034Y-98788401D01*
X368576438Y-98884907D01*
X368778607Y-98950596D01*
X368988563Y-98983850D01*
X368988564Y-98983850D01*
X369201136Y-98983850D01*
X369201137Y-98983850D01*
X369411093Y-98950596D01*
X369613262Y-98884907D01*
X369802666Y-98788401D01*
X369824639Y-98772436D01*
X369974636Y-98663459D01*
X369974638Y-98663456D01*
X369974642Y-98663454D01*
X370124954Y-98513142D01*
X370124956Y-98513138D01*
X370124959Y-98513136D01*
X370249898Y-98341170D01*
X370249897Y-98341170D01*
X370249901Y-98341166D01*
X370346407Y-98151762D01*
X370412096Y-97949593D01*
X370445350Y-97739637D01*
X370445350Y-97527063D01*
X370412096Y-97317107D01*
X370346407Y-97114938D01*
X370249901Y-96925534D01*
X370249899Y-96925531D01*
X370249898Y-96925529D01*
X370124959Y-96753563D01*
X369974636Y-96603240D01*
X369802670Y-96478301D01*
X369613264Y-96381794D01*
X369613263Y-96381793D01*
X369613262Y-96381793D01*
X369411093Y-96316104D01*
X369411091Y-96316103D01*
X369411090Y-96316103D01*
X369249807Y-96290558D01*
X369201137Y-96282850D01*
X368988563Y-96282850D01*
X368939892Y-96290558D01*
X368778610Y-96316103D01*
X368576435Y-96381794D01*
X368387029Y-96478301D01*
X368215063Y-96603240D01*
X368064740Y-96753563D01*
X367939801Y-96925529D01*
X367843294Y-97114935D01*
X367777603Y-97317110D01*
X367744350Y-97527063D01*
X264083516Y-97527063D01*
X264050262Y-97317107D01*
X263984573Y-97114938D01*
X263888067Y-96925534D01*
X263888065Y-96925531D01*
X263888064Y-96925529D01*
X263763125Y-96753563D01*
X263612802Y-96603240D01*
X263440836Y-96478301D01*
X263251430Y-96381794D01*
X263251429Y-96381793D01*
X263251428Y-96381793D01*
X263049259Y-96316104D01*
X263049257Y-96316103D01*
X263049256Y-96316103D01*
X262887973Y-96290558D01*
X262839303Y-96282850D01*
X262626729Y-96282850D01*
X262578058Y-96290558D01*
X262416776Y-96316103D01*
X262214601Y-96381794D01*
X262025195Y-96478301D01*
X261853229Y-96603240D01*
X261702906Y-96753563D01*
X261577967Y-96925529D01*
X261481460Y-97114935D01*
X261415769Y-97317110D01*
X261382516Y-97527063D01*
X157720683Y-97527063D01*
X157687429Y-97317107D01*
X157621740Y-97114938D01*
X157525234Y-96925534D01*
X157525232Y-96925531D01*
X157525231Y-96925529D01*
X157400292Y-96753563D01*
X157249969Y-96603240D01*
X157078003Y-96478301D01*
X156888597Y-96381794D01*
X156888596Y-96381793D01*
X156888595Y-96381793D01*
X156686426Y-96316104D01*
X156686424Y-96316103D01*
X156686423Y-96316103D01*
X156525140Y-96290558D01*
X156476470Y-96282850D01*
X156263896Y-96282850D01*
X156215225Y-96290558D01*
X156053943Y-96316103D01*
X155851768Y-96381794D01*
X155662362Y-96478301D01*
X155490396Y-96603240D01*
X155340073Y-96753563D01*
X155215134Y-96925529D01*
X155118627Y-97114935D01*
X155052936Y-97317110D01*
X155019683Y-97527063D01*
X51357850Y-97527063D01*
X51324596Y-97317107D01*
X51258907Y-97114938D01*
X51162401Y-96925534D01*
X51162399Y-96925531D01*
X51162398Y-96925529D01*
X51037459Y-96753563D01*
X50887136Y-96603240D01*
X50715170Y-96478301D01*
X50525764Y-96381794D01*
X50525763Y-96381793D01*
X50525762Y-96381793D01*
X50323593Y-96316104D01*
X50323591Y-96316103D01*
X50323590Y-96316103D01*
X50162307Y-96290558D01*
X50113637Y-96282850D01*
X49901063Y-96282850D01*
X49852392Y-96290558D01*
X49691110Y-96316103D01*
X49488935Y-96381794D01*
X49299529Y-96478301D01*
X49127563Y-96603240D01*
X48977240Y-96753563D01*
X48852301Y-96925529D01*
X48755794Y-97114935D01*
X48690103Y-97317110D01*
X48656850Y-97527063D01*
X48133566Y-97527063D01*
X48134417Y-97514081D01*
X48134417Y-97514080D01*
X48137207Y-97471514D01*
X48142159Y-97395954D01*
X48144273Y-97379900D01*
X48189100Y-97154544D01*
X48193297Y-97138882D01*
X48265719Y-96925534D01*
X48267154Y-96921306D01*
X48273352Y-96906341D01*
X48374981Y-96700258D01*
X48383084Y-96686223D01*
X48510743Y-96495167D01*
X48520600Y-96482321D01*
X48672105Y-96309563D01*
X48683563Y-96298105D01*
X48856321Y-96146600D01*
X48869167Y-96136743D01*
X49060223Y-96009084D01*
X49074258Y-96000981D01*
X49280341Y-95899352D01*
X49295306Y-95893154D01*
X49512855Y-95819306D01*
X49512882Y-95819297D01*
X49528544Y-95815100D01*
X49753900Y-95770273D01*
X49769954Y-95768159D01*
X49984270Y-95754112D01*
X50003308Y-95752865D01*
X50011417Y-95752600D01*
X50073242Y-95752600D01*
X369083984Y-95752600D01*
X369092096Y-95752866D01*
G37*
%TD.AperFunction*%
M02*
