%TF.GenerationSoftware,KiCad,Pcbnew,10.0.4-10.0.4~ubuntu24.04.1*%
%TF.CreationDate,2026-07-28T17:27:23+02:00*%
%TF.ProjectId,hzk65_pcb,687a6b36-352e-46b6-9963-61645f706362,rev?*%
%TF.SameCoordinates,Original*%
%TF.FileFunction,Paste,Bot*%
%TF.FilePolarity,Positive*%
%FSLAX46Y46*%
G04 Gerber Fmt 4.6, Leading zero omitted, Abs format (unit mm)*
G04 Created by KiCad (PCBNEW 10.0.4-10.0.4~ubuntu24.04.1) date 2026-07-28 17:27:23*
%MOMM*%
%LPD*%
G01*
G04 APERTURE LIST*
G04 Aperture macros list*
%AMRoundRect*
0 Rectangle with rounded corners*
0 $1 Rounding radius*
0 $2 $3 $4 $5 $6 $7 $8 $9 X,Y pos of 4 corners*
0 Add a 4 corners polygon primitive as box body*
4,1,4,$2,$3,$4,$5,$6,$7,$8,$9,$2,$3,0*
0 Add four circle primitives for the rounded corners*
1,1,$1+$1,$2,$3*
1,1,$1+$1,$4,$5*
1,1,$1+$1,$6,$7*
1,1,$1+$1,$8,$9*
0 Add four rect primitives between the rounded corners*
20,1,$1+$1,$2,$3,$4,$5,0*
20,1,$1+$1,$4,$5,$6,$7,0*
20,1,$1+$1,$6,$7,$8,$9,0*
20,1,$1+$1,$8,$9,$2,$3,0*%
G04 Aperture macros list end*
%ADD10RoundRect,0.250000X-1.025000X-1.000000X1.025000X-1.000000X1.025000X1.000000X-1.025000X1.000000X0*%
%ADD11RoundRect,0.225000X-0.225000X-0.375000X0.225000X-0.375000X0.225000X0.375000X-0.225000X0.375000X0*%
G04 APERTURE END LIST*
D10*
%TO.C,SW37*%
X183729000Y-144916741D03*
X196656000Y-142376741D03*
%TD*%
%TO.C,SW49*%
X117055400Y-163966341D03*
X129982400Y-161426341D03*
%TD*%
%TO.C,SW38*%
X202778600Y-144916741D03*
X215705600Y-142376741D03*
%TD*%
%TO.C,SW63*%
X105149400Y-183015941D03*
X118076400Y-180475941D03*
%TD*%
%TO.C,SW44*%
X309932600Y-144916741D03*
X322859600Y-142376741D03*
%TD*%
%TO.C,SW8*%
X188491400Y-106817541D03*
X201418400Y-104277541D03*
%TD*%
%TO.C,SW60*%
X350413000Y-163966341D03*
X363340000Y-161426341D03*
%TD*%
%TO.C,SW31*%
X62287800Y-144916741D03*
X75214800Y-142376741D03*
%TD*%
%TO.C,SW3*%
X93243400Y-106817541D03*
X106170400Y-104277541D03*
%TD*%
%TO.C,SW55*%
X231353000Y-163966341D03*
X244280000Y-161426341D03*
%TD*%
%TO.C,SW59*%
X326601000Y-168728741D03*
X339528000Y-166188741D03*
%TD*%
%TO.C,SW14*%
X312326300Y-106820241D03*
X325253300Y-104280241D03*
%TD*%
%TO.C,SW16*%
X59906600Y-125867141D03*
X72833600Y-123327141D03*
%TD*%
%TO.C,SW17*%
X83718600Y-125867141D03*
X96645600Y-123327141D03*
%TD*%
%TO.C,SW26*%
X255165000Y-125867141D03*
X268092000Y-123327141D03*
%TD*%
%TO.C,SW13*%
X283739400Y-106817541D03*
X296666400Y-104277541D03*
%TD*%
%TO.C,SW32*%
X88481000Y-144916741D03*
X101408000Y-142376741D03*
%TD*%
%TO.C,SW22*%
X178966600Y-125867141D03*
X191893600Y-123327141D03*
%TD*%
%TO.C,SW4*%
X112293000Y-106817541D03*
X125220000Y-104277541D03*
%TD*%
%TO.C,SW72*%
X283739400Y-183015941D03*
X296666400Y-180475941D03*
%TD*%
%TO.C,SW73*%
X307551400Y-187778341D03*
X320478400Y-185238341D03*
%TD*%
%TO.C,SW18*%
X102768200Y-125867141D03*
X115695200Y-123327141D03*
%TD*%
%TO.C,SW33*%
X107530600Y-144916741D03*
X120457600Y-142376741D03*
%TD*%
%TO.C,SW74*%
X326601000Y-187778341D03*
X339528000Y-185238341D03*
%TD*%
%TO.C,SW28*%
X293264200Y-125867141D03*
X306191200Y-123327141D03*
%TD*%
%TO.C,SW56*%
X250402600Y-163966341D03*
X263329600Y-161426341D03*
%TD*%
%TO.C,SW51*%
X155154600Y-163966341D03*
X168081600Y-161426341D03*
%TD*%
%TO.C,SW36*%
X164679400Y-144916741D03*
X177606400Y-142376741D03*
%TD*%
%TO.C,SW1*%
X55144200Y-106817541D03*
X68071200Y-104277541D03*
%TD*%
%TO.C,SW39*%
X221828200Y-144916741D03*
X234755200Y-142376741D03*
%TD*%
%TO.C,SW9*%
X207541000Y-106817541D03*
X220468000Y-104277541D03*
%TD*%
%TO.C,SW11*%
X245640200Y-106817541D03*
X258567200Y-104277541D03*
%TD*%
%TO.C,SW24*%
X217065800Y-125867141D03*
X229992800Y-123327141D03*
%TD*%
%TO.C,SW71*%
X264689800Y-183015941D03*
X277616800Y-180475941D03*
%TD*%
%TO.C,SW12*%
X264689800Y-106817541D03*
X277616800Y-104277541D03*
%TD*%
%TO.C,SW57*%
X269452200Y-163966341D03*
X282379200Y-161426341D03*
%TD*%
%TO.C,SW23*%
X198016200Y-125867141D03*
X210943200Y-123327141D03*
%TD*%
%TO.C,SW48*%
X98005800Y-163966341D03*
X110932800Y-161426341D03*
%TD*%
%TO.C,SW75*%
X345650600Y-187778341D03*
X358577600Y-185238341D03*
%TD*%
%TO.C,SW35*%
X145629800Y-144916741D03*
X158556800Y-142376741D03*
%TD*%
%TO.C,SW21*%
X159917000Y-125867141D03*
X172844000Y-123327141D03*
%TD*%
%TO.C,SW5*%
X131342600Y-106817541D03*
X144269600Y-104277541D03*
%TD*%
%TO.C,SW50*%
X136105000Y-163966341D03*
X149032000Y-161426341D03*
%TD*%
%TO.C,SW61*%
X57525400Y-183015941D03*
X70452400Y-180475941D03*
%TD*%
%TO.C,SW7*%
X169441800Y-106817541D03*
X182368800Y-104277541D03*
%TD*%
%TO.C,SW20*%
X140867400Y-125867141D03*
X153794400Y-123327141D03*
%TD*%
%TO.C,SW62*%
X81337400Y-183015941D03*
X94264400Y-180475941D03*
%TD*%
%TO.C,SW6*%
X150392200Y-106817541D03*
X163319200Y-104277541D03*
%TD*%
%TO.C,SW40*%
X240877800Y-144916741D03*
X253804800Y-142376741D03*
%TD*%
%TO.C,SW10*%
X226590600Y-106817541D03*
X239517600Y-104277541D03*
%TD*%
%TO.C,SW52*%
X174204200Y-163966341D03*
X187131200Y-161426341D03*
%TD*%
%TO.C,SW54*%
X212303400Y-163966341D03*
X225230400Y-161426341D03*
%TD*%
%TO.C,SW53*%
X193253800Y-163966341D03*
X206180800Y-161426341D03*
%TD*%
%TO.C,SW19*%
X121817800Y-125867141D03*
X134744800Y-123327141D03*
%TD*%
%TO.C,SW2*%
X74193800Y-106817541D03*
X87120800Y-104277541D03*
%TD*%
%TO.C,SW34*%
X126580200Y-144916741D03*
X139507200Y-142376741D03*
%TD*%
%TO.C,SW29*%
X317076200Y-125867141D03*
X330003200Y-123327141D03*
%TD*%
%TO.C,SW67*%
X176585400Y-183015941D03*
X189512400Y-180475941D03*
%TD*%
%TO.C,SW25*%
X236115400Y-125867141D03*
X249042400Y-123327141D03*
%TD*%
%TO.C,SW41*%
X259927400Y-144916741D03*
X272854400Y-142376741D03*
%TD*%
%TO.C,SW70*%
X245640200Y-183015941D03*
X258567200Y-180475941D03*
%TD*%
%TO.C,SW42*%
X278977000Y-144916741D03*
X291904000Y-142376741D03*
%TD*%
%TO.C,SW58*%
X295645400Y-163966341D03*
X308572400Y-161426341D03*
%TD*%
%TO.C,SW46*%
X67051100Y-163969141D03*
X79978100Y-161429141D03*
%TD*%
%TO.C,SW27*%
X274214600Y-125867141D03*
X287141600Y-123327141D03*
%TD*%
D11*
%TO.C,D74*%
X332037700Y-195319391D03*
X335337700Y-195319391D03*
%TD*%
%TO.C,D59*%
X332037700Y-176269791D03*
X335337700Y-176269791D03*
%TD*%
%TO.C,D54*%
X217740100Y-171507391D03*
X221040100Y-171507391D03*
%TD*%
%TO.C,D26*%
X260601700Y-133408191D03*
X263901700Y-133408191D03*
%TD*%
%TO.C,D70*%
X251076900Y-190556991D03*
X254376900Y-190556991D03*
%TD*%
%TO.C,D29*%
X322512900Y-133408191D03*
X325812900Y-133408191D03*
%TD*%
%TO.C,D1*%
X60580900Y-114358591D03*
X63880900Y-114358591D03*
%TD*%
%TO.C,D21*%
X165353700Y-133408191D03*
X168653700Y-133408191D03*
%TD*%
%TO.C,D23*%
X203452900Y-133408191D03*
X206752900Y-133408191D03*
%TD*%
%TO.C,D32*%
X93917700Y-152457791D03*
X97217700Y-152457791D03*
%TD*%
%TO.C,D42*%
X284413700Y-152457791D03*
X287713700Y-152457791D03*
%TD*%
%TO.C,D3*%
X98680100Y-114358591D03*
X101980100Y-114358591D03*
%TD*%
%TO.C,D33*%
X112967300Y-152457791D03*
X116267300Y-152457791D03*
%TD*%
%TO.C,D49*%
X122492100Y-171507391D03*
X125792100Y-171507391D03*
%TD*%
%TO.C,D60*%
X355849700Y-171507391D03*
X359149700Y-171507391D03*
%TD*%
%TO.C,D61*%
X62962100Y-190556991D03*
X66262100Y-190556991D03*
%TD*%
%TO.C,D35*%
X151066500Y-152457791D03*
X154366500Y-152457791D03*
%TD*%
%TO.C,D7*%
X174878500Y-114358591D03*
X178178500Y-114358591D03*
%TD*%
%TO.C,D20*%
X146304100Y-133408191D03*
X149604100Y-133408191D03*
%TD*%
%TO.C,D41*%
X265364100Y-152457791D03*
X268664100Y-152457791D03*
%TD*%
%TO.C,D58*%
X301082100Y-171507391D03*
X304382100Y-171507391D03*
%TD*%
%TO.C,D62*%
X86774100Y-190556991D03*
X90074100Y-190556991D03*
%TD*%
%TO.C,D52*%
X179640900Y-171507391D03*
X182940900Y-171507391D03*
%TD*%
%TO.C,D8*%
X193928100Y-114358591D03*
X197228100Y-114358591D03*
%TD*%
%TO.C,D19*%
X127254500Y-133408191D03*
X130554500Y-133408191D03*
%TD*%
%TO.C,D18*%
X108204900Y-133408191D03*
X111504900Y-133408191D03*
%TD*%
%TO.C,D63*%
X110586100Y-190556991D03*
X113886100Y-190556991D03*
%TD*%
%TO.C,D27*%
X279649600Y-133408191D03*
X282949600Y-133408191D03*
%TD*%
%TO.C,D44*%
X315369300Y-152457791D03*
X318669300Y-152457791D03*
%TD*%
%TO.C,D25*%
X241552100Y-133408191D03*
X244852100Y-133408191D03*
%TD*%
%TO.C,D34*%
X132016900Y-152457791D03*
X135316900Y-152457791D03*
%TD*%
%TO.C,D12*%
X270126500Y-114358591D03*
X273426500Y-114358591D03*
%TD*%
%TO.C,D13*%
X289176100Y-114358591D03*
X292476100Y-114358591D03*
%TD*%
%TO.C,D2*%
X79630500Y-114358591D03*
X82930500Y-114358591D03*
%TD*%
%TO.C,D72*%
X289176100Y-190556991D03*
X292476100Y-190556991D03*
%TD*%
%TO.C,D51*%
X160591300Y-171507391D03*
X163891300Y-171507391D03*
%TD*%
%TO.C,D5*%
X136779300Y-114358591D03*
X140079300Y-114358591D03*
%TD*%
%TO.C,D37*%
X189165700Y-152457791D03*
X192465700Y-152457791D03*
%TD*%
%TO.C,D22*%
X184403300Y-133408191D03*
X187703300Y-133408191D03*
%TD*%
%TO.C,D10*%
X232027300Y-114358591D03*
X235327300Y-114358591D03*
%TD*%
%TO.C,D9*%
X212977700Y-114358591D03*
X216277700Y-114358591D03*
%TD*%
%TO.C,D40*%
X246314500Y-152457791D03*
X249614500Y-152457791D03*
%TD*%
%TO.C,D4*%
X117729700Y-114358591D03*
X121029700Y-114358591D03*
%TD*%
%TO.C,D48*%
X103442500Y-171507391D03*
X106742500Y-171507391D03*
%TD*%
%TO.C,D67*%
X182022100Y-190556991D03*
X185322100Y-190556991D03*
%TD*%
%TO.C,D75*%
X351087300Y-195319391D03*
X354387300Y-195319391D03*
%TD*%
%TO.C,D38*%
X208215300Y-152457791D03*
X211515300Y-152457791D03*
%TD*%
%TO.C,D53*%
X198690500Y-171507391D03*
X201990500Y-171507391D03*
%TD*%
%TO.C,D11*%
X251076900Y-114358591D03*
X254376900Y-114358591D03*
%TD*%
%TO.C,D39*%
X227264900Y-152457791D03*
X230564900Y-152457791D03*
%TD*%
%TO.C,D50*%
X141541700Y-171507391D03*
X144841700Y-171507391D03*
%TD*%
%TO.C,D28*%
X298700900Y-133408191D03*
X302000900Y-133408191D03*
%TD*%
%TO.C,D24*%
X222502500Y-133408191D03*
X225802500Y-133408191D03*
%TD*%
%TO.C,D36*%
X170116100Y-152457791D03*
X173416100Y-152457791D03*
%TD*%
%TO.C,D31*%
X67724500Y-152457791D03*
X71024500Y-152457791D03*
%TD*%
%TO.C,D17*%
X89155300Y-133408191D03*
X92455300Y-133408191D03*
%TD*%
%TO.C,D71*%
X270126500Y-190556991D03*
X273426500Y-190556991D03*
%TD*%
%TO.C,D73*%
X312988100Y-195319391D03*
X316288100Y-195319391D03*
%TD*%
%TO.C,D56*%
X255839300Y-171507391D03*
X259139300Y-171507391D03*
%TD*%
%TO.C,D46*%
X72486900Y-171507391D03*
X75786900Y-171507391D03*
%TD*%
%TO.C,D16*%
X65343300Y-133408191D03*
X68643300Y-133408191D03*
%TD*%
%TO.C,D14*%
X317750500Y-114358591D03*
X321050500Y-114358591D03*
%TD*%
%TO.C,D6*%
X155828900Y-114358591D03*
X159128900Y-114358591D03*
%TD*%
%TO.C,D55*%
X236789700Y-171507391D03*
X240089700Y-171507391D03*
%TD*%
%TO.C,D57*%
X274888900Y-171507391D03*
X278188900Y-171507391D03*
%TD*%
M02*
