%TF.GenerationSoftware,KiCad,Pcbnew,10.0.4-10.0.4~ubuntu24.04.1*%
%TF.CreationDate,2026-07-28T17:27:23+02:00*%
%TF.ProjectId,hzk65,687a6b36-352e-46b6-9963-61645f706362,rev?*%
%TF.SameCoordinates,Original*%
%TF.FileFunction,Legend,Top*%
%TF.FilePolarity,Positive*%
%FSLAX46Y46*%
G04 Gerber Fmt 4.6, Leading zero omitted, Abs format (unit mm)*
G04 Created by KiCad (PCBNEW 10.0.4-10.0.4~ubuntu24.04.1) date 2026-07-28 17:27:23*
%MOMM*%
%LPD*%
G01*
G04 APERTURE LIST*
%ADD10C,0.000000*%
%ADD11C,0.003087*%
%ADD12C,0.125000*%
G04 APERTURE END LIST*
D10*
G36*
X356450249Y-135594405D02*
G01*
X353962055Y-135594405D01*
X353962055Y-135074556D01*
X356450249Y-135074556D01*
X356450249Y-135594405D01*
G37*
G36*
X356450249Y-136891490D02*
G01*
X354926042Y-136891490D01*
X354926042Y-138375320D01*
X356450249Y-138375320D01*
X356450249Y-138920406D01*
X352917312Y-138920406D01*
X352917312Y-138375320D01*
X354431426Y-138375320D01*
X354431426Y-136891490D01*
X352917312Y-136891490D01*
X352917312Y-136346407D01*
X356450249Y-136346407D01*
X356450249Y-136891490D01*
G37*
G36*
X356450249Y-134403301D02*
G01*
X355814322Y-134403301D01*
X354471808Y-132934616D01*
X354401149Y-132934616D01*
X354401149Y-134352841D01*
X353962055Y-134352841D01*
X353962055Y-132369347D01*
X354603031Y-132369347D01*
X355945548Y-133843087D01*
X356011162Y-133843087D01*
X356011162Y-132328968D01*
X356450249Y-132328968D01*
X356450249Y-134403301D01*
G37*
G36*
X356450249Y-129719651D02*
G01*
X354951270Y-131072263D01*
X354951270Y-131153013D01*
X356450249Y-131153013D01*
X356450249Y-131698090D01*
X352917312Y-131698090D01*
X352917312Y-131153013D01*
X354386003Y-131153013D01*
X354386003Y-131072263D01*
X352917312Y-129754981D01*
X352917312Y-129043343D01*
X354658543Y-130638210D01*
X356450249Y-128987826D01*
X356450249Y-129719651D01*
G37*
G36*
X353012527Y-135196322D02*
G01*
X353018609Y-135196834D01*
X353024640Y-135197736D01*
X353030596Y-135199027D01*
X353036464Y-135200703D01*
X353042217Y-135202764D01*
X353047850Y-135205200D01*
X353053326Y-135208005D01*
X353058635Y-135211183D01*
X353063757Y-135214730D01*
X353068670Y-135218635D01*
X353073313Y-135222866D01*
X353077637Y-135227352D01*
X353081625Y-135232084D01*
X353085277Y-135237036D01*
X353088583Y-135242203D01*
X353091533Y-135247559D01*
X353094129Y-135253081D01*
X353096359Y-135258751D01*
X353098219Y-135264558D01*
X353099699Y-135270476D01*
X353100794Y-135276496D01*
X353101505Y-135282586D01*
X353101809Y-135288738D01*
X353101709Y-135294921D01*
X353101208Y-135301125D01*
X353100276Y-135307337D01*
X353099352Y-135313551D01*
X353098844Y-135319755D01*
X353098747Y-135325944D01*
X353099050Y-135332093D01*
X353099755Y-135338186D01*
X353100854Y-135344205D01*
X353102335Y-135350120D01*
X353104194Y-135355926D01*
X353106429Y-135361601D01*
X353109018Y-135367123D01*
X353111977Y-135372475D01*
X353115285Y-135377644D01*
X353118930Y-135382597D01*
X353122919Y-135387328D01*
X353127242Y-135391819D01*
X353131884Y-135396044D01*
X353136793Y-135399951D01*
X353141922Y-135403496D01*
X353147233Y-135406669D01*
X353152703Y-135409479D01*
X353158339Y-135411915D01*
X353164090Y-135413975D01*
X353169960Y-135415647D01*
X353175920Y-135416943D01*
X353181946Y-135417846D01*
X353188024Y-135418362D01*
X353194137Y-135418482D01*
X353200265Y-135418202D01*
X353206386Y-135417522D01*
X353212477Y-135416433D01*
X353218522Y-135414935D01*
X353224500Y-135413030D01*
X353230340Y-135410719D01*
X353235975Y-135408056D01*
X353241380Y-135405048D01*
X353246551Y-135401711D01*
X353251476Y-135398054D01*
X353256136Y-135394091D01*
X353260523Y-135389848D01*
X353264616Y-135385343D01*
X353268419Y-135380571D01*
X353271902Y-135375559D01*
X353275060Y-135370325D01*
X353277879Y-135364878D01*
X353280352Y-135359242D01*
X353282454Y-135353422D01*
X353284183Y-135347436D01*
X353282844Y-135353575D01*
X353279395Y-135365541D01*
X353275184Y-135377179D01*
X353270243Y-135388460D01*
X353264606Y-135399347D01*
X353258288Y-135409820D01*
X353251319Y-135419832D01*
X353243724Y-135429376D01*
X353235524Y-135438401D01*
X353226750Y-135446885D01*
X353217432Y-135454800D01*
X353207581Y-135462110D01*
X353197248Y-135468789D01*
X353186431Y-135474816D01*
X353175167Y-135480142D01*
X353163488Y-135484748D01*
X353151524Y-135488563D01*
X353139431Y-135491559D01*
X353127248Y-135493733D01*
X353115011Y-135495095D01*
X353102757Y-135495656D01*
X353090537Y-135495417D01*
X353078370Y-135494391D01*
X353066317Y-135492584D01*
X353054399Y-135489999D01*
X353042666Y-135486644D01*
X353031155Y-135482532D01*
X353019898Y-135477661D01*
X353008943Y-135472040D01*
X352998318Y-135465684D01*
X352988074Y-135458601D01*
X352978250Y-135450784D01*
X352968956Y-135442337D01*
X352960317Y-135433360D01*
X352952342Y-135423893D01*
X352945043Y-135413975D01*
X352938430Y-135403649D01*
X352932524Y-135392943D01*
X352927332Y-135381897D01*
X352922878Y-135370551D01*
X352919157Y-135358937D01*
X352916192Y-135347099D01*
X352914000Y-135335074D01*
X352912587Y-135322885D01*
X352911969Y-135310589D01*
X352912167Y-135298217D01*
X352913181Y-135285798D01*
X352915038Y-135273378D01*
X352916372Y-135267239D01*
X352918104Y-135261260D01*
X352920208Y-135255441D01*
X352922671Y-135249805D01*
X352925500Y-135244355D01*
X352928653Y-135239121D01*
X352932138Y-135234110D01*
X352935934Y-135229343D01*
X352940030Y-135224832D01*
X352944422Y-135220585D01*
X352949082Y-135216627D01*
X352954002Y-135212975D01*
X352959174Y-135209633D01*
X352964584Y-135206621D01*
X352970208Y-135203962D01*
X352976054Y-135201658D01*
X352982038Y-135199745D01*
X352988080Y-135198253D01*
X352994172Y-135197161D01*
X353000294Y-135196477D01*
X353006416Y-135196197D01*
X353012527Y-135196322D01*
G37*
G36*
X353297793Y-135343977D02*
G01*
X353309759Y-135347427D01*
X353321397Y-135351639D01*
X353332679Y-135356579D01*
X353343566Y-135362216D01*
X353354038Y-135368534D01*
X353364051Y-135375502D01*
X353373594Y-135383098D01*
X353382620Y-135391297D01*
X353391103Y-135400071D01*
X353399019Y-135409389D01*
X353406331Y-135419240D01*
X353413008Y-135429576D01*
X353419034Y-135440390D01*
X353424361Y-135451654D01*
X353428967Y-135463334D01*
X353432782Y-135475297D01*
X353435776Y-135487390D01*
X353437951Y-135499573D01*
X353439314Y-135511810D01*
X353439875Y-135524064D01*
X353439636Y-135536284D01*
X353438609Y-135548451D01*
X353436802Y-135560504D01*
X353434217Y-135572422D01*
X353430863Y-135584156D01*
X353426749Y-135595667D01*
X353421880Y-135606923D01*
X353416259Y-135617880D01*
X353409902Y-135628502D01*
X353402819Y-135638747D01*
X353395003Y-135648571D01*
X353386556Y-135657865D01*
X353377579Y-135666505D01*
X353368112Y-135674479D01*
X353358194Y-135681778D01*
X353347868Y-135688392D01*
X353337162Y-135694297D01*
X353326116Y-135699490D01*
X353314772Y-135703946D01*
X353303156Y-135707666D01*
X353291317Y-135710630D01*
X353279292Y-135712821D01*
X353267104Y-135714235D01*
X353254808Y-135714850D01*
X353242436Y-135714654D01*
X353230017Y-135713640D01*
X353217595Y-135711783D01*
X353211458Y-135710450D01*
X353205478Y-135708720D01*
X353199660Y-135706613D01*
X353194022Y-135704151D01*
X353188574Y-135701323D01*
X353183339Y-135698168D01*
X353178329Y-135694683D01*
X353173559Y-135690887D01*
X353169051Y-135686791D01*
X353164804Y-135682399D01*
X353160846Y-135677740D01*
X353157194Y-135672819D01*
X353153852Y-135667648D01*
X353150841Y-135662237D01*
X353148179Y-135656613D01*
X353145876Y-135650767D01*
X353143963Y-135644784D01*
X353142472Y-135638742D01*
X353141380Y-135632650D01*
X353140696Y-135626527D01*
X353140416Y-135620405D01*
X353140541Y-135614294D01*
X353141053Y-135608213D01*
X353141954Y-135602181D01*
X353143246Y-135596226D01*
X353144922Y-135590359D01*
X353146984Y-135584604D01*
X353149419Y-135578973D01*
X353152223Y-135573495D01*
X353155402Y-135568186D01*
X353158949Y-135563065D01*
X353162854Y-135558151D01*
X353167085Y-135553508D01*
X353171570Y-135549183D01*
X353176302Y-135545196D01*
X353181254Y-135541545D01*
X353186422Y-135538238D01*
X353191778Y-135535289D01*
X353197300Y-135532693D01*
X353202970Y-135530463D01*
X353208777Y-135528602D01*
X353214695Y-135527122D01*
X353220715Y-135526028D01*
X353226805Y-135525316D01*
X353232957Y-135525012D01*
X353239140Y-135525110D01*
X353245344Y-135525615D01*
X353251555Y-135526545D01*
X353257769Y-135527470D01*
X353263974Y-135527977D01*
X353270163Y-135528076D01*
X353276311Y-135527771D01*
X353282405Y-135527067D01*
X353288424Y-135525968D01*
X353294339Y-135524486D01*
X353300145Y-135522625D01*
X353305818Y-135520393D01*
X353311343Y-135517803D01*
X353316693Y-135514844D01*
X353321860Y-135511538D01*
X353326818Y-135507891D01*
X353331547Y-135503902D01*
X353336038Y-135499579D01*
X353340263Y-135494939D01*
X353344172Y-135490028D01*
X353347715Y-135484899D01*
X353350888Y-135479590D01*
X353353698Y-135474119D01*
X353356134Y-135468484D01*
X353358194Y-135462731D01*
X353359866Y-135456861D01*
X353361160Y-135450904D01*
X353362065Y-135444874D01*
X353362580Y-135438798D01*
X353362701Y-135432684D01*
X353362420Y-135426556D01*
X353361741Y-135420435D01*
X353360650Y-135414344D01*
X353359153Y-135408300D01*
X353357247Y-135402321D01*
X353354937Y-135396481D01*
X353352275Y-135390846D01*
X353349267Y-135385441D01*
X353345929Y-135380269D01*
X353342273Y-135375345D01*
X353338310Y-135370685D01*
X353334067Y-135366298D01*
X353329562Y-135362205D01*
X353324790Y-135358403D01*
X353319778Y-135354919D01*
X353314544Y-135351761D01*
X353309098Y-135348942D01*
X353303461Y-135346470D01*
X353297641Y-135344367D01*
X353291655Y-135342638D01*
X353297793Y-135343977D01*
G37*
G36*
X353328604Y-134967948D02*
G01*
X353341023Y-134968962D01*
X353353445Y-134970819D01*
X353359582Y-134972153D01*
X353365562Y-134973885D01*
X353371380Y-134975989D01*
X353377018Y-134978452D01*
X353382467Y-134981279D01*
X353387701Y-134984435D01*
X353392711Y-134987919D01*
X353397481Y-134991715D01*
X353401989Y-134995812D01*
X353406236Y-135000203D01*
X353410194Y-135004862D01*
X353413846Y-135009784D01*
X353417188Y-135014954D01*
X353420201Y-135020365D01*
X353422861Y-135025990D01*
X353425164Y-135031835D01*
X353427077Y-135037820D01*
X353428568Y-135043861D01*
X353429660Y-135049952D01*
X353430344Y-135056075D01*
X353430624Y-135062198D01*
X353430499Y-135068309D01*
X353429987Y-135074390D01*
X353429086Y-135080421D01*
X353427794Y-135086377D01*
X353426118Y-135092245D01*
X353424057Y-135098000D01*
X353421621Y-135103632D01*
X353418817Y-135109107D01*
X353415638Y-135114416D01*
X353412091Y-135119539D01*
X353408186Y-135124451D01*
X353403955Y-135129096D01*
X353399470Y-135133418D01*
X353394738Y-135137406D01*
X353389786Y-135141058D01*
X353384619Y-135144364D01*
X353379262Y-135147316D01*
X353373740Y-135149910D01*
X353368070Y-135152140D01*
X353362263Y-135154000D01*
X353356345Y-135155481D01*
X353350325Y-135156575D01*
X353344235Y-135157286D01*
X353338087Y-135157590D01*
X353331900Y-135157492D01*
X353325696Y-135156987D01*
X353319485Y-135156057D01*
X353313271Y-135155133D01*
X353307066Y-135154627D01*
X353300878Y-135154528D01*
X353294729Y-135154832D01*
X353288635Y-135155539D01*
X353282618Y-135156637D01*
X353276701Y-135158116D01*
X353270895Y-135159977D01*
X353265222Y-135162209D01*
X353259697Y-135164799D01*
X353254347Y-135167758D01*
X353249180Y-135171066D01*
X353244224Y-135174711D01*
X353239493Y-135178700D01*
X353235002Y-135183024D01*
X353230777Y-135187665D01*
X353226871Y-135192574D01*
X353223325Y-135197703D01*
X353220152Y-135203014D01*
X353217342Y-135208487D01*
X353214906Y-135214118D01*
X353212846Y-135219871D01*
X353211174Y-135225741D01*
X353209880Y-135231702D01*
X353208975Y-135237728D01*
X353208460Y-135243806D01*
X353208339Y-135249918D01*
X353208620Y-135256047D01*
X353209299Y-135262167D01*
X353210390Y-135268258D01*
X353211887Y-135274303D01*
X353213793Y-135280281D01*
X353216103Y-135286122D01*
X353218766Y-135291757D01*
X353221773Y-135297161D01*
X353225111Y-135302333D01*
X353228768Y-135307257D01*
X353232730Y-135311917D01*
X353236973Y-135316305D01*
X353241478Y-135320398D01*
X353246250Y-135324200D01*
X353251262Y-135327684D01*
X353256496Y-135330841D01*
X353261942Y-135333661D01*
X353267579Y-135336133D01*
X353273399Y-135338235D01*
X353279385Y-135339965D01*
X353273247Y-135338626D01*
X353261281Y-135335176D01*
X353249643Y-135330963D01*
X353238361Y-135326024D01*
X353227474Y-135320387D01*
X353217002Y-135314071D01*
X353206989Y-135307100D01*
X353197446Y-135299505D01*
X353188420Y-135291305D01*
X353179937Y-135282532D01*
X353172021Y-135273215D01*
X353164711Y-135263362D01*
X353158032Y-135253028D01*
X353152006Y-135242214D01*
X353146679Y-135230949D01*
X353142073Y-135219269D01*
X353138258Y-135207305D01*
X353135264Y-135195212D01*
X353133089Y-135183030D01*
X353131726Y-135170792D01*
X353131165Y-135158538D01*
X353131404Y-135146318D01*
X353132431Y-135134151D01*
X353134238Y-135122099D01*
X353136823Y-135110180D01*
X353140178Y-135098449D01*
X353144291Y-135086936D01*
X353149160Y-135075679D01*
X353154781Y-135064724D01*
X353161137Y-135054099D01*
X353168221Y-135043855D01*
X353176037Y-135034030D01*
X353184484Y-135024738D01*
X353193461Y-135016099D01*
X353202928Y-135008124D01*
X353212846Y-135000824D01*
X353223172Y-134994214D01*
X353233878Y-134988305D01*
X353244924Y-134983113D01*
X353256268Y-134978656D01*
X353267884Y-134974938D01*
X353279723Y-134971974D01*
X353291748Y-134969781D01*
X353303936Y-134968368D01*
X353316232Y-134967752D01*
X353328604Y-134967948D01*
G37*
G36*
X353480503Y-135187186D02*
G01*
X353492670Y-135188211D01*
X353504723Y-135190020D01*
X353516641Y-135192604D01*
X353528374Y-135195959D01*
X353539885Y-135200072D01*
X353551142Y-135204942D01*
X353562097Y-135210563D01*
X353572722Y-135216919D01*
X353582966Y-135224003D01*
X353592790Y-135231818D01*
X353602084Y-135240265D01*
X353610723Y-135249242D01*
X353618698Y-135258709D01*
X353625997Y-135268627D01*
X353632610Y-135278953D01*
X353638516Y-135289660D01*
X353643708Y-135300705D01*
X353648162Y-135312051D01*
X353651883Y-135323666D01*
X353654848Y-135335505D01*
X353657040Y-135347531D01*
X353658453Y-135359717D01*
X353659071Y-135372013D01*
X353658873Y-135384385D01*
X353657859Y-135396804D01*
X353656002Y-135409227D01*
X353654668Y-135415363D01*
X353652937Y-135421343D01*
X353650832Y-135427161D01*
X353648369Y-135432799D01*
X353645540Y-135438248D01*
X353642387Y-135443482D01*
X353638902Y-135448493D01*
X353635106Y-135453263D01*
X353631010Y-135457770D01*
X353626618Y-135462017D01*
X353621958Y-135465975D01*
X353617038Y-135469630D01*
X353611866Y-135472969D01*
X353606456Y-135475982D01*
X353600832Y-135478642D01*
X353594986Y-135480945D01*
X353589002Y-135482860D01*
X353582960Y-135484352D01*
X353576869Y-135485441D01*
X353570746Y-135486125D01*
X353564624Y-135486405D01*
X353558513Y-135486280D01*
X353552431Y-135485768D01*
X353546400Y-135484867D01*
X353540444Y-135483575D01*
X353534576Y-135481900D01*
X353528823Y-135479838D01*
X353523190Y-135477402D01*
X353517714Y-135474598D01*
X353512405Y-135471419D01*
X353507283Y-135467873D01*
X353502370Y-135463968D01*
X353497727Y-135459736D01*
X353493403Y-135455252D01*
X353489415Y-135450519D01*
X353485763Y-135445567D01*
X353482457Y-135440399D01*
X353479507Y-135435043D01*
X353476911Y-135429523D01*
X353474681Y-135423851D01*
X353472821Y-135418044D01*
X353471341Y-135412126D01*
X353470246Y-135406108D01*
X353469535Y-135400016D01*
X353469231Y-135393864D01*
X353469331Y-135387681D01*
X353469832Y-135381477D01*
X353470764Y-135375266D01*
X353471688Y-135369053D01*
X353472196Y-135362847D01*
X353472293Y-135356659D01*
X353471990Y-135350510D01*
X353471285Y-135344415D01*
X353470186Y-135338399D01*
X353468705Y-135332484D01*
X353466846Y-135326676D01*
X353464612Y-135321001D01*
X353462022Y-135315479D01*
X353459063Y-135310128D01*
X353455755Y-135304961D01*
X353452110Y-135300006D01*
X353448121Y-135295274D01*
X353443798Y-135290783D01*
X353439156Y-135286559D01*
X353434247Y-135282652D01*
X353429118Y-135279106D01*
X353423807Y-135275934D01*
X353418337Y-135273124D01*
X353412701Y-135270689D01*
X353406950Y-135268627D01*
X353401080Y-135266955D01*
X353395120Y-135265663D01*
X353389094Y-135264757D01*
X353383016Y-135264240D01*
X353376901Y-135264121D01*
X353370774Y-135264401D01*
X353364654Y-135265081D01*
X353358563Y-135266173D01*
X353352518Y-135267668D01*
X353346540Y-135269575D01*
X353340700Y-135271884D01*
X353335065Y-135274548D01*
X353329660Y-135277554D01*
X353324489Y-135280892D01*
X353319564Y-135284548D01*
X353314904Y-135288511D01*
X353310517Y-135292754D01*
X353306424Y-135297261D01*
X353302621Y-135302032D01*
X353299139Y-135307043D01*
X353295980Y-135312277D01*
X353293161Y-135317723D01*
X353290688Y-135323360D01*
X353288586Y-135329180D01*
X353286856Y-135335166D01*
X353288196Y-135329029D01*
X353291645Y-135317063D01*
X353295856Y-135305426D01*
X353300797Y-135294142D01*
X353306434Y-135283255D01*
X353312752Y-135272783D01*
X353319721Y-135262770D01*
X353327316Y-135253227D01*
X353335516Y-135244203D01*
X353344290Y-135235718D01*
X353353608Y-135227802D01*
X353363459Y-135220492D01*
X353373795Y-135213814D01*
X353384609Y-135207787D01*
X353395873Y-135202460D01*
X353407552Y-135197854D01*
X353419516Y-135194039D01*
X353431609Y-135191045D01*
X353443792Y-135188870D01*
X353456029Y-135187507D01*
X353468283Y-135186946D01*
X353480503Y-135187186D01*
G37*
G36*
X355385483Y-116188970D02*
G01*
X355413357Y-116190415D01*
X355440849Y-116192811D01*
X355467964Y-116196175D01*
X355494694Y-116200509D01*
X355521046Y-116205791D01*
X355547016Y-116212042D01*
X355572611Y-116219263D01*
X355597808Y-116227428D01*
X355622627Y-116236570D01*
X355647067Y-116246657D01*
X355671113Y-116257723D01*
X355694785Y-116269748D01*
X355718065Y-116282736D01*
X355740957Y-116296688D01*
X355763468Y-116311603D01*
X355793011Y-116333066D01*
X355820660Y-116355563D01*
X355846400Y-116379068D01*
X355870236Y-116403597D01*
X355892162Y-116429141D01*
X355912183Y-116455706D01*
X355921477Y-116469376D01*
X355930303Y-116483294D01*
X355938648Y-116497467D01*
X355946515Y-116511890D01*
X355953903Y-116526574D01*
X355960816Y-116541511D01*
X355967252Y-116556702D01*
X355973218Y-116572145D01*
X355983705Y-116603793D01*
X355992297Y-116636465D01*
X355998969Y-116670143D01*
X356003740Y-116704847D01*
X356006601Y-116740564D01*
X356007559Y-116777275D01*
X356007022Y-116806710D01*
X356005418Y-116835454D01*
X356002737Y-116863510D01*
X355998983Y-116890865D01*
X355994164Y-116917543D01*
X355988267Y-116943527D01*
X355981301Y-116968841D01*
X355973267Y-116993445D01*
X355964162Y-117017372D01*
X355953982Y-117040613D01*
X355942734Y-117063154D01*
X355930414Y-117085022D01*
X355917034Y-117106200D01*
X355902570Y-117126681D01*
X355887046Y-117146482D01*
X355870448Y-117165596D01*
X355852922Y-117183876D01*
X355834666Y-117201223D01*
X355815672Y-117217628D01*
X355795946Y-117233088D01*
X355775485Y-117247599D01*
X355754285Y-117261179D01*
X355732351Y-117273802D01*
X355709672Y-117285492D01*
X355686265Y-117296240D01*
X355662124Y-117306043D01*
X355637242Y-117314899D01*
X355611624Y-117322812D01*
X355585271Y-117329785D01*
X355558183Y-117335807D01*
X355530360Y-117340897D01*
X355501804Y-117345034D01*
X355465311Y-117016568D01*
X355480072Y-117014593D01*
X355494427Y-117012195D01*
X355508401Y-117009358D01*
X355521989Y-117006092D01*
X355535178Y-117002396D01*
X355547979Y-116998261D01*
X355560390Y-116993692D01*
X355572414Y-116988698D01*
X355584047Y-116983273D01*
X355595288Y-116977420D01*
X355606137Y-116971135D01*
X355616606Y-116964413D01*
X355626678Y-116957271D01*
X355636368Y-116949690D01*
X355645666Y-116941683D01*
X355654580Y-116933236D01*
X355663058Y-116924522D01*
X355670976Y-116915624D01*
X355678360Y-116906572D01*
X355685189Y-116897344D01*
X355691476Y-116887957D01*
X355697211Y-116878404D01*
X355702398Y-116868678D01*
X355707038Y-116858787D01*
X355711125Y-116848742D01*
X355714671Y-116838523D01*
X355717674Y-116828138D01*
X355720132Y-116817584D01*
X355722036Y-116806877D01*
X355723398Y-116796000D01*
X355724217Y-116784959D01*
X355724491Y-116773757D01*
X355724142Y-116760986D01*
X355723084Y-116748463D01*
X355721320Y-116736187D01*
X355718858Y-116724156D01*
X355715680Y-116712371D01*
X355711815Y-116700828D01*
X355707239Y-116689539D01*
X355701964Y-116678492D01*
X355695976Y-116667700D01*
X355689298Y-116657145D01*
X355681908Y-116646852D01*
X355673820Y-116636794D01*
X355665028Y-116626985D01*
X355655542Y-116617433D01*
X355645343Y-116608124D01*
X355634458Y-116599060D01*
X355622874Y-116590386D01*
X355610579Y-116582267D01*
X355597564Y-116574717D01*
X355583846Y-116567726D01*
X355569403Y-116561297D01*
X355554246Y-116555425D01*
X355538368Y-116550111D01*
X355521782Y-116545358D01*
X355504486Y-116541164D01*
X355486463Y-116537530D01*
X355467743Y-116534460D01*
X355448291Y-116531934D01*
X355428129Y-116529984D01*
X355407254Y-116528584D01*
X355385670Y-116527755D01*
X355363358Y-116527472D01*
X355342473Y-116527755D01*
X355322249Y-116528582D01*
X355302683Y-116529975D01*
X355283784Y-116531915D01*
X355265543Y-116534412D01*
X355247963Y-116537469D01*
X355231050Y-116541075D01*
X355214796Y-116545249D01*
X355199205Y-116549961D01*
X355184281Y-116555242D01*
X355170019Y-116561073D01*
X355156427Y-116567456D01*
X355143497Y-116574395D01*
X355131229Y-116581893D01*
X355119630Y-116589938D01*
X355108691Y-116598547D01*
X355098406Y-116607557D01*
X355088792Y-116616912D01*
X355079831Y-116626607D01*
X355071537Y-116636637D01*
X355063903Y-116647010D01*
X355056929Y-116657726D01*
X355050631Y-116668767D01*
X355044985Y-116680144D01*
X355040008Y-116691867D01*
X355035696Y-116703913D01*
X355032043Y-116716292D01*
X355029058Y-116729003D01*
X355026727Y-116742056D01*
X355025071Y-116755426D01*
X355024073Y-116769148D01*
X355023743Y-116783185D01*
X355024268Y-116800819D01*
X355025848Y-116818217D01*
X355028478Y-116835391D01*
X355032163Y-116852338D01*
X355036899Y-116869055D01*
X355042688Y-116885530D01*
X355049524Y-116901787D01*
X355057420Y-116917804D01*
X355066357Y-116933602D01*
X355076353Y-116949173D01*
X355087398Y-116964503D01*
X355099495Y-116979610D01*
X355112639Y-116994482D01*
X355126829Y-117009133D01*
X355142072Y-117023548D01*
X355158363Y-117037732D01*
X355116785Y-117305187D01*
X354157093Y-117136220D01*
X354157093Y-116264763D01*
X354487921Y-116264763D01*
X354487921Y-116886403D01*
X354801223Y-116938041D01*
X354794067Y-116924245D01*
X354787357Y-116910410D01*
X354781120Y-116896543D01*
X354775339Y-116882625D01*
X354770034Y-116868691D01*
X354765178Y-116854717D01*
X354760783Y-116840693D01*
X354756854Y-116826641D01*
X354753386Y-116812547D01*
X354750389Y-116798416D01*
X354747844Y-116784248D01*
X354745763Y-116770040D01*
X354744150Y-116755792D01*
X354742994Y-116741502D01*
X354742299Y-116727177D01*
X354742069Y-116712809D01*
X354742733Y-116685668D01*
X354744740Y-116659048D01*
X354748081Y-116632943D01*
X354752758Y-116607360D01*
X354758771Y-116582294D01*
X354766119Y-116557749D01*
X354774813Y-116533722D01*
X354784837Y-116510219D01*
X354796202Y-116487233D01*
X354808901Y-116464771D01*
X354822936Y-116442838D01*
X354838306Y-116421416D01*
X354855019Y-116400528D01*
X354873066Y-116380149D01*
X354892456Y-116360307D01*
X354913179Y-116340981D01*
X354934935Y-116322521D01*
X354957495Y-116305244D01*
X354980852Y-116289159D01*
X355005009Y-116274272D01*
X355029972Y-116260565D01*
X355055728Y-116248063D01*
X355082280Y-116236741D01*
X355109636Y-116226616D01*
X355137794Y-116217676D01*
X355166747Y-116209932D01*
X355196496Y-116203387D01*
X355227043Y-116198025D01*
X355258395Y-116193858D01*
X355290543Y-116190876D01*
X355323491Y-116189085D01*
X355357231Y-116188487D01*
X355385483Y-116188970D01*
G37*
G36*
X356988071Y-123371759D02*
G01*
X357015398Y-123373358D01*
X357042014Y-123376023D01*
X357067916Y-123379746D01*
X357093116Y-123384541D01*
X357117605Y-123390395D01*
X357141375Y-123397314D01*
X357164437Y-123405295D01*
X357186802Y-123414347D01*
X357208447Y-123424462D01*
X357229385Y-123435637D01*
X357249609Y-123447883D01*
X357269126Y-123461186D01*
X357287941Y-123475557D01*
X357306037Y-123491000D01*
X357323425Y-123507499D01*
X357339934Y-123524295D01*
X357355366Y-123541885D01*
X357369734Y-123560257D01*
X357383042Y-123579423D01*
X357395288Y-123599368D01*
X357406465Y-123620113D01*
X357416581Y-123641642D01*
X357425633Y-123663957D01*
X357433618Y-123687065D01*
X357440536Y-123710960D01*
X357446387Y-123735648D01*
X357451187Y-123761117D01*
X357454902Y-123787378D01*
X357457564Y-123814422D01*
X357459166Y-123842261D01*
X357459696Y-123870881D01*
X357459700Y-125415291D01*
X357005469Y-125415291D01*
X357005469Y-124027350D01*
X357005318Y-124018659D01*
X357004870Y-124010236D01*
X357004136Y-124002097D01*
X357003101Y-123994219D01*
X357001769Y-123986635D01*
X357000147Y-123979322D01*
X356998230Y-123972286D01*
X356996016Y-123965523D01*
X356993502Y-123959036D01*
X356990693Y-123952827D01*
X356987598Y-123946893D01*
X356984191Y-123941230D01*
X356980504Y-123935856D01*
X356976513Y-123930747D01*
X356972228Y-123925913D01*
X356967649Y-123921358D01*
X356962771Y-123917082D01*
X356957607Y-123913082D01*
X356952134Y-123909357D01*
X356946370Y-123905899D01*
X356940309Y-123902730D01*
X356933957Y-123899834D01*
X356927302Y-123897211D01*
X356920360Y-123894859D01*
X356913114Y-123892794D01*
X356905574Y-123891003D01*
X356897743Y-123889486D01*
X356889612Y-123888238D01*
X356881184Y-123887266D01*
X356872460Y-123886586D01*
X356863451Y-123886167D01*
X356854129Y-123886030D01*
X356086866Y-123886042D01*
X356086866Y-123966778D01*
X356099463Y-123972662D01*
X356112022Y-123978921D01*
X356124541Y-123985591D01*
X356137023Y-123992651D01*
X356149459Y-124000099D01*
X356161862Y-124007944D01*
X356174223Y-124016186D01*
X356186544Y-124024827D01*
X356198827Y-124033854D01*
X356211073Y-124043281D01*
X356223278Y-124053103D01*
X356235436Y-124063311D01*
X356247567Y-124073915D01*
X356259651Y-124084911D01*
X356271696Y-124096312D01*
X356283703Y-124108097D01*
X356294936Y-124119716D01*
X356305941Y-124131833D01*
X356316700Y-124144474D01*
X356327235Y-124157623D01*
X356337525Y-124171290D01*
X356347584Y-124185465D01*
X356357396Y-124200155D01*
X356366975Y-124215351D01*
X356376323Y-124231063D01*
X356385432Y-124247296D01*
X356394305Y-124264031D01*
X356402936Y-124281281D01*
X356411338Y-124299040D01*
X356419498Y-124317314D01*
X356427420Y-124336100D01*
X356435111Y-124355404D01*
X356442446Y-124375280D01*
X356449305Y-124395781D01*
X356455690Y-124416920D01*
X356461605Y-124438678D01*
X356467054Y-124461080D01*
X356472014Y-124484101D01*
X356476511Y-124507762D01*
X356480533Y-124532053D01*
X356484084Y-124556971D01*
X356487152Y-124582523D01*
X356489756Y-124608705D01*
X356491889Y-124635519D01*
X356493548Y-124662960D01*
X356494728Y-124691035D01*
X356495440Y-124719743D01*
X356495678Y-124749068D01*
X356495185Y-124784170D01*
X356493704Y-124818788D01*
X356491240Y-124852936D01*
X356487789Y-124886610D01*
X356483347Y-124919810D01*
X356477939Y-124952536D01*
X356471521Y-124984791D01*
X356464133Y-125016567D01*
X356455748Y-125047876D01*
X356446389Y-125078710D01*
X356436037Y-125109072D01*
X356424699Y-125138968D01*
X356412377Y-125168376D01*
X356399070Y-125197317D01*
X356384776Y-125225788D01*
X356369502Y-125253779D01*
X356353317Y-125281163D01*
X356336298Y-125307800D01*
X356318459Y-125333686D01*
X356299783Y-125358821D01*
X356280291Y-125383215D01*
X356259961Y-125406854D01*
X356238808Y-125429740D01*
X356216830Y-125451878D01*
X356194015Y-125473269D01*
X356170374Y-125493906D01*
X356145911Y-125513807D01*
X356120617Y-125532948D01*
X356094490Y-125551336D01*
X356067546Y-125568984D01*
X356039765Y-125585883D01*
X356011162Y-125602027D01*
X355981801Y-125617307D01*
X355951772Y-125631597D01*
X355921079Y-125644910D01*
X355889713Y-125657234D01*
X355857678Y-125668566D01*
X355824971Y-125678918D01*
X355791588Y-125688279D01*
X355757540Y-125696657D01*
X355722821Y-125704047D01*
X355687439Y-125710457D01*
X355651375Y-125715879D01*
X355614650Y-125720319D01*
X355577249Y-125723768D01*
X355539178Y-125726230D01*
X355500440Y-125727716D01*
X355461030Y-125728204D01*
X353962055Y-125728204D01*
X353962055Y-125208358D01*
X355420654Y-125208358D01*
X355460383Y-125207721D01*
X355498801Y-125205833D01*
X355535935Y-125202681D01*
X355571746Y-125198263D01*
X355606275Y-125192587D01*
X355639493Y-125185651D01*
X355671410Y-125177442D01*
X355702030Y-125167982D01*
X355731351Y-125157252D01*
X355759355Y-125145269D01*
X355786072Y-125132021D01*
X355811489Y-125117513D01*
X355835599Y-125101740D01*
X355858406Y-125084707D01*
X355879918Y-125066413D01*
X355900119Y-125046851D01*
X355918459Y-125026172D01*
X355935613Y-125004504D01*
X355951581Y-124981854D01*
X355966365Y-124958218D01*
X355979971Y-124933588D01*
X355992390Y-124907980D01*
X356003625Y-124881384D01*
X356013683Y-124853803D01*
X356022553Y-124825234D01*
X356030247Y-124795683D01*
X356036745Y-124765138D01*
X356042071Y-124733619D01*
X356046209Y-124701107D01*
X356049165Y-124667610D01*
X356050940Y-124633129D01*
X356051539Y-124597664D01*
X356050703Y-124558417D01*
X356048217Y-124520150D01*
X356044079Y-124482858D01*
X356038290Y-124446570D01*
X356030836Y-124411262D01*
X356021721Y-124376934D01*
X356010962Y-124343598D01*
X355998539Y-124311244D01*
X355984464Y-124279876D01*
X355968731Y-124249499D01*
X355951344Y-124220100D01*
X355932293Y-124191694D01*
X355911601Y-124164269D01*
X355889241Y-124137834D01*
X355865227Y-124112371D01*
X355839562Y-124087913D01*
X355812306Y-124064077D01*
X355783563Y-124041781D01*
X355753323Y-124021021D01*
X355721581Y-124001798D01*
X355688349Y-123984113D01*
X355653605Y-123967964D01*
X355617372Y-123953358D01*
X355579636Y-123940283D01*
X355540406Y-123928751D01*
X355499671Y-123918761D01*
X355457437Y-123910301D01*
X355413710Y-123903379D01*
X355368485Y-123897996D01*
X355321769Y-123894154D01*
X355273539Y-123891849D01*
X355223817Y-123891076D01*
X353962055Y-123891076D01*
X353962055Y-123371226D01*
X356960040Y-123371226D01*
X356988071Y-123371759D01*
G37*
G36*
X356442100Y-115032701D02*
G01*
X356471470Y-115034935D01*
X356500412Y-115038614D01*
X356528888Y-115043700D01*
X356556862Y-115050159D01*
X356584304Y-115057947D01*
X356611178Y-115067039D01*
X356637440Y-115077384D01*
X356663053Y-115088972D01*
X356687992Y-115101743D01*
X356712204Y-115115674D01*
X356735661Y-115130702D01*
X356758337Y-115146827D01*
X356780173Y-115163997D01*
X356801165Y-115182166D01*
X356821242Y-115201315D01*
X356840397Y-115221404D01*
X356858568Y-115242381D01*
X356875739Y-115264229D01*
X356891863Y-115286905D01*
X356906900Y-115310357D01*
X356920822Y-115334582D01*
X356933595Y-115359517D01*
X356945176Y-115385132D01*
X356955524Y-115411385D01*
X356964620Y-115438260D01*
X356972408Y-115465701D01*
X356978866Y-115493670D01*
X356983959Y-115522157D01*
X356987624Y-115551095D01*
X356989866Y-115580459D01*
X356990615Y-115610215D01*
X356990615Y-117923303D01*
X356989866Y-117953048D01*
X356987624Y-117982407D01*
X356983959Y-118011340D01*
X356978866Y-118039812D01*
X356972408Y-118067782D01*
X356964620Y-118095219D01*
X356955524Y-118122088D01*
X356945176Y-118148341D01*
X356933595Y-118173958D01*
X356920822Y-118198891D01*
X356906900Y-118223116D01*
X356891863Y-118246568D01*
X356875739Y-118269243D01*
X356858568Y-118291088D01*
X356840397Y-118312074D01*
X356821242Y-118332162D01*
X356801165Y-118351307D01*
X356780173Y-118369485D01*
X356758337Y-118386659D01*
X356735661Y-118402783D01*
X356712204Y-118417826D01*
X356687992Y-118431746D01*
X356663053Y-118444525D01*
X356637440Y-118456110D01*
X356611178Y-118466474D01*
X356584304Y-118475561D01*
X356556862Y-118483356D01*
X356528888Y-118489818D01*
X356500412Y-118494909D01*
X356471470Y-118498578D01*
X356442100Y-118500823D01*
X356412346Y-118501567D01*
X354118574Y-118501567D01*
X354099263Y-118501567D01*
X354069505Y-118500823D01*
X354040132Y-118498578D01*
X354011193Y-118494909D01*
X353982715Y-118489818D01*
X353954745Y-118483356D01*
X353927304Y-118475561D01*
X353900425Y-118466474D01*
X353874168Y-118456110D01*
X353848559Y-118444525D01*
X353823621Y-118431746D01*
X353799401Y-118417826D01*
X353775940Y-118402783D01*
X353753272Y-118386659D01*
X353731424Y-118369485D01*
X353710443Y-118351307D01*
X353690354Y-118332162D01*
X353671214Y-118312074D01*
X353653039Y-118291088D01*
X353635872Y-118269243D01*
X353619747Y-118246568D01*
X353604706Y-118223116D01*
X353590785Y-118198891D01*
X353578015Y-118173958D01*
X353566436Y-118148341D01*
X353556082Y-118122088D01*
X353546989Y-118095219D01*
X353539199Y-118067782D01*
X353532738Y-118039812D01*
X353527656Y-118011340D01*
X353523972Y-117982407D01*
X353521743Y-117953048D01*
X353520994Y-117923303D01*
X353520994Y-115802896D01*
X353636647Y-115802896D01*
X353636647Y-117730502D01*
X353637239Y-117754397D01*
X353639009Y-117778138D01*
X353641923Y-117801668D01*
X353645991Y-117824972D01*
X353651186Y-117847982D01*
X353657481Y-117870671D01*
X353664869Y-117893001D01*
X353673329Y-117914934D01*
X353682856Y-117936421D01*
X353693413Y-117957438D01*
X353705011Y-117977943D01*
X353717611Y-117997876D01*
X353731209Y-118017222D01*
X353745785Y-118035935D01*
X353761320Y-118053962D01*
X353777797Y-118071282D01*
X353795118Y-118087760D01*
X353813142Y-118103293D01*
X353831856Y-118117867D01*
X353851198Y-118131473D01*
X353871142Y-118144067D01*
X353891636Y-118155661D01*
X353912658Y-118166225D01*
X353934148Y-118175752D01*
X353956085Y-118184217D01*
X353978415Y-118191607D01*
X354001105Y-118197903D01*
X354024113Y-118203092D01*
X354047405Y-118207166D01*
X354070943Y-118210084D01*
X354094674Y-118211850D01*
X354118574Y-118212439D01*
X356046070Y-118212439D01*
X356069966Y-118211850D01*
X356093698Y-118210084D01*
X356117237Y-118207166D01*
X356140522Y-118203092D01*
X356163539Y-118197903D01*
X356186229Y-118191607D01*
X356208562Y-118184217D01*
X356230491Y-118175752D01*
X356251984Y-118166225D01*
X356273008Y-118155661D01*
X356293504Y-118144067D01*
X356313444Y-118131473D01*
X356332791Y-118117867D01*
X356351498Y-118103293D01*
X356369526Y-118087760D01*
X356386840Y-118071282D01*
X356403322Y-118053962D01*
X356418855Y-118035935D01*
X356433431Y-118017222D01*
X356447031Y-117997876D01*
X356459630Y-117977943D01*
X356471228Y-117957438D01*
X356481794Y-117936424D01*
X356491318Y-117914934D01*
X356499779Y-117893005D01*
X356507170Y-117870671D01*
X356513454Y-117847982D01*
X356518655Y-117824972D01*
X356522716Y-117801668D01*
X356525640Y-117778138D01*
X356527407Y-117754397D01*
X356528001Y-117730502D01*
X356528001Y-115803011D01*
X356527411Y-115779121D01*
X356525651Y-115755386D01*
X356522735Y-115731850D01*
X356518678Y-115708556D01*
X356513488Y-115685549D01*
X356507200Y-115662855D01*
X356499814Y-115640531D01*
X356491353Y-115618597D01*
X356481841Y-115597109D01*
X356471277Y-115576088D01*
X356459689Y-115555594D01*
X356447096Y-115535653D01*
X356433497Y-115516307D01*
X356418925Y-115497597D01*
X356403391Y-115479561D01*
X356386921Y-115462247D01*
X356369602Y-115445765D01*
X356351581Y-115430228D01*
X356332866Y-115415649D01*
X356313525Y-115402059D01*
X356293589Y-115389450D01*
X356273090Y-115377862D01*
X356252071Y-115367301D01*
X356230579Y-115357774D01*
X356208639Y-115349308D01*
X356186307Y-115341918D01*
X356163601Y-115335615D01*
X356140593Y-115330426D01*
X356117286Y-115326366D01*
X356093733Y-115323444D01*
X356069985Y-115321680D01*
X356046070Y-115321085D01*
X354118574Y-115321085D01*
X354094678Y-115321670D01*
X354070945Y-115323427D01*
X354047413Y-115326351D01*
X354024119Y-115330406D01*
X354001112Y-115335595D01*
X353978419Y-115341881D01*
X353956090Y-115349265D01*
X353934156Y-115357728D01*
X353912662Y-115367244D01*
X353891644Y-115377804D01*
X353871148Y-115389395D01*
X353851207Y-115402001D01*
X353831864Y-115415585D01*
X353813161Y-115430162D01*
X353795121Y-115445688D01*
X353777810Y-115462170D01*
X353761332Y-115479477D01*
X353745795Y-115497507D01*
X353731221Y-115516212D01*
X353717614Y-115535554D01*
X353705021Y-115555492D01*
X353693418Y-115575992D01*
X353682858Y-115596999D01*
X353673339Y-115618491D01*
X353664870Y-115640417D01*
X353657484Y-115662749D01*
X353651186Y-115685442D01*
X353645992Y-115708448D01*
X353641931Y-115731737D01*
X353639009Y-115755271D01*
X353637239Y-115779007D01*
X353636647Y-115802896D01*
X353520994Y-115802896D01*
X353520994Y-115610215D01*
X353521743Y-115580459D01*
X353523972Y-115551095D01*
X353527656Y-115522157D01*
X353532738Y-115493670D01*
X353539199Y-115465701D01*
X353546989Y-115438260D01*
X353556082Y-115411385D01*
X353566436Y-115385132D01*
X353578015Y-115359517D01*
X353590785Y-115334582D01*
X353604706Y-115310357D01*
X353619747Y-115286905D01*
X353635872Y-115264229D01*
X353653039Y-115242381D01*
X353671214Y-115221404D01*
X353690354Y-115201315D01*
X353710443Y-115182166D01*
X353731424Y-115163997D01*
X353753272Y-115146827D01*
X353775940Y-115130702D01*
X353799401Y-115115674D01*
X353823621Y-115101743D01*
X353848559Y-115088972D01*
X353874168Y-115077384D01*
X353900425Y-115067039D01*
X353927304Y-115057947D01*
X353954745Y-115050159D01*
X353982715Y-115043700D01*
X354011193Y-115038614D01*
X354040132Y-115034935D01*
X354069505Y-115032701D01*
X354099263Y-115031944D01*
X356412346Y-115031944D01*
X356442100Y-115032701D01*
G37*
G36*
X356442100Y-119102536D02*
G01*
X356471470Y-119104769D01*
X356500412Y-119108448D01*
X356528888Y-119113527D01*
X356556862Y-119119988D01*
X356584304Y-119127779D01*
X356611178Y-119136869D01*
X356637440Y-119147225D01*
X356663053Y-119158808D01*
X356687992Y-119171574D01*
X356712204Y-119185500D01*
X356735661Y-119200537D01*
X356758337Y-119216662D01*
X356780173Y-119233832D01*
X356801165Y-119252009D01*
X356821242Y-119271154D01*
X356840397Y-119291234D01*
X356858568Y-119312218D01*
X356875739Y-119334058D01*
X356891863Y-119356735D01*
X356906900Y-119380192D01*
X356920822Y-119404411D01*
X356933595Y-119429345D01*
X356945176Y-119454960D01*
X356955524Y-119481224D01*
X356964620Y-119508090D01*
X356972408Y-119535528D01*
X356978866Y-119563510D01*
X356983959Y-119591987D01*
X356987624Y-119620930D01*
X356989866Y-119650292D01*
X356990615Y-119680050D01*
X356990615Y-121993130D01*
X356989866Y-122022882D01*
X356987624Y-122052244D01*
X356983959Y-122081170D01*
X356978866Y-122109649D01*
X356972408Y-122137616D01*
X356964620Y-122165059D01*
X356955524Y-122191917D01*
X356945176Y-122218172D01*
X356933595Y-122243791D01*
X356920822Y-122268723D01*
X356906900Y-122292939D01*
X356891863Y-122316405D01*
X356875739Y-122339076D01*
X356858568Y-122360925D01*
X356840397Y-122381909D01*
X356821242Y-122401990D01*
X356801165Y-122421140D01*
X356780173Y-122439315D01*
X356758337Y-122456490D01*
X356735661Y-122472616D01*
X356712204Y-122487658D01*
X356687992Y-122501589D01*
X356663053Y-122514357D01*
X356637440Y-122525952D01*
X356611178Y-122536300D01*
X356584304Y-122545397D01*
X356556862Y-122553193D01*
X356528888Y-122559651D01*
X356500412Y-122564737D01*
X356471470Y-122568420D01*
X356442100Y-122570646D01*
X356412346Y-122571401D01*
X354118574Y-122571401D01*
X354099263Y-122571401D01*
X354069505Y-122570646D01*
X354040132Y-122568420D01*
X354011193Y-122564737D01*
X353982715Y-122559651D01*
X353954745Y-122553193D01*
X353927304Y-122545397D01*
X353900425Y-122536300D01*
X353874168Y-122525952D01*
X353848559Y-122514357D01*
X353823621Y-122501589D01*
X353799401Y-122487658D01*
X353775940Y-122472616D01*
X353753272Y-122456490D01*
X353731424Y-122439315D01*
X353710443Y-122421140D01*
X353690354Y-122401990D01*
X353671214Y-122381909D01*
X353653039Y-122360925D01*
X353635872Y-122339076D01*
X353619747Y-122316405D01*
X353604706Y-122292939D01*
X353590785Y-122268723D01*
X353578015Y-122243791D01*
X353566436Y-122218172D01*
X353556082Y-122191917D01*
X353546989Y-122165059D01*
X353539199Y-122137616D01*
X353532738Y-122109649D01*
X353527656Y-122081170D01*
X353523972Y-122052244D01*
X353521743Y-122022882D01*
X353520994Y-121993130D01*
X353520994Y-119872735D01*
X353636647Y-119872735D01*
X353636647Y-121800339D01*
X353637239Y-121824237D01*
X353639009Y-121847970D01*
X353641923Y-121871501D01*
X353645991Y-121894804D01*
X353651186Y-121917806D01*
X353657481Y-121940497D01*
X353664869Y-121962834D01*
X353673329Y-121984763D01*
X353682856Y-122006255D01*
X353693413Y-122027272D01*
X353705011Y-122047776D01*
X353717611Y-122067714D01*
X353731209Y-122087054D01*
X353745785Y-122105764D01*
X353761320Y-122123794D01*
X353777797Y-122141114D01*
X353795118Y-122157592D01*
X353813142Y-122173135D01*
X353831856Y-122187710D01*
X353851198Y-122201297D01*
X353871142Y-122213906D01*
X353891636Y-122225495D01*
X353912658Y-122236060D01*
X353934148Y-122245585D01*
X353956085Y-122254046D01*
X353978415Y-122261440D01*
X354001105Y-122267734D01*
X354024113Y-122272924D01*
X354047405Y-122276991D01*
X354070943Y-122279907D01*
X354094674Y-122281678D01*
X354118574Y-122282269D01*
X356046070Y-122282269D01*
X356069966Y-122281678D01*
X356093698Y-122279907D01*
X356117237Y-122276991D01*
X356140522Y-122272924D01*
X356163539Y-122267734D01*
X356186229Y-122261440D01*
X356208562Y-122254046D01*
X356230491Y-122245585D01*
X356251984Y-122236060D01*
X356273008Y-122225495D01*
X356293504Y-122213906D01*
X356313444Y-122201297D01*
X356332791Y-122187710D01*
X356351498Y-122173135D01*
X356369526Y-122157592D01*
X356386840Y-122141114D01*
X356403322Y-122123794D01*
X356418855Y-122105764D01*
X356433431Y-122087054D01*
X356447031Y-122067714D01*
X356459630Y-122047776D01*
X356471228Y-122027272D01*
X356481794Y-122006255D01*
X356491318Y-121984763D01*
X356499779Y-121962834D01*
X356507170Y-121940497D01*
X356513454Y-121917806D01*
X356518655Y-121894804D01*
X356522716Y-121871501D01*
X356525640Y-121847970D01*
X356527407Y-121824237D01*
X356528001Y-121800339D01*
X356528001Y-119872848D01*
X356527411Y-119848954D01*
X356525651Y-119825221D01*
X356522735Y-119801683D01*
X356518678Y-119778392D01*
X356513488Y-119755387D01*
X356507200Y-119732703D01*
X356499814Y-119710369D01*
X356491353Y-119688428D01*
X356481841Y-119666946D01*
X356471277Y-119645923D01*
X356459689Y-119625414D01*
X356447096Y-119605483D01*
X356433497Y-119586137D01*
X356418925Y-119567432D01*
X356403391Y-119549399D01*
X356386921Y-119532080D01*
X356369602Y-119515603D01*
X356351581Y-119500063D01*
X356332866Y-119485490D01*
X356313525Y-119471891D01*
X356293589Y-119459297D01*
X356273090Y-119447700D01*
X356252071Y-119437132D01*
X356230579Y-119427606D01*
X356208639Y-119419139D01*
X356186307Y-119411751D01*
X356163601Y-119405453D01*
X356140593Y-119400263D01*
X356117286Y-119396203D01*
X356093733Y-119393278D01*
X356069985Y-119391510D01*
X356046070Y-119390909D01*
X354118574Y-119390909D01*
X354094678Y-119391508D01*
X354070945Y-119393267D01*
X354047413Y-119396183D01*
X354024119Y-119400243D01*
X354001112Y-119405423D01*
X353978419Y-119411717D01*
X353956090Y-119419099D01*
X353934156Y-119427560D01*
X353912662Y-119437078D01*
X353891644Y-119447642D01*
X353871148Y-119459234D01*
X353851207Y-119471829D01*
X353831864Y-119485420D01*
X353813161Y-119499991D01*
X353795121Y-119515526D01*
X353777810Y-119531997D01*
X353761332Y-119549312D01*
X353745795Y-119567333D01*
X353731221Y-119586047D01*
X353717614Y-119605390D01*
X353705021Y-119625322D01*
X353693418Y-119645821D01*
X353682858Y-119666834D01*
X353673339Y-119688331D01*
X353664870Y-119710260D01*
X353657484Y-119732582D01*
X353651186Y-119755273D01*
X353645992Y-119778279D01*
X353641931Y-119801560D01*
X353639009Y-119825107D01*
X353637239Y-119848845D01*
X353636647Y-119872735D01*
X353520994Y-119872735D01*
X353520994Y-119680050D01*
X353521743Y-119650292D01*
X353523972Y-119620930D01*
X353527656Y-119591987D01*
X353532738Y-119563510D01*
X353539199Y-119535528D01*
X353546989Y-119508090D01*
X353556082Y-119481224D01*
X353566436Y-119454960D01*
X353578015Y-119429345D01*
X353590785Y-119404411D01*
X353604706Y-119380192D01*
X353619747Y-119356735D01*
X353635872Y-119334058D01*
X353653039Y-119312218D01*
X353671214Y-119291234D01*
X353690354Y-119271154D01*
X353710443Y-119252009D01*
X353731424Y-119233832D01*
X353753272Y-119216662D01*
X353775940Y-119200537D01*
X353799401Y-119185500D01*
X353823621Y-119171574D01*
X353848559Y-119158808D01*
X353874168Y-119147225D01*
X353900425Y-119136869D01*
X353927304Y-119127779D01*
X353954745Y-119119988D01*
X353982715Y-119113527D01*
X354011193Y-119108448D01*
X354040132Y-119104769D01*
X354069505Y-119102536D01*
X354099263Y-119101779D01*
X356412346Y-119101779D01*
X356442100Y-119102536D01*
G37*
G36*
X355349991Y-128241639D02*
G01*
X355390490Y-128239607D01*
X355429954Y-128236035D01*
X355468406Y-128230933D01*
X355505818Y-128224286D01*
X355542219Y-128216102D01*
X355577585Y-128206383D01*
X355611924Y-128195122D01*
X355645247Y-128182326D01*
X355677539Y-128167999D01*
X355708809Y-128152136D01*
X355739050Y-128134722D01*
X355768265Y-128115778D01*
X355796459Y-128095289D01*
X355823626Y-128073267D01*
X355849771Y-128049707D01*
X355874884Y-128024614D01*
X355898110Y-127997723D01*
X355919834Y-127970040D01*
X355940065Y-127941570D01*
X355958792Y-127912313D01*
X355976021Y-127882271D01*
X355991754Y-127851436D01*
X356005990Y-127819813D01*
X356018724Y-127787399D01*
X356029965Y-127754200D01*
X356039705Y-127720213D01*
X356047942Y-127685438D01*
X356054682Y-127649867D01*
X356059929Y-127613515D01*
X356063681Y-127576375D01*
X356065923Y-127538439D01*
X356066677Y-127499720D01*
X356066155Y-127463697D01*
X356064624Y-127428825D01*
X356062062Y-127395092D01*
X356058474Y-127362504D01*
X356053854Y-127331058D01*
X356048215Y-127300754D01*
X356041553Y-127271593D01*
X356033873Y-127243578D01*
X356025154Y-127216709D01*
X356015415Y-127190981D01*
X356004653Y-127166403D01*
X355992862Y-127142953D01*
X355980046Y-127120657D01*
X355966208Y-127099502D01*
X355951340Y-127079495D01*
X355935450Y-127060626D01*
X355918891Y-127041974D01*
X355902010Y-127023878D01*
X355884821Y-127006327D01*
X355867313Y-126989332D01*
X355849488Y-126972896D01*
X355831356Y-126957004D01*
X355812894Y-126941662D01*
X355794129Y-126926877D01*
X355775049Y-126912641D01*
X355755648Y-126898956D01*
X355735929Y-126885827D01*
X355715902Y-126873247D01*
X355695558Y-126861219D01*
X355674897Y-126849753D01*
X355653921Y-126838828D01*
X355632626Y-126828459D01*
X355854693Y-126399460D01*
X355872421Y-126408551D01*
X355890263Y-126418151D01*
X355926296Y-126438890D01*
X355962814Y-126461675D01*
X355999800Y-126486519D01*
X356037257Y-126513412D01*
X356075190Y-126542356D01*
X356113590Y-126573347D01*
X356152471Y-126606390D01*
X356171834Y-126623123D01*
X356190800Y-126640539D01*
X356209368Y-126658610D01*
X356227547Y-126677368D01*
X356245327Y-126696782D01*
X356262722Y-126716867D01*
X356279717Y-126737634D01*
X356296308Y-126759060D01*
X356312521Y-126781156D01*
X356328325Y-126803931D01*
X356343746Y-126827375D01*
X356358769Y-126851487D01*
X356373393Y-126876270D01*
X356387630Y-126901718D01*
X356401470Y-126927841D01*
X356414919Y-126954635D01*
X356427756Y-126982238D01*
X356439753Y-127010785D01*
X356450941Y-127040273D01*
X356461289Y-127070715D01*
X356470808Y-127102103D01*
X356479511Y-127134435D01*
X356487374Y-127167720D01*
X356494413Y-127201941D01*
X356500620Y-127237117D01*
X356506002Y-127273240D01*
X356510554Y-127310290D01*
X356514285Y-127348307D01*
X356517181Y-127387263D01*
X356519246Y-127427165D01*
X356520495Y-127468019D01*
X356520913Y-127509816D01*
X356520914Y-127509816D01*
X356520298Y-127556759D01*
X356518462Y-127602948D01*
X356515407Y-127648389D01*
X356511130Y-127693084D01*
X356505630Y-127737034D01*
X356498905Y-127780224D01*
X356490964Y-127822672D01*
X356481795Y-127864368D01*
X356471410Y-127905317D01*
X356459794Y-127945514D01*
X356446963Y-127984960D01*
X356432908Y-128023666D01*
X356417625Y-128061619D01*
X356401122Y-128098819D01*
X356383399Y-128135270D01*
X356364456Y-128170979D01*
X356343769Y-128205831D01*
X356322103Y-128239741D01*
X356299454Y-128272709D01*
X356275811Y-128304719D01*
X356251188Y-128335789D01*
X356225578Y-128365919D01*
X356198987Y-128395098D01*
X356171396Y-128423328D01*
X356142837Y-128450615D01*
X356113279Y-128476953D01*
X356082744Y-128502344D01*
X356051219Y-128526793D01*
X356018708Y-128550291D01*
X355985213Y-128572845D01*
X355950728Y-128594457D01*
X355915267Y-128615118D01*
X355878318Y-128634060D01*
X355840660Y-128651789D01*
X355802293Y-128668289D01*
X355763220Y-128683566D01*
X355723438Y-128697616D01*
X355682942Y-128710463D01*
X355641734Y-128722073D01*
X355599819Y-128732459D01*
X355557199Y-128741628D01*
X355513862Y-128749574D01*
X355469820Y-128756296D01*
X355425067Y-128761797D01*
X355379608Y-128766074D01*
X355333430Y-128769129D01*
X355286547Y-128770965D01*
X355238961Y-128771575D01*
X355178387Y-128771575D01*
X355130207Y-128770965D01*
X355082817Y-128769129D01*
X355036209Y-128766074D01*
X354990392Y-128761797D01*
X354951270Y-128757021D01*
X354945363Y-128756296D01*
X354901121Y-128749574D01*
X354857668Y-128741628D01*
X354815005Y-128732459D01*
X354773133Y-128722073D01*
X354732041Y-128710463D01*
X354691746Y-128697616D01*
X354652237Y-128683566D01*
X354613515Y-128668289D01*
X354575597Y-128651789D01*
X354538445Y-128634060D01*
X354502093Y-128615118D01*
X354466027Y-128595084D01*
X354431032Y-128574107D01*
X354397106Y-128552184D01*
X354364241Y-128529316D01*
X354332441Y-128505503D01*
X354301706Y-128480743D01*
X354272034Y-128455034D01*
X354243426Y-128428378D01*
X354215890Y-128400776D01*
X354189407Y-128372228D01*
X354163997Y-128342730D01*
X354139646Y-128312294D01*
X354116364Y-128280903D01*
X354094147Y-128248576D01*
X354072989Y-128215294D01*
X354052900Y-128181074D01*
X354033340Y-128145410D01*
X354015046Y-128109074D01*
X353998013Y-128072069D01*
X353982244Y-128034392D01*
X353967736Y-127996044D01*
X353954484Y-127957022D01*
X353942491Y-127917340D01*
X353931771Y-127876986D01*
X353922306Y-127835959D01*
X353914109Y-127794265D01*
X353907165Y-127751888D01*
X353901494Y-127708852D01*
X353897071Y-127665150D01*
X353893917Y-127620766D01*
X353892023Y-127575713D01*
X353891467Y-127535046D01*
X354350670Y-127535046D01*
X354351303Y-127571228D01*
X354353199Y-127606573D01*
X354356354Y-127641096D01*
X354360774Y-127674790D01*
X354366450Y-127707656D01*
X354373387Y-127739689D01*
X354381593Y-127770902D01*
X354391054Y-127801281D01*
X354401780Y-127830834D01*
X354413766Y-127859559D01*
X354427011Y-127887456D01*
X354441518Y-127914526D01*
X354457297Y-127940765D01*
X354474334Y-127966179D01*
X354492627Y-127990757D01*
X354512183Y-128014519D01*
X354532234Y-128036682D01*
X354553269Y-128057733D01*
X354575297Y-128077685D01*
X354598299Y-128096533D01*
X354622296Y-128114278D01*
X354647269Y-128130916D01*
X354673235Y-128146450D01*
X354700187Y-128160884D01*
X354728126Y-128174206D01*
X354757040Y-128186429D01*
X354786951Y-128197552D01*
X354817842Y-128207569D01*
X354849730Y-128216478D01*
X354882594Y-128224286D01*
X354916441Y-128230990D01*
X354951270Y-128236590D01*
X354951270Y-126858744D01*
X354916441Y-126861897D01*
X354882587Y-126866314D01*
X354849724Y-126871987D01*
X354817839Y-126878927D01*
X354786949Y-126887125D01*
X354757040Y-126896591D01*
X354728126Y-126907318D01*
X354700185Y-126919305D01*
X354673234Y-126932558D01*
X354647266Y-126947063D01*
X354622290Y-126962832D01*
X354598299Y-126979872D01*
X354575288Y-126998168D01*
X354553263Y-127017723D01*
X354532234Y-127038544D01*
X354512183Y-127060626D01*
X354492627Y-127083777D01*
X354474334Y-127107785D01*
X354457297Y-127132662D01*
X354441518Y-127158409D01*
X354427011Y-127185024D01*
X354413766Y-127212513D01*
X354401780Y-127240860D01*
X354391054Y-127270081D01*
X354381593Y-127300166D01*
X354373387Y-127331117D01*
X354366450Y-127362936D01*
X354360774Y-127395625D01*
X354356354Y-127429181D01*
X354353199Y-127463602D01*
X354351303Y-127498889D01*
X354350670Y-127535046D01*
X353891467Y-127535046D01*
X353891398Y-127529998D01*
X353892023Y-127485558D01*
X353893917Y-127441838D01*
X353897071Y-127398811D01*
X353901494Y-127356508D01*
X353907165Y-127314906D01*
X353914109Y-127274020D01*
X353922306Y-127233839D01*
X353931771Y-127194369D01*
X353942491Y-127155609D01*
X353954484Y-127117558D01*
X353967736Y-127080221D01*
X353982244Y-127043592D01*
X353998013Y-127007672D01*
X354015046Y-126972460D01*
X354033340Y-126937954D01*
X354052900Y-126904168D01*
X354072956Y-126870569D01*
X354093992Y-126837924D01*
X354116014Y-126806221D01*
X354139016Y-126775463D01*
X354163012Y-126745652D01*
X354187990Y-126716793D01*
X354213948Y-126688880D01*
X354240902Y-126661905D01*
X354268845Y-126635887D01*
X354297761Y-126610804D01*
X354327669Y-126586674D01*
X354358565Y-126563486D01*
X354390444Y-126541255D01*
X354423304Y-126519959D01*
X354457161Y-126499611D01*
X354491990Y-126480208D01*
X354527701Y-126461876D01*
X354564150Y-126444721D01*
X354601354Y-126428756D01*
X354639304Y-126413961D01*
X354678007Y-126400362D01*
X354717452Y-126387947D01*
X354757648Y-126376710D01*
X354798600Y-126366657D01*
X354840298Y-126357786D01*
X354882743Y-126350091D01*
X354925945Y-126343586D01*
X354969886Y-126338263D01*
X355014581Y-126334126D01*
X355060021Y-126331166D01*
X355106216Y-126329395D01*
X355153155Y-126328801D01*
X355349991Y-126328801D01*
X355349991Y-128241639D01*
G37*
G36*
X355427488Y-120258929D02*
G01*
X355460965Y-120260764D01*
X355493587Y-120263803D01*
X355525346Y-120268063D01*
X355556248Y-120273537D01*
X355586285Y-120280238D01*
X355615469Y-120288144D01*
X355643784Y-120297278D01*
X355671249Y-120307631D01*
X355697844Y-120319196D01*
X355723586Y-120331976D01*
X355748471Y-120345978D01*
X355772491Y-120361195D01*
X355795650Y-120377632D01*
X355817954Y-120395293D01*
X355839395Y-120414163D01*
X355859741Y-120434023D01*
X355878780Y-120454567D01*
X355896509Y-120475793D01*
X355912927Y-120497717D01*
X355928033Y-120520331D01*
X355941829Y-120543639D01*
X355954308Y-120567639D01*
X355965480Y-120592323D01*
X355975341Y-120617705D01*
X355983885Y-120643777D01*
X355991118Y-120670532D01*
X355997033Y-120697984D01*
X356001637Y-120726120D01*
X356004920Y-120754948D01*
X356006901Y-120784464D01*
X356007559Y-120814677D01*
X356006721Y-120847094D01*
X356004227Y-120878778D01*
X356000059Y-120909740D01*
X355994226Y-120939977D01*
X355986719Y-120969477D01*
X355977554Y-120998255D01*
X355966718Y-121026292D01*
X355954221Y-121053618D01*
X355940064Y-121080207D01*
X355924229Y-121106064D01*
X355906739Y-121131196D01*
X355887578Y-121155603D01*
X355866753Y-121179270D01*
X355844261Y-121202219D01*
X355820107Y-121224412D01*
X355794289Y-121245891D01*
X355766572Y-121266348D01*
X355736733Y-121285477D01*
X355704765Y-121303293D01*
X355670660Y-121319795D01*
X355634435Y-121334975D01*
X355596074Y-121348837D01*
X355555587Y-121361378D01*
X355512968Y-121372597D01*
X355468219Y-121382505D01*
X355421341Y-121391091D01*
X355372339Y-121398349D01*
X355365908Y-121399097D01*
X355321204Y-121404298D01*
X355267933Y-121408924D01*
X355212532Y-121412226D01*
X355154995Y-121414205D01*
X355095334Y-121414867D01*
X355034138Y-121414179D01*
X354975120Y-121412115D01*
X354918273Y-121408674D01*
X354863597Y-121403849D01*
X354811096Y-121397660D01*
X354760770Y-121390088D01*
X354712619Y-121381145D01*
X354666640Y-121370825D01*
X354622834Y-121359128D01*
X354581202Y-121346053D01*
X354541754Y-121331613D01*
X354504477Y-121315788D01*
X354469369Y-121298605D01*
X354436446Y-121280035D01*
X354405699Y-121260094D01*
X354377121Y-121238781D01*
X354350476Y-121216374D01*
X354325544Y-121193139D01*
X354302338Y-121169089D01*
X354280851Y-121144213D01*
X354261079Y-121118510D01*
X354243029Y-121092001D01*
X354226701Y-121064657D01*
X354212088Y-121036494D01*
X354199198Y-121007508D01*
X354188024Y-120977700D01*
X354178568Y-120947078D01*
X354170839Y-120915630D01*
X354164824Y-120883352D01*
X354160522Y-120850259D01*
X354157945Y-120816348D01*
X354157093Y-120781601D01*
X354157538Y-120757220D01*
X354158894Y-120733370D01*
X354161147Y-120710046D01*
X354164310Y-120687248D01*
X354168373Y-120664988D01*
X354173339Y-120643245D01*
X354179199Y-120622039D01*
X354185970Y-120601357D01*
X354193642Y-120581213D01*
X354202220Y-120561585D01*
X354211700Y-120542498D01*
X354222077Y-120523938D01*
X354233364Y-120505906D01*
X354245553Y-120488400D01*
X354258636Y-120471437D01*
X354272629Y-120454991D01*
X354287497Y-120439189D01*
X354303192Y-120424131D01*
X354319687Y-120409791D01*
X354337009Y-120396182D01*
X354355135Y-120383318D01*
X354374082Y-120371178D01*
X354393841Y-120359772D01*
X354414414Y-120349104D01*
X354435794Y-120339170D01*
X354457998Y-120329963D01*
X354480997Y-120321498D01*
X354504816Y-120313766D01*
X354529447Y-120306765D01*
X354554887Y-120300498D01*
X354581137Y-120294975D01*
X354608200Y-120290182D01*
X354645378Y-120611528D01*
X354632616Y-120613160D01*
X354620266Y-120615082D01*
X354608353Y-120617302D01*
X354596850Y-120619815D01*
X354585778Y-120622620D01*
X354575138Y-120625722D01*
X354564908Y-120629116D01*
X354555120Y-120632806D01*
X354545749Y-120636793D01*
X354536811Y-120641082D01*
X354528291Y-120645658D01*
X354520201Y-120650531D01*
X354512547Y-120655703D01*
X354505313Y-120661176D01*
X354498508Y-120666943D01*
X354492141Y-120673002D01*
X354486146Y-120679323D01*
X354480543Y-120685863D01*
X354475338Y-120692651D01*
X354470506Y-120699645D01*
X354466060Y-120706893D01*
X354462012Y-120714365D01*
X354458343Y-120722066D01*
X354455057Y-120729997D01*
X354452162Y-120738161D01*
X354449651Y-120746554D01*
X354447526Y-120755180D01*
X354445784Y-120764038D01*
X354444432Y-120773125D01*
X354443470Y-120782440D01*
X354442891Y-120792000D01*
X354442697Y-120801782D01*
X354443084Y-120814811D01*
X354444240Y-120827571D01*
X354446171Y-120840091D01*
X354448877Y-120852347D01*
X354452350Y-120864358D01*
X354456598Y-120876104D01*
X354461618Y-120887597D01*
X354467407Y-120898840D01*
X354473975Y-120909821D01*
X354481306Y-120920548D01*
X354489418Y-120931019D01*
X354498292Y-120941235D01*
X354507948Y-120951201D01*
X354518364Y-120960903D01*
X354529557Y-120970344D01*
X354541528Y-120979540D01*
X354554726Y-120988415D01*
X354569603Y-120996872D01*
X354586149Y-121004903D01*
X354604363Y-121012518D01*
X354624251Y-121019699D01*
X354645810Y-121026480D01*
X354669039Y-121032834D01*
X354693934Y-121038760D01*
X354720511Y-121044271D01*
X354748750Y-121049367D01*
X354778660Y-121054040D01*
X354810254Y-121058301D01*
X354843504Y-121062135D01*
X354878433Y-121065558D01*
X354915038Y-121068556D01*
X354953307Y-121071137D01*
X354934716Y-121055395D01*
X354917328Y-121039190D01*
X354901137Y-121022502D01*
X354886146Y-121005356D01*
X354872361Y-120987735D01*
X354859769Y-120969646D01*
X354848385Y-120951073D01*
X354838188Y-120932043D01*
X354829197Y-120912544D01*
X354821407Y-120892565D01*
X354814818Y-120872118D01*
X354809424Y-120851199D01*
X354805232Y-120829807D01*
X354803159Y-120814677D01*
X355055725Y-120814677D01*
X355056023Y-120826528D01*
X355056942Y-120838155D01*
X355058473Y-120849540D01*
X355060610Y-120860701D01*
X355063362Y-120871632D01*
X355066727Y-120882328D01*
X355070703Y-120892788D01*
X355075293Y-120903027D01*
X355080498Y-120913022D01*
X355086313Y-120922795D01*
X355092735Y-120932332D01*
X355099783Y-120941631D01*
X355107434Y-120950710D01*
X355115693Y-120959546D01*
X355124578Y-120968151D01*
X355134069Y-120976537D01*
X355144189Y-120984558D01*
X355154893Y-120992061D01*
X355166187Y-120999049D01*
X355178048Y-121005508D01*
X355190504Y-121011456D01*
X355203542Y-121016884D01*
X355217159Y-121021789D01*
X355231366Y-121026177D01*
X355246151Y-121030050D01*
X355261517Y-121033406D01*
X355277466Y-121036244D01*
X355293998Y-121038562D01*
X355311102Y-121040369D01*
X355328794Y-121041669D01*
X355347061Y-121042434D01*
X355365908Y-121042690D01*
X355386777Y-121042399D01*
X355407046Y-121041528D01*
X355426709Y-121040066D01*
X355445770Y-121038029D01*
X355464219Y-121035410D01*
X355482071Y-121032206D01*
X355499307Y-121028417D01*
X355515950Y-121024060D01*
X355531984Y-121019118D01*
X355547414Y-121013603D01*
X355562241Y-121007487D01*
X355576469Y-121000803D01*
X355590090Y-120993540D01*
X355603107Y-120985692D01*
X355615526Y-120977264D01*
X355627341Y-120968267D01*
X355638495Y-120958888D01*
X355648936Y-120949343D01*
X355658650Y-120939637D01*
X355667653Y-120929751D01*
X355675936Y-120919705D01*
X355683496Y-120909497D01*
X355690341Y-120899108D01*
X355696461Y-120888568D01*
X355701860Y-120877854D01*
X355706550Y-120866972D01*
X355710509Y-120855925D01*
X355713747Y-120844707D01*
X355716276Y-120833336D01*
X355718070Y-120821779D01*
X355719157Y-120810067D01*
X355719521Y-120798191D01*
X355719228Y-120786788D01*
X355718340Y-120775627D01*
X355716860Y-120764708D01*
X355714798Y-120754022D01*
X355712134Y-120743590D01*
X355708892Y-120733396D01*
X355705053Y-120723441D01*
X355700628Y-120713729D01*
X355695621Y-120704241D01*
X355690019Y-120695014D01*
X355683822Y-120686022D01*
X355677053Y-120677260D01*
X355669679Y-120668738D01*
X355661726Y-120660455D01*
X355653179Y-120652411D01*
X355644056Y-120644605D01*
X355634254Y-120637180D01*
X355623702Y-120630233D01*
X355612393Y-120623753D01*
X355600328Y-120617759D01*
X355587513Y-120612231D01*
X355573941Y-120607193D01*
X355559616Y-120602627D01*
X355544538Y-120598542D01*
X355528713Y-120594932D01*
X355512137Y-120591815D01*
X355494797Y-120589160D01*
X355476709Y-120586996D01*
X355457868Y-120585312D01*
X355438277Y-120584102D01*
X355417942Y-120583380D01*
X355396844Y-120583140D01*
X355375115Y-120583396D01*
X355354117Y-120584180D01*
X355333867Y-120585468D01*
X355314363Y-120587275D01*
X355295592Y-120589597D01*
X355277559Y-120592442D01*
X355260275Y-120595800D01*
X355243726Y-120599680D01*
X355227915Y-120604069D01*
X355212845Y-120608980D01*
X355198501Y-120614424D01*
X355184899Y-120620364D01*
X355172034Y-120626832D01*
X355159902Y-120633817D01*
X355148505Y-120641330D01*
X355137834Y-120649352D01*
X355127912Y-120657764D01*
X355118617Y-120666430D01*
X355109962Y-120675345D01*
X355101951Y-120684523D01*
X355094576Y-120693949D01*
X355087842Y-120703633D01*
X355081741Y-120713568D01*
X355076288Y-120723769D01*
X355071474Y-120734226D01*
X355067293Y-120744939D01*
X355063758Y-120755919D01*
X355060866Y-120767146D01*
X355058614Y-120778635D01*
X355057006Y-120790392D01*
X355056044Y-120802403D01*
X355055725Y-120814677D01*
X354803159Y-120814677D01*
X354802236Y-120807945D01*
X354800436Y-120785608D01*
X354799838Y-120762806D01*
X354800484Y-120737058D01*
X354802430Y-120711778D01*
X354805677Y-120686946D01*
X354810209Y-120662589D01*
X354816041Y-120638703D01*
X354823171Y-120615283D01*
X354831593Y-120592309D01*
X354841314Y-120569809D01*
X354852327Y-120547783D01*
X354864634Y-120526222D01*
X354878234Y-120505132D01*
X354893127Y-120484510D01*
X354909313Y-120464356D01*
X354926787Y-120444661D01*
X354945560Y-120425452D01*
X354965625Y-120406710D01*
X354986700Y-120388726D01*
X355008532Y-120371906D01*
X355031108Y-120356253D01*
X355054435Y-120341758D01*
X355078529Y-120328425D01*
X355103357Y-120316248D01*
X355128950Y-120305241D01*
X355155290Y-120295384D01*
X355182386Y-120286698D01*
X355210237Y-120279164D01*
X355238838Y-120272797D01*
X355268186Y-120267595D01*
X355298299Y-120263532D01*
X355329162Y-120260638D01*
X355360772Y-120258902D01*
X355393142Y-120258330D01*
X355427488Y-120258929D01*
G37*
D11*
X352915038Y-135273378D02*
X352915572Y-135270686D01*
X352916183Y-135268013D01*
X352916871Y-135265360D01*
X352917636Y-135262729D01*
X352918478Y-135260123D01*
X352919394Y-135257542D01*
X352920385Y-135254990D01*
X352921451Y-135252466D01*
X352922590Y-135249975D01*
X352923801Y-135247517D01*
X352925083Y-135245095D01*
X352926436Y-135242711D01*
X352927858Y-135240366D01*
X352929349Y-135238063D01*
X352930906Y-135235804D01*
X352932529Y-135233590D01*
X352934216Y-135231425D01*
X352935966Y-135229309D01*
X352936864Y-135228270D01*
X352937777Y-135227244D01*
X352938705Y-135226232D01*
X352939647Y-135225233D01*
X352940604Y-135224248D01*
X352941575Y-135223277D01*
X352942561Y-135222321D01*
X352943560Y-135221378D01*
X352944573Y-135220451D01*
X352945599Y-135219538D01*
X352946638Y-135218641D01*
X352947691Y-135217758D01*
X352948755Y-135216892D01*
X352949833Y-135216040D01*
X352950922Y-135215205D01*
X352952025Y-135214386D01*
X352953138Y-135213583D01*
X352954263Y-135212796D01*
X352955399Y-135212026D01*
X352956548Y-135211272D01*
X352957705Y-135210536D01*
X352958875Y-135209815D01*
X352960054Y-135209113D01*
X352961245Y-135208427D01*
X352962444Y-135207760D01*
X352963654Y-135207109D01*
X352964872Y-135206476D01*
X352966101Y-135205861D01*
X352967338Y-135205264D01*
X352968585Y-135204685D01*
X352969839Y-135204124D01*
X352971104Y-135203581D01*
X352972374Y-135203056D01*
X352973655Y-135202550D01*
X352976054Y-135201658D01*
X352976054Y-135201658D02*
X352978653Y-135200774D01*
X352981275Y-135199967D01*
X352983917Y-135199237D01*
X352986578Y-135198584D01*
X352989257Y-135198009D01*
X352991950Y-135197513D01*
X352994657Y-135197095D01*
X352997376Y-135196756D01*
X353000103Y-135196497D01*
X353002838Y-135196317D01*
X353005577Y-135196216D01*
X353008319Y-135196196D01*
X353011061Y-135196255D01*
X353013801Y-135196395D01*
X353016536Y-135196614D01*
X353019265Y-135196913D01*
X353021984Y-135197291D01*
X353024691Y-135197748D01*
X353026040Y-135198006D01*
X353027385Y-135198284D01*
X353028725Y-135198581D01*
X353030061Y-135198898D01*
X353031393Y-135199235D01*
X353032719Y-135199590D01*
X353034040Y-135199965D01*
X353035356Y-135200360D01*
X353036665Y-135200773D01*
X353037969Y-135201205D01*
X353039265Y-135201657D01*
X353040555Y-135202127D01*
X353041838Y-135202616D01*
X353043114Y-135203123D01*
X353044382Y-135203649D01*
X353045642Y-135204194D01*
X353046894Y-135204756D01*
X353048138Y-135205338D01*
X353049373Y-135205936D01*
X353050600Y-135206554D01*
X353051816Y-135207188D01*
X353053024Y-135207841D01*
X353054222Y-135208511D01*
X353055411Y-135209199D01*
X353056588Y-135209904D01*
X353057757Y-135210626D01*
X353058913Y-135211365D01*
X353060060Y-135212122D01*
X353061195Y-135212894D01*
X353062321Y-135213684D01*
X353063433Y-135214490D01*
X353064535Y-135215313D01*
X353065624Y-135216152D01*
X353066703Y-135217007D01*
X353068670Y-135218635D01*
X352978250Y-135450784D02*
X352975317Y-135448237D01*
X352972440Y-135445632D01*
X352969617Y-135442969D01*
X352966852Y-135440251D01*
X352964144Y-135437476D01*
X352961494Y-135434648D01*
X352958903Y-135431765D01*
X352956373Y-135428831D01*
X352953904Y-135425844D01*
X352951496Y-135422808D01*
X352949152Y-135419722D01*
X352946872Y-135416589D01*
X352944656Y-135413408D01*
X352942506Y-135410183D01*
X352940422Y-135406913D01*
X352938406Y-135403600D01*
X352936459Y-135400245D01*
X352934580Y-135396851D01*
X352932772Y-135393418D01*
X352931034Y-135389948D01*
X352929368Y-135386442D01*
X352927774Y-135382902D01*
X352926253Y-135379329D01*
X352924806Y-135375726D01*
X352923433Y-135372093D01*
X352922136Y-135368433D01*
X352921515Y-135366592D01*
X352920914Y-135364746D01*
X352920331Y-135362893D01*
X352919768Y-135361035D01*
X352919223Y-135359170D01*
X352918698Y-135357300D01*
X352918193Y-135355426D01*
X352917706Y-135353545D01*
X352917239Y-135351660D01*
X352916792Y-135349770D01*
X352916364Y-135347877D01*
X352915956Y-135345978D01*
X352915567Y-135344076D01*
X352915198Y-135342169D01*
X352914848Y-135340260D01*
X352914518Y-135338346D01*
X352914208Y-135336430D01*
X352913918Y-135334510D01*
X352913648Y-135332588D01*
X352913397Y-135330662D01*
X352913167Y-135328735D01*
X352912956Y-135326805D01*
X352912765Y-135324874D01*
X352912594Y-135322940D01*
X352912443Y-135321006D01*
X352912312Y-135319069D01*
X352912201Y-135317132D01*
X352912110Y-135315192D01*
X352912039Y-135313254D01*
X352911988Y-135311313D01*
X352911958Y-135309373D01*
X352911947Y-135307431D01*
X352911956Y-135305491D01*
X352911985Y-135303550D01*
X352912034Y-135301610D01*
X352912104Y-135299669D01*
X352912193Y-135297731D01*
X352912302Y-135295791D01*
X352912432Y-135293855D01*
X352912581Y-135291917D01*
X352912750Y-135289983D01*
X352912940Y-135288049D01*
X352913149Y-135286118D01*
X352913378Y-135284187D01*
X352913627Y-135282260D01*
X352913897Y-135280333D01*
X352914185Y-135278411D01*
X352914495Y-135276489D01*
X352915038Y-135273378D01*
X353068670Y-135218635D02*
X353070735Y-135220444D01*
X353072745Y-135222311D01*
X353074699Y-135224235D01*
X353076595Y-135226213D01*
X353078432Y-135228246D01*
X353080208Y-135230331D01*
X353081924Y-135232467D01*
X353083576Y-135234652D01*
X353085165Y-135236884D01*
X353086688Y-135239163D01*
X353088145Y-135241485D01*
X353089533Y-135243849D01*
X353090853Y-135246254D01*
X353092102Y-135248697D01*
X353093280Y-135251176D01*
X353094386Y-135253688D01*
X353095418Y-135256233D01*
X353096376Y-135258806D01*
X353096826Y-135260103D01*
X353097258Y-135261407D01*
X353097671Y-135262717D01*
X353098065Y-135264032D01*
X353098439Y-135265353D01*
X353098794Y-135266680D01*
X353099130Y-135268012D01*
X353099446Y-135269348D01*
X353099743Y-135270689D01*
X353100020Y-135272034D01*
X353100278Y-135273382D01*
X353100516Y-135274735D01*
X353100734Y-135276090D01*
X353100932Y-135277449D01*
X353101110Y-135278810D01*
X353101269Y-135280174D01*
X353101408Y-135281539D01*
X353101526Y-135282908D01*
X353101625Y-135284276D01*
X353101704Y-135285647D01*
X353101762Y-135287018D01*
X353101801Y-135288391D01*
X353101820Y-135289763D01*
X353101818Y-135291136D01*
X353101797Y-135292508D01*
X353101755Y-135293881D01*
X353101694Y-135295252D01*
X353101612Y-135296624D01*
X353101511Y-135297993D01*
X353101389Y-135299363D01*
X353101247Y-135300729D01*
X353101086Y-135302095D01*
X353100904Y-135303457D01*
X353100703Y-135304819D01*
X353100276Y-135307337D01*
X353100276Y-135307337D02*
X353099820Y-135310044D01*
X353099444Y-135312761D01*
X353099147Y-135315487D01*
X353098929Y-135318218D01*
X353098791Y-135320954D01*
X353098733Y-135323693D01*
X353098755Y-135326432D01*
X353098856Y-135329170D01*
X353099037Y-135331904D01*
X353099298Y-135334632D01*
X353099638Y-135337352D01*
X353100058Y-135340062D01*
X353100556Y-135342759D01*
X353101133Y-135345442D01*
X353101788Y-135348107D01*
X353102520Y-135350752D01*
X353103330Y-135353376D01*
X353104215Y-135355976D01*
X353104686Y-135357266D01*
X353105176Y-135358549D01*
X353105685Y-135359824D01*
X353106212Y-135361093D01*
X353106757Y-135362353D01*
X353107321Y-135363605D01*
X353107903Y-135364849D01*
X353108503Y-135366085D01*
X353109121Y-135367311D01*
X353109757Y-135368529D01*
X353110410Y-135369736D01*
X353111081Y-135370935D01*
X353111769Y-135372123D01*
X353112475Y-135373301D01*
X353113197Y-135374468D01*
X353113937Y-135375626D01*
X353114693Y-135376771D01*
X353115467Y-135377906D01*
X353116256Y-135379029D01*
X353117062Y-135380141D01*
X353117883Y-135381240D01*
X353118721Y-135382329D01*
X353119575Y-135383403D01*
X353120444Y-135384467D01*
X353121329Y-135385516D01*
X353122229Y-135386554D01*
X353123144Y-135387577D01*
X353124075Y-135388589D01*
X353125019Y-135389585D01*
X353125980Y-135390570D01*
X353126954Y-135391539D01*
X353127943Y-135392495D01*
X353128945Y-135393436D01*
X353129963Y-135394364D01*
X353131884Y-135396044D01*
X353131884Y-135396044D02*
X353134000Y-135397792D01*
X353136165Y-135399477D01*
X353138377Y-135401097D01*
X353140633Y-135402651D01*
X353142934Y-135404138D01*
X353145276Y-135405558D01*
X353147659Y-135406909D01*
X353150081Y-135408190D01*
X353152539Y-135409400D01*
X353155032Y-135410538D01*
X353157558Y-135411604D01*
X353160115Y-135412595D01*
X353162700Y-135413513D01*
X353165312Y-135414354D01*
X353167947Y-135415120D01*
X353170605Y-135415809D01*
X353173282Y-135416420D01*
X353175976Y-135416953D01*
X353177329Y-135417190D01*
X353178685Y-135417407D01*
X353180044Y-135417605D01*
X353181406Y-135417782D01*
X353182770Y-135417940D01*
X353184137Y-135418078D01*
X353185505Y-135418196D01*
X353186875Y-135418294D01*
X353188246Y-135418372D01*
X353189618Y-135418431D01*
X353190991Y-135418469D01*
X353192364Y-135418487D01*
X353193737Y-135418485D01*
X353195111Y-135418463D01*
X353196483Y-135418421D01*
X353197855Y-135418359D01*
X353199225Y-135418277D01*
X353200594Y-135418175D01*
X353201961Y-135418053D01*
X353203327Y-135417911D01*
X353204690Y-135417749D01*
X353206051Y-135417568D01*
X353207409Y-135417366D01*
X353208764Y-135417145D01*
X353210115Y-135416904D01*
X353211464Y-135416643D01*
X353212808Y-135416362D01*
X353214149Y-135416062D01*
X353215484Y-135415742D01*
X353216816Y-135415403D01*
X353218142Y-135415044D01*
X353219465Y-135414666D01*
X353220781Y-135414268D01*
X353222093Y-135413851D01*
X353224500Y-135413030D01*
X353142073Y-135219269D02*
X353140807Y-135215597D01*
X353139617Y-135211901D01*
X353138505Y-135208184D01*
X353137469Y-135204446D01*
X353136511Y-135200689D01*
X353135631Y-135196914D01*
X353134829Y-135193123D01*
X353134105Y-135189316D01*
X353133460Y-135185495D01*
X353132894Y-135181661D01*
X353132406Y-135177816D01*
X353131999Y-135173962D01*
X353131670Y-135170100D01*
X353131421Y-135166231D01*
X353131252Y-135162357D01*
X353131163Y-135158480D01*
X353131154Y-135154601D01*
X353131224Y-135150722D01*
X353131375Y-135146845D01*
X353131605Y-135142971D01*
X353131915Y-135139101D01*
X353132305Y-135135239D01*
X353132775Y-135131384D01*
X353133323Y-135127540D01*
X353133951Y-135123707D01*
X353134658Y-135119888D01*
X353135041Y-135117985D01*
X353135443Y-135116085D01*
X353135865Y-135114189D01*
X353136307Y-135112298D01*
X353136768Y-135110411D01*
X353137248Y-135108529D01*
X353137748Y-135106653D01*
X353138267Y-135104781D01*
X353138805Y-135102916D01*
X353139362Y-135101055D01*
X353139939Y-135099201D01*
X353140535Y-135097352D01*
X353141149Y-135095511D01*
X353141783Y-135093675D01*
X353142435Y-135091847D01*
X353143106Y-135090024D01*
X353143796Y-135088210D01*
X353144505Y-135086402D01*
X353145232Y-135084603D01*
X353145978Y-135082810D01*
X353146741Y-135081026D01*
X353147524Y-135079249D01*
X353148324Y-135077481D01*
X353149143Y-135075721D01*
X353149980Y-135073971D01*
X353150835Y-135072228D01*
X353151708Y-135070495D01*
X353152599Y-135068770D01*
X353153507Y-135067055D01*
X353154433Y-135065349D01*
X353155376Y-135063654D01*
X353156338Y-135061967D01*
X353157316Y-135060291D01*
X353158312Y-135058625D01*
X353159325Y-135056969D01*
X353160355Y-135055323D01*
X353161402Y-135053689D01*
X353162467Y-135052064D01*
X353163547Y-135050452D01*
X353164645Y-135048849D01*
X353165759Y-135047259D01*
X353166890Y-135045678D01*
X353168037Y-135044110D01*
X353169201Y-135042553D01*
X353170380Y-135041009D01*
X353171577Y-135039475D01*
X353172789Y-135037954D01*
X353174017Y-135036444D01*
X353176037Y-135034030D01*
X353145876Y-135650767D02*
X353144992Y-135648168D01*
X353144185Y-135645546D01*
X353143455Y-135642904D01*
X353142802Y-135640243D01*
X353142227Y-135637564D01*
X353141731Y-135634871D01*
X353141313Y-135632164D01*
X353140974Y-135629445D01*
X353140715Y-135626718D01*
X353140535Y-135623983D01*
X353140434Y-135621244D01*
X353140414Y-135618502D01*
X353140473Y-135615760D01*
X353140613Y-135613020D01*
X353140832Y-135610285D01*
X353141131Y-135607557D01*
X353141509Y-135604837D01*
X353141966Y-135602130D01*
X353142224Y-135600781D01*
X353142502Y-135599437D01*
X353142800Y-135598096D01*
X353143116Y-135596760D01*
X353143453Y-135595429D01*
X353143809Y-135594102D01*
X353144183Y-135592781D01*
X353144578Y-135591466D01*
X353144991Y-135590157D01*
X353145423Y-135588853D01*
X353145875Y-135587557D01*
X353146345Y-135586266D01*
X353146834Y-135584984D01*
X353147341Y-135583707D01*
X353147867Y-135582440D01*
X353148412Y-135581179D01*
X353148974Y-135579928D01*
X353149556Y-135578683D01*
X353150154Y-135577449D01*
X353150772Y-135576222D01*
X353151406Y-135575006D01*
X353152059Y-135573797D01*
X353152729Y-135572600D01*
X353153417Y-135571411D01*
X353154122Y-135570234D01*
X353154844Y-135569065D01*
X353155583Y-135567909D01*
X353156340Y-135566761D01*
X353157112Y-135565627D01*
X353157903Y-135564501D01*
X353158708Y-135563389D01*
X353159531Y-135562287D01*
X353160370Y-135561197D01*
X353161225Y-135560119D01*
X353162854Y-135558151D01*
X353162854Y-135558151D02*
X353164663Y-135556086D01*
X353166530Y-135554076D01*
X353168454Y-135552122D01*
X353170432Y-135550226D01*
X353172465Y-135548389D01*
X353174550Y-135546613D01*
X353176686Y-135544897D01*
X353178871Y-135543244D01*
X353181103Y-135541656D01*
X353183382Y-135540133D01*
X353185704Y-135538676D01*
X353188069Y-135537288D01*
X353190473Y-135535968D01*
X353192916Y-135534719D01*
X353195395Y-135533541D01*
X353197907Y-135532435D01*
X353200452Y-135531403D01*
X353203025Y-135530445D01*
X353204322Y-135529995D01*
X353205626Y-135529563D01*
X353206936Y-135529150D01*
X353208251Y-135528756D01*
X353209573Y-135528382D01*
X353210899Y-135528027D01*
X353212231Y-135527691D01*
X353213567Y-135527375D01*
X353214908Y-135527078D01*
X353216253Y-135526801D01*
X353217601Y-135526543D01*
X353218954Y-135526305D01*
X353220309Y-135526087D01*
X353221668Y-135525889D01*
X353223029Y-135525711D01*
X353224393Y-135525552D01*
X353225758Y-135525413D01*
X353227126Y-135525295D01*
X353228495Y-135525196D01*
X353229866Y-135525117D01*
X353231237Y-135525059D01*
X353232610Y-135525020D01*
X353233981Y-135525001D01*
X353235355Y-135525003D01*
X353236727Y-135525024D01*
X353238100Y-135525066D01*
X353239471Y-135525127D01*
X353240843Y-135525209D01*
X353242212Y-135525310D01*
X353243581Y-135525432D01*
X353244947Y-135525574D01*
X353246313Y-135525735D01*
X353247676Y-135525917D01*
X353249038Y-135526119D01*
X353251555Y-135526545D01*
X353163488Y-135484748D02*
X353159815Y-135486014D01*
X353156120Y-135487204D01*
X353152402Y-135488316D01*
X353148665Y-135489352D01*
X353144907Y-135490310D01*
X353141132Y-135491190D01*
X353137340Y-135491993D01*
X353133533Y-135492717D01*
X353129712Y-135493362D01*
X353125879Y-135493928D01*
X353122034Y-135494415D01*
X353118180Y-135494823D01*
X353114317Y-135495152D01*
X353110448Y-135495401D01*
X353106575Y-135495570D01*
X353102698Y-135495659D01*
X353098819Y-135495668D01*
X353094940Y-135495598D01*
X353091062Y-135495447D01*
X353087188Y-135495217D01*
X353083319Y-135494907D01*
X353079457Y-135494517D01*
X353075602Y-135494048D01*
X353071758Y-135493499D01*
X353067926Y-135492871D01*
X353064107Y-135492165D01*
X353062203Y-135491782D01*
X353060303Y-135491379D01*
X353058408Y-135490957D01*
X353056517Y-135490516D01*
X353054630Y-135490055D01*
X353052748Y-135489575D01*
X353050872Y-135489075D01*
X353049001Y-135488556D01*
X353047135Y-135488018D01*
X353045275Y-135487461D01*
X353043421Y-135486884D01*
X353041572Y-135486288D01*
X353039731Y-135485674D01*
X353037895Y-135485040D01*
X353036067Y-135484388D01*
X353034245Y-135483717D01*
X353032430Y-135483027D01*
X353030623Y-135482318D01*
X353028823Y-135481591D01*
X353027031Y-135480846D01*
X353025247Y-135480082D01*
X353023470Y-135479299D01*
X353021702Y-135478499D01*
X353019942Y-135477680D01*
X353018192Y-135476843D01*
X353016449Y-135475988D01*
X353014716Y-135475116D01*
X353012991Y-135474225D01*
X353011277Y-135473317D01*
X353009571Y-135472390D01*
X353007876Y-135471447D01*
X353006189Y-135470486D01*
X353004513Y-135469508D01*
X353002847Y-135468511D01*
X353001192Y-135467499D01*
X352999546Y-135466468D01*
X352997912Y-135465422D01*
X352996287Y-135464357D01*
X352994674Y-135463277D01*
X352993072Y-135462179D01*
X352991481Y-135461065D01*
X352989901Y-135459934D01*
X352988333Y-135458787D01*
X352986776Y-135457623D01*
X352985232Y-135456443D01*
X352983698Y-135455247D01*
X352982177Y-135454035D01*
X352980667Y-135452806D01*
X352978250Y-135450784D01*
X353176037Y-135034030D02*
X353178584Y-135031097D01*
X353181189Y-135028220D01*
X353183852Y-135025397D01*
X353186570Y-135022632D01*
X353189345Y-135019924D01*
X353192174Y-135017274D01*
X353195056Y-135014683D01*
X353197991Y-135012153D01*
X353200977Y-135009684D01*
X353204013Y-135007277D01*
X353207099Y-135004932D01*
X353210233Y-135002652D01*
X353213413Y-135000436D01*
X353216639Y-134998286D01*
X353219909Y-134996203D01*
X353223222Y-134994187D01*
X353226576Y-134992239D01*
X353229971Y-134990361D01*
X353233404Y-134988552D01*
X353236874Y-134986815D01*
X353240380Y-134985148D01*
X353243920Y-134983555D01*
X353247492Y-134982034D01*
X353251096Y-134980587D01*
X353254729Y-134979214D01*
X353258389Y-134977916D01*
X353260229Y-134977296D01*
X353262076Y-134976694D01*
X353263929Y-134976112D01*
X353265787Y-134975548D01*
X353267651Y-134975004D01*
X353269521Y-134974479D01*
X353271396Y-134973974D01*
X353273277Y-134973487D01*
X353275162Y-134973020D01*
X353277051Y-134972573D01*
X353278945Y-134972145D01*
X353280844Y-134971736D01*
X353282746Y-134971348D01*
X353284653Y-134970978D01*
X353286563Y-134970629D01*
X353288476Y-134970299D01*
X353290392Y-134969989D01*
X353292313Y-134969699D01*
X353294234Y-134969429D01*
X353296160Y-134969178D01*
X353298087Y-134968948D01*
X353300017Y-134968737D01*
X353301948Y-134968546D01*
X353303882Y-134968375D01*
X353305817Y-134968224D01*
X353307754Y-134968093D01*
X353309691Y-134967982D01*
X353311630Y-134967891D01*
X353313569Y-134967820D01*
X353315510Y-134967769D01*
X353317450Y-134967739D01*
X353319391Y-134967728D01*
X353321331Y-134967737D01*
X353323273Y-134967766D01*
X353325213Y-134967815D01*
X353327154Y-134967885D01*
X353329092Y-134967974D01*
X353331032Y-134968083D01*
X353332968Y-134968213D01*
X353334906Y-134968362D01*
X353336840Y-134968531D01*
X353338774Y-134968721D01*
X353340705Y-134968930D01*
X353342636Y-134969159D01*
X353344563Y-134969408D01*
X353346490Y-134969678D01*
X353348413Y-134969967D01*
X353350335Y-134970276D01*
X353353445Y-134970819D01*
X353213793Y-135280281D02*
X353214752Y-135282854D01*
X353215785Y-135285395D01*
X353216891Y-135287904D01*
X353218069Y-135290379D01*
X353219318Y-135292818D01*
X353220637Y-135295219D01*
X353222026Y-135297580D01*
X353223483Y-135299901D01*
X353225007Y-135302178D01*
X353226597Y-135304411D01*
X353228252Y-135306596D01*
X353229971Y-135308734D01*
X353231751Y-135310821D01*
X353233592Y-135312855D01*
X353235492Y-135314836D01*
X353237450Y-135316761D01*
X353239463Y-135318629D01*
X353241529Y-135320438D01*
X353242582Y-135321319D01*
X353243648Y-135322185D01*
X353244726Y-135323036D01*
X353245817Y-135323871D01*
X353246920Y-135324690D01*
X353248034Y-135325492D01*
X353249160Y-135326279D01*
X353250298Y-135327049D01*
X353251446Y-135327802D01*
X353252606Y-135328538D01*
X353253775Y-135329257D01*
X353254955Y-135329960D01*
X353256145Y-135330644D01*
X353257346Y-135331312D01*
X353258555Y-135331961D01*
X353259774Y-135332594D01*
X353261001Y-135333207D01*
X353262239Y-135333804D01*
X353263483Y-135334381D01*
X353264737Y-135334941D01*
X353265998Y-135335483D01*
X353267268Y-135336006D01*
X353268544Y-135336510D01*
X353269829Y-135336996D01*
X353271119Y-135337462D01*
X353272418Y-135337911D01*
X353273721Y-135338339D01*
X353275033Y-135338750D01*
X353276349Y-135339140D01*
X353277673Y-135339512D01*
X353279000Y-135339865D01*
X353280335Y-135340198D01*
X353281673Y-135340512D01*
X353283018Y-135340806D01*
X353285520Y-135341300D01*
X353217595Y-135711783D02*
X353214903Y-135711249D01*
X353212230Y-135710638D01*
X353209577Y-135709949D01*
X353206947Y-135709184D01*
X353204340Y-135708343D01*
X353201760Y-135707427D01*
X353199207Y-135706435D01*
X353196684Y-135705370D01*
X353194193Y-135704231D01*
X353191735Y-135703020D01*
X353189313Y-135701738D01*
X353186929Y-135700385D01*
X353184584Y-135698962D01*
X353182281Y-135697472D01*
X353180022Y-135695914D01*
X353177808Y-135694291D01*
X353175643Y-135692604D01*
X353173526Y-135690854D01*
X353172488Y-135689957D01*
X353171462Y-135689043D01*
X353170450Y-135688116D01*
X353169451Y-135687173D01*
X353168466Y-135686216D01*
X353167495Y-135685245D01*
X353166538Y-135684259D01*
X353165596Y-135683260D01*
X353164669Y-135682247D01*
X353163756Y-135681221D01*
X353162858Y-135680182D01*
X353161976Y-135679129D01*
X353161109Y-135678065D01*
X353160258Y-135676987D01*
X353159423Y-135675897D01*
X353158603Y-135674795D01*
X353157800Y-135673682D01*
X353157013Y-135672556D01*
X353156243Y-135671420D01*
X353155489Y-135670272D01*
X353154753Y-135669114D01*
X353154033Y-135667944D01*
X353153331Y-135666765D01*
X353152645Y-135665575D01*
X353151977Y-135664376D01*
X353151326Y-135663165D01*
X353150694Y-135661947D01*
X353150078Y-135660718D01*
X353149482Y-135659481D01*
X353148902Y-135658234D01*
X353148341Y-135656980D01*
X353147798Y-135655715D01*
X353147274Y-135654445D01*
X353146767Y-135653164D01*
X353145876Y-135650767D01*
X353224500Y-135413030D02*
X353227073Y-135412070D01*
X353229615Y-135411037D01*
X353232124Y-135409931D01*
X353234599Y-135408753D01*
X353237038Y-135407504D01*
X353239439Y-135406185D01*
X353241801Y-135404796D01*
X353244121Y-135403339D01*
X353246398Y-135401814D01*
X353248631Y-135400224D01*
X353250817Y-135398569D01*
X353252954Y-135396850D01*
X353255041Y-135395069D01*
X353257076Y-135393228D01*
X353259056Y-135391328D01*
X353260982Y-135389371D01*
X353262849Y-135387358D01*
X353264658Y-135385291D01*
X353265539Y-135384238D01*
X353266405Y-135383172D01*
X353267256Y-135382094D01*
X353268091Y-135381003D01*
X353268909Y-135379900D01*
X353269712Y-135378786D01*
X353270498Y-135377660D01*
X353271268Y-135376522D01*
X353272021Y-135375374D01*
X353272758Y-135374214D01*
X353273477Y-135373045D01*
X353274179Y-135371864D01*
X353274864Y-135370674D01*
X353275532Y-135369474D01*
X353276181Y-135368265D01*
X353276813Y-135367045D01*
X353277427Y-135365818D01*
X353278024Y-135364581D01*
X353278601Y-135363336D01*
X353279161Y-135362082D01*
X353279703Y-135360821D01*
X353280226Y-135359551D01*
X353280730Y-135358274D01*
X353281216Y-135356989D01*
X353281682Y-135355699D01*
X353282131Y-135354400D01*
X353282560Y-135353096D01*
X353282970Y-135351784D01*
X353283361Y-135350468D01*
X353283733Y-135349144D01*
X353284085Y-135347817D01*
X353284419Y-135346482D01*
X353284732Y-135345143D01*
X353285027Y-135343798D01*
X353285520Y-135341300D01*
X353230777Y-135187665D02*
X353229029Y-135189782D01*
X353227344Y-135191946D01*
X353225725Y-135194158D01*
X353224170Y-135196415D01*
X353222683Y-135198716D01*
X353221263Y-135201058D01*
X353219912Y-135203441D01*
X353218631Y-135205863D01*
X353217421Y-135208321D01*
X353216283Y-135210815D01*
X353215218Y-135213341D01*
X353214226Y-135215897D01*
X353213309Y-135218483D01*
X353212467Y-135221094D01*
X353211702Y-135223730D01*
X353211013Y-135226388D01*
X353210402Y-135229065D01*
X353209869Y-135231759D01*
X353209632Y-135233112D01*
X353209415Y-135234468D01*
X353209217Y-135235827D01*
X353209040Y-135237189D01*
X353208882Y-135238553D01*
X353208744Y-135239920D01*
X353208626Y-135241288D01*
X353208528Y-135242658D01*
X353208450Y-135244029D01*
X353208392Y-135245401D01*
X353208353Y-135246774D01*
X353208335Y-135248147D01*
X353208337Y-135249520D01*
X353208359Y-135250893D01*
X353208401Y-135252265D01*
X353208463Y-135253637D01*
X353208545Y-135255007D01*
X353208648Y-135256377D01*
X353208769Y-135257744D01*
X353208911Y-135259110D01*
X353209073Y-135260472D01*
X353209255Y-135261834D01*
X353209457Y-135263191D01*
X353209678Y-135264547D01*
X353209919Y-135265897D01*
X353210180Y-135267246D01*
X353210461Y-135268590D01*
X353210761Y-135269931D01*
X353211081Y-135271266D01*
X353211420Y-135272598D01*
X353211779Y-135273924D01*
X353212158Y-135275247D01*
X353212555Y-135276562D01*
X353212972Y-135277875D01*
X353213793Y-135280281D01*
X353251555Y-135526545D02*
X353254262Y-135527001D01*
X353256979Y-135527377D01*
X353259704Y-135527675D01*
X353262435Y-135527893D01*
X353265171Y-135528031D01*
X353267910Y-135528089D01*
X353270648Y-135528068D01*
X353273386Y-135527966D01*
X353276120Y-135527785D01*
X353278848Y-135527525D01*
X353281568Y-135527185D01*
X353284277Y-135526765D01*
X353286974Y-135526267D01*
X353289657Y-135525690D01*
X353292322Y-135525036D01*
X353294967Y-135524304D01*
X353297591Y-135523494D01*
X353300190Y-135522609D01*
X353301480Y-135522138D01*
X353302763Y-135521648D01*
X353304039Y-135521140D01*
X353305307Y-135520613D01*
X353306568Y-135520067D01*
X353307820Y-135519504D01*
X353309064Y-135518922D01*
X353310300Y-135518322D01*
X353311526Y-135517704D01*
X353312744Y-135517068D01*
X353313951Y-135516415D01*
X353315150Y-135515744D01*
X353316338Y-135515056D01*
X353317516Y-135514350D01*
X353318683Y-135513628D01*
X353319841Y-135512888D01*
X353320986Y-135512132D01*
X353322121Y-135511359D01*
X353323244Y-135510570D01*
X353324357Y-135509764D01*
X353325456Y-135508942D01*
X353326544Y-135508104D01*
X353327619Y-135507251D01*
X353328682Y-135506381D01*
X353329732Y-135505497D01*
X353330770Y-135504596D01*
X353331793Y-135503682D01*
X353332805Y-135502751D01*
X353333802Y-135501806D01*
X353334786Y-135500846D01*
X353335755Y-135499872D01*
X353336712Y-135498883D01*
X353337652Y-135497881D01*
X353338580Y-135496863D01*
X353340263Y-135494939D01*
X353285520Y-135341300D02*
X353281706Y-135340560D01*
X353277911Y-135339743D01*
X353274135Y-135338848D01*
X353270381Y-135337876D01*
X353266648Y-135336827D01*
X353262938Y-135335702D01*
X353259254Y-135334501D01*
X353255595Y-135333225D01*
X353251963Y-135331873D01*
X353248360Y-135330447D01*
X353244786Y-135328947D01*
X353241245Y-135327373D01*
X353237736Y-135325727D01*
X353234261Y-135324008D01*
X353230821Y-135322218D01*
X353227419Y-135320356D01*
X353224055Y-135318425D01*
X353220731Y-135316425D01*
X353217448Y-135314356D01*
X353214208Y-135312219D01*
X353211012Y-135310016D01*
X353207862Y-135307748D01*
X353204759Y-135305414D01*
X353201704Y-135303017D01*
X353198699Y-135300557D01*
X353195745Y-135298036D01*
X353194287Y-135296752D01*
X353192843Y-135295454D01*
X353191412Y-135294141D01*
X353189995Y-135292813D01*
X353188592Y-135291470D01*
X353187202Y-135290114D01*
X353185827Y-135288743D01*
X353184465Y-135287357D01*
X353183119Y-135285959D01*
X353181786Y-135284546D01*
X353180469Y-135283119D01*
X353179166Y-135281679D01*
X353177878Y-135280226D01*
X353176605Y-135278760D01*
X353175347Y-135277281D01*
X353174105Y-135275788D01*
X353172878Y-135274284D01*
X353171667Y-135272766D01*
X353170472Y-135271237D01*
X353169292Y-135269695D01*
X353168129Y-135268141D01*
X353166982Y-135266575D01*
X353165851Y-135264998D01*
X353164736Y-135263409D01*
X353163638Y-135261809D01*
X353162556Y-135260197D01*
X353161491Y-135258575D01*
X353160443Y-135256940D01*
X353159412Y-135255297D01*
X353158398Y-135253641D01*
X353157401Y-135251977D01*
X353156421Y-135250301D01*
X353155459Y-135248616D01*
X353154513Y-135246920D01*
X353153586Y-135245215D01*
X353152675Y-135243500D01*
X353151783Y-135241776D01*
X353150908Y-135240042D01*
X353150052Y-135238300D01*
X353149213Y-135236547D01*
X353148392Y-135234788D01*
X353147589Y-135233017D01*
X353146805Y-135231241D01*
X353146038Y-135229453D01*
X353145290Y-135227660D01*
X353144560Y-135225856D01*
X353143849Y-135224047D01*
X353143155Y-135222228D01*
X353142073Y-135219269D01*
X353285520Y-135341300D02*
X353284780Y-135345114D01*
X353283963Y-135348909D01*
X353283068Y-135352685D01*
X353282096Y-135356440D01*
X353281048Y-135360172D01*
X353279923Y-135363882D01*
X353278722Y-135367567D01*
X353277445Y-135371226D01*
X353276094Y-135374858D01*
X353274667Y-135378461D01*
X353273167Y-135382034D01*
X353271594Y-135385576D01*
X353269947Y-135389085D01*
X353268228Y-135392560D01*
X353266438Y-135395999D01*
X353264577Y-135399402D01*
X353262646Y-135402765D01*
X353260646Y-135406090D01*
X353258577Y-135409372D01*
X353256440Y-135412612D01*
X353254237Y-135415808D01*
X353251969Y-135418958D01*
X353249635Y-135422062D01*
X353247238Y-135425116D01*
X353244778Y-135428122D01*
X353242257Y-135431076D01*
X353240974Y-135432533D01*
X353239675Y-135433977D01*
X353238362Y-135435408D01*
X353237034Y-135436825D01*
X353235692Y-135438229D01*
X353234335Y-135439618D01*
X353232964Y-135440993D01*
X353231579Y-135442355D01*
X353230180Y-135443701D01*
X353228767Y-135445034D01*
X353227341Y-135446351D01*
X353225901Y-135447655D01*
X353224448Y-135448942D01*
X353222982Y-135450215D01*
X353221503Y-135451473D01*
X353220010Y-135452715D01*
X353218506Y-135453941D01*
X353216988Y-135455153D01*
X353215459Y-135456348D01*
X353213917Y-135457528D01*
X353212363Y-135458691D01*
X353210797Y-135459838D01*
X353209220Y-135460969D01*
X353207631Y-135462084D01*
X353206031Y-135463182D01*
X353204419Y-135464264D01*
X353202797Y-135465328D01*
X353201163Y-135466377D01*
X353199519Y-135467408D01*
X353197864Y-135468422D01*
X353196199Y-135469419D01*
X353194523Y-135470399D01*
X353192838Y-135471361D01*
X353191142Y-135472307D01*
X353189438Y-135473234D01*
X353187722Y-135474144D01*
X353185999Y-135475036D01*
X353184264Y-135475911D01*
X353182523Y-135476768D01*
X353180770Y-135477607D01*
X353179010Y-135478427D01*
X353177240Y-135479231D01*
X353175463Y-135480015D01*
X353173676Y-135480782D01*
X353171883Y-135481530D01*
X353170079Y-135482260D01*
X353168270Y-135482971D01*
X353166451Y-135483664D01*
X353163488Y-135484748D01*
X353285520Y-135341300D02*
X353286260Y-135337486D01*
X353287077Y-135333691D01*
X353287972Y-135329916D01*
X353288944Y-135326161D01*
X353289993Y-135322428D01*
X353291118Y-135318719D01*
X353292319Y-135315034D01*
X353293596Y-135311375D01*
X353294947Y-135307743D01*
X353296374Y-135304140D01*
X353297874Y-135300567D01*
X353299448Y-135297025D01*
X353301094Y-135293516D01*
X353302813Y-135290041D01*
X353304604Y-135286602D01*
X353306465Y-135283199D01*
X353308396Y-135279835D01*
X353310397Y-135276511D01*
X353312466Y-135273228D01*
X353314602Y-135269988D01*
X353316806Y-135266792D01*
X353319074Y-135263642D01*
X353321408Y-135260539D01*
X353323805Y-135257484D01*
X353326265Y-135254479D01*
X353328787Y-135251524D01*
X353330070Y-135250067D01*
X353331369Y-135248623D01*
X353332682Y-135247192D01*
X353334010Y-135245775D01*
X353335352Y-135244371D01*
X353336709Y-135242982D01*
X353338080Y-135241607D01*
X353339465Y-135240245D01*
X353340864Y-135238898D01*
X353342277Y-135237566D01*
X353343704Y-135236248D01*
X353345144Y-135234945D01*
X353346597Y-135233658D01*
X353348063Y-135232385D01*
X353349542Y-135231127D01*
X353351035Y-135229885D01*
X353352539Y-135228658D01*
X353354057Y-135227447D01*
X353355586Y-135226252D01*
X353357129Y-135225072D01*
X353358682Y-135223909D01*
X353360248Y-135222761D01*
X353361825Y-135221631D01*
X353363415Y-135220515D01*
X353365015Y-135219418D01*
X353366627Y-135218336D01*
X353368249Y-135217271D01*
X353369883Y-135216223D01*
X353371527Y-135215192D01*
X353373182Y-135214177D01*
X353374847Y-135213181D01*
X353376523Y-135212200D01*
X353378208Y-135211238D01*
X353379904Y-135210293D01*
X353381608Y-135209366D01*
X353383324Y-135208455D01*
X353385048Y-135207563D01*
X353386782Y-135206688D01*
X353388524Y-135205832D01*
X353390276Y-135204993D01*
X353392036Y-135204172D01*
X353393806Y-135203369D01*
X353395583Y-135202585D01*
X353397370Y-135201818D01*
X353399164Y-135201070D01*
X353400967Y-135200340D01*
X353402777Y-135199629D01*
X353404596Y-135198935D01*
X353407552Y-135197854D01*
X353285520Y-135341302D02*
X353289334Y-135342042D01*
X353293129Y-135342859D01*
X353296904Y-135343754D01*
X353300659Y-135344726D01*
X353304392Y-135345775D01*
X353308101Y-135346900D01*
X353311786Y-135348101D01*
X353315445Y-135349377D01*
X353319077Y-135350729D01*
X353322680Y-135352155D01*
X353326253Y-135353655D01*
X353329795Y-135355229D01*
X353333304Y-135356875D01*
X353336779Y-135358594D01*
X353340218Y-135360384D01*
X353343621Y-135362246D01*
X353346985Y-135364177D01*
X353350309Y-135366177D01*
X353353591Y-135368246D01*
X353356831Y-135370383D01*
X353360027Y-135372586D01*
X353363177Y-135374854D01*
X353366281Y-135377188D01*
X353369336Y-135379585D01*
X353372341Y-135382045D01*
X353375295Y-135384566D01*
X353376752Y-135385850D01*
X353378197Y-135387148D01*
X353379627Y-135388461D01*
X353381045Y-135389789D01*
X353382448Y-135391132D01*
X353383838Y-135392489D01*
X353385213Y-135393859D01*
X353386574Y-135395245D01*
X353387921Y-135396644D01*
X353389253Y-135398057D01*
X353390571Y-135399483D01*
X353391874Y-135400923D01*
X353393162Y-135402376D01*
X353394435Y-135403842D01*
X353395692Y-135405321D01*
X353396935Y-135406814D01*
X353398161Y-135408318D01*
X353399373Y-135409836D01*
X353400568Y-135411365D01*
X353401747Y-135412908D01*
X353402910Y-135414461D01*
X353404058Y-135416027D01*
X353405189Y-135417604D01*
X353406304Y-135419194D01*
X353407402Y-135420794D01*
X353408484Y-135422406D01*
X353409548Y-135424028D01*
X353410597Y-135425662D01*
X353411628Y-135427306D01*
X353412642Y-135428961D01*
X353413639Y-135430626D01*
X353414619Y-135432302D01*
X353415581Y-135433987D01*
X353416527Y-135435683D01*
X353417454Y-135437387D01*
X353418364Y-135439103D01*
X353419256Y-135440826D01*
X353420131Y-135442561D01*
X353420988Y-135444303D01*
X353421827Y-135446055D01*
X353422648Y-135447815D01*
X353423451Y-135449585D01*
X353424235Y-135451362D01*
X353425002Y-135453149D01*
X353425750Y-135454943D01*
X353426480Y-135456746D01*
X353427191Y-135458556D01*
X353427885Y-135460375D01*
X353428967Y-135463334D01*
X353319485Y-135156057D02*
X353316778Y-135155601D01*
X353314060Y-135155225D01*
X353311335Y-135154928D01*
X353308603Y-135154710D01*
X353305867Y-135154572D01*
X353303128Y-135154514D01*
X353300389Y-135154536D01*
X353297652Y-135154637D01*
X353294918Y-135154818D01*
X353292189Y-135155079D01*
X353289469Y-135155419D01*
X353286759Y-135155839D01*
X353284062Y-135156337D01*
X353281380Y-135156914D01*
X353278714Y-135157569D01*
X353276069Y-135158301D01*
X353273445Y-135159111D01*
X353270845Y-135159996D01*
X353269556Y-135160467D01*
X353268273Y-135160957D01*
X353266997Y-135161466D01*
X353265729Y-135161993D01*
X353264468Y-135162538D01*
X353263216Y-135163102D01*
X353261972Y-135163684D01*
X353260736Y-135164284D01*
X353259510Y-135164902D01*
X353258292Y-135165538D01*
X353257085Y-135166191D01*
X353255886Y-135166862D01*
X353254698Y-135167550D01*
X353253520Y-135168256D01*
X353252353Y-135168978D01*
X353251196Y-135169718D01*
X353250050Y-135170474D01*
X353248915Y-135171247D01*
X353247792Y-135172036D01*
X353246680Y-135172843D01*
X353245581Y-135173664D01*
X353244493Y-135174502D01*
X353243418Y-135175355D01*
X353242354Y-135176225D01*
X353241305Y-135177109D01*
X353240267Y-135178010D01*
X353239244Y-135178925D01*
X353238232Y-135179856D01*
X353237236Y-135180800D01*
X353236251Y-135181761D01*
X353235282Y-135182734D01*
X353234326Y-135183724D01*
X353233385Y-135184726D01*
X353232457Y-135185744D01*
X353230777Y-135187665D01*
X353340263Y-135494939D02*
X353342011Y-135492822D01*
X353343696Y-135490657D01*
X353345316Y-135488446D01*
X353346870Y-135486189D01*
X353348357Y-135483888D01*
X353349777Y-135481545D01*
X353351128Y-135479162D01*
X353352409Y-135476740D01*
X353353619Y-135474282D01*
X353354757Y-135471788D01*
X353355822Y-135469262D01*
X353356814Y-135466706D01*
X353357731Y-135464120D01*
X353358573Y-135461509D01*
X353359338Y-135458873D01*
X353360027Y-135456215D01*
X353360638Y-135453538D01*
X353361171Y-135450844D01*
X353361408Y-135449491D01*
X353361625Y-135448135D01*
X353361823Y-135446776D01*
X353362000Y-135445414D01*
X353362158Y-135444050D01*
X353362296Y-135442683D01*
X353362414Y-135441315D01*
X353362512Y-135439944D01*
X353362590Y-135438574D01*
X353362648Y-135437201D01*
X353362687Y-135435829D01*
X353362705Y-135434455D01*
X353362703Y-135433082D01*
X353362681Y-135431709D01*
X353362639Y-135430337D01*
X353362577Y-135428965D01*
X353362495Y-135427595D01*
X353362392Y-135426225D01*
X353362271Y-135424858D01*
X353362129Y-135423492D01*
X353361967Y-135422130D01*
X353361785Y-135420768D01*
X353361583Y-135419411D01*
X353361362Y-135418055D01*
X353361121Y-135416705D01*
X353360860Y-135415356D01*
X353360579Y-135414012D01*
X353360279Y-135412671D01*
X353359959Y-135411336D01*
X353359620Y-135410003D01*
X353359261Y-135408678D01*
X353358882Y-135407355D01*
X353358485Y-135406039D01*
X353358068Y-135404727D01*
X353357247Y-135402321D01*
X353346540Y-135269575D02*
X353343967Y-135270534D01*
X353341426Y-135271567D01*
X353338917Y-135272673D01*
X353336442Y-135273850D01*
X353334004Y-135275099D01*
X353331603Y-135276418D01*
X353329241Y-135277807D01*
X353326921Y-135279264D01*
X353324644Y-135280788D01*
X353322412Y-135282378D01*
X353320226Y-135284033D01*
X353318089Y-135285751D01*
X353316002Y-135287532D01*
X353313967Y-135289373D01*
X353311986Y-135291273D01*
X353310061Y-135293230D01*
X353308193Y-135295243D01*
X353306385Y-135297310D01*
X353305503Y-135298363D01*
X353304637Y-135299429D01*
X353303786Y-135300507D01*
X353302952Y-135301598D01*
X353302133Y-135302700D01*
X353301330Y-135303815D01*
X353300544Y-135304941D01*
X353299774Y-135306078D01*
X353299021Y-135307227D01*
X353298284Y-135308386D01*
X353297565Y-135309556D01*
X353296862Y-135310736D01*
X353296178Y-135311926D01*
X353295510Y-135313127D01*
X353294861Y-135314336D01*
X353294228Y-135315555D01*
X353293614Y-135316782D01*
X353293018Y-135318020D01*
X353292440Y-135319264D01*
X353291880Y-135320519D01*
X353291339Y-135321780D01*
X353290815Y-135323050D01*
X353290311Y-135324326D01*
X353289825Y-135325611D01*
X353289358Y-135326901D01*
X353288910Y-135328200D01*
X353288481Y-135329504D01*
X353288071Y-135330816D01*
X353287680Y-135332132D01*
X353287308Y-135333456D01*
X353286956Y-135334783D01*
X353286622Y-135336118D01*
X353286308Y-135337456D01*
X353286014Y-135338802D01*
X353285520Y-135341302D01*
X353353445Y-134970819D02*
X353356137Y-134971353D01*
X353358810Y-134971964D01*
X353361463Y-134972653D01*
X353364093Y-134973418D01*
X353366700Y-134974259D01*
X353369280Y-134975175D01*
X353371833Y-134976167D01*
X353374356Y-134977232D01*
X353376847Y-134978371D01*
X353379305Y-134979582D01*
X353381727Y-134980864D01*
X353384111Y-134982217D01*
X353386456Y-134983640D01*
X353388759Y-134985130D01*
X353391018Y-134986688D01*
X353393232Y-134988311D01*
X353395397Y-134989998D01*
X353397514Y-134991748D01*
X353398552Y-134992645D01*
X353399578Y-134993559D01*
X353400590Y-134994486D01*
X353401589Y-134995429D01*
X353402574Y-134996386D01*
X353403545Y-134997357D01*
X353404502Y-134998343D01*
X353405444Y-134999342D01*
X353406371Y-135000355D01*
X353407284Y-135001381D01*
X353408182Y-135002420D01*
X353409064Y-135003473D01*
X353409931Y-135004537D01*
X353410782Y-135005615D01*
X353411617Y-135006705D01*
X353412437Y-135007807D01*
X353413240Y-135008920D01*
X353414027Y-135010046D01*
X353414797Y-135011182D01*
X353415551Y-135012330D01*
X353416287Y-135013488D01*
X353417007Y-135014658D01*
X353417709Y-135015837D01*
X353418395Y-135017027D01*
X353419063Y-135018226D01*
X353419714Y-135019437D01*
X353420346Y-135020655D01*
X353420962Y-135021884D01*
X353421558Y-135023121D01*
X353422138Y-135024368D01*
X353422699Y-135025622D01*
X353423242Y-135026887D01*
X353423766Y-135028158D01*
X353424273Y-135029438D01*
X353425164Y-135031835D01*
X353357247Y-135402321D02*
X353356288Y-135399748D01*
X353355255Y-135397207D01*
X353354149Y-135394698D01*
X353352971Y-135392223D01*
X353351722Y-135389785D01*
X353350403Y-135387384D01*
X353349014Y-135385022D01*
X353347557Y-135382702D01*
X353346033Y-135380424D01*
X353344443Y-135378192D01*
X353342788Y-135376006D01*
X353341069Y-135373869D01*
X353339288Y-135371782D01*
X353337447Y-135369747D01*
X353335547Y-135367766D01*
X353333590Y-135365841D01*
X353331577Y-135363973D01*
X353329510Y-135362165D01*
X353328457Y-135361283D01*
X353327391Y-135360417D01*
X353326312Y-135359566D01*
X353325222Y-135358731D01*
X353324119Y-135357912D01*
X353323004Y-135357110D01*
X353321878Y-135356323D01*
X353320741Y-135355553D01*
X353319592Y-135354800D01*
X353318433Y-135354064D01*
X353317263Y-135353344D01*
X353316083Y-135352642D01*
X353314893Y-135351957D01*
X353313692Y-135351290D01*
X353312483Y-135350640D01*
X353311264Y-135350008D01*
X353310036Y-135349394D01*
X353308799Y-135348797D01*
X353307554Y-135348219D01*
X353306300Y-135347659D01*
X353305039Y-135347118D01*
X353303769Y-135346595D01*
X353302493Y-135346091D01*
X353301208Y-135345605D01*
X353299917Y-135345138D01*
X353298618Y-135344689D01*
X353297315Y-135344261D01*
X353296003Y-135343850D01*
X353294687Y-135343459D01*
X353293363Y-135343087D01*
X353292035Y-135342735D01*
X353290700Y-135342401D01*
X353289362Y-135342088D01*
X353288017Y-135341793D01*
X353285520Y-135341300D01*
X353395003Y-135648571D02*
X353392456Y-135651504D01*
X353389851Y-135654382D01*
X353387188Y-135657204D01*
X353384469Y-135659970D01*
X353381695Y-135662678D01*
X353378866Y-135665328D01*
X353375984Y-135667918D01*
X353373049Y-135670449D01*
X353370063Y-135672918D01*
X353367026Y-135675325D01*
X353363941Y-135677670D01*
X353360807Y-135679950D01*
X353357627Y-135682166D01*
X353354401Y-135684316D01*
X353351131Y-135686400D01*
X353347818Y-135688416D01*
X353344463Y-135690363D01*
X353341069Y-135692242D01*
X353337636Y-135694050D01*
X353334166Y-135695788D01*
X353330660Y-135697454D01*
X353327120Y-135699048D01*
X353323548Y-135700569D01*
X353319944Y-135702016D01*
X353316311Y-135703389D01*
X353312651Y-135704687D01*
X353310811Y-135705307D01*
X353308964Y-135705909D01*
X353307112Y-135706491D01*
X353305253Y-135707055D01*
X353303389Y-135707599D01*
X353301519Y-135708124D01*
X353299644Y-135708630D01*
X353297764Y-135709116D01*
X353295879Y-135709583D01*
X353293989Y-135710030D01*
X353292095Y-135710458D01*
X353290197Y-135710867D01*
X353288295Y-135711255D01*
X353286388Y-135711625D01*
X353284479Y-135711974D01*
X353282565Y-135712304D01*
X353280649Y-135712614D01*
X353278729Y-135712904D01*
X353276807Y-135713174D01*
X353274882Y-135713425D01*
X353272955Y-135713656D01*
X353271025Y-135713866D01*
X353269094Y-135714057D01*
X353267160Y-135714228D01*
X353265226Y-135714379D01*
X353263289Y-135714510D01*
X353261352Y-135714621D01*
X353259412Y-135714712D01*
X353257474Y-135714783D01*
X353255533Y-135714834D01*
X353253593Y-135714864D01*
X353251652Y-135714875D01*
X353249712Y-135714866D01*
X353247770Y-135714837D01*
X353245831Y-135714788D01*
X353243890Y-135714718D01*
X353241952Y-135714629D01*
X353240012Y-135714520D01*
X353238076Y-135714390D01*
X353236138Y-135714241D01*
X353234204Y-135714072D01*
X353232270Y-135713882D01*
X353230339Y-135713673D01*
X353228408Y-135713444D01*
X353226481Y-135713195D01*
X353224555Y-135712925D01*
X353222632Y-135712636D01*
X353220710Y-135712327D01*
X353217595Y-135711783D01*
X353407552Y-135197854D02*
X353411225Y-135196588D01*
X353414920Y-135195398D01*
X353418638Y-135194286D01*
X353422376Y-135193250D01*
X353426133Y-135192292D01*
X353429908Y-135191412D01*
X353433700Y-135190610D01*
X353437507Y-135189886D01*
X353441329Y-135189241D01*
X353445162Y-135188674D01*
X353449007Y-135188187D01*
X353452861Y-135187779D01*
X353456724Y-135187451D01*
X353460593Y-135187202D01*
X353464467Y-135187033D01*
X353468344Y-135186943D01*
X353472223Y-135186934D01*
X353476102Y-135187005D01*
X353479979Y-135187155D01*
X353483853Y-135187386D01*
X353487722Y-135187696D01*
X353491585Y-135188086D01*
X353495439Y-135188555D01*
X353499283Y-135189104D01*
X353503116Y-135189731D01*
X353506935Y-135190438D01*
X353508839Y-135190821D01*
X353510738Y-135191223D01*
X353512634Y-135191645D01*
X353514525Y-135192087D01*
X353516412Y-135192548D01*
X353518293Y-135193028D01*
X353520170Y-135193528D01*
X353522041Y-135194047D01*
X353523907Y-135194585D01*
X353525767Y-135195142D01*
X353527621Y-135195719D01*
X353529470Y-135196314D01*
X353531311Y-135196929D01*
X353533147Y-135197563D01*
X353534975Y-135198215D01*
X353536797Y-135198886D01*
X353538611Y-135199576D01*
X353540419Y-135200285D01*
X353542218Y-135201011D01*
X353544011Y-135201757D01*
X353545795Y-135202521D01*
X353547572Y-135203304D01*
X353549339Y-135204104D01*
X353551100Y-135204923D01*
X353552850Y-135205760D01*
X353554593Y-135206615D01*
X353556326Y-135207487D01*
X353558050Y-135208378D01*
X353559765Y-135209286D01*
X353561471Y-135210213D01*
X353563166Y-135211156D01*
X353564853Y-135212117D01*
X353566528Y-135213095D01*
X353568195Y-135214092D01*
X353569850Y-135215104D01*
X353571496Y-135216135D01*
X353573130Y-135217181D01*
X353574755Y-135218246D01*
X353576367Y-135219326D01*
X353577970Y-135220424D01*
X353579560Y-135221538D01*
X353581141Y-135222669D01*
X353582708Y-135223816D01*
X353584265Y-135224980D01*
X353585810Y-135226160D01*
X353587343Y-135227356D01*
X353588864Y-135228568D01*
X353590374Y-135229797D01*
X353592790Y-135231818D01*
X353408186Y-135124451D02*
X353406377Y-135126516D01*
X353404510Y-135128526D01*
X353402586Y-135130480D01*
X353400608Y-135132376D01*
X353398575Y-135134213D01*
X353396490Y-135135990D01*
X353394355Y-135137705D01*
X353392170Y-135139358D01*
X353389937Y-135140946D01*
X353387659Y-135142469D01*
X353385337Y-135143926D01*
X353382972Y-135145315D01*
X353380567Y-135146634D01*
X353378125Y-135147884D01*
X353375646Y-135149062D01*
X353373134Y-135150167D01*
X353370589Y-135151199D01*
X353368016Y-135152157D01*
X353366719Y-135152608D01*
X353365415Y-135153040D01*
X353364106Y-135153452D01*
X353362790Y-135153846D01*
X353361469Y-135154220D01*
X353360142Y-135154576D01*
X353358811Y-135154911D01*
X353357474Y-135155228D01*
X353356134Y-135155524D01*
X353354789Y-135155802D01*
X353353440Y-135156059D01*
X353352087Y-135156297D01*
X353350732Y-135156515D01*
X353349373Y-135156714D01*
X353348013Y-135156892D01*
X353346649Y-135157051D01*
X353345283Y-135157189D01*
X353343915Y-135157308D01*
X353342547Y-135157406D01*
X353341176Y-135157485D01*
X353339805Y-135157544D01*
X353338432Y-135157583D01*
X353337061Y-135157601D01*
X353335687Y-135157600D01*
X353334315Y-135157578D01*
X353332942Y-135157537D01*
X353331571Y-135157475D01*
X353330199Y-135157394D01*
X353328831Y-135157292D01*
X353327461Y-135157170D01*
X353326095Y-135157029D01*
X353324729Y-135156867D01*
X353323367Y-135156686D01*
X353322005Y-135156484D01*
X353319485Y-135156057D01*
X353425164Y-135031835D02*
X353426048Y-135034434D01*
X353426855Y-135037056D01*
X353427585Y-135039698D01*
X353428238Y-135042359D01*
X353428813Y-135045038D01*
X353429309Y-135047731D01*
X353429727Y-135050438D01*
X353430066Y-135053157D01*
X353430325Y-135055884D01*
X353430505Y-135058619D01*
X353430606Y-135061358D01*
X353430626Y-135064100D01*
X353430567Y-135066842D01*
X353430427Y-135069582D01*
X353430208Y-135072317D01*
X353429909Y-135075046D01*
X353429531Y-135077765D01*
X353429074Y-135080472D01*
X353428816Y-135081821D01*
X353428538Y-135083166D01*
X353428240Y-135084506D01*
X353427924Y-135085842D01*
X353427587Y-135087174D01*
X353427232Y-135088500D01*
X353426857Y-135089821D01*
X353426462Y-135091137D01*
X353426049Y-135092446D01*
X353425617Y-135093749D01*
X353425165Y-135095046D01*
X353424695Y-135096336D01*
X353424206Y-135097619D01*
X353423699Y-135098895D01*
X353423173Y-135100162D01*
X353422628Y-135101423D01*
X353422066Y-135102675D01*
X353421484Y-135103919D01*
X353420886Y-135105153D01*
X353420268Y-135106380D01*
X353419634Y-135107596D01*
X353418981Y-135108805D01*
X353418311Y-135110002D01*
X353417623Y-135111191D01*
X353416919Y-135112368D01*
X353416196Y-135113537D01*
X353415457Y-135114693D01*
X353414701Y-135115840D01*
X353413928Y-135116975D01*
X353413138Y-135118100D01*
X353412332Y-135119213D01*
X353411509Y-135120315D01*
X353410671Y-135121404D01*
X353409815Y-135122483D01*
X353408186Y-135124451D01*
X353428967Y-135463334D02*
X353430233Y-135467007D01*
X353431423Y-135470702D01*
X353432535Y-135474420D01*
X353433571Y-135478158D01*
X353434529Y-135481915D01*
X353435409Y-135485690D01*
X353436211Y-135489482D01*
X353436935Y-135493289D01*
X353437580Y-135497110D01*
X353438147Y-135500944D01*
X353438634Y-135504788D01*
X353439042Y-135508643D01*
X353439370Y-135512505D01*
X353439619Y-135516374D01*
X353439788Y-135520248D01*
X353439878Y-135524125D01*
X353439887Y-135528004D01*
X353439816Y-135531883D01*
X353439666Y-135535760D01*
X353439435Y-135539634D01*
X353439125Y-135543504D01*
X353438735Y-135547366D01*
X353438266Y-135551220D01*
X353437717Y-135555064D01*
X353437090Y-135558897D01*
X353436383Y-135562716D01*
X353436000Y-135564620D01*
X353435598Y-135566519D01*
X353435176Y-135568415D01*
X353434734Y-135570306D01*
X353434273Y-135572193D01*
X353433793Y-135574074D01*
X353433293Y-135575951D01*
X353432774Y-135577822D01*
X353432236Y-135579688D01*
X353431679Y-135581548D01*
X353431102Y-135583402D01*
X353430507Y-135585251D01*
X353429892Y-135587092D01*
X353429258Y-135588928D01*
X353428606Y-135590756D01*
X353427935Y-135592578D01*
X353427245Y-135594392D01*
X353426536Y-135596200D01*
X353425810Y-135597999D01*
X353425064Y-135599792D01*
X353424300Y-135601576D01*
X353423517Y-135603353D01*
X353422717Y-135605120D01*
X353421898Y-135606880D01*
X353421061Y-135608631D01*
X353420206Y-135610374D01*
X353419334Y-135612107D01*
X353418443Y-135613831D01*
X353417535Y-135615546D01*
X353416608Y-135617252D01*
X353415665Y-135618947D01*
X353414704Y-135620634D01*
X353413726Y-135622309D01*
X353412729Y-135623976D01*
X353411717Y-135625631D01*
X353410686Y-135627277D01*
X353409640Y-135628911D01*
X353408575Y-135630536D01*
X353407495Y-135632148D01*
X353406397Y-135633751D01*
X353405283Y-135635341D01*
X353404152Y-135636922D01*
X353403005Y-135638489D01*
X353401841Y-135640046D01*
X353400661Y-135641591D01*
X353399465Y-135643124D01*
X353398253Y-135644645D01*
X353397024Y-135646155D01*
X353395003Y-135648571D01*
X353439156Y-135286559D02*
X353437040Y-135284811D01*
X353434875Y-135283126D01*
X353432664Y-135281506D01*
X353430407Y-135279952D01*
X353428107Y-135278465D01*
X353425764Y-135277045D01*
X353423381Y-135275694D01*
X353420960Y-135274413D01*
X353418502Y-135273203D01*
X353416009Y-135272065D01*
X353413483Y-135270999D01*
X353410927Y-135270008D01*
X353408342Y-135269091D01*
X353405730Y-135268249D01*
X353403095Y-135267483D01*
X353400437Y-135266795D01*
X353397760Y-135266184D01*
X353395066Y-135265651D01*
X353393714Y-135265414D01*
X353392358Y-135265196D01*
X353390999Y-135264999D01*
X353389637Y-135264821D01*
X353388272Y-135264663D01*
X353386906Y-135264525D01*
X353385538Y-135264407D01*
X353384168Y-135264309D01*
X353382797Y-135264231D01*
X353381424Y-135264173D01*
X353380052Y-135264135D01*
X353378678Y-135264117D01*
X353377306Y-135264119D01*
X353375932Y-135264140D01*
X353374561Y-135264182D01*
X353373188Y-135264244D01*
X353371819Y-135264326D01*
X353370449Y-135264428D01*
X353369082Y-135264550D01*
X353367716Y-135264692D01*
X353366354Y-135264854D01*
X353364992Y-135265036D01*
X353363635Y-135265237D01*
X353362279Y-135265459D01*
X353360928Y-135265700D01*
X353359579Y-135265961D01*
X353358236Y-135266241D01*
X353356895Y-135266542D01*
X353355560Y-135266861D01*
X353354227Y-135267201D01*
X353352901Y-135267560D01*
X353351579Y-135267938D01*
X353350263Y-135268335D01*
X353348951Y-135268753D01*
X353346540Y-135269575D01*
X353470764Y-135375266D02*
X353471220Y-135372559D01*
X353471596Y-135369842D01*
X353471893Y-135367116D01*
X353472111Y-135364385D01*
X353472249Y-135361649D01*
X353472307Y-135358910D01*
X353472285Y-135356171D01*
X353472184Y-135353433D01*
X353472003Y-135350699D01*
X353471742Y-135347971D01*
X353471402Y-135345251D01*
X353470982Y-135342541D01*
X353470484Y-135339844D01*
X353469907Y-135337161D01*
X353469252Y-135334496D01*
X353468520Y-135331850D01*
X353467710Y-135329227D01*
X353466825Y-135326627D01*
X353466354Y-135325337D01*
X353465864Y-135324054D01*
X353465355Y-135322778D01*
X353464828Y-135321510D01*
X353464283Y-135320250D01*
X353463719Y-135318997D01*
X353463137Y-135317753D01*
X353462537Y-135316518D01*
X353461919Y-135315292D01*
X353461283Y-135314074D01*
X353460630Y-135312866D01*
X353459959Y-135311668D01*
X353459271Y-135310480D01*
X353458565Y-135309302D01*
X353457843Y-135308135D01*
X353457103Y-135306977D01*
X353456347Y-135305832D01*
X353455574Y-135304697D01*
X353454785Y-135303574D01*
X353453979Y-135302462D01*
X353453157Y-135301363D01*
X353452319Y-135300274D01*
X353451466Y-135299200D01*
X353450596Y-135298136D01*
X353449712Y-135297087D01*
X353448811Y-135296049D01*
X353447896Y-135295026D01*
X353446966Y-135294014D01*
X353446021Y-135293018D01*
X353445061Y-135292034D01*
X353444087Y-135291065D01*
X353443098Y-135290108D01*
X353442096Y-135289167D01*
X353441078Y-135288240D01*
X353439156Y-135286559D01*
X353502370Y-135463968D02*
X353500305Y-135462159D01*
X353498295Y-135460291D01*
X353496341Y-135458368D01*
X353494445Y-135456389D01*
X353492608Y-135454357D01*
X353490831Y-135452272D01*
X353489116Y-135450136D01*
X353487463Y-135447951D01*
X353485875Y-135445718D01*
X353484352Y-135443439D01*
X353482895Y-135441117D01*
X353481506Y-135438752D01*
X353480187Y-135436348D01*
X353478937Y-135433905D01*
X353477759Y-135431426D01*
X353476654Y-135428913D01*
X353475622Y-135426369D01*
X353474664Y-135423795D01*
X353474213Y-135422498D01*
X353473782Y-135421195D01*
X353473369Y-135419885D01*
X353472975Y-135418569D01*
X353472601Y-135417248D01*
X353472246Y-135415921D01*
X353471910Y-135414590D01*
X353471594Y-135413253D01*
X353471297Y-135411913D01*
X353471020Y-135410567D01*
X353470762Y-135409219D01*
X353470524Y-135407866D01*
X353470306Y-135406511D01*
X353470108Y-135405152D01*
X353469929Y-135403791D01*
X353469771Y-135402427D01*
X353469632Y-135401062D01*
X353469514Y-135399694D01*
X353469415Y-135398325D01*
X353469336Y-135396954D01*
X353469278Y-135395584D01*
X353469239Y-135394211D01*
X353469220Y-135392839D01*
X353469222Y-135391465D01*
X353469243Y-135390094D01*
X353469285Y-135388720D01*
X353469346Y-135387349D01*
X353469428Y-135385978D01*
X353469529Y-135384609D01*
X353469651Y-135383239D01*
X353469793Y-135381873D01*
X353469954Y-135380507D01*
X353470136Y-135379145D01*
X353470338Y-135377783D01*
X353470764Y-135375266D01*
X353592790Y-135231818D02*
X353595723Y-135234365D01*
X353598600Y-135236970D01*
X353601423Y-135239633D01*
X353604188Y-135242352D01*
X353606897Y-135245126D01*
X353609546Y-135247955D01*
X353612137Y-135250837D01*
X353614667Y-135253772D01*
X353617137Y-135256758D01*
X353619544Y-135259795D01*
X353621888Y-135262880D01*
X353624169Y-135266014D01*
X353626384Y-135269194D01*
X353628534Y-135272420D01*
X353630618Y-135275690D01*
X353632634Y-135279003D01*
X353634581Y-135282358D01*
X353636460Y-135285752D01*
X353638268Y-135289185D01*
X353640006Y-135292655D01*
X353641672Y-135296161D01*
X353643266Y-135299701D01*
X353644787Y-135303274D01*
X353646234Y-135306877D01*
X353647607Y-135310510D01*
X353648904Y-135314171D01*
X353649525Y-135316011D01*
X353650127Y-135317858D01*
X353650709Y-135319710D01*
X353651272Y-135321569D01*
X353651817Y-135323433D01*
X353652342Y-135325303D01*
X353652847Y-135327178D01*
X353653334Y-135329058D01*
X353653801Y-135330943D01*
X353654248Y-135332833D01*
X353654676Y-135334727D01*
X353655084Y-135336626D01*
X353655473Y-135338528D01*
X353655842Y-135340435D01*
X353656192Y-135342344D01*
X353656522Y-135344258D01*
X353656832Y-135346174D01*
X353657122Y-135348094D01*
X353657392Y-135350016D01*
X353657643Y-135351942D01*
X353657873Y-135353868D01*
X353658084Y-135355799D01*
X353658275Y-135357730D01*
X353658446Y-135359664D01*
X353658597Y-135361598D01*
X353658728Y-135363535D01*
X353658839Y-135365472D01*
X353658930Y-135367412D01*
X353659001Y-135369350D01*
X353659052Y-135371291D01*
X353659082Y-135373231D01*
X353659093Y-135375173D01*
X353659084Y-135377113D01*
X353659055Y-135379055D01*
X353659006Y-135380994D01*
X353658936Y-135382935D01*
X353658847Y-135384874D01*
X353658738Y-135386813D01*
X353658608Y-135388750D01*
X353658459Y-135390687D01*
X353658290Y-135392621D01*
X353658100Y-135394556D01*
X353657891Y-135396487D01*
X353657662Y-135398418D01*
X353657413Y-135400345D01*
X353657143Y-135402272D01*
X353656855Y-135404194D01*
X353656545Y-135406116D01*
X353656002Y-135409227D01*
X353594986Y-135480945D02*
X353592387Y-135481829D01*
X353589765Y-135482636D01*
X353587123Y-135483366D01*
X353584462Y-135484019D01*
X353581783Y-135484594D01*
X353579090Y-135485090D01*
X353576383Y-135485508D01*
X353573664Y-135485847D01*
X353570937Y-135486106D01*
X353568202Y-135486286D01*
X353565463Y-135486387D01*
X353562721Y-135486407D01*
X353559979Y-135486348D01*
X353557239Y-135486208D01*
X353554504Y-135485989D01*
X353551775Y-135485690D01*
X353549056Y-135485312D01*
X353546349Y-135484855D01*
X353545000Y-135484597D01*
X353543655Y-135484319D01*
X353542315Y-135484022D01*
X353540979Y-135483705D01*
X353539647Y-135483368D01*
X353538321Y-135483013D01*
X353537000Y-135482638D01*
X353535684Y-135482243D01*
X353534375Y-135481830D01*
X353533071Y-135481398D01*
X353531775Y-135480946D01*
X353530485Y-135480476D01*
X353529202Y-135479987D01*
X353527926Y-135479480D01*
X353526658Y-135478954D01*
X353525398Y-135478409D01*
X353524146Y-135477847D01*
X353522902Y-135477265D01*
X353521667Y-135476667D01*
X353520440Y-135476049D01*
X353519224Y-135475415D01*
X353518016Y-135474762D01*
X353516818Y-135474092D01*
X353515629Y-135473404D01*
X353514452Y-135472699D01*
X353513283Y-135471977D01*
X353512127Y-135471238D01*
X353510980Y-135470481D01*
X353509845Y-135469709D01*
X353508719Y-135468919D01*
X353507607Y-135468113D01*
X353506505Y-135467290D01*
X353505416Y-135466451D01*
X353504337Y-135465596D01*
X353502370Y-135463968D01*
X353656002Y-135409227D02*
X353655468Y-135411919D01*
X353654857Y-135414592D01*
X353654168Y-135417245D01*
X353653403Y-135419875D01*
X353652562Y-135422481D01*
X353651646Y-135425062D01*
X353650654Y-135427614D01*
X353649589Y-135430137D01*
X353648450Y-135432629D01*
X353647239Y-135435086D01*
X353645956Y-135437508D01*
X353644603Y-135439893D01*
X353643181Y-135442237D01*
X353641691Y-135444540D01*
X353640133Y-135446800D01*
X353638510Y-135449013D01*
X353636823Y-135451179D01*
X353635073Y-135453295D01*
X353634175Y-135454334D01*
X353633262Y-135455360D01*
X353632334Y-135456372D01*
X353631392Y-135457371D01*
X353630435Y-135458356D01*
X353629463Y-135459327D01*
X353628478Y-135460283D01*
X353627479Y-135461225D01*
X353626466Y-135462153D01*
X353625440Y-135463066D01*
X353624401Y-135463963D01*
X353623348Y-135464845D01*
X353622283Y-135465712D01*
X353621205Y-135466563D01*
X353620116Y-135467398D01*
X353619014Y-135468218D01*
X353617900Y-135469021D01*
X353616775Y-135469808D01*
X353615639Y-135470578D01*
X353614490Y-135471332D01*
X353613332Y-135472068D01*
X353612163Y-135472788D01*
X353610984Y-135473491D01*
X353609793Y-135474176D01*
X353608594Y-135474844D01*
X353607384Y-135475495D01*
X353606165Y-135476127D01*
X353604936Y-135476743D01*
X353603699Y-135477340D01*
X353602452Y-135477919D01*
X353601198Y-135478480D01*
X353599934Y-135479023D01*
X353598663Y-135479548D01*
X353597382Y-135480054D01*
X353594986Y-135480945D01*
D12*
X358223804Y-135401003D02*
X358223804Y-134924813D01*
X358509519Y-135496241D02*
X357509519Y-135162908D01*
X357509519Y-135162908D02*
X358509519Y-134829575D01*
X358509519Y-138653384D02*
X357842852Y-138653384D01*
X358033328Y-138653384D02*
X357938090Y-138605765D01*
X357938090Y-138605765D02*
X357890471Y-138558146D01*
X357890471Y-138558146D02*
X357842852Y-138462908D01*
X357842852Y-138462908D02*
X357842852Y-138367670D01*
X358461900Y-137653384D02*
X358509519Y-137748622D01*
X358509519Y-137748622D02*
X358509519Y-137939098D01*
X358509519Y-137939098D02*
X358461900Y-138034336D01*
X358461900Y-138034336D02*
X358366661Y-138081955D01*
X358366661Y-138081955D02*
X357985709Y-138081955D01*
X357985709Y-138081955D02*
X357890471Y-138034336D01*
X357890471Y-138034336D02*
X357842852Y-137939098D01*
X357842852Y-137939098D02*
X357842852Y-137748622D01*
X357842852Y-137748622D02*
X357890471Y-137653384D01*
X357890471Y-137653384D02*
X357985709Y-137605765D01*
X357985709Y-137605765D02*
X358080947Y-137605765D01*
X358080947Y-137605765D02*
X358176185Y-138081955D01*
X357842852Y-137272431D02*
X358509519Y-137034336D01*
X358509519Y-137034336D02*
X357842852Y-136796241D01*
X358414280Y-136415288D02*
X358461900Y-136367669D01*
X358461900Y-136367669D02*
X358509519Y-136415288D01*
X358509519Y-136415288D02*
X358461900Y-136462907D01*
X358461900Y-136462907D02*
X358414280Y-136415288D01*
X358414280Y-136415288D02*
X358509519Y-136415288D01*
M02*
