M48
; DRILL file KiCad 10.0.4-10.0.4~ubuntu24.04.1 date 2026-07-28T17:27:47
; FORMAT={-:-/ absolute / metric / decimal}
; #@! TF.CreationDate,2026-07-28T17:27:47+02:00
; #@! TF.GenerationSoftware,Kicad,Pcbnew,10.0.4-10.0.4~ubuntu24.04.1
; #@! TF.FileFunction,Plated,1,2,PTH
FMAT,2
METRIC
; #@! TA.AperFunction,Plated,PTH,ViaDrill
T1C0.300
; #@! TA.AperFunction,Plated,PTH,ComponentDrill
T2C1.000
%
G90
G05
T1
X62.229Y-118.883
X62.229Y-137.933
X62.229Y-156.983
X62.229Y-166.508
X62.229Y-195.083
X66.139Y-114.359
X68.072Y-114.959
X68.52Y-190.557
X70.901Y-133.408
X71.754Y-109.358
X71.754Y-137.933
X71.754Y-156.983
X71.754Y-185.558
X71.754Y-195.083
X73.282Y-152.458
X78.045Y-171.507
X81.279Y-118.883
X81.279Y-128.408
X81.279Y-137.933
X81.279Y-147.458
X81.279Y-156.983
X81.279Y-166.508
X81.279Y-176.033
X81.279Y-195.083
X85.188Y-114.359
X87.121Y-115.559
X90.804Y-109.358
X90.804Y-137.933
X90.804Y-156.983
X90.804Y-166.508
X90.804Y-176.033
X90.804Y-195.083
X92.332Y-190.557
X94.713Y-133.408
X99.476Y-152.458
X100.329Y-118.883
X100.329Y-128.408
X100.329Y-176.033
X100.329Y-185.558
X100.329Y-195.083
X104.238Y-114.359
X106.171Y-116.159
X109.0Y-171.507
X109.854Y-109.358
X109.854Y-137.933
X109.854Y-156.983
X109.854Y-176.033
X109.854Y-195.083
X113.763Y-133.408
X116.144Y-190.557
X118.525Y-152.458
X119.379Y-118.883
X119.379Y-128.408
X119.379Y-176.033
X119.379Y-185.558
X119.379Y-195.083
X123.288Y-114.359
X128.05Y-171.507
X128.904Y-109.358
X128.904Y-137.933
X128.904Y-156.983
X128.904Y-176.033
X128.904Y-185.558
X128.904Y-195.083
X132.812Y-133.408
X134.745Y-134.008
X137.575Y-152.458
X138.429Y-118.883
X138.429Y-128.408
X138.429Y-176.033
X138.429Y-185.558
X138.429Y-195.083
X142.337Y-114.359
X147.1Y-171.507
X147.954Y-109.358
X147.954Y-137.933
X147.954Y-156.983
X147.954Y-176.033
X147.954Y-185.558
X147.954Y-195.083
X151.862Y-133.408
X153.795Y-134.608
X156.624Y-152.458
X157.479Y-118.883
X157.479Y-128.408
X157.479Y-176.033
X157.479Y-185.558
X157.479Y-195.083
X161.387Y-114.359
X166.149Y-171.507
X167.004Y-109.358
X167.004Y-137.933
X167.004Y-156.983
X167.004Y-176.033
X167.004Y-185.558
X167.004Y-195.083
X170.912Y-133.408
X172.844Y-135.208
X175.674Y-152.458
X176.529Y-118.883
X176.529Y-128.408
X176.529Y-176.033
X176.529Y-195.083
X180.436Y-114.359
X185.199Y-171.507
X186.054Y-109.358
X186.054Y-137.933
X186.054Y-156.983
X186.054Y-176.033
X186.054Y-195.083
X187.58Y-190.557
X189.961Y-133.408
X194.724Y-152.458
X195.579Y-118.883
X195.579Y-128.408
X195.579Y-176.033
X195.579Y-185.558
X195.579Y-195.083
X196.656Y-153.058
X199.486Y-114.359
X204.248Y-171.507
X205.104Y-109.358
X205.104Y-137.933
X205.104Y-156.983
X205.104Y-176.033
X205.104Y-185.558
X205.104Y-195.083
X209.011Y-133.408
X213.773Y-152.458
X214.629Y-118.883
X214.629Y-128.408
X214.629Y-176.033
X214.629Y-185.558
X214.629Y-195.083
X215.706Y-153.658
X218.536Y-114.359
X223.298Y-171.507
X224.154Y-109.358
X224.154Y-137.933
X224.154Y-156.983
X224.154Y-176.033
X224.154Y-185.558
X224.154Y-195.083
X228.06Y-133.408
X232.823Y-152.458
X233.679Y-118.883
X233.679Y-128.408
X233.679Y-185.558
X233.679Y-195.083
X234.756Y-154.258
X237.585Y-114.359
X242.348Y-171.507
X243.204Y-109.358
X243.204Y-137.933
X243.204Y-156.983
X243.204Y-176.033
X243.204Y-185.558
X243.204Y-195.083
X244.28Y-172.107
X247.11Y-133.408
X251.872Y-152.458
X252.729Y-118.883
X252.729Y-128.408
X252.729Y-195.083
X256.635Y-114.359
X256.635Y-190.557
X261.397Y-171.507
X262.254Y-109.358
X262.254Y-137.933
X262.254Y-156.983
X262.254Y-176.033
X262.254Y-185.558
X262.254Y-195.083
X263.33Y-172.707
X266.16Y-133.408
X270.922Y-152.458
X271.779Y-118.883
X271.779Y-128.408
X271.779Y-195.083
X275.684Y-114.359
X275.684Y-190.557
X280.447Y-171.507
X281.304Y-109.358
X281.304Y-137.933
X281.304Y-156.983
X281.304Y-176.033
X281.304Y-185.558
X281.304Y-195.083
X282.38Y-173.307
X285.209Y-133.408
X289.972Y-152.458
X290.829Y-118.883
X290.829Y-128.408
X290.829Y-166.508
X290.829Y-195.083
X294.734Y-114.359
X294.734Y-190.557
X300.354Y-109.358
X300.354Y-137.933
X300.354Y-147.458
X300.354Y-156.983
X300.354Y-176.033
X300.354Y-185.558
X300.354Y-195.083
X304.259Y-133.408
X306.64Y-171.507
X309.879Y-109.358
X309.879Y-118.883
X309.879Y-128.408
X309.879Y-137.933
X309.879Y-156.983
X309.879Y-166.508
X309.879Y-176.033
X309.879Y-185.558
X318.546Y-195.319
X319.404Y-137.933
X319.404Y-156.983
X319.404Y-166.508
X320.479Y-195.92
X320.927Y-152.458
X323.308Y-114.359
X328.071Y-133.408
X328.929Y-109.358
X328.929Y-147.458
X328.929Y-166.508
X328.929Y-185.558
X336.307Y-154.258
X336.907Y-153.658
X337.507Y-153.058
X337.596Y-176.27
X337.596Y-195.319
X338.107Y-152.458
X338.454Y-109.358
X338.454Y-118.883
X338.454Y-128.408
X338.707Y-135.208
X339.307Y-134.608
X339.528Y-196.52
X339.907Y-134.008
X340.507Y-133.408
X341.107Y-116.159
X341.704Y-195.263
X341.707Y-115.559
X342.304Y-195.92
X342.307Y-114.959
X342.904Y-196.52
X342.907Y-114.359
X343.504Y-197.12
X343.507Y-176.27
X344.107Y-176.87
X344.707Y-177.47
X345.307Y-178.07
X347.979Y-185.558
X356.645Y-195.319
X357.504Y-176.033
X358.578Y-197.12
X361.408Y-171.507
T2
X346.238Y-101.898
X346.238Y-104.438
X346.238Y-106.978
X346.238Y-109.518
X346.238Y-112.058
X346.238Y-114.598
X346.238Y-117.138
X346.238Y-119.678
X346.238Y-122.218
X346.238Y-124.758
X346.238Y-127.298
X346.238Y-129.838
X346.238Y-132.378
X346.238Y-134.918
X346.238Y-137.458
X346.238Y-139.998
X346.238Y-142.538
X346.238Y-145.078
X346.238Y-147.618
X346.238Y-150.158
X364.018Y-101.898
X364.018Y-104.438
X364.018Y-106.978
X364.018Y-109.518
X364.018Y-112.058
X364.018Y-114.598
X364.018Y-117.138
X364.018Y-119.678
X364.018Y-122.218
X364.018Y-124.758
X364.018Y-127.298
X364.018Y-129.838
X364.018Y-132.378
X364.018Y-134.918
X364.018Y-137.458
X364.018Y-139.998
X364.018Y-142.538
X364.018Y-145.078
X364.018Y-147.618
X364.018Y-150.158
M30
