  0
SECTION
  2
HEADER
  9
$ACADVER
  1
AC1009
  9
$FILLMODE
 70
 0
  9
$SPLFRAME
 70
 1
  9
$EXTMIN
 10
0
 20
0
 30
0.0
  9
$EXTMAX
 10
1058.33
 20
1058.33
 30
0.0
  0
ENDSEC
  0
SECTION
  2
TABLES
  0
TABLE
  2
LAYER
 70
1
  0
LAYER
  2
0
 70
     0
 62
     7
  6
CONTINUOUS
  0
ENDTAB
  0
ENDSEC
  0
SECTION
  2
ENTITIES
  0
LINE
  8
0
 62
     0
 10
321.564
 20
109.971
 30
0.0
 11
321.751
 21
109.965
 31
0.0
  0
LINE
  8
0
 62
     0
 10
321.751
 20
109.965
 30
0.0
 11
321.937
 21
109.942
 31
0.0
  0
LINE
  8
0
 62
     0
 10
321.937
 20
109.942
 30
0.0
 11
322.121
 21
109.907
 31
0.0
  0
LINE
  8
0
 62
     0
 10
322.121
 20
109.907
 30
0.0
 11
322.301
 21
109.856
 31
0.0
  0
LINE
  8
0
 62
     0
 10
322.301
 20
109.856
 30
0.0
 11
322.476
 21
109.79
 31
0.0
  0
LINE
  8
0
 62
     0
 10
322.476
 20
109.79
 30
0.0
 11
322.646
 21
109.712
 31
0.0
  0
LINE
  8
0
 62
     0
 10
322.646
 20
109.712
 30
0.0
 11
322.808
 21
109.621
 31
0.0
  0
LINE
  8
0
 62
     0
 10
322.808
 20
109.621
 30
0.0
 11
322.964
 21
109.517
 31
0.0
  0
LINE
  8
0
 62
     0
 10
322.964
 20
109.517
 30
0.0
 11
323.111
 21
109.401
 31
0.0
  0
LINE
  8
0
 62
     0
 10
323.111
 20
109.401
 30
0.0
 11
323.249
 21
109.274
 31
0.0
  0
LINE
  8
0
 62
     0
 10
323.249
 20
109.274
 30
0.0
 11
323.376
 21
109.136
 31
0.0
  0
LINE
  8
0
 62
     0
 10
323.376
 20
109.136
 30
0.0
 11
323.492
 21
108.99
 31
0.0
  0
LINE
  8
0
 62
     0
 10
323.492
 20
108.99
 30
0.0
 11
323.595
 21
108.835
 31
0.0
  0
LINE
  8
0
 62
     0
 10
323.595
 20
108.835
 30
0.0
 11
323.686
 21
108.671
 31
0.0
  0
LINE
  8
0
 62
     0
 10
323.686
 20
108.671
 30
0.0
 11
323.765
 21
108.502
 31
0.0
  0
LINE
  8
0
 62
     0
 10
323.765
 20
108.502
 30
0.0
 11
323.829
 21
108.326
 31
0.0
  0
LINE
  8
0
 62
     0
 10
323.829
 20
108.326
 30
0.0
 11
323.88
 21
108.146
 31
0.0
  0
LINE
  8
0
 62
     0
 10
323.88
 20
108.146
 30
0.0
 11
323.916
 21
107.964
 31
0.0
  0
LINE
  8
0
 62
     0
 10
323.916
 20
107.964
 30
0.0
 11
323.938
 21
107.778
 31
0.0
  0
LINE
  8
0
 62
     0
 10
323.938
 20
107.778
 30
0.0
 11
323.946
 21
107.59
 31
0.0
  0
LINE
  8
0
 62
     0
 10
323.946
 20
107.59
 30
0.0
 11
323.946
 21
2.81395
 31
0.0
  0
LINE
  8
0
 62
     0
 10
323.946
 20
2.81395
 30
0.0
 11
323.938
 21
2.62654
 31
0.0
  0
LINE
  8
0
 62
     0
 10
323.938
 20
2.62654
 30
0.0
 11
323.916
 21
2.44189
 31
0.0
  0
LINE
  8
0
 62
     0
 10
323.916
 20
2.44189
 30
0.0
 11
323.88
 21
2.2586
 31
0.0
  0
LINE
  8
0
 62
     0
 10
323.88
 20
2.2586
 30
0.0
 11
323.829
 21
2.07808
 31
0.0
  0
LINE
  8
0
 62
     0
 10
323.829
 20
2.07808
 30
0.0
 11
323.765
 21
1.90307
 31
0.0
  0
LINE
  8
0
 62
     0
 10
323.765
 20
1.90307
 30
0.0
 11
323.686
 21
1.73357
 31
0.0
  0
LINE
  8
0
 62
     0
 10
323.686
 20
1.73357
 30
0.0
 11
323.595
 21
1.56959
 31
0.0
  0
LINE
  8
0
 62
     0
 10
323.595
 20
1.56959
 30
0.0
 11
323.492
 21
1.41525
 31
0.0
  0
LINE
  8
0
 62
     0
 10
323.492
 20
1.41525
 30
0.0
 11
323.376
 21
1.2678
 31
0.0
  0
LINE
  8
0
 62
     0
 10
323.376
 20
1.2678
 30
0.0
 11
323.249
 21
1.12999
 31
0.0
  0
LINE
  8
0
 62
     0
 10
323.249
 20
1.12999
 30
0.0
 11
323.111
 21
1.00459
 31
0.0
  0
LINE
  8
0
 62
     0
 10
323.111
 20
1.00459
 30
0.0
 11
322.964
 21
0.888834
 31
0.0
  0
LINE
  8
0
 62
     0
 10
322.964
 20
0.888834
 30
0.0
 11
322.808
 21
0.784105
 31
0.0
  0
LINE
  8
0
 62
     0
 10
322.808
 20
0.784105
 30
0.0
 11
322.646
 21
0.693152
 31
0.0
  0
LINE
  8
0
 62
     0
 10
322.646
 20
0.693152
 30
0.0
 11
322.476
 21
0.614606
 31
0.0
  0
LINE
  8
0
 62
     0
 10
322.476
 20
0.614606
 30
0.0
 11
322.301
 21
0.549836
 31
0.0
  0
LINE
  8
0
 62
     0
 10
322.301
 20
0.549836
 30
0.0
 11
322.121
 21
0.498849
 31
0.0
  0
LINE
  8
0
 62
     0
 10
322.121
 20
0.498849
 30
0.0
 11
321.937
 21
0.461641
 31
0.0
  0
LINE
  8
0
 62
     0
 10
321.937
 20
0.461641
 30
0.0
 11
321.751
 21
0.439593
 31
0.0
  0
LINE
  8
0
 62
     0
 10
321.751
 20
0.439593
 30
0.0
 11
321.564
 21
0.432703
 31
0.0
  0
LINE
  8
0
 62
     0
 10
321.564
 20
0.432703
 30
0.0
 11
2.47633
 21
0.432703
 31
0.0
  0
LINE
  8
0
 62
     0
 10
2.47633
 20
0.432703
 30
0.0
 11
2.28892
 21
0.439593
 31
0.0
  0
LINE
  8
0
 62
     0
 10
2.28892
 20
0.439593
 30
0.0
 11
2.10289
 21
0.461641
 31
0.0
  0
LINE
  8
0
 62
     0
 10
2.10289
 20
0.461641
 30
0.0
 11
1.92098
 21
0.498849
 31
0.0
  0
LINE
  8
0
 62
     0
 10
1.92098
 20
0.498849
 30
0.0
 11
1.74046
 21
0.549836
 31
0.0
  0
LINE
  8
0
 62
     0
 10
1.74046
 20
0.549836
 30
0.0
 11
1.56407
 21
0.614606
 31
0.0
  0
LINE
  8
0
 62
     0
 10
1.56407
 20
0.614606
 30
0.0
 11
1.39595
 21
0.693152
 31
0.0
  0
LINE
  8
0
 62
     0
 10
1.39595
 20
0.693152
 30
0.0
 11
1.23197
 21
0.784105
 31
0.0
  0
LINE
  8
0
 62
     0
 10
1.23197
 20
0.784105
 30
0.0
 11
1.07625
 21
0.888834
 31
0.0
  0
LINE
  8
0
 62
     0
 10
1.07625
 20
0.888834
 30
0.0
 11
0.930176
 21
1.00459
 31
0.0
  0
LINE
  8
0
 62
     0
 10
0.930176
 20
1.00459
 30
0.0
 11
0.792371
 21
1.12999
 31
0.0
  0
LINE
  8
0
 62
     0
 10
0.792371
 20
1.12999
 30
0.0
 11
0.665593
 21
1.2678
 31
0.0
  0
LINE
  8
0
 62
     0
 10
0.665593
 20
1.2678
 30
0.0
 11
0.549836
 21
1.41525
 31
0.0
  0
LINE
  8
0
 62
     0
 10
0.549836
 20
1.41525
 30
0.0
 11
0.445107
 21
1.56959
 31
0.0
  0
LINE
  8
0
 62
     0
 10
0.445107
 20
1.56959
 30
0.0
 11
0.354157
 21
1.73357
 31
0.0
  0
LINE
  8
0
 62
     0
 10
0.354157
 20
1.73357
 30
0.0
 11
0.276986
 21
1.90307
 31
0.0
  0
LINE
  8
0
 62
     0
 10
0.276986
 20
1.90307
 30
0.0
 11
0.21084
 21
2.07808
 31
0.0
  0
LINE
  8
0
 62
     0
 10
0.21084
 20
2.07808
 30
0.0
 11
0.159852
 21
2.2586
 31
0.0
  0
LINE
  8
0
 62
     0
 10
0.159852
 20
2.2586
 30
0.0
 11
0.124024
 21
2.44189
 31
0.0
  0
LINE
  8
0
 62
     0
 10
0.124024
 20
2.44189
 30
0.0
 11
0.101975
 21
2.62654
 31
0.0
  0
LINE
  8
0
 62
     0
 10
0.101975
 20
2.62654
 30
0.0
 11
0.0950846
 21
2.81395
 31
0.0
  0
LINE
  8
0
 62
     0
 10
0.0950846
 20
2.81395
 30
0.0
 11
0.0950846
 21
107.59
 31
0.0
  0
LINE
  8
0
 62
     0
 10
0.0950846
 20
107.59
 30
0.0
 11
0.101975
 21
107.778
 31
0.0
  0
LINE
  8
0
 62
     0
 10
0.101975
 20
107.778
 30
0.0
 11
0.124024
 21
107.964
 31
0.0
  0
LINE
  8
0
 62
     0
 10
0.124024
 20
107.964
 30
0.0
 11
0.159852
 21
108.146
 31
0.0
  0
LINE
  8
0
 62
     0
 10
0.159852
 20
108.146
 30
0.0
 11
0.21084
 21
108.326
 31
0.0
  0
LINE
  8
0
 62
     0
 10
0.21084
 20
108.326
 30
0.0
 11
0.276986
 21
108.502
 31
0.0
  0
LINE
  8
0
 62
     0
 10
0.276986
 20
108.502
 30
0.0
 11
0.354157
 21
108.671
 31
0.0
  0
LINE
  8
0
 62
     0
 10
0.354157
 20
108.671
 30
0.0
 11
0.445107
 21
108.835
 31
0.0
  0
LINE
  8
0
 62
     0
 10
0.445107
 20
108.835
 30
0.0
 11
0.549836
 21
108.99
 31
0.0
  0
LINE
  8
0
 62
     0
 10
0.549836
 20
108.99
 30
0.0
 11
0.665593
 21
109.136
 31
0.0
  0
LINE
  8
0
 62
     0
 10
0.665593
 20
109.136
 30
0.0
 11
0.792371
 21
109.274
 31
0.0
  0
LINE
  8
0
 62
     0
 10
0.792371
 20
109.274
 30
0.0
 11
0.930176
 21
109.401
 31
0.0
  0
LINE
  8
0
 62
     0
 10
0.930176
 20
109.401
 30
0.0
 11
1.07625
 21
109.517
 31
0.0
  0
LINE
  8
0
 62
     0
 10
1.07625
 20
109.517
 30
0.0
 11
1.23197
 21
109.621
 31
0.0
  0
LINE
  8
0
 62
     0
 10
1.23197
 20
109.621
 30
0.0
 11
1.39595
 21
109.712
 31
0.0
  0
LINE
  8
0
 62
     0
 10
1.39595
 20
109.712
 30
0.0
 11
1.56407
 21
109.79
 31
0.0
  0
LINE
  8
0
 62
     0
 10
1.56407
 20
109.79
 30
0.0
 11
1.74046
 21
109.856
 31
0.0
  0
LINE
  8
0
 62
     0
 10
1.74046
 20
109.856
 30
0.0
 11
1.92098
 21
109.907
 31
0.0
  0
LINE
  8
0
 62
     0
 10
1.92098
 20
109.907
 30
0.0
 11
2.10289
 21
109.942
 31
0.0
  0
LINE
  8
0
 62
     0
 10
2.10289
 20
109.942
 30
0.0
 11
2.28892
 21
109.965
 31
0.0
  0
LINE
  8
0
 62
     0
 10
2.28892
 20
109.965
 30
0.0
 11
2.47633
 21
109.971
 31
0.0
  0
LINE
  8
0
 62
     0
 10
2.47633
 20
109.971
 30
0.0
 11
321.564
 21
109.971
 31
0.0
  0
LINE
  8
0
 62
     0
 10
321.24
 20
3.81303
 30
0.0
 11
320.948
 21
3.6642
 31
0.0
  0
LINE
  8
0
 62
     0
 10
320.948
 20
3.6642
 30
0.0
 11
320.715
 21
3.43131
 31
0.0
  0
LINE
  8
0
 62
     0
 10
320.715
 20
3.43131
 30
0.0
 11
320.566
 21
3.13917
 31
0.0
  0
LINE
  8
0
 62
     0
 10
320.566
 20
3.13917
 30
0.0
 11
320.515
 21
2.81395
 31
0.0
  0
LINE
  8
0
 62
     0
 10
320.515
 20
2.81395
 30
0.0
 11
320.566
 21
2.49011
 31
0.0
  0
LINE
  8
0
 62
     0
 10
320.566
 20
2.49011
 30
0.0
 11
320.715
 21
2.19659
 31
0.0
  0
LINE
  8
0
 62
     0
 10
320.715
 20
2.19659
 30
0.0
 11
320.948
 21
1.96508
 31
0.0
  0
LINE
  8
0
 62
     0
 10
320.948
 20
1.96508
 30
0.0
 11
321.24
 21
1.81626
 31
0.0
  0
LINE
  8
0
 62
     0
 10
321.24
 20
1.81626
 30
0.0
 11
321.564
 21
1.76389
 31
0.0
  0
LINE
  8
0
 62
     0
 10
321.564
 20
1.76389
 30
0.0
 11
321.889
 21
1.81626
 31
0.0
  0
LINE
  8
0
 62
     0
 10
321.889
 20
1.81626
 30
0.0
 11
322.181
 21
1.96508
 31
0.0
  0
LINE
  8
0
 62
     0
 10
322.181
 20
1.96508
 30
0.0
 11
322.414
 21
2.19659
 31
0.0
  0
LINE
  8
0
 62
     0
 10
322.414
 20
2.19659
 30
0.0
 11
322.563
 21
2.49011
 31
0.0
  0
LINE
  8
0
 62
     0
 10
322.563
 20
2.49011
 30
0.0
 11
322.614
 21
2.81395
 31
0.0
  0
LINE
  8
0
 62
     0
 10
322.614
 20
2.81395
 30
0.0
 11
322.563
 21
3.13917
 31
0.0
  0
LINE
  8
0
 62
     0
 10
322.563
 20
3.13917
 30
0.0
 11
322.414
 21
3.43131
 31
0.0
  0
LINE
  8
0
 62
     0
 10
322.414
 20
3.43131
 30
0.0
 11
322.181
 21
3.6642
 31
0.0
  0
LINE
  8
0
 62
     0
 10
322.181
 20
3.6642
 30
0.0
 11
321.889
 21
3.81303
 31
0.0
  0
LINE
  8
0
 62
     0
 10
321.889
 20
3.81303
 30
0.0
 11
321.564
 21
3.86401
 31
0.0
  0
LINE
  8
0
 62
     0
 10
321.564
 20
3.86401
 30
0.0
 11
321.24
 21
3.81303
 31
0.0
  0
LINE
  8
0
 62
     0
 10
214.878
 20
3.81303
 30
0.0
 11
214.584
 21
3.6642
 31
0.0
  0
LINE
  8
0
 62
     0
 10
214.584
 20
3.6642
 30
0.0
 11
214.352
 21
3.43131
 31
0.0
  0
LINE
  8
0
 62
     0
 10
214.352
 20
3.43131
 30
0.0
 11
214.203
 21
3.13917
 31
0.0
  0
LINE
  8
0
 62
     0
 10
214.203
 20
3.13917
 30
0.0
 11
214.151
 21
2.81395
 31
0.0
  0
LINE
  8
0
 62
     0
 10
214.151
 20
2.81395
 30
0.0
 11
214.203
 21
2.49011
 31
0.0
  0
LINE
  8
0
 62
     0
 10
214.203
 20
2.49011
 30
0.0
 11
214.352
 21
2.19659
 31
0.0
  0
LINE
  8
0
 62
     0
 10
214.352
 20
2.19659
 30
0.0
 11
214.584
 21
1.96508
 31
0.0
  0
LINE
  8
0
 62
     0
 10
214.584
 20
1.96508
 30
0.0
 11
214.878
 21
1.81626
 31
0.0
  0
LINE
  8
0
 62
     0
 10
214.878
 20
1.81626
 30
0.0
 11
215.202
 21
1.76389
 31
0.0
  0
LINE
  8
0
 62
     0
 10
215.202
 20
1.76389
 30
0.0
 11
215.526
 21
1.81626
 31
0.0
  0
LINE
  8
0
 62
     0
 10
215.526
 20
1.81626
 30
0.0
 11
215.82
 21
1.96508
 31
0.0
  0
LINE
  8
0
 62
     0
 10
215.82
 20
1.96508
 30
0.0
 11
216.052
 21
2.19659
 31
0.0
  0
LINE
  8
0
 62
     0
 10
216.052
 20
2.19659
 30
0.0
 11
216.201
 21
2.49011
 31
0.0
  0
LINE
  8
0
 62
     0
 10
216.201
 20
2.49011
 30
0.0
 11
216.251
 21
2.81395
 31
0.0
  0
LINE
  8
0
 62
     0
 10
216.251
 20
2.81395
 30
0.0
 11
216.201
 21
3.13917
 31
0.0
  0
LINE
  8
0
 62
     0
 10
216.201
 20
3.13917
 30
0.0
 11
216.052
 21
3.43131
 31
0.0
  0
LINE
  8
0
 62
     0
 10
216.052
 20
3.43131
 30
0.0
 11
215.82
 21
3.6642
 31
0.0
  0
LINE
  8
0
 62
     0
 10
215.82
 20
3.6642
 30
0.0
 11
215.526
 21
3.81303
 31
0.0
  0
LINE
  8
0
 62
     0
 10
215.526
 20
3.81303
 30
0.0
 11
215.202
 21
3.86401
 31
0.0
  0
LINE
  8
0
 62
     0
 10
215.202
 20
3.86401
 30
0.0
 11
214.878
 21
3.81303
 31
0.0
  0
LINE
  8
0
 62
     0
 10
108.515
 20
3.81303
 30
0.0
 11
108.222
 21
3.6642
 31
0.0
  0
LINE
  8
0
 62
     0
 10
108.222
 20
3.6642
 30
0.0
 11
107.99
 21
3.43131
 31
0.0
  0
LINE
  8
0
 62
     0
 10
107.99
 20
3.43131
 30
0.0
 11
107.841
 21
3.13917
 31
0.0
  0
LINE
  8
0
 62
     0
 10
107.841
 20
3.13917
 30
0.0
 11
107.79
 21
2.81395
 31
0.0
  0
LINE
  8
0
 62
     0
 10
107.79
 20
2.81395
 30
0.0
 11
107.841
 21
2.49011
 31
0.0
  0
LINE
  8
0
 62
     0
 10
107.841
 20
2.49011
 30
0.0
 11
107.99
 21
2.19659
 31
0.0
  0
LINE
  8
0
 62
     0
 10
107.99
 20
2.19659
 30
0.0
 11
108.222
 21
1.96508
 31
0.0
  0
LINE
  8
0
 62
     0
 10
108.222
 20
1.96508
 30
0.0
 11
108.515
 21
1.81626
 31
0.0
  0
LINE
  8
0
 62
     0
 10
108.515
 20
1.81626
 30
0.0
 11
108.839
 21
1.76389
 31
0.0
  0
LINE
  8
0
 62
     0
 10
108.839
 20
1.76389
 30
0.0
 11
109.164
 21
1.81626
 31
0.0
  0
LINE
  8
0
 62
     0
 10
109.164
 20
1.81626
 30
0.0
 11
109.456
 21
1.96508
 31
0.0
  0
LINE
  8
0
 62
     0
 10
109.456
 20
1.96508
 30
0.0
 11
109.689
 21
2.19659
 31
0.0
  0
LINE
  8
0
 62
     0
 10
109.689
 20
2.19659
 30
0.0
 11
109.838
 21
2.49011
 31
0.0
  0
LINE
  8
0
 62
     0
 10
109.838
 20
2.49011
 30
0.0
 11
109.889
 21
2.81395
 31
0.0
  0
LINE
  8
0
 62
     0
 10
109.889
 20
2.81395
 30
0.0
 11
109.838
 21
3.13917
 31
0.0
  0
LINE
  8
0
 62
     0
 10
109.838
 20
3.13917
 30
0.0
 11
109.689
 21
3.43131
 31
0.0
  0
LINE
  8
0
 62
     0
 10
109.689
 20
3.43131
 30
0.0
 11
109.456
 21
3.6642
 31
0.0
  0
LINE
  8
0
 62
     0
 10
109.456
 20
3.6642
 30
0.0
 11
109.164
 21
3.81303
 31
0.0
  0
LINE
  8
0
 62
     0
 10
109.164
 20
3.81303
 30
0.0
 11
108.839
 21
3.86401
 31
0.0
  0
LINE
  8
0
 62
     0
 10
108.839
 20
3.86401
 30
0.0
 11
108.515
 21
3.81303
 31
0.0
  0
LINE
  8
0
 62
     0
 10
2.15112
 20
3.81303
 30
0.0
 11
1.85897
 21
3.6642
 31
0.0
  0
LINE
  8
0
 62
     0
 10
1.85897
 20
3.6642
 30
0.0
 11
1.62609
 21
3.43131
 31
0.0
  0
LINE
  8
0
 62
     0
 10
1.62609
 20
3.43131
 30
0.0
 11
1.47726
 21
3.13917
 31
0.0
  0
LINE
  8
0
 62
     0
 10
1.47726
 20
3.13917
 30
0.0
 11
1.42627
 21
2.81395
 31
0.0
  0
LINE
  8
0
 62
     0
 10
1.42627
 20
2.81395
 30
0.0
 11
1.47726
 21
2.49011
 31
0.0
  0
LINE
  8
0
 62
     0
 10
1.47726
 20
2.49011
 30
0.0
 11
1.62609
 21
2.19659
 31
0.0
  0
LINE
  8
0
 62
     0
 10
1.62609
 20
2.19659
 30
0.0
 11
1.85897
 21
1.96508
 31
0.0
  0
LINE
  8
0
 62
     0
 10
1.85897
 20
1.96508
 30
0.0
 11
2.15112
 21
1.81626
 31
0.0
  0
LINE
  8
0
 62
     0
 10
2.15112
 20
1.81626
 30
0.0
 11
2.47633
 21
1.76389
 31
0.0
  0
LINE
  8
0
 62
     0
 10
2.47633
 20
1.76389
 30
0.0
 11
2.80017
 21
1.81626
 31
0.0
  0
LINE
  8
0
 62
     0
 10
2.80017
 20
1.81626
 30
0.0
 11
3.0937
 21
1.96508
 31
0.0
  0
LINE
  8
0
 62
     0
 10
3.0937
 20
1.96508
 30
0.0
 11
3.32521
 21
2.19659
 31
0.0
  0
LINE
  8
0
 62
     0
 10
3.32521
 20
2.19659
 30
0.0
 11
3.47404
 21
2.49011
 31
0.0
  0
LINE
  8
0
 62
     0
 10
3.47404
 20
2.49011
 30
0.0
 11
3.5264
 21
2.81395
 31
0.0
  0
LINE
  8
0
 62
     0
 10
3.5264
 20
2.81395
 30
0.0
 11
3.47404
 21
3.13917
 31
0.0
  0
LINE
  8
0
 62
     0
 10
3.47404
 20
3.13917
 30
0.0
 11
3.32521
 21
3.43131
 31
0.0
  0
LINE
  8
0
 62
     0
 10
3.32521
 20
3.43131
 30
0.0
 11
3.0937
 21
3.6642
 31
0.0
  0
LINE
  8
0
 62
     0
 10
3.0937
 20
3.6642
 30
0.0
 11
2.80017
 21
3.81303
 31
0.0
  0
LINE
  8
0
 62
     0
 10
2.80017
 20
3.81303
 30
0.0
 11
2.47633
 21
3.86401
 31
0.0
  0
LINE
  8
0
 62
     0
 10
2.47633
 20
3.86401
 30
0.0
 11
2.15112
 21
3.81303
 31
0.0
  0
LINE
  8
0
 62
     0
 10
259.796
 20
21.7206
 30
0.0
 11
273.795
 21
21.7206
 31
0.0
  0
LINE
  8
0
 62
     0
 10
273.795
 20
21.7206
 30
0.0
 11
273.795
 21
7.72114
 31
0.0
  0
LINE
  8
0
 62
     0
 10
273.795
 20
7.72114
 30
0.0
 11
259.796
 21
7.72114
 31
0.0
  0
LINE
  8
0
 62
     0
 10
259.796
 20
7.72114
 30
0.0
 11
259.796
 21
21.7206
 31
0.0
  0
LINE
  8
0
 62
     0
 10
278.846
 20
21.7206
 30
0.0
 11
292.845
 21
21.7206
 31
0.0
  0
LINE
  8
0
 62
     0
 10
292.845
 20
21.7206
 30
0.0
 11
292.845
 21
7.72114
 31
0.0
  0
LINE
  8
0
 62
     0
 10
292.845
 20
7.72114
 30
0.0
 11
278.846
 21
7.72114
 31
0.0
  0
LINE
  8
0
 62
     0
 10
278.846
 20
7.72114
 30
0.0
 11
278.846
 21
21.7206
 31
0.0
  0
LINE
  8
0
 62
     0
 10
297.896
 20
21.7206
 30
0.0
 11
311.895
 21
21.7206
 31
0.0
  0
LINE
  8
0
 62
     0
 10
311.895
 20
21.7206
 30
0.0
 11
311.895
 21
7.72114
 31
0.0
  0
LINE
  8
0
 62
     0
 10
311.895
 20
7.72114
 30
0.0
 11
297.896
 21
7.72114
 31
0.0
  0
LINE
  8
0
 62
     0
 10
297.896
 20
7.72114
 30
0.0
 11
297.896
 21
21.7206
 31
0.0
  0
LINE
  8
0
 62
     0
 10
9.76341
 20
26.4845
 30
0.0
 11
23.7629
 21
26.4845
 31
0.0
  0
LINE
  8
0
 62
     0
 10
23.7629
 20
26.4845
 30
0.0
 11
23.7629
 21
12.4836
 31
0.0
  0
LINE
  8
0
 62
     0
 10
23.7629
 20
12.4836
 30
0.0
 11
9.76341
 21
12.4836
 31
0.0
  0
LINE
  8
0
 62
     0
 10
9.76341
 20
12.4836
 30
0.0
 11
9.76341
 21
26.4845
 31
0.0
  0
LINE
  8
0
 62
     0
 10
33.5759
 20
26.4845
 30
0.0
 11
47.5767
 21
26.4845
 31
0.0
  0
LINE
  8
0
 62
     0
 10
47.5767
 20
26.4845
 30
0.0
 11
47.5767
 21
12.4836
 31
0.0
  0
LINE
  8
0
 62
     0
 10
47.5767
 20
12.4836
 30
0.0
 11
33.5759
 21
12.4836
 31
0.0
  0
LINE
  8
0
 62
     0
 10
33.5759
 20
12.4836
 30
0.0
 11
33.5759
 21
26.4845
 31
0.0
  0
LINE
  8
0
 62
     0
 10
57.3885
 20
26.4845
 30
0.0
 11
71.3878
 21
26.4845
 31
0.0
  0
LINE
  8
0
 62
     0
 10
71.3878
 20
26.4845
 30
0.0
 11
71.3878
 21
12.4836
 31
0.0
  0
LINE
  8
0
 62
     0
 10
71.3878
 20
12.4836
 30
0.0
 11
57.3885
 21
12.4836
 31
0.0
  0
LINE
  8
0
 62
     0
 10
57.3885
 20
12.4836
 30
0.0
 11
57.3885
 21
26.4845
 31
0.0
  0
LINE
  8
0
 62
     0
 10
84.176
 20
27.4546
 30
0.0
 11
84.176
 21
26.2544
 31
0.0
  0
LINE
  8
0
 62
     0
 10
84.176
 20
26.2544
 30
0.0
 11
82.4523
 21
26.2544
 31
0.0
  0
LINE
  8
0
 62
     0
 10
82.4523
 20
26.2544
 30
0.0
 11
82.4523
 21
19.9843
 31
0.0
  0
LINE
  8
0
 62
     0
 10
82.4523
 20
19.9843
 30
0.0
 11
81.6268
 21
19.9843
 31
0.0
  0
LINE
  8
0
 62
     0
 10
81.6268
 20
19.9843
 30
0.0
 11
81.6268
 21
17.1841
 31
0.0
  0
LINE
  8
0
 62
     0
 10
81.6268
 20
17.1841
 30
0.0
 11
82.4523
 21
17.1841
 31
0.0
  0
LINE
  8
0
 62
     0
 10
82.4523
 20
17.1841
 30
0.0
 11
82.4523
 21
13.954
 31
0.0
  0
LINE
  8
0
 62
     0
 10
82.4523
 20
13.954
 30
0.0
 11
89.2016
 21
13.954
 31
0.0
  0
LINE
  8
0
 62
     0
 10
89.2016
 20
13.954
 30
0.0
 11
89.2016
 21
17.1841
 31
0.0
  0
LINE
  8
0
 62
     0
 10
89.2016
 20
17.1841
 30
0.0
 11
128.826
 21
17.1841
 31
0.0
  0
LINE
  8
0
 62
     0
 10
128.826
 20
17.1841
 30
0.0
 11
128.826
 21
12.4836
 31
0.0
  0
LINE
  8
0
 62
     0
 10
128.826
 20
12.4836
 30
0.0
 11
142.827
 21
12.4836
 31
0.0
  0
LINE
  8
0
 62
     0
 10
142.827
 20
12.4836
 30
0.0
 11
142.827
 21
17.1841
 31
0.0
  0
LINE
  8
0
 62
     0
 10
142.827
 20
17.1841
 30
0.0
 11
182.451
 21
17.1841
 31
0.0
  0
LINE
  8
0
 62
     0
 10
182.451
 20
17.1841
 30
0.0
 11
182.451
 21
13.954
 31
0.0
  0
LINE
  8
0
 62
     0
 10
182.451
 20
13.954
 30
0.0
 11
189.202
 21
13.954
 31
0.0
  0
LINE
  8
0
 62
     0
 10
189.202
 20
13.954
 30
0.0
 11
189.202
 21
17.1841
 31
0.0
  0
LINE
  8
0
 62
     0
 10
189.202
 20
17.1841
 30
0.0
 11
190.026
 21
17.1841
 31
0.0
  0
LINE
  8
0
 62
     0
 10
190.026
 20
17.1841
 30
0.0
 11
190.026
 21
19.9843
 31
0.0
  0
LINE
  8
0
 62
     0
 10
190.026
 20
19.9843
 30
0.0
 11
189.202
 21
19.9843
 31
0.0
  0
LINE
  8
0
 62
     0
 10
189.202
 20
19.9843
 30
0.0
 11
189.202
 21
26.2544
 31
0.0
  0
LINE
  8
0
 62
     0
 10
189.202
 20
26.2544
 30
0.0
 11
187.477
 21
26.2544
 31
0.0
  0
LINE
  8
0
 62
     0
 10
187.477
 20
26.2544
 30
0.0
 11
187.477
 21
27.4546
 31
0.0
  0
LINE
  8
0
 62
     0
 10
187.477
 20
27.4546
 30
0.0
 11
184.176
 21
27.4546
 31
0.0
  0
LINE
  8
0
 62
     0
 10
184.176
 20
27.4546
 30
0.0
 11
184.176
 21
26.2544
 31
0.0
  0
LINE
  8
0
 62
     0
 10
184.176
 20
26.2544
 30
0.0
 11
182.451
 21
26.2544
 31
0.0
  0
LINE
  8
0
 62
     0
 10
182.451
 20
26.2544
 30
0.0
 11
182.451
 21
21.784
 31
0.0
  0
LINE
  8
0
 62
     0
 10
182.451
 20
21.784
 30
0.0
 11
142.827
 21
21.784
 31
0.0
  0
LINE
  8
0
 62
     0
 10
142.827
 20
21.784
 30
0.0
 11
142.827
 21
26.4845
 31
0.0
  0
LINE
  8
0
 62
     0
 10
142.827
 20
26.4845
 30
0.0
 11
128.826
 21
26.4845
 31
0.0
  0
LINE
  8
0
 62
     0
 10
128.826
 20
26.4845
 30
0.0
 11
128.826
 21
21.784
 31
0.0
  0
LINE
  8
0
 62
     0
 10
128.826
 20
21.784
 30
0.0
 11
89.2016
 21
21.784
 31
0.0
  0
LINE
  8
0
 62
     0
 10
89.2016
 20
21.784
 30
0.0
 11
89.2016
 21
26.2544
 31
0.0
  0
LINE
  8
0
 62
     0
 10
89.2016
 20
26.2544
 30
0.0
 11
87.4765
 21
26.2544
 31
0.0
  0
LINE
  8
0
 62
     0
 10
87.4765
 20
26.2544
 30
0.0
 11
87.4765
 21
27.4546
 31
0.0
  0
LINE
  8
0
 62
     0
 10
87.4765
 20
27.4546
 30
0.0
 11
84.176
 21
27.4546
 31
0.0
  0
LINE
  8
0
 62
     0
 10
197.882
 20
26.4845
 30
0.0
 11
211.883
 21
26.4845
 31
0.0
  0
LINE
  8
0
 62
     0
 10
211.883
 20
26.4845
 30
0.0
 11
211.883
 21
12.4836
 31
0.0
  0
LINE
  8
0
 62
     0
 10
211.883
 20
12.4836
 30
0.0
 11
197.882
 21
12.4836
 31
0.0
  0
LINE
  8
0
 62
     0
 10
197.882
 20
12.4836
 30
0.0
 11
197.882
 21
26.4845
 31
0.0
  0
LINE
  8
0
 62
     0
 10
216.932
 20
26.4845
 30
0.0
 11
230.933
 21
26.4845
 31
0.0
  0
LINE
  8
0
 62
     0
 10
230.933
 20
26.4845
 30
0.0
 11
230.933
 21
12.4836
 31
0.0
  0
LINE
  8
0
 62
     0
 10
230.933
 20
12.4836
 30
0.0
 11
216.932
 21
12.4836
 31
0.0
  0
LINE
  8
0
 62
     0
 10
216.932
 20
12.4836
 30
0.0
 11
216.932
 21
26.4845
 31
0.0
  0
LINE
  8
0
 62
     0
 10
235.982
 20
26.4845
 30
0.0
 11
249.983
 21
26.4845
 31
0.0
  0
LINE
  8
0
 62
     0
 10
249.983
 20
26.4845
 30
0.0
 11
249.983
 21
12.4836
 31
0.0
  0
LINE
  8
0
 62
     0
 10
249.983
 20
12.4836
 30
0.0
 11
235.982
 21
12.4836
 31
0.0
  0
LINE
  8
0
 62
     0
 10
235.982
 20
12.4836
 30
0.0
 11
235.982
 21
26.4845
 31
0.0
  0
LINE
  8
0
 62
     0
 10
278.846
 20
40.7705
 30
0.0
 11
292.845
 21
40.7705
 31
0.0
  0
LINE
  8
0
 62
     0
 10
292.845
 20
40.7705
 30
0.0
 11
292.845
 21
26.7711
 31
0.0
  0
LINE
  8
0
 62
     0
 10
292.845
 20
26.7711
 30
0.0
 11
278.846
 21
26.7711
 31
0.0
  0
LINE
  8
0
 62
     0
 10
278.846
 20
26.7711
 30
0.0
 11
278.846
 21
40.7705
 31
0.0
  0
LINE
  8
0
 62
     0
 10
19.2884
 20
45.5344
 30
0.0
 11
19.2884
 21
40.834
 31
0.0
  0
LINE
  8
0
 62
     0
 10
19.2884
 20
40.834
 30
0.0
 11
17.7629
 21
40.834
 31
0.0
  0
LINE
  8
0
 62
     0
 10
17.7629
 20
40.834
 30
0.0
 11
17.7629
 21
44.0641
 31
0.0
  0
LINE
  8
0
 62
     0
 10
17.7629
 20
44.0641
 30
0.0
 11
11.0133
 21
44.0641
 31
0.0
  0
LINE
  8
0
 62
     0
 10
11.0133
 20
44.0641
 30
0.0
 11
11.0133
 21
40.834
 31
0.0
  0
LINE
  8
0
 62
     0
 10
11.0133
 20
40.834
 30
0.0
 11
10.1878
 21
40.834
 31
0.0
  0
LINE
  8
0
 62
     0
 10
10.1878
 20
40.834
 30
0.0
 11
10.1878
 21
38.034
 31
0.0
  0
LINE
  8
0
 62
     0
 10
10.1878
 20
38.034
 30
0.0
 11
11.0133
 21
38.034
 31
0.0
  0
LINE
  8
0
 62
     0
 10
11.0133
 20
38.034
 30
0.0
 11
11.0133
 21
31.7638
 31
0.0
  0
LINE
  8
0
 62
     0
 10
11.0133
 20
31.7638
 30
0.0
 11
12.7386
 21
31.7638
 31
0.0
  0
LINE
  8
0
 62
     0
 10
12.7386
 20
31.7638
 30
0.0
 11
12.7386
 21
30.5635
 31
0.0
  0
LINE
  8
0
 62
     0
 10
12.7386
 20
30.5635
 30
0.0
 11
16.039
 21
30.5635
 31
0.0
  0
LINE
  8
0
 62
     0
 10
16.039
 20
30.5635
 30
0.0
 11
16.039
 21
31.7638
 31
0.0
  0
LINE
  8
0
 62
     0
 10
16.039
 20
31.7638
 30
0.0
 11
17.7629
 21
31.7638
 31
0.0
  0
LINE
  8
0
 62
     0
 10
17.7629
 20
31.7638
 30
0.0
 11
17.7629
 21
36.2342
 31
0.0
  0
LINE
  8
0
 62
     0
 10
17.7629
 20
36.2342
 30
0.0
 11
19.2884
 21
36.2342
 31
0.0
  0
LINE
  8
0
 62
     0
 10
19.2884
 20
36.2342
 30
0.0
 11
19.2884
 21
31.5336
 31
0.0
  0
LINE
  8
0
 62
     0
 10
19.2884
 20
31.5336
 30
0.0
 11
33.2879
 21
31.5336
 31
0.0
  0
LINE
  8
0
 62
     0
 10
33.2879
 20
31.5336
 30
0.0
 11
33.2879
 21
36.2342
 31
0.0
  0
LINE
  8
0
 62
     0
 10
33.2879
 20
36.2342
 30
0.0
 11
34.8134
 21
36.2342
 31
0.0
  0
LINE
  8
0
 62
     0
 10
34.8134
 20
36.2342
 30
0.0
 11
34.8134
 21
31.7638
 31
0.0
  0
LINE
  8
0
 62
     0
 10
34.8134
 20
31.7638
 30
0.0
 11
36.5386
 21
31.7638
 31
0.0
  0
LINE
  8
0
 62
     0
 10
36.5386
 20
31.7638
 30
0.0
 11
36.5386
 21
30.5635
 31
0.0
  0
LINE
  8
0
 62
     0
 10
36.5386
 20
30.5635
 30
0.0
 11
39.8392
 21
30.5635
 31
0.0
  0
LINE
  8
0
 62
     0
 10
39.8392
 20
30.5635
 30
0.0
 11
39.8392
 21
31.7638
 31
0.0
  0
LINE
  8
0
 62
     0
 10
39.8392
 20
31.7638
 30
0.0
 11
41.5629
 21
31.7638
 31
0.0
  0
LINE
  8
0
 62
     0
 10
41.5629
 20
31.7638
 30
0.0
 11
41.5629
 21
38.034
 31
0.0
  0
LINE
  8
0
 62
     0
 10
41.5629
 20
38.034
 30
0.0
 11
42.3884
 21
38.034
 31
0.0
  0
LINE
  8
0
 62
     0
 10
42.3884
 20
38.034
 30
0.0
 11
42.3884
 21
40.834
 31
0.0
  0
LINE
  8
0
 62
     0
 10
42.3884
 20
40.834
 30
0.0
 11
41.5629
 21
40.834
 31
0.0
  0
LINE
  8
0
 62
     0
 10
41.5629
 20
40.834
 30
0.0
 11
41.5629
 21
44.0641
 31
0.0
  0
LINE
  8
0
 62
     0
 10
41.5629
 20
44.0641
 30
0.0
 11
34.8134
 21
44.0641
 31
0.0
  0
LINE
  8
0
 62
     0
 10
34.8134
 20
44.0641
 30
0.0
 11
34.8134
 21
40.834
 31
0.0
  0
LINE
  8
0
 62
     0
 10
34.8134
 20
40.834
 30
0.0
 11
33.2879
 21
40.834
 31
0.0
  0
LINE
  8
0
 62
     0
 10
33.2879
 20
40.834
 30
0.0
 11
33.2879
 21
45.5344
 31
0.0
  0
LINE
  8
0
 62
     0
 10
33.2879
 20
45.5344
 30
0.0
 11
19.2884
 21
45.5344
 31
0.0
  0
LINE
  8
0
 62
     0
 10
50.2461
 20
45.5344
 30
0.0
 11
64.2454
 21
45.5344
 31
0.0
  0
LINE
  8
0
 62
     0
 10
64.2454
 20
45.5344
 30
0.0
 11
64.2454
 21
31.5336
 31
0.0
  0
LINE
  8
0
 62
     0
 10
64.2454
 20
31.5336
 30
0.0
 11
50.2461
 21
31.5336
 31
0.0
  0
LINE
  8
0
 62
     0
 10
50.2461
 20
31.5336
 30
0.0
 11
50.2461
 21
45.5344
 31
0.0
  0
LINE
  8
0
 62
     0
 10
69.2961
 20
45.5344
 30
0.0
 11
83.2954
 21
45.5344
 31
0.0
  0
LINE
  8
0
 62
     0
 10
83.2954
 20
45.5344
 30
0.0
 11
83.2954
 21
31.5336
 31
0.0
  0
LINE
  8
0
 62
     0
 10
83.2954
 20
31.5336
 30
0.0
 11
69.2961
 21
31.5336
 31
0.0
  0
LINE
  8
0
 62
     0
 10
69.2961
 20
31.5336
 30
0.0
 11
69.2961
 21
45.5344
 31
0.0
  0
LINE
  8
0
 62
     0
 10
88.3461
 20
45.5344
 30
0.0
 11
102.345
 21
45.5344
 31
0.0
  0
LINE
  8
0
 62
     0
 10
102.345
 20
45.5344
 30
0.0
 11
102.345
 21
31.5336
 31
0.0
  0
LINE
  8
0
 62
     0
 10
102.345
 20
31.5336
 30
0.0
 11
88.3461
 21
31.5336
 31
0.0
  0
LINE
  8
0
 62
     0
 10
88.3461
 20
31.5336
 30
0.0
 11
88.3461
 21
45.5344
 31
0.0
  0
LINE
  8
0
 62
     0
 10
107.396
 20
45.5344
 30
0.0
 11
121.395
 21
45.5344
 31
0.0
  0
LINE
  8
0
 62
     0
 10
121.395
 20
45.5344
 30
0.0
 11
121.395
 21
31.5336
 31
0.0
  0
LINE
  8
0
 62
     0
 10
121.395
 20
31.5336
 30
0.0
 11
107.396
 21
31.5336
 31
0.0
  0
LINE
  8
0
 62
     0
 10
107.396
 20
31.5336
 30
0.0
 11
107.396
 21
45.5344
 31
0.0
  0
LINE
  8
0
 62
     0
 10
126.446
 20
45.5344
 30
0.0
 11
140.445
 21
45.5344
 31
0.0
  0
LINE
  8
0
 62
     0
 10
140.445
 20
45.5344
 30
0.0
 11
140.445
 21
31.5336
 31
0.0
  0
LINE
  8
0
 62
     0
 10
140.445
 20
31.5336
 30
0.0
 11
126.446
 21
31.5336
 31
0.0
  0
LINE
  8
0
 62
     0
 10
126.446
 20
31.5336
 30
0.0
 11
126.446
 21
45.5344
 31
0.0
  0
LINE
  8
0
 62
     0
 10
145.496
 20
45.5344
 30
0.0
 11
159.495
 21
45.5344
 31
0.0
  0
LINE
  8
0
 62
     0
 10
159.495
 20
45.5344
 30
0.0
 11
159.495
 21
31.5336
 31
0.0
  0
LINE
  8
0
 62
     0
 10
159.495
 20
31.5336
 30
0.0
 11
145.496
 21
31.5336
 31
0.0
  0
LINE
  8
0
 62
     0
 10
145.496
 20
31.5336
 30
0.0
 11
145.496
 21
45.5344
 31
0.0
  0
LINE
  8
0
 62
     0
 10
164.546
 20
45.5344
 30
0.0
 11
178.545
 21
45.5344
 31
0.0
  0
LINE
  8
0
 62
     0
 10
178.545
 20
45.5344
 30
0.0
 11
178.545
 21
31.5336
 31
0.0
  0
LINE
  8
0
 62
     0
 10
178.545
 20
31.5336
 30
0.0
 11
164.546
 21
31.5336
 31
0.0
  0
LINE
  8
0
 62
     0
 10
164.546
 20
31.5336
 30
0.0
 11
164.546
 21
45.5344
 31
0.0
  0
LINE
  8
0
 62
     0
 10
183.596
 20
45.5344
 30
0.0
 11
197.595
 21
45.5344
 31
0.0
  0
LINE
  8
0
 62
     0
 10
197.595
 20
45.5344
 30
0.0
 11
197.595
 21
31.5336
 31
0.0
  0
LINE
  8
0
 62
     0
 10
197.595
 20
31.5336
 30
0.0
 11
183.596
 21
31.5336
 31
0.0
  0
LINE
  8
0
 62
     0
 10
183.596
 20
31.5336
 30
0.0
 11
183.596
 21
45.5344
 31
0.0
  0
LINE
  8
0
 62
     0
 10
202.646
 20
45.5344
 30
0.0
 11
216.645
 21
45.5344
 31
0.0
  0
LINE
  8
0
 62
     0
 10
216.645
 20
45.5344
 30
0.0
 11
216.645
 21
31.5336
 31
0.0
  0
LINE
  8
0
 62
     0
 10
216.645
 20
31.5336
 30
0.0
 11
202.646
 21
31.5336
 31
0.0
  0
LINE
  8
0
 62
     0
 10
202.646
 20
31.5336
 30
0.0
 11
202.646
 21
45.5344
 31
0.0
  0
LINE
  8
0
 62
     0
 10
221.696
 20
45.5344
 30
0.0
 11
235.695
 21
45.5344
 31
0.0
  0
LINE
  8
0
 62
     0
 10
235.695
 20
45.5344
 30
0.0
 11
235.695
 21
31.5336
 31
0.0
  0
LINE
  8
0
 62
     0
 10
235.695
 20
31.5336
 30
0.0
 11
221.696
 21
31.5336
 31
0.0
  0
LINE
  8
0
 62
     0
 10
221.696
 20
31.5336
 30
0.0
 11
221.696
 21
45.5344
 31
0.0
  0
LINE
  8
0
 62
     0
 10
247.888
 20
45.5344
 30
0.0
 11
261.888
 21
45.5344
 31
0.0
  0
LINE
  8
0
 62
     0
 10
261.888
 20
45.5344
 30
0.0
 11
261.888
 21
31.5336
 31
0.0
  0
LINE
  8
0
 62
     0
 10
261.888
 20
31.5336
 30
0.0
 11
247.888
 21
31.5336
 31
0.0
  0
LINE
  8
0
 62
     0
 10
247.888
 20
31.5336
 30
0.0
 11
247.888
 21
45.5344
 31
0.0
  0
LINE
  8
0
 62
     0
 10
302.657
 20
45.5344
 30
0.0
 11
316.658
 21
45.5344
 31
0.0
  0
LINE
  8
0
 62
     0
 10
316.658
 20
45.5344
 30
0.0
 11
316.658
 21
31.5336
 31
0.0
  0
LINE
  8
0
 62
     0
 10
316.658
 20
31.5336
 30
0.0
 11
302.657
 21
31.5336
 31
0.0
  0
LINE
  8
0
 62
     0
 10
302.657
 20
31.5336
 30
0.0
 11
302.657
 21
45.5344
 31
0.0
  0
LINE
  8
0
 62
     0
 10
262.176
 20
64.5844
 30
0.0
 11
262.176
 21
59.884
 31
0.0
  0
LINE
  8
0
 62
     0
 10
262.176
 20
59.884
 30
0.0
 11
260.652
 21
59.884
 31
0.0
  0
LINE
  8
0
 62
     0
 10
260.652
 20
59.884
 30
0.0
 11
260.652
 21
63.1141
 31
0.0
  0
LINE
  8
0
 62
     0
 10
260.652
 20
63.1141
 30
0.0
 11
253.901
 21
63.1141
 31
0.0
  0
LINE
  8
0
 62
     0
 10
253.901
 20
63.1141
 30
0.0
 11
253.901
 21
59.884
 31
0.0
  0
LINE
  8
0
 62
     0
 10
253.901
 20
59.884
 30
0.0
 11
253.077
 21
59.884
 31
0.0
  0
LINE
  8
0
 62
     0
 10
253.077
 20
59.884
 30
0.0
 11
253.077
 21
57.084
 31
0.0
  0
LINE
  8
0
 62
     0
 10
253.077
 20
57.084
 30
0.0
 11
253.901
 21
57.084
 31
0.0
  0
LINE
  8
0
 62
     0
 10
253.901
 20
57.084
 30
0.0
 11
253.901
 21
50.8138
 31
0.0
  0
LINE
  8
0
 62
     0
 10
253.901
 20
50.8138
 30
0.0
 11
255.626
 21
50.8138
 31
0.0
  0
LINE
  8
0
 62
     0
 10
255.626
 20
50.8138
 30
0.0
 11
255.626
 21
49.6136
 31
0.0
  0
LINE
  8
0
 62
     0
 10
255.626
 20
49.6136
 30
0.0
 11
258.927
 21
49.6136
 31
0.0
  0
LINE
  8
0
 62
     0
 10
258.927
 20
49.6136
 30
0.0
 11
258.927
 21
50.8138
 31
0.0
  0
LINE
  8
0
 62
     0
 10
258.927
 20
50.8138
 30
0.0
 11
260.652
 21
50.8138
 31
0.0
  0
LINE
  8
0
 62
     0
 10
260.652
 20
50.8138
 30
0.0
 11
260.652
 21
55.2842
 31
0.0
  0
LINE
  8
0
 62
     0
 10
260.652
 20
55.2842
 30
0.0
 11
262.176
 21
55.2842
 31
0.0
  0
LINE
  8
0
 62
     0
 10
262.176
 20
55.2842
 30
0.0
 11
262.176
 21
50.5837
 31
0.0
  0
LINE
  8
0
 62
     0
 10
262.176
 20
50.5837
 30
0.0
 11
276.177
 21
50.5837
 31
0.0
  0
LINE
  8
0
 62
     0
 10
276.177
 20
50.5837
 30
0.0
 11
276.177
 21
55.2842
 31
0.0
  0
LINE
  8
0
 62
     0
 10
276.177
 20
55.2842
 30
0.0
 11
277.701
 21
55.2842
 31
0.0
  0
LINE
  8
0
 62
     0
 10
277.701
 20
55.2842
 30
0.0
 11
277.701
 21
50.8138
 31
0.0
  0
LINE
  8
0
 62
     0
 10
277.701
 20
50.8138
 30
0.0
 11
279.426
 21
50.8138
 31
0.0
  0
LINE
  8
0
 62
     0
 10
279.426
 20
50.8138
 30
0.0
 11
279.426
 21
49.6136
 31
0.0
  0
LINE
  8
0
 62
     0
 10
279.426
 20
49.6136
 30
0.0
 11
282.727
 21
49.6136
 31
0.0
  0
LINE
  8
0
 62
     0
 10
282.727
 20
49.6136
 30
0.0
 11
282.727
 21
50.8138
 31
0.0
  0
LINE
  8
0
 62
     0
 10
282.727
 20
50.8138
 30
0.0
 11
284.452
 21
50.8138
 31
0.0
  0
LINE
  8
0
 62
     0
 10
284.452
 20
50.8138
 30
0.0
 11
284.452
 21
57.084
 31
0.0
  0
LINE
  8
0
 62
     0
 10
284.452
 20
57.084
 30
0.0
 11
285.276
 21
57.084
 31
0.0
  0
LINE
  8
0
 62
     0
 10
285.276
 20
57.084
 30
0.0
 11
285.276
 21
59.884
 31
0.0
  0
LINE
  8
0
 62
     0
 10
285.276
 20
59.884
 30
0.0
 11
284.452
 21
59.884
 31
0.0
  0
LINE
  8
0
 62
     0
 10
284.452
 20
59.884
 30
0.0
 11
284.452
 21
63.1141
 31
0.0
  0
LINE
  8
0
 62
     0
 10
284.452
 20
63.1141
 30
0.0
 11
277.701
 21
63.1141
 31
0.0
  0
LINE
  8
0
 62
     0
 10
277.701
 20
63.1141
 30
0.0
 11
277.701
 21
59.884
 31
0.0
  0
LINE
  8
0
 62
     0
 10
277.701
 20
59.884
 30
0.0
 11
276.177
 21
59.884
 31
0.0
  0
LINE
  8
0
 62
     0
 10
276.177
 20
59.884
 30
0.0
 11
276.177
 21
64.5844
 31
0.0
  0
LINE
  8
0
 62
     0
 10
276.177
 20
64.5844
 30
0.0
 11
262.176
 21
64.5844
 31
0.0
  0
LINE
  8
0
 62
     0
 10
14.5259
 20
64.5844
 30
0.0
 11
28.5268
 21
64.5844
 31
0.0
  0
LINE
  8
0
 62
     0
 10
28.5268
 20
64.5844
 30
0.0
 11
28.5268
 21
50.5837
 31
0.0
  0
LINE
  8
0
 62
     0
 10
28.5268
 20
50.5837
 30
0.0
 11
14.5259
 21
50.5837
 31
0.0
  0
LINE
  8
0
 62
     0
 10
14.5259
 20
50.5837
 30
0.0
 11
14.5259
 21
64.5844
 31
0.0
  0
LINE
  8
0
 62
     0
 10
40.7211
 20
64.5844
 30
0.0
 11
54.7204
 21
64.5844
 31
0.0
  0
LINE
  8
0
 62
     0
 10
54.7204
 20
64.5844
 30
0.0
 11
54.7204
 21
50.5837
 31
0.0
  0
LINE
  8
0
 62
     0
 10
54.7204
 20
50.5837
 30
0.0
 11
40.7211
 21
50.5837
 31
0.0
  0
LINE
  8
0
 62
     0
 10
40.7211
 20
50.5837
 30
0.0
 11
40.7211
 21
64.5844
 31
0.0
  0
LINE
  8
0
 62
     0
 10
59.7711
 20
64.5844
 30
0.0
 11
73.7704
 21
64.5844
 31
0.0
  0
LINE
  8
0
 62
     0
 10
73.7704
 20
64.5844
 30
0.0
 11
73.7704
 21
50.5837
 31
0.0
  0
LINE
  8
0
 62
     0
 10
73.7704
 20
50.5837
 30
0.0
 11
59.7711
 21
50.5837
 31
0.0
  0
LINE
  8
0
 62
     0
 10
59.7711
 20
50.5837
 30
0.0
 11
59.7711
 21
64.5844
 31
0.0
  0
LINE
  8
0
 62
     0
 10
78.8211
 20
64.5844
 30
0.0
 11
92.8204
 21
64.5844
 31
0.0
  0
LINE
  8
0
 62
     0
 10
92.8204
 20
64.5844
 30
0.0
 11
92.8204
 21
50.5837
 31
0.0
  0
LINE
  8
0
 62
     0
 10
92.8204
 20
50.5837
 30
0.0
 11
78.8211
 21
50.5837
 31
0.0
  0
LINE
  8
0
 62
     0
 10
78.8211
 20
50.5837
 30
0.0
 11
78.8211
 21
64.5844
 31
0.0
  0
LINE
  8
0
 62
     0
 10
97.8697
 20
64.5844
 30
0.0
 11
111.869
 21
64.5844
 31
0.0
  0
LINE
  8
0
 62
     0
 10
111.869
 20
64.5844
 30
0.0
 11
111.869
 21
50.5837
 31
0.0
  0
LINE
  8
0
 62
     0
 10
111.869
 20
50.5837
 30
0.0
 11
97.8697
 21
50.5837
 31
0.0
  0
LINE
  8
0
 62
     0
 10
97.8697
 20
50.5837
 30
0.0
 11
97.8697
 21
64.5844
 31
0.0
  0
LINE
  8
0
 62
     0
 10
116.92
 20
64.5844
 30
0.0
 11
130.92
 21
64.5844
 31
0.0
  0
LINE
  8
0
 62
     0
 10
130.92
 20
64.5844
 30
0.0
 11
130.92
 21
50.5837
 31
0.0
  0
LINE
  8
0
 62
     0
 10
130.92
 20
50.5837
 30
0.0
 11
116.92
 21
50.5837
 31
0.0
  0
LINE
  8
0
 62
     0
 10
116.92
 20
50.5837
 30
0.0
 11
116.92
 21
64.5844
 31
0.0
  0
LINE
  8
0
 62
     0
 10
135.971
 20
64.5844
 30
0.0
 11
149.97
 21
64.5844
 31
0.0
  0
LINE
  8
0
 62
     0
 10
149.97
 20
64.5844
 30
0.0
 11
149.97
 21
50.5837
 31
0.0
  0
LINE
  8
0
 62
     0
 10
149.97
 20
50.5837
 30
0.0
 11
135.971
 21
50.5837
 31
0.0
  0
LINE
  8
0
 62
     0
 10
135.971
 20
50.5837
 30
0.0
 11
135.971
 21
64.5844
 31
0.0
  0
LINE
  8
0
 62
     0
 10
155.021
 20
64.5844
 30
0.0
 11
169.02
 21
64.5844
 31
0.0
  0
LINE
  8
0
 62
     0
 10
169.02
 20
64.5844
 30
0.0
 11
169.02
 21
50.5837
 31
0.0
  0
LINE
  8
0
 62
     0
 10
169.02
 20
50.5837
 30
0.0
 11
155.021
 21
50.5837
 31
0.0
  0
LINE
  8
0
 62
     0
 10
155.021
 20
50.5837
 30
0.0
 11
155.021
 21
64.5844
 31
0.0
  0
LINE
  8
0
 62
     0
 10
174.071
 20
64.5844
 30
0.0
 11
188.07
 21
64.5844
 31
0.0
  0
LINE
  8
0
 62
     0
 10
188.07
 20
64.5844
 30
0.0
 11
188.07
 21
50.5837
 31
0.0
  0
LINE
  8
0
 62
     0
 10
188.07
 20
50.5837
 30
0.0
 11
174.071
 21
50.5837
 31
0.0
  0
LINE
  8
0
 62
     0
 10
174.071
 20
50.5837
 30
0.0
 11
174.071
 21
64.5844
 31
0.0
  0
LINE
  8
0
 62
     0
 10
193.121
 20
64.5844
 30
0.0
 11
207.12
 21
64.5844
 31
0.0
  0
LINE
  8
0
 62
     0
 10
207.12
 20
64.5844
 30
0.0
 11
207.12
 21
50.5837
 31
0.0
  0
LINE
  8
0
 62
     0
 10
207.12
 20
50.5837
 30
0.0
 11
193.121
 21
50.5837
 31
0.0
  0
LINE
  8
0
 62
     0
 10
193.121
 20
50.5837
 30
0.0
 11
193.121
 21
64.5844
 31
0.0
  0
LINE
  8
0
 62
     0
 10
212.171
 20
64.5844
 30
0.0
 11
226.17
 21
64.5844
 31
0.0
  0
LINE
  8
0
 62
     0
 10
226.17
 20
64.5844
 30
0.0
 11
226.17
 21
50.5837
 31
0.0
  0
LINE
  8
0
 62
     0
 10
226.17
 20
50.5837
 30
0.0
 11
212.171
 21
50.5837
 31
0.0
  0
LINE
  8
0
 62
     0
 10
212.171
 20
50.5837
 30
0.0
 11
212.171
 21
64.5844
 31
0.0
  0
LINE
  8
0
 62
     0
 10
231.221
 20
64.5844
 30
0.0
 11
245.22
 21
64.5844
 31
0.0
  0
LINE
  8
0
 62
     0
 10
245.22
 20
64.5844
 30
0.0
 11
245.22
 21
50.5837
 31
0.0
  0
LINE
  8
0
 62
     0
 10
245.22
 20
50.5837
 30
0.0
 11
231.221
 21
50.5837
 31
0.0
  0
LINE
  8
0
 62
     0
 10
231.221
 20
50.5837
 30
0.0
 11
231.221
 21
64.5844
 31
0.0
  0
LINE
  8
0
 62
     0
 10
296.922
 20
104.913
 30
0.0
 11
299.861
 21
104.913
 31
0.0
  0
LINE
  8
0
 62
     0
 10
299.861
 20
104.913
 30
0.0
 11
299.861
 21
53.1139
 31
0.0
  0
LINE
  8
0
 62
     0
 10
299.861
 20
53.1139
 30
0.0
 11
296.922
 21
53.1139
 31
0.0
  0
LINE
  8
0
 62
     0
 10
296.922
 20
53.1139
 30
0.0
 11
296.922
 21
104.913
 31
0.0
  0
LINE
  8
0
 62
     0
 10
314.701
 20
104.913
 30
0.0
 11
317.642
 21
104.913
 31
0.0
  0
LINE
  8
0
 62
     0
 10
317.642
 20
104.913
 30
0.0
 11
317.642
 21
53.1139
 31
0.0
  0
LINE
  8
0
 62
     0
 10
317.642
 20
53.1139
 30
0.0
 11
314.701
 21
53.1139
 31
0.0
  0
LINE
  8
0
 62
     0
 10
314.701
 20
53.1139
 30
0.0
 11
314.701
 21
104.913
 31
0.0
  0
LINE
  8
0
 62
     0
 10
12.146
 20
83.6344
 30
0.0
 11
26.1455
 21
83.6344
 31
0.0
  0
LINE
  8
0
 62
     0
 10
26.1455
 20
83.6344
 30
0.0
 11
26.1455
 21
69.6337
 31
0.0
  0
LINE
  8
0
 62
     0
 10
26.1455
 20
69.6337
 30
0.0
 11
12.146
 21
69.6337
 31
0.0
  0
LINE
  8
0
 62
     0
 10
12.146
 20
69.6337
 30
0.0
 11
12.146
 21
83.6344
 31
0.0
  0
LINE
  8
0
 62
     0
 10
35.9572
 20
83.6344
 30
0.0
 11
49.9579
 21
83.6344
 31
0.0
  0
LINE
  8
0
 62
     0
 10
49.9579
 20
83.6344
 30
0.0
 11
49.9579
 21
69.6337
 31
0.0
  0
LINE
  8
0
 62
     0
 10
49.9579
 20
69.6337
 30
0.0
 11
35.9572
 21
69.6337
 31
0.0
  0
LINE
  8
0
 62
     0
 10
35.9572
 20
69.6337
 30
0.0
 11
35.9572
 21
83.6344
 31
0.0
  0
LINE
  8
0
 62
     0
 10
55.0072
 20
83.6344
 30
0.0
 11
69.0079
 21
83.6344
 31
0.0
  0
LINE
  8
0
 62
     0
 10
69.0079
 20
83.6344
 30
0.0
 11
69.0079
 21
69.6337
 31
0.0
  0
LINE
  8
0
 62
     0
 10
69.0079
 20
69.6337
 30
0.0
 11
55.0072
 21
69.6337
 31
0.0
  0
LINE
  8
0
 62
     0
 10
55.0072
 20
69.6337
 30
0.0
 11
55.0072
 21
83.6344
 31
0.0
  0
LINE
  8
0
 62
     0
 10
74.0572
 20
83.6344
 30
0.0
 11
88.0579
 21
83.6344
 31
0.0
  0
LINE
  8
0
 62
     0
 10
88.0579
 20
83.6344
 30
0.0
 11
88.0579
 21
69.6337
 31
0.0
  0
LINE
  8
0
 62
     0
 10
88.0579
 20
69.6337
 30
0.0
 11
74.0572
 21
69.6337
 31
0.0
  0
LINE
  8
0
 62
     0
 10
74.0572
 20
69.6337
 30
0.0
 11
74.0572
 21
83.6344
 31
0.0
  0
LINE
  8
0
 62
     0
 10
93.1072
 20
83.6344
 30
0.0
 11
107.108
 21
83.6344
 31
0.0
  0
LINE
  8
0
 62
     0
 10
107.108
 20
83.6344
 30
0.0
 11
107.108
 21
69.6337
 31
0.0
  0
LINE
  8
0
 62
     0
 10
107.108
 20
69.6337
 30
0.0
 11
93.1072
 21
69.6337
 31
0.0
  0
LINE
  8
0
 62
     0
 10
93.1072
 20
69.6337
 30
0.0
 11
93.1072
 21
83.6344
 31
0.0
  0
LINE
  8
0
 62
     0
 10
112.157
 20
83.6344
 30
0.0
 11
126.158
 21
83.6344
 31
0.0
  0
LINE
  8
0
 62
     0
 10
126.158
 20
83.6344
 30
0.0
 11
126.158
 21
69.6337
 31
0.0
  0
LINE
  8
0
 62
     0
 10
126.158
 20
69.6337
 30
0.0
 11
112.157
 21
69.6337
 31
0.0
  0
LINE
  8
0
 62
     0
 10
112.157
 20
69.6337
 30
0.0
 11
112.157
 21
83.6344
 31
0.0
  0
LINE
  8
0
 62
     0
 10
131.207
 20
83.6344
 30
0.0
 11
145.208
 21
83.6344
 31
0.0
  0
LINE
  8
0
 62
     0
 10
145.208
 20
83.6344
 30
0.0
 11
145.208
 21
69.6337
 31
0.0
  0
LINE
  8
0
 62
     0
 10
145.208
 20
69.6337
 30
0.0
 11
131.207
 21
69.6337
 31
0.0
  0
LINE
  8
0
 62
     0
 10
131.207
 20
69.6337
 30
0.0
 11
131.207
 21
83.6344
 31
0.0
  0
LINE
  8
0
 62
     0
 10
150.257
 20
83.6344
 30
0.0
 11
164.258
 21
83.6344
 31
0.0
  0
LINE
  8
0
 62
     0
 10
164.258
 20
83.6344
 30
0.0
 11
164.258
 21
69.6337
 31
0.0
  0
LINE
  8
0
 62
     0
 10
164.258
 20
69.6337
 30
0.0
 11
150.257
 21
69.6337
 31
0.0
  0
LINE
  8
0
 62
     0
 10
150.257
 20
69.6337
 30
0.0
 11
150.257
 21
83.6344
 31
0.0
  0
LINE
  8
0
 62
     0
 10
169.307
 20
83.6344
 30
0.0
 11
183.308
 21
83.6344
 31
0.0
  0
LINE
  8
0
 62
     0
 10
183.308
 20
83.6344
 30
0.0
 11
183.308
 21
69.6337
 31
0.0
  0
LINE
  8
0
 62
     0
 10
183.308
 20
69.6337
 30
0.0
 11
169.307
 21
69.6337
 31
0.0
  0
LINE
  8
0
 62
     0
 10
169.307
 20
69.6337
 30
0.0
 11
169.307
 21
83.6344
 31
0.0
  0
LINE
  8
0
 62
     0
 10
188.357
 20
83.6344
 30
0.0
 11
202.358
 21
83.6344
 31
0.0
  0
LINE
  8
0
 62
     0
 10
202.358
 20
83.6344
 30
0.0
 11
202.358
 21
69.6337
 31
0.0
  0
LINE
  8
0
 62
     0
 10
202.358
 20
69.6337
 30
0.0
 11
188.357
 21
69.6337
 31
0.0
  0
LINE
  8
0
 62
     0
 10
188.357
 20
69.6337
 30
0.0
 11
188.357
 21
83.6344
 31
0.0
  0
LINE
  8
0
 62
     0
 10
207.407
 20
83.6344
 30
0.0
 11
221.408
 21
83.6344
 31
0.0
  0
LINE
  8
0
 62
     0
 10
221.408
 20
83.6344
 30
0.0
 11
221.408
 21
69.6337
 31
0.0
  0
LINE
  8
0
 62
     0
 10
221.408
 20
69.6337
 30
0.0
 11
207.407
 21
69.6337
 31
0.0
  0
LINE
  8
0
 62
     0
 10
207.407
 20
69.6337
 30
0.0
 11
207.407
 21
83.6344
 31
0.0
  0
LINE
  8
0
 62
     0
 10
226.457
 20
83.6344
 30
0.0
 11
240.458
 21
83.6344
 31
0.0
  0
LINE
  8
0
 62
     0
 10
240.458
 20
83.6344
 30
0.0
 11
240.458
 21
69.6337
 31
0.0
  0
LINE
  8
0
 62
     0
 10
240.458
 20
69.6337
 30
0.0
 11
226.457
 21
69.6337
 31
0.0
  0
LINE
  8
0
 62
     0
 10
226.457
 20
69.6337
 30
0.0
 11
226.457
 21
83.6344
 31
0.0
  0
LINE
  8
0
 62
     0
 10
245.507
 20
83.6344
 30
0.0
 11
259.508
 21
83.6344
 31
0.0
  0
LINE
  8
0
 62
     0
 10
259.508
 20
83.6344
 30
0.0
 11
259.508
 21
69.6337
 31
0.0
  0
LINE
  8
0
 62
     0
 10
259.508
 20
69.6337
 30
0.0
 11
245.507
 21
69.6337
 31
0.0
  0
LINE
  8
0
 62
     0
 10
245.507
 20
69.6337
 30
0.0
 11
245.507
 21
83.6344
 31
0.0
  0
LINE
  8
0
 62
     0
 10
269.321
 20
83.6344
 30
0.0
 11
283.32
 21
83.6344
 31
0.0
  0
LINE
  8
0
 62
     0
 10
283.32
 20
83.6344
 30
0.0
 11
283.32
 21
69.6337
 31
0.0
  0
LINE
  8
0
 62
     0
 10
283.32
 20
69.6337
 30
0.0
 11
269.321
 21
69.6337
 31
0.0
  0
LINE
  8
0
 62
     0
 10
269.321
 20
69.6337
 30
0.0
 11
269.321
 21
83.6344
 31
0.0
  0
LINE
  8
0
 62
     0
 10
264.557
 20
102.684
 30
0.0
 11
264.557
 21
97.984
 31
0.0
  0
LINE
  8
0
 62
     0
 10
264.557
 20
97.984
 30
0.0
 11
263.033
 21
97.984
 31
0.0
  0
LINE
  8
0
 62
     0
 10
263.033
 20
97.984
 30
0.0
 11
263.033
 21
101.214
 31
0.0
  0
LINE
  8
0
 62
     0
 10
263.033
 20
101.214
 30
0.0
 11
256.282
 21
101.214
 31
0.0
  0
LINE
  8
0
 62
     0
 10
256.282
 20
101.214
 30
0.0
 11
256.282
 21
97.984
 31
0.0
  0
LINE
  8
0
 62
     0
 10
256.282
 20
97.984
 30
0.0
 11
255.458
 21
97.984
 31
0.0
  0
LINE
  8
0
 62
     0
 10
255.458
 20
97.984
 30
0.0
 11
255.458
 21
95.184
 31
0.0
  0
LINE
  8
0
 62
     0
 10
255.458
 20
95.184
 30
0.0
 11
256.282
 21
95.184
 31
0.0
  0
LINE
  8
0
 62
     0
 10
256.282
 20
95.184
 30
0.0
 11
256.282
 21
88.9138
 31
0.0
  0
LINE
  8
0
 62
     0
 10
256.282
 20
88.9138
 30
0.0
 11
258.007
 21
88.9138
 31
0.0
  0
LINE
  8
0
 62
     0
 10
258.007
 20
88.9138
 30
0.0
 11
258.007
 21
87.7136
 31
0.0
  0
LINE
  8
0
 62
     0
 10
258.007
 20
87.7136
 30
0.0
 11
261.308
 21
87.7136
 31
0.0
  0
LINE
  8
0
 62
     0
 10
261.308
 20
87.7136
 30
0.0
 11
261.308
 21
88.9138
 31
0.0
  0
LINE
  8
0
 62
     0
 10
261.308
 20
88.9138
 30
0.0
 11
263.033
 21
88.9138
 31
0.0
  0
LINE
  8
0
 62
     0
 10
263.033
 20
88.9138
 30
0.0
 11
263.033
 21
93.3842
 31
0.0
  0
LINE
  8
0
 62
     0
 10
263.033
 20
93.3842
 30
0.0
 11
264.557
 21
93.3842
 31
0.0
  0
LINE
  8
0
 62
     0
 10
264.557
 20
93.3842
 30
0.0
 11
264.557
 21
88.6837
 31
0.0
  0
LINE
  8
0
 62
     0
 10
264.557
 20
88.6837
 30
0.0
 11
278.558
 21
88.6837
 31
0.0
  0
LINE
  8
0
 62
     0
 10
278.558
 20
88.6837
 30
0.0
 11
278.558
 21
93.3842
 31
0.0
  0
LINE
  8
0
 62
     0
 10
278.558
 20
93.3842
 30
0.0
 11
280.082
 21
93.3842
 31
0.0
  0
LINE
  8
0
 62
     0
 10
280.082
 20
93.3842
 30
0.0
 11
280.082
 21
88.9138
 31
0.0
  0
LINE
  8
0
 62
     0
 10
280.082
 20
88.9138
 30
0.0
 11
281.807
 21
88.9138
 31
0.0
  0
LINE
  8
0
 62
     0
 10
281.807
 20
88.9138
 30
0.0
 11
281.807
 21
87.7136
 31
0.0
  0
LINE
  8
0
 62
     0
 10
281.807
 20
87.7136
 30
0.0
 11
285.108
 21
87.7136
 31
0.0
  0
LINE
  8
0
 62
     0
 10
285.108
 20
87.7136
 30
0.0
 11
285.108
 21
88.9138
 31
0.0
  0
LINE
  8
0
 62
     0
 10
285.108
 20
88.9138
 30
0.0
 11
286.833
 21
88.9138
 31
0.0
  0
LINE
  8
0
 62
     0
 10
286.833
 20
88.9138
 30
0.0
 11
286.833
 21
95.184
 31
0.0
  0
LINE
  8
0
 62
     0
 10
286.833
 20
95.184
 30
0.0
 11
287.657
 21
95.184
 31
0.0
  0
LINE
  8
0
 62
     0
 10
287.657
 20
95.184
 30
0.0
 11
287.657
 21
97.984
 31
0.0
  0
LINE
  8
0
 62
     0
 10
287.657
 20
97.984
 30
0.0
 11
286.833
 21
97.984
 31
0.0
  0
LINE
  8
0
 62
     0
 10
286.833
 20
97.984
 30
0.0
 11
286.833
 21
101.214
 31
0.0
  0
LINE
  8
0
 62
     0
 10
286.833
 20
101.214
 30
0.0
 11
280.082
 21
101.214
 31
0.0
  0
LINE
  8
0
 62
     0
 10
280.082
 20
101.214
 30
0.0
 11
280.082
 21
97.984
 31
0.0
  0
LINE
  8
0
 62
     0
 10
280.082
 20
97.984
 30
0.0
 11
278.558
 21
97.984
 31
0.0
  0
LINE
  8
0
 62
     0
 10
278.558
 20
97.984
 30
0.0
 11
278.558
 21
102.684
 31
0.0
  0
LINE
  8
0
 62
     0
 10
278.558
 20
102.684
 30
0.0
 11
264.557
 21
102.684
 31
0.0
  0
LINE
  8
0
 62
     0
 10
7.38216
 20
102.684
 30
0.0
 11
21.383
 21
102.684
 31
0.0
  0
LINE
  8
0
 62
     0
 10
21.383
 20
102.684
 30
0.0
 11
21.383
 21
88.6837
 31
0.0
  0
LINE
  8
0
 62
     0
 10
21.383
 20
88.6837
 30
0.0
 11
7.38216
 21
88.6837
 31
0.0
  0
LINE
  8
0
 62
     0
 10
7.38216
 20
88.6837
 30
0.0
 11
7.38216
 21
102.684
 31
0.0
  0
LINE
  8
0
 62
     0
 10
26.4322
 20
102.684
 30
0.0
 11
40.4329
 21
102.684
 31
0.0
  0
LINE
  8
0
 62
     0
 10
40.4329
 20
102.684
 30
0.0
 11
40.4329
 21
88.6837
 31
0.0
  0
LINE
  8
0
 62
     0
 10
40.4329
 20
88.6837
 30
0.0
 11
26.4322
 21
88.6837
 31
0.0
  0
LINE
  8
0
 62
     0
 10
26.4322
 20
88.6837
 30
0.0
 11
26.4322
 21
102.684
 31
0.0
  0
LINE
  8
0
 62
     0
 10
45.4822
 20
102.684
 30
0.0
 11
59.4829
 21
102.684
 31
0.0
  0
LINE
  8
0
 62
     0
 10
59.4829
 20
102.684
 30
0.0
 11
59.4829
 21
88.6837
 31
0.0
  0
LINE
  8
0
 62
     0
 10
59.4829
 20
88.6837
 30
0.0
 11
45.4822
 21
88.6837
 31
0.0
  0
LINE
  8
0
 62
     0
 10
45.4822
 20
88.6837
 30
0.0
 11
45.4822
 21
102.684
 31
0.0
  0
LINE
  8
0
 62
     0
 10
64.5322
 20
102.684
 30
0.0
 11
78.5329
 21
102.684
 31
0.0
  0
LINE
  8
0
 62
     0
 10
78.5329
 20
102.684
 30
0.0
 11
78.5329
 21
88.6837
 31
0.0
  0
LINE
  8
0
 62
     0
 10
78.5329
 20
88.6837
 30
0.0
 11
64.5322
 21
88.6837
 31
0.0
  0
LINE
  8
0
 62
     0
 10
64.5322
 20
88.6837
 30
0.0
 11
64.5322
 21
102.684
 31
0.0
  0
LINE
  8
0
 62
     0
 10
83.5822
 20
102.684
 30
0.0
 11
97.5829
 21
102.684
 31
0.0
  0
LINE
  8
0
 62
     0
 10
97.5829
 20
102.684
 30
0.0
 11
97.5829
 21
88.6837
 31
0.0
  0
LINE
  8
0
 62
     0
 10
97.5829
 20
88.6837
 30
0.0
 11
83.5822
 21
88.6837
 31
0.0
  0
LINE
  8
0
 62
     0
 10
83.5822
 20
88.6837
 30
0.0
 11
83.5822
 21
102.684
 31
0.0
  0
LINE
  8
0
 62
     0
 10
102.632
 20
102.684
 30
0.0
 11
116.633
 21
102.684
 31
0.0
  0
LINE
  8
0
 62
     0
 10
116.633
 20
102.684
 30
0.0
 11
116.633
 21
88.6837
 31
0.0
  0
LINE
  8
0
 62
     0
 10
116.633
 20
88.6837
 30
0.0
 11
102.632
 21
88.6837
 31
0.0
  0
LINE
  8
0
 62
     0
 10
102.632
 20
88.6837
 30
0.0
 11
102.632
 21
102.684
 31
0.0
  0
LINE
  8
0
 62
     0
 10
121.682
 20
102.684
 30
0.0
 11
135.683
 21
102.684
 31
0.0
  0
LINE
  8
0
 62
     0
 10
135.683
 20
102.684
 30
0.0
 11
135.683
 21
88.6837
 31
0.0
  0
LINE
  8
0
 62
     0
 10
135.683
 20
88.6837
 30
0.0
 11
121.682
 21
88.6837
 31
0.0
  0
LINE
  8
0
 62
     0
 10
121.682
 20
88.6837
 30
0.0
 11
121.682
 21
102.684
 31
0.0
  0
LINE
  8
0
 62
     0
 10
140.732
 20
102.684
 30
0.0
 11
154.733
 21
102.684
 31
0.0
  0
LINE
  8
0
 62
     0
 10
154.733
 20
102.684
 30
0.0
 11
154.733
 21
88.6837
 31
0.0
  0
LINE
  8
0
 62
     0
 10
154.733
 20
88.6837
 30
0.0
 11
140.732
 21
88.6837
 31
0.0
  0
LINE
  8
0
 62
     0
 10
140.732
 20
88.6837
 30
0.0
 11
140.732
 21
102.684
 31
0.0
  0
LINE
  8
0
 62
     0
 10
159.782
 20
102.684
 30
0.0
 11
173.783
 21
102.684
 31
0.0
  0
LINE
  8
0
 62
     0
 10
173.783
 20
102.684
 30
0.0
 11
173.783
 21
88.6837
 31
0.0
  0
LINE
  8
0
 62
     0
 10
173.783
 20
88.6837
 30
0.0
 11
159.782
 21
88.6837
 31
0.0
  0
LINE
  8
0
 62
     0
 10
159.782
 20
88.6837
 30
0.0
 11
159.782
 21
102.684
 31
0.0
  0
LINE
  8
0
 62
     0
 10
178.832
 20
102.684
 30
0.0
 11
192.833
 21
102.684
 31
0.0
  0
LINE
  8
0
 62
     0
 10
192.833
 20
102.684
 30
0.0
 11
192.833
 21
88.6837
 31
0.0
  0
LINE
  8
0
 62
     0
 10
192.833
 20
88.6837
 30
0.0
 11
178.832
 21
88.6837
 31
0.0
  0
LINE
  8
0
 62
     0
 10
178.832
 20
88.6837
 30
0.0
 11
178.832
 21
102.684
 31
0.0
  0
LINE
  8
0
 62
     0
 10
197.882
 20
102.684
 30
0.0
 11
211.883
 21
102.684
 31
0.0
  0
LINE
  8
0
 62
     0
 10
211.883
 20
102.684
 30
0.0
 11
211.883
 21
88.6837
 31
0.0
  0
LINE
  8
0
 62
     0
 10
211.883
 20
88.6837
 30
0.0
 11
197.882
 21
88.6837
 31
0.0
  0
LINE
  8
0
 62
     0
 10
197.882
 20
88.6837
 30
0.0
 11
197.882
 21
102.684
 31
0.0
  0
LINE
  8
0
 62
     0
 10
216.932
 20
102.684
 30
0.0
 11
230.933
 21
102.684
 31
0.0
  0
LINE
  8
0
 62
     0
 10
230.933
 20
102.684
 30
0.0
 11
230.933
 21
88.6837
 31
0.0
  0
LINE
  8
0
 62
     0
 10
230.933
 20
88.6837
 30
0.0
 11
216.932
 21
88.6837
 31
0.0
  0
LINE
  8
0
 62
     0
 10
216.932
 20
88.6837
 30
0.0
 11
216.932
 21
102.684
 31
0.0
  0
LINE
  8
0
 62
     0
 10
235.982
 20
102.684
 30
0.0
 11
249.983
 21
102.684
 31
0.0
  0
LINE
  8
0
 62
     0
 10
249.983
 20
102.684
 30
0.0
 11
249.983
 21
88.6837
 31
0.0
  0
LINE
  8
0
 62
     0
 10
249.983
 20
88.6837
 30
0.0
 11
235.982
 21
88.6837
 31
0.0
  0
LINE
  8
0
 62
     0
 10
235.982
 20
88.6837
 30
0.0
 11
235.982
 21
102.684
 31
0.0
  0
LINE
  8
0
 62
     0
 10
108.515
 20
108.59
 30
0.0
 11
108.222
 21
108.441
 31
0.0
  0
LINE
  8
0
 62
     0
 10
108.222
 20
108.441
 30
0.0
 11
107.99
 21
108.208
 31
0.0
  0
LINE
  8
0
 62
     0
 10
107.99
 20
108.208
 30
0.0
 11
107.841
 21
107.915
 31
0.0
  0
LINE
  8
0
 62
     0
 10
107.841
 20
107.915
 30
0.0
 11
107.79
 21
107.59
 31
0.0
  0
LINE
  8
0
 62
     0
 10
107.79
 20
107.59
 30
0.0
 11
107.841
 21
107.267
 31
0.0
  0
LINE
  8
0
 62
     0
 10
107.841
 20
107.267
 30
0.0
 11
107.99
 21
106.973
 31
0.0
  0
LINE
  8
0
 62
     0
 10
107.99
 20
106.973
 30
0.0
 11
108.222
 21
106.741
 31
0.0
  0
LINE
  8
0
 62
     0
 10
108.222
 20
106.741
 30
0.0
 11
108.515
 21
106.593
 31
0.0
  0
LINE
  8
0
 62
     0
 10
108.515
 20
106.593
 30
0.0
 11
108.839
 21
106.54
 31
0.0
  0
LINE
  8
0
 62
     0
 10
108.839
 20
106.54
 30
0.0
 11
109.164
 21
106.593
 31
0.0
  0
LINE
  8
0
 62
     0
 10
109.164
 20
106.593
 30
0.0
 11
109.456
 21
106.741
 31
0.0
  0
LINE
  8
0
 62
     0
 10
109.456
 20
106.741
 30
0.0
 11
109.689
 21
106.973
 31
0.0
  0
LINE
  8
0
 62
     0
 10
109.689
 20
106.973
 30
0.0
 11
109.838
 21
107.267
 31
0.0
  0
LINE
  8
0
 62
     0
 10
109.838
 20
107.267
 30
0.0
 11
109.889
 21
107.59
 31
0.0
  0
LINE
  8
0
 62
     0
 10
109.889
 20
107.59
 30
0.0
 11
109.838
 21
107.915
 31
0.0
  0
LINE
  8
0
 62
     0
 10
109.838
 20
107.915
 30
0.0
 11
109.689
 21
108.208
 31
0.0
  0
LINE
  8
0
 62
     0
 10
109.689
 20
108.208
 30
0.0
 11
109.456
 21
108.441
 31
0.0
  0
LINE
  8
0
 62
     0
 10
109.456
 20
108.441
 30
0.0
 11
109.164
 21
108.59
 31
0.0
  0
LINE
  8
0
 62
     0
 10
109.164
 20
108.59
 30
0.0
 11
108.839
 21
108.64
 31
0.0
  0
LINE
  8
0
 62
     0
 10
108.839
 20
108.64
 30
0.0
 11
108.515
 21
108.59
 31
0.0
  0
LINE
  8
0
 62
     0
 10
214.878
 20
108.59
 30
0.0
 11
214.584
 21
108.441
 31
0.0
  0
LINE
  8
0
 62
     0
 10
214.584
 20
108.441
 30
0.0
 11
214.352
 21
108.208
 31
0.0
  0
LINE
  8
0
 62
     0
 10
214.352
 20
108.208
 30
0.0
 11
214.203
 21
107.915
 31
0.0
  0
LINE
  8
0
 62
     0
 10
214.203
 20
107.915
 30
0.0
 11
214.151
 21
107.59
 31
0.0
  0
LINE
  8
0
 62
     0
 10
214.151
 20
107.59
 30
0.0
 11
214.203
 21
107.267
 31
0.0
  0
LINE
  8
0
 62
     0
 10
214.203
 20
107.267
 30
0.0
 11
214.352
 21
106.973
 31
0.0
  0
LINE
  8
0
 62
     0
 10
214.352
 20
106.973
 30
0.0
 11
214.584
 21
106.741
 31
0.0
  0
LINE
  8
0
 62
     0
 10
214.584
 20
106.741
 30
0.0
 11
214.878
 21
106.593
 31
0.0
  0
LINE
  8
0
 62
     0
 10
214.878
 20
106.593
 30
0.0
 11
215.202
 21
106.54
 31
0.0
  0
LINE
  8
0
 62
     0
 10
215.202
 20
106.54
 30
0.0
 11
215.526
 21
106.593
 31
0.0
  0
LINE
  8
0
 62
     0
 10
215.526
 20
106.593
 30
0.0
 11
215.82
 21
106.741
 31
0.0
  0
LINE
  8
0
 62
     0
 10
215.82
 20
106.741
 30
0.0
 11
216.052
 21
106.973
 31
0.0
  0
LINE
  8
0
 62
     0
 10
216.052
 20
106.973
 30
0.0
 11
216.201
 21
107.267
 31
0.0
  0
LINE
  8
0
 62
     0
 10
216.201
 20
107.267
 30
0.0
 11
216.251
 21
107.59
 31
0.0
  0
LINE
  8
0
 62
     0
 10
216.251
 20
107.59
 30
0.0
 11
216.201
 21
107.915
 31
0.0
  0
LINE
  8
0
 62
     0
 10
216.201
 20
107.915
 30
0.0
 11
216.052
 21
108.208
 31
0.0
  0
LINE
  8
0
 62
     0
 10
216.052
 20
108.208
 30
0.0
 11
215.82
 21
108.441
 31
0.0
  0
LINE
  8
0
 62
     0
 10
215.82
 20
108.441
 30
0.0
 11
215.526
 21
108.59
 31
0.0
  0
LINE
  8
0
 62
     0
 10
215.526
 20
108.59
 30
0.0
 11
215.202
 21
108.64
 31
0.0
  0
LINE
  8
0
 62
     0
 10
215.202
 20
108.64
 30
0.0
 11
214.878
 21
108.59
 31
0.0
  0
LINE
  8
0
 62
     0
 10
321.24
 20
108.59
 30
0.0
 11
320.948
 21
108.441
 31
0.0
  0
LINE
  8
0
 62
     0
 10
320.948
 20
108.441
 30
0.0
 11
320.715
 21
108.208
 31
0.0
  0
LINE
  8
0
 62
     0
 10
320.715
 20
108.208
 30
0.0
 11
320.566
 21
107.915
 31
0.0
  0
LINE
  8
0
 62
     0
 10
320.566
 20
107.915
 30
0.0
 11
320.515
 21
107.59
 31
0.0
  0
LINE
  8
0
 62
     0
 10
320.515
 20
107.59
 30
0.0
 11
320.566
 21
107.267
 31
0.0
  0
LINE
  8
0
 62
     0
 10
320.566
 20
107.267
 30
0.0
 11
320.715
 21
106.973
 31
0.0
  0
LINE
  8
0
 62
     0
 10
320.715
 20
106.973
 30
0.0
 11
320.948
 21
106.741
 31
0.0
  0
LINE
  8
0
 62
     0
 10
320.948
 20
106.741
 30
0.0
 11
321.24
 21
106.593
 31
0.0
  0
LINE
  8
0
 62
     0
 10
321.24
 20
106.593
 30
0.0
 11
321.564
 21
106.54
 31
0.0
  0
LINE
  8
0
 62
     0
 10
321.564
 20
106.54
 30
0.0
 11
321.889
 21
106.593
 31
0.0
  0
LINE
  8
0
 62
     0
 10
321.889
 20
106.593
 30
0.0
 11
322.181
 21
106.741
 31
0.0
  0
LINE
  8
0
 62
     0
 10
322.181
 20
106.741
 30
0.0
 11
322.414
 21
106.973
 31
0.0
  0
LINE
  8
0
 62
     0
 10
322.414
 20
106.973
 30
0.0
 11
322.563
 21
107.267
 31
0.0
  0
LINE
  8
0
 62
     0
 10
322.563
 20
107.267
 30
0.0
 11
322.614
 21
107.59
 31
0.0
  0
LINE
  8
0
 62
     0
 10
322.614
 20
107.59
 30
0.0
 11
322.563
 21
107.915
 31
0.0
  0
LINE
  8
0
 62
     0
 10
322.563
 20
107.915
 30
0.0
 11
322.414
 21
108.208
 31
0.0
  0
LINE
  8
0
 62
     0
 10
322.414
 20
108.208
 30
0.0
 11
322.181
 21
108.441
 31
0.0
  0
LINE
  8
0
 62
     0
 10
322.181
 20
108.441
 30
0.0
 11
321.889
 21
108.59
 31
0.0
  0
LINE
  8
0
 62
     0
 10
321.889
 20
108.59
 30
0.0
 11
321.564
 21
108.64
 31
0.0
  0
LINE
  8
0
 62
     0
 10
321.564
 20
108.64
 30
0.0
 11
321.24
 21
108.59
 31
0.0
  0
LINE
  8
0
 62
     0
 10
2.15112
 20
108.59
 30
0.0
 11
1.85897
 21
108.441
 31
0.0
  0
LINE
  8
0
 62
     0
 10
1.85897
 20
108.441
 30
0.0
 11
1.62609
 21
108.208
 31
0.0
  0
LINE
  8
0
 62
     0
 10
1.62609
 20
108.208
 30
0.0
 11
1.47726
 21
107.915
 31
0.0
  0
LINE
  8
0
 62
     0
 10
1.47726
 20
107.915
 30
0.0
 11
1.42627
 21
107.59
 31
0.0
  0
LINE
  8
0
 62
     0
 10
1.42627
 20
107.59
 30
0.0
 11
1.47726
 21
107.267
 31
0.0
  0
LINE
  8
0
 62
     0
 10
1.47726
 20
107.267
 30
0.0
 11
1.62609
 21
106.973
 31
0.0
  0
LINE
  8
0
 62
     0
 10
1.62609
 20
106.973
 30
0.0
 11
1.85897
 21
106.741
 31
0.0
  0
LINE
  8
0
 62
     0
 10
1.85897
 20
106.741
 30
0.0
 11
2.15112
 21
106.593
 31
0.0
  0
LINE
  8
0
 62
     0
 10
2.15112
 20
106.593
 30
0.0
 11
2.47633
 21
106.54
 31
0.0
  0
LINE
  8
0
 62
     0
 10
2.47633
 20
106.54
 30
0.0
 11
2.80017
 21
106.593
 31
0.0
  0
LINE
  8
0
 62
     0
 10
2.80017
 20
106.593
 30
0.0
 11
3.0937
 21
106.741
 31
0.0
  0
LINE
  8
0
 62
     0
 10
3.0937
 20
106.741
 30
0.0
 11
3.32521
 21
106.973
 31
0.0
  0
LINE
  8
0
 62
     0
 10
3.32521
 20
106.973
 30
0.0
 11
3.47404
 21
107.267
 31
0.0
  0
LINE
  8
0
 62
     0
 10
3.47404
 20
107.267
 30
0.0
 11
3.5264
 21
107.59
 31
0.0
  0
LINE
  8
0
 62
     0
 10
3.5264
 20
107.59
 30
0.0
 11
3.47404
 21
107.915
 31
0.0
  0
LINE
  8
0
 62
     0
 10
3.47404
 20
107.915
 30
0.0
 11
3.32521
 21
108.208
 31
0.0
  0
LINE
  8
0
 62
     0
 10
3.32521
 20
108.208
 30
0.0
 11
3.0937
 21
108.441
 31
0.0
  0
LINE
  8
0
 62
     0
 10
3.0937
 20
108.441
 30
0.0
 11
2.80017
 21
108.59
 31
0.0
  0
LINE
  8
0
 62
     0
 10
2.80017
 20
108.59
 30
0.0
 11
2.47633
 21
108.64
 31
0.0
  0
LINE
  8
0
 62
     0
 10
2.47633
 20
108.64
 30
0.0
 11
2.15112
 21
108.59
 31
0.0
  0
ENDSEC
  0
EOF
