999
FreeCAD v1.1 44874 (Git)
  0
SECTION
  2
HEADER
  9
$ACADVER
  1
AC1014
  9
$ACADMAINTVER
 70
     9
  9
$DWGCODEPAGE
  3
ANSI_1252
  9
$TEXTSTYLE
  7
STANDARD
  9
$DIMSTYLE
  2
STANDARD
  9
$DIMTXSTY
  7
STANDARD
  9
$CMLSTYLE
  2
STANDARD
  9
$LUNITS
 70
2
  9
$INSUNITS
 70
4
  9
$PEXTMAX
 10
50
 20
50
 30
50
  9
$PEXTMIN
 10
0
 20
0
 30
0
  9
$HANDSEED
  5
FFFF
  0
ENDSEC
  0
SECTION
  2
CLASSES
  0
CLASS
  1
ACDBDICTIONARYWDFLT
  2
AcDbDictionaryWithDefault
  3
ObjectDBX Classes
 90
        0
280
     0
281
     0
  0
CLASS
  1
XRECORD
  2
AcDbXrecord
  3
ObjectDBX Classes
 90
        0
280
     0
281
     0
  0
CLASS
  1
LWPOLYLINE
  2
AcDbPolyline
  3
ObjectDBX Classes
 90
        0
280
     0
281
     1
  0
ENDSEC
  0
SECTION
  2
TABLES
  0
TABLE
  2
VPORT
  5
20
330
0
100
AcDbSymbolTable
 70
     1
  0
VPORT
  5
21
330
20
100
AcDbSymbolTableRecord
100
AcDbViewportTableRecord
  2
*ACTIVE
 70
     0
  0
ENDTAB
  0
TABLE
  2
LTYPE
  5
22
330
0
100
AcDbSymbolTable
 70
     1
  0
LTYPE
  5
23
330
21
100
AcDbSymbolTableRecord
100
AcDbLinetypeTableRecord
  2
BYBLOCK
 70
     0
  3

 72
    65
 73
     0
 40
0.0
  0
LTYPE
  5
24
330
21
100
AcDbSymbolTableRecord
100
AcDbLinetypeTableRecord
  2
BYLAYER
 70
     0
  3

 72
    65
 73
     0
 40
0.0
  0
LTYPE
  5
25
330
21
100
AcDbSymbolTableRecord
100
AcDbLinetypeTableRecord
  2
CONTINUOUS
 70
     0
  3
Solid line
 72
    65
 73
     0
 40
0.0
  0
ENDTAB
  0
TABLE
  2
LAYER
  5
C84
330
0
100
AcDbSymbolTable
 70
77
  0
LAYER
  5
C85
330
C84
100
AcDbSymbolTableRecord
100
AcDbLayerTableRecord
  2
0
 70
   0
 62
   7
  6
CONTINUOUS
  0
LAYER
  5
C86
330
C84
100
AcDbSymbolTableRecord
100
AcDbLayerTableRecord
  2
none
 70
    0
 62
    7
  6
CONTINUOUS
  0
LAYER
  5
C87
330
C84
100
AcDbSymbolTableRecord
100
AcDbLayerTableRecord
  2
Polyline
 70
    0
 62
    7
  6
CONTINUOUS
  0
LAYER
  5
C88
330
C84
100
AcDbSymbolTableRecord
100
AcDbLayerTableRecord
  2
Polyline001
 70
    0
 62
    7
  6
CONTINUOUS
  0
LAYER
  5
C89
330
C84
100
AcDbSymbolTableRecord
100
AcDbLayerTableRecord
  2
Polyline002
 70
    0
 62
    7
  6
CONTINUOUS
  0
LAYER
  5
C8A
330
C84
100
AcDbSymbolTableRecord
100
AcDbLayerTableRecord
  2
Polyline003
 70
    0
 62
    7
  6
CONTINUOUS
  0
LAYER
  5
C8B
330
C84
100
AcDbSymbolTableRecord
100
AcDbLayerTableRecord
  2
Polyline004
 70
    0
 62
    7
  6
CONTINUOUS
  0
LAYER
  5
C8C
330
C84
100
AcDbSymbolTableRecord
100
AcDbLayerTableRecord
  2
Polyline005
 70
    0
 62
    7
  6
CONTINUOUS
  0
LAYER
  5
C8D
330
C84
100
AcDbSymbolTableRecord
100
AcDbLayerTableRecord
  2
Polyline006
 70
    0
 62
    7
  6
CONTINUOUS
  0
LAYER
  5
C8E
330
C84
100
AcDbSymbolTableRecord
100
AcDbLayerTableRecord
  2
Polyline007
 70
    0
 62
    7
  6
CONTINUOUS
  0
LAYER
  5
C8F
330
C84
100
AcDbSymbolTableRecord
100
AcDbLayerTableRecord
  2
Polyline008
 70
    0
 62
    7
  6
CONTINUOUS
  0
LAYER
  5
C90
330
C84
100
AcDbSymbolTableRecord
100
AcDbLayerTableRecord
  2
Polyline009
 70
    0
 62
    7
  6
CONTINUOUS
  0
LAYER
  5
C91
330
C84
100
AcDbSymbolTableRecord
100
AcDbLayerTableRecord
  2
Polyline010
 70
    0
 62
    7
  6
CONTINUOUS
  0
LAYER
  5
C92
330
C84
100
AcDbSymbolTableRecord
100
AcDbLayerTableRecord
  2
Polyline011
 70
    0
 62
    7
  6
CONTINUOUS
  0
LAYER
  5
C93
330
C84
100
AcDbSymbolTableRecord
100
AcDbLayerTableRecord
  2
Polyline012
 70
    0
 62
    7
  6
CONTINUOUS
  0
LAYER
  5
C94
330
C84
100
AcDbSymbolTableRecord
100
AcDbLayerTableRecord
  2
Polyline013
 70
    0
 62
    7
  6
CONTINUOUS
  0
LAYER
  5
C95
330
C84
100
AcDbSymbolTableRecord
100
AcDbLayerTableRecord
  2
Polyline014
 70
    0
 62
    7
  6
CONTINUOUS
  0
LAYER
  5
C96
330
C84
100
AcDbSymbolTableRecord
100
AcDbLayerTableRecord
  2
Polyline015
 70
    0
 62
    7
  6
CONTINUOUS
  0
LAYER
  5
C97
330
C84
100
AcDbSymbolTableRecord
100
AcDbLayerTableRecord
  2
Polyline016
 70
    0
 62
    7
  6
CONTINUOUS
  0
LAYER
  5
C98
330
C84
100
AcDbSymbolTableRecord
100
AcDbLayerTableRecord
  2
Polyline017
 70
    0
 62
    7
  6
CONTINUOUS
  0
LAYER
  5
C99
330
C84
100
AcDbSymbolTableRecord
100
AcDbLayerTableRecord
  2
Polyline018
 70
    0
 62
    7
  6
CONTINUOUS
  0
LAYER
  5
C9A
330
C84
100
AcDbSymbolTableRecord
100
AcDbLayerTableRecord
  2
Polyline019
 70
    0
 62
    7
  6
CONTINUOUS
  0
LAYER
  5
C9B
330
C84
100
AcDbSymbolTableRecord
100
AcDbLayerTableRecord
  2
Polyline020
 70
    0
 62
    7
  6
CONTINUOUS
  0
LAYER
  5
C9C
330
C84
100
AcDbSymbolTableRecord
100
AcDbLayerTableRecord
  2
Polyline021
 70
    0
 62
    7
  6
CONTINUOUS
  0
LAYER
  5
C9D
330
C84
100
AcDbSymbolTableRecord
100
AcDbLayerTableRecord
  2
Polyline022
 70
    0
 62
    7
  6
CONTINUOUS
  0
LAYER
  5
C9E
330
C84
100
AcDbSymbolTableRecord
100
AcDbLayerTableRecord
  2
Polyline023
 70
    0
 62
    7
  6
CONTINUOUS
  0
LAYER
  5
C9F
330
C84
100
AcDbSymbolTableRecord
100
AcDbLayerTableRecord
  2
Polyline024
 70
    0
 62
    7
  6
CONTINUOUS
  0
LAYER
  5
CA0
330
C84
100
AcDbSymbolTableRecord
100
AcDbLayerTableRecord
  2
Polyline025
 70
    0
 62
    7
  6
CONTINUOUS
  0
LAYER
  5
CA1
330
C84
100
AcDbSymbolTableRecord
100
AcDbLayerTableRecord
  2
Polyline026
 70
    0
 62
    7
  6
CONTINUOUS
  0
LAYER
  5
CA2
330
C84
100
AcDbSymbolTableRecord
100
AcDbLayerTableRecord
  2
Polyline027
 70
    0
 62
    7
  6
CONTINUOUS
  0
LAYER
  5
CA3
330
C84
100
AcDbSymbolTableRecord
100
AcDbLayerTableRecord
  2
Polyline028
 70
    0
 62
    7
  6
CONTINUOUS
  0
LAYER
  5
CA4
330
C84
100
AcDbSymbolTableRecord
100
AcDbLayerTableRecord
  2
Polyline029
 70
    0
 62
    7
  6
CONTINUOUS
  0
LAYER
  5
CA5
330
C84
100
AcDbSymbolTableRecord
100
AcDbLayerTableRecord
  2
Polyline030
 70
    0
 62
    7
  6
CONTINUOUS
  0
LAYER
  5
CA6
330
C84
100
AcDbSymbolTableRecord
100
AcDbLayerTableRecord
  2
Polyline031
 70
    0
 62
    7
  6
CONTINUOUS
  0
LAYER
  5
CA7
330
C84
100
AcDbSymbolTableRecord
100
AcDbLayerTableRecord
  2
Polyline032
 70
    0
 62
    7
  6
CONTINUOUS
  0
LAYER
  5
CA8
330
C84
100
AcDbSymbolTableRecord
100
AcDbLayerTableRecord
  2
Polyline033
 70
    0
 62
    7
  6
CONTINUOUS
  0
LAYER
  5
CA9
330
C84
100
AcDbSymbolTableRecord
100
AcDbLayerTableRecord
  2
Polyline034
 70
    0
 62
    7
  6
CONTINUOUS
  0
LAYER
  5
CAA
330
C84
100
AcDbSymbolTableRecord
100
AcDbLayerTableRecord
  2
Polyline035
 70
    0
 62
    7
  6
CONTINUOUS
  0
LAYER
  5
CAB
330
C84
100
AcDbSymbolTableRecord
100
AcDbLayerTableRecord
  2
Polyline036
 70
    0
 62
    7
  6
CONTINUOUS
  0
LAYER
  5
CAC
330
C84
100
AcDbSymbolTableRecord
100
AcDbLayerTableRecord
  2
Polyline037
 70
    0
 62
    7
  6
CONTINUOUS
  0
LAYER
  5
CAD
330
C84
100
AcDbSymbolTableRecord
100
AcDbLayerTableRecord
  2
Polyline038
 70
    0
 62
    7
  6
CONTINUOUS
  0
LAYER
  5
CAE
330
C84
100
AcDbSymbolTableRecord
100
AcDbLayerTableRecord
  2
Polyline039
 70
    0
 62
    7
  6
CONTINUOUS
  0
LAYER
  5
CAF
330
C84
100
AcDbSymbolTableRecord
100
AcDbLayerTableRecord
  2
Polyline040
 70
    0
 62
    7
  6
CONTINUOUS
  0
LAYER
  5
CB0
330
C84
100
AcDbSymbolTableRecord
100
AcDbLayerTableRecord
  2
Polyline041
 70
    0
 62
    7
  6
CONTINUOUS
  0
LAYER
  5
CB1
330
C84
100
AcDbSymbolTableRecord
100
AcDbLayerTableRecord
  2
Polyline075
 70
    0
 62
    7
  6
CONTINUOUS
  0
LAYER
  5
CB2
330
C84
100
AcDbSymbolTableRecord
100
AcDbLayerTableRecord
  2
Polyline043
 70
    0
 62
    7
  6
CONTINUOUS
  0
LAYER
  5
CB3
330
C84
100
AcDbSymbolTableRecord
100
AcDbLayerTableRecord
  2
Polyline044
 70
    0
 62
    7
  6
CONTINUOUS
  0
LAYER
  5
CB4
330
C84
100
AcDbSymbolTableRecord
100
AcDbLayerTableRecord
  2
Polyline045
 70
    0
 62
    7
  6
CONTINUOUS
  0
LAYER
  5
CB5
330
C84
100
AcDbSymbolTableRecord
100
AcDbLayerTableRecord
  2
Polyline046
 70
    0
 62
    7
  6
CONTINUOUS
  0
LAYER
  5
CB6
330
C84
100
AcDbSymbolTableRecord
100
AcDbLayerTableRecord
  2
Polyline047
 70
    0
 62
    7
  6
CONTINUOUS
  0
LAYER
  5
CB7
330
C84
100
AcDbSymbolTableRecord
100
AcDbLayerTableRecord
  2
Polyline048
 70
    0
 62
    7
  6
CONTINUOUS
  0
LAYER
  5
CB8
330
C84
100
AcDbSymbolTableRecord
100
AcDbLayerTableRecord
  2
Polyline049
 70
    0
 62
    7
  6
CONTINUOUS
  0
LAYER
  5
CB9
330
C84
100
AcDbSymbolTableRecord
100
AcDbLayerTableRecord
  2
Polyline050
 70
    0
 62
    7
  6
CONTINUOUS
  0
LAYER
  5
CBA
330
C84
100
AcDbSymbolTableRecord
100
AcDbLayerTableRecord
  2
Polyline051
 70
    0
 62
    7
  6
CONTINUOUS
  0
LAYER
  5
CBB
330
C84
100
AcDbSymbolTableRecord
100
AcDbLayerTableRecord
  2
Polyline052
 70
    0
 62
    7
  6
CONTINUOUS
  0
LAYER
  5
CBC
330
C84
100
AcDbSymbolTableRecord
100
AcDbLayerTableRecord
  2
Polyline053
 70
    0
 62
    7
  6
CONTINUOUS
  0
LAYER
  5
CBD
330
C84
100
AcDbSymbolTableRecord
100
AcDbLayerTableRecord
  2
Polyline054
 70
    0
 62
    7
  6
CONTINUOUS
  0
LAYER
  5
CBE
330
C84
100
AcDbSymbolTableRecord
100
AcDbLayerTableRecord
  2
Polyline055
 70
    0
 62
    7
  6
CONTINUOUS
  0
LAYER
  5
CBF
330
C84
100
AcDbSymbolTableRecord
100
AcDbLayerTableRecord
  2
Polyline056
 70
    0
 62
    7
  6
CONTINUOUS
  0
LAYER
  5
CC0
330
C84
100
AcDbSymbolTableRecord
100
AcDbLayerTableRecord
  2
Polyline057
 70
    0
 62
    7
  6
CONTINUOUS
  0
LAYER
  5
CC1
330
C84
100
AcDbSymbolTableRecord
100
AcDbLayerTableRecord
  2
Polyline058
 70
    0
 62
    7
  6
CONTINUOUS
  0
LAYER
  5
CC2
330
C84
100
AcDbSymbolTableRecord
100
AcDbLayerTableRecord
  2
Polyline059
 70
    0
 62
    7
  6
CONTINUOUS
  0
LAYER
  5
CC3
330
C84
100
AcDbSymbolTableRecord
100
AcDbLayerTableRecord
  2
Polyline060
 70
    0
 62
    7
  6
CONTINUOUS
  0
LAYER
  5
CC4
330
C84
100
AcDbSymbolTableRecord
100
AcDbLayerTableRecord
  2
Polyline061
 70
    0
 62
    7
  6
CONTINUOUS
  0
LAYER
  5
CC5
330
C84
100
AcDbSymbolTableRecord
100
AcDbLayerTableRecord
  2
Polyline062
 70
    0
 62
    7
  6
CONTINUOUS
  0
LAYER
  5
CC6
330
C84
100
AcDbSymbolTableRecord
100
AcDbLayerTableRecord
  2
Polyline063
 70
    0
 62
    7
  6
CONTINUOUS
  0
LAYER
  5
CC7
330
C84
100
AcDbSymbolTableRecord
100
AcDbLayerTableRecord
  2
Polyline064
 70
    0
 62
    7
  6
CONTINUOUS
  0
LAYER
  5
CC8
330
C84
100
AcDbSymbolTableRecord
100
AcDbLayerTableRecord
  2
Polyline065
 70
    0
 62
    7
  6
CONTINUOUS
  0
LAYER
  5
CC9
330
C84
100
AcDbSymbolTableRecord
100
AcDbLayerTableRecord
  2
Polyline066
 70
    0
 62
    7
  6
CONTINUOUS
  0
LAYER
  5
CCA
330
C84
100
AcDbSymbolTableRecord
100
AcDbLayerTableRecord
  2
Polyline067
 70
    0
 62
    7
  6
CONTINUOUS
  0
LAYER
  5
CCB
330
C84
100
AcDbSymbolTableRecord
100
AcDbLayerTableRecord
  2
Polyline068
 70
    0
 62
    7
  6
CONTINUOUS
  0
LAYER
  5
CCC
330
C84
100
AcDbSymbolTableRecord
100
AcDbLayerTableRecord
  2
Polyline069
 70
    0
 62
    7
  6
CONTINUOUS
  0
LAYER
  5
CCD
330
C84
100
AcDbSymbolTableRecord
100
AcDbLayerTableRecord
  2
Polyline070
 70
    0
 62
    7
  6
CONTINUOUS
  0
LAYER
  5
CCE
330
C84
100
AcDbSymbolTableRecord
100
AcDbLayerTableRecord
  2
Polyline071
 70
    0
 62
    7
  6
CONTINUOUS
  0
LAYER
  5
CCF
330
C84
100
AcDbSymbolTableRecord
100
AcDbLayerTableRecord
  2
Polyline072
 70
    0
 62
    7
  6
CONTINUOUS
  0
LAYER
  5
CD0
330
C84
100
AcDbSymbolTableRecord
100
AcDbLayerTableRecord
  2
Polyline073
 70
    0
 62
    7
  6
CONTINUOUS
  0
LAYER
  5
CD1
330
C84
100
AcDbSymbolTableRecord
100
AcDbLayerTableRecord
  2
Polyline074
 70
    0
 62
    7
  6
CONTINUOUS
  0
ENDTAB
  0
TABLE
  2
STYLE
  5
70
330
0
100
AcDbSymbolTable
 70
     2
  0
STYLE
  5
71
330
70
100
AcDbSymbolTableRecord
100
AcDbTextStyleTableRecord
  2
STANDARD
 70
     0
 40
0.0
 41
1.0
 50
0.0
 71
     0
 42
2.5
  3
arial.ttf
  4

  0
STYLE
  5
72
330
70
100
AcDbSymbolTableRecord
100
AcDbTextStyleTableRecord
  2
ANNOTATIVE
 70
     0
 40
0.0
 41
1.0
 50
0.0
 71
     0
 42
2.5
  3
arial.ttf
  4

  0
ENDTAB
  0
TABLE
  2
VIEW
  5
73
330
0
100
AcDbSymbolTable
 70
     0
  0
ENDTAB
  0
TABLE
  2
UCS
  5
74
330
0
100
AcDbSymbolTable
 70
     0
  0
ENDTAB
  0
TABLE
  2
APPID
  5
75
330
0
100
AcDbSymbolTable
 70
     2
  0
APPID
  5
76
330
75
100
AcDbSymbolTableRecord
100
AcDbRegAppTableRecord
  2
ACAD
 70
     0
  0
APPID
  5
77
330
75
100
AcDbSymbolTableRecord
100
AcDbRegAppTableRecord
  2
ACADANNOTATIVE
 70
     0
  0
ENDTAB
  0
TABLE
  2
DIMSTYLE
  5
78
330
0
100
AcDbSymbolTable
 70
     2
  0
DIMSTYLE
105
79
330
78
100
AcDbSymbolTableRecord
100
AcDbDimStyleTableRecord
  2
STANDARD
 70
     0
  3

  4

  5

  6

  7

 40
0.0
 41
2.5
 42
0.625
 43
3.75
 44
1.25
 45
0.0
 46
0.0
 47
0.0
 48
0.0
140
2.5
141
2.5
142
0.0
143
0.03937007874016
144
1.0
145
0.0
146
1.0
147
0.625
 71
     0
 72
     0
 73
     0
 74
     0
 75
     0
 76
     0
 77
     1
 78
     8
170
     0
171
     3
172
     1
173
     0
174
     0
175
     0
176
     0
177
     0
178
     0
270
     2
271
     2
272
     2
273
     2
274
     3
340
71
275
     0
280
     0
281
     0
282
     0
283
     0
284
     8
285
     0
286
     0
287
     3
288
     0
  0
ENDTAB
  0
TABLE
  2
BLOCK_RECORD
  5
A01
330
0
100
AcDbSymbolTable
  70
5
  0
BLOCK_RECORD
  5
A02
330
A01
100
AcDbSymbolTableRecord
100
AcDbBlockTableRecord
  2
*MODEL_SPACE
  0
BLOCK_RECORD
  5
A03
330
A01
100
AcDbSymbolTableRecord
100
AcDbBlockTableRecord
  2
*PAPER_SPACE
  0
ENDTAB
  0
ENDSEC
  0
SECTION
  2
BLOCKS
  0
BLOCK
  5
A04
330
A02
100
AcDbEntity
  8
0
100
AcDbBlockBegin
  2
*MODEL_SPACE
 70
   0
 10
0
 20
0
 30
0
  3
*MODEL_SPACE
  1
 
  0
ENDBLK
  5
A05
330
A02
100
AcDbEntity
  8
0
100
AcDbBlockEnd
  0
BLOCK
  5
A06
330
A03
100
AcDbEntity
 67
1
  8
0
100
AcDbBlockBegin
  2
*PAPER_SPACE
 70
   0
 10
0
 20
0
 30
0
  3
*PAPER_SPACE
  1
 
  0
ENDBLK
  5
A07
330
A03
100
AcDbEntity
 67
    1
  8
0
100
AcDbBlockEnd
  0
ENDSEC
  0
SECTION
  2
ENTITIES
  0
LINE
  5
A08
330
A02
100
AcDbEntity
  8
Polyline
100
AcDbLine
 10
326.470000000
 20
-5.001000000
 30
0.000000000
 11
326.657000000
 21
-5.008000000
 31
0.000000000
  0
LINE
  5
A09
330
A02
100
AcDbEntity
  8
Polyline
100
AcDbLine
 10
326.657000000
 20
-5.008000000
 30
0.000000000
 11
326.843000000
 21
-5.030000000
 31
0.000000000
  0
LINE
  5
A0A
330
A02
100
AcDbEntity
  8
Polyline
100
AcDbLine
 10
326.843000000
 20
-5.030000000
 30
0.000000000
 11
327.026000000
 21
-5.066000000
 31
0.000000000
  0
LINE
  5
A0B
330
A02
100
AcDbEntity
  8
Polyline
100
AcDbLine
 10
327.026000000
 20
-5.066000000
 30
0.000000000
 11
327.206000000
 21
-5.117000000
 31
0.000000000
  0
LINE
  5
A0C
330
A02
100
AcDbEntity
  8
Polyline
100
AcDbLine
 10
327.206000000
 20
-5.117000000
 30
0.000000000
 11
327.382000000
 21
-5.182000000
 31
0.000000000
  0
LINE
  5
A0D
330
A02
100
AcDbEntity
  8
Polyline
100
AcDbLine
 10
327.382000000
 20
-5.182000000
 30
0.000000000
 11
327.551000000
 21
-5.260000000
 31
0.000000000
  0
LINE
  5
A0E
330
A02
100
AcDbEntity
  8
Polyline
100
AcDbLine
 10
327.551000000
 20
-5.260000000
 30
0.000000000
 11
327.714000000
 21
-5.351000000
 31
0.000000000
  0
LINE
  5
A0F
330
A02
100
AcDbEntity
  8
Polyline
100
AcDbLine
 10
327.714000000
 20
-5.351000000
 30
0.000000000
 11
327.870000000
 21
-5.455000000
 31
0.000000000
  0
LINE
  5
A10
330
A02
100
AcDbEntity
  8
Polyline
100
AcDbLine
 10
327.870000000
 20
-5.455000000
 30
0.000000000
 11
328.017000000
 21
-5.571000000
 31
0.000000000
  0
LINE
  5
A11
330
A02
100
AcDbEntity
  8
Polyline
100
AcDbLine
 10
328.017000000
 20
-5.571000000
 30
0.000000000
 11
328.154000000
 21
-5.698000000
 31
0.000000000
  0
LINE
  5
A12
330
A02
100
AcDbEntity
  8
Polyline
100
AcDbLine
 10
328.154000000
 20
-5.698000000
 30
0.000000000
 11
328.281000000
 21
-5.835000000
 31
0.000000000
  0
LINE
  5
A13
330
A02
100
AcDbEntity
  8
Polyline
100
AcDbLine
 10
328.281000000
 20
-5.835000000
 30
0.000000000
 11
328.397000000
 21
-5.982000000
 31
0.000000000
  0
LINE
  5
A14
330
A02
100
AcDbEntity
  8
Polyline
100
AcDbLine
 10
328.397000000
 20
-5.982000000
 30
0.000000000
 11
328.501000000
 21
-6.138000000
 31
0.000000000
  0
LINE
  5
A15
330
A02
100
AcDbEntity
  8
Polyline
100
AcDbLine
 10
328.501000000
 20
-6.138000000
 30
0.000000000
 11
328.592000000
 21
-6.301000000
 31
0.000000000
  0
LINE
  5
A16
330
A02
100
AcDbEntity
  8
Polyline
100
AcDbLine
 10
328.592000000
 20
-6.301000000
 30
0.000000000
 11
328.670000000
 21
-6.470000000
 31
0.000000000
  0
LINE
  5
A17
330
A02
100
AcDbEntity
  8
Polyline
100
AcDbLine
 10
328.670000000
 20
-6.470000000
 30
0.000000000
 11
328.735000000
 21
-6.646000000
 31
0.000000000
  0
LINE
  5
A18
330
A02
100
AcDbEntity
  8
Polyline
100
AcDbLine
 10
328.735000000
 20
-6.646000000
 30
0.000000000
 11
328.786000000
 21
-6.826000000
 31
0.000000000
  0
LINE
  5
A19
330
A02
100
AcDbEntity
  8
Polyline
100
AcDbLine
 10
328.786000000
 20
-6.826000000
 30
0.000000000
 11
328.822000000
 21
-7.009000000
 31
0.000000000
  0
LINE
  5
A1A
330
A02
100
AcDbEntity
  8
Polyline
100
AcDbLine
 10
328.822000000
 20
-7.009000000
 30
0.000000000
 11
328.844000000
 21
-7.195000000
 31
0.000000000
  0
LINE
  5
A1B
330
A02
100
AcDbEntity
  8
Polyline
100
AcDbLine
 10
328.844000000
 20
-7.195000000
 30
0.000000000
 11
328.852000000
 21
-7.382000000
 31
0.000000000
  0
LINE
  5
A1C
330
A02
100
AcDbEntity
  8
Polyline
100
AcDbLine
 10
328.852000000
 20
-7.382000000
 30
0.000000000
 11
328.852000000
 21
-112.158000000
 31
0.000000000
  0
LINE
  5
A1D
330
A02
100
AcDbEntity
  8
Polyline
100
AcDbLine
 10
328.852000000
 20
-112.158000000
 30
0.000000000
 11
328.844000000
 21
-112.345000000
 31
0.000000000
  0
LINE
  5
A1E
330
A02
100
AcDbEntity
  8
Polyline
100
AcDbLine
 10
328.844000000
 20
-112.345000000
 30
0.000000000
 11
328.822000000
 21
-112.530000000
 31
0.000000000
  0
LINE
  5
A1F
330
A02
100
AcDbEntity
  8
Polyline
100
AcDbLine
 10
328.822000000
 20
-112.530000000
 30
0.000000000
 11
328.786000000
 21
-112.714000000
 31
0.000000000
  0
LINE
  5
A20
330
A02
100
AcDbEntity
  8
Polyline
100
AcDbLine
 10
328.786000000
 20
-112.714000000
 30
0.000000000
 11
328.735000000
 21
-112.894000000
 31
0.000000000
  0
LINE
  5
A21
330
A02
100
AcDbEntity
  8
Polyline
100
AcDbLine
 10
328.735000000
 20
-112.894000000
 30
0.000000000
 11
328.670000000
 21
-113.069000000
 31
0.000000000
  0
LINE
  5
A22
330
A02
100
AcDbEntity
  8
Polyline
100
AcDbLine
 10
328.670000000
 20
-113.069000000
 30
0.000000000
 11
328.592000000
 21
-113.239000000
 31
0.000000000
  0
LINE
  5
A23
330
A02
100
AcDbEntity
  8
Polyline
100
AcDbLine
 10
328.592000000
 20
-113.239000000
 30
0.000000000
 11
328.501000000
 21
-113.402000000
 31
0.000000000
  0
LINE
  5
A24
330
A02
100
AcDbEntity
  8
Polyline
100
AcDbLine
 10
328.501000000
 20
-113.402000000
 30
0.000000000
 11
328.397000000
 21
-113.557000000
 31
0.000000000
  0
LINE
  5
A25
330
A02
100
AcDbEntity
  8
Polyline
100
AcDbLine
 10
328.397000000
 20
-113.557000000
 30
0.000000000
 11
328.281000000
 21
-113.704000000
 31
0.000000000
  0
LINE
  5
A26
330
A02
100
AcDbEntity
  8
Polyline
100
AcDbLine
 10
328.281000000
 20
-113.704000000
 30
0.000000000
 11
328.154000000
 21
-113.842000000
 31
0.000000000
  0
LINE
  5
A27
330
A02
100
AcDbEntity
  8
Polyline
100
AcDbLine
 10
328.154000000
 20
-113.842000000
 30
0.000000000
 11
328.017000000
 21
-113.968000000
 31
0.000000000
  0
LINE
  5
A28
330
A02
100
AcDbEntity
  8
Polyline
100
AcDbLine
 10
328.017000000
 20
-113.968000000
 30
0.000000000
 11
327.870000000
 21
-114.084000000
 31
0.000000000
  0
LINE
  5
A29
330
A02
100
AcDbEntity
  8
Polyline
100
AcDbLine
 10
327.870000000
 20
-114.084000000
 30
0.000000000
 11
327.714000000
 21
-114.188000000
 31
0.000000000
  0
LINE
  5
A2A
330
A02
100
AcDbEntity
  8
Polyline
100
AcDbLine
 10
327.714000000
 20
-114.188000000
 30
0.000000000
 11
327.551000000
 21
-114.279000000
 31
0.000000000
  0
LINE
  5
A2B
330
A02
100
AcDbEntity
  8
Polyline
100
AcDbLine
 10
327.551000000
 20
-114.279000000
 30
0.000000000
 11
327.382000000
 21
-114.358000000
 31
0.000000000
  0
LINE
  5
A2C
330
A02
100
AcDbEntity
  8
Polyline
100
AcDbLine
 10
327.382000000
 20
-114.358000000
 30
0.000000000
 11
327.206000000
 21
-114.422000000
 31
0.000000000
  0
LINE
  5
A2D
330
A02
100
AcDbEntity
  8
Polyline
100
AcDbLine
 10
327.206000000
 20
-114.422000000
 30
0.000000000
 11
327.026000000
 21
-114.473000000
 31
0.000000000
  0
LINE
  5
A2E
330
A02
100
AcDbEntity
  8
Polyline
100
AcDbLine
 10
327.026000000
 20
-114.473000000
 30
0.000000000
 11
326.843000000
 21
-114.510000000
 31
0.000000000
  0
LINE
  5
A2F
330
A02
100
AcDbEntity
  8
Polyline
100
AcDbLine
 10
326.843000000
 20
-114.510000000
 30
0.000000000
 11
326.657000000
 21
-114.532000000
 31
0.000000000
  0
LINE
  5
A30
330
A02
100
AcDbEntity
  8
Polyline
100
AcDbLine
 10
326.657000000
 20
-114.532000000
 30
0.000000000
 11
326.470000000
 21
-114.539000000
 31
0.000000000
  0
LINE
  5
A31
330
A02
100
AcDbEntity
  8
Polyline
100
AcDbLine
 10
326.470000000
 20
-114.539000000
 30
0.000000000
 11
7.382000000
 21
-114.539000000
 31
0.000000000
  0
LINE
  5
A32
330
A02
100
AcDbEntity
  8
Polyline
100
AcDbLine
 10
7.382000000
 20
-114.539000000
 30
0.000000000
 11
7.195000000
 21
-114.532000000
 31
0.000000000
  0
LINE
  5
A33
330
A02
100
AcDbEntity
  8
Polyline
100
AcDbLine
 10
7.195000000
 20
-114.532000000
 30
0.000000000
 11
7.009000000
 21
-114.510000000
 31
0.000000000
  0
LINE
  5
A34
330
A02
100
AcDbEntity
  8
Polyline
100
AcDbLine
 10
7.009000000
 20
-114.510000000
 30
0.000000000
 11
6.826000000
 21
-114.473000000
 31
0.000000000
  0
LINE
  5
A35
330
A02
100
AcDbEntity
  8
Polyline
100
AcDbLine
 10
6.826000000
 20
-114.473000000
 30
0.000000000
 11
6.646000000
 21
-114.422000000
 31
0.000000000
  0
LINE
  5
A36
330
A02
100
AcDbEntity
  8
Polyline
100
AcDbLine
 10
6.646000000
 20
-114.422000000
 30
0.000000000
 11
6.470000000
 21
-114.358000000
 31
0.000000000
  0
LINE
  5
A37
330
A02
100
AcDbEntity
  8
Polyline
100
AcDbLine
 10
6.470000000
 20
-114.358000000
 30
0.000000000
 11
6.301000000
 21
-114.279000000
 31
0.000000000
  0
LINE
  5
A38
330
A02
100
AcDbEntity
  8
Polyline
100
AcDbLine
 10
6.301000000
 20
-114.279000000
 30
0.000000000
 11
6.138000000
 21
-114.188000000
 31
0.000000000
  0
LINE
  5
A39
330
A02
100
AcDbEntity
  8
Polyline
100
AcDbLine
 10
6.138000000
 20
-114.188000000
 30
0.000000000
 11
5.982000000
 21
-114.084000000
 31
0.000000000
  0
LINE
  5
A3A
330
A02
100
AcDbEntity
  8
Polyline
100
AcDbLine
 10
5.982000000
 20
-114.084000000
 30
0.000000000
 11
5.835000000
 21
-113.968000000
 31
0.000000000
  0
LINE
  5
A3B
330
A02
100
AcDbEntity
  8
Polyline
100
AcDbLine
 10
5.835000000
 20
-113.968000000
 30
0.000000000
 11
5.698000000
 21
-113.842000000
 31
0.000000000
  0
LINE
  5
A3C
330
A02
100
AcDbEntity
  8
Polyline
100
AcDbLine
 10
5.698000000
 20
-113.842000000
 30
0.000000000
 11
5.571000000
 21
-113.704000000
 31
0.000000000
  0
LINE
  5
A3D
330
A02
100
AcDbEntity
  8
Polyline
100
AcDbLine
 10
5.571000000
 20
-113.704000000
 30
0.000000000
 11
5.455000000
 21
-113.557000000
 31
0.000000000
  0
LINE
  5
A3E
330
A02
100
AcDbEntity
  8
Polyline
100
AcDbLine
 10
5.455000000
 20
-113.557000000
 30
0.000000000
 11
5.351000000
 21
-113.402000000
 31
0.000000000
  0
LINE
  5
A3F
330
A02
100
AcDbEntity
  8
Polyline
100
AcDbLine
 10
5.351000000
 20
-113.402000000
 30
0.000000000
 11
5.260000000
 21
-113.239000000
 31
0.000000000
  0
LINE
  5
A40
330
A02
100
AcDbEntity
  8
Polyline
100
AcDbLine
 10
5.260000000
 20
-113.239000000
 30
0.000000000
 11
5.182000000
 21
-113.069000000
 31
0.000000000
  0
LINE
  5
A41
330
A02
100
AcDbEntity
  8
Polyline
100
AcDbLine
 10
5.182000000
 20
-113.069000000
 30
0.000000000
 11
5.117000000
 21
-112.894000000
 31
0.000000000
  0
LINE
  5
A42
330
A02
100
AcDbEntity
  8
Polyline
100
AcDbLine
 10
5.117000000
 20
-112.894000000
 30
0.000000000
 11
5.066000000
 21
-112.714000000
 31
0.000000000
  0
LINE
  5
A43
330
A02
100
AcDbEntity
  8
Polyline
100
AcDbLine
 10
5.066000000
 20
-112.714000000
 30
0.000000000
 11
5.030000000
 21
-112.530000000
 31
0.000000000
  0
LINE
  5
A44
330
A02
100
AcDbEntity
  8
Polyline
100
AcDbLine
 10
5.030000000
 20
-112.530000000
 30
0.000000000
 11
5.008000000
 21
-112.345000000
 31
0.000000000
  0
LINE
  5
A45
330
A02
100
AcDbEntity
  8
Polyline
100
AcDbLine
 10
5.008000000
 20
-112.345000000
 30
0.000000000
 11
5.000000000
 21
-112.158000000
 31
0.000000000
  0
LINE
  5
A46
330
A02
100
AcDbEntity
  8
Polyline
100
AcDbLine
 10
5.000000000
 20
-112.158000000
 30
0.000000000
 11
5.001000000
 21
-7.382000000
 31
0.000000000
  0
LINE
  5
A47
330
A02
100
AcDbEntity
  8
Polyline
100
AcDbLine
 10
5.001000000
 20
-7.382000000
 30
0.000000000
 11
5.008000000
 21
-7.195000000
 31
0.000000000
  0
LINE
  5
A48
330
A02
100
AcDbEntity
  8
Polyline
100
AcDbLine
 10
5.008000000
 20
-7.195000000
 30
0.000000000
 11
5.030000000
 21
-7.009000000
 31
0.000000000
  0
LINE
  5
A49
330
A02
100
AcDbEntity
  8
Polyline
100
AcDbLine
 10
5.030000000
 20
-7.009000000
 30
0.000000000
 11
5.066000000
 21
-6.826000000
 31
0.000000000
  0
LINE
  5
A4A
330
A02
100
AcDbEntity
  8
Polyline
100
AcDbLine
 10
5.066000000
 20
-6.826000000
 30
0.000000000
 11
5.117000000
 21
-6.646000000
 31
0.000000000
  0
LINE
  5
A4B
330
A02
100
AcDbEntity
  8
Polyline
100
AcDbLine
 10
5.117000000
 20
-6.646000000
 30
0.000000000
 11
5.182000000
 21
-6.470000000
 31
0.000000000
  0
LINE
  5
A4C
330
A02
100
AcDbEntity
  8
Polyline
100
AcDbLine
 10
5.182000000
 20
-6.470000000
 30
0.000000000
 11
5.260000000
 21
-6.301000000
 31
0.000000000
  0
LINE
  5
A4D
330
A02
100
AcDbEntity
  8
Polyline
100
AcDbLine
 10
5.260000000
 20
-6.301000000
 30
0.000000000
 11
5.351000000
 21
-6.138000000
 31
0.000000000
  0
LINE
  5
A4E
330
A02
100
AcDbEntity
  8
Polyline
100
AcDbLine
 10
5.351000000
 20
-6.138000000
 30
0.000000000
 11
5.455000000
 21
-5.982000000
 31
0.000000000
  0
LINE
  5
A4F
330
A02
100
AcDbEntity
  8
Polyline
100
AcDbLine
 10
5.455000000
 20
-5.982000000
 30
0.000000000
 11
5.571000000
 21
-5.835000000
 31
0.000000000
  0
LINE
  5
A50
330
A02
100
AcDbEntity
  8
Polyline
100
AcDbLine
 10
5.571000000
 20
-5.835000000
 30
0.000000000
 11
5.698000000
 21
-5.698000000
 31
0.000000000
  0
LINE
  5
A51
330
A02
100
AcDbEntity
  8
Polyline
100
AcDbLine
 10
5.698000000
 20
-5.698000000
 30
0.000000000
 11
5.835000000
 21
-5.571000000
 31
0.000000000
  0
LINE
  5
A52
330
A02
100
AcDbEntity
  8
Polyline
100
AcDbLine
 10
5.835000000
 20
-5.571000000
 30
0.000000000
 11
5.982000000
 21
-5.455000000
 31
0.000000000
  0
LINE
  5
A53
330
A02
100
AcDbEntity
  8
Polyline
100
AcDbLine
 10
5.982000000
 20
-5.455000000
 30
0.000000000
 11
6.138000000
 21
-5.351000000
 31
0.000000000
  0
LINE
  5
A54
330
A02
100
AcDbEntity
  8
Polyline
100
AcDbLine
 10
6.138000000
 20
-5.351000000
 30
0.000000000
 11
6.301000000
 21
-5.260000000
 31
0.000000000
  0
LINE
  5
A55
330
A02
100
AcDbEntity
  8
Polyline
100
AcDbLine
 10
6.301000000
 20
-5.260000000
 30
0.000000000
 11
6.470000000
 21
-5.182000000
 31
0.000000000
  0
LINE
  5
A56
330
A02
100
AcDbEntity
  8
Polyline
100
AcDbLine
 10
6.470000000
 20
-5.182000000
 30
0.000000000
 11
6.646000000
 21
-5.117000000
 31
0.000000000
  0
LINE
  5
A57
330
A02
100
AcDbEntity
  8
Polyline
100
AcDbLine
 10
6.646000000
 20
-5.117000000
 30
0.000000000
 11
6.826000000
 21
-5.066000000
 31
0.000000000
  0
LINE
  5
A58
330
A02
100
AcDbEntity
  8
Polyline
100
AcDbLine
 10
6.826000000
 20
-5.066000000
 30
0.000000000
 11
7.009000000
 21
-5.030000000
 31
0.000000000
  0
LINE
  5
A59
330
A02
100
AcDbEntity
  8
Polyline
100
AcDbLine
 10
7.009000000
 20
-5.030000000
 30
0.000000000
 11
7.195000000
 21
-5.008000000
 31
0.000000000
  0
LINE
  5
A5A
330
A02
100
AcDbEntity
  8
Polyline
100
AcDbLine
 10
7.195000000
 20
-5.008000000
 30
0.000000000
 11
7.382000000
 21
-5.000000000
 31
0.000000000
  0
LINE
  5
A5B
330
A02
100
AcDbEntity
  8
Polyline
100
AcDbLine
 10
7.382000000
 20
-5.000000000
 30
0.000000000
 11
326.470000000
 21
-5.001000000
 31
0.000000000
  0
LINE
  5
A5C
330
A02
100
AcDbEntity
  8
Polyline001
100
AcDbLine
 10
326.146000000
 20
-111.159000000
 30
0.000000000
 11
325.853000000
 21
-111.308000000
 31
0.000000000
  0
LINE
  5
A5D
330
A02
100
AcDbEntity
  8
Polyline001
100
AcDbLine
 10
325.853000000
 20
-111.308000000
 30
0.000000000
 11
325.621000000
 21
-111.541000000
 31
0.000000000
  0
LINE
  5
A5E
330
A02
100
AcDbEntity
  8
Polyline001
100
AcDbLine
 10
325.621000000
 20
-111.541000000
 30
0.000000000
 11
325.472000000
 21
-111.833000000
 31
0.000000000
  0
LINE
  5
A5F
330
A02
100
AcDbEntity
  8
Polyline001
100
AcDbLine
 10
325.472000000
 20
-111.833000000
 30
0.000000000
 11
325.420000000
 21
-112.158000000
 31
0.000000000
  0
LINE
  5
A60
330
A02
100
AcDbEntity
  8
Polyline001
100
AcDbLine
 10
325.420000000
 20
-112.158000000
 30
0.000000000
 11
325.472000000
 21
-112.482000000
 31
0.000000000
  0
LINE
  5
A61
330
A02
100
AcDbEntity
  8
Polyline001
100
AcDbLine
 10
325.472000000
 20
-112.482000000
 30
0.000000000
 11
325.621000000
 21
-112.775000000
 31
0.000000000
  0
LINE
  5
A62
330
A02
100
AcDbEntity
  8
Polyline001
100
AcDbLine
 10
325.621000000
 20
-112.775000000
 30
0.000000000
 11
325.853000000
 21
-113.007000000
 31
0.000000000
  0
LINE
  5
A63
330
A02
100
AcDbEntity
  8
Polyline001
100
AcDbLine
 10
325.853000000
 20
-113.007000000
 30
0.000000000
 11
326.146000000
 21
-113.156000000
 31
0.000000000
  0
LINE
  5
A64
330
A02
100
AcDbEntity
  8
Polyline001
100
AcDbLine
 10
326.146000000
 20
-113.156000000
 30
0.000000000
 11
326.470000000
 21
-113.208000000
 31
0.000000000
  0
LINE
  5
A65
330
A02
100
AcDbEntity
  8
Polyline001
100
AcDbLine
 10
326.470000000
 20
-113.208000000
 30
0.000000000
 11
326.795000000
 21
-113.156000000
 31
0.000000000
  0
LINE
  5
A66
330
A02
100
AcDbEntity
  8
Polyline001
100
AcDbLine
 10
326.795000000
 20
-113.156000000
 30
0.000000000
 11
327.087000000
 21
-113.007000000
 31
0.000000000
  0
LINE
  5
A67
330
A02
100
AcDbEntity
  8
Polyline001
100
AcDbLine
 10
327.087000000
 20
-113.007000000
 30
0.000000000
 11
327.320000000
 21
-112.775000000
 31
0.000000000
  0
LINE
  5
A68
330
A02
100
AcDbEntity
  8
Polyline001
100
AcDbLine
 10
327.320000000
 20
-112.775000000
 30
0.000000000
 11
327.469000000
 21
-112.482000000
 31
0.000000000
  0
LINE
  5
A69
330
A02
100
AcDbEntity
  8
Polyline001
100
AcDbLine
 10
327.469000000
 20
-112.482000000
 30
0.000000000
 11
327.520000000
 21
-112.158000000
 31
0.000000000
  0
LINE
  5
A6A
330
A02
100
AcDbEntity
  8
Polyline001
100
AcDbLine
 10
327.520000000
 20
-112.158000000
 30
0.000000000
 11
327.469000000
 21
-111.833000000
 31
0.000000000
  0
LINE
  5
A6B
330
A02
100
AcDbEntity
  8
Polyline001
100
AcDbLine
 10
327.469000000
 20
-111.833000000
 30
0.000000000
 11
327.320000000
 21
-111.541000000
 31
0.000000000
  0
LINE
  5
A6C
330
A02
100
AcDbEntity
  8
Polyline001
100
AcDbLine
 10
327.320000000
 20
-111.541000000
 30
0.000000000
 11
327.087000000
 21
-111.308000000
 31
0.000000000
  0
LINE
  5
A6D
330
A02
100
AcDbEntity
  8
Polyline001
100
AcDbLine
 10
327.087000000
 20
-111.308000000
 30
0.000000000
 11
326.795000000
 21
-111.159000000
 31
0.000000000
  0
LINE
  5
A6E
330
A02
100
AcDbEntity
  8
Polyline001
100
AcDbLine
 10
326.795000000
 20
-111.159000000
 30
0.000000000
 11
326.470000000
 21
-111.108000000
 31
0.000000000
  0
LINE
  5
A6F
330
A02
100
AcDbEntity
  8
Polyline001
100
AcDbLine
 10
326.470000000
 20
-111.108000000
 30
0.000000000
 11
326.146000000
 21
-111.159000000
 31
0.000000000
  0
LINE
  5
A70
330
A02
100
AcDbEntity
  8
Polyline002
100
AcDbLine
 10
219.783000000
 20
-111.159000000
 30
0.000000000
 11
219.490000000
 21
-111.308000000
 31
0.000000000
  0
LINE
  5
A71
330
A02
100
AcDbEntity
  8
Polyline002
100
AcDbLine
 10
219.490000000
 20
-111.308000000
 30
0.000000000
 11
219.258000000
 21
-111.541000000
 31
0.000000000
  0
LINE
  5
A72
330
A02
100
AcDbEntity
  8
Polyline002
100
AcDbLine
 10
219.258000000
 20
-111.541000000
 30
0.000000000
 11
219.109000000
 21
-111.833000000
 31
0.000000000
  0
LINE
  5
A73
330
A02
100
AcDbEntity
  8
Polyline002
100
AcDbLine
 10
219.109000000
 20
-111.833000000
 30
0.000000000
 11
219.057000000
 21
-112.158000000
 31
0.000000000
  0
LINE
  5
A74
330
A02
100
AcDbEntity
  8
Polyline002
100
AcDbLine
 10
219.057000000
 20
-112.158000000
 30
0.000000000
 11
219.109000000
 21
-112.482000000
 31
0.000000000
  0
LINE
  5
A75
330
A02
100
AcDbEntity
  8
Polyline002
100
AcDbLine
 10
219.109000000
 20
-112.482000000
 30
0.000000000
 11
219.258000000
 21
-112.775000000
 31
0.000000000
  0
LINE
  5
A76
330
A02
100
AcDbEntity
  8
Polyline002
100
AcDbLine
 10
219.258000000
 20
-112.775000000
 30
0.000000000
 11
219.490000000
 21
-113.007000000
 31
0.000000000
  0
LINE
  5
A77
330
A02
100
AcDbEntity
  8
Polyline002
100
AcDbLine
 10
219.490000000
 20
-113.007000000
 30
0.000000000
 11
219.783000000
 21
-113.156000000
 31
0.000000000
  0
LINE
  5
A78
330
A02
100
AcDbEntity
  8
Polyline002
100
AcDbLine
 10
219.783000000
 20
-113.156000000
 30
0.000000000
 11
220.107000000
 21
-113.208000000
 31
0.000000000
  0
LINE
  5
A79
330
A02
100
AcDbEntity
  8
Polyline002
100
AcDbLine
 10
220.107000000
 20
-113.208000000
 30
0.000000000
 11
220.432000000
 21
-113.156000000
 31
0.000000000
  0
LINE
  5
A7A
330
A02
100
AcDbEntity
  8
Polyline002
100
AcDbLine
 10
220.432000000
 20
-113.156000000
 30
0.000000000
 11
220.725000000
 21
-113.007000000
 31
0.000000000
  0
LINE
  5
A7B
330
A02
100
AcDbEntity
  8
Polyline002
100
AcDbLine
 10
220.725000000
 20
-113.007000000
 30
0.000000000
 11
220.957000000
 21
-112.775000000
 31
0.000000000
  0
LINE
  5
A7C
330
A02
100
AcDbEntity
  8
Polyline002
100
AcDbLine
 10
220.957000000
 20
-112.775000000
 30
0.000000000
 11
221.106000000
 21
-112.482000000
 31
0.000000000
  0
LINE
  5
A7D
330
A02
100
AcDbEntity
  8
Polyline002
100
AcDbLine
 10
221.106000000
 20
-112.482000000
 30
0.000000000
 11
221.157000000
 21
-112.158000000
 31
0.000000000
  0
LINE
  5
A7E
330
A02
100
AcDbEntity
  8
Polyline002
100
AcDbLine
 10
221.157000000
 20
-112.158000000
 30
0.000000000
 11
221.106000000
 21
-111.833000000
 31
0.000000000
  0
LINE
  5
A7F
330
A02
100
AcDbEntity
  8
Polyline002
100
AcDbLine
 10
221.106000000
 20
-111.833000000
 30
0.000000000
 11
220.957000000
 21
-111.541000000
 31
0.000000000
  0
LINE
  5
A80
330
A02
100
AcDbEntity
  8
Polyline002
100
AcDbLine
 10
220.957000000
 20
-111.541000000
 30
0.000000000
 11
220.725000000
 21
-111.308000000
 31
0.000000000
  0
LINE
  5
A81
330
A02
100
AcDbEntity
  8
Polyline002
100
AcDbLine
 10
220.725000000
 20
-111.308000000
 30
0.000000000
 11
220.432000000
 21
-111.159000000
 31
0.000000000
  0
LINE
  5
A82
330
A02
100
AcDbEntity
  8
Polyline002
100
AcDbLine
 10
220.432000000
 20
-111.159000000
 30
0.000000000
 11
220.107000000
 21
-111.108000000
 31
0.000000000
  0
LINE
  5
A83
330
A02
100
AcDbEntity
  8
Polyline002
100
AcDbLine
 10
220.107000000
 20
-111.108000000
 30
0.000000000
 11
219.783000000
 21
-111.159000000
 31
0.000000000
  0
LINE
  5
A84
330
A02
100
AcDbEntity
  8
Polyline003
100
AcDbLine
 10
113.420000000
 20
-111.159000000
 30
0.000000000
 11
113.127000000
 21
-111.308000000
 31
0.000000000
  0
LINE
  5
A85
330
A02
100
AcDbEntity
  8
Polyline003
100
AcDbLine
 10
113.127000000
 20
-111.308000000
 30
0.000000000
 11
112.895000000
 21
-111.541000000
 31
0.000000000
  0
LINE
  5
A86
330
A02
100
AcDbEntity
  8
Polyline003
100
AcDbLine
 10
112.895000000
 20
-111.541000000
 30
0.000000000
 11
112.746000000
 21
-111.833000000
 31
0.000000000
  0
LINE
  5
A87
330
A02
100
AcDbEntity
  8
Polyline003
100
AcDbLine
 10
112.746000000
 20
-111.833000000
 30
0.000000000
 11
112.695000000
 21
-112.158000000
 31
0.000000000
  0
LINE
  5
A88
330
A02
100
AcDbEntity
  8
Polyline003
100
AcDbLine
 10
112.695000000
 20
-112.158000000
 30
0.000000000
 11
112.746000000
 21
-112.482000000
 31
0.000000000
  0
LINE
  5
A89
330
A02
100
AcDbEntity
  8
Polyline003
100
AcDbLine
 10
112.746000000
 20
-112.482000000
 30
0.000000000
 11
112.895000000
 21
-112.775000000
 31
0.000000000
  0
LINE
  5
A8A
330
A02
100
AcDbEntity
  8
Polyline003
100
AcDbLine
 10
112.895000000
 20
-112.775000000
 30
0.000000000
 11
113.127000000
 21
-113.007000000
 31
0.000000000
  0
LINE
  5
A8B
330
A02
100
AcDbEntity
  8
Polyline003
100
AcDbLine
 10
113.127000000
 20
-113.007000000
 30
0.000000000
 11
113.420000000
 21
-113.156000000
 31
0.000000000
  0
LINE
  5
A8C
330
A02
100
AcDbEntity
  8
Polyline003
100
AcDbLine
 10
113.420000000
 20
-113.156000000
 30
0.000000000
 11
113.745000000
 21
-113.208000000
 31
0.000000000
  0
LINE
  5
A8D
330
A02
100
AcDbEntity
  8
Polyline003
100
AcDbLine
 10
113.745000000
 20
-113.208000000
 30
0.000000000
 11
114.069000000
 21
-113.156000000
 31
0.000000000
  0
LINE
  5
A8E
330
A02
100
AcDbEntity
  8
Polyline003
100
AcDbLine
 10
114.069000000
 20
-113.156000000
 30
0.000000000
 11
114.362000000
 21
-113.007000000
 31
0.000000000
  0
LINE
  5
A8F
330
A02
100
AcDbEntity
  8
Polyline003
100
AcDbLine
 10
114.362000000
 20
-113.007000000
 30
0.000000000
 11
114.594000000
 21
-112.775000000
 31
0.000000000
  0
LINE
  5
A90
330
A02
100
AcDbEntity
  8
Polyline003
100
AcDbLine
 10
114.594000000
 20
-112.775000000
 30
0.000000000
 11
114.743000000
 21
-112.482000000
 31
0.000000000
  0
LINE
  5
A91
330
A02
100
AcDbEntity
  8
Polyline003
100
AcDbLine
 10
114.743000000
 20
-112.482000000
 30
0.000000000
 11
114.795000000
 21
-112.158000000
 31
0.000000000
  0
LINE
  5
A92
330
A02
100
AcDbEntity
  8
Polyline003
100
AcDbLine
 10
114.795000000
 20
-112.158000000
 30
0.000000000
 11
114.743000000
 21
-111.833000000
 31
0.000000000
  0
LINE
  5
A93
330
A02
100
AcDbEntity
  8
Polyline003
100
AcDbLine
 10
114.743000000
 20
-111.833000000
 30
0.000000000
 11
114.594000000
 21
-111.541000000
 31
0.000000000
  0
LINE
  5
A94
330
A02
100
AcDbEntity
  8
Polyline003
100
AcDbLine
 10
114.594000000
 20
-111.541000000
 30
0.000000000
 11
114.362000000
 21
-111.308000000
 31
0.000000000
  0
LINE
  5
A95
330
A02
100
AcDbEntity
  8
Polyline003
100
AcDbLine
 10
114.362000000
 20
-111.308000000
 30
0.000000000
 11
114.069000000
 21
-111.159000000
 31
0.000000000
  0
LINE
  5
A96
330
A02
100
AcDbEntity
  8
Polyline003
100
AcDbLine
 10
114.069000000
 20
-111.159000000
 30
0.000000000
 11
113.745000000
 21
-111.108000000
 31
0.000000000
  0
LINE
  5
A97
330
A02
100
AcDbEntity
  8
Polyline003
100
AcDbLine
 10
113.745000000
 20
-111.108000000
 30
0.000000000
 11
113.420000000
 21
-111.159000000
 31
0.000000000
  0
LINE
  5
A98
330
A02
100
AcDbEntity
  8
Polyline004
100
AcDbLine
 10
7.057000000
 20
-111.159000000
 30
0.000000000
 11
6.765000000
 21
-111.308000000
 31
0.000000000
  0
LINE
  5
A99
330
A02
100
AcDbEntity
  8
Polyline004
100
AcDbLine
 10
6.765000000
 20
-111.308000000
 30
0.000000000
 11
6.532000000
 21
-111.541000000
 31
0.000000000
  0
LINE
  5
A9A
330
A02
100
AcDbEntity
  8
Polyline004
100
AcDbLine
 10
6.532000000
 20
-111.541000000
 30
0.000000000
 11
6.383000000
 21
-111.833000000
 31
0.000000000
  0
LINE
  5
A9B
330
A02
100
AcDbEntity
  8
Polyline004
100
AcDbLine
 10
6.383000000
 20
-111.833000000
 30
0.000000000
 11
6.332000000
 21
-112.158000000
 31
0.000000000
  0
LINE
  5
A9C
330
A02
100
AcDbEntity
  8
Polyline004
100
AcDbLine
 10
6.332000000
 20
-112.158000000
 30
0.000000000
 11
6.383000000
 21
-112.482000000
 31
0.000000000
  0
LINE
  5
A9D
330
A02
100
AcDbEntity
  8
Polyline004
100
AcDbLine
 10
6.383000000
 20
-112.482000000
 30
0.000000000
 11
6.532000000
 21
-112.775000000
 31
0.000000000
  0
LINE
  5
A9E
330
A02
100
AcDbEntity
  8
Polyline004
100
AcDbLine
 10
6.532000000
 20
-112.775000000
 30
0.000000000
 11
6.765000000
 21
-113.007000000
 31
0.000000000
  0
LINE
  5
A9F
330
A02
100
AcDbEntity
  8
Polyline004
100
AcDbLine
 10
6.765000000
 20
-113.007000000
 30
0.000000000
 11
7.057000000
 21
-113.156000000
 31
0.000000000
  0
LINE
  5
AA0
330
A02
100
AcDbEntity
  8
Polyline004
100
AcDbLine
 10
7.057000000
 20
-113.156000000
 30
0.000000000
 11
7.382000000
 21
-113.208000000
 31
0.000000000
  0
LINE
  5
AA1
330
A02
100
AcDbEntity
  8
Polyline004
100
AcDbLine
 10
7.382000000
 20
-113.208000000
 30
0.000000000
 11
7.706000000
 21
-113.156000000
 31
0.000000000
  0
LINE
  5
AA2
330
A02
100
AcDbEntity
  8
Polyline004
100
AcDbLine
 10
7.706000000
 20
-113.156000000
 30
0.000000000
 11
7.999000000
 21
-113.007000000
 31
0.000000000
  0
LINE
  5
AA3
330
A02
100
AcDbEntity
  8
Polyline004
100
AcDbLine
 10
7.999000000
 20
-113.007000000
 30
0.000000000
 11
8.231000000
 21
-112.775000000
 31
0.000000000
  0
LINE
  5
AA4
330
A02
100
AcDbEntity
  8
Polyline004
100
AcDbLine
 10
8.231000000
 20
-112.775000000
 30
0.000000000
 11
8.380000000
 21
-112.482000000
 31
0.000000000
  0
LINE
  5
AA5
330
A02
100
AcDbEntity
  8
Polyline004
100
AcDbLine
 10
8.380000000
 20
-112.482000000
 30
0.000000000
 11
8.432000000
 21
-112.158000000
 31
0.000000000
  0
LINE
  5
AA6
330
A02
100
AcDbEntity
  8
Polyline004
100
AcDbLine
 10
8.432000000
 20
-112.158000000
 30
0.000000000
 11
8.380000000
 21
-111.833000000
 31
0.000000000
  0
LINE
  5
AA7
330
A02
100
AcDbEntity
  8
Polyline004
100
AcDbLine
 10
8.380000000
 20
-111.833000000
 30
0.000000000
 11
8.231000000
 21
-111.541000000
 31
0.000000000
  0
LINE
  5
AA8
330
A02
100
AcDbEntity
  8
Polyline004
100
AcDbLine
 10
8.231000000
 20
-111.541000000
 30
0.000000000
 11
7.999000000
 21
-111.308000000
 31
0.000000000
  0
LINE
  5
AA9
330
A02
100
AcDbEntity
  8
Polyline004
100
AcDbLine
 10
7.999000000
 20
-111.308000000
 30
0.000000000
 11
7.706000000
 21
-111.159000000
 31
0.000000000
  0
LINE
  5
AAA
330
A02
100
AcDbEntity
  8
Polyline004
100
AcDbLine
 10
7.706000000
 20
-111.159000000
 30
0.000000000
 11
7.382000000
 21
-111.108000000
 31
0.000000000
  0
LINE
  5
AAB
330
A02
100
AcDbEntity
  8
Polyline004
100
AcDbLine
 10
7.382000000
 20
-111.108000000
 30
0.000000000
 11
7.057000000
 21
-111.159000000
 31
0.000000000
  0
LINE
  5
AAC
330
A02
100
AcDbEntity
  8
Polyline005
100
AcDbLine
 10
264.701000000
 20
-93.251000000
 30
0.000000000
 11
264.701000000
 21
-107.251000000
 31
0.000000000
  0
LINE
  5
AAD
330
A02
100
AcDbEntity
  8
Polyline005
100
AcDbLine
 10
264.701000000
 20
-107.251000000
 30
0.000000000
 11
278.701000000
 21
-107.251000000
 31
0.000000000
  0
LINE
  5
AAE
330
A02
100
AcDbEntity
  8
Polyline005
100
AcDbLine
 10
278.701000000
 20
-107.251000000
 30
0.000000000
 11
278.701000000
 21
-93.251000000
 31
0.000000000
  0
LINE
  5
AAF
330
A02
100
AcDbEntity
  8
Polyline005
100
AcDbLine
 10
278.701000000
 20
-93.251000000
 30
0.000000000
 11
264.701000000
 21
-93.251000000
 31
0.000000000
  0
LINE
  5
AB0
330
A02
100
AcDbEntity
  8
Polyline006
100
AcDbLine
 10
283.751000000
 20
-93.251000000
 30
0.000000000
 11
283.751000000
 21
-107.251000000
 31
0.000000000
  0
LINE
  5
AB1
330
A02
100
AcDbEntity
  8
Polyline006
100
AcDbLine
 10
283.751000000
 20
-107.251000000
 30
0.000000000
 11
297.751000000
 21
-107.251000000
 31
0.000000000
  0
LINE
  5
AB2
330
A02
100
AcDbEntity
  8
Polyline006
100
AcDbLine
 10
297.751000000
 20
-107.251000000
 30
0.000000000
 11
297.751000000
 21
-93.251000000
 31
0.000000000
  0
LINE
  5
AB3
330
A02
100
AcDbEntity
  8
Polyline006
100
AcDbLine
 10
297.751000000
 20
-93.251000000
 30
0.000000000
 11
283.751000000
 21
-93.251000000
 31
0.000000000
  0
LINE
  5
AB4
330
A02
100
AcDbEntity
  8
Polyline007
100
AcDbLine
 10
302.801000000
 20
-93.251000000
 30
0.000000000
 11
302.801000000
 21
-107.251000000
 31
0.000000000
  0
LINE
  5
AB5
330
A02
100
AcDbEntity
  8
Polyline007
100
AcDbLine
 10
302.801000000
 20
-107.251000000
 30
0.000000000
 11
316.801000000
 21
-107.251000000
 31
0.000000000
  0
LINE
  5
AB6
330
A02
100
AcDbEntity
  8
Polyline007
100
AcDbLine
 10
316.801000000
 20
-107.251000000
 30
0.000000000
 11
316.801000000
 21
-93.251000000
 31
0.000000000
  0
LINE
  5
AB7
330
A02
100
AcDbEntity
  8
Polyline007
100
AcDbLine
 10
316.801000000
 20
-93.251000000
 30
0.000000000
 11
302.801000000
 21
-93.251000000
 31
0.000000000
  0
LINE
  5
AB8
330
A02
100
AcDbEntity
  8
Polyline008
100
AcDbLine
 10
14.669000000
 20
-88.488000000
 30
0.000000000
 11
14.669000000
 21
-102.488000000
 31
0.000000000
  0
LINE
  5
AB9
330
A02
100
AcDbEntity
  8
Polyline008
100
AcDbLine
 10
14.669000000
 20
-102.488000000
 30
0.000000000
 11
28.669000000
 21
-102.488000000
 31
0.000000000
  0
LINE
  5
ABA
330
A02
100
AcDbEntity
  8
Polyline008
100
AcDbLine
 10
28.669000000
 20
-102.488000000
 30
0.000000000
 11
28.669000000
 21
-88.488000000
 31
0.000000000
  0
LINE
  5
ABB
330
A02
100
AcDbEntity
  8
Polyline008
100
AcDbLine
 10
28.669000000
 20
-88.488000000
 30
0.000000000
 11
14.669000000
 21
-88.488000000
 31
0.000000000
  0
LINE
  5
ABC
330
A02
100
AcDbEntity
  8
Polyline009
100
AcDbLine
 10
38.482000000
 20
-88.488000000
 30
0.000000000
 11
38.482000000
 21
-102.488000000
 31
0.000000000
  0
LINE
  5
ABD
330
A02
100
AcDbEntity
  8
Polyline009
100
AcDbLine
 10
38.482000000
 20
-102.488000000
 30
0.000000000
 11
52.482000000
 21
-102.488000000
 31
0.000000000
  0
LINE
  5
ABE
330
A02
100
AcDbEntity
  8
Polyline009
100
AcDbLine
 10
52.482000000
 20
-102.488000000
 30
0.000000000
 11
52.482000000
 21
-88.488000000
 31
0.000000000
  0
LINE
  5
ABF
330
A02
100
AcDbEntity
  8
Polyline009
100
AcDbLine
 10
52.482000000
 20
-88.488000000
 30
0.000000000
 11
38.482000000
 21
-88.488000000
 31
0.000000000
  0
LINE
  5
AC0
330
A02
100
AcDbEntity
  8
Polyline010
100
AcDbLine
 10
62.294000000
 20
-88.488000000
 30
0.000000000
 11
62.294000000
 21
-102.488000000
 31
0.000000000
  0
LINE
  5
AC1
330
A02
100
AcDbEntity
  8
Polyline010
100
AcDbLine
 10
62.294000000
 20
-102.488000000
 30
0.000000000
 11
76.294000000
 21
-102.488000000
 31
0.000000000
  0
LINE
  5
AC2
330
A02
100
AcDbEntity
  8
Polyline010
100
AcDbLine
 10
76.294000000
 20
-102.488000000
 30
0.000000000
 11
76.294000000
 21
-88.488000000
 31
0.000000000
  0
LINE
  5
AC3
330
A02
100
AcDbEntity
  8
Polyline010
100
AcDbLine
 10
76.294000000
 20
-88.488000000
 30
0.000000000
 11
62.294000000
 21
-88.488000000
 31
0.000000000
  0
LINE
  5
AC4
330
A02
100
AcDbEntity
  8
Polyline011
100
AcDbLine
 10
89.082000000
 20
-87.518000000
 30
0.000000000
 11
89.082000000
 21
-88.718000000
 31
0.000000000
  0
LINE
  5
AC5
330
A02
100
AcDbEntity
  8
Polyline011
100
AcDbLine
 10
89.082000000
 20
-88.718000000
 30
0.000000000
 11
87.357000000
 21
-88.718000000
 31
0.000000000
  0
LINE
  5
AC6
330
A02
100
AcDbEntity
  8
Polyline011
100
AcDbLine
 10
87.357000000
 20
-88.718000000
 30
0.000000000
 11
87.357000000
 21
-94.988000000
 31
0.000000000
  0
LINE
  5
AC7
330
A02
100
AcDbEntity
  8
Polyline011
100
AcDbLine
 10
87.357000000
 20
-94.988000000
 30
0.000000000
 11
86.532000000
 21
-94.988000000
 31
0.000000000
  0
LINE
  5
AC8
330
A02
100
AcDbEntity
  8
Polyline011
100
AcDbLine
 10
86.532000000
 20
-94.988000000
 30
0.000000000
 11
86.532000000
 21
-97.788000000
 31
0.000000000
  0
LINE
  5
AC9
330
A02
100
AcDbEntity
  8
Polyline011
100
AcDbLine
 10
86.532000000
 20
-97.788000000
 30
0.000000000
 11
87.357000000
 21
-97.788000000
 31
0.000000000
  0
LINE
  5
ACA
330
A02
100
AcDbEntity
  8
Polyline011
100
AcDbLine
 10
87.357000000
 20
-97.788000000
 30
0.000000000
 11
87.357000000
 21
-101.018000000
 31
0.000000000
  0
LINE
  5
ACB
330
A02
100
AcDbEntity
  8
Polyline011
100
AcDbLine
 10
87.357000000
 20
-101.018000000
 30
0.000000000
 11
94.107000000
 21
-101.018000000
 31
0.000000000
  0
LINE
  5
ACC
330
A02
100
AcDbEntity
  8
Polyline011
100
AcDbLine
 10
94.107000000
 20
-101.018000000
 30
0.000000000
 11
94.107000000
 21
-97.788000000
 31
0.000000000
  0
LINE
  5
ACD
330
A02
100
AcDbEntity
  8
Polyline011
100
AcDbLine
 10
94.107000000
 20
-97.788000000
 30
0.000000000
 11
133.732000000
 21
-97.788000000
 31
0.000000000
  0
LINE
  5
ACE
330
A02
100
AcDbEntity
  8
Polyline011
100
AcDbLine
 10
133.732000000
 20
-97.788000000
 30
0.000000000
 11
133.732000000
 21
-102.488000000
 31
0.000000000
  0
LINE
  5
ACF
330
A02
100
AcDbEntity
  8
Polyline011
100
AcDbLine
 10
133.732000000
 20
-102.488000000
 30
0.000000000
 11
147.732000000
 21
-102.488000000
 31
0.000000000
  0
LINE
  5
AD0
330
A02
100
AcDbEntity
  8
Polyline011
100
AcDbLine
 10
147.732000000
 20
-102.488000000
 30
0.000000000
 11
147.732000000
 21
-97.788000000
 31
0.000000000
  0
LINE
  5
AD1
330
A02
100
AcDbEntity
  8
Polyline011
100
AcDbLine
 10
147.732000000
 20
-97.788000000
 30
0.000000000
 11
187.357000000
 21
-97.788000000
 31
0.000000000
  0
LINE
  5
AD2
330
A02
100
AcDbEntity
  8
Polyline011
100
AcDbLine
 10
187.357000000
 20
-97.788000000
 30
0.000000000
 11
187.357000000
 21
-101.018000000
 31
0.000000000
  0
LINE
  5
AD3
330
A02
100
AcDbEntity
  8
Polyline011
100
AcDbLine
 10
187.357000000
 20
-101.018000000
 30
0.000000000
 11
194.107000000
 21
-101.018000000
 31
0.000000000
  0
LINE
  5
AD4
330
A02
100
AcDbEntity
  8
Polyline011
100
AcDbLine
 10
194.107000000
 20
-101.018000000
 30
0.000000000
 11
194.107000000
 21
-97.788000000
 31
0.000000000
  0
LINE
  5
AD5
330
A02
100
AcDbEntity
  8
Polyline011
100
AcDbLine
 10
194.107000000
 20
-97.788000000
 30
0.000000000
 11
194.932000000
 21
-97.788000000
 31
0.000000000
  0
LINE
  5
AD6
330
A02
100
AcDbEntity
  8
Polyline011
100
AcDbLine
 10
194.932000000
 20
-97.788000000
 30
0.000000000
 11
194.932000000
 21
-94.988000000
 31
0.000000000
  0
LINE
  5
AD7
330
A02
100
AcDbEntity
  8
Polyline011
100
AcDbLine
 10
194.932000000
 20
-94.988000000
 30
0.000000000
 11
194.107000000
 21
-94.988000000
 31
0.000000000
  0
LINE
  5
AD8
330
A02
100
AcDbEntity
  8
Polyline011
100
AcDbLine
 10
194.107000000
 20
-94.988000000
 30
0.000000000
 11
194.107000000
 21
-88.718000000
 31
0.000000000
  0
LINE
  5
AD9
330
A02
100
AcDbEntity
  8
Polyline011
100
AcDbLine
 10
194.107000000
 20
-88.718000000
 30
0.000000000
 11
192.382000000
 21
-88.718000000
 31
0.000000000
  0
LINE
  5
ADA
330
A02
100
AcDbEntity
  8
Polyline011
100
AcDbLine
 10
192.382000000
 20
-88.718000000
 30
0.000000000
 11
192.382000000
 21
-87.518000000
 31
0.000000000
  0
LINE
  5
ADB
330
A02
100
AcDbEntity
  8
Polyline011
100
AcDbLine
 10
192.382000000
 20
-87.518000000
 30
0.000000000
 11
189.082000000
 21
-87.518000000
 31
0.000000000
  0
LINE
  5
ADC
330
A02
100
AcDbEntity
  8
Polyline011
100
AcDbLine
 10
189.082000000
 20
-87.518000000
 30
0.000000000
 11
189.082000000
 21
-88.718000000
 31
0.000000000
  0
LINE
  5
ADD
330
A02
100
AcDbEntity
  8
Polyline011
100
AcDbLine
 10
189.082000000
 20
-88.718000000
 30
0.000000000
 11
187.357000000
 21
-88.718000000
 31
0.000000000
  0
LINE
  5
ADE
330
A02
100
AcDbEntity
  8
Polyline011
100
AcDbLine
 10
187.357000000
 20
-88.718000000
 30
0.000000000
 11
187.357000000
 21
-93.188000000
 31
0.000000000
  0
LINE
  5
ADF
330
A02
100
AcDbEntity
  8
Polyline011
100
AcDbLine
 10
187.357000000
 20
-93.188000000
 30
0.000000000
 11
147.732000000
 21
-93.188000000
 31
0.000000000
  0
LINE
  5
AE0
330
A02
100
AcDbEntity
  8
Polyline011
100
AcDbLine
 10
147.732000000
 20
-93.188000000
 30
0.000000000
 11
147.732000000
 21
-88.488000000
 31
0.000000000
  0
LINE
  5
AE1
330
A02
100
AcDbEntity
  8
Polyline011
100
AcDbLine
 10
147.732000000
 20
-88.488000000
 30
0.000000000
 11
133.732000000
 21
-88.488000000
 31
0.000000000
  0
LINE
  5
AE2
330
A02
100
AcDbEntity
  8
Polyline011
100
AcDbLine
 10
133.732000000
 20
-88.488000000
 30
0.000000000
 11
133.732000000
 21
-93.188000000
 31
0.000000000
  0
LINE
  5
AE3
330
A02
100
AcDbEntity
  8
Polyline011
100
AcDbLine
 10
133.732000000
 20
-93.188000000
 30
0.000000000
 11
94.107000000
 21
-93.188000000
 31
0.000000000
  0
LINE
  5
AE4
330
A02
100
AcDbEntity
  8
Polyline011
100
AcDbLine
 10
94.107000000
 20
-93.188000000
 30
0.000000000
 11
94.107000000
 21
-88.718000000
 31
0.000000000
  0
LINE
  5
AE5
330
A02
100
AcDbEntity
  8
Polyline011
100
AcDbLine
 10
94.107000000
 20
-88.718000000
 30
0.000000000
 11
92.382000000
 21
-88.718000000
 31
0.000000000
  0
LINE
  5
AE6
330
A02
100
AcDbEntity
  8
Polyline011
100
AcDbLine
 10
92.382000000
 20
-88.718000000
 30
0.000000000
 11
92.382000000
 21
-87.518000000
 31
0.000000000
  0
LINE
  5
AE7
330
A02
100
AcDbEntity
  8
Polyline011
100
AcDbLine
 10
92.382000000
 20
-87.518000000
 30
0.000000000
 11
89.082000000
 21
-87.518000000
 31
0.000000000
  0
LINE
  5
AE8
330
A02
100
AcDbEntity
  8
Polyline012
100
AcDbLine
 10
202.788000000
 20
-88.488000000
 30
0.000000000
 11
202.788000000
 21
-102.488000000
 31
0.000000000
  0
LINE
  5
AE9
330
A02
100
AcDbEntity
  8
Polyline012
100
AcDbLine
 10
202.788000000
 20
-102.488000000
 30
0.000000000
 11
216.788000000
 21
-102.488000000
 31
0.000000000
  0
LINE
  5
AEA
330
A02
100
AcDbEntity
  8
Polyline012
100
AcDbLine
 10
216.788000000
 20
-102.488000000
 30
0.000000000
 11
216.788000000
 21
-88.488000000
 31
0.000000000
  0
LINE
  5
AEB
330
A02
100
AcDbEntity
  8
Polyline012
100
AcDbLine
 10
216.788000000
 20
-88.488000000
 30
0.000000000
 11
202.788000000
 21
-88.488000000
 31
0.000000000
  0
LINE
  5
AEC
330
A02
100
AcDbEntity
  8
Polyline013
100
AcDbLine
 10
221.838000000
 20
-88.488000000
 30
0.000000000
 11
221.838000000
 21
-102.488000000
 31
0.000000000
  0
LINE
  5
AED
330
A02
100
AcDbEntity
  8
Polyline013
100
AcDbLine
 10
221.838000000
 20
-102.488000000
 30
0.000000000
 11
235.838000000
 21
-102.488000000
 31
0.000000000
  0
LINE
  5
AEE
330
A02
100
AcDbEntity
  8
Polyline013
100
AcDbLine
 10
235.838000000
 20
-102.488000000
 30
0.000000000
 11
235.838000000
 21
-88.488000000
 31
0.000000000
  0
LINE
  5
AEF
330
A02
100
AcDbEntity
  8
Polyline013
100
AcDbLine
 10
235.838000000
 20
-88.488000000
 30
0.000000000
 11
221.838000000
 21
-88.488000000
 31
0.000000000
  0
LINE
  5
AF0
330
A02
100
AcDbEntity
  8
Polyline014
100
AcDbLine
 10
240.888000000
 20
-88.488000000
 30
0.000000000
 11
240.888000000
 21
-102.488000000
 31
0.000000000
  0
LINE
  5
AF1
330
A02
100
AcDbEntity
  8
Polyline014
100
AcDbLine
 10
240.888000000
 20
-102.488000000
 30
0.000000000
 11
254.888000000
 21
-102.488000000
 31
0.000000000
  0
LINE
  5
AF2
330
A02
100
AcDbEntity
  8
Polyline014
100
AcDbLine
 10
254.888000000
 20
-102.488000000
 30
0.000000000
 11
254.888000000
 21
-88.488000000
 31
0.000000000
  0
LINE
  5
AF3
330
A02
100
AcDbEntity
  8
Polyline014
100
AcDbLine
 10
254.888000000
 20
-88.488000000
 30
0.000000000
 11
240.888000000
 21
-88.488000000
 31
0.000000000
  0
LINE
  5
AF4
330
A02
100
AcDbEntity
  8
Polyline015
100
AcDbLine
 10
283.751000000
 20
-74.201000000
 30
0.000000000
 11
283.751000000
 21
-88.201000000
 31
0.000000000
  0
LINE
  5
AF5
330
A02
100
AcDbEntity
  8
Polyline015
100
AcDbLine
 10
283.751000000
 20
-88.201000000
 30
0.000000000
 11
297.751000000
 21
-88.201000000
 31
0.000000000
  0
LINE
  5
AF6
330
A02
100
AcDbEntity
  8
Polyline015
100
AcDbLine
 10
297.751000000
 20
-88.201000000
 30
0.000000000
 11
297.751000000
 21
-74.201000000
 31
0.000000000
  0
LINE
  5
AF7
330
A02
100
AcDbEntity
  8
Polyline015
100
AcDbLine
 10
297.751000000
 20
-74.201000000
 30
0.000000000
 11
283.751000000
 21
-74.201000000
 31
0.000000000
  0
LINE
  5
AF8
330
A02
100
AcDbEntity
  8
Polyline016
100
AcDbLine
 10
24.194000000
 20
-69.438000000
 30
0.000000000
 11
24.194000000
 21
-74.138000000
 31
0.000000000
  0
LINE
  5
AF9
330
A02
100
AcDbEntity
  8
Polyline016
100
AcDbLine
 10
24.194000000
 20
-74.138000000
 30
0.000000000
 11
22.669000000
 21
-74.138000000
 31
0.000000000
  0
LINE
  5
AFA
330
A02
100
AcDbEntity
  8
Polyline016
100
AcDbLine
 10
22.669000000
 20
-74.138000000
 30
0.000000000
 11
22.669000000
 21
-70.908000000
 31
0.000000000
  0
LINE
  5
AFB
330
A02
100
AcDbEntity
  8
Polyline016
100
AcDbLine
 10
22.669000000
 20
-70.908000000
 30
0.000000000
 11
15.919000000
 21
-70.908000000
 31
0.000000000
  0
LINE
  5
AFC
330
A02
100
AcDbEntity
  8
Polyline016
100
AcDbLine
 10
15.919000000
 20
-70.908000000
 30
0.000000000
 11
15.919000000
 21
-74.138000000
 31
0.000000000
  0
LINE
  5
AFD
330
A02
100
AcDbEntity
  8
Polyline016
100
AcDbLine
 10
15.919000000
 20
-74.138000000
 30
0.000000000
 11
15.094000000
 21
-74.138000000
 31
0.000000000
  0
LINE
  5
AFE
330
A02
100
AcDbEntity
  8
Polyline016
100
AcDbLine
 10
15.094000000
 20
-74.138000000
 30
0.000000000
 11
15.094000000
 21
-76.938000000
 31
0.000000000
  0
LINE
  5
AFF
330
A02
100
AcDbEntity
  8
Polyline016
100
AcDbLine
 10
15.094000000
 20
-76.938000000
 30
0.000000000
 11
15.919000000
 21
-76.938000000
 31
0.000000000
  0
LINE
  5
B00
330
A02
100
AcDbEntity
  8
Polyline016
100
AcDbLine
 10
15.919000000
 20
-76.938000000
 30
0.000000000
 11
15.919000000
 21
-83.208000000
 31
0.000000000
  0
LINE
  5
B01
330
A02
100
AcDbEntity
  8
Polyline016
100
AcDbLine
 10
15.919000000
 20
-83.208000000
 30
0.000000000
 11
17.644000000
 21
-83.208000000
 31
0.000000000
  0
LINE
  5
B02
330
A02
100
AcDbEntity
  8
Polyline016
100
AcDbLine
 10
17.644000000
 20
-83.208000000
 30
0.000000000
 11
17.644000000
 21
-84.408000000
 31
0.000000000
  0
LINE
  5
B03
330
A02
100
AcDbEntity
  8
Polyline016
100
AcDbLine
 10
17.644000000
 20
-84.408000000
 30
0.000000000
 11
20.944000000
 21
-84.408000000
 31
0.000000000
  0
LINE
  5
B04
330
A02
100
AcDbEntity
  8
Polyline016
100
AcDbLine
 10
20.944000000
 20
-84.408000000
 30
0.000000000
 11
20.944000000
 21
-83.208000000
 31
0.000000000
  0
LINE
  5
B05
330
A02
100
AcDbEntity
  8
Polyline016
100
AcDbLine
 10
20.944000000
 20
-83.208000000
 30
0.000000000
 11
22.669000000
 21
-83.208000000
 31
0.000000000
  0
LINE
  5
B06
330
A02
100
AcDbEntity
  8
Polyline016
100
AcDbLine
 10
22.669000000
 20
-83.208000000
 30
0.000000000
 11
22.669000000
 21
-78.738000000
 31
0.000000000
  0
LINE
  5
B07
330
A02
100
AcDbEntity
  8
Polyline016
100
AcDbLine
 10
22.669000000
 20
-78.738000000
 30
0.000000000
 11
24.194000000
 21
-78.738000000
 31
0.000000000
  0
LINE
  5
B08
330
A02
100
AcDbEntity
  8
Polyline016
100
AcDbLine
 10
24.194000000
 20
-78.738000000
 30
0.000000000
 11
24.194000000
 21
-83.438000000
 31
0.000000000
  0
LINE
  5
B09
330
A02
100
AcDbEntity
  8
Polyline016
100
AcDbLine
 10
24.194000000
 20
-83.438000000
 30
0.000000000
 11
38.194000000
 21
-83.438000000
 31
0.000000000
  0
LINE
  5
B0A
330
A02
100
AcDbEntity
  8
Polyline016
100
AcDbLine
 10
38.194000000
 20
-83.438000000
 30
0.000000000
 11
38.194000000
 21
-78.738000000
 31
0.000000000
  0
LINE
  5
B0B
330
A02
100
AcDbEntity
  8
Polyline016
100
AcDbLine
 10
38.194000000
 20
-78.738000000
 30
0.000000000
 11
39.719000000
 21
-78.738000000
 31
0.000000000
  0
LINE
  5
B0C
330
A02
100
AcDbEntity
  8
Polyline016
100
AcDbLine
 10
39.719000000
 20
-78.738000000
 30
0.000000000
 11
39.719000000
 21
-83.208000000
 31
0.000000000
  0
LINE
  5
B0D
330
A02
100
AcDbEntity
  8
Polyline016
100
AcDbLine
 10
39.719000000
 20
-83.208000000
 30
0.000000000
 11
41.444000000
 21
-83.208000000
 31
0.000000000
  0
LINE
  5
B0E
330
A02
100
AcDbEntity
  8
Polyline016
100
AcDbLine
 10
41.444000000
 20
-83.208000000
 30
0.000000000
 11
41.444000000
 21
-84.408000000
 31
0.000000000
  0
LINE
  5
B0F
330
A02
100
AcDbEntity
  8
Polyline016
100
AcDbLine
 10
41.444000000
 20
-84.408000000
 30
0.000000000
 11
44.744000000
 21
-84.408000000
 31
0.000000000
  0
LINE
  5
B10
330
A02
100
AcDbEntity
  8
Polyline016
100
AcDbLine
 10
44.744000000
 20
-84.408000000
 30
0.000000000
 11
44.744000000
 21
-83.208000000
 31
0.000000000
  0
LINE
  5
B11
330
A02
100
AcDbEntity
  8
Polyline016
100
AcDbLine
 10
44.744000000
 20
-83.208000000
 30
0.000000000
 11
46.469000000
 21
-83.208000000
 31
0.000000000
  0
LINE
  5
B12
330
A02
100
AcDbEntity
  8
Polyline016
100
AcDbLine
 10
46.469000000
 20
-83.208000000
 30
0.000000000
 11
46.469000000
 21
-76.938000000
 31
0.000000000
  0
LINE
  5
B13
330
A02
100
AcDbEntity
  8
Polyline016
100
AcDbLine
 10
46.469000000
 20
-76.938000000
 30
0.000000000
 11
47.294000000
 21
-76.938000000
 31
0.000000000
  0
LINE
  5
B14
330
A02
100
AcDbEntity
  8
Polyline016
100
AcDbLine
 10
47.294000000
 20
-76.938000000
 30
0.000000000
 11
47.294000000
 21
-74.138000000
 31
0.000000000
  0
LINE
  5
B15
330
A02
100
AcDbEntity
  8
Polyline016
100
AcDbLine
 10
47.294000000
 20
-74.138000000
 30
0.000000000
 11
46.469000000
 21
-74.138000000
 31
0.000000000
  0
LINE
  5
B16
330
A02
100
AcDbEntity
  8
Polyline016
100
AcDbLine
 10
46.469000000
 20
-74.138000000
 30
0.000000000
 11
46.469000000
 21
-70.908000000
 31
0.000000000
  0
LINE
  5
B17
330
A02
100
AcDbEntity
  8
Polyline016
100
AcDbLine
 10
46.469000000
 20
-70.908000000
 30
0.000000000
 11
39.719000000
 21
-70.908000000
 31
0.000000000
  0
LINE
  5
B18
330
A02
100
AcDbEntity
  8
Polyline016
100
AcDbLine
 10
39.719000000
 20
-70.908000000
 30
0.000000000
 11
39.719000000
 21
-74.138000000
 31
0.000000000
  0
LINE
  5
B19
330
A02
100
AcDbEntity
  8
Polyline016
100
AcDbLine
 10
39.719000000
 20
-74.138000000
 30
0.000000000
 11
38.194000000
 21
-74.138000000
 31
0.000000000
  0
LINE
  5
B1A
330
A02
100
AcDbEntity
  8
Polyline016
100
AcDbLine
 10
38.194000000
 20
-74.138000000
 30
0.000000000
 11
38.194000000
 21
-69.438000000
 31
0.000000000
  0
LINE
  5
B1B
330
A02
100
AcDbEntity
  8
Polyline016
100
AcDbLine
 10
38.194000000
 20
-69.438000000
 30
0.000000000
 11
24.194000000
 21
-69.438000000
 31
0.000000000
  0
LINE
  5
B1C
330
A02
100
AcDbEntity
  8
Polyline017
100
AcDbLine
 10
55.151000000
 20
-69.438000000
 30
0.000000000
 11
55.151000000
 21
-83.438000000
 31
0.000000000
  0
LINE
  5
B1D
330
A02
100
AcDbEntity
  8
Polyline017
100
AcDbLine
 10
55.151000000
 20
-83.438000000
 30
0.000000000
 11
69.151000000
 21
-83.438000000
 31
0.000000000
  0
LINE
  5
B1E
330
A02
100
AcDbEntity
  8
Polyline017
100
AcDbLine
 10
69.151000000
 20
-83.438000000
 30
0.000000000
 11
69.151000000
 21
-69.438000000
 31
0.000000000
  0
LINE
  5
B1F
330
A02
100
AcDbEntity
  8
Polyline017
100
AcDbLine
 10
69.151000000
 20
-69.438000000
 30
0.000000000
 11
55.151000000
 21
-69.438000000
 31
0.000000000
  0
LINE
  5
B20
330
A02
100
AcDbEntity
  8
Polyline018
100
AcDbLine
 10
74.201000000
 20
-69.438000000
 30
0.000000000
 11
74.201000000
 21
-83.438000000
 31
0.000000000
  0
LINE
  5
B21
330
A02
100
AcDbEntity
  8
Polyline018
100
AcDbLine
 10
74.201000000
 20
-83.438000000
 30
0.000000000
 11
88.201000000
 21
-83.438000000
 31
0.000000000
  0
LINE
  5
B22
330
A02
100
AcDbEntity
  8
Polyline018
100
AcDbLine
 10
88.201000000
 20
-83.438000000
 30
0.000000000
 11
88.201000000
 21
-69.438000000
 31
0.000000000
  0
LINE
  5
B23
330
A02
100
AcDbEntity
  8
Polyline018
100
AcDbLine
 10
88.201000000
 20
-69.438000000
 30
0.000000000
 11
74.201000000
 21
-69.438000000
 31
0.000000000
  0
LINE
  5
B24
330
A02
100
AcDbEntity
  8
Polyline019
100
AcDbLine
 10
93.251000000
 20
-69.438000000
 30
0.000000000
 11
93.251000000
 21
-83.438000000
 31
0.000000000
  0
LINE
  5
B25
330
A02
100
AcDbEntity
  8
Polyline019
100
AcDbLine
 10
93.251000000
 20
-83.438000000
 30
0.000000000
 11
107.251000000
 21
-83.438000000
 31
0.000000000
  0
LINE
  5
B26
330
A02
100
AcDbEntity
  8
Polyline019
100
AcDbLine
 10
107.251000000
 20
-83.438000000
 30
0.000000000
 11
107.251000000
 21
-69.438000000
 31
0.000000000
  0
LINE
  5
B27
330
A02
100
AcDbEntity
  8
Polyline019
100
AcDbLine
 10
107.251000000
 20
-69.438000000
 30
0.000000000
 11
93.251000000
 21
-69.438000000
 31
0.000000000
  0
LINE
  5
B28
330
A02
100
AcDbEntity
  8
Polyline020
100
AcDbLine
 10
112.301000000
 20
-69.438000000
 30
0.000000000
 11
112.301000000
 21
-83.438000000
 31
0.000000000
  0
LINE
  5
B29
330
A02
100
AcDbEntity
  8
Polyline020
100
AcDbLine
 10
112.301000000
 20
-83.438000000
 30
0.000000000
 11
126.301000000
 21
-83.438000000
 31
0.000000000
  0
LINE
  5
B2A
330
A02
100
AcDbEntity
  8
Polyline020
100
AcDbLine
 10
126.301000000
 20
-83.438000000
 30
0.000000000
 11
126.301000000
 21
-69.438000000
 31
0.000000000
  0
LINE
  5
B2B
330
A02
100
AcDbEntity
  8
Polyline020
100
AcDbLine
 10
126.301000000
 20
-69.438000000
 30
0.000000000
 11
112.301000000
 21
-69.438000000
 31
0.000000000
  0
LINE
  5
B2C
330
A02
100
AcDbEntity
  8
Polyline021
100
AcDbLine
 10
131.351000000
 20
-69.438000000
 30
0.000000000
 11
131.351000000
 21
-83.438000000
 31
0.000000000
  0
LINE
  5
B2D
330
A02
100
AcDbEntity
  8
Polyline021
100
AcDbLine
 10
131.351000000
 20
-83.438000000
 30
0.000000000
 11
145.351000000
 21
-83.438000000
 31
0.000000000
  0
LINE
  5
B2E
330
A02
100
AcDbEntity
  8
Polyline021
100
AcDbLine
 10
145.351000000
 20
-83.438000000
 30
0.000000000
 11
145.351000000
 21
-69.438000000
 31
0.000000000
  0
LINE
  5
B2F
330
A02
100
AcDbEntity
  8
Polyline021
100
AcDbLine
 10
145.351000000
 20
-69.438000000
 30
0.000000000
 11
131.351000000
 21
-69.438000000
 31
0.000000000
  0
LINE
  5
B30
330
A02
100
AcDbEntity
  8
Polyline022
100
AcDbLine
 10
150.401000000
 20
-69.438000000
 30
0.000000000
 11
150.401000000
 21
-83.438000000
 31
0.000000000
  0
LINE
  5
B31
330
A02
100
AcDbEntity
  8
Polyline022
100
AcDbLine
 10
150.401000000
 20
-83.438000000
 30
0.000000000
 11
164.401000000
 21
-83.438000000
 31
0.000000000
  0
LINE
  5
B32
330
A02
100
AcDbEntity
  8
Polyline022
100
AcDbLine
 10
164.401000000
 20
-83.438000000
 30
0.000000000
 11
164.401000000
 21
-69.438000000
 31
0.000000000
  0
LINE
  5
B33
330
A02
100
AcDbEntity
  8
Polyline022
100
AcDbLine
 10
164.401000000
 20
-69.438000000
 30
0.000000000
 11
150.401000000
 21
-69.438000000
 31
0.000000000
  0
LINE
  5
B34
330
A02
100
AcDbEntity
  8
Polyline023
100
AcDbLine
 10
169.451000000
 20
-69.438000000
 30
0.000000000
 11
169.451000000
 21
-83.438000000
 31
0.000000000
  0
LINE
  5
B35
330
A02
100
AcDbEntity
  8
Polyline023
100
AcDbLine
 10
169.451000000
 20
-83.438000000
 30
0.000000000
 11
183.451000000
 21
-83.438000000
 31
0.000000000
  0
LINE
  5
B36
330
A02
100
AcDbEntity
  8
Polyline023
100
AcDbLine
 10
183.451000000
 20
-83.438000000
 30
0.000000000
 11
183.451000000
 21
-69.438000000
 31
0.000000000
  0
LINE
  5
B37
330
A02
100
AcDbEntity
  8
Polyline023
100
AcDbLine
 10
183.451000000
 20
-69.438000000
 30
0.000000000
 11
169.451000000
 21
-69.438000000
 31
0.000000000
  0
LINE
  5
B38
330
A02
100
AcDbEntity
  8
Polyline024
100
AcDbLine
 10
188.501000000
 20
-69.438000000
 30
0.000000000
 11
188.501000000
 21
-83.438000000
 31
0.000000000
  0
LINE
  5
B39
330
A02
100
AcDbEntity
  8
Polyline024
100
AcDbLine
 10
188.501000000
 20
-83.438000000
 30
0.000000000
 11
202.501000000
 21
-83.438000000
 31
0.000000000
  0
LINE
  5
B3A
330
A02
100
AcDbEntity
  8
Polyline024
100
AcDbLine
 10
202.501000000
 20
-83.438000000
 30
0.000000000
 11
202.501000000
 21
-69.438000000
 31
0.000000000
  0
LINE
  5
B3B
330
A02
100
AcDbEntity
  8
Polyline024
100
AcDbLine
 10
202.501000000
 20
-69.438000000
 30
0.000000000
 11
188.501000000
 21
-69.438000000
 31
0.000000000
  0
LINE
  5
B3C
330
A02
100
AcDbEntity
  8
Polyline025
100
AcDbLine
 10
207.551000000
 20
-69.438000000
 30
0.000000000
 11
207.551000000
 21
-83.438000000
 31
0.000000000
  0
LINE
  5
B3D
330
A02
100
AcDbEntity
  8
Polyline025
100
AcDbLine
 10
207.551000000
 20
-83.438000000
 30
0.000000000
 11
221.551000000
 21
-83.438000000
 31
0.000000000
  0
LINE
  5
B3E
330
A02
100
AcDbEntity
  8
Polyline025
100
AcDbLine
 10
221.551000000
 20
-83.438000000
 30
0.000000000
 11
221.551000000
 21
-69.438000000
 31
0.000000000
  0
LINE
  5
B3F
330
A02
100
AcDbEntity
  8
Polyline025
100
AcDbLine
 10
221.551000000
 20
-69.438000000
 30
0.000000000
 11
207.551000000
 21
-69.438000000
 31
0.000000000
  0
LINE
  5
B40
330
A02
100
AcDbEntity
  8
Polyline026
100
AcDbLine
 10
226.601000000
 20
-69.438000000
 30
0.000000000
 11
226.601000000
 21
-83.438000000
 31
0.000000000
  0
LINE
  5
B41
330
A02
100
AcDbEntity
  8
Polyline026
100
AcDbLine
 10
226.601000000
 20
-83.438000000
 30
0.000000000
 11
240.601000000
 21
-83.438000000
 31
0.000000000
  0
LINE
  5
B42
330
A02
100
AcDbEntity
  8
Polyline026
100
AcDbLine
 10
240.601000000
 20
-83.438000000
 30
0.000000000
 11
240.601000000
 21
-69.438000000
 31
0.000000000
  0
LINE
  5
B43
330
A02
100
AcDbEntity
  8
Polyline026
100
AcDbLine
 10
240.601000000
 20
-69.438000000
 30
0.000000000
 11
226.601000000
 21
-69.438000000
 31
0.000000000
  0
LINE
  5
B44
330
A02
100
AcDbEntity
  8
Polyline027
100
AcDbLine
 10
252.794000000
 20
-69.438000000
 30
0.000000000
 11
252.794000000
 21
-83.438000000
 31
0.000000000
  0
LINE
  5
B45
330
A02
100
AcDbEntity
  8
Polyline027
100
AcDbLine
 10
252.794000000
 20
-83.438000000
 30
0.000000000
 11
266.794000000
 21
-83.438000000
 31
0.000000000
  0
LINE
  5
B46
330
A02
100
AcDbEntity
  8
Polyline027
100
AcDbLine
 10
266.794000000
 20
-83.438000000
 30
0.000000000
 11
266.794000000
 21
-69.438000000
 31
0.000000000
  0
LINE
  5
B47
330
A02
100
AcDbEntity
  8
Polyline027
100
AcDbLine
 10
266.794000000
 20
-69.438000000
 30
0.000000000
 11
252.794000000
 21
-69.438000000
 31
0.000000000
  0
LINE
  5
B48
330
A02
100
AcDbEntity
  8
Polyline028
100
AcDbLine
 10
307.563000000
 20
-69.438000000
 30
0.000000000
 11
307.563000000
 21
-83.438000000
 31
0.000000000
  0
LINE
  5
B49
330
A02
100
AcDbEntity
  8
Polyline028
100
AcDbLine
 10
307.563000000
 20
-83.438000000
 30
0.000000000
 11
321.563000000
 21
-83.438000000
 31
0.000000000
  0
LINE
  5
B4A
330
A02
100
AcDbEntity
  8
Polyline028
100
AcDbLine
 10
321.563000000
 20
-83.438000000
 30
0.000000000
 11
321.563000000
 21
-69.438000000
 31
0.000000000
  0
LINE
  5
B4B
330
A02
100
AcDbEntity
  8
Polyline028
100
AcDbLine
 10
321.563000000
 20
-69.438000000
 30
0.000000000
 11
307.563000000
 21
-69.438000000
 31
0.000000000
  0
LINE
  5
B4C
330
A02
100
AcDbEntity
  8
Polyline029
100
AcDbLine
 10
267.082000000
 20
-50.388000000
 30
0.000000000
 11
267.082000000
 21
-55.088000000
 31
0.000000000
  0
LINE
  5
B4D
330
A02
100
AcDbEntity
  8
Polyline029
100
AcDbLine
 10
267.082000000
 20
-55.088000000
 30
0.000000000
 11
265.557000000
 21
-55.088000000
 31
0.000000000
  0
LINE
  5
B4E
330
A02
100
AcDbEntity
  8
Polyline029
100
AcDbLine
 10
265.557000000
 20
-55.088000000
 30
0.000000000
 11
265.557000000
 21
-51.858000000
 31
0.000000000
  0
LINE
  5
B4F
330
A02
100
AcDbEntity
  8
Polyline029
100
AcDbLine
 10
265.557000000
 20
-51.858000000
 30
0.000000000
 11
258.806000000
 21
-51.858000000
 31
0.000000000
  0
LINE
  5
B50
330
A02
100
AcDbEntity
  8
Polyline029
100
AcDbLine
 10
258.806000000
 20
-51.858000000
 30
0.000000000
 11
258.806000000
 21
-55.088000000
 31
0.000000000
  0
LINE
  5
B51
330
A02
100
AcDbEntity
  8
Polyline029
100
AcDbLine
 10
258.806000000
 20
-55.088000000
 30
0.000000000
 11
257.982000000
 21
-55.088000000
 31
0.000000000
  0
LINE
  5
B52
330
A02
100
AcDbEntity
  8
Polyline029
100
AcDbLine
 10
257.982000000
 20
-55.088000000
 30
0.000000000
 11
257.982000000
 21
-57.888000000
 31
0.000000000
  0
LINE
  5
B53
330
A02
100
AcDbEntity
  8
Polyline029
100
AcDbLine
 10
257.982000000
 20
-57.888000000
 30
0.000000000
 11
258.806000000
 21
-57.888000000
 31
0.000000000
  0
LINE
  5
B54
330
A02
100
AcDbEntity
  8
Polyline029
100
AcDbLine
 10
258.806000000
 20
-57.888000000
 30
0.000000000
 11
258.806000000
 21
-64.158000000
 31
0.000000000
  0
LINE
  5
B55
330
A02
100
AcDbEntity
  8
Polyline029
100
AcDbLine
 10
258.806000000
 20
-64.158000000
 30
0.000000000
 11
260.532000000
 21
-64.158000000
 31
0.000000000
  0
LINE
  5
B56
330
A02
100
AcDbEntity
  8
Polyline029
100
AcDbLine
 10
260.532000000
 20
-64.158000000
 30
0.000000000
 11
260.532000000
 21
-65.358000000
 31
0.000000000
  0
LINE
  5
B57
330
A02
100
AcDbEntity
  8
Polyline029
100
AcDbLine
 10
260.532000000
 20
-65.358000000
 30
0.000000000
 11
263.832000000
 21
-65.358000000
 31
0.000000000
  0
LINE
  5
B58
330
A02
100
AcDbEntity
  8
Polyline029
100
AcDbLine
 10
263.832000000
 20
-65.358000000
 30
0.000000000
 11
263.832000000
 21
-64.158000000
 31
0.000000000
  0
LINE
  5
B59
330
A02
100
AcDbEntity
  8
Polyline029
100
AcDbLine
 10
263.832000000
 20
-64.158000000
 30
0.000000000
 11
265.557000000
 21
-64.158000000
 31
0.000000000
  0
LINE
  5
B5A
330
A02
100
AcDbEntity
  8
Polyline029
100
AcDbLine
 10
265.557000000
 20
-64.158000000
 30
0.000000000
 11
265.557000000
 21
-59.688000000
 31
0.000000000
  0
LINE
  5
B5B
330
A02
100
AcDbEntity
  8
Polyline029
100
AcDbLine
 10
265.557000000
 20
-59.688000000
 30
0.000000000
 11
267.082000000
 21
-59.688000000
 31
0.000000000
  0
LINE
  5
B5C
330
A02
100
AcDbEntity
  8
Polyline029
100
AcDbLine
 10
267.082000000
 20
-59.688000000
 30
0.000000000
 11
267.082000000
 21
-64.388000000
 31
0.000000000
  0
LINE
  5
B5D
330
A02
100
AcDbEntity
  8
Polyline029
100
AcDbLine
 10
267.082000000
 20
-64.388000000
 30
0.000000000
 11
281.082000000
 21
-64.388000000
 31
0.000000000
  0
LINE
  5
B5E
330
A02
100
AcDbEntity
  8
Polyline029
100
AcDbLine
 10
281.082000000
 20
-64.388000000
 30
0.000000000
 11
281.082000000
 21
-59.688000000
 31
0.000000000
  0
LINE
  5
B5F
330
A02
100
AcDbEntity
  8
Polyline029
100
AcDbLine
 10
281.082000000
 20
-59.688000000
 30
0.000000000
 11
282.607000000
 21
-59.688000000
 31
0.000000000
  0
LINE
  5
B60
330
A02
100
AcDbEntity
  8
Polyline029
100
AcDbLine
 10
282.607000000
 20
-59.688000000
 30
0.000000000
 11
282.607000000
 21
-64.158000000
 31
0.000000000
  0
LINE
  5
B61
330
A02
100
AcDbEntity
  8
Polyline029
100
AcDbLine
 10
282.607000000
 20
-64.158000000
 30
0.000000000
 11
284.332000000
 21
-64.158000000
 31
0.000000000
  0
LINE
  5
B62
330
A02
100
AcDbEntity
  8
Polyline029
100
AcDbLine
 10
284.332000000
 20
-64.158000000
 30
0.000000000
 11
284.332000000
 21
-65.358000000
 31
0.000000000
  0
LINE
  5
B63
330
A02
100
AcDbEntity
  8
Polyline029
100
AcDbLine
 10
284.332000000
 20
-65.358000000
 30
0.000000000
 11
287.632000000
 21
-65.358000000
 31
0.000000000
  0
LINE
  5
B64
330
A02
100
AcDbEntity
  8
Polyline029
100
AcDbLine
 10
287.632000000
 20
-65.358000000
 30
0.000000000
 11
287.632000000
 21
-64.158000000
 31
0.000000000
  0
LINE
  5
B65
330
A02
100
AcDbEntity
  8
Polyline029
100
AcDbLine
 10
287.632000000
 20
-64.158000000
 30
0.000000000
 11
289.357000000
 21
-64.158000000
 31
0.000000000
  0
LINE
  5
B66
330
A02
100
AcDbEntity
  8
Polyline029
100
AcDbLine
 10
289.357000000
 20
-64.158000000
 30
0.000000000
 11
289.357000000
 21
-57.888000000
 31
0.000000000
  0
LINE
  5
B67
330
A02
100
AcDbEntity
  8
Polyline029
100
AcDbLine
 10
289.357000000
 20
-57.888000000
 30
0.000000000
 11
290.182000000
 21
-57.888000000
 31
0.000000000
  0
LINE
  5
B68
330
A02
100
AcDbEntity
  8
Polyline029
100
AcDbLine
 10
290.182000000
 20
-57.888000000
 30
0.000000000
 11
290.182000000
 21
-55.088000000
 31
0.000000000
  0
LINE
  5
B69
330
A02
100
AcDbEntity
  8
Polyline029
100
AcDbLine
 10
290.182000000
 20
-55.088000000
 30
0.000000000
 11
289.357000000
 21
-55.088000000
 31
0.000000000
  0
LINE
  5
B6A
330
A02
100
AcDbEntity
  8
Polyline029
100
AcDbLine
 10
289.357000000
 20
-55.088000000
 30
0.000000000
 11
289.357000000
 21
-51.858000000
 31
0.000000000
  0
LINE
  5
B6B
330
A02
100
AcDbEntity
  8
Polyline029
100
AcDbLine
 10
289.357000000
 20
-51.858000000
 30
0.000000000
 11
282.607000000
 21
-51.858000000
 31
0.000000000
  0
LINE
  5
B6C
330
A02
100
AcDbEntity
  8
Polyline029
100
AcDbLine
 10
282.607000000
 20
-51.858000000
 30
0.000000000
 11
282.607000000
 21
-55.088000000
 31
0.000000000
  0
LINE
  5
B6D
330
A02
100
AcDbEntity
  8
Polyline029
100
AcDbLine
 10
282.607000000
 20
-55.088000000
 30
0.000000000
 11
281.082000000
 21
-55.088000000
 31
0.000000000
  0
LINE
  5
B6E
330
A02
100
AcDbEntity
  8
Polyline029
100
AcDbLine
 10
281.082000000
 20
-55.088000000
 30
0.000000000
 11
281.082000000
 21
-50.388000000
 31
0.000000000
  0
LINE
  5
B6F
330
A02
100
AcDbEntity
  8
Polyline029
100
AcDbLine
 10
281.082000000
 20
-50.388000000
 30
0.000000000
 11
267.082000000
 21
-50.388000000
 31
0.000000000
  0
LINE
  5
B70
330
A02
100
AcDbEntity
  8
Polyline030
100
AcDbLine
 10
19.432000000
 20
-50.388000000
 30
0.000000000
 11
19.432000000
 21
-64.388000000
 31
0.000000000
  0
LINE
  5
B71
330
A02
100
AcDbEntity
  8
Polyline030
100
AcDbLine
 10
19.432000000
 20
-64.388000000
 30
0.000000000
 11
33.432000000
 21
-64.388000000
 31
0.000000000
  0
LINE
  5
B72
330
A02
100
AcDbEntity
  8
Polyline030
100
AcDbLine
 10
33.432000000
 20
-64.388000000
 30
0.000000000
 11
33.432000000
 21
-50.388000000
 31
0.000000000
  0
LINE
  5
B73
330
A02
100
AcDbEntity
  8
Polyline030
100
AcDbLine
 10
33.432000000
 20
-50.388000000
 30
0.000000000
 11
19.432000000
 21
-50.388000000
 31
0.000000000
  0
LINE
  5
B74
330
A02
100
AcDbEntity
  8
Polyline031
100
AcDbLine
 10
45.626000000
 20
-50.388000000
 30
0.000000000
 11
45.626000000
 21
-64.388000000
 31
0.000000000
  0
LINE
  5
B75
330
A02
100
AcDbEntity
  8
Polyline031
100
AcDbLine
 10
45.626000000
 20
-64.388000000
 30
0.000000000
 11
59.626000000
 21
-64.388000000
 31
0.000000000
  0
LINE
  5
B76
330
A02
100
AcDbEntity
  8
Polyline031
100
AcDbLine
 10
59.626000000
 20
-64.388000000
 30
0.000000000
 11
59.626000000
 21
-50.388000000
 31
0.000000000
  0
LINE
  5
B77
330
A02
100
AcDbEntity
  8
Polyline031
100
AcDbLine
 10
59.626000000
 20
-50.388000000
 30
0.000000000
 11
45.626000000
 21
-50.388000000
 31
0.000000000
  0
LINE
  5
B78
330
A02
100
AcDbEntity
  8
Polyline032
100
AcDbLine
 10
64.676000000
 20
-50.388000000
 30
0.000000000
 11
64.676000000
 21
-64.388000000
 31
0.000000000
  0
LINE
  5
B79
330
A02
100
AcDbEntity
  8
Polyline032
100
AcDbLine
 10
64.676000000
 20
-64.388000000
 30
0.000000000
 11
78.676000000
 21
-64.388000000
 31
0.000000000
  0
LINE
  5
B7A
330
A02
100
AcDbEntity
  8
Polyline032
100
AcDbLine
 10
78.676000000
 20
-64.388000000
 30
0.000000000
 11
78.676000000
 21
-50.388000000
 31
0.000000000
  0
LINE
  5
B7B
330
A02
100
AcDbEntity
  8
Polyline032
100
AcDbLine
 10
78.676000000
 20
-50.388000000
 30
0.000000000
 11
64.676000000
 21
-50.388000000
 31
0.000000000
  0
LINE
  5
B7C
330
A02
100
AcDbEntity
  8
Polyline033
100
AcDbLine
 10
83.726000000
 20
-50.388000000
 30
0.000000000
 11
83.726000000
 21
-64.388000000
 31
0.000000000
  0
LINE
  5
B7D
330
A02
100
AcDbEntity
  8
Polyline033
100
AcDbLine
 10
83.726000000
 20
-64.388000000
 30
0.000000000
 11
97.726000000
 21
-64.388000000
 31
0.000000000
  0
LINE
  5
B7E
330
A02
100
AcDbEntity
  8
Polyline033
100
AcDbLine
 10
97.726000000
 20
-64.388000000
 30
0.000000000
 11
97.726000000
 21
-50.388000000
 31
0.000000000
  0
LINE
  5
B7F
330
A02
100
AcDbEntity
  8
Polyline033
100
AcDbLine
 10
97.726000000
 20
-50.388000000
 30
0.000000000
 11
83.726000000
 21
-50.388000000
 31
0.000000000
  0
LINE
  5
B80
330
A02
100
AcDbEntity
  8
Polyline034
100
AcDbLine
 10
102.775000000
 20
-50.388000000
 30
0.000000000
 11
102.775000000
 21
-64.388000000
 31
0.000000000
  0
LINE
  5
B81
330
A02
100
AcDbEntity
  8
Polyline034
100
AcDbLine
 10
102.775000000
 20
-64.388000000
 30
0.000000000
 11
116.775000000
 21
-64.388000000
 31
0.000000000
  0
LINE
  5
B82
330
A02
100
AcDbEntity
  8
Polyline034
100
AcDbLine
 10
116.775000000
 20
-64.388000000
 30
0.000000000
 11
116.775000000
 21
-50.388000000
 31
0.000000000
  0
LINE
  5
B83
330
A02
100
AcDbEntity
  8
Polyline034
100
AcDbLine
 10
116.775000000
 20
-50.388000000
 30
0.000000000
 11
102.775000000
 21
-50.388000000
 31
0.000000000
  0
LINE
  5
B84
330
A02
100
AcDbEntity
  8
Polyline035
100
AcDbLine
 10
121.825000000
 20
-50.388000000
 30
0.000000000
 11
121.825000000
 21
-64.388000000
 31
0.000000000
  0
LINE
  5
B85
330
A02
100
AcDbEntity
  8
Polyline035
100
AcDbLine
 10
121.825000000
 20
-64.388000000
 30
0.000000000
 11
135.826000000
 21
-64.388000000
 31
0.000000000
  0
LINE
  5
B86
330
A02
100
AcDbEntity
  8
Polyline035
100
AcDbLine
 10
135.826000000
 20
-64.388000000
 30
0.000000000
 11
135.826000000
 21
-50.388000000
 31
0.000000000
  0
LINE
  5
B87
330
A02
100
AcDbEntity
  8
Polyline035
100
AcDbLine
 10
135.826000000
 20
-50.388000000
 30
0.000000000
 11
121.825000000
 21
-50.388000000
 31
0.000000000
  0
LINE
  5
B88
330
A02
100
AcDbEntity
  8
Polyline036
100
AcDbLine
 10
140.876000000
 20
-50.388000000
 30
0.000000000
 11
140.876000000
 21
-64.388000000
 31
0.000000000
  0
LINE
  5
B89
330
A02
100
AcDbEntity
  8
Polyline036
100
AcDbLine
 10
140.876000000
 20
-64.388000000
 30
0.000000000
 11
154.876000000
 21
-64.388000000
 31
0.000000000
  0
LINE
  5
B8A
330
A02
100
AcDbEntity
  8
Polyline036
100
AcDbLine
 10
154.876000000
 20
-64.388000000
 30
0.000000000
 11
154.876000000
 21
-50.388000000
 31
0.000000000
  0
LINE
  5
B8B
330
A02
100
AcDbEntity
  8
Polyline036
100
AcDbLine
 10
154.876000000
 20
-50.388000000
 30
0.000000000
 11
140.876000000
 21
-50.388000000
 31
0.000000000
  0
LINE
  5
B8C
330
A02
100
AcDbEntity
  8
Polyline037
100
AcDbLine
 10
159.926000000
 20
-50.388000000
 30
0.000000000
 11
159.926000000
 21
-64.388000000
 31
0.000000000
  0
LINE
  5
B8D
330
A02
100
AcDbEntity
  8
Polyline037
100
AcDbLine
 10
159.926000000
 20
-64.388000000
 30
0.000000000
 11
173.926000000
 21
-64.388000000
 31
0.000000000
  0
LINE
  5
B8E
330
A02
100
AcDbEntity
  8
Polyline037
100
AcDbLine
 10
173.926000000
 20
-64.388000000
 30
0.000000000
 11
173.926000000
 21
-50.388000000
 31
0.000000000
  0
LINE
  5
B8F
330
A02
100
AcDbEntity
  8
Polyline037
100
AcDbLine
 10
173.926000000
 20
-50.388000000
 30
0.000000000
 11
159.926000000
 21
-50.388000000
 31
0.000000000
  0
LINE
  5
B90
330
A02
100
AcDbEntity
  8
Polyline038
100
AcDbLine
 10
178.976000000
 20
-50.388000000
 30
0.000000000
 11
178.976000000
 21
-64.388000000
 31
0.000000000
  0
LINE
  5
B91
330
A02
100
AcDbEntity
  8
Polyline038
100
AcDbLine
 10
178.976000000
 20
-64.388000000
 30
0.000000000
 11
192.976000000
 21
-64.388000000
 31
0.000000000
  0
LINE
  5
B92
330
A02
100
AcDbEntity
  8
Polyline038
100
AcDbLine
 10
192.976000000
 20
-64.388000000
 30
0.000000000
 11
192.976000000
 21
-50.388000000
 31
0.000000000
  0
LINE
  5
B93
330
A02
100
AcDbEntity
  8
Polyline038
100
AcDbLine
 10
192.976000000
 20
-50.388000000
 30
0.000000000
 11
178.976000000
 21
-50.388000000
 31
0.000000000
  0
LINE
  5
B94
330
A02
100
AcDbEntity
  8
Polyline039
100
AcDbLine
 10
198.026000000
 20
-50.388000000
 30
0.000000000
 11
198.026000000
 21
-64.388000000
 31
0.000000000
  0
LINE
  5
B95
330
A02
100
AcDbEntity
  8
Polyline039
100
AcDbLine
 10
198.026000000
 20
-64.388000000
 30
0.000000000
 11
212.026000000
 21
-64.388000000
 31
0.000000000
  0
LINE
  5
B96
330
A02
100
AcDbEntity
  8
Polyline039
100
AcDbLine
 10
212.026000000
 20
-64.388000000
 30
0.000000000
 11
212.026000000
 21
-50.388000000
 31
0.000000000
  0
LINE
  5
B97
330
A02
100
AcDbEntity
  8
Polyline039
100
AcDbLine
 10
212.026000000
 20
-50.388000000
 30
0.000000000
 11
198.026000000
 21
-50.388000000
 31
0.000000000
  0
LINE
  5
B98
330
A02
100
AcDbEntity
  8
Polyline040
100
AcDbLine
 10
217.076000000
 20
-50.388000000
 30
0.000000000
 11
217.076000000
 21
-64.388000000
 31
0.000000000
  0
LINE
  5
B99
330
A02
100
AcDbEntity
  8
Polyline040
100
AcDbLine
 10
217.076000000
 20
-64.388000000
 30
0.000000000
 11
231.076000000
 21
-64.388000000
 31
0.000000000
  0
LINE
  5
B9A
330
A02
100
AcDbEntity
  8
Polyline040
100
AcDbLine
 10
231.076000000
 20
-64.388000000
 30
0.000000000
 11
231.076000000
 21
-50.388000000
 31
0.000000000
  0
LINE
  5
B9B
330
A02
100
AcDbEntity
  8
Polyline040
100
AcDbLine
 10
231.076000000
 20
-50.388000000
 30
0.000000000
 11
217.076000000
 21
-50.388000000
 31
0.000000000
  0
LINE
  5
B9C
330
A02
100
AcDbEntity
  8
Polyline041
100
AcDbLine
 10
236.126000000
 20
-50.388000000
 30
0.000000000
 11
236.126000000
 21
-64.388000000
 31
0.000000000
  0
LINE
  5
B9D
330
A02
100
AcDbEntity
  8
Polyline041
100
AcDbLine
 10
236.126000000
 20
-64.388000000
 30
0.000000000
 11
250.126000000
 21
-64.388000000
 31
0.000000000
  0
LINE
  5
B9E
330
A02
100
AcDbEntity
  8
Polyline041
100
AcDbLine
 10
250.126000000
 20
-64.388000000
 30
0.000000000
 11
250.126000000
 21
-50.388000000
 31
0.000000000
  0
LINE
  5
B9F
330
A02
100
AcDbEntity
  8
Polyline041
100
AcDbLine
 10
250.126000000
 20
-50.388000000
 30
0.000000000
 11
236.126000000
 21
-50.388000000
 31
0.000000000
  0
LINE
  5
BA0
330
A02
100
AcDbEntity
  8
Polyline075
100
AcDbLine
 10
300.275000000
 20
-9.762000000
 30
0.000000000
 11
300.275000000
 21
-62.152000000
 31
0.000000000
  0
LINE
  5
BA1
330
A02
100
AcDbEntity
  8
Polyline075
100
AcDbLine
 10
300.275000000
 20
-62.152000000
 30
0.000000000
 11
324.089000000
 21
-62.152000000
 31
0.000000000
  0
LINE
  5
BA2
330
A02
100
AcDbEntity
  8
Polyline075
100
AcDbLine
 10
324.089000000
 20
-62.152000000
 30
0.000000000
 11
324.089000000
 21
-9.762000000
 31
0.000000000
  0
LINE
  5
BA3
330
A02
100
AcDbEntity
  8
Polyline075
100
AcDbLine
 10
324.089000000
 20
-9.762000000
 30
0.000000000
 11
300.275000000
 21
-9.762000000
 31
0.000000000
  0
LINE
  5
BA4
330
A02
100
AcDbEntity
  8
Polyline043
100
AcDbLine
 10
17.051000000
 20
-31.338000000
 30
0.000000000
 11
17.051000000
 21
-45.338000000
 31
0.000000000
  0
LINE
  5
BA5
330
A02
100
AcDbEntity
  8
Polyline043
100
AcDbLine
 10
17.051000000
 20
-45.338000000
 30
0.000000000
 11
31.051000000
 21
-45.338000000
 31
0.000000000
  0
LINE
  5
BA6
330
A02
100
AcDbEntity
  8
Polyline043
100
AcDbLine
 10
31.051000000
 20
-45.338000000
 30
0.000000000
 11
31.051000000
 21
-31.338000000
 31
0.000000000
  0
LINE
  5
BA7
330
A02
100
AcDbEntity
  8
Polyline043
100
AcDbLine
 10
31.051000000
 20
-31.338000000
 30
0.000000000
 11
17.051000000
 21
-31.338000000
 31
0.000000000
  0
LINE
  5
BA8
330
A02
100
AcDbEntity
  8
Polyline044
100
AcDbLine
 10
40.863000000
 20
-31.338000000
 30
0.000000000
 11
40.863000000
 21
-45.338000000
 31
0.000000000
  0
LINE
  5
BA9
330
A02
100
AcDbEntity
  8
Polyline044
100
AcDbLine
 10
40.863000000
 20
-45.338000000
 30
0.000000000
 11
54.863000000
 21
-45.338000000
 31
0.000000000
  0
LINE
  5
BAA
330
A02
100
AcDbEntity
  8
Polyline044
100
AcDbLine
 10
54.863000000
 20
-45.338000000
 30
0.000000000
 11
54.863000000
 21
-31.338000000
 31
0.000000000
  0
LINE
  5
BAB
330
A02
100
AcDbEntity
  8
Polyline044
100
AcDbLine
 10
54.863000000
 20
-31.338000000
 30
0.000000000
 11
40.863000000
 21
-31.338000000
 31
0.000000000
  0
LINE
  5
BAC
330
A02
100
AcDbEntity
  8
Polyline045
100
AcDbLine
 10
59.913000000
 20
-31.338000000
 30
0.000000000
 11
59.913000000
 21
-45.338000000
 31
0.000000000
  0
LINE
  5
BAD
330
A02
100
AcDbEntity
  8
Polyline045
100
AcDbLine
 10
59.913000000
 20
-45.338000000
 30
0.000000000
 11
73.913000000
 21
-45.338000000
 31
0.000000000
  0
LINE
  5
BAE
330
A02
100
AcDbEntity
  8
Polyline045
100
AcDbLine
 10
73.913000000
 20
-45.338000000
 30
0.000000000
 11
73.913000000
 21
-31.338000000
 31
0.000000000
  0
LINE
  5
BAF
330
A02
100
AcDbEntity
  8
Polyline045
100
AcDbLine
 10
73.913000000
 20
-31.338000000
 30
0.000000000
 11
59.913000000
 21
-31.338000000
 31
0.000000000
  0
LINE
  5
BB0
330
A02
100
AcDbEntity
  8
Polyline046
100
AcDbLine
 10
78.963000000
 20
-31.338000000
 30
0.000000000
 11
78.963000000
 21
-45.338000000
 31
0.000000000
  0
LINE
  5
BB1
330
A02
100
AcDbEntity
  8
Polyline046
100
AcDbLine
 10
78.963000000
 20
-45.338000000
 30
0.000000000
 11
92.963000000
 21
-45.338000000
 31
0.000000000
  0
LINE
  5
BB2
330
A02
100
AcDbEntity
  8
Polyline046
100
AcDbLine
 10
92.963000000
 20
-45.338000000
 30
0.000000000
 11
92.963000000
 21
-31.338000000
 31
0.000000000
  0
LINE
  5
BB3
330
A02
100
AcDbEntity
  8
Polyline046
100
AcDbLine
 10
92.963000000
 20
-31.338000000
 30
0.000000000
 11
78.963000000
 21
-31.338000000
 31
0.000000000
  0
LINE
  5
BB4
330
A02
100
AcDbEntity
  8
Polyline047
100
AcDbLine
 10
98.013000000
 20
-31.338000000
 30
0.000000000
 11
98.013000000
 21
-45.338000000
 31
0.000000000
  0
LINE
  5
BB5
330
A02
100
AcDbEntity
  8
Polyline047
100
AcDbLine
 10
98.013000000
 20
-45.338000000
 30
0.000000000
 11
112.013000000
 21
-45.338000000
 31
0.000000000
  0
LINE
  5
BB6
330
A02
100
AcDbEntity
  8
Polyline047
100
AcDbLine
 10
112.013000000
 20
-45.338000000
 30
0.000000000
 11
112.013000000
 21
-31.338000000
 31
0.000000000
  0
LINE
  5
BB7
330
A02
100
AcDbEntity
  8
Polyline047
100
AcDbLine
 10
112.013000000
 20
-31.338000000
 30
0.000000000
 11
98.013000000
 21
-31.338000000
 31
0.000000000
  0
LINE
  5
BB8
330
A02
100
AcDbEntity
  8
Polyline048
100
AcDbLine
 10
117.063000000
 20
-31.338000000
 30
0.000000000
 11
117.063000000
 21
-45.338000000
 31
0.000000000
  0
LINE
  5
BB9
330
A02
100
AcDbEntity
  8
Polyline048
100
AcDbLine
 10
117.063000000
 20
-45.338000000
 30
0.000000000
 11
131.063000000
 21
-45.338000000
 31
0.000000000
  0
LINE
  5
BBA
330
A02
100
AcDbEntity
  8
Polyline048
100
AcDbLine
 10
131.063000000
 20
-45.338000000
 30
0.000000000
 11
131.063000000
 21
-31.338000000
 31
0.000000000
  0
LINE
  5
BBB
330
A02
100
AcDbEntity
  8
Polyline048
100
AcDbLine
 10
131.063000000
 20
-31.338000000
 30
0.000000000
 11
117.063000000
 21
-31.338000000
 31
0.000000000
  0
LINE
  5
BBC
330
A02
100
AcDbEntity
  8
Polyline049
100
AcDbLine
 10
136.113000000
 20
-31.338000000
 30
0.000000000
 11
136.113000000
 21
-45.338000000
 31
0.000000000
  0
LINE
  5
BBD
330
A02
100
AcDbEntity
  8
Polyline049
100
AcDbLine
 10
136.113000000
 20
-45.338000000
 30
0.000000000
 11
150.113000000
 21
-45.338000000
 31
0.000000000
  0
LINE
  5
BBE
330
A02
100
AcDbEntity
  8
Polyline049
100
AcDbLine
 10
150.113000000
 20
-45.338000000
 30
0.000000000
 11
150.113000000
 21
-31.338000000
 31
0.000000000
  0
LINE
  5
BBF
330
A02
100
AcDbEntity
  8
Polyline049
100
AcDbLine
 10
150.113000000
 20
-31.338000000
 30
0.000000000
 11
136.113000000
 21
-31.338000000
 31
0.000000000
  0
LINE
  5
BC0
330
A02
100
AcDbEntity
  8
Polyline050
100
AcDbLine
 10
155.163000000
 20
-31.338000000
 30
0.000000000
 11
155.163000000
 21
-45.338000000
 31
0.000000000
  0
LINE
  5
BC1
330
A02
100
AcDbEntity
  8
Polyline050
100
AcDbLine
 10
155.163000000
 20
-45.338000000
 30
0.000000000
 11
169.163000000
 21
-45.338000000
 31
0.000000000
  0
LINE
  5
BC2
330
A02
100
AcDbEntity
  8
Polyline050
100
AcDbLine
 10
169.163000000
 20
-45.338000000
 30
0.000000000
 11
169.163000000
 21
-31.338000000
 31
0.000000000
  0
LINE
  5
BC3
330
A02
100
AcDbEntity
  8
Polyline050
100
AcDbLine
 10
169.163000000
 20
-31.338000000
 30
0.000000000
 11
155.163000000
 21
-31.338000000
 31
0.000000000
  0
LINE
  5
BC4
330
A02
100
AcDbEntity
  8
Polyline051
100
AcDbLine
 10
174.213000000
 20
-31.338000000
 30
0.000000000
 11
174.213000000
 21
-45.338000000
 31
0.000000000
  0
LINE
  5
BC5
330
A02
100
AcDbEntity
  8
Polyline051
100
AcDbLine
 10
174.213000000
 20
-45.338000000
 30
0.000000000
 11
188.213000000
 21
-45.338000000
 31
0.000000000
  0
LINE
  5
BC6
330
A02
100
AcDbEntity
  8
Polyline051
100
AcDbLine
 10
188.213000000
 20
-45.338000000
 30
0.000000000
 11
188.213000000
 21
-31.338000000
 31
0.000000000
  0
LINE
  5
BC7
330
A02
100
AcDbEntity
  8
Polyline051
100
AcDbLine
 10
188.213000000
 20
-31.338000000
 30
0.000000000
 11
174.213000000
 21
-31.338000000
 31
0.000000000
  0
LINE
  5
BC8
330
A02
100
AcDbEntity
  8
Polyline052
100
AcDbLine
 10
193.263000000
 20
-31.338000000
 30
0.000000000
 11
193.263000000
 21
-45.338000000
 31
0.000000000
  0
LINE
  5
BC9
330
A02
100
AcDbEntity
  8
Polyline052
100
AcDbLine
 10
193.263000000
 20
-45.338000000
 30
0.000000000
 11
207.263000000
 21
-45.338000000
 31
0.000000000
  0
LINE
  5
BCA
330
A02
100
AcDbEntity
  8
Polyline052
100
AcDbLine
 10
207.263000000
 20
-45.338000000
 30
0.000000000
 11
207.263000000
 21
-31.338000000
 31
0.000000000
  0
LINE
  5
BCB
330
A02
100
AcDbEntity
  8
Polyline052
100
AcDbLine
 10
207.263000000
 20
-31.338000000
 30
0.000000000
 11
193.263000000
 21
-31.338000000
 31
0.000000000
  0
LINE
  5
BCC
330
A02
100
AcDbEntity
  8
Polyline053
100
AcDbLine
 10
212.313000000
 20
-31.338000000
 30
0.000000000
 11
212.313000000
 21
-45.338000000
 31
0.000000000
  0
LINE
  5
BCD
330
A02
100
AcDbEntity
  8
Polyline053
100
AcDbLine
 10
212.313000000
 20
-45.338000000
 30
0.000000000
 11
226.313000000
 21
-45.338000000
 31
0.000000000
  0
LINE
  5
BCE
330
A02
100
AcDbEntity
  8
Polyline053
100
AcDbLine
 10
226.313000000
 20
-45.338000000
 30
0.000000000
 11
226.313000000
 21
-31.338000000
 31
0.000000000
  0
LINE
  5
BCF
330
A02
100
AcDbEntity
  8
Polyline053
100
AcDbLine
 10
226.313000000
 20
-31.338000000
 30
0.000000000
 11
212.313000000
 21
-31.338000000
 31
0.000000000
  0
LINE
  5
BD0
330
A02
100
AcDbEntity
  8
Polyline054
100
AcDbLine
 10
231.363000000
 20
-31.338000000
 30
0.000000000
 11
231.363000000
 21
-45.338000000
 31
0.000000000
  0
LINE
  5
BD1
330
A02
100
AcDbEntity
  8
Polyline054
100
AcDbLine
 10
231.363000000
 20
-45.338000000
 30
0.000000000
 11
245.363000000
 21
-45.338000000
 31
0.000000000
  0
LINE
  5
BD2
330
A02
100
AcDbEntity
  8
Polyline054
100
AcDbLine
 10
245.363000000
 20
-45.338000000
 30
0.000000000
 11
245.363000000
 21
-31.338000000
 31
0.000000000
  0
LINE
  5
BD3
330
A02
100
AcDbEntity
  8
Polyline054
100
AcDbLine
 10
245.363000000
 20
-31.338000000
 30
0.000000000
 11
231.363000000
 21
-31.338000000
 31
0.000000000
  0
LINE
  5
BD4
330
A02
100
AcDbEntity
  8
Polyline055
100
AcDbLine
 10
250.413000000
 20
-31.338000000
 30
0.000000000
 11
250.413000000
 21
-45.338000000
 31
0.000000000
  0
LINE
  5
BD5
330
A02
100
AcDbEntity
  8
Polyline055
100
AcDbLine
 10
250.413000000
 20
-45.338000000
 30
0.000000000
 11
264.413000000
 21
-45.338000000
 31
0.000000000
  0
LINE
  5
BD6
330
A02
100
AcDbEntity
  8
Polyline055
100
AcDbLine
 10
264.413000000
 20
-45.338000000
 30
0.000000000
 11
264.413000000
 21
-31.338000000
 31
0.000000000
  0
LINE
  5
BD7
330
A02
100
AcDbEntity
  8
Polyline055
100
AcDbLine
 10
264.413000000
 20
-31.338000000
 30
0.000000000
 11
250.413000000
 21
-31.338000000
 31
0.000000000
  0
LINE
  5
BD8
330
A02
100
AcDbEntity
  8
Polyline056
100
AcDbLine
 10
274.226000000
 20
-31.338000000
 30
0.000000000
 11
274.226000000
 21
-45.338000000
 31
0.000000000
  0
LINE
  5
BD9
330
A02
100
AcDbEntity
  8
Polyline056
100
AcDbLine
 10
274.226000000
 20
-45.338000000
 30
0.000000000
 11
288.226000000
 21
-45.338000000
 31
0.000000000
  0
LINE
  5
BDA
330
A02
100
AcDbEntity
  8
Polyline056
100
AcDbLine
 10
288.226000000
 20
-45.338000000
 30
0.000000000
 11
288.226000000
 21
-31.338000000
 31
0.000000000
  0
LINE
  5
BDB
330
A02
100
AcDbEntity
  8
Polyline056
100
AcDbLine
 10
288.226000000
 20
-31.338000000
 30
0.000000000
 11
274.226000000
 21
-31.338000000
 31
0.000000000
  0
LINE
  5
BDC
330
A02
100
AcDbEntity
  8
Polyline057
100
AcDbLine
 10
269.463000000
 20
-12.288000000
 30
0.000000000
 11
269.463000000
 21
-16.988000000
 31
0.000000000
  0
LINE
  5
BDD
330
A02
100
AcDbEntity
  8
Polyline057
100
AcDbLine
 10
269.463000000
 20
-16.988000000
 30
0.000000000
 11
267.938000000
 21
-16.988000000
 31
0.000000000
  0
LINE
  5
BDE
330
A02
100
AcDbEntity
  8
Polyline057
100
AcDbLine
 10
267.938000000
 20
-16.988000000
 30
0.000000000
 11
267.938000000
 21
-13.758000000
 31
0.000000000
  0
LINE
  5
BDF
330
A02
100
AcDbEntity
  8
Polyline057
100
AcDbLine
 10
267.938000000
 20
-13.758000000
 30
0.000000000
 11
261.188000000
 21
-13.758000000
 31
0.000000000
  0
LINE
  5
BE0
330
A02
100
AcDbEntity
  8
Polyline057
100
AcDbLine
 10
261.188000000
 20
-13.758000000
 30
0.000000000
 11
261.188000000
 21
-16.988000000
 31
0.000000000
  0
LINE
  5
BE1
330
A02
100
AcDbEntity
  8
Polyline057
100
AcDbLine
 10
261.188000000
 20
-16.988000000
 30
0.000000000
 11
260.363000000
 21
-16.988000000
 31
0.000000000
  0
LINE
  5
BE2
330
A02
100
AcDbEntity
  8
Polyline057
100
AcDbLine
 10
260.363000000
 20
-16.988000000
 30
0.000000000
 11
260.363000000
 21
-19.788000000
 31
0.000000000
  0
LINE
  5
BE3
330
A02
100
AcDbEntity
  8
Polyline057
100
AcDbLine
 10
260.363000000
 20
-19.788000000
 30
0.000000000
 11
261.188000000
 21
-19.788000000
 31
0.000000000
  0
LINE
  5
BE4
330
A02
100
AcDbEntity
  8
Polyline057
100
AcDbLine
 10
261.188000000
 20
-19.788000000
 30
0.000000000
 11
261.188000000
 21
-26.058000000
 31
0.000000000
  0
LINE
  5
BE5
330
A02
100
AcDbEntity
  8
Polyline057
100
AcDbLine
 10
261.188000000
 20
-26.058000000
 30
0.000000000
 11
262.913000000
 21
-26.058000000
 31
0.000000000
  0
LINE
  5
BE6
330
A02
100
AcDbEntity
  8
Polyline057
100
AcDbLine
 10
262.913000000
 20
-26.058000000
 30
0.000000000
 11
262.913000000
 21
-27.258000000
 31
0.000000000
  0
LINE
  5
BE7
330
A02
100
AcDbEntity
  8
Polyline057
100
AcDbLine
 10
262.913000000
 20
-27.258000000
 30
0.000000000
 11
266.213000000
 21
-27.258000000
 31
0.000000000
  0
LINE
  5
BE8
330
A02
100
AcDbEntity
  8
Polyline057
100
AcDbLine
 10
266.213000000
 20
-27.258000000
 30
0.000000000
 11
266.213000000
 21
-26.058000000
 31
0.000000000
  0
LINE
  5
BE9
330
A02
100
AcDbEntity
  8
Polyline057
100
AcDbLine
 10
266.213000000
 20
-26.058000000
 30
0.000000000
 11
267.938000000
 21
-26.058000000
 31
0.000000000
  0
LINE
  5
BEA
330
A02
100
AcDbEntity
  8
Polyline057
100
AcDbLine
 10
267.938000000
 20
-26.058000000
 30
0.000000000
 11
267.938000000
 21
-21.588000000
 31
0.000000000
  0
LINE
  5
BEB
330
A02
100
AcDbEntity
  8
Polyline057
100
AcDbLine
 10
267.938000000
 20
-21.588000000
 30
0.000000000
 11
269.463000000
 21
-21.588000000
 31
0.000000000
  0
LINE
  5
BEC
330
A02
100
AcDbEntity
  8
Polyline057
100
AcDbLine
 10
269.463000000
 20
-21.588000000
 30
0.000000000
 11
269.463000000
 21
-26.288000000
 31
0.000000000
  0
LINE
  5
BED
330
A02
100
AcDbEntity
  8
Polyline057
100
AcDbLine
 10
269.463000000
 20
-26.288000000
 30
0.000000000
 11
283.463000000
 21
-26.288000000
 31
0.000000000
  0
LINE
  5
BEE
330
A02
100
AcDbEntity
  8
Polyline057
100
AcDbLine
 10
283.463000000
 20
-26.288000000
 30
0.000000000
 11
283.463000000
 21
-21.588000000
 31
0.000000000
  0
LINE
  5
BEF
330
A02
100
AcDbEntity
  8
Polyline057
100
AcDbLine
 10
283.463000000
 20
-21.588000000
 30
0.000000000
 11
284.988000000
 21
-21.588000000
 31
0.000000000
  0
LINE
  5
BF0
330
A02
100
AcDbEntity
  8
Polyline057
100
AcDbLine
 10
284.988000000
 20
-21.588000000
 30
0.000000000
 11
284.988000000
 21
-26.058000000
 31
0.000000000
  0
LINE
  5
BF1
330
A02
100
AcDbEntity
  8
Polyline057
100
AcDbLine
 10
284.988000000
 20
-26.058000000
 30
0.000000000
 11
286.713000000
 21
-26.058000000
 31
0.000000000
  0
LINE
  5
BF2
330
A02
100
AcDbEntity
  8
Polyline057
100
AcDbLine
 10
286.713000000
 20
-26.058000000
 30
0.000000000
 11
286.713000000
 21
-27.258000000
 31
0.000000000
  0
LINE
  5
BF3
330
A02
100
AcDbEntity
  8
Polyline057
100
AcDbLine
 10
286.713000000
 20
-27.258000000
 30
0.000000000
 11
290.013000000
 21
-27.258000000
 31
0.000000000
  0
LINE
  5
BF4
330
A02
100
AcDbEntity
  8
Polyline057
100
AcDbLine
 10
290.013000000
 20
-27.258000000
 30
0.000000000
 11
290.013000000
 21
-26.058000000
 31
0.000000000
  0
LINE
  5
BF5
330
A02
100
AcDbEntity
  8
Polyline057
100
AcDbLine
 10
290.013000000
 20
-26.058000000
 30
0.000000000
 11
291.738000000
 21
-26.058000000
 31
0.000000000
  0
LINE
  5
BF6
330
A02
100
AcDbEntity
  8
Polyline057
100
AcDbLine
 10
291.738000000
 20
-26.058000000
 30
0.000000000
 11
291.738000000
 21
-19.788000000
 31
0.000000000
  0
LINE
  5
BF7
330
A02
100
AcDbEntity
  8
Polyline057
100
AcDbLine
 10
291.738000000
 20
-19.788000000
 30
0.000000000
 11
292.563000000
 21
-19.788000000
 31
0.000000000
  0
LINE
  5
BF8
330
A02
100
AcDbEntity
  8
Polyline057
100
AcDbLine
 10
292.563000000
 20
-19.788000000
 30
0.000000000
 11
292.563000000
 21
-16.988000000
 31
0.000000000
  0
LINE
  5
BF9
330
A02
100
AcDbEntity
  8
Polyline057
100
AcDbLine
 10
292.563000000
 20
-16.988000000
 30
0.000000000
 11
291.738000000
 21
-16.988000000
 31
0.000000000
  0
LINE
  5
BFA
330
A02
100
AcDbEntity
  8
Polyline057
100
AcDbLine
 10
291.738000000
 20
-16.988000000
 30
0.000000000
 11
291.738000000
 21
-13.758000000
 31
0.000000000
  0
LINE
  5
BFB
330
A02
100
AcDbEntity
  8
Polyline057
100
AcDbLine
 10
291.738000000
 20
-13.758000000
 30
0.000000000
 11
284.988000000
 21
-13.758000000
 31
0.000000000
  0
LINE
  5
BFC
330
A02
100
AcDbEntity
  8
Polyline057
100
AcDbLine
 10
284.988000000
 20
-13.758000000
 30
0.000000000
 11
284.988000000
 21
-16.988000000
 31
0.000000000
  0
LINE
  5
BFD
330
A02
100
AcDbEntity
  8
Polyline057
100
AcDbLine
 10
284.988000000
 20
-16.988000000
 30
0.000000000
 11
283.463000000
 21
-16.988000000
 31
0.000000000
  0
LINE
  5
BFE
330
A02
100
AcDbEntity
  8
Polyline057
100
AcDbLine
 10
283.463000000
 20
-16.988000000
 30
0.000000000
 11
283.463000000
 21
-12.288000000
 31
0.000000000
  0
LINE
  5
BFF
330
A02
100
AcDbEntity
  8
Polyline057
100
AcDbLine
 10
283.463000000
 20
-12.288000000
 30
0.000000000
 11
269.463000000
 21
-12.288000000
 31
0.000000000
  0
LINE
  5
C00
330
A02
100
AcDbEntity
  8
Polyline058
100
AcDbLine
 10
12.288000000
 20
-12.288000000
 30
0.000000000
 11
12.288000000
 21
-26.288000000
 31
0.000000000
  0
LINE
  5
C01
330
A02
100
AcDbEntity
  8
Polyline058
100
AcDbLine
 10
12.288000000
 20
-26.288000000
 30
0.000000000
 11
26.288000000
 21
-26.288000000
 31
0.000000000
  0
LINE
  5
C02
330
A02
100
AcDbEntity
  8
Polyline058
100
AcDbLine
 10
26.288000000
 20
-26.288000000
 30
0.000000000
 11
26.288000000
 21
-12.288000000
 31
0.000000000
  0
LINE
  5
C03
330
A02
100
AcDbEntity
  8
Polyline058
100
AcDbLine
 10
26.288000000
 20
-12.288000000
 30
0.000000000
 11
12.288000000
 21
-12.288000000
 31
0.000000000
  0
LINE
  5
C04
330
A02
100
AcDbEntity
  8
Polyline059
100
AcDbLine
 10
31.338000000
 20
-12.288000000
 30
0.000000000
 11
31.338000000
 21
-26.288000000
 31
0.000000000
  0
LINE
  5
C05
330
A02
100
AcDbEntity
  8
Polyline059
100
AcDbLine
 10
31.338000000
 20
-26.288000000
 30
0.000000000
 11
45.338000000
 21
-26.288000000
 31
0.000000000
  0
LINE
  5
C06
330
A02
100
AcDbEntity
  8
Polyline059
100
AcDbLine
 10
45.338000000
 20
-26.288000000
 30
0.000000000
 11
45.338000000
 21
-12.288000000
 31
0.000000000
  0
LINE
  5
C07
330
A02
100
AcDbEntity
  8
Polyline059
100
AcDbLine
 10
45.338000000
 20
-12.288000000
 30
0.000000000
 11
31.338000000
 21
-12.288000000
 31
0.000000000
  0
LINE
  5
C08
330
A02
100
AcDbEntity
  8
Polyline060
100
AcDbLine
 10
50.388000000
 20
-12.288000000
 30
0.000000000
 11
50.388000000
 21
-26.288000000
 31
0.000000000
  0
LINE
  5
C09
330
A02
100
AcDbEntity
  8
Polyline060
100
AcDbLine
 10
50.388000000
 20
-26.288000000
 30
0.000000000
 11
64.388000000
 21
-26.288000000
 31
0.000000000
  0
LINE
  5
C0A
330
A02
100
AcDbEntity
  8
Polyline060
100
AcDbLine
 10
64.388000000
 20
-26.288000000
 30
0.000000000
 11
64.388000000
 21
-12.288000000
 31
0.000000000
  0
LINE
  5
C0B
330
A02
100
AcDbEntity
  8
Polyline060
100
AcDbLine
 10
64.388000000
 20
-12.288000000
 30
0.000000000
 11
50.388000000
 21
-12.288000000
 31
0.000000000
  0
LINE
  5
C0C
330
A02
100
AcDbEntity
  8
Polyline061
100
AcDbLine
 10
69.438000000
 20
-12.288000000
 30
0.000000000
 11
69.438000000
 21
-26.288000000
 31
0.000000000
  0
LINE
  5
C0D
330
A02
100
AcDbEntity
  8
Polyline061
100
AcDbLine
 10
69.438000000
 20
-26.288000000
 30
0.000000000
 11
83.438000000
 21
-26.288000000
 31
0.000000000
  0
LINE
  5
C0E
330
A02
100
AcDbEntity
  8
Polyline061
100
AcDbLine
 10
83.438000000
 20
-26.288000000
 30
0.000000000
 11
83.438000000
 21
-12.288000000
 31
0.000000000
  0
LINE
  5
C0F
330
A02
100
AcDbEntity
  8
Polyline061
100
AcDbLine
 10
83.438000000
 20
-12.288000000
 30
0.000000000
 11
69.438000000
 21
-12.288000000
 31
0.000000000
  0
LINE
  5
C10
330
A02
100
AcDbEntity
  8
Polyline062
100
AcDbLine
 10
88.488000000
 20
-12.288000000
 30
0.000000000
 11
88.488000000
 21
-26.288000000
 31
0.000000000
  0
LINE
  5
C11
330
A02
100
AcDbEntity
  8
Polyline062
100
AcDbLine
 10
88.488000000
 20
-26.288000000
 30
0.000000000
 11
102.488000000
 21
-26.288000000
 31
0.000000000
  0
LINE
  5
C12
330
A02
100
AcDbEntity
  8
Polyline062
100
AcDbLine
 10
102.488000000
 20
-26.288000000
 30
0.000000000
 11
102.488000000
 21
-12.288000000
 31
0.000000000
  0
LINE
  5
C13
330
A02
100
AcDbEntity
  8
Polyline062
100
AcDbLine
 10
102.488000000
 20
-12.288000000
 30
0.000000000
 11
88.488000000
 21
-12.288000000
 31
0.000000000
  0
LINE
  5
C14
330
A02
100
AcDbEntity
  8
Polyline063
100
AcDbLine
 10
107.538000000
 20
-12.288000000
 30
0.000000000
 11
107.538000000
 21
-26.288000000
 31
0.000000000
  0
LINE
  5
C15
330
A02
100
AcDbEntity
  8
Polyline063
100
AcDbLine
 10
107.538000000
 20
-26.288000000
 30
0.000000000
 11
121.538000000
 21
-26.288000000
 31
0.000000000
  0
LINE
  5
C16
330
A02
100
AcDbEntity
  8
Polyline063
100
AcDbLine
 10
121.538000000
 20
-26.288000000
 30
0.000000000
 11
121.538000000
 21
-12.288000000
 31
0.000000000
  0
LINE
  5
C17
330
A02
100
AcDbEntity
  8
Polyline063
100
AcDbLine
 10
121.538000000
 20
-12.288000000
 30
0.000000000
 11
107.538000000
 21
-12.288000000
 31
0.000000000
  0
LINE
  5
C18
330
A02
100
AcDbEntity
  8
Polyline064
100
AcDbLine
 10
126.588000000
 20
-12.288000000
 30
0.000000000
 11
126.588000000
 21
-26.288000000
 31
0.000000000
  0
LINE
  5
C19
330
A02
100
AcDbEntity
  8
Polyline064
100
AcDbLine
 10
126.588000000
 20
-26.288000000
 30
0.000000000
 11
140.588000000
 21
-26.288000000
 31
0.000000000
  0
LINE
  5
C1A
330
A02
100
AcDbEntity
  8
Polyline064
100
AcDbLine
 10
140.588000000
 20
-26.288000000
 30
0.000000000
 11
140.588000000
 21
-12.288000000
 31
0.000000000
  0
LINE
  5
C1B
330
A02
100
AcDbEntity
  8
Polyline064
100
AcDbLine
 10
140.588000000
 20
-12.288000000
 30
0.000000000
 11
126.588000000
 21
-12.288000000
 31
0.000000000
  0
LINE
  5
C1C
330
A02
100
AcDbEntity
  8
Polyline065
100
AcDbLine
 10
145.638000000
 20
-12.288000000
 30
0.000000000
 11
145.638000000
 21
-26.288000000
 31
0.000000000
  0
LINE
  5
C1D
330
A02
100
AcDbEntity
  8
Polyline065
100
AcDbLine
 10
145.638000000
 20
-26.288000000
 30
0.000000000
 11
159.638000000
 21
-26.288000000
 31
0.000000000
  0
LINE
  5
C1E
330
A02
100
AcDbEntity
  8
Polyline065
100
AcDbLine
 10
159.638000000
 20
-26.288000000
 30
0.000000000
 11
159.638000000
 21
-12.288000000
 31
0.000000000
  0
LINE
  5
C1F
330
A02
100
AcDbEntity
  8
Polyline065
100
AcDbLine
 10
159.638000000
 20
-12.288000000
 30
0.000000000
 11
145.638000000
 21
-12.288000000
 31
0.000000000
  0
LINE
  5
C20
330
A02
100
AcDbEntity
  8
Polyline066
100
AcDbLine
 10
164.688000000
 20
-12.288000000
 30
0.000000000
 11
164.688000000
 21
-26.288000000
 31
0.000000000
  0
LINE
  5
C21
330
A02
100
AcDbEntity
  8
Polyline066
100
AcDbLine
 10
164.688000000
 20
-26.288000000
 30
0.000000000
 11
178.688000000
 21
-26.288000000
 31
0.000000000
  0
LINE
  5
C22
330
A02
100
AcDbEntity
  8
Polyline066
100
AcDbLine
 10
178.688000000
 20
-26.288000000
 30
0.000000000
 11
178.688000000
 21
-12.288000000
 31
0.000000000
  0
LINE
  5
C23
330
A02
100
AcDbEntity
  8
Polyline066
100
AcDbLine
 10
178.688000000
 20
-12.288000000
 30
0.000000000
 11
164.688000000
 21
-12.288000000
 31
0.000000000
  0
LINE
  5
C24
330
A02
100
AcDbEntity
  8
Polyline067
100
AcDbLine
 10
183.738000000
 20
-12.288000000
 30
0.000000000
 11
183.738000000
 21
-26.288000000
 31
0.000000000
  0
LINE
  5
C25
330
A02
100
AcDbEntity
  8
Polyline067
100
AcDbLine
 10
183.738000000
 20
-26.288000000
 30
0.000000000
 11
197.738000000
 21
-26.288000000
 31
0.000000000
  0
LINE
  5
C26
330
A02
100
AcDbEntity
  8
Polyline067
100
AcDbLine
 10
197.738000000
 20
-26.288000000
 30
0.000000000
 11
197.738000000
 21
-12.288000000
 31
0.000000000
  0
LINE
  5
C27
330
A02
100
AcDbEntity
  8
Polyline067
100
AcDbLine
 10
197.738000000
 20
-12.288000000
 30
0.000000000
 11
183.738000000
 21
-12.288000000
 31
0.000000000
  0
LINE
  5
C28
330
A02
100
AcDbEntity
  8
Polyline068
100
AcDbLine
 10
202.788000000
 20
-12.288000000
 30
0.000000000
 11
202.788000000
 21
-26.288000000
 31
0.000000000
  0
LINE
  5
C29
330
A02
100
AcDbEntity
  8
Polyline068
100
AcDbLine
 10
202.788000000
 20
-26.288000000
 30
0.000000000
 11
216.788000000
 21
-26.288000000
 31
0.000000000
  0
LINE
  5
C2A
330
A02
100
AcDbEntity
  8
Polyline068
100
AcDbLine
 10
216.788000000
 20
-26.288000000
 30
0.000000000
 11
216.788000000
 21
-12.288000000
 31
0.000000000
  0
LINE
  5
C2B
330
A02
100
AcDbEntity
  8
Polyline068
100
AcDbLine
 10
216.788000000
 20
-12.288000000
 30
0.000000000
 11
202.788000000
 21
-12.288000000
 31
0.000000000
  0
LINE
  5
C2C
330
A02
100
AcDbEntity
  8
Polyline069
100
AcDbLine
 10
221.838000000
 20
-12.288000000
 30
0.000000000
 11
221.838000000
 21
-26.288000000
 31
0.000000000
  0
LINE
  5
C2D
330
A02
100
AcDbEntity
  8
Polyline069
100
AcDbLine
 10
221.838000000
 20
-26.288000000
 30
0.000000000
 11
235.838000000
 21
-26.288000000
 31
0.000000000
  0
LINE
  5
C2E
330
A02
100
AcDbEntity
  8
Polyline069
100
AcDbLine
 10
235.838000000
 20
-26.288000000
 30
0.000000000
 11
235.838000000
 21
-12.288000000
 31
0.000000000
  0
LINE
  5
C2F
330
A02
100
AcDbEntity
  8
Polyline069
100
AcDbLine
 10
235.838000000
 20
-12.288000000
 30
0.000000000
 11
221.838000000
 21
-12.288000000
 31
0.000000000
  0
LINE
  5
C30
330
A02
100
AcDbEntity
  8
Polyline070
100
AcDbLine
 10
240.888000000
 20
-12.288000000
 30
0.000000000
 11
240.888000000
 21
-26.288000000
 31
0.000000000
  0
LINE
  5
C31
330
A02
100
AcDbEntity
  8
Polyline070
100
AcDbLine
 10
240.888000000
 20
-26.288000000
 30
0.000000000
 11
254.888000000
 21
-26.288000000
 31
0.000000000
  0
LINE
  5
C32
330
A02
100
AcDbEntity
  8
Polyline070
100
AcDbLine
 10
254.888000000
 20
-26.288000000
 30
0.000000000
 11
254.888000000
 21
-12.288000000
 31
0.000000000
  0
LINE
  5
C33
330
A02
100
AcDbEntity
  8
Polyline070
100
AcDbLine
 10
254.888000000
 20
-12.288000000
 30
0.000000000
 11
240.888000000
 21
-12.288000000
 31
0.000000000
  0
LINE
  5
C34
330
A02
100
AcDbEntity
  8
Polyline071
100
AcDbLine
 10
113.420000000
 20
-6.383000000
 30
0.000000000
 11
113.127000000
 21
-6.532000000
 31
0.000000000
  0
LINE
  5
C35
330
A02
100
AcDbEntity
  8
Polyline071
100
AcDbLine
 10
113.127000000
 20
-6.532000000
 30
0.000000000
 11
112.895000000
 21
-6.765000000
 31
0.000000000
  0
LINE
  5
C36
330
A02
100
AcDbEntity
  8
Polyline071
100
AcDbLine
 10
112.895000000
 20
-6.765000000
 30
0.000000000
 11
112.746000000
 21
-7.057000000
 31
0.000000000
  0
LINE
  5
C37
330
A02
100
AcDbEntity
  8
Polyline071
100
AcDbLine
 10
112.746000000
 20
-7.057000000
 30
0.000000000
 11
112.695000000
 21
-7.382000000
 31
0.000000000
  0
LINE
  5
C38
330
A02
100
AcDbEntity
  8
Polyline071
100
AcDbLine
 10
112.695000000
 20
-7.382000000
 30
0.000000000
 11
112.746000000
 21
-7.706000000
 31
0.000000000
  0
LINE
  5
C39
330
A02
100
AcDbEntity
  8
Polyline071
100
AcDbLine
 10
112.746000000
 20
-7.706000000
 30
0.000000000
 11
112.895000000
 21
-7.999000000
 31
0.000000000
  0
LINE
  5
C3A
330
A02
100
AcDbEntity
  8
Polyline071
100
AcDbLine
 10
112.895000000
 20
-7.999000000
 30
0.000000000
 11
113.127000000
 21
-8.231000000
 31
0.000000000
  0
LINE
  5
C3B
330
A02
100
AcDbEntity
  8
Polyline071
100
AcDbLine
 10
113.127000000
 20
-8.231000000
 30
0.000000000
 11
113.420000000
 21
-8.380000000
 31
0.000000000
  0
LINE
  5
C3C
330
A02
100
AcDbEntity
  8
Polyline071
100
AcDbLine
 10
113.420000000
 20
-8.380000000
 30
0.000000000
 11
113.745000000
 21
-8.432000000
 31
0.000000000
  0
LINE
  5
C3D
330
A02
100
AcDbEntity
  8
Polyline071
100
AcDbLine
 10
113.745000000
 20
-8.432000000
 30
0.000000000
 11
114.069000000
 21
-8.380000000
 31
0.000000000
  0
LINE
  5
C3E
330
A02
100
AcDbEntity
  8
Polyline071
100
AcDbLine
 10
114.069000000
 20
-8.380000000
 30
0.000000000
 11
114.362000000
 21
-8.231000000
 31
0.000000000
  0
LINE
  5
C3F
330
A02
100
AcDbEntity
  8
Polyline071
100
AcDbLine
 10
114.362000000
 20
-8.231000000
 30
0.000000000
 11
114.594000000
 21
-7.999000000
 31
0.000000000
  0
LINE
  5
C40
330
A02
100
AcDbEntity
  8
Polyline071
100
AcDbLine
 10
114.594000000
 20
-7.999000000
 30
0.000000000
 11
114.743000000
 21
-7.706000000
 31
0.000000000
  0
LINE
  5
C41
330
A02
100
AcDbEntity
  8
Polyline071
100
AcDbLine
 10
114.743000000
 20
-7.706000000
 30
0.000000000
 11
114.795000000
 21
-7.382000000
 31
0.000000000
  0
LINE
  5
C42
330
A02
100
AcDbEntity
  8
Polyline071
100
AcDbLine
 10
114.795000000
 20
-7.382000000
 30
0.000000000
 11
114.743000000
 21
-7.057000000
 31
0.000000000
  0
LINE
  5
C43
330
A02
100
AcDbEntity
  8
Polyline071
100
AcDbLine
 10
114.743000000
 20
-7.057000000
 30
0.000000000
 11
114.594000000
 21
-6.765000000
 31
0.000000000
  0
LINE
  5
C44
330
A02
100
AcDbEntity
  8
Polyline071
100
AcDbLine
 10
114.594000000
 20
-6.765000000
 30
0.000000000
 11
114.362000000
 21
-6.532000000
 31
0.000000000
  0
LINE
  5
C45
330
A02
100
AcDbEntity
  8
Polyline071
100
AcDbLine
 10
114.362000000
 20
-6.532000000
 30
0.000000000
 11
114.069000000
 21
-6.383000000
 31
0.000000000
  0
LINE
  5
C46
330
A02
100
AcDbEntity
  8
Polyline071
100
AcDbLine
 10
114.069000000
 20
-6.383000000
 30
0.000000000
 11
113.745000000
 21
-6.332000000
 31
0.000000000
  0
LINE
  5
C47
330
A02
100
AcDbEntity
  8
Polyline071
100
AcDbLine
 10
113.745000000
 20
-6.332000000
 30
0.000000000
 11
113.420000000
 21
-6.383000000
 31
0.000000000
  0
LINE
  5
C48
330
A02
100
AcDbEntity
  8
Polyline072
100
AcDbLine
 10
219.783000000
 20
-6.383000000
 30
0.000000000
 11
219.490000000
 21
-6.532000000
 31
0.000000000
  0
LINE
  5
C49
330
A02
100
AcDbEntity
  8
Polyline072
100
AcDbLine
 10
219.490000000
 20
-6.532000000
 30
0.000000000
 11
219.258000000
 21
-6.765000000
 31
0.000000000
  0
LINE
  5
C4A
330
A02
100
AcDbEntity
  8
Polyline072
100
AcDbLine
 10
219.258000000
 20
-6.765000000
 30
0.000000000
 11
219.109000000
 21
-7.057000000
 31
0.000000000
  0
LINE
  5
C4B
330
A02
100
AcDbEntity
  8
Polyline072
100
AcDbLine
 10
219.109000000
 20
-7.057000000
 30
0.000000000
 11
219.057000000
 21
-7.382000000
 31
0.000000000
  0
LINE
  5
C4C
330
A02
100
AcDbEntity
  8
Polyline072
100
AcDbLine
 10
219.057000000
 20
-7.382000000
 30
0.000000000
 11
219.109000000
 21
-7.706000000
 31
0.000000000
  0
LINE
  5
C4D
330
A02
100
AcDbEntity
  8
Polyline072
100
AcDbLine
 10
219.109000000
 20
-7.706000000
 30
0.000000000
 11
219.258000000
 21
-7.999000000
 31
0.000000000
  0
LINE
  5
C4E
330
A02
100
AcDbEntity
  8
Polyline072
100
AcDbLine
 10
219.258000000
 20
-7.999000000
 30
0.000000000
 11
219.490000000
 21
-8.231000000
 31
0.000000000
  0
LINE
  5
C4F
330
A02
100
AcDbEntity
  8
Polyline072
100
AcDbLine
 10
219.490000000
 20
-8.231000000
 30
0.000000000
 11
219.783000000
 21
-8.380000000
 31
0.000000000
  0
LINE
  5
C50
330
A02
100
AcDbEntity
  8
Polyline072
100
AcDbLine
 10
219.783000000
 20
-8.380000000
 30
0.000000000
 11
220.107000000
 21
-8.432000000
 31
0.000000000
  0
LINE
  5
C51
330
A02
100
AcDbEntity
  8
Polyline072
100
AcDbLine
 10
220.107000000
 20
-8.432000000
 30
0.000000000
 11
220.432000000
 21
-8.380000000
 31
0.000000000
  0
LINE
  5
C52
330
A02
100
AcDbEntity
  8
Polyline072
100
AcDbLine
 10
220.432000000
 20
-8.380000000
 30
0.000000000
 11
220.725000000
 21
-8.231000000
 31
0.000000000
  0
LINE
  5
C53
330
A02
100
AcDbEntity
  8
Polyline072
100
AcDbLine
 10
220.725000000
 20
-8.231000000
 30
0.000000000
 11
220.957000000
 21
-7.999000000
 31
0.000000000
  0
LINE
  5
C54
330
A02
100
AcDbEntity
  8
Polyline072
100
AcDbLine
 10
220.957000000
 20
-7.999000000
 30
0.000000000
 11
221.106000000
 21
-7.706000000
 31
0.000000000
  0
LINE
  5
C55
330
A02
100
AcDbEntity
  8
Polyline072
100
AcDbLine
 10
221.106000000
 20
-7.706000000
 30
0.000000000
 11
221.157000000
 21
-7.382000000
 31
0.000000000
  0
LINE
  5
C56
330
A02
100
AcDbEntity
  8
Polyline072
100
AcDbLine
 10
221.157000000
 20
-7.382000000
 30
0.000000000
 11
221.106000000
 21
-7.057000000
 31
0.000000000
  0
LINE
  5
C57
330
A02
100
AcDbEntity
  8
Polyline072
100
AcDbLine
 10
221.106000000
 20
-7.057000000
 30
0.000000000
 11
220.957000000
 21
-6.765000000
 31
0.000000000
  0
LINE
  5
C58
330
A02
100
AcDbEntity
  8
Polyline072
100
AcDbLine
 10
220.957000000
 20
-6.765000000
 30
0.000000000
 11
220.725000000
 21
-6.532000000
 31
0.000000000
  0
LINE
  5
C59
330
A02
100
AcDbEntity
  8
Polyline072
100
AcDbLine
 10
220.725000000
 20
-6.532000000
 30
0.000000000
 11
220.432000000
 21
-6.383000000
 31
0.000000000
  0
LINE
  5
C5A
330
A02
100
AcDbEntity
  8
Polyline072
100
AcDbLine
 10
220.432000000
 20
-6.383000000
 30
0.000000000
 11
220.107000000
 21
-6.332000000
 31
0.000000000
  0
LINE
  5
C5B
330
A02
100
AcDbEntity
  8
Polyline072
100
AcDbLine
 10
220.107000000
 20
-6.332000000
 30
0.000000000
 11
219.783000000
 21
-6.383000000
 31
0.000000000
  0
LINE
  5
C5C
330
A02
100
AcDbEntity
  8
Polyline073
100
AcDbLine
 10
326.146000000
 20
-6.383000000
 30
0.000000000
 11
325.853000000
 21
-6.532000000
 31
0.000000000
  0
LINE
  5
C5D
330
A02
100
AcDbEntity
  8
Polyline073
100
AcDbLine
 10
325.853000000
 20
-6.532000000
 30
0.000000000
 11
325.621000000
 21
-6.765000000
 31
0.000000000
  0
LINE
  5
C5E
330
A02
100
AcDbEntity
  8
Polyline073
100
AcDbLine
 10
325.621000000
 20
-6.765000000
 30
0.000000000
 11
325.472000000
 21
-7.057000000
 31
0.000000000
  0
LINE
  5
C5F
330
A02
100
AcDbEntity
  8
Polyline073
100
AcDbLine
 10
325.472000000
 20
-7.057000000
 30
0.000000000
 11
325.420000000
 21
-7.382000000
 31
0.000000000
  0
LINE
  5
C60
330
A02
100
AcDbEntity
  8
Polyline073
100
AcDbLine
 10
325.420000000
 20
-7.382000000
 30
0.000000000
 11
325.472000000
 21
-7.706000000
 31
0.000000000
  0
LINE
  5
C61
330
A02
100
AcDbEntity
  8
Polyline073
100
AcDbLine
 10
325.472000000
 20
-7.706000000
 30
0.000000000
 11
325.621000000
 21
-7.999000000
 31
0.000000000
  0
LINE
  5
C62
330
A02
100
AcDbEntity
  8
Polyline073
100
AcDbLine
 10
325.621000000
 20
-7.999000000
 30
0.000000000
 11
325.853000000
 21
-8.231000000
 31
0.000000000
  0
LINE
  5
C63
330
A02
100
AcDbEntity
  8
Polyline073
100
AcDbLine
 10
325.853000000
 20
-8.231000000
 30
0.000000000
 11
326.146000000
 21
-8.380000000
 31
0.000000000
  0
LINE
  5
C64
330
A02
100
AcDbEntity
  8
Polyline073
100
AcDbLine
 10
326.146000000
 20
-8.380000000
 30
0.000000000
 11
326.470000000
 21
-8.432000000
 31
0.000000000
  0
LINE
  5
C65
330
A02
100
AcDbEntity
  8
Polyline073
100
AcDbLine
 10
326.470000000
 20
-8.432000000
 30
0.000000000
 11
326.795000000
 21
-8.380000000
 31
0.000000000
  0
LINE
  5
C66
330
A02
100
AcDbEntity
  8
Polyline073
100
AcDbLine
 10
326.795000000
 20
-8.380000000
 30
0.000000000
 11
327.087000000
 21
-8.231000000
 31
0.000000000
  0
LINE
  5
C67
330
A02
100
AcDbEntity
  8
Polyline073
100
AcDbLine
 10
327.087000000
 20
-8.231000000
 30
0.000000000
 11
327.320000000
 21
-7.999000000
 31
0.000000000
  0
LINE
  5
C68
330
A02
100
AcDbEntity
  8
Polyline073
100
AcDbLine
 10
327.320000000
 20
-7.999000000
 30
0.000000000
 11
327.469000000
 21
-7.706000000
 31
0.000000000
  0
LINE
  5
C69
330
A02
100
AcDbEntity
  8
Polyline073
100
AcDbLine
 10
327.469000000
 20
-7.706000000
 30
0.000000000
 11
327.520000000
 21
-7.382000000
 31
0.000000000
  0
LINE
  5
C6A
330
A02
100
AcDbEntity
  8
Polyline073
100
AcDbLine
 10
327.520000000
 20
-7.382000000
 30
0.000000000
 11
327.469000000
 21
-7.057000000
 31
0.000000000
  0
LINE
  5
C6B
330
A02
100
AcDbEntity
  8
Polyline073
100
AcDbLine
 10
327.469000000
 20
-7.057000000
 30
0.000000000
 11
327.320000000
 21
-6.765000000
 31
0.000000000
  0
LINE
  5
C6C
330
A02
100
AcDbEntity
  8
Polyline073
100
AcDbLine
 10
327.320000000
 20
-6.765000000
 30
0.000000000
 11
327.087000000
 21
-6.532000000
 31
0.000000000
  0
LINE
  5
C6D
330
A02
100
AcDbEntity
  8
Polyline073
100
AcDbLine
 10
327.087000000
 20
-6.532000000
 30
0.000000000
 11
326.795000000
 21
-6.383000000
 31
0.000000000
  0
LINE
  5
C6E
330
A02
100
AcDbEntity
  8
Polyline073
100
AcDbLine
 10
326.795000000
 20
-6.383000000
 30
0.000000000
 11
326.470000000
 21
-6.332000000
 31
0.000000000
  0
LINE
  5
C6F
330
A02
100
AcDbEntity
  8
Polyline073
100
AcDbLine
 10
326.470000000
 20
-6.332000000
 30
0.000000000
 11
326.146000000
 21
-6.383000000
 31
0.000000000
  0
LINE
  5
C70
330
A02
100
AcDbEntity
  8
Polyline074
100
AcDbLine
 10
7.057000000
 20
-6.383000000
 30
0.000000000
 11
6.765000000
 21
-6.532000000
 31
0.000000000
  0
LINE
  5
C71
330
A02
100
AcDbEntity
  8
Polyline074
100
AcDbLine
 10
6.765000000
 20
-6.532000000
 30
0.000000000
 11
6.532000000
 21
-6.765000000
 31
0.000000000
  0
LINE
  5
C72
330
A02
100
AcDbEntity
  8
Polyline074
100
AcDbLine
 10
6.532000000
 20
-6.765000000
 30
0.000000000
 11
6.383000000
 21
-7.057000000
 31
0.000000000
  0
LINE
  5
C73
330
A02
100
AcDbEntity
  8
Polyline074
100
AcDbLine
 10
6.383000000
 20
-7.057000000
 30
0.000000000
 11
6.332000000
 21
-7.382000000
 31
0.000000000
  0
LINE
  5
C74
330
A02
100
AcDbEntity
  8
Polyline074
100
AcDbLine
 10
6.332000000
 20
-7.382000000
 30
0.000000000
 11
6.383000000
 21
-7.706000000
 31
0.000000000
  0
LINE
  5
C75
330
A02
100
AcDbEntity
  8
Polyline074
100
AcDbLine
 10
6.383000000
 20
-7.706000000
 30
0.000000000
 11
6.532000000
 21
-7.999000000
 31
0.000000000
  0
LINE
  5
C76
330
A02
100
AcDbEntity
  8
Polyline074
100
AcDbLine
 10
6.532000000
 20
-7.999000000
 30
0.000000000
 11
6.765000000
 21
-8.231000000
 31
0.000000000
  0
LINE
  5
C77
330
A02
100
AcDbEntity
  8
Polyline074
100
AcDbLine
 10
6.765000000
 20
-8.231000000
 30
0.000000000
 11
7.057000000
 21
-8.380000000
 31
0.000000000
  0
LINE
  5
C78
330
A02
100
AcDbEntity
  8
Polyline074
100
AcDbLine
 10
7.057000000
 20
-8.380000000
 30
0.000000000
 11
7.382000000
 21
-8.432000000
 31
0.000000000
  0
LINE
  5
C79
330
A02
100
AcDbEntity
  8
Polyline074
100
AcDbLine
 10
7.382000000
 20
-8.432000000
 30
0.000000000
 11
7.706000000
 21
-8.380000000
 31
0.000000000
  0
LINE
  5
C7A
330
A02
100
AcDbEntity
  8
Polyline074
100
AcDbLine
 10
7.706000000
 20
-8.380000000
 30
0.000000000
 11
7.999000000
 21
-8.231000000
 31
0.000000000
  0
LINE
  5
C7B
330
A02
100
AcDbEntity
  8
Polyline074
100
AcDbLine
 10
7.999000000
 20
-8.231000000
 30
0.000000000
 11
8.231000000
 21
-7.999000000
 31
0.000000000
  0
LINE
  5
C7C
330
A02
100
AcDbEntity
  8
Polyline074
100
AcDbLine
 10
8.231000000
 20
-7.999000000
 30
0.000000000
 11
8.380000000
 21
-7.706000000
 31
0.000000000
  0
LINE
  5
C7D
330
A02
100
AcDbEntity
  8
Polyline074
100
AcDbLine
 10
8.380000000
 20
-7.706000000
 30
0.000000000
 11
8.432000000
 21
-7.382000000
 31
0.000000000
  0
LINE
  5
C7E
330
A02
100
AcDbEntity
  8
Polyline074
100
AcDbLine
 10
8.432000000
 20
-7.382000000
 30
0.000000000
 11
8.380000000
 21
-7.057000000
 31
0.000000000
  0
LINE
  5
C7F
330
A02
100
AcDbEntity
  8
Polyline074
100
AcDbLine
 10
8.380000000
 20
-7.057000000
 30
0.000000000
 11
8.231000000
 21
-6.765000000
 31
0.000000000
  0
LINE
  5
C80
330
A02
100
AcDbEntity
  8
Polyline074
100
AcDbLine
 10
8.231000000
 20
-6.765000000
 30
0.000000000
 11
7.999000000
 21
-6.532000000
 31
0.000000000
  0
LINE
  5
C81
330
A02
100
AcDbEntity
  8
Polyline074
100
AcDbLine
 10
7.999000000
 20
-6.532000000
 30
0.000000000
 11
7.706000000
 21
-6.383000000
 31
0.000000000
  0
LINE
  5
C82
330
A02
100
AcDbEntity
  8
Polyline074
100
AcDbLine
 10
7.706000000
 20
-6.383000000
 30
0.000000000
 11
7.382000000
 21
-6.332000000
 31
0.000000000
  0
LINE
  5
C83
330
A02
100
AcDbEntity
  8
Polyline074
100
AcDbLine
 10
7.382000000
 20
-6.332000000
 30
0.000000000
 11
7.057000000
 21
-6.383000000
 31
0.000000000
  0
ENDSEC
  0
SECTION
  2
OBJECTS
  0
DICTIONARY
  5
F000
330
0
100
AcDbDictionary
  3
ACAD_GROUP
350
F001
  0
DICTIONARY
  5
F001
330
F000
100
AcDbDictionary
  0
ENDSEC
  0
EOF