  0
SECTION
  2
HEADER
  9
$ACADVER
  1
AC1009
  9
$FILLMODE
 70
 0
  9
$SPLFRAME
 70
 1
  9
$EXTMIN
 10
0
 20
0
 30
0.0
  9
$EXTMAX
 10
1058.33
 20
1058.33
 30
0.0
  0
ENDSEC
  0
SECTION
  2
TABLES
  0
TABLE
  2
LAYER
 70
1
  0
LAYER
  2
0
 70
     0
 62
     7
  6
CONTINUOUS
  0
ENDTAB
  0
ENDSEC
  0
SECTION
  2
ENTITIES
  0
LINE
  8
0
 62
     0
 10
321.564
 20
109.971
 30
0.0
 11
321.751
 21
109.965
 31
0.0
  0
LINE
  8
0
 62
     0
 10
321.751
 20
109.965
 30
0.0
 11
321.937
 21
109.942
 31
0.0
  0
LINE
  8
0
 62
     0
 10
321.937
 20
109.942
 30
0.0
 11
322.121
 21
109.907
 31
0.0
  0
LINE
  8
0
 62
     0
 10
322.121
 20
109.907
 30
0.0
 11
322.301
 21
109.856
 31
0.0
  0
LINE
  8
0
 62
     0
 10
322.301
 20
109.856
 30
0.0
 11
322.476
 21
109.79
 31
0.0
  0
LINE
  8
0
 62
     0
 10
322.476
 20
109.79
 30
0.0
 11
322.646
 21
109.712
 31
0.0
  0
LINE
  8
0
 62
     0
 10
322.646
 20
109.712
 30
0.0
 11
322.808
 21
109.621
 31
0.0
  0
LINE
  8
0
 62
     0
 10
322.808
 20
109.621
 30
0.0
 11
322.964
 21
109.517
 31
0.0
  0
LINE
  8
0
 62
     0
 10
322.964
 20
109.517
 30
0.0
 11
323.111
 21
109.401
 31
0.0
  0
LINE
  8
0
 62
     0
 10
323.111
 20
109.401
 30
0.0
 11
323.249
 21
109.274
 31
0.0
  0
LINE
  8
0
 62
     0
 10
323.249
 20
109.274
 30
0.0
 11
323.376
 21
109.136
 31
0.0
  0
LINE
  8
0
 62
     0
 10
323.376
 20
109.136
 30
0.0
 11
323.492
 21
108.99
 31
0.0
  0
LINE
  8
0
 62
     0
 10
323.492
 20
108.99
 30
0.0
 11
323.595
 21
108.835
 31
0.0
  0
LINE
  8
0
 62
     0
 10
323.595
 20
108.835
 30
0.0
 11
323.686
 21
108.671
 31
0.0
  0
LINE
  8
0
 62
     0
 10
323.686
 20
108.671
 30
0.0
 11
323.765
 21
108.502
 31
0.0
  0
LINE
  8
0
 62
     0
 10
323.765
 20
108.502
 30
0.0
 11
323.829
 21
108.326
 31
0.0
  0
LINE
  8
0
 62
     0
 10
323.829
 20
108.326
 30
0.0
 11
323.88
 21
108.146
 31
0.0
  0
LINE
  8
0
 62
     0
 10
323.88
 20
108.146
 30
0.0
 11
323.916
 21
107.964
 31
0.0
  0
LINE
  8
0
 62
     0
 10
323.916
 20
107.964
 30
0.0
 11
323.938
 21
107.778
 31
0.0
  0
LINE
  8
0
 62
     0
 10
323.938
 20
107.778
 30
0.0
 11
323.946
 21
107.59
 31
0.0
  0
LINE
  8
0
 62
     0
 10
323.946
 20
107.59
 30
0.0
 11
323.946
 21
2.81395
 31
0.0
  0
LINE
  8
0
 62
     0
 10
323.946
 20
2.81395
 30
0.0
 11
323.938
 21
2.62654
 31
0.0
  0
LINE
  8
0
 62
     0
 10
323.938
 20
2.62654
 30
0.0
 11
323.916
 21
2.44189
 31
0.0
  0
LINE
  8
0
 62
     0
 10
323.916
 20
2.44189
 30
0.0
 11
323.88
 21
2.2586
 31
0.0
  0
LINE
  8
0
 62
     0
 10
323.88
 20
2.2586
 30
0.0
 11
323.829
 21
2.07808
 31
0.0
  0
LINE
  8
0
 62
     0
 10
323.829
 20
2.07808
 30
0.0
 11
323.765
 21
1.90307
 31
0.0
  0
LINE
  8
0
 62
     0
 10
323.765
 20
1.90307
 30
0.0
 11
323.686
 21
1.73357
 31
0.0
  0
LINE
  8
0
 62
     0
 10
323.686
 20
1.73357
 30
0.0
 11
323.595
 21
1.56959
 31
0.0
  0
LINE
  8
0
 62
     0
 10
323.595
 20
1.56959
 30
0.0
 11
323.492
 21
1.41525
 31
0.0
  0
LINE
  8
0
 62
     0
 10
323.492
 20
1.41525
 30
0.0
 11
323.376
 21
1.2678
 31
0.0
  0
LINE
  8
0
 62
     0
 10
323.376
 20
1.2678
 30
0.0
 11
323.249
 21
1.12999
 31
0.0
  0
LINE
  8
0
 62
     0
 10
323.249
 20
1.12999
 30
0.0
 11
323.111
 21
1.00459
 31
0.0
  0
LINE
  8
0
 62
     0
 10
323.111
 20
1.00459
 30
0.0
 11
322.964
 21
0.888834
 31
0.0
  0
LINE
  8
0
 62
     0
 10
322.964
 20
0.888834
 30
0.0
 11
322.808
 21
0.784105
 31
0.0
  0
LINE
  8
0
 62
     0
 10
322.808
 20
0.784105
 30
0.0
 11
322.646
 21
0.693152
 31
0.0
  0
LINE
  8
0
 62
     0
 10
322.646
 20
0.693152
 30
0.0
 11
322.476
 21
0.614606
 31
0.0
  0
LINE
  8
0
 62
     0
 10
322.476
 20
0.614606
 30
0.0
 11
322.301
 21
0.549836
 31
0.0
  0
LINE
  8
0
 62
     0
 10
322.301
 20
0.549836
 30
0.0
 11
322.121
 21
0.498849
 31
0.0
  0
LINE
  8
0
 62
     0
 10
322.121
 20
0.498849
 30
0.0
 11
321.937
 21
0.461641
 31
0.0
  0
LINE
  8
0
 62
     0
 10
321.937
 20
0.461641
 30
0.0
 11
321.751
 21
0.439593
 31
0.0
  0
LINE
  8
0
 62
     0
 10
321.751
 20
0.439593
 30
0.0
 11
321.564
 21
0.432703
 31
0.0
  0
LINE
  8
0
 62
     0
 10
321.564
 20
0.432703
 30
0.0
 11
2.47633
 21
0.432703
 31
0.0
  0
LINE
  8
0
 62
     0
 10
2.47633
 20
0.432703
 30
0.0
 11
2.28892
 21
0.439593
 31
0.0
  0
LINE
  8
0
 62
     0
 10
2.28892
 20
0.439593
 30
0.0
 11
2.10289
 21
0.461641
 31
0.0
  0
LINE
  8
0
 62
     0
 10
2.10289
 20
0.461641
 30
0.0
 11
1.92098
 21
0.498849
 31
0.0
  0
LINE
  8
0
 62
     0
 10
1.92098
 20
0.498849
 30
0.0
 11
1.74046
 21
0.549836
 31
0.0
  0
LINE
  8
0
 62
     0
 10
1.74046
 20
0.549836
 30
0.0
 11
1.56407
 21
0.614606
 31
0.0
  0
LINE
  8
0
 62
     0
 10
1.56407
 20
0.614606
 30
0.0
 11
1.39595
 21
0.693152
 31
0.0
  0
LINE
  8
0
 62
     0
 10
1.39595
 20
0.693152
 30
0.0
 11
1.23197
 21
0.784105
 31
0.0
  0
LINE
  8
0
 62
     0
 10
1.23197
 20
0.784105
 30
0.0
 11
1.07625
 21
0.888834
 31
0.0
  0
LINE
  8
0
 62
     0
 10
1.07625
 20
0.888834
 30
0.0
 11
0.930176
 21
1.00459
 31
0.0
  0
LINE
  8
0
 62
     0
 10
0.930176
 20
1.00459
 30
0.0
 11
0.792371
 21
1.12999
 31
0.0
  0
LINE
  8
0
 62
     0
 10
0.792371
 20
1.12999
 30
0.0
 11
0.665593
 21
1.2678
 31
0.0
  0
LINE
  8
0
 62
     0
 10
0.665593
 20
1.2678
 30
0.0
 11
0.549836
 21
1.41525
 31
0.0
  0
LINE
  8
0
 62
     0
 10
0.549836
 20
1.41525
 30
0.0
 11
0.445107
 21
1.56959
 31
0.0
  0
LINE
  8
0
 62
     0
 10
0.445107
 20
1.56959
 30
0.0
 11
0.354157
 21
1.73357
 31
0.0
  0
LINE
  8
0
 62
     0
 10
0.354157
 20
1.73357
 30
0.0
 11
0.276986
 21
1.90307
 31
0.0
  0
LINE
  8
0
 62
     0
 10
0.276986
 20
1.90307
 30
0.0
 11
0.21084
 21
2.07808
 31
0.0
  0
LINE
  8
0
 62
     0
 10
0.21084
 20
2.07808
 30
0.0
 11
0.159852
 21
2.2586
 31
0.0
  0
LINE
  8
0
 62
     0
 10
0.159852
 20
2.2586
 30
0.0
 11
0.124024
 21
2.44189
 31
0.0
  0
LINE
  8
0
 62
     0
 10
0.124024
 20
2.44189
 30
0.0
 11
0.101975
 21
2.62654
 31
0.0
  0
LINE
  8
0
 62
     0
 10
0.101975
 20
2.62654
 30
0.0
 11
0.0950846
 21
2.81395
 31
0.0
  0
LINE
  8
0
 62
     0
 10
0.0950846
 20
2.81395
 30
0.0
 11
0.0950846
 21
107.59
 31
0.0
  0
LINE
  8
0
 62
     0
 10
0.0950846
 20
107.59
 30
0.0
 11
0.101975
 21
107.778
 31
0.0
  0
LINE
  8
0
 62
     0
 10
0.101975
 20
107.778
 30
0.0
 11
0.124024
 21
107.964
 31
0.0
  0
LINE
  8
0
 62
     0
 10
0.124024
 20
107.964
 30
0.0
 11
0.159852
 21
108.146
 31
0.0
  0
LINE
  8
0
 62
     0
 10
0.159852
 20
108.146
 30
0.0
 11
0.21084
 21
108.326
 31
0.0
  0
LINE
  8
0
 62
     0
 10
0.21084
 20
108.326
 30
0.0
 11
0.276986
 21
108.502
 31
0.0
  0
LINE
  8
0
 62
     0
 10
0.276986
 20
108.502
 30
0.0
 11
0.354157
 21
108.671
 31
0.0
  0
LINE
  8
0
 62
     0
 10
0.354157
 20
108.671
 30
0.0
 11
0.445107
 21
108.835
 31
0.0
  0
LINE
  8
0
 62
     0
 10
0.445107
 20
108.835
 30
0.0
 11
0.549836
 21
108.99
 31
0.0
  0
LINE
  8
0
 62
     0
 10
0.549836
 20
108.99
 30
0.0
 11
0.665593
 21
109.136
 31
0.0
  0
LINE
  8
0
 62
     0
 10
0.665593
 20
109.136
 30
0.0
 11
0.792371
 21
109.274
 31
0.0
  0
LINE
  8
0
 62
     0
 10
0.792371
 20
109.274
 30
0.0
 11
0.930176
 21
109.401
 31
0.0
  0
LINE
  8
0
 62
     0
 10
0.930176
 20
109.401
 30
0.0
 11
1.07625
 21
109.517
 31
0.0
  0
LINE
  8
0
 62
     0
 10
1.07625
 20
109.517
 30
0.0
 11
1.23197
 21
109.621
 31
0.0
  0
LINE
  8
0
 62
     0
 10
1.23197
 20
109.621
 30
0.0
 11
1.39595
 21
109.712
 31
0.0
  0
LINE
  8
0
 62
     0
 10
1.39595
 20
109.712
 30
0.0
 11
1.56407
 21
109.79
 31
0.0
  0
LINE
  8
0
 62
     0
 10
1.56407
 20
109.79
 30
0.0
 11
1.74046
 21
109.856
 31
0.0
  0
LINE
  8
0
 62
     0
 10
1.74046
 20
109.856
 30
0.0
 11
1.92098
 21
109.907
 31
0.0
  0
LINE
  8
0
 62
     0
 10
1.92098
 20
109.907
 30
0.0
 11
2.10289
 21
109.942
 31
0.0
  0
LINE
  8
0
 62
     0
 10
2.10289
 20
109.942
 30
0.0
 11
2.28892
 21
109.965
 31
0.0
  0
LINE
  8
0
 62
     0
 10
2.28892
 20
109.965
 30
0.0
 11
2.47633
 21
109.971
 31
0.0
  0
LINE
  8
0
 62
     0
 10
2.47633
 20
109.971
 30
0.0
 11
321.564
 21
109.971
 31
0.0
  0
LINE
  8
0
 62
     0
 10
321.225
 20
3.85988
 30
0.0
 11
320.919
 21
3.70417
 31
0.0
  0
LINE
  8
0
 62
     0
 10
320.919
 20
3.70417
 30
0.0
 11
320.675
 21
3.46163
 31
0.0
  0
LINE
  8
0
 62
     0
 10
320.675
 20
3.46163
 30
0.0
 11
320.518
 21
3.15433
 31
0.0
  0
LINE
  8
0
 62
     0
 10
320.518
 20
3.15433
 30
0.0
 11
320.464
 21
2.81395
 31
0.0
  0
LINE
  8
0
 62
     0
 10
320.464
 20
2.81395
 30
0.0
 11
320.518
 21
2.47358
 31
0.0
  0
LINE
  8
0
 62
     0
 10
320.518
 20
2.47358
 30
0.0
 11
320.675
 21
2.16765
 31
0.0
  0
LINE
  8
0
 62
     0
 10
320.675
 20
2.16765
 30
0.0
 11
320.919
 21
1.92374
 31
0.0
  0
LINE
  8
0
 62
     0
 10
320.919
 20
1.92374
 30
0.0
 11
321.225
 21
1.76802
 31
0.0
  0
LINE
  8
0
 62
     0
 10
321.225
 20
1.76802
 30
0.0
 11
321.564
 21
1.71428
 31
0.0
  0
LINE
  8
0
 62
     0
 10
321.564
 20
1.71428
 30
0.0
 11
321.904
 21
1.76802
 31
0.0
  0
LINE
  8
0
 62
     0
 10
321.904
 20
1.76802
 30
0.0
 11
322.211
 21
1.92374
 31
0.0
  0
LINE
  8
0
 62
     0
 10
322.211
 20
1.92374
 30
0.0
 11
322.454
 21
2.16765
 31
0.0
  0
LINE
  8
0
 62
     0
 10
322.454
 20
2.16765
 30
0.0
 11
322.611
 21
2.47358
 31
0.0
  0
LINE
  8
0
 62
     0
 10
322.611
 20
2.47358
 30
0.0
 11
322.665
 21
2.81395
 31
0.0
  0
LINE
  8
0
 62
     0
 10
322.665
 20
2.81395
 30
0.0
 11
322.611
 21
3.15433
 31
0.0
  0
LINE
  8
0
 62
     0
 10
322.611
 20
3.15433
 30
0.0
 11
322.454
 21
3.46163
 31
0.0
  0
LINE
  8
0
 62
     0
 10
322.454
 20
3.46163
 30
0.0
 11
322.211
 21
3.70417
 31
0.0
  0
LINE
  8
0
 62
     0
 10
322.211
 20
3.70417
 30
0.0
 11
321.904
 21
3.85988
 31
0.0
  0
LINE
  8
0
 62
     0
 10
321.904
 20
3.85988
 30
0.0
 11
321.564
 21
3.91365
 31
0.0
  0
LINE
  8
0
 62
     0
 10
321.564
 20
3.91365
 30
0.0
 11
321.225
 21
3.85988
 31
0.0
  0
LINE
  8
0
 62
     0
 10
214.861
 20
3.85988
 30
0.0
 11
214.555
 21
3.70417
 31
0.0
  0
LINE
  8
0
 62
     0
 10
214.555
 20
3.70417
 30
0.0
 11
214.311
 21
3.46163
 31
0.0
  0
LINE
  8
0
 62
     0
 10
214.311
 20
3.46163
 30
0.0
 11
214.156
 21
3.15433
 31
0.0
  0
LINE
  8
0
 62
     0
 10
214.156
 20
3.15433
 30
0.0
 11
214.102
 21
2.81395
 31
0.0
  0
LINE
  8
0
 62
     0
 10
214.102
 20
2.81395
 30
0.0
 11
214.156
 21
2.47358
 31
0.0
  0
LINE
  8
0
 62
     0
 10
214.156
 20
2.47358
 30
0.0
 11
214.311
 21
2.16765
 31
0.0
  0
LINE
  8
0
 62
     0
 10
214.311
 20
2.16765
 30
0.0
 11
214.555
 21
1.92374
 31
0.0
  0
LINE
  8
0
 62
     0
 10
214.555
 20
1.92374
 30
0.0
 11
214.861
 21
1.76802
 31
0.0
  0
LINE
  8
0
 62
     0
 10
214.861
 20
1.76802
 30
0.0
 11
215.202
 21
1.71428
 31
0.0
  0
LINE
  8
0
 62
     0
 10
215.202
 20
1.71428
 30
0.0
 11
215.542
 21
1.76802
 31
0.0
  0
LINE
  8
0
 62
     0
 10
215.542
 20
1.76802
 30
0.0
 11
215.849
 21
1.92374
 31
0.0
  0
LINE
  8
0
 62
     0
 10
215.849
 20
1.92374
 30
0.0
 11
216.092
 21
2.16765
 31
0.0
  0
LINE
  8
0
 62
     0
 10
216.092
 20
2.16765
 30
0.0
 11
216.249
 21
2.47358
 31
0.0
  0
LINE
  8
0
 62
     0
 10
216.249
 20
2.47358
 30
0.0
 11
216.301
 21
2.81395
 31
0.0
  0
LINE
  8
0
 62
     0
 10
216.301
 20
2.81395
 30
0.0
 11
216.249
 21
3.15433
 31
0.0
  0
LINE
  8
0
 62
     0
 10
216.249
 20
3.15433
 30
0.0
 11
216.092
 21
3.46163
 31
0.0
  0
LINE
  8
0
 62
     0
 10
216.092
 20
3.46163
 30
0.0
 11
215.849
 21
3.70417
 31
0.0
  0
LINE
  8
0
 62
     0
 10
215.849
 20
3.70417
 30
0.0
 11
215.542
 21
3.85988
 31
0.0
  0
LINE
  8
0
 62
     0
 10
215.542
 20
3.85988
 30
0.0
 11
215.202
 21
3.91365
 31
0.0
  0
LINE
  8
0
 62
     0
 10
215.202
 20
3.91365
 30
0.0
 11
214.861
 21
3.85988
 31
0.0
  0
LINE
  8
0
 62
     0
 10
108.5
 20
3.85988
 30
0.0
 11
108.193
 21
3.70417
 31
0.0
  0
LINE
  8
0
 62
     0
 10
108.193
 20
3.70417
 30
0.0
 11
107.95
 21
3.46163
 31
0.0
  0
LINE
  8
0
 62
     0
 10
107.95
 20
3.46163
 30
0.0
 11
107.793
 21
3.15433
 31
0.0
  0
LINE
  8
0
 62
     0
 10
107.793
 20
3.15433
 30
0.0
 11
107.739
 21
2.81395
 31
0.0
  0
LINE
  8
0
 62
     0
 10
107.739
 20
2.81395
 30
0.0
 11
107.793
 21
2.47358
 31
0.0
  0
LINE
  8
0
 62
     0
 10
107.793
 20
2.47358
 30
0.0
 11
107.95
 21
2.16765
 31
0.0
  0
LINE
  8
0
 62
     0
 10
107.95
 20
2.16765
 30
0.0
 11
108.193
 21
1.92374
 31
0.0
  0
LINE
  8
0
 62
     0
 10
108.193
 20
1.92374
 30
0.0
 11
108.5
 21
1.76802
 31
0.0
  0
LINE
  8
0
 62
     0
 10
108.5
 20
1.76802
 30
0.0
 11
108.839
 21
1.71428
 31
0.0
  0
LINE
  8
0
 62
     0
 10
108.839
 20
1.71428
 30
0.0
 11
109.179
 21
1.76802
 31
0.0
  0
LINE
  8
0
 62
     0
 10
109.179
 20
1.76802
 30
0.0
 11
109.485
 21
1.92374
 31
0.0
  0
LINE
  8
0
 62
     0
 10
109.485
 20
1.92374
 30
0.0
 11
109.729
 21
2.16765
 31
0.0
  0
LINE
  8
0
 62
     0
 10
109.729
 20
2.16765
 30
0.0
 11
109.886
 21
2.47358
 31
0.0
  0
LINE
  8
0
 62
     0
 10
109.886
 20
2.47358
 30
0.0
 11
109.94
 21
2.81395
 31
0.0
  0
LINE
  8
0
 62
     0
 10
109.94
 20
2.81395
 30
0.0
 11
109.886
 21
3.15433
 31
0.0
  0
LINE
  8
0
 62
     0
 10
109.886
 20
3.15433
 30
0.0
 11
109.729
 21
3.46163
 31
0.0
  0
LINE
  8
0
 62
     0
 10
109.729
 20
3.46163
 30
0.0
 11
109.485
 21
3.70417
 31
0.0
  0
LINE
  8
0
 62
     0
 10
109.485
 20
3.70417
 30
0.0
 11
109.179
 21
3.85988
 31
0.0
  0
LINE
  8
0
 62
     0
 10
109.179
 20
3.85988
 30
0.0
 11
108.839
 21
3.91365
 31
0.0
  0
LINE
  8
0
 62
     0
 10
108.839
 20
3.91365
 30
0.0
 11
108.5
 21
3.85988
 31
0.0
  0
LINE
  8
0
 62
     0
 10
2.13596
 20
3.85988
 30
0.0
 11
1.83003
 21
3.70417
 31
0.0
  0
LINE
  8
0
 62
     0
 10
1.83003
 20
3.70417
 30
0.0
 11
1.58612
 21
3.46163
 31
0.0
  0
LINE
  8
0
 62
     0
 10
1.58612
 20
3.46163
 30
0.0
 11
1.4304
 21
3.15433
 31
0.0
  0
LINE
  8
0
 62
     0
 10
1.4304
 20
3.15433
 30
0.0
 11
1.37666
 21
2.81395
 31
0.0
  0
LINE
  8
0
 62
     0
 10
1.37666
 20
2.81395
 30
0.0
 11
1.4304
 21
2.47358
 31
0.0
  0
LINE
  8
0
 62
     0
 10
1.4304
 20
2.47358
 30
0.0
 11
1.58612
 21
2.16765
 31
0.0
  0
LINE
  8
0
 62
     0
 10
1.58612
 20
2.16765
 30
0.0
 11
1.83003
 21
1.92374
 31
0.0
  0
LINE
  8
0
 62
     0
 10
1.83003
 20
1.92374
 30
0.0
 11
2.13596
 21
1.76802
 31
0.0
  0
LINE
  8
0
 62
     0
 10
2.13596
 20
1.76802
 30
0.0
 11
2.47633
 21
1.71428
 31
0.0
  0
LINE
  8
0
 62
     0
 10
2.47633
 20
1.71428
 30
0.0
 11
2.81671
 21
1.76802
 31
0.0
  0
LINE
  8
0
 62
     0
 10
2.81671
 20
1.76802
 30
0.0
 11
3.12126
 21
1.92374
 31
0.0
  0
LINE
  8
0
 62
     0
 10
3.12126
 20
1.92374
 30
0.0
 11
3.36655
 21
2.16765
 31
0.0
  0
LINE
  8
0
 62
     0
 10
3.36655
 20
2.16765
 30
0.0
 11
3.52227
 21
2.47358
 31
0.0
  0
LINE
  8
0
 62
     0
 10
3.52227
 20
2.47358
 30
0.0
 11
3.576
 21
2.81395
 31
0.0
  0
LINE
  8
0
 62
     0
 10
3.576
 20
2.81395
 30
0.0
 11
3.52227
 21
3.15433
 31
0.0
  0
LINE
  8
0
 62
     0
 10
3.52227
 20
3.15433
 30
0.0
 11
3.36655
 21
3.46163
 31
0.0
  0
LINE
  8
0
 62
     0
 10
3.36655
 20
3.46163
 30
0.0
 11
3.12126
 21
3.70417
 31
0.0
  0
LINE
  8
0
 62
     0
 10
3.12126
 20
3.70417
 30
0.0
 11
2.81671
 21
3.85988
 31
0.0
  0
LINE
  8
0
 62
     0
 10
2.81671
 20
3.85988
 30
0.0
 11
2.47633
 21
3.91365
 31
0.0
  0
LINE
  8
0
 62
     0
 10
2.47633
 20
3.91365
 30
0.0
 11
2.13596
 21
3.85988
 31
0.0
  0
LINE
  8
0
 62
     0
 10
108.5
 20
108.636
 30
0.0
 11
108.193
 21
108.481
 31
0.0
  0
LINE
  8
0
 62
     0
 10
108.193
 20
108.481
 30
0.0
 11
107.95
 21
108.237
 31
0.0
  0
LINE
  8
0
 62
     0
 10
107.95
 20
108.237
 30
0.0
 11
107.793
 21
107.931
 31
0.0
  0
LINE
  8
0
 62
     0
 10
107.793
 20
107.931
 30
0.0
 11
107.739
 21
107.59
 31
0.0
  0
LINE
  8
0
 62
     0
 10
107.739
 20
107.59
 30
0.0
 11
107.793
 21
107.25
 31
0.0
  0
LINE
  8
0
 62
     0
 10
107.793
 20
107.25
 30
0.0
 11
107.95
 21
106.945
 31
0.0
  0
LINE
  8
0
 62
     0
 10
107.95
 20
106.945
 30
0.0
 11
108.193
 21
106.7
 31
0.0
  0
LINE
  8
0
 62
     0
 10
108.193
 20
106.7
 30
0.0
 11
108.5
 21
106.545
 31
0.0
  0
LINE
  8
0
 62
     0
 10
108.5
 20
106.545
 30
0.0
 11
108.839
 21
106.491
 31
0.0
  0
LINE
  8
0
 62
     0
 10
108.839
 20
106.491
 30
0.0
 11
109.179
 21
106.545
 31
0.0
  0
LINE
  8
0
 62
     0
 10
109.179
 20
106.545
 30
0.0
 11
109.485
 21
106.7
 31
0.0
  0
LINE
  8
0
 62
     0
 10
109.485
 20
106.7
 30
0.0
 11
109.729
 21
106.945
 31
0.0
  0
LINE
  8
0
 62
     0
 10
109.729
 20
106.945
 30
0.0
 11
109.886
 21
107.25
 31
0.0
  0
LINE
  8
0
 62
     0
 10
109.886
 20
107.25
 30
0.0
 11
109.94
 21
107.59
 31
0.0
  0
LINE
  8
0
 62
     0
 10
109.94
 20
107.59
 30
0.0
 11
109.886
 21
107.931
 31
0.0
  0
LINE
  8
0
 62
     0
 10
109.886
 20
107.931
 30
0.0
 11
109.729
 21
108.237
 31
0.0
  0
LINE
  8
0
 62
     0
 10
109.729
 20
108.237
 30
0.0
 11
109.485
 21
108.481
 31
0.0
  0
LINE
  8
0
 62
     0
 10
109.485
 20
108.481
 30
0.0
 11
109.179
 21
108.636
 31
0.0
  0
LINE
  8
0
 62
     0
 10
109.179
 20
108.636
 30
0.0
 11
108.839
 21
108.69
 31
0.0
  0
LINE
  8
0
 62
     0
 10
108.839
 20
108.69
 30
0.0
 11
108.5
 21
108.636
 31
0.0
  0
LINE
  8
0
 62
     0
 10
214.861
 20
108.636
 30
0.0
 11
214.555
 21
108.481
 31
0.0
  0
LINE
  8
0
 62
     0
 10
214.555
 20
108.481
 30
0.0
 11
214.311
 21
108.237
 31
0.0
  0
LINE
  8
0
 62
     0
 10
214.311
 20
108.237
 30
0.0
 11
214.156
 21
107.931
 31
0.0
  0
LINE
  8
0
 62
     0
 10
214.156
 20
107.931
 30
0.0
 11
214.102
 21
107.59
 31
0.0
  0
LINE
  8
0
 62
     0
 10
214.102
 20
107.59
 30
0.0
 11
214.156
 21
107.25
 31
0.0
  0
LINE
  8
0
 62
     0
 10
214.156
 20
107.25
 30
0.0
 11
214.311
 21
106.945
 31
0.0
  0
LINE
  8
0
 62
     0
 10
214.311
 20
106.945
 30
0.0
 11
214.555
 21
106.7
 31
0.0
  0
LINE
  8
0
 62
     0
 10
214.555
 20
106.7
 30
0.0
 11
214.861
 21
106.545
 31
0.0
  0
LINE
  8
0
 62
     0
 10
214.861
 20
106.545
 30
0.0
 11
215.202
 21
106.491
 31
0.0
  0
LINE
  8
0
 62
     0
 10
215.202
 20
106.491
 30
0.0
 11
215.542
 21
106.545
 31
0.0
  0
LINE
  8
0
 62
     0
 10
215.542
 20
106.545
 30
0.0
 11
215.849
 21
106.7
 31
0.0
  0
LINE
  8
0
 62
     0
 10
215.849
 20
106.7
 30
0.0
 11
216.092
 21
106.945
 31
0.0
  0
LINE
  8
0
 62
     0
 10
216.092
 20
106.945
 30
0.0
 11
216.249
 21
107.25
 31
0.0
  0
LINE
  8
0
 62
     0
 10
216.249
 20
107.25
 30
0.0
 11
216.301
 21
107.59
 31
0.0
  0
LINE
  8
0
 62
     0
 10
216.301
 20
107.59
 30
0.0
 11
216.249
 21
107.931
 31
0.0
  0
LINE
  8
0
 62
     0
 10
216.249
 20
107.931
 30
0.0
 11
216.092
 21
108.237
 31
0.0
  0
LINE
  8
0
 62
     0
 10
216.092
 20
108.237
 30
0.0
 11
215.849
 21
108.481
 31
0.0
  0
LINE
  8
0
 62
     0
 10
215.849
 20
108.481
 30
0.0
 11
215.542
 21
108.636
 31
0.0
  0
LINE
  8
0
 62
     0
 10
215.542
 20
108.636
 30
0.0
 11
215.202
 21
108.69
 31
0.0
  0
LINE
  8
0
 62
     0
 10
215.202
 20
108.69
 30
0.0
 11
214.861
 21
108.636
 31
0.0
  0
LINE
  8
0
 62
     0
 10
321.225
 20
108.636
 30
0.0
 11
320.919
 21
108.481
 31
0.0
  0
LINE
  8
0
 62
     0
 10
320.919
 20
108.481
 30
0.0
 11
320.675
 21
108.237
 31
0.0
  0
LINE
  8
0
 62
     0
 10
320.675
 20
108.237
 30
0.0
 11
320.518
 21
107.931
 31
0.0
  0
LINE
  8
0
 62
     0
 10
320.518
 20
107.931
 30
0.0
 11
320.464
 21
107.59
 31
0.0
  0
LINE
  8
0
 62
     0
 10
320.464
 20
107.59
 30
0.0
 11
320.518
 21
107.25
 31
0.0
  0
LINE
  8
0
 62
     0
 10
320.518
 20
107.25
 30
0.0
 11
320.675
 21
106.945
 31
0.0
  0
LINE
  8
0
 62
     0
 10
320.675
 20
106.945
 30
0.0
 11
320.919
 21
106.7
 31
0.0
  0
LINE
  8
0
 62
     0
 10
320.919
 20
106.7
 30
0.0
 11
321.225
 21
106.545
 31
0.0
  0
LINE
  8
0
 62
     0
 10
321.225
 20
106.545
 30
0.0
 11
321.564
 21
106.491
 31
0.0
  0
LINE
  8
0
 62
     0
 10
321.564
 20
106.491
 30
0.0
 11
321.904
 21
106.545
 31
0.0
  0
LINE
  8
0
 62
     0
 10
321.904
 20
106.545
 30
0.0
 11
322.211
 21
106.7
 31
0.0
  0
LINE
  8
0
 62
     0
 10
322.211
 20
106.7
 30
0.0
 11
322.454
 21
106.945
 31
0.0
  0
LINE
  8
0
 62
     0
 10
322.454
 20
106.945
 30
0.0
 11
322.611
 21
107.25
 31
0.0
  0
LINE
  8
0
 62
     0
 10
322.611
 20
107.25
 30
0.0
 11
322.665
 21
107.59
 31
0.0
  0
LINE
  8
0
 62
     0
 10
322.665
 20
107.59
 30
0.0
 11
322.611
 21
107.931
 31
0.0
  0
LINE
  8
0
 62
     0
 10
322.611
 20
107.931
 30
0.0
 11
322.454
 21
108.237
 31
0.0
  0
LINE
  8
0
 62
     0
 10
322.454
 20
108.237
 30
0.0
 11
322.211
 21
108.481
 31
0.0
  0
LINE
  8
0
 62
     0
 10
322.211
 20
108.481
 30
0.0
 11
321.904
 21
108.636
 31
0.0
  0
LINE
  8
0
 62
     0
 10
321.904
 20
108.636
 30
0.0
 11
321.564
 21
108.69
 31
0.0
  0
LINE
  8
0
 62
     0
 10
321.564
 20
108.69
 30
0.0
 11
321.225
 21
108.636
 31
0.0
  0
LINE
  8
0
 62
     0
 10
2.13596
 20
108.636
 30
0.0
 11
1.83003
 21
108.481
 31
0.0
  0
LINE
  8
0
 62
     0
 10
1.83003
 20
108.481
 30
0.0
 11
1.58612
 21
108.237
 31
0.0
  0
LINE
  8
0
 62
     0
 10
1.58612
 20
108.237
 30
0.0
 11
1.4304
 21
107.931
 31
0.0
  0
LINE
  8
0
 62
     0
 10
1.4304
 20
107.931
 30
0.0
 11
1.37666
 21
107.59
 31
0.0
  0
LINE
  8
0
 62
     0
 10
1.37666
 20
107.59
 30
0.0
 11
1.4304
 21
107.25
 31
0.0
  0
LINE
  8
0
 62
     0
 10
1.4304
 20
107.25
 30
0.0
 11
1.58612
 21
106.945
 31
0.0
  0
LINE
  8
0
 62
     0
 10
1.58612
 20
106.945
 30
0.0
 11
1.83003
 21
106.7
 31
0.0
  0
LINE
  8
0
 62
     0
 10
1.83003
 20
106.7
 30
0.0
 11
2.13596
 21
106.545
 31
0.0
  0
LINE
  8
0
 62
     0
 10
2.13596
 20
106.545
 30
0.0
 11
2.47633
 21
106.491
 31
0.0
  0
LINE
  8
0
 62
     0
 10
2.47633
 20
106.491
 30
0.0
 11
2.81671
 21
106.545
 31
0.0
  0
LINE
  8
0
 62
     0
 10
2.81671
 20
106.545
 30
0.0
 11
3.12126
 21
106.7
 31
0.0
  0
LINE
  8
0
 62
     0
 10
3.12126
 20
106.7
 30
0.0
 11
3.36655
 21
106.945
 31
0.0
  0
LINE
  8
0
 62
     0
 10
3.36655
 20
106.945
 30
0.0
 11
3.52227
 21
107.25
 31
0.0
  0
LINE
  8
0
 62
     0
 10
3.52227
 20
107.25
 30
0.0
 11
3.576
 21
107.59
 31
0.0
  0
LINE
  8
0
 62
     0
 10
3.576
 20
107.59
 30
0.0
 11
3.52227
 21
107.931
 31
0.0
  0
LINE
  8
0
 62
     0
 10
3.52227
 20
107.931
 30
0.0
 11
3.36655
 21
108.237
 31
0.0
  0
LINE
  8
0
 62
     0
 10
3.36655
 20
108.237
 30
0.0
 11
3.12126
 21
108.481
 31
0.0
  0
LINE
  8
0
 62
     0
 10
3.12126
 20
108.481
 30
0.0
 11
2.81671
 21
108.636
 31
0.0
  0
LINE
  8
0
 62
     0
 10
2.81671
 20
108.636
 30
0.0
 11
2.47633
 21
108.69
 31
0.0
  0
LINE
  8
0
 62
     0
 10
2.47633
 20
108.69
 30
0.0
 11
2.13596
 21
108.636
 31
0.0
  0
ENDSEC
  0
EOF
