999
FreeCAD v1.1 44874 (Git)
  0
SECTION
  2
HEADER
  9
$ACADVER
  1
AC1014
  9
$ACADMAINTVER
 70
     9
  9
$DWGCODEPAGE
  3
ANSI_1252
  9
$TEXTSTYLE
  7
STANDARD
  9
$DIMSTYLE
  2
STANDARD
  9
$DIMTXSTY
  7
STANDARD
  9
$CMLSTYLE
  2
STANDARD
  9
$LUNITS
 70
2
  9
$INSUNITS
 70
4
  9
$PEXTMAX
 10
50
 20
50
 30
50
  9
$PEXTMIN
 10
0
 20
0
 30
0
  9
$HANDSEED
  5
FFFF
  0
ENDSEC
  0
SECTION
  2
CLASSES
  0
CLASS
  1
ACDBDICTIONARYWDFLT
  2
AcDbDictionaryWithDefault
  3
ObjectDBX Classes
 90
        0
280
     0
281
     0
  0
CLASS
  1
XRECORD
  2
AcDbXrecord
  3
ObjectDBX Classes
 90
        0
280
     0
281
     0
  0
CLASS
  1
LWPOLYLINE
  2
AcDbPolyline
  3
ObjectDBX Classes
 90
        0
280
     0
281
     1
  0
ENDSEC
  0
SECTION
  2
TABLES
  0
TABLE
  2
VPORT
  5
20
330
0
100
AcDbSymbolTable
 70
     1
  0
VPORT
  5
21
330
20
100
AcDbSymbolTableRecord
100
AcDbViewportTableRecord
  2
*ACTIVE
 70
     0
  0
ENDTAB
  0
TABLE
  2
LTYPE
  5
22
330
0
100
AcDbSymbolTable
 70
     1
  0
LTYPE
  5
23
330
21
100
AcDbSymbolTableRecord
100
AcDbLinetypeTableRecord
  2
BYBLOCK
 70
     0
  3

 72
    65
 73
     0
 40
0.0
  0
LTYPE
  5
24
330
21
100
AcDbSymbolTableRecord
100
AcDbLinetypeTableRecord
  2
BYLAYER
 70
     0
  3

 72
    65
 73
     0
 40
0.0
  0
LTYPE
  5
25
330
21
100
AcDbSymbolTableRecord
100
AcDbLinetypeTableRecord
  2
CONTINUOUS
 70
     0
  3
Solid line
 72
    65
 73
     0
 40
0.0
  0
ENDTAB
  0
TABLE
  2
LAYER
  5
AFC
330
0
100
AcDbSymbolTable
 70
11
  0
LAYER
  5
AFD
330
AFC
100
AcDbSymbolTableRecord
100
AcDbLayerTableRecord
  2
0
 70
   0
 62
   7
  6
CONTINUOUS
  0
LAYER
  5
AFE
330
AFC
100
AcDbSymbolTableRecord
100
AcDbLayerTableRecord
  2
none
 70
    0
 62
    7
  6
CONTINUOUS
  0
LAYER
  5
AFF
330
AFC
100
AcDbSymbolTableRecord
100
AcDbLayerTableRecord
  2
Polyline
 70
    0
 62
    7
  6
CONTINUOUS
  0
LAYER
  5
B00
330
AFC
100
AcDbSymbolTableRecord
100
AcDbLayerTableRecord
  2
Polyline001
 70
    0
 62
    7
  6
CONTINUOUS
  0
LAYER
  5
B01
330
AFC
100
AcDbSymbolTableRecord
100
AcDbLayerTableRecord
  2
Polyline002
 70
    0
 62
    7
  6
CONTINUOUS
  0
LAYER
  5
B02
330
AFC
100
AcDbSymbolTableRecord
100
AcDbLayerTableRecord
  2
Polyline003
 70
    0
 62
    7
  6
CONTINUOUS
  0
LAYER
  5
B03
330
AFC
100
AcDbSymbolTableRecord
100
AcDbLayerTableRecord
  2
Polyline004
 70
    0
 62
    7
  6
CONTINUOUS
  0
LAYER
  5
B04
330
AFC
100
AcDbSymbolTableRecord
100
AcDbLayerTableRecord
  2
Polyline005
 70
    0
 62
    7
  6
CONTINUOUS
  0
LAYER
  5
B05
330
AFC
100
AcDbSymbolTableRecord
100
AcDbLayerTableRecord
  2
Polyline006
 70
    0
 62
    7
  6
CONTINUOUS
  0
LAYER
  5
B06
330
AFC
100
AcDbSymbolTableRecord
100
AcDbLayerTableRecord
  2
Polyline007
 70
    0
 62
    7
  6
CONTINUOUS
  0
LAYER
  5
B07
330
AFC
100
AcDbSymbolTableRecord
100
AcDbLayerTableRecord
  2
Polyline008
 70
    0
 62
    7
  6
CONTINUOUS
  0
ENDTAB
  0
TABLE
  2
STYLE
  5
70
330
0
100
AcDbSymbolTable
 70
     2
  0
STYLE
  5
71
330
70
100
AcDbSymbolTableRecord
100
AcDbTextStyleTableRecord
  2
STANDARD
 70
     0
 40
0.0
 41
1.0
 50
0.0
 71
     0
 42
2.5
  3
arial.ttf
  4

  0
STYLE
  5
72
330
70
100
AcDbSymbolTableRecord
100
AcDbTextStyleTableRecord
  2
ANNOTATIVE
 70
     0
 40
0.0
 41
1.0
 50
0.0
 71
     0
 42
2.5
  3
arial.ttf
  4

  0
ENDTAB
  0
TABLE
  2
VIEW
  5
73
330
0
100
AcDbSymbolTable
 70
     0
  0
ENDTAB
  0
TABLE
  2
UCS
  5
74
330
0
100
AcDbSymbolTable
 70
     0
  0
ENDTAB
  0
TABLE
  2
APPID
  5
75
330
0
100
AcDbSymbolTable
 70
     2
  0
APPID
  5
76
330
75
100
AcDbSymbolTableRecord
100
AcDbRegAppTableRecord
  2
ACAD
 70
     0
  0
APPID
  5
77
330
75
100
AcDbSymbolTableRecord
100
AcDbRegAppTableRecord
  2
ACADANNOTATIVE
 70
     0
  0
ENDTAB
  0
TABLE
  2
DIMSTYLE
  5
78
330
0
100
AcDbSymbolTable
 70
     2
  0
DIMSTYLE
105
79
330
78
100
AcDbSymbolTableRecord
100
AcDbDimStyleTableRecord
  2
STANDARD
 70
     0
  3

  4

  5

  6

  7

 40
0.0
 41
2.5
 42
0.625
 43
3.75
 44
1.25
 45
0.0
 46
0.0
 47
0.0
 48
0.0
140
2.5
141
2.5
142
0.0
143
0.03937007874016
144
1.0
145
0.0
146
1.0
147
0.625
 71
     0
 72
     0
 73
     0
 74
     0
 75
     0
 76
     0
 77
     1
 78
     8
170
     0
171
     3
172
     1
173
     0
174
     0
175
     0
176
     0
177
     0
178
     0
270
     2
271
     2
272
     2
273
     2
274
     3
340
71
275
     0
280
     0
281
     0
282
     0
283
     0
284
     8
285
     0
286
     0
287
     3
288
     0
  0
ENDTAB
  0
TABLE
  2
BLOCK_RECORD
  5
A01
330
0
100
AcDbSymbolTable
  70
5
  0
BLOCK_RECORD
  5
A02
330
A01
100
AcDbSymbolTableRecord
100
AcDbBlockTableRecord
  2
*MODEL_SPACE
  0
BLOCK_RECORD
  5
A03
330
A01
100
AcDbSymbolTableRecord
100
AcDbBlockTableRecord
  2
*PAPER_SPACE
  0
ENDTAB
  0
ENDSEC
  0
SECTION
  2
BLOCKS
  0
BLOCK
  5
A04
330
A02
100
AcDbEntity
  8
0
100
AcDbBlockBegin
  2
*MODEL_SPACE
 70
   0
 10
0
 20
0
 30
0
  3
*MODEL_SPACE
  1
 
  0
ENDBLK
  5
A05
330
A02
100
AcDbEntity
  8
0
100
AcDbBlockEnd
  0
BLOCK
  5
A06
330
A03
100
AcDbEntity
 67
1
  8
0
100
AcDbBlockBegin
  2
*PAPER_SPACE
 70
   0
 10
0
 20
0
 30
0
  3
*PAPER_SPACE
  1
 
  0
ENDBLK
  5
A07
330
A03
100
AcDbEntity
 67
    1
  8
0
100
AcDbBlockEnd
  0
ENDSEC
  0
SECTION
  2
ENTITIES
  0
LINE
  5
A08
330
A02
100
AcDbEntity
  8
Polyline
100
AcDbLine
 10
326.470000000
 20
-5.001000000
 30
0.000000000
 11
326.657000000
 21
-5.008000000
 31
0.000000000
  0
LINE
  5
A09
330
A02
100
AcDbEntity
  8
Polyline
100
AcDbLine
 10
326.657000000
 20
-5.008000000
 30
0.000000000
 11
326.843000000
 21
-5.030000000
 31
0.000000000
  0
LINE
  5
A0A
330
A02
100
AcDbEntity
  8
Polyline
100
AcDbLine
 10
326.843000000
 20
-5.030000000
 30
0.000000000
 11
327.026000000
 21
-5.066000000
 31
0.000000000
  0
LINE
  5
A0B
330
A02
100
AcDbEntity
  8
Polyline
100
AcDbLine
 10
327.026000000
 20
-5.066000000
 30
0.000000000
 11
327.206000000
 21
-5.117000000
 31
0.000000000
  0
LINE
  5
A0C
330
A02
100
AcDbEntity
  8
Polyline
100
AcDbLine
 10
327.206000000
 20
-5.117000000
 30
0.000000000
 11
327.382000000
 21
-5.182000000
 31
0.000000000
  0
LINE
  5
A0D
330
A02
100
AcDbEntity
  8
Polyline
100
AcDbLine
 10
327.382000000
 20
-5.182000000
 30
0.000000000
 11
327.551000000
 21
-5.260000000
 31
0.000000000
  0
LINE
  5
A0E
330
A02
100
AcDbEntity
  8
Polyline
100
AcDbLine
 10
327.551000000
 20
-5.260000000
 30
0.000000000
 11
327.714000000
 21
-5.351000000
 31
0.000000000
  0
LINE
  5
A0F
330
A02
100
AcDbEntity
  8
Polyline
100
AcDbLine
 10
327.714000000
 20
-5.351000000
 30
0.000000000
 11
327.870000000
 21
-5.455000000
 31
0.000000000
  0
LINE
  5
A10
330
A02
100
AcDbEntity
  8
Polyline
100
AcDbLine
 10
327.870000000
 20
-5.455000000
 30
0.000000000
 11
328.017000000
 21
-5.571000000
 31
0.000000000
  0
LINE
  5
A11
330
A02
100
AcDbEntity
  8
Polyline
100
AcDbLine
 10
328.017000000
 20
-5.571000000
 30
0.000000000
 11
328.154000000
 21
-5.698000000
 31
0.000000000
  0
LINE
  5
A12
330
A02
100
AcDbEntity
  8
Polyline
100
AcDbLine
 10
328.154000000
 20
-5.698000000
 30
0.000000000
 11
328.281000000
 21
-5.835000000
 31
0.000000000
  0
LINE
  5
A13
330
A02
100
AcDbEntity
  8
Polyline
100
AcDbLine
 10
328.281000000
 20
-5.835000000
 30
0.000000000
 11
328.397000000
 21
-5.982000000
 31
0.000000000
  0
LINE
  5
A14
330
A02
100
AcDbEntity
  8
Polyline
100
AcDbLine
 10
328.397000000
 20
-5.982000000
 30
0.000000000
 11
328.501000000
 21
-6.138000000
 31
0.000000000
  0
LINE
  5
A15
330
A02
100
AcDbEntity
  8
Polyline
100
AcDbLine
 10
328.501000000
 20
-6.138000000
 30
0.000000000
 11
328.592000000
 21
-6.301000000
 31
0.000000000
  0
LINE
  5
A16
330
A02
100
AcDbEntity
  8
Polyline
100
AcDbLine
 10
328.592000000
 20
-6.301000000
 30
0.000000000
 11
328.670000000
 21
-6.470000000
 31
0.000000000
  0
LINE
  5
A17
330
A02
100
AcDbEntity
  8
Polyline
100
AcDbLine
 10
328.670000000
 20
-6.470000000
 30
0.000000000
 11
328.735000000
 21
-6.646000000
 31
0.000000000
  0
LINE
  5
A18
330
A02
100
AcDbEntity
  8
Polyline
100
AcDbLine
 10
328.735000000
 20
-6.646000000
 30
0.000000000
 11
328.786000000
 21
-6.826000000
 31
0.000000000
  0
LINE
  5
A19
330
A02
100
AcDbEntity
  8
Polyline
100
AcDbLine
 10
328.786000000
 20
-6.826000000
 30
0.000000000
 11
328.822000000
 21
-7.009000000
 31
0.000000000
  0
LINE
  5
A1A
330
A02
100
AcDbEntity
  8
Polyline
100
AcDbLine
 10
328.822000000
 20
-7.009000000
 30
0.000000000
 11
328.844000000
 21
-7.195000000
 31
0.000000000
  0
LINE
  5
A1B
330
A02
100
AcDbEntity
  8
Polyline
100
AcDbLine
 10
328.844000000
 20
-7.195000000
 30
0.000000000
 11
328.852000000
 21
-7.382000000
 31
0.000000000
  0
LINE
  5
A1C
330
A02
100
AcDbEntity
  8
Polyline
100
AcDbLine
 10
328.852000000
 20
-7.382000000
 30
0.000000000
 11
328.852000000
 21
-112.158000000
 31
0.000000000
  0
LINE
  5
A1D
330
A02
100
AcDbEntity
  8
Polyline
100
AcDbLine
 10
328.852000000
 20
-112.158000000
 30
0.000000000
 11
328.844000000
 21
-112.345000000
 31
0.000000000
  0
LINE
  5
A1E
330
A02
100
AcDbEntity
  8
Polyline
100
AcDbLine
 10
328.844000000
 20
-112.345000000
 30
0.000000000
 11
328.822000000
 21
-112.530000000
 31
0.000000000
  0
LINE
  5
A1F
330
A02
100
AcDbEntity
  8
Polyline
100
AcDbLine
 10
328.822000000
 20
-112.530000000
 30
0.000000000
 11
328.786000000
 21
-112.714000000
 31
0.000000000
  0
LINE
  5
A20
330
A02
100
AcDbEntity
  8
Polyline
100
AcDbLine
 10
328.786000000
 20
-112.714000000
 30
0.000000000
 11
328.735000000
 21
-112.894000000
 31
0.000000000
  0
LINE
  5
A21
330
A02
100
AcDbEntity
  8
Polyline
100
AcDbLine
 10
328.735000000
 20
-112.894000000
 30
0.000000000
 11
328.670000000
 21
-113.069000000
 31
0.000000000
  0
LINE
  5
A22
330
A02
100
AcDbEntity
  8
Polyline
100
AcDbLine
 10
328.670000000
 20
-113.069000000
 30
0.000000000
 11
328.592000000
 21
-113.239000000
 31
0.000000000
  0
LINE
  5
A23
330
A02
100
AcDbEntity
  8
Polyline
100
AcDbLine
 10
328.592000000
 20
-113.239000000
 30
0.000000000
 11
328.501000000
 21
-113.402000000
 31
0.000000000
  0
LINE
  5
A24
330
A02
100
AcDbEntity
  8
Polyline
100
AcDbLine
 10
328.501000000
 20
-113.402000000
 30
0.000000000
 11
328.397000000
 21
-113.557000000
 31
0.000000000
  0
LINE
  5
A25
330
A02
100
AcDbEntity
  8
Polyline
100
AcDbLine
 10
328.397000000
 20
-113.557000000
 30
0.000000000
 11
328.281000000
 21
-113.704000000
 31
0.000000000
  0
LINE
  5
A26
330
A02
100
AcDbEntity
  8
Polyline
100
AcDbLine
 10
328.281000000
 20
-113.704000000
 30
0.000000000
 11
328.154000000
 21
-113.842000000
 31
0.000000000
  0
LINE
  5
A27
330
A02
100
AcDbEntity
  8
Polyline
100
AcDbLine
 10
328.154000000
 20
-113.842000000
 30
0.000000000
 11
328.017000000
 21
-113.968000000
 31
0.000000000
  0
LINE
  5
A28
330
A02
100
AcDbEntity
  8
Polyline
100
AcDbLine
 10
328.017000000
 20
-113.968000000
 30
0.000000000
 11
327.870000000
 21
-114.084000000
 31
0.000000000
  0
LINE
  5
A29
330
A02
100
AcDbEntity
  8
Polyline
100
AcDbLine
 10
327.870000000
 20
-114.084000000
 30
0.000000000
 11
327.714000000
 21
-114.188000000
 31
0.000000000
  0
LINE
  5
A2A
330
A02
100
AcDbEntity
  8
Polyline
100
AcDbLine
 10
327.714000000
 20
-114.188000000
 30
0.000000000
 11
327.551000000
 21
-114.279000000
 31
0.000000000
  0
LINE
  5
A2B
330
A02
100
AcDbEntity
  8
Polyline
100
AcDbLine
 10
327.551000000
 20
-114.279000000
 30
0.000000000
 11
327.382000000
 21
-114.358000000
 31
0.000000000
  0
LINE
  5
A2C
330
A02
100
AcDbEntity
  8
Polyline
100
AcDbLine
 10
327.382000000
 20
-114.358000000
 30
0.000000000
 11
327.206000000
 21
-114.422000000
 31
0.000000000
  0
LINE
  5
A2D
330
A02
100
AcDbEntity
  8
Polyline
100
AcDbLine
 10
327.206000000
 20
-114.422000000
 30
0.000000000
 11
327.026000000
 21
-114.473000000
 31
0.000000000
  0
LINE
  5
A2E
330
A02
100
AcDbEntity
  8
Polyline
100
AcDbLine
 10
327.026000000
 20
-114.473000000
 30
0.000000000
 11
326.843000000
 21
-114.510000000
 31
0.000000000
  0
LINE
  5
A2F
330
A02
100
AcDbEntity
  8
Polyline
100
AcDbLine
 10
326.843000000
 20
-114.510000000
 30
0.000000000
 11
326.657000000
 21
-114.532000000
 31
0.000000000
  0
LINE
  5
A30
330
A02
100
AcDbEntity
  8
Polyline
100
AcDbLine
 10
326.657000000
 20
-114.532000000
 30
0.000000000
 11
326.470000000
 21
-114.539000000
 31
0.000000000
  0
LINE
  5
A31
330
A02
100
AcDbEntity
  8
Polyline
100
AcDbLine
 10
326.470000000
 20
-114.539000000
 30
0.000000000
 11
7.382000000
 21
-114.539000000
 31
0.000000000
  0
LINE
  5
A32
330
A02
100
AcDbEntity
  8
Polyline
100
AcDbLine
 10
7.382000000
 20
-114.539000000
 30
0.000000000
 11
7.195000000
 21
-114.532000000
 31
0.000000000
  0
LINE
  5
A33
330
A02
100
AcDbEntity
  8
Polyline
100
AcDbLine
 10
7.195000000
 20
-114.532000000
 30
0.000000000
 11
7.009000000
 21
-114.510000000
 31
0.000000000
  0
LINE
  5
A34
330
A02
100
AcDbEntity
  8
Polyline
100
AcDbLine
 10
7.009000000
 20
-114.510000000
 30
0.000000000
 11
6.826000000
 21
-114.473000000
 31
0.000000000
  0
LINE
  5
A35
330
A02
100
AcDbEntity
  8
Polyline
100
AcDbLine
 10
6.826000000
 20
-114.473000000
 30
0.000000000
 11
6.646000000
 21
-114.422000000
 31
0.000000000
  0
LINE
  5
A36
330
A02
100
AcDbEntity
  8
Polyline
100
AcDbLine
 10
6.646000000
 20
-114.422000000
 30
0.000000000
 11
6.470000000
 21
-114.358000000
 31
0.000000000
  0
LINE
  5
A37
330
A02
100
AcDbEntity
  8
Polyline
100
AcDbLine
 10
6.470000000
 20
-114.358000000
 30
0.000000000
 11
6.301000000
 21
-114.279000000
 31
0.000000000
  0
LINE
  5
A38
330
A02
100
AcDbEntity
  8
Polyline
100
AcDbLine
 10
6.301000000
 20
-114.279000000
 30
0.000000000
 11
6.138000000
 21
-114.188000000
 31
0.000000000
  0
LINE
  5
A39
330
A02
100
AcDbEntity
  8
Polyline
100
AcDbLine
 10
6.138000000
 20
-114.188000000
 30
0.000000000
 11
5.982000000
 21
-114.084000000
 31
0.000000000
  0
LINE
  5
A3A
330
A02
100
AcDbEntity
  8
Polyline
100
AcDbLine
 10
5.982000000
 20
-114.084000000
 30
0.000000000
 11
5.835000000
 21
-113.968000000
 31
0.000000000
  0
LINE
  5
A3B
330
A02
100
AcDbEntity
  8
Polyline
100
AcDbLine
 10
5.835000000
 20
-113.968000000
 30
0.000000000
 11
5.698000000
 21
-113.842000000
 31
0.000000000
  0
LINE
  5
A3C
330
A02
100
AcDbEntity
  8
Polyline
100
AcDbLine
 10
5.698000000
 20
-113.842000000
 30
0.000000000
 11
5.571000000
 21
-113.704000000
 31
0.000000000
  0
LINE
  5
A3D
330
A02
100
AcDbEntity
  8
Polyline
100
AcDbLine
 10
5.571000000
 20
-113.704000000
 30
0.000000000
 11
5.455000000
 21
-113.557000000
 31
0.000000000
  0
LINE
  5
A3E
330
A02
100
AcDbEntity
  8
Polyline
100
AcDbLine
 10
5.455000000
 20
-113.557000000
 30
0.000000000
 11
5.351000000
 21
-113.402000000
 31
0.000000000
  0
LINE
  5
A3F
330
A02
100
AcDbEntity
  8
Polyline
100
AcDbLine
 10
5.351000000
 20
-113.402000000
 30
0.000000000
 11
5.260000000
 21
-113.239000000
 31
0.000000000
  0
LINE
  5
A40
330
A02
100
AcDbEntity
  8
Polyline
100
AcDbLine
 10
5.260000000
 20
-113.239000000
 30
0.000000000
 11
5.182000000
 21
-113.069000000
 31
0.000000000
  0
LINE
  5
A41
330
A02
100
AcDbEntity
  8
Polyline
100
AcDbLine
 10
5.182000000
 20
-113.069000000
 30
0.000000000
 11
5.117000000
 21
-112.894000000
 31
0.000000000
  0
LINE
  5
A42
330
A02
100
AcDbEntity
  8
Polyline
100
AcDbLine
 10
5.117000000
 20
-112.894000000
 30
0.000000000
 11
5.066000000
 21
-112.714000000
 31
0.000000000
  0
LINE
  5
A43
330
A02
100
AcDbEntity
  8
Polyline
100
AcDbLine
 10
5.066000000
 20
-112.714000000
 30
0.000000000
 11
5.030000000
 21
-112.530000000
 31
0.000000000
  0
LINE
  5
A44
330
A02
100
AcDbEntity
  8
Polyline
100
AcDbLine
 10
5.030000000
 20
-112.530000000
 30
0.000000000
 11
5.008000000
 21
-112.345000000
 31
0.000000000
  0
LINE
  5
A45
330
A02
100
AcDbEntity
  8
Polyline
100
AcDbLine
 10
5.008000000
 20
-112.345000000
 30
0.000000000
 11
5.000000000
 21
-112.158000000
 31
0.000000000
  0
LINE
  5
A46
330
A02
100
AcDbEntity
  8
Polyline
100
AcDbLine
 10
5.000000000
 20
-112.158000000
 30
0.000000000
 11
5.001000000
 21
-7.382000000
 31
0.000000000
  0
LINE
  5
A47
330
A02
100
AcDbEntity
  8
Polyline
100
AcDbLine
 10
5.001000000
 20
-7.382000000
 30
0.000000000
 11
5.008000000
 21
-7.195000000
 31
0.000000000
  0
LINE
  5
A48
330
A02
100
AcDbEntity
  8
Polyline
100
AcDbLine
 10
5.008000000
 20
-7.195000000
 30
0.000000000
 11
5.030000000
 21
-7.009000000
 31
0.000000000
  0
LINE
  5
A49
330
A02
100
AcDbEntity
  8
Polyline
100
AcDbLine
 10
5.030000000
 20
-7.009000000
 30
0.000000000
 11
5.066000000
 21
-6.826000000
 31
0.000000000
  0
LINE
  5
A4A
330
A02
100
AcDbEntity
  8
Polyline
100
AcDbLine
 10
5.066000000
 20
-6.826000000
 30
0.000000000
 11
5.117000000
 21
-6.646000000
 31
0.000000000
  0
LINE
  5
A4B
330
A02
100
AcDbEntity
  8
Polyline
100
AcDbLine
 10
5.117000000
 20
-6.646000000
 30
0.000000000
 11
5.182000000
 21
-6.470000000
 31
0.000000000
  0
LINE
  5
A4C
330
A02
100
AcDbEntity
  8
Polyline
100
AcDbLine
 10
5.182000000
 20
-6.470000000
 30
0.000000000
 11
5.260000000
 21
-6.301000000
 31
0.000000000
  0
LINE
  5
A4D
330
A02
100
AcDbEntity
  8
Polyline
100
AcDbLine
 10
5.260000000
 20
-6.301000000
 30
0.000000000
 11
5.351000000
 21
-6.138000000
 31
0.000000000
  0
LINE
  5
A4E
330
A02
100
AcDbEntity
  8
Polyline
100
AcDbLine
 10
5.351000000
 20
-6.138000000
 30
0.000000000
 11
5.455000000
 21
-5.982000000
 31
0.000000000
  0
LINE
  5
A4F
330
A02
100
AcDbEntity
  8
Polyline
100
AcDbLine
 10
5.455000000
 20
-5.982000000
 30
0.000000000
 11
5.571000000
 21
-5.835000000
 31
0.000000000
  0
LINE
  5
A50
330
A02
100
AcDbEntity
  8
Polyline
100
AcDbLine
 10
5.571000000
 20
-5.835000000
 30
0.000000000
 11
5.698000000
 21
-5.698000000
 31
0.000000000
  0
LINE
  5
A51
330
A02
100
AcDbEntity
  8
Polyline
100
AcDbLine
 10
5.698000000
 20
-5.698000000
 30
0.000000000
 11
5.835000000
 21
-5.571000000
 31
0.000000000
  0
LINE
  5
A52
330
A02
100
AcDbEntity
  8
Polyline
100
AcDbLine
 10
5.835000000
 20
-5.571000000
 30
0.000000000
 11
5.982000000
 21
-5.455000000
 31
0.000000000
  0
LINE
  5
A53
330
A02
100
AcDbEntity
  8
Polyline
100
AcDbLine
 10
5.982000000
 20
-5.455000000
 30
0.000000000
 11
6.138000000
 21
-5.351000000
 31
0.000000000
  0
LINE
  5
A54
330
A02
100
AcDbEntity
  8
Polyline
100
AcDbLine
 10
6.138000000
 20
-5.351000000
 30
0.000000000
 11
6.301000000
 21
-5.260000000
 31
0.000000000
  0
LINE
  5
A55
330
A02
100
AcDbEntity
  8
Polyline
100
AcDbLine
 10
6.301000000
 20
-5.260000000
 30
0.000000000
 11
6.470000000
 21
-5.182000000
 31
0.000000000
  0
LINE
  5
A56
330
A02
100
AcDbEntity
  8
Polyline
100
AcDbLine
 10
6.470000000
 20
-5.182000000
 30
0.000000000
 11
6.646000000
 21
-5.117000000
 31
0.000000000
  0
LINE
  5
A57
330
A02
100
AcDbEntity
  8
Polyline
100
AcDbLine
 10
6.646000000
 20
-5.117000000
 30
0.000000000
 11
6.826000000
 21
-5.066000000
 31
0.000000000
  0
LINE
  5
A58
330
A02
100
AcDbEntity
  8
Polyline
100
AcDbLine
 10
6.826000000
 20
-5.066000000
 30
0.000000000
 11
7.009000000
 21
-5.030000000
 31
0.000000000
  0
LINE
  5
A59
330
A02
100
AcDbEntity
  8
Polyline
100
AcDbLine
 10
7.009000000
 20
-5.030000000
 30
0.000000000
 11
7.195000000
 21
-5.008000000
 31
0.000000000
  0
LINE
  5
A5A
330
A02
100
AcDbEntity
  8
Polyline
100
AcDbLine
 10
7.195000000
 20
-5.008000000
 30
0.000000000
 11
7.382000000
 21
-5.000000000
 31
0.000000000
  0
LINE
  5
A5B
330
A02
100
AcDbEntity
  8
Polyline
100
AcDbLine
 10
7.382000000
 20
-5.000000000
 30
0.000000000
 11
326.470000000
 21
-5.001000000
 31
0.000000000
  0
LINE
  5
A5C
330
A02
100
AcDbEntity
  8
Polyline001
100
AcDbLine
 10
326.146000000
 20
-111.159000000
 30
0.000000000
 11
325.853000000
 21
-111.308000000
 31
0.000000000
  0
LINE
  5
A5D
330
A02
100
AcDbEntity
  8
Polyline001
100
AcDbLine
 10
325.853000000
 20
-111.308000000
 30
0.000000000
 11
325.621000000
 21
-111.541000000
 31
0.000000000
  0
LINE
  5
A5E
330
A02
100
AcDbEntity
  8
Polyline001
100
AcDbLine
 10
325.621000000
 20
-111.541000000
 30
0.000000000
 11
325.472000000
 21
-111.833000000
 31
0.000000000
  0
LINE
  5
A5F
330
A02
100
AcDbEntity
  8
Polyline001
100
AcDbLine
 10
325.472000000
 20
-111.833000000
 30
0.000000000
 11
325.420000000
 21
-112.158000000
 31
0.000000000
  0
LINE
  5
A60
330
A02
100
AcDbEntity
  8
Polyline001
100
AcDbLine
 10
325.420000000
 20
-112.158000000
 30
0.000000000
 11
325.472000000
 21
-112.482000000
 31
0.000000000
  0
LINE
  5
A61
330
A02
100
AcDbEntity
  8
Polyline001
100
AcDbLine
 10
325.472000000
 20
-112.482000000
 30
0.000000000
 11
325.621000000
 21
-112.775000000
 31
0.000000000
  0
LINE
  5
A62
330
A02
100
AcDbEntity
  8
Polyline001
100
AcDbLine
 10
325.621000000
 20
-112.775000000
 30
0.000000000
 11
325.853000000
 21
-113.007000000
 31
0.000000000
  0
LINE
  5
A63
330
A02
100
AcDbEntity
  8
Polyline001
100
AcDbLine
 10
325.853000000
 20
-113.007000000
 30
0.000000000
 11
326.146000000
 21
-113.156000000
 31
0.000000000
  0
LINE
  5
A64
330
A02
100
AcDbEntity
  8
Polyline001
100
AcDbLine
 10
326.146000000
 20
-113.156000000
 30
0.000000000
 11
326.470000000
 21
-113.208000000
 31
0.000000000
  0
LINE
  5
A65
330
A02
100
AcDbEntity
  8
Polyline001
100
AcDbLine
 10
326.470000000
 20
-113.208000000
 30
0.000000000
 11
326.795000000
 21
-113.156000000
 31
0.000000000
  0
LINE
  5
A66
330
A02
100
AcDbEntity
  8
Polyline001
100
AcDbLine
 10
326.795000000
 20
-113.156000000
 30
0.000000000
 11
327.087000000
 21
-113.007000000
 31
0.000000000
  0
LINE
  5
A67
330
A02
100
AcDbEntity
  8
Polyline001
100
AcDbLine
 10
327.087000000
 20
-113.007000000
 30
0.000000000
 11
327.320000000
 21
-112.775000000
 31
0.000000000
  0
LINE
  5
A68
330
A02
100
AcDbEntity
  8
Polyline001
100
AcDbLine
 10
327.320000000
 20
-112.775000000
 30
0.000000000
 11
327.469000000
 21
-112.482000000
 31
0.000000000
  0
LINE
  5
A69
330
A02
100
AcDbEntity
  8
Polyline001
100
AcDbLine
 10
327.469000000
 20
-112.482000000
 30
0.000000000
 11
327.520000000
 21
-112.158000000
 31
0.000000000
  0
LINE
  5
A6A
330
A02
100
AcDbEntity
  8
Polyline001
100
AcDbLine
 10
327.520000000
 20
-112.158000000
 30
0.000000000
 11
327.469000000
 21
-111.833000000
 31
0.000000000
  0
LINE
  5
A6B
330
A02
100
AcDbEntity
  8
Polyline001
100
AcDbLine
 10
327.469000000
 20
-111.833000000
 30
0.000000000
 11
327.320000000
 21
-111.541000000
 31
0.000000000
  0
LINE
  5
A6C
330
A02
100
AcDbEntity
  8
Polyline001
100
AcDbLine
 10
327.320000000
 20
-111.541000000
 30
0.000000000
 11
327.087000000
 21
-111.308000000
 31
0.000000000
  0
LINE
  5
A6D
330
A02
100
AcDbEntity
  8
Polyline001
100
AcDbLine
 10
327.087000000
 20
-111.308000000
 30
0.000000000
 11
326.795000000
 21
-111.159000000
 31
0.000000000
  0
LINE
  5
A6E
330
A02
100
AcDbEntity
  8
Polyline001
100
AcDbLine
 10
326.795000000
 20
-111.159000000
 30
0.000000000
 11
326.470000000
 21
-111.108000000
 31
0.000000000
  0
LINE
  5
A6F
330
A02
100
AcDbEntity
  8
Polyline001
100
AcDbLine
 10
326.470000000
 20
-111.108000000
 30
0.000000000
 11
326.146000000
 21
-111.159000000
 31
0.000000000
  0
LINE
  5
A70
330
A02
100
AcDbEntity
  8
Polyline002
100
AcDbLine
 10
219.783000000
 20
-111.159000000
 30
0.000000000
 11
219.490000000
 21
-111.308000000
 31
0.000000000
  0
LINE
  5
A71
330
A02
100
AcDbEntity
  8
Polyline002
100
AcDbLine
 10
219.490000000
 20
-111.308000000
 30
0.000000000
 11
219.258000000
 21
-111.541000000
 31
0.000000000
  0
LINE
  5
A72
330
A02
100
AcDbEntity
  8
Polyline002
100
AcDbLine
 10
219.258000000
 20
-111.541000000
 30
0.000000000
 11
219.109000000
 21
-111.833000000
 31
0.000000000
  0
LINE
  5
A73
330
A02
100
AcDbEntity
  8
Polyline002
100
AcDbLine
 10
219.109000000
 20
-111.833000000
 30
0.000000000
 11
219.057000000
 21
-112.158000000
 31
0.000000000
  0
LINE
  5
A74
330
A02
100
AcDbEntity
  8
Polyline002
100
AcDbLine
 10
219.057000000
 20
-112.158000000
 30
0.000000000
 11
219.109000000
 21
-112.482000000
 31
0.000000000
  0
LINE
  5
A75
330
A02
100
AcDbEntity
  8
Polyline002
100
AcDbLine
 10
219.109000000
 20
-112.482000000
 30
0.000000000
 11
219.258000000
 21
-112.775000000
 31
0.000000000
  0
LINE
  5
A76
330
A02
100
AcDbEntity
  8
Polyline002
100
AcDbLine
 10
219.258000000
 20
-112.775000000
 30
0.000000000
 11
219.490000000
 21
-113.007000000
 31
0.000000000
  0
LINE
  5
A77
330
A02
100
AcDbEntity
  8
Polyline002
100
AcDbLine
 10
219.490000000
 20
-113.007000000
 30
0.000000000
 11
219.783000000
 21
-113.156000000
 31
0.000000000
  0
LINE
  5
A78
330
A02
100
AcDbEntity
  8
Polyline002
100
AcDbLine
 10
219.783000000
 20
-113.156000000
 30
0.000000000
 11
220.107000000
 21
-113.208000000
 31
0.000000000
  0
LINE
  5
A79
330
A02
100
AcDbEntity
  8
Polyline002
100
AcDbLine
 10
220.107000000
 20
-113.208000000
 30
0.000000000
 11
220.432000000
 21
-113.156000000
 31
0.000000000
  0
LINE
  5
A7A
330
A02
100
AcDbEntity
  8
Polyline002
100
AcDbLine
 10
220.432000000
 20
-113.156000000
 30
0.000000000
 11
220.725000000
 21
-113.007000000
 31
0.000000000
  0
LINE
  5
A7B
330
A02
100
AcDbEntity
  8
Polyline002
100
AcDbLine
 10
220.725000000
 20
-113.007000000
 30
0.000000000
 11
220.957000000
 21
-112.775000000
 31
0.000000000
  0
LINE
  5
A7C
330
A02
100
AcDbEntity
  8
Polyline002
100
AcDbLine
 10
220.957000000
 20
-112.775000000
 30
0.000000000
 11
221.106000000
 21
-112.482000000
 31
0.000000000
  0
LINE
  5
A7D
330
A02
100
AcDbEntity
  8
Polyline002
100
AcDbLine
 10
221.106000000
 20
-112.482000000
 30
0.000000000
 11
221.157000000
 21
-112.158000000
 31
0.000000000
  0
LINE
  5
A7E
330
A02
100
AcDbEntity
  8
Polyline002
100
AcDbLine
 10
221.157000000
 20
-112.158000000
 30
0.000000000
 11
221.106000000
 21
-111.833000000
 31
0.000000000
  0
LINE
  5
A7F
330
A02
100
AcDbEntity
  8
Polyline002
100
AcDbLine
 10
221.106000000
 20
-111.833000000
 30
0.000000000
 11
220.957000000
 21
-111.541000000
 31
0.000000000
  0
LINE
  5
A80
330
A02
100
AcDbEntity
  8
Polyline002
100
AcDbLine
 10
220.957000000
 20
-111.541000000
 30
0.000000000
 11
220.725000000
 21
-111.308000000
 31
0.000000000
  0
LINE
  5
A81
330
A02
100
AcDbEntity
  8
Polyline002
100
AcDbLine
 10
220.725000000
 20
-111.308000000
 30
0.000000000
 11
220.432000000
 21
-111.159000000
 31
0.000000000
  0
LINE
  5
A82
330
A02
100
AcDbEntity
  8
Polyline002
100
AcDbLine
 10
220.432000000
 20
-111.159000000
 30
0.000000000
 11
220.107000000
 21
-111.108000000
 31
0.000000000
  0
LINE
  5
A83
330
A02
100
AcDbEntity
  8
Polyline002
100
AcDbLine
 10
220.107000000
 20
-111.108000000
 30
0.000000000
 11
219.783000000
 21
-111.159000000
 31
0.000000000
  0
LINE
  5
A84
330
A02
100
AcDbEntity
  8
Polyline003
100
AcDbLine
 10
113.420000000
 20
-111.159000000
 30
0.000000000
 11
113.127000000
 21
-111.308000000
 31
0.000000000
  0
LINE
  5
A85
330
A02
100
AcDbEntity
  8
Polyline003
100
AcDbLine
 10
113.127000000
 20
-111.308000000
 30
0.000000000
 11
112.895000000
 21
-111.541000000
 31
0.000000000
  0
LINE
  5
A86
330
A02
100
AcDbEntity
  8
Polyline003
100
AcDbLine
 10
112.895000000
 20
-111.541000000
 30
0.000000000
 11
112.746000000
 21
-111.833000000
 31
0.000000000
  0
LINE
  5
A87
330
A02
100
AcDbEntity
  8
Polyline003
100
AcDbLine
 10
112.746000000
 20
-111.833000000
 30
0.000000000
 11
112.695000000
 21
-112.158000000
 31
0.000000000
  0
LINE
  5
A88
330
A02
100
AcDbEntity
  8
Polyline003
100
AcDbLine
 10
112.695000000
 20
-112.158000000
 30
0.000000000
 11
112.746000000
 21
-112.482000000
 31
0.000000000
  0
LINE
  5
A89
330
A02
100
AcDbEntity
  8
Polyline003
100
AcDbLine
 10
112.746000000
 20
-112.482000000
 30
0.000000000
 11
112.895000000
 21
-112.775000000
 31
0.000000000
  0
LINE
  5
A8A
330
A02
100
AcDbEntity
  8
Polyline003
100
AcDbLine
 10
112.895000000
 20
-112.775000000
 30
0.000000000
 11
113.127000000
 21
-113.007000000
 31
0.000000000
  0
LINE
  5
A8B
330
A02
100
AcDbEntity
  8
Polyline003
100
AcDbLine
 10
113.127000000
 20
-113.007000000
 30
0.000000000
 11
113.420000000
 21
-113.156000000
 31
0.000000000
  0
LINE
  5
A8C
330
A02
100
AcDbEntity
  8
Polyline003
100
AcDbLine
 10
113.420000000
 20
-113.156000000
 30
0.000000000
 11
113.745000000
 21
-113.208000000
 31
0.000000000
  0
LINE
  5
A8D
330
A02
100
AcDbEntity
  8
Polyline003
100
AcDbLine
 10
113.745000000
 20
-113.208000000
 30
0.000000000
 11
114.069000000
 21
-113.156000000
 31
0.000000000
  0
LINE
  5
A8E
330
A02
100
AcDbEntity
  8
Polyline003
100
AcDbLine
 10
114.069000000
 20
-113.156000000
 30
0.000000000
 11
114.362000000
 21
-113.007000000
 31
0.000000000
  0
LINE
  5
A8F
330
A02
100
AcDbEntity
  8
Polyline003
100
AcDbLine
 10
114.362000000
 20
-113.007000000
 30
0.000000000
 11
114.594000000
 21
-112.775000000
 31
0.000000000
  0
LINE
  5
A90
330
A02
100
AcDbEntity
  8
Polyline003
100
AcDbLine
 10
114.594000000
 20
-112.775000000
 30
0.000000000
 11
114.743000000
 21
-112.482000000
 31
0.000000000
  0
LINE
  5
A91
330
A02
100
AcDbEntity
  8
Polyline003
100
AcDbLine
 10
114.743000000
 20
-112.482000000
 30
0.000000000
 11
114.795000000
 21
-112.158000000
 31
0.000000000
  0
LINE
  5
A92
330
A02
100
AcDbEntity
  8
Polyline003
100
AcDbLine
 10
114.795000000
 20
-112.158000000
 30
0.000000000
 11
114.743000000
 21
-111.833000000
 31
0.000000000
  0
LINE
  5
A93
330
A02
100
AcDbEntity
  8
Polyline003
100
AcDbLine
 10
114.743000000
 20
-111.833000000
 30
0.000000000
 11
114.594000000
 21
-111.541000000
 31
0.000000000
  0
LINE
  5
A94
330
A02
100
AcDbEntity
  8
Polyline003
100
AcDbLine
 10
114.594000000
 20
-111.541000000
 30
0.000000000
 11
114.362000000
 21
-111.308000000
 31
0.000000000
  0
LINE
  5
A95
330
A02
100
AcDbEntity
  8
Polyline003
100
AcDbLine
 10
114.362000000
 20
-111.308000000
 30
0.000000000
 11
114.069000000
 21
-111.159000000
 31
0.000000000
  0
LINE
  5
A96
330
A02
100
AcDbEntity
  8
Polyline003
100
AcDbLine
 10
114.069000000
 20
-111.159000000
 30
0.000000000
 11
113.745000000
 21
-111.108000000
 31
0.000000000
  0
LINE
  5
A97
330
A02
100
AcDbEntity
  8
Polyline003
100
AcDbLine
 10
113.745000000
 20
-111.108000000
 30
0.000000000
 11
113.420000000
 21
-111.159000000
 31
0.000000000
  0
LINE
  5
A98
330
A02
100
AcDbEntity
  8
Polyline004
100
AcDbLine
 10
7.057000000
 20
-111.159000000
 30
0.000000000
 11
6.765000000
 21
-111.308000000
 31
0.000000000
  0
LINE
  5
A99
330
A02
100
AcDbEntity
  8
Polyline004
100
AcDbLine
 10
6.765000000
 20
-111.308000000
 30
0.000000000
 11
6.532000000
 21
-111.541000000
 31
0.000000000
  0
LINE
  5
A9A
330
A02
100
AcDbEntity
  8
Polyline004
100
AcDbLine
 10
6.532000000
 20
-111.541000000
 30
0.000000000
 11
6.383000000
 21
-111.833000000
 31
0.000000000
  0
LINE
  5
A9B
330
A02
100
AcDbEntity
  8
Polyline004
100
AcDbLine
 10
6.383000000
 20
-111.833000000
 30
0.000000000
 11
6.332000000
 21
-112.158000000
 31
0.000000000
  0
LINE
  5
A9C
330
A02
100
AcDbEntity
  8
Polyline004
100
AcDbLine
 10
6.332000000
 20
-112.158000000
 30
0.000000000
 11
6.383000000
 21
-112.482000000
 31
0.000000000
  0
LINE
  5
A9D
330
A02
100
AcDbEntity
  8
Polyline004
100
AcDbLine
 10
6.383000000
 20
-112.482000000
 30
0.000000000
 11
6.532000000
 21
-112.775000000
 31
0.000000000
  0
LINE
  5
A9E
330
A02
100
AcDbEntity
  8
Polyline004
100
AcDbLine
 10
6.532000000
 20
-112.775000000
 30
0.000000000
 11
6.765000000
 21
-113.007000000
 31
0.000000000
  0
LINE
  5
A9F
330
A02
100
AcDbEntity
  8
Polyline004
100
AcDbLine
 10
6.765000000
 20
-113.007000000
 30
0.000000000
 11
7.057000000
 21
-113.156000000
 31
0.000000000
  0
LINE
  5
AA0
330
A02
100
AcDbEntity
  8
Polyline004
100
AcDbLine
 10
7.057000000
 20
-113.156000000
 30
0.000000000
 11
7.382000000
 21
-113.208000000
 31
0.000000000
  0
LINE
  5
AA1
330
A02
100
AcDbEntity
  8
Polyline004
100
AcDbLine
 10
7.382000000
 20
-113.208000000
 30
0.000000000
 11
7.706000000
 21
-113.156000000
 31
0.000000000
  0
LINE
  5
AA2
330
A02
100
AcDbEntity
  8
Polyline004
100
AcDbLine
 10
7.706000000
 20
-113.156000000
 30
0.000000000
 11
7.999000000
 21
-113.007000000
 31
0.000000000
  0
LINE
  5
AA3
330
A02
100
AcDbEntity
  8
Polyline004
100
AcDbLine
 10
7.999000000
 20
-113.007000000
 30
0.000000000
 11
8.231000000
 21
-112.775000000
 31
0.000000000
  0
LINE
  5
AA4
330
A02
100
AcDbEntity
  8
Polyline004
100
AcDbLine
 10
8.231000000
 20
-112.775000000
 30
0.000000000
 11
8.380000000
 21
-112.482000000
 31
0.000000000
  0
LINE
  5
AA5
330
A02
100
AcDbEntity
  8
Polyline004
100
AcDbLine
 10
8.380000000
 20
-112.482000000
 30
0.000000000
 11
8.432000000
 21
-112.158000000
 31
0.000000000
  0
LINE
  5
AA6
330
A02
100
AcDbEntity
  8
Polyline004
100
AcDbLine
 10
8.432000000
 20
-112.158000000
 30
0.000000000
 11
8.380000000
 21
-111.833000000
 31
0.000000000
  0
LINE
  5
AA7
330
A02
100
AcDbEntity
  8
Polyline004
100
AcDbLine
 10
8.380000000
 20
-111.833000000
 30
0.000000000
 11
8.231000000
 21
-111.541000000
 31
0.000000000
  0
LINE
  5
AA8
330
A02
100
AcDbEntity
  8
Polyline004
100
AcDbLine
 10
8.231000000
 20
-111.541000000
 30
0.000000000
 11
7.999000000
 21
-111.308000000
 31
0.000000000
  0
LINE
  5
AA9
330
A02
100
AcDbEntity
  8
Polyline004
100
AcDbLine
 10
7.999000000
 20
-111.308000000
 30
0.000000000
 11
7.706000000
 21
-111.159000000
 31
0.000000000
  0
LINE
  5
AAA
330
A02
100
AcDbEntity
  8
Polyline004
100
AcDbLine
 10
7.706000000
 20
-111.159000000
 30
0.000000000
 11
7.382000000
 21
-111.108000000
 31
0.000000000
  0
LINE
  5
AAB
330
A02
100
AcDbEntity
  8
Polyline004
100
AcDbLine
 10
7.382000000
 20
-111.108000000
 30
0.000000000
 11
7.057000000
 21
-111.159000000
 31
0.000000000
  0
LINE
  5
AAC
330
A02
100
AcDbEntity
  8
Polyline005
100
AcDbLine
 10
113.420000000
 20
-6.383000000
 30
0.000000000
 11
113.127000000
 21
-6.532000000
 31
0.000000000
  0
LINE
  5
AAD
330
A02
100
AcDbEntity
  8
Polyline005
100
AcDbLine
 10
113.127000000
 20
-6.532000000
 30
0.000000000
 11
112.895000000
 21
-6.765000000
 31
0.000000000
  0
LINE
  5
AAE
330
A02
100
AcDbEntity
  8
Polyline005
100
AcDbLine
 10
112.895000000
 20
-6.765000000
 30
0.000000000
 11
112.746000000
 21
-7.057000000
 31
0.000000000
  0
LINE
  5
AAF
330
A02
100
AcDbEntity
  8
Polyline005
100
AcDbLine
 10
112.746000000
 20
-7.057000000
 30
0.000000000
 11
112.695000000
 21
-7.382000000
 31
0.000000000
  0
LINE
  5
AB0
330
A02
100
AcDbEntity
  8
Polyline005
100
AcDbLine
 10
112.695000000
 20
-7.382000000
 30
0.000000000
 11
112.746000000
 21
-7.706000000
 31
0.000000000
  0
LINE
  5
AB1
330
A02
100
AcDbEntity
  8
Polyline005
100
AcDbLine
 10
112.746000000
 20
-7.706000000
 30
0.000000000
 11
112.895000000
 21
-7.999000000
 31
0.000000000
  0
LINE
  5
AB2
330
A02
100
AcDbEntity
  8
Polyline005
100
AcDbLine
 10
112.895000000
 20
-7.999000000
 30
0.000000000
 11
113.127000000
 21
-8.231000000
 31
0.000000000
  0
LINE
  5
AB3
330
A02
100
AcDbEntity
  8
Polyline005
100
AcDbLine
 10
113.127000000
 20
-8.231000000
 30
0.000000000
 11
113.420000000
 21
-8.380000000
 31
0.000000000
  0
LINE
  5
AB4
330
A02
100
AcDbEntity
  8
Polyline005
100
AcDbLine
 10
113.420000000
 20
-8.380000000
 30
0.000000000
 11
113.745000000
 21
-8.432000000
 31
0.000000000
  0
LINE
  5
AB5
330
A02
100
AcDbEntity
  8
Polyline005
100
AcDbLine
 10
113.745000000
 20
-8.432000000
 30
0.000000000
 11
114.069000000
 21
-8.380000000
 31
0.000000000
  0
LINE
  5
AB6
330
A02
100
AcDbEntity
  8
Polyline005
100
AcDbLine
 10
114.069000000
 20
-8.380000000
 30
0.000000000
 11
114.362000000
 21
-8.231000000
 31
0.000000000
  0
LINE
  5
AB7
330
A02
100
AcDbEntity
  8
Polyline005
100
AcDbLine
 10
114.362000000
 20
-8.231000000
 30
0.000000000
 11
114.594000000
 21
-7.999000000
 31
0.000000000
  0
LINE
  5
AB8
330
A02
100
AcDbEntity
  8
Polyline005
100
AcDbLine
 10
114.594000000
 20
-7.999000000
 30
0.000000000
 11
114.743000000
 21
-7.706000000
 31
0.000000000
  0
LINE
  5
AB9
330
A02
100
AcDbEntity
  8
Polyline005
100
AcDbLine
 10
114.743000000
 20
-7.706000000
 30
0.000000000
 11
114.795000000
 21
-7.382000000
 31
0.000000000
  0
LINE
  5
ABA
330
A02
100
AcDbEntity
  8
Polyline005
100
AcDbLine
 10
114.795000000
 20
-7.382000000
 30
0.000000000
 11
114.743000000
 21
-7.057000000
 31
0.000000000
  0
LINE
  5
ABB
330
A02
100
AcDbEntity
  8
Polyline005
100
AcDbLine
 10
114.743000000
 20
-7.057000000
 30
0.000000000
 11
114.594000000
 21
-6.765000000
 31
0.000000000
  0
LINE
  5
ABC
330
A02
100
AcDbEntity
  8
Polyline005
100
AcDbLine
 10
114.594000000
 20
-6.765000000
 30
0.000000000
 11
114.362000000
 21
-6.532000000
 31
0.000000000
  0
LINE
  5
ABD
330
A02
100
AcDbEntity
  8
Polyline005
100
AcDbLine
 10
114.362000000
 20
-6.532000000
 30
0.000000000
 11
114.069000000
 21
-6.383000000
 31
0.000000000
  0
LINE
  5
ABE
330
A02
100
AcDbEntity
  8
Polyline005
100
AcDbLine
 10
114.069000000
 20
-6.383000000
 30
0.000000000
 11
113.745000000
 21
-6.332000000
 31
0.000000000
  0
LINE
  5
ABF
330
A02
100
AcDbEntity
  8
Polyline005
100
AcDbLine
 10
113.745000000
 20
-6.332000000
 30
0.000000000
 11
113.420000000
 21
-6.383000000
 31
0.000000000
  0
LINE
  5
AC0
330
A02
100
AcDbEntity
  8
Polyline006
100
AcDbLine
 10
219.783000000
 20
-6.383000000
 30
0.000000000
 11
219.490000000
 21
-6.532000000
 31
0.000000000
  0
LINE
  5
AC1
330
A02
100
AcDbEntity
  8
Polyline006
100
AcDbLine
 10
219.490000000
 20
-6.532000000
 30
0.000000000
 11
219.258000000
 21
-6.765000000
 31
0.000000000
  0
LINE
  5
AC2
330
A02
100
AcDbEntity
  8
Polyline006
100
AcDbLine
 10
219.258000000
 20
-6.765000000
 30
0.000000000
 11
219.109000000
 21
-7.057000000
 31
0.000000000
  0
LINE
  5
AC3
330
A02
100
AcDbEntity
  8
Polyline006
100
AcDbLine
 10
219.109000000
 20
-7.057000000
 30
0.000000000
 11
219.057000000
 21
-7.382000000
 31
0.000000000
  0
LINE
  5
AC4
330
A02
100
AcDbEntity
  8
Polyline006
100
AcDbLine
 10
219.057000000
 20
-7.382000000
 30
0.000000000
 11
219.109000000
 21
-7.706000000
 31
0.000000000
  0
LINE
  5
AC5
330
A02
100
AcDbEntity
  8
Polyline006
100
AcDbLine
 10
219.109000000
 20
-7.706000000
 30
0.000000000
 11
219.258000000
 21
-7.999000000
 31
0.000000000
  0
LINE
  5
AC6
330
A02
100
AcDbEntity
  8
Polyline006
100
AcDbLine
 10
219.258000000
 20
-7.999000000
 30
0.000000000
 11
219.490000000
 21
-8.231000000
 31
0.000000000
  0
LINE
  5
AC7
330
A02
100
AcDbEntity
  8
Polyline006
100
AcDbLine
 10
219.490000000
 20
-8.231000000
 30
0.000000000
 11
219.783000000
 21
-8.380000000
 31
0.000000000
  0
LINE
  5
AC8
330
A02
100
AcDbEntity
  8
Polyline006
100
AcDbLine
 10
219.783000000
 20
-8.380000000
 30
0.000000000
 11
220.107000000
 21
-8.432000000
 31
0.000000000
  0
LINE
  5
AC9
330
A02
100
AcDbEntity
  8
Polyline006
100
AcDbLine
 10
220.107000000
 20
-8.432000000
 30
0.000000000
 11
220.432000000
 21
-8.380000000
 31
0.000000000
  0
LINE
  5
ACA
330
A02
100
AcDbEntity
  8
Polyline006
100
AcDbLine
 10
220.432000000
 20
-8.380000000
 30
0.000000000
 11
220.725000000
 21
-8.231000000
 31
0.000000000
  0
LINE
  5
ACB
330
A02
100
AcDbEntity
  8
Polyline006
100
AcDbLine
 10
220.725000000
 20
-8.231000000
 30
0.000000000
 11
220.957000000
 21
-7.999000000
 31
0.000000000
  0
LINE
  5
ACC
330
A02
100
AcDbEntity
  8
Polyline006
100
AcDbLine
 10
220.957000000
 20
-7.999000000
 30
0.000000000
 11
221.106000000
 21
-7.706000000
 31
0.000000000
  0
LINE
  5
ACD
330
A02
100
AcDbEntity
  8
Polyline006
100
AcDbLine
 10
221.106000000
 20
-7.706000000
 30
0.000000000
 11
221.157000000
 21
-7.382000000
 31
0.000000000
  0
LINE
  5
ACE
330
A02
100
AcDbEntity
  8
Polyline006
100
AcDbLine
 10
221.157000000
 20
-7.382000000
 30
0.000000000
 11
221.106000000
 21
-7.057000000
 31
0.000000000
  0
LINE
  5
ACF
330
A02
100
AcDbEntity
  8
Polyline006
100
AcDbLine
 10
221.106000000
 20
-7.057000000
 30
0.000000000
 11
220.957000000
 21
-6.765000000
 31
0.000000000
  0
LINE
  5
AD0
330
A02
100
AcDbEntity
  8
Polyline006
100
AcDbLine
 10
220.957000000
 20
-6.765000000
 30
0.000000000
 11
220.725000000
 21
-6.532000000
 31
0.000000000
  0
LINE
  5
AD1
330
A02
100
AcDbEntity
  8
Polyline006
100
AcDbLine
 10
220.725000000
 20
-6.532000000
 30
0.000000000
 11
220.432000000
 21
-6.383000000
 31
0.000000000
  0
LINE
  5
AD2
330
A02
100
AcDbEntity
  8
Polyline006
100
AcDbLine
 10
220.432000000
 20
-6.383000000
 30
0.000000000
 11
220.107000000
 21
-6.332000000
 31
0.000000000
  0
LINE
  5
AD3
330
A02
100
AcDbEntity
  8
Polyline006
100
AcDbLine
 10
220.107000000
 20
-6.332000000
 30
0.000000000
 11
219.783000000
 21
-6.383000000
 31
0.000000000
  0
LINE
  5
AD4
330
A02
100
AcDbEntity
  8
Polyline007
100
AcDbLine
 10
326.146000000
 20
-6.383000000
 30
0.000000000
 11
325.853000000
 21
-6.532000000
 31
0.000000000
  0
LINE
  5
AD5
330
A02
100
AcDbEntity
  8
Polyline007
100
AcDbLine
 10
325.853000000
 20
-6.532000000
 30
0.000000000
 11
325.621000000
 21
-6.765000000
 31
0.000000000
  0
LINE
  5
AD6
330
A02
100
AcDbEntity
  8
Polyline007
100
AcDbLine
 10
325.621000000
 20
-6.765000000
 30
0.000000000
 11
325.472000000
 21
-7.057000000
 31
0.000000000
  0
LINE
  5
AD7
330
A02
100
AcDbEntity
  8
Polyline007
100
AcDbLine
 10
325.472000000
 20
-7.057000000
 30
0.000000000
 11
325.420000000
 21
-7.382000000
 31
0.000000000
  0
LINE
  5
AD8
330
A02
100
AcDbEntity
  8
Polyline007
100
AcDbLine
 10
325.420000000
 20
-7.382000000
 30
0.000000000
 11
325.472000000
 21
-7.706000000
 31
0.000000000
  0
LINE
  5
AD9
330
A02
100
AcDbEntity
  8
Polyline007
100
AcDbLine
 10
325.472000000
 20
-7.706000000
 30
0.000000000
 11
325.621000000
 21
-7.999000000
 31
0.000000000
  0
LINE
  5
ADA
330
A02
100
AcDbEntity
  8
Polyline007
100
AcDbLine
 10
325.621000000
 20
-7.999000000
 30
0.000000000
 11
325.853000000
 21
-8.231000000
 31
0.000000000
  0
LINE
  5
ADB
330
A02
100
AcDbEntity
  8
Polyline007
100
AcDbLine
 10
325.853000000
 20
-8.231000000
 30
0.000000000
 11
326.146000000
 21
-8.380000000
 31
0.000000000
  0
LINE
  5
ADC
330
A02
100
AcDbEntity
  8
Polyline007
100
AcDbLine
 10
326.146000000
 20
-8.380000000
 30
0.000000000
 11
326.470000000
 21
-8.432000000
 31
0.000000000
  0
LINE
  5
ADD
330
A02
100
AcDbEntity
  8
Polyline007
100
AcDbLine
 10
326.470000000
 20
-8.432000000
 30
0.000000000
 11
326.795000000
 21
-8.380000000
 31
0.000000000
  0
LINE
  5
ADE
330
A02
100
AcDbEntity
  8
Polyline007
100
AcDbLine
 10
326.795000000
 20
-8.380000000
 30
0.000000000
 11
327.087000000
 21
-8.231000000
 31
0.000000000
  0
LINE
  5
ADF
330
A02
100
AcDbEntity
  8
Polyline007
100
AcDbLine
 10
327.087000000
 20
-8.231000000
 30
0.000000000
 11
327.320000000
 21
-7.999000000
 31
0.000000000
  0
LINE
  5
AE0
330
A02
100
AcDbEntity
  8
Polyline007
100
AcDbLine
 10
327.320000000
 20
-7.999000000
 30
0.000000000
 11
327.469000000
 21
-7.706000000
 31
0.000000000
  0
LINE
  5
AE1
330
A02
100
AcDbEntity
  8
Polyline007
100
AcDbLine
 10
327.469000000
 20
-7.706000000
 30
0.000000000
 11
327.520000000
 21
-7.382000000
 31
0.000000000
  0
LINE
  5
AE2
330
A02
100
AcDbEntity
  8
Polyline007
100
AcDbLine
 10
327.520000000
 20
-7.382000000
 30
0.000000000
 11
327.469000000
 21
-7.057000000
 31
0.000000000
  0
LINE
  5
AE3
330
A02
100
AcDbEntity
  8
Polyline007
100
AcDbLine
 10
327.469000000
 20
-7.057000000
 30
0.000000000
 11
327.320000000
 21
-6.765000000
 31
0.000000000
  0
LINE
  5
AE4
330
A02
100
AcDbEntity
  8
Polyline007
100
AcDbLine
 10
327.320000000
 20
-6.765000000
 30
0.000000000
 11
327.087000000
 21
-6.532000000
 31
0.000000000
  0
LINE
  5
AE5
330
A02
100
AcDbEntity
  8
Polyline007
100
AcDbLine
 10
327.087000000
 20
-6.532000000
 30
0.000000000
 11
326.795000000
 21
-6.383000000
 31
0.000000000
  0
LINE
  5
AE6
330
A02
100
AcDbEntity
  8
Polyline007
100
AcDbLine
 10
326.795000000
 20
-6.383000000
 30
0.000000000
 11
326.470000000
 21
-6.332000000
 31
0.000000000
  0
LINE
  5
AE7
330
A02
100
AcDbEntity
  8
Polyline007
100
AcDbLine
 10
326.470000000
 20
-6.332000000
 30
0.000000000
 11
326.146000000
 21
-6.383000000
 31
0.000000000
  0
LINE
  5
AE8
330
A02
100
AcDbEntity
  8
Polyline008
100
AcDbLine
 10
7.057000000
 20
-6.383000000
 30
0.000000000
 11
6.765000000
 21
-6.532000000
 31
0.000000000
  0
LINE
  5
AE9
330
A02
100
AcDbEntity
  8
Polyline008
100
AcDbLine
 10
6.765000000
 20
-6.532000000
 30
0.000000000
 11
6.532000000
 21
-6.765000000
 31
0.000000000
  0
LINE
  5
AEA
330
A02
100
AcDbEntity
  8
Polyline008
100
AcDbLine
 10
6.532000000
 20
-6.765000000
 30
0.000000000
 11
6.383000000
 21
-7.057000000
 31
0.000000000
  0
LINE
  5
AEB
330
A02
100
AcDbEntity
  8
Polyline008
100
AcDbLine
 10
6.383000000
 20
-7.057000000
 30
0.000000000
 11
6.332000000
 21
-7.382000000
 31
0.000000000
  0
LINE
  5
AEC
330
A02
100
AcDbEntity
  8
Polyline008
100
AcDbLine
 10
6.332000000
 20
-7.382000000
 30
0.000000000
 11
6.383000000
 21
-7.706000000
 31
0.000000000
  0
LINE
  5
AED
330
A02
100
AcDbEntity
  8
Polyline008
100
AcDbLine
 10
6.383000000
 20
-7.706000000
 30
0.000000000
 11
6.532000000
 21
-7.999000000
 31
0.000000000
  0
LINE
  5
AEE
330
A02
100
AcDbEntity
  8
Polyline008
100
AcDbLine
 10
6.532000000
 20
-7.999000000
 30
0.000000000
 11
6.765000000
 21
-8.231000000
 31
0.000000000
  0
LINE
  5
AEF
330
A02
100
AcDbEntity
  8
Polyline008
100
AcDbLine
 10
6.765000000
 20
-8.231000000
 30
0.000000000
 11
7.057000000
 21
-8.380000000
 31
0.000000000
  0
LINE
  5
AF0
330
A02
100
AcDbEntity
  8
Polyline008
100
AcDbLine
 10
7.057000000
 20
-8.380000000
 30
0.000000000
 11
7.382000000
 21
-8.432000000
 31
0.000000000
  0
LINE
  5
AF1
330
A02
100
AcDbEntity
  8
Polyline008
100
AcDbLine
 10
7.382000000
 20
-8.432000000
 30
0.000000000
 11
7.706000000
 21
-8.380000000
 31
0.000000000
  0
LINE
  5
AF2
330
A02
100
AcDbEntity
  8
Polyline008
100
AcDbLine
 10
7.706000000
 20
-8.380000000
 30
0.000000000
 11
7.999000000
 21
-8.231000000
 31
0.000000000
  0
LINE
  5
AF3
330
A02
100
AcDbEntity
  8
Polyline008
100
AcDbLine
 10
7.999000000
 20
-8.231000000
 30
0.000000000
 11
8.231000000
 21
-7.999000000
 31
0.000000000
  0
LINE
  5
AF4
330
A02
100
AcDbEntity
  8
Polyline008
100
AcDbLine
 10
8.231000000
 20
-7.999000000
 30
0.000000000
 11
8.380000000
 21
-7.706000000
 31
0.000000000
  0
LINE
  5
AF5
330
A02
100
AcDbEntity
  8
Polyline008
100
AcDbLine
 10
8.380000000
 20
-7.706000000
 30
0.000000000
 11
8.432000000
 21
-7.382000000
 31
0.000000000
  0
LINE
  5
AF6
330
A02
100
AcDbEntity
  8
Polyline008
100
AcDbLine
 10
8.432000000
 20
-7.382000000
 30
0.000000000
 11
8.380000000
 21
-7.057000000
 31
0.000000000
  0
LINE
  5
AF7
330
A02
100
AcDbEntity
  8
Polyline008
100
AcDbLine
 10
8.380000000
 20
-7.057000000
 30
0.000000000
 11
8.231000000
 21
-6.765000000
 31
0.000000000
  0
LINE
  5
AF8
330
A02
100
AcDbEntity
  8
Polyline008
100
AcDbLine
 10
8.231000000
 20
-6.765000000
 30
0.000000000
 11
7.999000000
 21
-6.532000000
 31
0.000000000
  0
LINE
  5
AF9
330
A02
100
AcDbEntity
  8
Polyline008
100
AcDbLine
 10
7.999000000
 20
-6.532000000
 30
0.000000000
 11
7.706000000
 21
-6.383000000
 31
0.000000000
  0
LINE
  5
AFA
330
A02
100
AcDbEntity
  8
Polyline008
100
AcDbLine
 10
7.706000000
 20
-6.383000000
 30
0.000000000
 11
7.382000000
 21
-6.332000000
 31
0.000000000
  0
LINE
  5
AFB
330
A02
100
AcDbEntity
  8
Polyline008
100
AcDbLine
 10
7.382000000
 20
-6.332000000
 30
0.000000000
 11
7.057000000
 21
-6.383000000
 31
0.000000000
  0
ENDSEC
  0
SECTION
  2
OBJECTS
  0
DICTIONARY
  5
F000
330
0
100
AcDbDictionary
  3
ACAD_GROUP
350
F001
  0
DICTIONARY
  5
F001
330
F000
100
AcDbDictionary
  0
ENDSEC
  0
EOF