  0
SECTION
  2
HEADER
  9
$ACADVER
  1
AC1009
  9
$FILLMODE
 70
 0
  9
$SPLFRAME
 70
 1
  9
$EXTMIN
 10
0
 20
0
 30
0.0
  9
$EXTMAX
 10
1058.33
 20
1058.33
 30
0.0
  0
ENDSEC
  0
SECTION
  2
TABLES
  0
TABLE
  2
LAYER
 70
1
  0
LAYER
  2
0
 70
     0
 62
     7
  6
CONTINUOUS
  0
ENDTAB
  0
ENDSEC
  0
SECTION
  2
ENTITIES
  0
LINE
  8
0
 62
     0
 10
326.47
 20
114.591
 30
0.0
 11
326.657
 21
114.584
 31
0.0
  0
LINE
  8
0
 62
     0
 10
326.657
 20
114.584
 30
0.0
 11
326.843
 21
114.562
 31
0.0
  0
LINE
  8
0
 62
     0
 10
326.843
 20
114.562
 30
0.0
 11
327.026
 21
114.526
 31
0.0
  0
LINE
  8
0
 62
     0
 10
327.026
 20
114.526
 30
0.0
 11
327.206
 21
114.475
 31
0.0
  0
LINE
  8
0
 62
     0
 10
327.206
 20
114.475
 30
0.0
 11
327.382
 21
114.41
 31
0.0
  0
LINE
  8
0
 62
     0
 10
327.382
 20
114.41
 30
0.0
 11
327.551
 21
114.332
 31
0.0
  0
LINE
  8
0
 62
     0
 10
327.551
 20
114.332
 30
0.0
 11
327.714
 21
114.241
 31
0.0
  0
LINE
  8
0
 62
     0
 10
327.714
 20
114.241
 30
0.0
 11
327.87
 21
114.136
 31
0.0
  0
LINE
  8
0
 62
     0
 10
327.87
 20
114.136
 30
0.0
 11
328.017
 21
114.02
 31
0.0
  0
LINE
  8
0
 62
     0
 10
328.017
 20
114.02
 30
0.0
 11
328.154
 21
113.894
 31
0.0
  0
LINE
  8
0
 62
     0
 10
328.154
 20
113.894
 30
0.0
 11
328.281
 21
113.757
 31
0.0
  0
LINE
  8
0
 62
     0
 10
328.281
 20
113.757
 30
0.0
 11
328.398
 21
113.61
 31
0.0
  0
LINE
  8
0
 62
     0
 10
328.398
 20
113.61
 30
0.0
 11
328.501
 21
113.454
 31
0.0
  0
LINE
  8
0
 62
     0
 10
328.501
 20
113.454
 30
0.0
 11
328.592
 21
113.291
 31
0.0
  0
LINE
  8
0
 62
     0
 10
328.592
 20
113.291
 30
0.0
 11
328.67
 21
113.122
 31
0.0
  0
LINE
  8
0
 62
     0
 10
328.67
 20
113.122
 30
0.0
 11
328.735
 21
112.945
 31
0.0
  0
LINE
  8
0
 62
     0
 10
328.735
 20
112.945
 30
0.0
 11
328.786
 21
112.766
 31
0.0
  0
LINE
  8
0
 62
     0
 10
328.786
 20
112.766
 30
0.0
 11
328.822
 21
112.583
 31
0.0
  0
LINE
  8
0
 62
     0
 10
328.822
 20
112.583
 30
0.0
 11
328.844
 21
112.397
 31
0.0
  0
LINE
  8
0
 62
     0
 10
328.844
 20
112.397
 30
0.0
 11
328.852
 21
112.209
 31
0.0
  0
LINE
  8
0
 62
     0
 10
328.852
 20
112.209
 30
0.0
 11
328.852
 21
7.43313
 31
0.0
  0
LINE
  8
0
 62
     0
 10
328.852
 20
7.43313
 30
0.0
 11
328.844
 21
7.24711
 31
0.0
  0
LINE
  8
0
 62
     0
 10
328.844
 20
7.24711
 30
0.0
 11
328.822
 21
7.06106
 31
0.0
  0
LINE
  8
0
 62
     0
 10
328.822
 20
7.06106
 30
0.0
 11
328.786
 21
6.87779
 31
0.0
  0
LINE
  8
0
 62
     0
 10
328.786
 20
6.87779
 30
0.0
 11
328.735
 21
6.69727
 31
0.0
  0
LINE
  8
0
 62
     0
 10
328.735
 20
6.69727
 30
0.0
 11
328.67
 21
6.52226
 31
0.0
  0
LINE
  8
0
 62
     0
 10
328.67
 20
6.52226
 30
0.0
 11
328.592
 21
6.35275
 31
0.0
  0
LINE
  8
0
 62
     0
 10
328.592
 20
6.35275
 30
0.0
 11
328.501
 21
6.19016
 31
0.0
  0
LINE
  8
0
 62
     0
 10
328.501
 20
6.19016
 30
0.0
 11
328.398
 21
6.03444
 31
0.0
  0
LINE
  8
0
 62
     0
 10
328.398
 20
6.03444
 30
0.0
 11
328.281
 21
5.88698
 31
0.0
  0
LINE
  8
0
 62
     0
 10
328.281
 20
5.88698
 30
0.0
 11
328.154
 21
5.74918
 31
0.0
  0
LINE
  8
0
 62
     0
 10
328.154
 20
5.74918
 30
0.0
 11
328.017
 21
5.62377
 31
0.0
  0
LINE
  8
0
 62
     0
 10
328.017
 20
5.62377
 30
0.0
 11
327.87
 21
5.50803
 31
0.0
  0
LINE
  8
0
 62
     0
 10
327.87
 20
5.50803
 30
0.0
 11
327.714
 21
5.40329
 31
0.0
  0
LINE
  8
0
 62
     0
 10
327.714
 20
5.40329
 30
0.0
 11
327.551
 21
5.31234
 31
0.0
  0
LINE
  8
0
 62
     0
 10
327.551
 20
5.31234
 30
0.0
 11
327.382
 21
5.23378
 31
0.0
  0
LINE
  8
0
 62
     0
 10
327.382
 20
5.23378
 30
0.0
 11
327.206
 21
5.16901
 31
0.0
  0
LINE
  8
0
 62
     0
 10
327.206
 20
5.16901
 30
0.0
 11
327.026
 21
5.11803
 31
0.0
  0
LINE
  8
0
 62
     0
 10
327.026
 20
5.11803
 30
0.0
 11
326.843
 21
5.08222
 31
0.0
  0
LINE
  8
0
 62
     0
 10
326.843
 20
5.08222
 30
0.0
 11
326.657
 21
5.06017
 31
0.0
  0
LINE
  8
0
 62
     0
 10
326.657
 20
5.06017
 30
0.0
 11
326.47
 21
5.05326
 31
0.0
  0
LINE
  8
0
 62
     0
 10
326.47
 20
5.05326
 30
0.0
 11
7.38216
 21
5.05326
 31
0.0
  0
LINE
  8
0
 62
     0
 10
7.38216
 20
5.05326
 30
0.0
 11
7.19473
 21
5.06017
 31
0.0
  0
LINE
  8
0
 62
     0
 10
7.19473
 20
5.06017
 30
0.0
 11
7.00871
 21
5.08222
 31
0.0
  0
LINE
  8
0
 62
     0
 10
7.00871
 20
5.08222
 30
0.0
 11
6.82544
 21
5.11803
 31
0.0
  0
LINE
  8
0
 62
     0
 10
6.82544
 20
5.11803
 30
0.0
 11
6.64626
 21
5.16901
 31
0.0
  0
LINE
  8
0
 62
     0
 10
6.64626
 20
5.16901
 30
0.0
 11
6.46987
 21
5.23378
 31
0.0
  0
LINE
  8
0
 62
     0
 10
6.46987
 20
5.23378
 30
0.0
 11
6.3004
 21
5.31234
 31
0.0
  0
LINE
  8
0
 62
     0
 10
6.3004
 20
5.31234
 30
0.0
 11
6.13777
 21
5.40329
 31
0.0
  0
LINE
  8
0
 62
     0
 10
6.13777
 20
5.40329
 30
0.0
 11
5.98205
 21
5.50803
 31
0.0
  0
LINE
  8
0
 62
     0
 10
5.98205
 20
5.50803
 30
0.0
 11
5.83463
 21
5.62377
 31
0.0
  0
LINE
  8
0
 62
     0
 10
5.83463
 20
5.62377
 30
0.0
 11
5.69817
 21
5.74918
 31
0.0
  0
LINE
  8
0
 62
     0
 10
5.69817
 20
5.74918
 30
0.0
 11
5.57142
 21
5.88698
 31
0.0
  0
LINE
  8
0
 62
     0
 10
5.57142
 20
5.88698
 30
0.0
 11
5.45564
 21
6.03444
 31
0.0
  0
LINE
  8
0
 62
     0
 10
5.45564
 20
6.03444
 30
0.0
 11
5.35093
 21
6.19016
 31
0.0
  0
LINE
  8
0
 62
     0
 10
5.35093
 20
6.19016
 30
0.0
 11
5.25999
 21
6.35275
 31
0.0
  0
LINE
  8
0
 62
     0
 10
5.25999
 20
6.35275
 30
0.0
 11
5.18142
 21
6.52226
 31
0.0
  0
LINE
  8
0
 62
     0
 10
5.18142
 20
6.52226
 30
0.0
 11
5.11665
 21
6.69727
 31
0.0
  0
LINE
  8
0
 62
     0
 10
5.11665
 20
6.69727
 30
0.0
 11
5.06568
 21
6.87779
 31
0.0
  0
LINE
  8
0
 62
     0
 10
5.06568
 20
6.87779
 30
0.0
 11
5.02984
 21
7.06106
 31
0.0
  0
LINE
  8
0
 62
     0
 10
5.02984
 20
7.06106
 30
0.0
 11
5.00779
 21
7.24711
 31
0.0
  0
LINE
  8
0
 62
     0
 10
5.00779
 20
7.24711
 30
0.0
 11
4.99953
 21
7.43313
 31
0.0
  0
LINE
  8
0
 62
     0
 10
4.99953
 20
7.43313
 30
0.0
 11
5.00091
 21
112.209
 31
0.0
  0
LINE
  8
0
 62
     0
 10
5.00091
 20
112.209
 30
0.0
 11
5.00779
 21
112.397
 31
0.0
  0
LINE
  8
0
 62
     0
 10
5.00779
 20
112.397
 30
0.0
 11
5.02984
 21
112.583
 31
0.0
  0
LINE
  8
0
 62
     0
 10
5.02984
 20
112.583
 30
0.0
 11
5.06568
 21
112.766
 31
0.0
  0
LINE
  8
0
 62
     0
 10
5.06568
 20
112.766
 30
0.0
 11
5.11665
 21
112.945
 31
0.0
  0
LINE
  8
0
 62
     0
 10
5.11665
 20
112.945
 30
0.0
 11
5.18142
 21
113.122
 31
0.0
  0
LINE
  8
0
 62
     0
 10
5.18142
 20
113.122
 30
0.0
 11
5.25999
 21
113.291
 31
0.0
  0
LINE
  8
0
 62
     0
 10
5.25999
 20
113.291
 30
0.0
 11
5.35093
 21
113.454
 31
0.0
  0
LINE
  8
0
 62
     0
 10
5.35093
 20
113.454
 30
0.0
 11
5.45564
 21
113.61
 31
0.0
  0
LINE
  8
0
 62
     0
 10
5.45564
 20
113.61
 30
0.0
 11
5.57142
 21
113.757
 31
0.0
  0
LINE
  8
0
 62
     0
 10
5.57142
 20
113.757
 30
0.0
 11
5.69817
 21
113.894
 31
0.0
  0
LINE
  8
0
 62
     0
 10
5.69817
 20
113.894
 30
0.0
 11
5.83463
 21
114.02
 31
0.0
  0
LINE
  8
0
 62
     0
 10
5.83463
 20
114.02
 30
0.0
 11
5.98205
 21
114.136
 31
0.0
  0
LINE
  8
0
 62
     0
 10
5.98205
 20
114.136
 30
0.0
 11
6.13777
 21
114.241
 31
0.0
  0
LINE
  8
0
 62
     0
 10
6.13777
 20
114.241
 30
0.0
 11
6.3004
 21
114.332
 31
0.0
  0
LINE
  8
0
 62
     0
 10
6.3004
 20
114.332
 30
0.0
 11
6.46987
 21
114.41
 31
0.0
  0
LINE
  8
0
 62
     0
 10
6.46987
 20
114.41
 30
0.0
 11
6.64626
 21
114.475
 31
0.0
  0
LINE
  8
0
 62
     0
 10
6.64626
 20
114.475
 30
0.0
 11
6.82544
 21
114.526
 31
0.0
  0
LINE
  8
0
 62
     0
 10
6.82544
 20
114.526
 30
0.0
 11
7.00871
 21
114.562
 31
0.0
  0
LINE
  8
0
 62
     0
 10
7.00871
 20
114.562
 30
0.0
 11
7.19473
 21
114.584
 31
0.0
  0
LINE
  8
0
 62
     0
 10
7.19473
 20
114.584
 30
0.0
 11
7.38216
 21
114.592
 31
0.0
  0
LINE
  8
0
 62
     0
 10
7.38216
 20
114.592
 30
0.0
 11
326.47
 21
114.591
 31
0.0
  0
LINE
  8
0
 62
     0
 10
326.131
 20
8.47908
 30
0.0
 11
325.823
 21
8.32337
 31
0.0
  0
LINE
  8
0
 62
     0
 10
325.823
 20
8.32337
 30
0.0
 11
325.579
 21
8.08083
 31
0.0
  0
LINE
  8
0
 62
     0
 10
325.579
 20
8.08083
 30
0.0
 11
325.424
 21
7.77353
 31
0.0
  0
LINE
  8
0
 62
     0
 10
325.424
 20
7.77353
 30
0.0
 11
325.37
 21
7.43313
 31
0.0
  0
LINE
  8
0
 62
     0
 10
325.37
 20
7.43313
 30
0.0
 11
325.424
 21
7.09415
 31
0.0
  0
LINE
  8
0
 62
     0
 10
325.424
 20
7.09415
 30
0.0
 11
325.579
 21
6.78822
 31
0.0
  0
LINE
  8
0
 62
     0
 10
325.579
 20
6.78822
 30
0.0
 11
325.823
 21
6.54431
 31
0.0
  0
LINE
  8
0
 62
     0
 10
325.823
 20
6.54431
 30
0.0
 11
326.131
 21
6.38722
 31
0.0
  0
LINE
  8
0
 62
     0
 10
326.131
 20
6.38722
 30
0.0
 11
326.47
 21
6.33345
 31
0.0
  0
LINE
  8
0
 62
     0
 10
326.47
 20
6.33345
 30
0.0
 11
326.81
 21
6.38722
 31
0.0
  0
LINE
  8
0
 62
     0
 10
326.81
 20
6.38722
 30
0.0
 11
327.117
 21
6.54431
 31
0.0
  0
LINE
  8
0
 62
     0
 10
327.117
 20
6.54431
 30
0.0
 11
327.36
 21
6.78822
 31
0.0
  0
LINE
  8
0
 62
     0
 10
327.36
 20
6.78822
 30
0.0
 11
327.516
 21
7.09415
 31
0.0
  0
LINE
  8
0
 62
     0
 10
327.516
 20
7.09415
 30
0.0
 11
327.569
 21
7.43313
 31
0.0
  0
LINE
  8
0
 62
     0
 10
327.569
 20
7.43313
 30
0.0
 11
327.516
 21
7.77353
 31
0.0
  0
LINE
  8
0
 62
     0
 10
327.516
 20
7.77353
 30
0.0
 11
327.36
 21
8.08083
 31
0.0
  0
LINE
  8
0
 62
     0
 10
327.36
 20
8.08083
 30
0.0
 11
327.117
 21
8.32337
 31
0.0
  0
LINE
  8
0
 62
     0
 10
327.117
 20
8.32337
 30
0.0
 11
326.81
 21
8.47908
 31
0.0
  0
LINE
  8
0
 62
     0
 10
326.81
 20
8.47908
 30
0.0
 11
326.47
 21
8.53419
 31
0.0
  0
LINE
  8
0
 62
     0
 10
326.47
 20
8.53419
 30
0.0
 11
326.131
 21
8.47908
 31
0.0
  0
LINE
  8
0
 62
     0
 10
219.767
 20
8.47908
 30
0.0
 11
219.461
 21
8.32337
 31
0.0
  0
LINE
  8
0
 62
     0
 10
219.461
 20
8.32337
 30
0.0
 11
219.217
 21
8.08083
 31
0.0
  0
LINE
  8
0
 62
     0
 10
219.217
 20
8.08083
 30
0.0
 11
219.061
 21
7.77353
 31
0.0
  0
LINE
  8
0
 62
     0
 10
219.061
 20
7.77353
 30
0.0
 11
219.008
 21
7.43313
 31
0.0
  0
LINE
  8
0
 62
     0
 10
219.008
 20
7.43313
 30
0.0
 11
219.061
 21
7.09415
 31
0.0
  0
LINE
  8
0
 62
     0
 10
219.061
 20
7.09415
 30
0.0
 11
219.217
 21
6.78822
 31
0.0
  0
LINE
  8
0
 62
     0
 10
219.217
 20
6.78822
 30
0.0
 11
219.461
 21
6.54431
 31
0.0
  0
LINE
  8
0
 62
     0
 10
219.461
 20
6.54431
 30
0.0
 11
219.767
 21
6.38722
 31
0.0
  0
LINE
  8
0
 62
     0
 10
219.767
 20
6.38722
 30
0.0
 11
220.107
 21
6.33345
 31
0.0
  0
LINE
  8
0
 62
     0
 10
220.107
 20
6.33345
 30
0.0
 11
220.448
 21
6.38722
 31
0.0
  0
LINE
  8
0
 62
     0
 10
220.448
 20
6.38722
 30
0.0
 11
220.754
 21
6.54431
 31
0.0
  0
LINE
  8
0
 62
     0
 10
220.754
 20
6.54431
 30
0.0
 11
220.997
 21
6.78822
 31
0.0
  0
LINE
  8
0
 62
     0
 10
220.997
 20
6.78822
 30
0.0
 11
221.155
 21
7.09415
 31
0.0
  0
LINE
  8
0
 62
     0
 10
221.155
 20
7.09415
 30
0.0
 11
221.207
 21
7.43313
 31
0.0
  0
LINE
  8
0
 62
     0
 10
221.207
 20
7.43313
 30
0.0
 11
221.155
 21
7.77353
 31
0.0
  0
LINE
  8
0
 62
     0
 10
221.155
 20
7.77353
 30
0.0
 11
220.997
 21
8.08083
 31
0.0
  0
LINE
  8
0
 62
     0
 10
220.997
 20
8.08083
 30
0.0
 11
220.754
 21
8.32337
 31
0.0
  0
LINE
  8
0
 62
     0
 10
220.754
 20
8.32337
 30
0.0
 11
220.448
 21
8.47908
 31
0.0
  0
LINE
  8
0
 62
     0
 10
220.448
 20
8.47908
 30
0.0
 11
220.107
 21
8.53419
 31
0.0
  0
LINE
  8
0
 62
     0
 10
220.107
 20
8.53419
 30
0.0
 11
219.767
 21
8.47908
 31
0.0
  0
LINE
  8
0
 62
     0
 10
113.406
 20
8.47908
 30
0.0
 11
113.098
 21
8.32337
 31
0.0
  0
LINE
  8
0
 62
     0
 10
113.098
 20
8.32337
 30
0.0
 11
112.854
 21
8.08083
 31
0.0
  0
LINE
  8
0
 62
     0
 10
112.854
 20
8.08083
 30
0.0
 11
112.697
 21
7.77353
 31
0.0
  0
LINE
  8
0
 62
     0
 10
112.697
 20
7.77353
 30
0.0
 11
112.645
 21
7.43313
 31
0.0
  0
LINE
  8
0
 62
     0
 10
112.645
 20
7.43313
 30
0.0
 11
112.697
 21
7.09415
 31
0.0
  0
LINE
  8
0
 62
     0
 10
112.697
 20
7.09415
 30
0.0
 11
112.854
 21
6.78822
 31
0.0
  0
LINE
  8
0
 62
     0
 10
112.854
 20
6.78822
 30
0.0
 11
113.098
 21
6.54431
 31
0.0
  0
LINE
  8
0
 62
     0
 10
113.098
 20
6.54431
 30
0.0
 11
113.406
 21
6.38722
 31
0.0
  0
LINE
  8
0
 62
     0
 10
113.406
 20
6.38722
 30
0.0
 11
113.745
 21
6.33345
 31
0.0
  0
LINE
  8
0
 62
     0
 10
113.745
 20
6.33345
 30
0.0
 11
114.085
 21
6.38722
 31
0.0
  0
LINE
  8
0
 62
     0
 10
114.085
 20
6.38722
 30
0.0
 11
114.391
 21
6.54431
 31
0.0
  0
LINE
  8
0
 62
     0
 10
114.391
 20
6.54431
 30
0.0
 11
114.635
 21
6.78822
 31
0.0
  0
LINE
  8
0
 62
     0
 10
114.635
 20
6.78822
 30
0.0
 11
114.791
 21
7.09415
 31
0.0
  0
LINE
  8
0
 62
     0
 10
114.791
 20
7.09415
 30
0.0
 11
114.844
 21
7.43313
 31
0.0
  0
LINE
  8
0
 62
     0
 10
114.844
 20
7.43313
 30
0.0
 11
114.791
 21
7.77353
 31
0.0
  0
LINE
  8
0
 62
     0
 10
114.791
 20
7.77353
 30
0.0
 11
114.635
 21
8.08083
 31
0.0
  0
LINE
  8
0
 62
     0
 10
114.635
 20
8.08083
 30
0.0
 11
114.391
 21
8.32337
 31
0.0
  0
LINE
  8
0
 62
     0
 10
114.391
 20
8.32337
 30
0.0
 11
114.085
 21
8.47908
 31
0.0
  0
LINE
  8
0
 62
     0
 10
114.085
 20
8.47908
 30
0.0
 11
113.745
 21
8.53419
 31
0.0
  0
LINE
  8
0
 62
     0
 10
113.745
 20
8.53419
 30
0.0
 11
113.406
 21
8.47908
 31
0.0
  0
LINE
  8
0
 62
     0
 10
7.04176
 20
8.47908
 30
0.0
 11
6.73446
 21
8.32337
 31
0.0
  0
LINE
  8
0
 62
     0
 10
6.73446
 20
8.32337
 30
0.0
 11
6.49192
 21
8.08083
 31
0.0
  0
LINE
  8
0
 62
     0
 10
6.49192
 20
8.08083
 30
0.0
 11
6.33621
 21
7.77353
 31
0.0
  0
LINE
  8
0
 62
     0
 10
6.33621
 20
7.77353
 30
0.0
 11
6.28248
 21
7.43313
 31
0.0
  0
LINE
  8
0
 62
     0
 10
6.28248
 20
7.43313
 30
0.0
 11
6.33621
 21
7.09415
 31
0.0
  0
LINE
  8
0
 62
     0
 10
6.33621
 20
7.09415
 30
0.0
 11
6.49192
 21
6.78822
 31
0.0
  0
LINE
  8
0
 62
     0
 10
6.49192
 20
6.78822
 30
0.0
 11
6.73446
 21
6.54431
 31
0.0
  0
LINE
  8
0
 62
     0
 10
6.73446
 20
6.54431
 30
0.0
 11
7.04176
 21
6.38722
 31
0.0
  0
LINE
  8
0
 62
     0
 10
7.04176
 20
6.38722
 30
0.0
 11
7.38216
 21
6.33345
 31
0.0
  0
LINE
  8
0
 62
     0
 10
7.38216
 20
6.33345
 30
0.0
 11
7.72252
 21
6.38722
 31
0.0
  0
LINE
  8
0
 62
     0
 10
7.72252
 20
6.38722
 30
0.0
 11
8.02707
 21
6.54431
 31
0.0
  0
LINE
  8
0
 62
     0
 10
8.02707
 20
6.54431
 30
0.0
 11
8.27236
 21
6.78822
 31
0.0
  0
LINE
  8
0
 62
     0
 10
8.27236
 20
6.78822
 30
0.0
 11
8.42807
 21
7.09415
 31
0.0
  0
LINE
  8
0
 62
     0
 10
8.42807
 20
7.09415
 30
0.0
 11
8.48184
 21
7.43313
 31
0.0
  0
LINE
  8
0
 62
     0
 10
8.48184
 20
7.43313
 30
0.0
 11
8.42807
 21
7.77353
 31
0.0
  0
LINE
  8
0
 62
     0
 10
8.42807
 20
7.77353
 30
0.0
 11
8.27236
 21
8.08083
 31
0.0
  0
LINE
  8
0
 62
     0
 10
8.27236
 20
8.08083
 30
0.0
 11
8.02707
 21
8.32337
 31
0.0
  0
LINE
  8
0
 62
     0
 10
8.02707
 20
8.32337
 30
0.0
 11
7.72252
 21
8.47908
 31
0.0
  0
LINE
  8
0
 62
     0
 10
7.72252
 20
8.47908
 30
0.0
 11
7.38216
 21
8.53419
 31
0.0
  0
LINE
  8
0
 62
     0
 10
7.38216
 20
8.53419
 30
0.0
 11
7.04176
 21
8.47908
 31
0.0
  0
LINE
  8
0
 62
     0
 10
113.406
 20
113.255
 30
0.0
 11
113.098
 21
113.1
 31
0.0
  0
LINE
  8
0
 62
     0
 10
113.098
 20
113.1
 30
0.0
 11
112.854
 21
112.857
 31
0.0
  0
LINE
  8
0
 62
     0
 10
112.854
 20
112.857
 30
0.0
 11
112.697
 21
112.55
 31
0.0
  0
LINE
  8
0
 62
     0
 10
112.697
 20
112.55
 30
0.0
 11
112.645
 21
112.209
 31
0.0
  0
LINE
  8
0
 62
     0
 10
112.645
 20
112.209
 30
0.0
 11
112.697
 21
111.869
 31
0.0
  0
LINE
  8
0
 62
     0
 10
112.697
 20
111.869
 30
0.0
 11
112.854
 21
111.565
 31
0.0
  0
LINE
  8
0
 62
     0
 10
112.854
 20
111.565
 30
0.0
 11
113.098
 21
111.319
 31
0.0
  0
LINE
  8
0
 62
     0
 10
113.098
 20
111.319
 30
0.0
 11
113.406
 21
111.163
 31
0.0
  0
LINE
  8
0
 62
     0
 10
113.406
 20
111.163
 30
0.0
 11
113.745
 21
111.11
 31
0.0
  0
LINE
  8
0
 62
     0
 10
113.745
 20
111.11
 30
0.0
 11
114.085
 21
111.163
 31
0.0
  0
LINE
  8
0
 62
     0
 10
114.085
 20
111.163
 30
0.0
 11
114.391
 21
111.319
 31
0.0
  0
LINE
  8
0
 62
     0
 10
114.391
 20
111.319
 30
0.0
 11
114.635
 21
111.565
 31
0.0
  0
LINE
  8
0
 62
     0
 10
114.635
 20
111.565
 30
0.0
 11
114.791
 21
111.869
 31
0.0
  0
LINE
  8
0
 62
     0
 10
114.791
 20
111.869
 30
0.0
 11
114.844
 21
112.209
 31
0.0
  0
LINE
  8
0
 62
     0
 10
114.844
 20
112.209
 30
0.0
 11
114.791
 21
112.55
 31
0.0
  0
LINE
  8
0
 62
     0
 10
114.791
 20
112.55
 30
0.0
 11
114.635
 21
112.857
 31
0.0
  0
LINE
  8
0
 62
     0
 10
114.635
 20
112.857
 30
0.0
 11
114.391
 21
113.1
 31
0.0
  0
LINE
  8
0
 62
     0
 10
114.391
 20
113.1
 30
0.0
 11
114.085
 21
113.255
 31
0.0
  0
LINE
  8
0
 62
     0
 10
114.085
 20
113.255
 30
0.0
 11
113.745
 21
113.309
 31
0.0
  0
LINE
  8
0
 62
     0
 10
113.745
 20
113.309
 30
0.0
 11
113.406
 21
113.255
 31
0.0
  0
LINE
  8
0
 62
     0
 10
219.767
 20
113.255
 30
0.0
 11
219.461
 21
113.1
 31
0.0
  0
LINE
  8
0
 62
     0
 10
219.461
 20
113.1
 30
0.0
 11
219.217
 21
112.857
 31
0.0
  0
LINE
  8
0
 62
     0
 10
219.217
 20
112.857
 30
0.0
 11
219.061
 21
112.55
 31
0.0
  0
LINE
  8
0
 62
     0
 10
219.061
 20
112.55
 30
0.0
 11
219.008
 21
112.209
 31
0.0
  0
LINE
  8
0
 62
     0
 10
219.008
 20
112.209
 30
0.0
 11
219.061
 21
111.869
 31
0.0
  0
LINE
  8
0
 62
     0
 10
219.061
 20
111.869
 30
0.0
 11
219.217
 21
111.565
 31
0.0
  0
LINE
  8
0
 62
     0
 10
219.217
 20
111.565
 30
0.0
 11
219.461
 21
111.319
 31
0.0
  0
LINE
  8
0
 62
     0
 10
219.461
 20
111.319
 30
0.0
 11
219.767
 21
111.163
 31
0.0
  0
LINE
  8
0
 62
     0
 10
219.767
 20
111.163
 30
0.0
 11
220.107
 21
111.11
 31
0.0
  0
LINE
  8
0
 62
     0
 10
220.107
 20
111.11
 30
0.0
 11
220.448
 21
111.163
 31
0.0
  0
LINE
  8
0
 62
     0
 10
220.448
 20
111.163
 30
0.0
 11
220.754
 21
111.319
 31
0.0
  0
LINE
  8
0
 62
     0
 10
220.754
 20
111.319
 30
0.0
 11
220.997
 21
111.565
 31
0.0
  0
LINE
  8
0
 62
     0
 10
220.997
 20
111.565
 30
0.0
 11
221.155
 21
111.869
 31
0.0
  0
LINE
  8
0
 62
     0
 10
221.155
 20
111.869
 30
0.0
 11
221.207
 21
112.209
 31
0.0
  0
LINE
  8
0
 62
     0
 10
221.207
 20
112.209
 30
0.0
 11
221.155
 21
112.55
 31
0.0
  0
LINE
  8
0
 62
     0
 10
221.155
 20
112.55
 30
0.0
 11
220.997
 21
112.857
 31
0.0
  0
LINE
  8
0
 62
     0
 10
220.997
 20
112.857
 30
0.0
 11
220.754
 21
113.1
 31
0.0
  0
LINE
  8
0
 62
     0
 10
220.754
 20
113.1
 30
0.0
 11
220.448
 21
113.255
 31
0.0
  0
LINE
  8
0
 62
     0
 10
220.448
 20
113.255
 30
0.0
 11
220.107
 21
113.309
 31
0.0
  0
LINE
  8
0
 62
     0
 10
220.107
 20
113.309
 30
0.0
 11
219.767
 21
113.255
 31
0.0
  0
LINE
  8
0
 62
     0
 10
326.131
 20
113.255
 30
0.0
 11
325.823
 21
113.1
 31
0.0
  0
LINE
  8
0
 62
     0
 10
325.823
 20
113.1
 30
0.0
 11
325.579
 21
112.857
 31
0.0
  0
LINE
  8
0
 62
     0
 10
325.579
 20
112.857
 30
0.0
 11
325.424
 21
112.55
 31
0.0
  0
LINE
  8
0
 62
     0
 10
325.424
 20
112.55
 30
0.0
 11
325.37
 21
112.209
 31
0.0
  0
LINE
  8
0
 62
     0
 10
325.37
 20
112.209
 30
0.0
 11
325.424
 21
111.869
 31
0.0
  0
LINE
  8
0
 62
     0
 10
325.424
 20
111.869
 30
0.0
 11
325.579
 21
111.565
 31
0.0
  0
LINE
  8
0
 62
     0
 10
325.579
 20
111.565
 30
0.0
 11
325.823
 21
111.319
 31
0.0
  0
LINE
  8
0
 62
     0
 10
325.823
 20
111.319
 30
0.0
 11
326.131
 21
111.163
 31
0.0
  0
LINE
  8
0
 62
     0
 10
326.131
 20
111.163
 30
0.0
 11
326.47
 21
111.11
 31
0.0
  0
LINE
  8
0
 62
     0
 10
326.47
 20
111.11
 30
0.0
 11
326.81
 21
111.163
 31
0.0
  0
LINE
  8
0
 62
     0
 10
326.81
 20
111.163
 30
0.0
 11
327.117
 21
111.319
 31
0.0
  0
LINE
  8
0
 62
     0
 10
327.117
 20
111.319
 30
0.0
 11
327.36
 21
111.565
 31
0.0
  0
LINE
  8
0
 62
     0
 10
327.36
 20
111.565
 30
0.0
 11
327.516
 21
111.869
 31
0.0
  0
LINE
  8
0
 62
     0
 10
327.516
 20
111.869
 30
0.0
 11
327.569
 21
112.209
 31
0.0
  0
LINE
  8
0
 62
     0
 10
327.569
 20
112.209
 30
0.0
 11
327.516
 21
112.55
 31
0.0
  0
LINE
  8
0
 62
     0
 10
327.516
 20
112.55
 30
0.0
 11
327.36
 21
112.857
 31
0.0
  0
LINE
  8
0
 62
     0
 10
327.36
 20
112.857
 30
0.0
 11
327.117
 21
113.1
 31
0.0
  0
LINE
  8
0
 62
     0
 10
327.117
 20
113.1
 30
0.0
 11
326.81
 21
113.255
 31
0.0
  0
LINE
  8
0
 62
     0
 10
326.81
 20
113.255
 30
0.0
 11
326.47
 21
113.309
 31
0.0
  0
LINE
  8
0
 62
     0
 10
326.47
 20
113.309
 30
0.0
 11
326.131
 21
113.255
 31
0.0
  0
LINE
  8
0
 62
     0
 10
7.04176
 20
113.255
 30
0.0
 11
6.73446
 21
113.1
 31
0.0
  0
LINE
  8
0
 62
     0
 10
6.73446
 20
113.1
 30
0.0
 11
6.49192
 21
112.857
 31
0.0
  0
LINE
  8
0
 62
     0
 10
6.49192
 20
112.857
 30
0.0
 11
6.33621
 21
112.55
 31
0.0
  0
LINE
  8
0
 62
     0
 10
6.33621
 20
112.55
 30
0.0
 11
6.28248
 21
112.209
 31
0.0
  0
LINE
  8
0
 62
     0
 10
6.28248
 20
112.209
 30
0.0
 11
6.33621
 21
111.869
 31
0.0
  0
LINE
  8
0
 62
     0
 10
6.33621
 20
111.869
 30
0.0
 11
6.49192
 21
111.565
 31
0.0
  0
LINE
  8
0
 62
     0
 10
6.49192
 20
111.565
 30
0.0
 11
6.73446
 21
111.319
 31
0.0
  0
LINE
  8
0
 62
     0
 10
6.73446
 20
111.319
 30
0.0
 11
7.04176
 21
111.163
 31
0.0
  0
LINE
  8
0
 62
     0
 10
7.04176
 20
111.163
 30
0.0
 11
7.38216
 21
111.11
 31
0.0
  0
LINE
  8
0
 62
     0
 10
7.38216
 20
111.11
 30
0.0
 11
7.72252
 21
111.163
 31
0.0
  0
LINE
  8
0
 62
     0
 10
7.72252
 20
111.163
 30
0.0
 11
8.02707
 21
111.319
 31
0.0
  0
LINE
  8
0
 62
     0
 10
8.02707
 20
111.319
 30
0.0
 11
8.27236
 21
111.565
 31
0.0
  0
LINE
  8
0
 62
     0
 10
8.27236
 20
111.565
 30
0.0
 11
8.42807
 21
111.869
 31
0.0
  0
LINE
  8
0
 62
     0
 10
8.42807
 20
111.869
 30
0.0
 11
8.48184
 21
112.209
 31
0.0
  0
LINE
  8
0
 62
     0
 10
8.48184
 20
112.209
 30
0.0
 11
8.42807
 21
112.55
 31
0.0
  0
LINE
  8
0
 62
     0
 10
8.42807
 20
112.55
 30
0.0
 11
8.27236
 21
112.857
 31
0.0
  0
LINE
  8
0
 62
     0
 10
8.27236
 20
112.857
 30
0.0
 11
8.02707
 21
113.1
 31
0.0
  0
LINE
  8
0
 62
     0
 10
8.02707
 20
113.1
 30
0.0
 11
7.72252
 21
113.255
 31
0.0
  0
LINE
  8
0
 62
     0
 10
7.72252
 20
113.255
 30
0.0
 11
7.38216
 21
113.309
 31
0.0
  0
LINE
  8
0
 62
     0
 10
7.38216
 20
113.309
 30
0.0
 11
7.04176
 21
113.255
 31
0.0
  0
ENDSEC
  0
EOF
