  0
SECTION
  2
HEADER
  9
$ACADVER
  1
AC1009
  9
$FILLMODE
 70
 0
  9
$SPLFRAME
 70
 1
  9
$EXTMIN
 10
0
 20
0
 30
0.0
  9
$EXTMAX
 10
1058.33
 20
1058.33
 30
0.0
  0
ENDSEC
  0
SECTION
  2
TABLES
  0
TABLE
  2
LAYER
 70
1
  0
LAYER
  2
0
 70
     0
 62
     7
  6
CONTINUOUS
  0
ENDTAB
  0
ENDSEC
  0
SECTION
  2
ENTITIES
  0
LINE
  8
0
 62
     0
 10
326.47
 20
114.591
 30
0.0
 11
326.657
 21
114.584
 31
0.0
  0
LINE
  8
0
 62
     0
 10
326.657
 20
114.584
 30
0.0
 11
326.843
 21
114.562
 31
0.0
  0
LINE
  8
0
 62
     0
 10
326.843
 20
114.562
 30
0.0
 11
327.026
 21
114.526
 31
0.0
  0
LINE
  8
0
 62
     0
 10
327.026
 20
114.526
 30
0.0
 11
327.206
 21
114.475
 31
0.0
  0
LINE
  8
0
 62
     0
 10
327.206
 20
114.475
 30
0.0
 11
327.382
 21
114.41
 31
0.0
  0
LINE
  8
0
 62
     0
 10
327.382
 20
114.41
 30
0.0
 11
327.551
 21
114.332
 31
0.0
  0
LINE
  8
0
 62
     0
 10
327.551
 20
114.332
 30
0.0
 11
327.714
 21
114.241
 31
0.0
  0
LINE
  8
0
 62
     0
 10
327.714
 20
114.241
 30
0.0
 11
327.87
 21
114.136
 31
0.0
  0
LINE
  8
0
 62
     0
 10
327.87
 20
114.136
 30
0.0
 11
328.017
 21
114.02
 31
0.0
  0
LINE
  8
0
 62
     0
 10
328.017
 20
114.02
 30
0.0
 11
328.154
 21
113.894
 31
0.0
  0
LINE
  8
0
 62
     0
 10
328.154
 20
113.894
 30
0.0
 11
328.281
 21
113.757
 31
0.0
  0
LINE
  8
0
 62
     0
 10
328.281
 20
113.757
 30
0.0
 11
328.398
 21
113.61
 31
0.0
  0
LINE
  8
0
 62
     0
 10
328.398
 20
113.61
 30
0.0
 11
328.501
 21
113.454
 31
0.0
  0
LINE
  8
0
 62
     0
 10
328.501
 20
113.454
 30
0.0
 11
328.592
 21
113.291
 31
0.0
  0
LINE
  8
0
 62
     0
 10
328.592
 20
113.291
 30
0.0
 11
328.67
 21
113.122
 31
0.0
  0
LINE
  8
0
 62
     0
 10
328.67
 20
113.122
 30
0.0
 11
328.735
 21
112.945
 31
0.0
  0
LINE
  8
0
 62
     0
 10
328.735
 20
112.945
 30
0.0
 11
328.786
 21
112.766
 31
0.0
  0
LINE
  8
0
 62
     0
 10
328.786
 20
112.766
 30
0.0
 11
328.822
 21
112.583
 31
0.0
  0
LINE
  8
0
 62
     0
 10
328.822
 20
112.583
 30
0.0
 11
328.844
 21
112.397
 31
0.0
  0
LINE
  8
0
 62
     0
 10
328.844
 20
112.397
 30
0.0
 11
328.852
 21
112.209
 31
0.0
  0
LINE
  8
0
 62
     0
 10
328.852
 20
112.209
 30
0.0
 11
328.852
 21
7.43313
 31
0.0
  0
LINE
  8
0
 62
     0
 10
328.852
 20
7.43313
 30
0.0
 11
328.844
 21
7.24711
 31
0.0
  0
LINE
  8
0
 62
     0
 10
328.844
 20
7.24711
 30
0.0
 11
328.822
 21
7.06106
 31
0.0
  0
LINE
  8
0
 62
     0
 10
328.822
 20
7.06106
 30
0.0
 11
328.786
 21
6.87779
 31
0.0
  0
LINE
  8
0
 62
     0
 10
328.786
 20
6.87779
 30
0.0
 11
328.735
 21
6.69727
 31
0.0
  0
LINE
  8
0
 62
     0
 10
328.735
 20
6.69727
 30
0.0
 11
328.67
 21
6.52226
 31
0.0
  0
LINE
  8
0
 62
     0
 10
328.67
 20
6.52226
 30
0.0
 11
328.592
 21
6.35275
 31
0.0
  0
LINE
  8
0
 62
     0
 10
328.592
 20
6.35275
 30
0.0
 11
328.501
 21
6.19016
 31
0.0
  0
LINE
  8
0
 62
     0
 10
328.501
 20
6.19016
 30
0.0
 11
328.398
 21
6.03444
 31
0.0
  0
LINE
  8
0
 62
     0
 10
328.398
 20
6.03444
 30
0.0
 11
328.281
 21
5.88698
 31
0.0
  0
LINE
  8
0
 62
     0
 10
328.281
 20
5.88698
 30
0.0
 11
328.154
 21
5.74918
 31
0.0
  0
LINE
  8
0
 62
     0
 10
328.154
 20
5.74918
 30
0.0
 11
328.017
 21
5.62377
 31
0.0
  0
LINE
  8
0
 62
     0
 10
328.017
 20
5.62377
 30
0.0
 11
327.87
 21
5.50803
 31
0.0
  0
LINE
  8
0
 62
     0
 10
327.87
 20
5.50803
 30
0.0
 11
327.714
 21
5.40329
 31
0.0
  0
LINE
  8
0
 62
     0
 10
327.714
 20
5.40329
 30
0.0
 11
327.551
 21
5.31234
 31
0.0
  0
LINE
  8
0
 62
     0
 10
327.551
 20
5.31234
 30
0.0
 11
327.382
 21
5.23378
 31
0.0
  0
LINE
  8
0
 62
     0
 10
327.382
 20
5.23378
 30
0.0
 11
327.206
 21
5.16901
 31
0.0
  0
LINE
  8
0
 62
     0
 10
327.206
 20
5.16901
 30
0.0
 11
327.026
 21
5.11803
 31
0.0
  0
LINE
  8
0
 62
     0
 10
327.026
 20
5.11803
 30
0.0
 11
326.843
 21
5.08222
 31
0.0
  0
LINE
  8
0
 62
     0
 10
326.843
 20
5.08222
 30
0.0
 11
326.657
 21
5.06017
 31
0.0
  0
LINE
  8
0
 62
     0
 10
326.657
 20
5.06017
 30
0.0
 11
326.47
 21
5.05326
 31
0.0
  0
LINE
  8
0
 62
     0
 10
326.47
 20
5.05326
 30
0.0
 11
7.38216
 21
5.05326
 31
0.0
  0
LINE
  8
0
 62
     0
 10
7.38216
 20
5.05326
 30
0.0
 11
7.19473
 21
5.06017
 31
0.0
  0
LINE
  8
0
 62
     0
 10
7.19473
 20
5.06017
 30
0.0
 11
7.00871
 21
5.08222
 31
0.0
  0
LINE
  8
0
 62
     0
 10
7.00871
 20
5.08222
 30
0.0
 11
6.82544
 21
5.11803
 31
0.0
  0
LINE
  8
0
 62
     0
 10
6.82544
 20
5.11803
 30
0.0
 11
6.64626
 21
5.16901
 31
0.0
  0
LINE
  8
0
 62
     0
 10
6.64626
 20
5.16901
 30
0.0
 11
6.46987
 21
5.23378
 31
0.0
  0
LINE
  8
0
 62
     0
 10
6.46987
 20
5.23378
 30
0.0
 11
6.3004
 21
5.31234
 31
0.0
  0
LINE
  8
0
 62
     0
 10
6.3004
 20
5.31234
 30
0.0
 11
6.13777
 21
5.40329
 31
0.0
  0
LINE
  8
0
 62
     0
 10
6.13777
 20
5.40329
 30
0.0
 11
5.98205
 21
5.50803
 31
0.0
  0
LINE
  8
0
 62
     0
 10
5.98205
 20
5.50803
 30
0.0
 11
5.83463
 21
5.62377
 31
0.0
  0
LINE
  8
0
 62
     0
 10
5.83463
 20
5.62377
 30
0.0
 11
5.69817
 21
5.74918
 31
0.0
  0
LINE
  8
0
 62
     0
 10
5.69817
 20
5.74918
 30
0.0
 11
5.57142
 21
5.88698
 31
0.0
  0
LINE
  8
0
 62
     0
 10
5.57142
 20
5.88698
 30
0.0
 11
5.45564
 21
6.03444
 31
0.0
  0
LINE
  8
0
 62
     0
 10
5.45564
 20
6.03444
 30
0.0
 11
5.35093
 21
6.19016
 31
0.0
  0
LINE
  8
0
 62
     0
 10
5.35093
 20
6.19016
 30
0.0
 11
5.25999
 21
6.35275
 31
0.0
  0
LINE
  8
0
 62
     0
 10
5.25999
 20
6.35275
 30
0.0
 11
5.18142
 21
6.52226
 31
0.0
  0
LINE
  8
0
 62
     0
 10
5.18142
 20
6.52226
 30
0.0
 11
5.11665
 21
6.69727
 31
0.0
  0
LINE
  8
0
 62
     0
 10
5.11665
 20
6.69727
 30
0.0
 11
5.06568
 21
6.87779
 31
0.0
  0
LINE
  8
0
 62
     0
 10
5.06568
 20
6.87779
 30
0.0
 11
5.02984
 21
7.06106
 31
0.0
  0
LINE
  8
0
 62
     0
 10
5.02984
 20
7.06106
 30
0.0
 11
5.00779
 21
7.24711
 31
0.0
  0
LINE
  8
0
 62
     0
 10
5.00779
 20
7.24711
 30
0.0
 11
4.99953
 21
7.43313
 31
0.0
  0
LINE
  8
0
 62
     0
 10
4.99953
 20
7.43313
 30
0.0
 11
5.00091
 21
112.209
 31
0.0
  0
LINE
  8
0
 62
     0
 10
5.00091
 20
112.209
 30
0.0
 11
5.00779
 21
112.397
 31
0.0
  0
LINE
  8
0
 62
     0
 10
5.00779
 20
112.397
 30
0.0
 11
5.02984
 21
112.583
 31
0.0
  0
LINE
  8
0
 62
     0
 10
5.02984
 20
112.583
 30
0.0
 11
5.06568
 21
112.766
 31
0.0
  0
LINE
  8
0
 62
     0
 10
5.06568
 20
112.766
 30
0.0
 11
5.11665
 21
112.945
 31
0.0
  0
LINE
  8
0
 62
     0
 10
5.11665
 20
112.945
 30
0.0
 11
5.18142
 21
113.122
 31
0.0
  0
LINE
  8
0
 62
     0
 10
5.18142
 20
113.122
 30
0.0
 11
5.25999
 21
113.291
 31
0.0
  0
LINE
  8
0
 62
     0
 10
5.25999
 20
113.291
 30
0.0
 11
5.35093
 21
113.454
 31
0.0
  0
LINE
  8
0
 62
     0
 10
5.35093
 20
113.454
 30
0.0
 11
5.45564
 21
113.61
 31
0.0
  0
LINE
  8
0
 62
     0
 10
5.45564
 20
113.61
 30
0.0
 11
5.57142
 21
113.757
 31
0.0
  0
LINE
  8
0
 62
     0
 10
5.57142
 20
113.757
 30
0.0
 11
5.69817
 21
113.894
 31
0.0
  0
LINE
  8
0
 62
     0
 10
5.69817
 20
113.894
 30
0.0
 11
5.83463
 21
114.02
 31
0.0
  0
LINE
  8
0
 62
     0
 10
5.83463
 20
114.02
 30
0.0
 11
5.98205
 21
114.136
 31
0.0
  0
LINE
  8
0
 62
     0
 10
5.98205
 20
114.136
 30
0.0
 11
6.13777
 21
114.241
 31
0.0
  0
LINE
  8
0
 62
     0
 10
6.13777
 20
114.241
 30
0.0
 11
6.3004
 21
114.332
 31
0.0
  0
LINE
  8
0
 62
     0
 10
6.3004
 20
114.332
 30
0.0
 11
6.46987
 21
114.41
 31
0.0
  0
LINE
  8
0
 62
     0
 10
6.46987
 20
114.41
 30
0.0
 11
6.64626
 21
114.475
 31
0.0
  0
LINE
  8
0
 62
     0
 10
6.64626
 20
114.475
 30
0.0
 11
6.82544
 21
114.526
 31
0.0
  0
LINE
  8
0
 62
     0
 10
6.82544
 20
114.526
 30
0.0
 11
7.00871
 21
114.562
 31
0.0
  0
LINE
  8
0
 62
     0
 10
7.00871
 20
114.562
 30
0.0
 11
7.19473
 21
114.584
 31
0.0
  0
LINE
  8
0
 62
     0
 10
7.19473
 20
114.584
 30
0.0
 11
7.38216
 21
114.592
 31
0.0
  0
LINE
  8
0
 62
     0
 10
7.38216
 20
114.592
 30
0.0
 11
326.47
 21
114.591
 31
0.0
  0
LINE
  8
0
 62
     0
 10
326.131
 20
8.47908
 30
0.0
 11
325.823
 21
8.32337
 31
0.0
  0
LINE
  8
0
 62
     0
 10
325.823
 20
8.32337
 30
0.0
 11
325.579
 21
8.08083
 31
0.0
  0
LINE
  8
0
 62
     0
 10
325.579
 20
8.08083
 30
0.0
 11
325.424
 21
7.77353
 31
0.0
  0
LINE
  8
0
 62
     0
 10
325.424
 20
7.77353
 30
0.0
 11
325.37
 21
7.43313
 31
0.0
  0
LINE
  8
0
 62
     0
 10
325.37
 20
7.43313
 30
0.0
 11
325.424
 21
7.09415
 31
0.0
  0
LINE
  8
0
 62
     0
 10
325.424
 20
7.09415
 30
0.0
 11
325.579
 21
6.78822
 31
0.0
  0
LINE
  8
0
 62
     0
 10
325.579
 20
6.78822
 30
0.0
 11
325.823
 21
6.54431
 31
0.0
  0
LINE
  8
0
 62
     0
 10
325.823
 20
6.54431
 30
0.0
 11
326.131
 21
6.38722
 31
0.0
  0
LINE
  8
0
 62
     0
 10
326.131
 20
6.38722
 30
0.0
 11
326.47
 21
6.33345
 31
0.0
  0
LINE
  8
0
 62
     0
 10
326.47
 20
6.33345
 30
0.0
 11
326.81
 21
6.38722
 31
0.0
  0
LINE
  8
0
 62
     0
 10
326.81
 20
6.38722
 30
0.0
 11
327.117
 21
6.54431
 31
0.0
  0
LINE
  8
0
 62
     0
 10
327.117
 20
6.54431
 30
0.0
 11
327.36
 21
6.78822
 31
0.0
  0
LINE
  8
0
 62
     0
 10
327.36
 20
6.78822
 30
0.0
 11
327.516
 21
7.09415
 31
0.0
  0
LINE
  8
0
 62
     0
 10
327.516
 20
7.09415
 30
0.0
 11
327.569
 21
7.43313
 31
0.0
  0
LINE
  8
0
 62
     0
 10
327.569
 20
7.43313
 30
0.0
 11
327.516
 21
7.77353
 31
0.0
  0
LINE
  8
0
 62
     0
 10
327.516
 20
7.77353
 30
0.0
 11
327.36
 21
8.08083
 31
0.0
  0
LINE
  8
0
 62
     0
 10
327.36
 20
8.08083
 30
0.0
 11
327.117
 21
8.32337
 31
0.0
  0
LINE
  8
0
 62
     0
 10
327.117
 20
8.32337
 30
0.0
 11
326.81
 21
8.47908
 31
0.0
  0
LINE
  8
0
 62
     0
 10
326.81
 20
8.47908
 30
0.0
 11
326.47
 21
8.53419
 31
0.0
  0
LINE
  8
0
 62
     0
 10
326.47
 20
8.53419
 30
0.0
 11
326.131
 21
8.47908
 31
0.0
  0
LINE
  8
0
 62
     0
 10
219.767
 20
8.47908
 30
0.0
 11
219.461
 21
8.32337
 31
0.0
  0
LINE
  8
0
 62
     0
 10
219.461
 20
8.32337
 30
0.0
 11
219.217
 21
8.08083
 31
0.0
  0
LINE
  8
0
 62
     0
 10
219.217
 20
8.08083
 30
0.0
 11
219.061
 21
7.77353
 31
0.0
  0
LINE
  8
0
 62
     0
 10
219.061
 20
7.77353
 30
0.0
 11
219.008
 21
7.43313
 31
0.0
  0
LINE
  8
0
 62
     0
 10
219.008
 20
7.43313
 30
0.0
 11
219.061
 21
7.09415
 31
0.0
  0
LINE
  8
0
 62
     0
 10
219.061
 20
7.09415
 30
0.0
 11
219.217
 21
6.78822
 31
0.0
  0
LINE
  8
0
 62
     0
 10
219.217
 20
6.78822
 30
0.0
 11
219.461
 21
6.54431
 31
0.0
  0
LINE
  8
0
 62
     0
 10
219.461
 20
6.54431
 30
0.0
 11
219.767
 21
6.38722
 31
0.0
  0
LINE
  8
0
 62
     0
 10
219.767
 20
6.38722
 30
0.0
 11
220.107
 21
6.33345
 31
0.0
  0
LINE
  8
0
 62
     0
 10
220.107
 20
6.33345
 30
0.0
 11
220.448
 21
6.38722
 31
0.0
  0
LINE
  8
0
 62
     0
 10
220.448
 20
6.38722
 30
0.0
 11
220.754
 21
6.54431
 31
0.0
  0
LINE
  8
0
 62
     0
 10
220.754
 20
6.54431
 30
0.0
 11
220.997
 21
6.78822
 31
0.0
  0
LINE
  8
0
 62
     0
 10
220.997
 20
6.78822
 30
0.0
 11
221.155
 21
7.09415
 31
0.0
  0
LINE
  8
0
 62
     0
 10
221.155
 20
7.09415
 30
0.0
 11
221.207
 21
7.43313
 31
0.0
  0
LINE
  8
0
 62
     0
 10
221.207
 20
7.43313
 30
0.0
 11
221.155
 21
7.77353
 31
0.0
  0
LINE
  8
0
 62
     0
 10
221.155
 20
7.77353
 30
0.0
 11
220.997
 21
8.08083
 31
0.0
  0
LINE
  8
0
 62
     0
 10
220.997
 20
8.08083
 30
0.0
 11
220.754
 21
8.32337
 31
0.0
  0
LINE
  8
0
 62
     0
 10
220.754
 20
8.32337
 30
0.0
 11
220.448
 21
8.47908
 31
0.0
  0
LINE
  8
0
 62
     0
 10
220.448
 20
8.47908
 30
0.0
 11
220.107
 21
8.53419
 31
0.0
  0
LINE
  8
0
 62
     0
 10
220.107
 20
8.53419
 30
0.0
 11
219.767
 21
8.47908
 31
0.0
  0
LINE
  8
0
 62
     0
 10
113.406
 20
8.47908
 30
0.0
 11
113.098
 21
8.32337
 31
0.0
  0
LINE
  8
0
 62
     0
 10
113.098
 20
8.32337
 30
0.0
 11
112.854
 21
8.08083
 31
0.0
  0
LINE
  8
0
 62
     0
 10
112.854
 20
8.08083
 30
0.0
 11
112.697
 21
7.77353
 31
0.0
  0
LINE
  8
0
 62
     0
 10
112.697
 20
7.77353
 30
0.0
 11
112.645
 21
7.43313
 31
0.0
  0
LINE
  8
0
 62
     0
 10
112.645
 20
7.43313
 30
0.0
 11
112.697
 21
7.09415
 31
0.0
  0
LINE
  8
0
 62
     0
 10
112.697
 20
7.09415
 30
0.0
 11
112.854
 21
6.78822
 31
0.0
  0
LINE
  8
0
 62
     0
 10
112.854
 20
6.78822
 30
0.0
 11
113.098
 21
6.54431
 31
0.0
  0
LINE
  8
0
 62
     0
 10
113.098
 20
6.54431
 30
0.0
 11
113.406
 21
6.38722
 31
0.0
  0
LINE
  8
0
 62
     0
 10
113.406
 20
6.38722
 30
0.0
 11
113.745
 21
6.33345
 31
0.0
  0
LINE
  8
0
 62
     0
 10
113.745
 20
6.33345
 30
0.0
 11
114.085
 21
6.38722
 31
0.0
  0
LINE
  8
0
 62
     0
 10
114.085
 20
6.38722
 30
0.0
 11
114.391
 21
6.54431
 31
0.0
  0
LINE
  8
0
 62
     0
 10
114.391
 20
6.54431
 30
0.0
 11
114.635
 21
6.78822
 31
0.0
  0
LINE
  8
0
 62
     0
 10
114.635
 20
6.78822
 30
0.0
 11
114.791
 21
7.09415
 31
0.0
  0
LINE
  8
0
 62
     0
 10
114.791
 20
7.09415
 30
0.0
 11
114.844
 21
7.43313
 31
0.0
  0
LINE
  8
0
 62
     0
 10
114.844
 20
7.43313
 30
0.0
 11
114.791
 21
7.77353
 31
0.0
  0
LINE
  8
0
 62
     0
 10
114.791
 20
7.77353
 30
0.0
 11
114.635
 21
8.08083
 31
0.0
  0
LINE
  8
0
 62
     0
 10
114.635
 20
8.08083
 30
0.0
 11
114.391
 21
8.32337
 31
0.0
  0
LINE
  8
0
 62
     0
 10
114.391
 20
8.32337
 30
0.0
 11
114.085
 21
8.47908
 31
0.0
  0
LINE
  8
0
 62
     0
 10
114.085
 20
8.47908
 30
0.0
 11
113.745
 21
8.53419
 31
0.0
  0
LINE
  8
0
 62
     0
 10
113.745
 20
8.53419
 30
0.0
 11
113.406
 21
8.47908
 31
0.0
  0
LINE
  8
0
 62
     0
 10
7.04176
 20
8.47908
 30
0.0
 11
6.73446
 21
8.32337
 31
0.0
  0
LINE
  8
0
 62
     0
 10
6.73446
 20
8.32337
 30
0.0
 11
6.49192
 21
8.08083
 31
0.0
  0
LINE
  8
0
 62
     0
 10
6.49192
 20
8.08083
 30
0.0
 11
6.33621
 21
7.77353
 31
0.0
  0
LINE
  8
0
 62
     0
 10
6.33621
 20
7.77353
 30
0.0
 11
6.28248
 21
7.43313
 31
0.0
  0
LINE
  8
0
 62
     0
 10
6.28248
 20
7.43313
 30
0.0
 11
6.33621
 21
7.09415
 31
0.0
  0
LINE
  8
0
 62
     0
 10
6.33621
 20
7.09415
 30
0.0
 11
6.49192
 21
6.78822
 31
0.0
  0
LINE
  8
0
 62
     0
 10
6.49192
 20
6.78822
 30
0.0
 11
6.73446
 21
6.54431
 31
0.0
  0
LINE
  8
0
 62
     0
 10
6.73446
 20
6.54431
 30
0.0
 11
7.04176
 21
6.38722
 31
0.0
  0
LINE
  8
0
 62
     0
 10
7.04176
 20
6.38722
 30
0.0
 11
7.38216
 21
6.33345
 31
0.0
  0
LINE
  8
0
 62
     0
 10
7.38216
 20
6.33345
 30
0.0
 11
7.72252
 21
6.38722
 31
0.0
  0
LINE
  8
0
 62
     0
 10
7.72252
 20
6.38722
 30
0.0
 11
8.02707
 21
6.54431
 31
0.0
  0
LINE
  8
0
 62
     0
 10
8.02707
 20
6.54431
 30
0.0
 11
8.27236
 21
6.78822
 31
0.0
  0
LINE
  8
0
 62
     0
 10
8.27236
 20
6.78822
 30
0.0
 11
8.42807
 21
7.09415
 31
0.0
  0
LINE
  8
0
 62
     0
 10
8.42807
 20
7.09415
 30
0.0
 11
8.48184
 21
7.43313
 31
0.0
  0
LINE
  8
0
 62
     0
 10
8.48184
 20
7.43313
 30
0.0
 11
8.42807
 21
7.77353
 31
0.0
  0
LINE
  8
0
 62
     0
 10
8.42807
 20
7.77353
 30
0.0
 11
8.27236
 21
8.08083
 31
0.0
  0
LINE
  8
0
 62
     0
 10
8.27236
 20
8.08083
 30
0.0
 11
8.02707
 21
8.32337
 31
0.0
  0
LINE
  8
0
 62
     0
 10
8.02707
 20
8.32337
 30
0.0
 11
7.72252
 21
8.47908
 31
0.0
  0
LINE
  8
0
 62
     0
 10
7.72252
 20
8.47908
 30
0.0
 11
7.38216
 21
8.53419
 31
0.0
  0
LINE
  8
0
 62
     0
 10
7.38216
 20
8.53419
 30
0.0
 11
7.04176
 21
8.47908
 31
0.0
  0
LINE
  8
0
 62
     0
 10
264.7
 20
26.3412
 30
0.0
 11
278.702
 21
26.3412
 31
0.0
  0
LINE
  8
0
 62
     0
 10
278.702
 20
26.3412
 30
0.0
 11
278.702
 21
12.3403
 31
0.0
  0
LINE
  8
0
 62
     0
 10
278.702
 20
12.3403
 30
0.0
 11
264.7
 21
12.3403
 31
0.0
  0
LINE
  8
0
 62
     0
 10
264.7
 20
12.3403
 30
0.0
 11
264.7
 21
26.3412
 31
0.0
  0
LINE
  8
0
 62
     0
 10
283.75
 20
26.3412
 30
0.0
 11
297.752
 21
26.3412
 31
0.0
  0
LINE
  8
0
 62
     0
 10
297.752
 20
26.3412
 30
0.0
 11
297.752
 21
12.3403
 31
0.0
  0
LINE
  8
0
 62
     0
 10
297.752
 20
12.3403
 30
0.0
 11
283.75
 21
12.3403
 31
0.0
  0
LINE
  8
0
 62
     0
 10
283.75
 20
12.3403
 30
0.0
 11
283.75
 21
26.3412
 31
0.0
  0
LINE
  8
0
 62
     0
 10
302.8
 20
26.3412
 30
0.0
 11
316.802
 21
26.3412
 31
0.0
  0
LINE
  8
0
 62
     0
 10
316.802
 20
26.3412
 30
0.0
 11
316.802
 21
12.3403
 31
0.0
  0
LINE
  8
0
 62
     0
 10
316.802
 20
12.3403
 30
0.0
 11
302.8
 21
12.3403
 31
0.0
  0
LINE
  8
0
 62
     0
 10
302.8
 20
12.3403
 30
0.0
 11
302.8
 21
26.3412
 31
0.0
  0
LINE
  8
0
 62
     0
 10
14.6692
 20
31.1037
 30
0.0
 11
28.6687
 21
31.1037
 31
0.0
  0
LINE
  8
0
 62
     0
 10
28.6687
 20
31.1037
 30
0.0
 11
28.6687
 21
17.1042
 31
0.0
  0
LINE
  8
0
 62
     0
 10
28.6687
 20
17.1042
 30
0.0
 11
14.6692
 21
17.1042
 31
0.0
  0
LINE
  8
0
 62
     0
 10
14.6692
 20
17.1042
 30
0.0
 11
14.6692
 21
31.1037
 31
0.0
  0
LINE
  8
0
 62
     0
 10
38.4817
 20
31.1037
 30
0.0
 11
52.4828
 21
31.1037
 31
0.0
  0
LINE
  8
0
 62
     0
 10
52.4828
 20
31.1037
 30
0.0
 11
52.4828
 21
17.1042
 31
0.0
  0
LINE
  8
0
 62
     0
 10
52.4828
 20
17.1042
 30
0.0
 11
38.4817
 21
17.1042
 31
0.0
  0
LINE
  8
0
 62
     0
 10
38.4817
 20
17.1042
 30
0.0
 11
38.4817
 21
31.1037
 31
0.0
  0
LINE
  8
0
 62
     0
 10
62.2942
 20
31.1037
 30
0.0
 11
76.2938
 21
31.1037
 31
0.0
  0
LINE
  8
0
 62
     0
 10
76.2938
 20
31.1037
 30
0.0
 11
76.2938
 21
17.1042
 31
0.0
  0
LINE
  8
0
 62
     0
 10
76.2938
 20
17.1042
 30
0.0
 11
62.2942
 21
17.1042
 31
0.0
  0
LINE
  8
0
 62
     0
 10
62.2942
 20
17.1042
 30
0.0
 11
62.2942
 21
31.1037
 31
0.0
  0
LINE
  8
0
 62
     0
 10
89.082
 20
32.0738
 30
0.0
 11
89.082
 21
30.8736
 31
0.0
  0
LINE
  8
0
 62
     0
 10
89.082
 20
30.8736
 30
0.0
 11
87.3566
 21
30.8736
 31
0.0
  0
LINE
  8
0
 62
     0
 10
87.3566
 20
30.8736
 30
0.0
 11
87.3566
 21
24.6035
 31
0.0
  0
LINE
  8
0
 62
     0
 10
87.3566
 20
24.6035
 30
0.0
 11
86.5325
 21
24.6035
 31
0.0
  0
LINE
  8
0
 62
     0
 10
86.5325
 20
24.6035
 30
0.0
 11
86.5325
 21
21.8033
 31
0.0
  0
LINE
  8
0
 62
     0
 10
86.5325
 20
21.8033
 30
0.0
 11
87.3566
 21
21.8033
 31
0.0
  0
LINE
  8
0
 62
     0
 10
87.3566
 20
21.8033
 30
0.0
 11
87.3566
 21
18.5732
 31
0.0
  0
LINE
  8
0
 62
     0
 10
87.3566
 20
18.5732
 30
0.0
 11
94.1077
 21
18.5732
 31
0.0
  0
LINE
  8
0
 62
     0
 10
94.1077
 20
18.5732
 30
0.0
 11
94.1077
 21
21.8033
 31
0.0
  0
LINE
  8
0
 62
     0
 10
94.1077
 20
21.8033
 30
0.0
 11
133.732
 21
21.8033
 31
0.0
  0
LINE
  8
0
 62
     0
 10
133.732
 20
21.8033
 30
0.0
 11
133.732
 21
17.1042
 31
0.0
  0
LINE
  8
0
 62
     0
 10
133.732
 20
17.1042
 30
0.0
 11
147.733
 21
17.1042
 31
0.0
  0
LINE
  8
0
 62
     0
 10
147.733
 20
17.1042
 30
0.0
 11
147.733
 21
21.8033
 31
0.0
  0
LINE
  8
0
 62
     0
 10
147.733
 20
21.8033
 30
0.0
 11
187.357
 21
21.8033
 31
0.0
  0
LINE
  8
0
 62
     0
 10
187.357
 20
21.8033
 30
0.0
 11
187.357
 21
18.5732
 31
0.0
  0
LINE
  8
0
 62
     0
 10
187.357
 20
18.5732
 30
0.0
 11
194.106
 21
18.5732
 31
0.0
  0
LINE
  8
0
 62
     0
 10
194.106
 20
18.5732
 30
0.0
 11
194.106
 21
21.8033
 31
0.0
  0
LINE
  8
0
 62
     0
 10
194.106
 20
21.8033
 30
0.0
 11
194.932
 21
21.8033
 31
0.0
  0
LINE
  8
0
 62
     0
 10
194.932
 20
21.8033
 30
0.0
 11
194.932
 21
24.6035
 31
0.0
  0
LINE
  8
0
 62
     0
 10
194.932
 20
24.6035
 30
0.0
 11
194.106
 21
24.6035
 31
0.0
  0
LINE
  8
0
 62
     0
 10
194.106
 20
24.6035
 30
0.0
 11
194.106
 21
30.8736
 31
0.0
  0
LINE
  8
0
 62
     0
 10
194.106
 20
30.8736
 30
0.0
 11
192.382
 21
30.8736
 31
0.0
  0
LINE
  8
0
 62
     0
 10
192.382
 20
30.8736
 30
0.0
 11
192.382
 21
32.0738
 31
0.0
  0
LINE
  8
0
 62
     0
 10
192.382
 20
32.0738
 30
0.0
 11
189.082
 21
32.0738
 31
0.0
  0
LINE
  8
0
 62
     0
 10
189.082
 20
32.0738
 30
0.0
 11
189.082
 21
30.8736
 31
0.0
  0
LINE
  8
0
 62
     0
 10
189.082
 20
30.8736
 30
0.0
 11
187.357
 21
30.8736
 31
0.0
  0
LINE
  8
0
 62
     0
 10
187.357
 20
30.8736
 30
0.0
 11
187.357
 21
26.4032
 31
0.0
  0
LINE
  8
0
 62
     0
 10
187.357
 20
26.4032
 30
0.0
 11
147.733
 21
26.4032
 31
0.0
  0
LINE
  8
0
 62
     0
 10
147.733
 20
26.4032
 30
0.0
 11
147.733
 21
31.1037
 31
0.0
  0
LINE
  8
0
 62
     0
 10
147.733
 20
31.1037
 30
0.0
 11
133.732
 21
31.1037
 31
0.0
  0
LINE
  8
0
 62
     0
 10
133.732
 20
31.1037
 30
0.0
 11
133.732
 21
26.4032
 31
0.0
  0
LINE
  8
0
 62
     0
 10
133.732
 20
26.4032
 30
0.0
 11
94.1077
 21
26.4032
 31
0.0
  0
LINE
  8
0
 62
     0
 10
94.1077
 20
26.4032
 30
0.0
 11
94.1077
 21
30.8736
 31
0.0
  0
LINE
  8
0
 62
     0
 10
94.1077
 20
30.8736
 30
0.0
 11
92.3823
 21
30.8736
 31
0.0
  0
LINE
  8
0
 62
     0
 10
92.3823
 20
30.8736
 30
0.0
 11
92.3823
 21
32.0738
 31
0.0
  0
LINE
  8
0
 62
     0
 10
92.3823
 20
32.0738
 30
0.0
 11
89.082
 21
32.0738
 31
0.0
  0
LINE
  8
0
 62
     0
 10
202.788
 20
31.1037
 30
0.0
 11
216.788
 21
31.1037
 31
0.0
  0
LINE
  8
0
 62
     0
 10
216.788
 20
31.1037
 30
0.0
 11
216.788
 21
17.1042
 31
0.0
  0
LINE
  8
0
 62
     0
 10
216.788
 20
17.1042
 30
0.0
 11
202.788
 21
17.1042
 31
0.0
  0
LINE
  8
0
 62
     0
 10
202.788
 20
17.1042
 30
0.0
 11
202.788
 21
31.1037
 31
0.0
  0
LINE
  8
0
 62
     0
 10
221.838
 20
31.1037
 30
0.0
 11
235.838
 21
31.1037
 31
0.0
  0
LINE
  8
0
 62
     0
 10
235.838
 20
31.1037
 30
0.0
 11
235.838
 21
17.1042
 31
0.0
  0
LINE
  8
0
 62
     0
 10
235.838
 20
17.1042
 30
0.0
 11
221.838
 21
17.1042
 31
0.0
  0
LINE
  8
0
 62
     0
 10
221.838
 20
17.1042
 30
0.0
 11
221.838
 21
31.1037
 31
0.0
  0
LINE
  8
0
 62
     0
 10
240.888
 20
31.1037
 30
0.0
 11
254.888
 21
31.1037
 31
0.0
  0
LINE
  8
0
 62
     0
 10
254.888
 20
31.1037
 30
0.0
 11
254.888
 21
17.1042
 31
0.0
  0
LINE
  8
0
 62
     0
 10
254.888
 20
17.1042
 30
0.0
 11
240.888
 21
17.1042
 31
0.0
  0
LINE
  8
0
 62
     0
 10
240.888
 20
17.1042
 30
0.0
 11
240.888
 21
31.1037
 31
0.0
  0
LINE
  8
0
 62
     0
 10
283.75
 20
45.3912
 30
0.0
 11
297.752
 21
45.3912
 31
0.0
  0
LINE
  8
0
 62
     0
 10
297.752
 20
45.3912
 30
0.0
 11
297.752
 21
31.3903
 31
0.0
  0
LINE
  8
0
 62
     0
 10
297.752
 20
31.3903
 30
0.0
 11
283.75
 21
31.3903
 31
0.0
  0
LINE
  8
0
 62
     0
 10
283.75
 20
31.3903
 30
0.0
 11
283.75
 21
45.3912
 31
0.0
  0
LINE
  8
0
 62
     0
 10
24.1942
 20
50.1537
 30
0.0
 11
24.1942
 21
45.4533
 31
0.0
  0
LINE
  8
0
 62
     0
 10
24.1942
 20
45.4533
 30
0.0
 11
22.6687
 21
45.4533
 31
0.0
  0
LINE
  8
0
 62
     0
 10
22.6687
 20
45.4533
 30
0.0
 11
22.6687
 21
48.6833
 31
0.0
  0
LINE
  8
0
 62
     0
 10
22.6687
 20
48.6833
 30
0.0
 11
15.9191
 21
48.6833
 31
0.0
  0
LINE
  8
0
 62
     0
 10
15.9191
 20
48.6833
 30
0.0
 11
15.9191
 21
45.4533
 31
0.0
  0
LINE
  8
0
 62
     0
 10
15.9191
 20
45.4533
 30
0.0
 11
15.0937
 21
45.4533
 31
0.0
  0
LINE
  8
0
 62
     0
 10
15.0937
 20
45.4533
 30
0.0
 11
15.0937
 21
42.6529
 31
0.0
  0
LINE
  8
0
 62
     0
 10
15.0937
 20
42.6529
 30
0.0
 11
15.9191
 21
42.6529
 31
0.0
  0
LINE
  8
0
 62
     0
 10
15.9191
 20
42.6529
 30
0.0
 11
15.9191
 21
36.3844
 31
0.0
  0
LINE
  8
0
 62
     0
 10
15.9191
 20
36.3844
 30
0.0
 11
17.6444
 21
36.3844
 31
0.0
  0
LINE
  8
0
 62
     0
 10
17.6444
 20
36.3844
 30
0.0
 11
17.6444
 21
35.1841
 31
0.0
  0
LINE
  8
0
 62
     0
 10
17.6444
 20
35.1841
 30
0.0
 11
20.9434
 21
35.1841
 31
0.0
  0
LINE
  8
0
 62
     0
 10
20.9434
 20
35.1841
 30
0.0
 11
20.9434
 21
36.3844
 31
0.0
  0
LINE
  8
0
 62
     0
 10
20.9434
 20
36.3844
 30
0.0
 11
22.6687
 21
36.3844
 31
0.0
  0
LINE
  8
0
 62
     0
 10
22.6687
 20
36.3844
 30
0.0
 11
22.6687
 21
40.8534
 31
0.0
  0
LINE
  8
0
 62
     0
 10
22.6687
 20
40.8534
 30
0.0
 11
24.1942
 21
40.8534
 31
0.0
  0
LINE
  8
0
 62
     0
 10
24.1942
 20
40.8534
 30
0.0
 11
24.1942
 21
36.1541
 31
0.0
  0
LINE
  8
0
 62
     0
 10
24.1942
 20
36.1541
 30
0.0
 11
38.1938
 21
36.1541
 31
0.0
  0
LINE
  8
0
 62
     0
 10
38.1938
 20
36.1541
 30
0.0
 11
38.1938
 21
40.8534
 31
0.0
  0
LINE
  8
0
 62
     0
 10
38.1938
 20
40.8534
 30
0.0
 11
39.7192
 21
40.8534
 31
0.0
  0
LINE
  8
0
 62
     0
 10
39.7192
 20
40.8534
 30
0.0
 11
39.7192
 21
36.3844
 31
0.0
  0
LINE
  8
0
 62
     0
 10
39.7192
 20
36.3844
 30
0.0
 11
41.4443
 21
36.3844
 31
0.0
  0
LINE
  8
0
 62
     0
 10
41.4443
 20
36.3844
 30
0.0
 11
41.4443
 21
35.1841
 31
0.0
  0
LINE
  8
0
 62
     0
 10
41.4443
 20
35.1841
 30
0.0
 11
44.7435
 21
35.1841
 31
0.0
  0
LINE
  8
0
 62
     0
 10
44.7435
 20
35.1841
 30
0.0
 11
44.7435
 21
36.3844
 31
0.0
  0
LINE
  8
0
 62
     0
 10
44.7435
 20
36.3844
 30
0.0
 11
46.4689
 21
36.3844
 31
0.0
  0
LINE
  8
0
 62
     0
 10
46.4689
 20
36.3844
 30
0.0
 11
46.4689
 21
42.6529
 31
0.0
  0
LINE
  8
0
 62
     0
 10
46.4689
 20
42.6529
 30
0.0
 11
47.2944
 21
42.6529
 31
0.0
  0
LINE
  8
0
 62
     0
 10
47.2944
 20
42.6529
 30
0.0
 11
47.2944
 21
45.4533
 31
0.0
  0
LINE
  8
0
 62
     0
 10
47.2944
 20
45.4533
 30
0.0
 11
46.4689
 21
45.4533
 31
0.0
  0
LINE
  8
0
 62
     0
 10
46.4689
 20
45.4533
 30
0.0
 11
46.4689
 21
48.6833
 31
0.0
  0
LINE
  8
0
 62
     0
 10
46.4689
 20
48.6833
 30
0.0
 11
39.7192
 21
48.6833
 31
0.0
  0
LINE
  8
0
 62
     0
 10
39.7192
 20
48.6833
 30
0.0
 11
39.7192
 21
45.4533
 31
0.0
  0
LINE
  8
0
 62
     0
 10
39.7192
 20
45.4533
 30
0.0
 11
38.1938
 21
45.4533
 31
0.0
  0
LINE
  8
0
 62
     0
 10
38.1938
 20
45.4533
 30
0.0
 11
38.1938
 21
50.1537
 31
0.0
  0
LINE
  8
0
 62
     0
 10
38.1938
 20
50.1537
 30
0.0
 11
24.1942
 21
50.1537
 31
0.0
  0
LINE
  8
0
 62
     0
 10
55.1505
 20
50.1537
 30
0.0
 11
69.1515
 21
50.1537
 31
0.0
  0
LINE
  8
0
 62
     0
 10
69.1515
 20
50.1537
 30
0.0
 11
69.1515
 21
36.1541
 31
0.0
  0
LINE
  8
0
 62
     0
 10
69.1515
 20
36.1541
 30
0.0
 11
55.1505
 21
36.1541
 31
0.0
  0
LINE
  8
0
 62
     0
 10
55.1505
 20
36.1541
 30
0.0
 11
55.1505
 21
50.1537
 31
0.0
  0
LINE
  8
0
 62
     0
 10
74.2005
 20
50.1537
 30
0.0
 11
88.2015
 21
50.1537
 31
0.0
  0
LINE
  8
0
 62
     0
 10
88.2015
 20
50.1537
 30
0.0
 11
88.2015
 21
36.1541
 31
0.0
  0
LINE
  8
0
 62
     0
 10
88.2015
 20
36.1541
 30
0.0
 11
74.2005
 21
36.1541
 31
0.0
  0
LINE
  8
0
 62
     0
 10
74.2005
 20
36.1541
 30
0.0
 11
74.2005
 21
50.1537
 31
0.0
  0
LINE
  8
0
 62
     0
 10
93.2505
 20
50.1537
 30
0.0
 11
107.251
 21
50.1537
 31
0.0
  0
LINE
  8
0
 62
     0
 10
107.251
 20
50.1537
 30
0.0
 11
107.251
 21
36.1541
 31
0.0
  0
LINE
  8
0
 62
     0
 10
107.251
 20
36.1541
 30
0.0
 11
93.2505
 21
36.1541
 31
0.0
  0
LINE
  8
0
 62
     0
 10
93.2505
 20
36.1541
 30
0.0
 11
93.2505
 21
50.1537
 31
0.0
  0
LINE
  8
0
 62
     0
 10
112.3
 20
50.1537
 30
0.0
 11
126.301
 21
50.1537
 31
0.0
  0
LINE
  8
0
 62
     0
 10
126.301
 20
50.1537
 30
0.0
 11
126.301
 21
36.1541
 31
0.0
  0
LINE
  8
0
 62
     0
 10
126.301
 20
36.1541
 30
0.0
 11
112.3
 21
36.1541
 31
0.0
  0
LINE
  8
0
 62
     0
 10
112.3
 20
36.1541
 30
0.0
 11
112.3
 21
50.1537
 31
0.0
  0
LINE
  8
0
 62
     0
 10
131.35
 20
50.1537
 30
0.0
 11
145.351
 21
50.1537
 31
0.0
  0
LINE
  8
0
 62
     0
 10
145.351
 20
50.1537
 30
0.0
 11
145.351
 21
36.1541
 31
0.0
  0
LINE
  8
0
 62
     0
 10
145.351
 20
36.1541
 30
0.0
 11
131.35
 21
36.1541
 31
0.0
  0
LINE
  8
0
 62
     0
 10
131.35
 20
36.1541
 30
0.0
 11
131.35
 21
50.1537
 31
0.0
  0
LINE
  8
0
 62
     0
 10
150.4
 20
50.1537
 30
0.0
 11
164.401
 21
50.1537
 31
0.0
  0
LINE
  8
0
 62
     0
 10
164.401
 20
50.1537
 30
0.0
 11
164.401
 21
36.1541
 31
0.0
  0
LINE
  8
0
 62
     0
 10
164.401
 20
36.1541
 30
0.0
 11
150.4
 21
36.1541
 31
0.0
  0
LINE
  8
0
 62
     0
 10
150.4
 20
36.1541
 30
0.0
 11
150.4
 21
50.1537
 31
0.0
  0
LINE
  8
0
 62
     0
 10
169.45
 20
50.1537
 30
0.0
 11
183.452
 21
50.1537
 31
0.0
  0
LINE
  8
0
 62
     0
 10
183.452
 20
50.1537
 30
0.0
 11
183.452
 21
36.1541
 31
0.0
  0
LINE
  8
0
 62
     0
 10
183.452
 20
36.1541
 30
0.0
 11
169.45
 21
36.1541
 31
0.0
  0
LINE
  8
0
 62
     0
 10
169.45
 20
36.1541
 30
0.0
 11
169.45
 21
50.1537
 31
0.0
  0
LINE
  8
0
 62
     0
 10
188.5
 20
50.1537
 30
0.0
 11
202.502
 21
50.1537
 31
0.0
  0
LINE
  8
0
 62
     0
 10
202.502
 20
50.1537
 30
0.0
 11
202.502
 21
36.1541
 31
0.0
  0
LINE
  8
0
 62
     0
 10
202.502
 20
36.1541
 30
0.0
 11
188.5
 21
36.1541
 31
0.0
  0
LINE
  8
0
 62
     0
 10
188.5
 20
36.1541
 30
0.0
 11
188.5
 21
50.1537
 31
0.0
  0
LINE
  8
0
 62
     0
 10
207.55
 20
50.1537
 30
0.0
 11
221.552
 21
50.1537
 31
0.0
  0
LINE
  8
0
 62
     0
 10
221.552
 20
50.1537
 30
0.0
 11
221.552
 21
36.1541
 31
0.0
  0
LINE
  8
0
 62
     0
 10
221.552
 20
36.1541
 30
0.0
 11
207.55
 21
36.1541
 31
0.0
  0
LINE
  8
0
 62
     0
 10
207.55
 20
36.1541
 30
0.0
 11
207.55
 21
50.1537
 31
0.0
  0
LINE
  8
0
 62
     0
 10
226.6
 20
50.1537
 30
0.0
 11
240.602
 21
50.1537
 31
0.0
  0
LINE
  8
0
 62
     0
 10
240.602
 20
50.1537
 30
0.0
 11
240.602
 21
36.1541
 31
0.0
  0
LINE
  8
0
 62
     0
 10
240.602
 20
36.1541
 30
0.0
 11
226.6
 21
36.1541
 31
0.0
  0
LINE
  8
0
 62
     0
 10
226.6
 20
36.1541
 30
0.0
 11
226.6
 21
50.1537
 31
0.0
  0
LINE
  8
0
 62
     0
 10
252.794
 20
50.1537
 30
0.0
 11
266.794
 21
50.1537
 31
0.0
  0
LINE
  8
0
 62
     0
 10
266.794
 20
50.1537
 30
0.0
 11
266.794
 21
36.1541
 31
0.0
  0
LINE
  8
0
 62
     0
 10
266.794
 20
36.1541
 30
0.0
 11
252.794
 21
36.1541
 31
0.0
  0
LINE
  8
0
 62
     0
 10
252.794
 20
36.1541
 30
0.0
 11
252.794
 21
50.1537
 31
0.0
  0
LINE
  8
0
 62
     0
 10
307.563
 20
50.1537
 30
0.0
 11
321.563
 21
50.1537
 31
0.0
  0
LINE
  8
0
 62
     0
 10
321.563
 20
50.1537
 30
0.0
 11
321.563
 21
36.1541
 31
0.0
  0
LINE
  8
0
 62
     0
 10
321.563
 20
36.1541
 30
0.0
 11
307.563
 21
36.1541
 31
0.0
  0
LINE
  8
0
 62
     0
 10
307.563
 20
36.1541
 30
0.0
 11
307.563
 21
50.1537
 31
0.0
  0
LINE
  8
0
 62
     0
 10
267.082
 20
69.2037
 30
0.0
 11
267.082
 21
64.5033
 31
0.0
  0
LINE
  8
0
 62
     0
 10
267.082
 20
64.5033
 30
0.0
 11
265.558
 21
64.5033
 31
0.0
  0
LINE
  8
0
 62
     0
 10
265.558
 20
64.5033
 30
0.0
 11
265.558
 21
67.7333
 31
0.0
  0
LINE
  8
0
 62
     0
 10
265.558
 20
67.7333
 30
0.0
 11
258.807
 21
67.7333
 31
0.0
  0
LINE
  8
0
 62
     0
 10
258.807
 20
67.7333
 30
0.0
 11
258.807
 21
64.5033
 31
0.0
  0
LINE
  8
0
 62
     0
 10
258.807
 20
64.5033
 30
0.0
 11
257.983
 21
64.5033
 31
0.0
  0
LINE
  8
0
 62
     0
 10
257.983
 20
64.5033
 30
0.0
 11
257.983
 21
61.703
 31
0.0
  0
LINE
  8
0
 62
     0
 10
257.983
 20
61.703
 30
0.0
 11
258.807
 21
61.703
 31
0.0
  0
LINE
  8
0
 62
     0
 10
258.807
 20
61.703
 30
0.0
 11
258.807
 21
55.4344
 31
0.0
  0
LINE
  8
0
 62
     0
 10
258.807
 20
55.4344
 30
0.0
 11
260.532
 21
55.4344
 31
0.0
  0
LINE
  8
0
 62
     0
 10
260.532
 20
55.4344
 30
0.0
 11
260.532
 21
54.2339
 31
0.0
  0
LINE
  8
0
 62
     0
 10
260.532
 20
54.2339
 30
0.0
 11
263.832
 21
54.2339
 31
0.0
  0
LINE
  8
0
 62
     0
 10
263.832
 20
54.2339
 30
0.0
 11
263.832
 21
55.4344
 31
0.0
  0
LINE
  8
0
 62
     0
 10
263.832
 20
55.4344
 30
0.0
 11
265.558
 21
55.4344
 31
0.0
  0
LINE
  8
0
 62
     0
 10
265.558
 20
55.4344
 30
0.0
 11
265.558
 21
59.9034
 31
0.0
  0
LINE
  8
0
 62
     0
 10
265.558
 20
59.9034
 30
0.0
 11
267.082
 21
59.9034
 31
0.0
  0
LINE
  8
0
 62
     0
 10
267.082
 20
59.9034
 30
0.0
 11
267.082
 21
55.2041
 31
0.0
  0
LINE
  8
0
 62
     0
 10
267.082
 20
55.2041
 30
0.0
 11
281.083
 21
55.2041
 31
0.0
  0
LINE
  8
0
 62
     0
 10
281.083
 20
55.2041
 30
0.0
 11
281.083
 21
59.9034
 31
0.0
  0
LINE
  8
0
 62
     0
 10
281.083
 20
59.9034
 30
0.0
 11
282.607
 21
59.9034
 31
0.0
  0
LINE
  8
0
 62
     0
 10
282.607
 20
59.9034
 30
0.0
 11
282.607
 21
55.4344
 31
0.0
  0
LINE
  8
0
 62
     0
 10
282.607
 20
55.4344
 30
0.0
 11
284.332
 21
55.4344
 31
0.0
  0
LINE
  8
0
 62
     0
 10
284.332
 20
55.4344
 30
0.0
 11
284.332
 21
54.2339
 31
0.0
  0
LINE
  8
0
 62
     0
 10
284.332
 20
54.2339
 30
0.0
 11
287.632
 21
54.2339
 31
0.0
  0
LINE
  8
0
 62
     0
 10
287.632
 20
54.2339
 30
0.0
 11
287.632
 21
55.4344
 31
0.0
  0
LINE
  8
0
 62
     0
 10
287.632
 20
55.4344
 30
0.0
 11
289.356
 21
55.4344
 31
0.0
  0
LINE
  8
0
 62
     0
 10
289.356
 20
55.4344
 30
0.0
 11
289.356
 21
61.703
 31
0.0
  0
LINE
  8
0
 62
     0
 10
289.356
 20
61.703
 30
0.0
 11
290.182
 21
61.703
 31
0.0
  0
LINE
  8
0
 62
     0
 10
290.182
 20
61.703
 30
0.0
 11
290.182
 21
64.5033
 31
0.0
  0
LINE
  8
0
 62
     0
 10
290.182
 20
64.5033
 30
0.0
 11
289.356
 21
64.5033
 31
0.0
  0
LINE
  8
0
 62
     0
 10
289.356
 20
64.5033
 30
0.0
 11
289.356
 21
67.7333
 31
0.0
  0
LINE
  8
0
 62
     0
 10
289.356
 20
67.7333
 30
0.0
 11
282.607
 21
67.7333
 31
0.0
  0
LINE
  8
0
 62
     0
 10
282.607
 20
67.7333
 30
0.0
 11
282.607
 21
64.5033
 31
0.0
  0
LINE
  8
0
 62
     0
 10
282.607
 20
64.5033
 30
0.0
 11
281.083
 21
64.5033
 31
0.0
  0
LINE
  8
0
 62
     0
 10
281.083
 20
64.5033
 30
0.0
 11
281.083
 21
69.2037
 31
0.0
  0
LINE
  8
0
 62
     0
 10
281.083
 20
69.2037
 30
0.0
 11
267.082
 21
69.2037
 31
0.0
  0
LINE
  8
0
 62
     0
 10
19.4317
 20
69.2037
 30
0.0
 11
33.4326
 21
69.2037
 31
0.0
  0
LINE
  8
0
 62
     0
 10
33.4326
 20
69.2037
 30
0.0
 11
33.4326
 21
55.2041
 31
0.0
  0
LINE
  8
0
 62
     0
 10
33.4326
 20
55.2041
 30
0.0
 11
19.4317
 21
55.2041
 31
0.0
  0
LINE
  8
0
 62
     0
 10
19.4317
 20
55.2041
 30
0.0
 11
19.4317
 21
69.2037
 31
0.0
  0
LINE
  8
0
 62
     0
 10
45.6255
 20
69.2037
 30
0.0
 11
59.6265
 21
69.2037
 31
0.0
  0
LINE
  8
0
 62
     0
 10
59.6265
 20
69.2037
 30
0.0
 11
59.6265
 21
55.2041
 31
0.0
  0
LINE
  8
0
 62
     0
 10
59.6265
 20
55.2041
 30
0.0
 11
45.6255
 21
55.2041
 31
0.0
  0
LINE
  8
0
 62
     0
 10
45.6255
 20
55.2041
 30
0.0
 11
45.6255
 21
69.2037
 31
0.0
  0
LINE
  8
0
 62
     0
 10
64.6755
 20
69.2037
 30
0.0
 11
78.6765
 21
69.2037
 31
0.0
  0
LINE
  8
0
 62
     0
 10
78.6765
 20
69.2037
 30
0.0
 11
78.6765
 21
55.2041
 31
0.0
  0
LINE
  8
0
 62
     0
 10
78.6765
 20
55.2041
 30
0.0
 11
64.6755
 21
55.2041
 31
0.0
  0
LINE
  8
0
 62
     0
 10
64.6755
 20
55.2041
 30
0.0
 11
64.6755
 21
69.2037
 31
0.0
  0
LINE
  8
0
 62
     0
 10
83.7255
 20
69.2037
 30
0.0
 11
97.7265
 21
69.2037
 31
0.0
  0
LINE
  8
0
 62
     0
 10
97.7265
 20
69.2037
 30
0.0
 11
97.7265
 21
55.2041
 31
0.0
  0
LINE
  8
0
 62
     0
 10
97.7265
 20
55.2041
 30
0.0
 11
83.7255
 21
55.2041
 31
0.0
  0
LINE
  8
0
 62
     0
 10
83.7255
 20
55.2041
 30
0.0
 11
83.7255
 21
69.2037
 31
0.0
  0
LINE
  8
0
 62
     0
 10
102.775
 20
69.2037
 30
0.0
 11
116.775
 21
69.2037
 31
0.0
  0
LINE
  8
0
 62
     0
 10
116.775
 20
69.2037
 30
0.0
 11
116.775
 21
55.2041
 31
0.0
  0
LINE
  8
0
 62
     0
 10
116.775
 20
55.2041
 30
0.0
 11
102.775
 21
55.2041
 31
0.0
  0
LINE
  8
0
 62
     0
 10
102.775
 20
55.2041
 30
0.0
 11
102.775
 21
69.2037
 31
0.0
  0
LINE
  8
0
 62
     0
 10
121.825
 20
69.2037
 30
0.0
 11
135.826
 21
69.2037
 31
0.0
  0
LINE
  8
0
 62
     0
 10
135.826
 20
69.2037
 30
0.0
 11
135.826
 21
55.2041
 31
0.0
  0
LINE
  8
0
 62
     0
 10
135.826
 20
55.2041
 30
0.0
 11
121.825
 21
55.2041
 31
0.0
  0
LINE
  8
0
 62
     0
 10
121.825
 20
55.2041
 30
0.0
 11
121.825
 21
69.2037
 31
0.0
  0
LINE
  8
0
 62
     0
 10
140.875
 20
69.2037
 30
0.0
 11
154.876
 21
69.2037
 31
0.0
  0
LINE
  8
0
 62
     0
 10
154.876
 20
69.2037
 30
0.0
 11
154.876
 21
55.2041
 31
0.0
  0
LINE
  8
0
 62
     0
 10
154.876
 20
55.2041
 30
0.0
 11
140.875
 21
55.2041
 31
0.0
  0
LINE
  8
0
 62
     0
 10
140.875
 20
55.2041
 30
0.0
 11
140.875
 21
69.2037
 31
0.0
  0
LINE
  8
0
 62
     0
 10
159.925
 20
69.2037
 30
0.0
 11
173.926
 21
69.2037
 31
0.0
  0
LINE
  8
0
 62
     0
 10
173.926
 20
69.2037
 30
0.0
 11
173.926
 21
55.2041
 31
0.0
  0
LINE
  8
0
 62
     0
 10
173.926
 20
55.2041
 30
0.0
 11
159.925
 21
55.2041
 31
0.0
  0
LINE
  8
0
 62
     0
 10
159.925
 20
55.2041
 30
0.0
 11
159.925
 21
69.2037
 31
0.0
  0
LINE
  8
0
 62
     0
 10
178.975
 20
69.2037
 30
0.0
 11
192.977
 21
69.2037
 31
0.0
  0
LINE
  8
0
 62
     0
 10
192.977
 20
69.2037
 30
0.0
 11
192.977
 21
55.2041
 31
0.0
  0
LINE
  8
0
 62
     0
 10
192.977
 20
55.2041
 30
0.0
 11
178.975
 21
55.2041
 31
0.0
  0
LINE
  8
0
 62
     0
 10
178.975
 20
55.2041
 30
0.0
 11
178.975
 21
69.2037
 31
0.0
  0
LINE
  8
0
 62
     0
 10
198.025
 20
69.2037
 30
0.0
 11
212.027
 21
69.2037
 31
0.0
  0
LINE
  8
0
 62
     0
 10
212.027
 20
69.2037
 30
0.0
 11
212.027
 21
55.2041
 31
0.0
  0
LINE
  8
0
 62
     0
 10
212.027
 20
55.2041
 30
0.0
 11
198.025
 21
55.2041
 31
0.0
  0
LINE
  8
0
 62
     0
 10
198.025
 20
55.2041
 30
0.0
 11
198.025
 21
69.2037
 31
0.0
  0
LINE
  8
0
 62
     0
 10
217.075
 20
69.2037
 30
0.0
 11
231.077
 21
69.2037
 31
0.0
  0
LINE
  8
0
 62
     0
 10
231.077
 20
69.2037
 30
0.0
 11
231.077
 21
55.2041
 31
0.0
  0
LINE
  8
0
 62
     0
 10
231.077
 20
55.2041
 30
0.0
 11
217.075
 21
55.2041
 31
0.0
  0
LINE
  8
0
 62
     0
 10
217.075
 20
55.2041
 30
0.0
 11
217.075
 21
69.2037
 31
0.0
  0
LINE
  8
0
 62
     0
 10
236.125
 20
69.2037
 30
0.0
 11
250.127
 21
69.2037
 31
0.0
  0
LINE
  8
0
 62
     0
 10
250.127
 20
69.2037
 30
0.0
 11
250.127
 21
55.2041
 31
0.0
  0
LINE
  8
0
 62
     0
 10
250.127
 20
55.2041
 30
0.0
 11
236.125
 21
55.2041
 31
0.0
  0
LINE
  8
0
 62
     0
 10
236.125
 20
55.2041
 30
0.0
 11
236.125
 21
69.2037
 31
0.0
  0
LINE
  8
0
 62
     0
 10
301.827
 20
109.532
 30
0.0
 11
304.767
 21
109.532
 31
0.0
  0
LINE
  8
0
 62
     0
 10
304.767
 20
109.532
 30
0.0
 11
304.767
 21
57.7328
 31
0.0
  0
LINE
  8
0
 62
     0
 10
304.767
 20
57.7328
 30
0.0
 11
301.827
 21
57.7328
 31
0.0
  0
LINE
  8
0
 62
     0
 10
301.827
 20
57.7328
 30
0.0
 11
301.827
 21
109.532
 31
0.0
  0
LINE
  8
0
 62
     0
 10
319.607
 20
109.532
 30
0.0
 11
322.546
 21
109.532
 31
0.0
  0
LINE
  8
0
 62
     0
 10
322.546
 20
109.532
 30
0.0
 11
322.546
 21
57.7328
 31
0.0
  0
LINE
  8
0
 62
     0
 10
322.546
 20
57.7328
 30
0.0
 11
319.607
 21
57.7328
 31
0.0
  0
LINE
  8
0
 62
     0
 10
319.607
 20
57.7328
 30
0.0
 11
319.607
 21
109.532
 31
0.0
  0
LINE
  8
0
 62
     0
 10
17.0505
 20
88.2537
 30
0.0
 11
31.0513
 21
88.2537
 31
0.0
  0
LINE
  8
0
 62
     0
 10
31.0513
 20
88.2537
 30
0.0
 11
31.0513
 21
74.2541
 31
0.0
  0
LINE
  8
0
 62
     0
 10
31.0513
 20
74.2541
 30
0.0
 11
17.0505
 21
74.2541
 31
0.0
  0
LINE
  8
0
 62
     0
 10
17.0505
 20
74.2541
 30
0.0
 11
17.0505
 21
88.2537
 31
0.0
  0
LINE
  8
0
 62
     0
 10
40.863
 20
88.2537
 30
0.0
 11
54.8626
 21
88.2537
 31
0.0
  0
LINE
  8
0
 62
     0
 10
54.8626
 20
88.2537
 30
0.0
 11
54.8626
 21
74.2541
 31
0.0
  0
LINE
  8
0
 62
     0
 10
54.8626
 20
74.2541
 30
0.0
 11
40.863
 21
74.2541
 31
0.0
  0
LINE
  8
0
 62
     0
 10
40.863
 20
74.2541
 30
0.0
 11
40.863
 21
88.2537
 31
0.0
  0
LINE
  8
0
 62
     0
 10
59.913
 20
88.2537
 30
0.0
 11
73.9126
 21
88.2537
 31
0.0
  0
LINE
  8
0
 62
     0
 10
73.9126
 20
88.2537
 30
0.0
 11
73.9126
 21
74.2541
 31
0.0
  0
LINE
  8
0
 62
     0
 10
73.9126
 20
74.2541
 30
0.0
 11
59.913
 21
74.2541
 31
0.0
  0
LINE
  8
0
 62
     0
 10
59.913
 20
74.2541
 30
0.0
 11
59.913
 21
88.2537
 31
0.0
  0
LINE
  8
0
 62
     0
 10
78.963
 20
88.2537
 30
0.0
 11
92.9626
 21
88.2537
 31
0.0
  0
LINE
  8
0
 62
     0
 10
92.9626
 20
88.2537
 30
0.0
 11
92.9626
 21
74.2541
 31
0.0
  0
LINE
  8
0
 62
     0
 10
92.9626
 20
74.2541
 30
0.0
 11
78.963
 21
74.2541
 31
0.0
  0
LINE
  8
0
 62
     0
 10
78.963
 20
74.2541
 30
0.0
 11
78.963
 21
88.2537
 31
0.0
  0
LINE
  8
0
 62
     0
 10
98.013
 20
88.2537
 30
0.0
 11
112.013
 21
88.2537
 31
0.0
  0
LINE
  8
0
 62
     0
 10
112.013
 20
88.2537
 30
0.0
 11
112.013
 21
74.2541
 31
0.0
  0
LINE
  8
0
 62
     0
 10
112.013
 20
74.2541
 30
0.0
 11
98.013
 21
74.2541
 31
0.0
  0
LINE
  8
0
 62
     0
 10
98.013
 20
74.2541
 30
0.0
 11
98.013
 21
88.2537
 31
0.0
  0
LINE
  8
0
 62
     0
 10
117.063
 20
88.2537
 30
0.0
 11
131.063
 21
88.2537
 31
0.0
  0
LINE
  8
0
 62
     0
 10
131.063
 20
88.2537
 30
0.0
 11
131.063
 21
74.2541
 31
0.0
  0
LINE
  8
0
 62
     0
 10
131.063
 20
74.2541
 30
0.0
 11
117.063
 21
74.2541
 31
0.0
  0
LINE
  8
0
 62
     0
 10
117.063
 20
74.2541
 30
0.0
 11
117.063
 21
88.2537
 31
0.0
  0
LINE
  8
0
 62
     0
 10
136.113
 20
88.2537
 30
0.0
 11
150.113
 21
88.2537
 31
0.0
  0
LINE
  8
0
 62
     0
 10
150.113
 20
88.2537
 30
0.0
 11
150.113
 21
74.2541
 31
0.0
  0
LINE
  8
0
 62
     0
 10
150.113
 20
74.2541
 30
0.0
 11
136.113
 21
74.2541
 31
0.0
  0
LINE
  8
0
 62
     0
 10
136.113
 20
74.2541
 30
0.0
 11
136.113
 21
88.2537
 31
0.0
  0
LINE
  8
0
 62
     0
 10
155.163
 20
88.2537
 30
0.0
 11
169.163
 21
88.2537
 31
0.0
  0
LINE
  8
0
 62
     0
 10
169.163
 20
88.2537
 30
0.0
 11
169.163
 21
74.2541
 31
0.0
  0
LINE
  8
0
 62
     0
 10
169.163
 20
74.2541
 30
0.0
 11
155.163
 21
74.2541
 31
0.0
  0
LINE
  8
0
 62
     0
 10
155.163
 20
74.2541
 30
0.0
 11
155.163
 21
88.2537
 31
0.0
  0
LINE
  8
0
 62
     0
 10
174.213
 20
88.2537
 30
0.0
 11
188.213
 21
88.2537
 31
0.0
  0
LINE
  8
0
 62
     0
 10
188.213
 20
88.2537
 30
0.0
 11
188.213
 21
74.2541
 31
0.0
  0
LINE
  8
0
 62
     0
 10
188.213
 20
74.2541
 30
0.0
 11
174.213
 21
74.2541
 31
0.0
  0
LINE
  8
0
 62
     0
 10
174.213
 20
74.2541
 30
0.0
 11
174.213
 21
88.2537
 31
0.0
  0
LINE
  8
0
 62
     0
 10
193.263
 20
88.2537
 30
0.0
 11
207.263
 21
88.2537
 31
0.0
  0
LINE
  8
0
 62
     0
 10
207.263
 20
88.2537
 30
0.0
 11
207.263
 21
74.2541
 31
0.0
  0
LINE
  8
0
 62
     0
 10
207.263
 20
74.2541
 30
0.0
 11
193.263
 21
74.2541
 31
0.0
  0
LINE
  8
0
 62
     0
 10
193.263
 20
74.2541
 30
0.0
 11
193.263
 21
88.2537
 31
0.0
  0
LINE
  8
0
 62
     0
 10
212.313
 20
88.2537
 30
0.0
 11
226.313
 21
88.2537
 31
0.0
  0
LINE
  8
0
 62
     0
 10
226.313
 20
88.2537
 30
0.0
 11
226.313
 21
74.2541
 31
0.0
  0
LINE
  8
0
 62
     0
 10
226.313
 20
74.2541
 30
0.0
 11
212.313
 21
74.2541
 31
0.0
  0
LINE
  8
0
 62
     0
 10
212.313
 20
74.2541
 30
0.0
 11
212.313
 21
88.2537
 31
0.0
  0
LINE
  8
0
 62
     0
 10
231.363
 20
88.2537
 30
0.0
 11
245.363
 21
88.2537
 31
0.0
  0
LINE
  8
0
 62
     0
 10
245.363
 20
88.2537
 30
0.0
 11
245.363
 21
74.2541
 31
0.0
  0
LINE
  8
0
 62
     0
 10
245.363
 20
74.2541
 30
0.0
 11
231.363
 21
74.2541
 31
0.0
  0
LINE
  8
0
 62
     0
 10
231.363
 20
74.2541
 30
0.0
 11
231.363
 21
88.2537
 31
0.0
  0
LINE
  8
0
 62
     0
 10
250.413
 20
88.2537
 30
0.0
 11
264.413
 21
88.2537
 31
0.0
  0
LINE
  8
0
 62
     0
 10
264.413
 20
88.2537
 30
0.0
 11
264.413
 21
74.2541
 31
0.0
  0
LINE
  8
0
 62
     0
 10
264.413
 20
74.2541
 30
0.0
 11
250.413
 21
74.2541
 31
0.0
  0
LINE
  8
0
 62
     0
 10
250.413
 20
74.2541
 30
0.0
 11
250.413
 21
88.2537
 31
0.0
  0
LINE
  8
0
 62
     0
 10
274.225
 20
88.2537
 30
0.0
 11
288.227
 21
88.2537
 31
0.0
  0
LINE
  8
0
 62
     0
 10
288.227
 20
88.2537
 30
0.0
 11
288.227
 21
74.2541
 31
0.0
  0
LINE
  8
0
 62
     0
 10
288.227
 20
74.2541
 30
0.0
 11
274.225
 21
74.2541
 31
0.0
  0
LINE
  8
0
 62
     0
 10
274.225
 20
74.2541
 30
0.0
 11
274.225
 21
88.2537
 31
0.0
  0
LINE
  8
0
 62
     0
 10
269.463
 20
107.304
 30
0.0
 11
269.463
 21
102.603
 31
0.0
  0
LINE
  8
0
 62
     0
 10
269.463
 20
102.603
 30
0.0
 11
267.938
 21
102.603
 31
0.0
  0
LINE
  8
0
 62
     0
 10
267.938
 20
102.603
 30
0.0
 11
267.938
 21
105.833
 31
0.0
  0
LINE
  8
0
 62
     0
 10
267.938
 20
105.833
 30
0.0
 11
261.188
 21
105.833
 31
0.0
  0
LINE
  8
0
 62
     0
 10
261.188
 20
105.833
 30
0.0
 11
261.188
 21
102.603
 31
0.0
  0
LINE
  8
0
 62
     0
 10
261.188
 20
102.603
 30
0.0
 11
260.362
 21
102.603
 31
0.0
  0
LINE
  8
0
 62
     0
 10
260.362
 20
102.603
 30
0.0
 11
260.362
 21
99.803
 31
0.0
  0
LINE
  8
0
 62
     0
 10
260.362
 20
99.803
 30
0.0
 11
261.188
 21
99.803
 31
0.0
  0
LINE
  8
0
 62
     0
 10
261.188
 20
99.803
 30
0.0
 11
261.188
 21
93.5344
 31
0.0
  0
LINE
  8
0
 62
     0
 10
261.188
 20
93.5344
 30
0.0
 11
262.913
 21
93.5344
 31
0.0
  0
LINE
  8
0
 62
     0
 10
262.913
 20
93.5344
 30
0.0
 11
262.913
 21
92.3339
 31
0.0
  0
LINE
  8
0
 62
     0
 10
262.913
 20
92.3339
 30
0.0
 11
266.214
 21
92.3339
 31
0.0
  0
LINE
  8
0
 62
     0
 10
266.214
 20
92.3339
 30
0.0
 11
266.214
 21
93.5344
 31
0.0
  0
LINE
  8
0
 62
     0
 10
266.214
 20
93.5344
 30
0.0
 11
267.938
 21
93.5344
 31
0.0
  0
LINE
  8
0
 62
     0
 10
267.938
 20
93.5344
 30
0.0
 11
267.938
 21
98.0034
 31
0.0
  0
LINE
  8
0
 62
     0
 10
267.938
 20
98.0034
 30
0.0
 11
269.463
 21
98.0034
 31
0.0
  0
LINE
  8
0
 62
     0
 10
269.463
 20
98.0034
 30
0.0
 11
269.463
 21
93.3041
 31
0.0
  0
LINE
  8
0
 62
     0
 10
269.463
 20
93.3041
 30
0.0
 11
283.463
 21
93.3041
 31
0.0
  0
LINE
  8
0
 62
     0
 10
283.463
 20
93.3041
 30
0.0
 11
283.463
 21
98.0034
 31
0.0
  0
LINE
  8
0
 62
     0
 10
283.463
 20
98.0034
 30
0.0
 11
284.988
 21
98.0034
 31
0.0
  0
LINE
  8
0
 62
     0
 10
284.988
 20
98.0034
 30
0.0
 11
284.988
 21
93.5344
 31
0.0
  0
LINE
  8
0
 62
     0
 10
284.988
 20
93.5344
 30
0.0
 11
286.713
 21
93.5344
 31
0.0
  0
LINE
  8
0
 62
     0
 10
286.713
 20
93.5344
 30
0.0
 11
286.713
 21
92.3339
 31
0.0
  0
LINE
  8
0
 62
     0
 10
286.713
 20
92.3339
 30
0.0
 11
290.014
 21
92.3339
 31
0.0
  0
LINE
  8
0
 62
     0
 10
290.014
 20
92.3339
 30
0.0
 11
290.014
 21
93.5344
 31
0.0
  0
LINE
  8
0
 62
     0
 10
290.014
 20
93.5344
 30
0.0
 11
291.738
 21
93.5344
 31
0.0
  0
LINE
  8
0
 62
     0
 10
291.738
 20
93.5344
 30
0.0
 11
291.738
 21
99.803
 31
0.0
  0
LINE
  8
0
 62
     0
 10
291.738
 20
99.803
 30
0.0
 11
292.563
 21
99.803
 31
0.0
  0
LINE
  8
0
 62
     0
 10
292.563
 20
99.803
 30
0.0
 11
292.563
 21
102.603
 31
0.0
  0
LINE
  8
0
 62
     0
 10
292.563
 20
102.603
 30
0.0
 11
291.738
 21
102.603
 31
0.0
  0
LINE
  8
0
 62
     0
 10
291.738
 20
102.603
 30
0.0
 11
291.738
 21
105.833
 31
0.0
  0
LINE
  8
0
 62
     0
 10
291.738
 20
105.833
 30
0.0
 11
284.988
 21
105.833
 31
0.0
  0
LINE
  8
0
 62
     0
 10
284.988
 20
105.833
 30
0.0
 11
284.988
 21
102.603
 31
0.0
  0
LINE
  8
0
 62
     0
 10
284.988
 20
102.603
 30
0.0
 11
283.463
 21
102.603
 31
0.0
  0
LINE
  8
0
 62
     0
 10
283.463
 20
102.603
 30
0.0
 11
283.463
 21
107.304
 31
0.0
  0
LINE
  8
0
 62
     0
 10
283.463
 20
107.304
 30
0.0
 11
269.463
 21
107.304
 31
0.0
  0
LINE
  8
0
 62
     0
 10
12.288
 20
107.304
 30
0.0
 11
26.2874
 21
107.304
 31
0.0
  0
LINE
  8
0
 62
     0
 10
26.2874
 20
107.304
 30
0.0
 11
26.2874
 21
93.3041
 31
0.0
  0
LINE
  8
0
 62
     0
 10
26.2874
 20
93.3041
 30
0.0
 11
12.288
 21
93.3041
 31
0.0
  0
LINE
  8
0
 62
     0
 10
12.288
 20
93.3041
 30
0.0
 11
12.288
 21
107.304
 31
0.0
  0
LINE
  8
0
 62
     0
 10
31.338
 20
107.304
 30
0.0
 11
45.3376
 21
107.304
 31
0.0
  0
LINE
  8
0
 62
     0
 10
45.3376
 20
107.304
 30
0.0
 11
45.3376
 21
93.3041
 31
0.0
  0
LINE
  8
0
 62
     0
 10
45.3376
 20
93.3041
 30
0.0
 11
31.338
 21
93.3041
 31
0.0
  0
LINE
  8
0
 62
     0
 10
31.338
 20
93.3041
 30
0.0
 11
31.338
 21
107.304
 31
0.0
  0
LINE
  8
0
 62
     0
 10
50.388
 20
107.304
 30
0.0
 11
64.3876
 21
107.304
 31
0.0
  0
LINE
  8
0
 62
     0
 10
64.3876
 20
107.304
 30
0.0
 11
64.3876
 21
93.3041
 31
0.0
  0
LINE
  8
0
 62
     0
 10
64.3876
 20
93.3041
 30
0.0
 11
50.388
 21
93.3041
 31
0.0
  0
LINE
  8
0
 62
     0
 10
50.388
 20
93.3041
 30
0.0
 11
50.388
 21
107.304
 31
0.0
  0
LINE
  8
0
 62
     0
 10
69.438
 20
107.304
 30
0.0
 11
83.4376
 21
107.304
 31
0.0
  0
LINE
  8
0
 62
     0
 10
83.4376
 20
107.304
 30
0.0
 11
83.4376
 21
93.3041
 31
0.0
  0
LINE
  8
0
 62
     0
 10
83.4376
 20
93.3041
 30
0.0
 11
69.438
 21
93.3041
 31
0.0
  0
LINE
  8
0
 62
     0
 10
69.438
 20
93.3041
 30
0.0
 11
69.438
 21
107.304
 31
0.0
  0
LINE
  8
0
 62
     0
 10
88.488
 20
107.304
 30
0.0
 11
102.488
 21
107.304
 31
0.0
  0
LINE
  8
0
 62
     0
 10
102.488
 20
107.304
 30
0.0
 11
102.488
 21
93.3041
 31
0.0
  0
LINE
  8
0
 62
     0
 10
102.488
 20
93.3041
 30
0.0
 11
88.488
 21
93.3041
 31
0.0
  0
LINE
  8
0
 62
     0
 10
88.488
 20
93.3041
 30
0.0
 11
88.488
 21
107.304
 31
0.0
  0
LINE
  8
0
 62
     0
 10
107.538
 20
107.304
 30
0.0
 11
121.538
 21
107.304
 31
0.0
  0
LINE
  8
0
 62
     0
 10
121.538
 20
107.304
 30
0.0
 11
121.538
 21
93.3041
 31
0.0
  0
LINE
  8
0
 62
     0
 10
121.538
 20
93.3041
 30
0.0
 11
107.538
 21
93.3041
 31
0.0
  0
LINE
  8
0
 62
     0
 10
107.538
 20
93.3041
 30
0.0
 11
107.538
 21
107.304
 31
0.0
  0
LINE
  8
0
 62
     0
 10
126.588
 20
107.304
 30
0.0
 11
140.588
 21
107.304
 31
0.0
  0
LINE
  8
0
 62
     0
 10
140.588
 20
107.304
 30
0.0
 11
140.588
 21
93.3041
 31
0.0
  0
LINE
  8
0
 62
     0
 10
140.588
 20
93.3041
 30
0.0
 11
126.588
 21
93.3041
 31
0.0
  0
LINE
  8
0
 62
     0
 10
126.588
 20
93.3041
 30
0.0
 11
126.588
 21
107.304
 31
0.0
  0
LINE
  8
0
 62
     0
 10
145.638
 20
107.304
 30
0.0
 11
159.638
 21
107.304
 31
0.0
  0
LINE
  8
0
 62
     0
 10
159.638
 20
107.304
 30
0.0
 11
159.638
 21
93.3041
 31
0.0
  0
LINE
  8
0
 62
     0
 10
159.638
 20
93.3041
 30
0.0
 11
145.638
 21
93.3041
 31
0.0
  0
LINE
  8
0
 62
     0
 10
145.638
 20
93.3041
 30
0.0
 11
145.638
 21
107.304
 31
0.0
  0
LINE
  8
0
 62
     0
 10
164.688
 20
107.304
 30
0.0
 11
178.688
 21
107.304
 31
0.0
  0
LINE
  8
0
 62
     0
 10
178.688
 20
107.304
 30
0.0
 11
178.688
 21
93.3041
 31
0.0
  0
LINE
  8
0
 62
     0
 10
178.688
 20
93.3041
 30
0.0
 11
164.688
 21
93.3041
 31
0.0
  0
LINE
  8
0
 62
     0
 10
164.688
 20
93.3041
 30
0.0
 11
164.688
 21
107.304
 31
0.0
  0
LINE
  8
0
 62
     0
 10
183.738
 20
107.304
 30
0.0
 11
197.738
 21
107.304
 31
0.0
  0
LINE
  8
0
 62
     0
 10
197.738
 20
107.304
 30
0.0
 11
197.738
 21
93.3041
 31
0.0
  0
LINE
  8
0
 62
     0
 10
197.738
 20
93.3041
 30
0.0
 11
183.738
 21
93.3041
 31
0.0
  0
LINE
  8
0
 62
     0
 10
183.738
 20
93.3041
 30
0.0
 11
183.738
 21
107.304
 31
0.0
  0
LINE
  8
0
 62
     0
 10
202.788
 20
107.304
 30
0.0
 11
216.788
 21
107.304
 31
0.0
  0
LINE
  8
0
 62
     0
 10
216.788
 20
107.304
 30
0.0
 11
216.788
 21
93.3041
 31
0.0
  0
LINE
  8
0
 62
     0
 10
216.788
 20
93.3041
 30
0.0
 11
202.788
 21
93.3041
 31
0.0
  0
LINE
  8
0
 62
     0
 10
202.788
 20
93.3041
 30
0.0
 11
202.788
 21
107.304
 31
0.0
  0
LINE
  8
0
 62
     0
 10
221.838
 20
107.304
 30
0.0
 11
235.838
 21
107.304
 31
0.0
  0
LINE
  8
0
 62
     0
 10
235.838
 20
107.304
 30
0.0
 11
235.838
 21
93.3041
 31
0.0
  0
LINE
  8
0
 62
     0
 10
235.838
 20
93.3041
 30
0.0
 11
221.838
 21
93.3041
 31
0.0
  0
LINE
  8
0
 62
     0
 10
221.838
 20
93.3041
 30
0.0
 11
221.838
 21
107.304
 31
0.0
  0
LINE
  8
0
 62
     0
 10
240.888
 20
107.304
 30
0.0
 11
254.888
 21
107.304
 31
0.0
  0
LINE
  8
0
 62
     0
 10
254.888
 20
107.304
 30
0.0
 11
254.888
 21
93.3041
 31
0.0
  0
LINE
  8
0
 62
     0
 10
254.888
 20
93.3041
 30
0.0
 11
240.888
 21
93.3041
 31
0.0
  0
LINE
  8
0
 62
     0
 10
240.888
 20
93.3041
 30
0.0
 11
240.888
 21
107.304
 31
0.0
  0
LINE
  8
0
 62
     0
 10
113.406
 20
113.255
 30
0.0
 11
113.098
 21
113.1
 31
0.0
  0
LINE
  8
0
 62
     0
 10
113.098
 20
113.1
 30
0.0
 11
112.854
 21
112.857
 31
0.0
  0
LINE
  8
0
 62
     0
 10
112.854
 20
112.857
 30
0.0
 11
112.697
 21
112.55
 31
0.0
  0
LINE
  8
0
 62
     0
 10
112.697
 20
112.55
 30
0.0
 11
112.645
 21
112.209
 31
0.0
  0
LINE
  8
0
 62
     0
 10
112.645
 20
112.209
 30
0.0
 11
112.697
 21
111.869
 31
0.0
  0
LINE
  8
0
 62
     0
 10
112.697
 20
111.869
 30
0.0
 11
112.854
 21
111.565
 31
0.0
  0
LINE
  8
0
 62
     0
 10
112.854
 20
111.565
 30
0.0
 11
113.098
 21
111.319
 31
0.0
  0
LINE
  8
0
 62
     0
 10
113.098
 20
111.319
 30
0.0
 11
113.406
 21
111.163
 31
0.0
  0
LINE
  8
0
 62
     0
 10
113.406
 20
111.163
 30
0.0
 11
113.745
 21
111.11
 31
0.0
  0
LINE
  8
0
 62
     0
 10
113.745
 20
111.11
 30
0.0
 11
114.085
 21
111.163
 31
0.0
  0
LINE
  8
0
 62
     0
 10
114.085
 20
111.163
 30
0.0
 11
114.391
 21
111.319
 31
0.0
  0
LINE
  8
0
 62
     0
 10
114.391
 20
111.319
 30
0.0
 11
114.635
 21
111.565
 31
0.0
  0
LINE
  8
0
 62
     0
 10
114.635
 20
111.565
 30
0.0
 11
114.791
 21
111.869
 31
0.0
  0
LINE
  8
0
 62
     0
 10
114.791
 20
111.869
 30
0.0
 11
114.844
 21
112.209
 31
0.0
  0
LINE
  8
0
 62
     0
 10
114.844
 20
112.209
 30
0.0
 11
114.791
 21
112.55
 31
0.0
  0
LINE
  8
0
 62
     0
 10
114.791
 20
112.55
 30
0.0
 11
114.635
 21
112.857
 31
0.0
  0
LINE
  8
0
 62
     0
 10
114.635
 20
112.857
 30
0.0
 11
114.391
 21
113.1
 31
0.0
  0
LINE
  8
0
 62
     0
 10
114.391
 20
113.1
 30
0.0
 11
114.085
 21
113.255
 31
0.0
  0
LINE
  8
0
 62
     0
 10
114.085
 20
113.255
 30
0.0
 11
113.745
 21
113.309
 31
0.0
  0
LINE
  8
0
 62
     0
 10
113.745
 20
113.309
 30
0.0
 11
113.406
 21
113.255
 31
0.0
  0
LINE
  8
0
 62
     0
 10
219.767
 20
113.255
 30
0.0
 11
219.461
 21
113.1
 31
0.0
  0
LINE
  8
0
 62
     0
 10
219.461
 20
113.1
 30
0.0
 11
219.217
 21
112.857
 31
0.0
  0
LINE
  8
0
 62
     0
 10
219.217
 20
112.857
 30
0.0
 11
219.061
 21
112.55
 31
0.0
  0
LINE
  8
0
 62
     0
 10
219.061
 20
112.55
 30
0.0
 11
219.008
 21
112.209
 31
0.0
  0
LINE
  8
0
 62
     0
 10
219.008
 20
112.209
 30
0.0
 11
219.061
 21
111.869
 31
0.0
  0
LINE
  8
0
 62
     0
 10
219.061
 20
111.869
 30
0.0
 11
219.217
 21
111.565
 31
0.0
  0
LINE
  8
0
 62
     0
 10
219.217
 20
111.565
 30
0.0
 11
219.461
 21
111.319
 31
0.0
  0
LINE
  8
0
 62
     0
 10
219.461
 20
111.319
 30
0.0
 11
219.767
 21
111.163
 31
0.0
  0
LINE
  8
0
 62
     0
 10
219.767
 20
111.163
 30
0.0
 11
220.107
 21
111.11
 31
0.0
  0
LINE
  8
0
 62
     0
 10
220.107
 20
111.11
 30
0.0
 11
220.448
 21
111.163
 31
0.0
  0
LINE
  8
0
 62
     0
 10
220.448
 20
111.163
 30
0.0
 11
220.754
 21
111.319
 31
0.0
  0
LINE
  8
0
 62
     0
 10
220.754
 20
111.319
 30
0.0
 11
220.997
 21
111.565
 31
0.0
  0
LINE
  8
0
 62
     0
 10
220.997
 20
111.565
 30
0.0
 11
221.155
 21
111.869
 31
0.0
  0
LINE
  8
0
 62
     0
 10
221.155
 20
111.869
 30
0.0
 11
221.207
 21
112.209
 31
0.0
  0
LINE
  8
0
 62
     0
 10
221.207
 20
112.209
 30
0.0
 11
221.155
 21
112.55
 31
0.0
  0
LINE
  8
0
 62
     0
 10
221.155
 20
112.55
 30
0.0
 11
220.997
 21
112.857
 31
0.0
  0
LINE
  8
0
 62
     0
 10
220.997
 20
112.857
 30
0.0
 11
220.754
 21
113.1
 31
0.0
  0
LINE
  8
0
 62
     0
 10
220.754
 20
113.1
 30
0.0
 11
220.448
 21
113.255
 31
0.0
  0
LINE
  8
0
 62
     0
 10
220.448
 20
113.255
 30
0.0
 11
220.107
 21
113.309
 31
0.0
  0
LINE
  8
0
 62
     0
 10
220.107
 20
113.309
 30
0.0
 11
219.767
 21
113.255
 31
0.0
  0
LINE
  8
0
 62
     0
 10
326.131
 20
113.255
 30
0.0
 11
325.823
 21
113.1
 31
0.0
  0
LINE
  8
0
 62
     0
 10
325.823
 20
113.1
 30
0.0
 11
325.579
 21
112.857
 31
0.0
  0
LINE
  8
0
 62
     0
 10
325.579
 20
112.857
 30
0.0
 11
325.424
 21
112.55
 31
0.0
  0
LINE
  8
0
 62
     0
 10
325.424
 20
112.55
 30
0.0
 11
325.37
 21
112.209
 31
0.0
  0
LINE
  8
0
 62
     0
 10
325.37
 20
112.209
 30
0.0
 11
325.424
 21
111.869
 31
0.0
  0
LINE
  8
0
 62
     0
 10
325.424
 20
111.869
 30
0.0
 11
325.579
 21
111.565
 31
0.0
  0
LINE
  8
0
 62
     0
 10
325.579
 20
111.565
 30
0.0
 11
325.823
 21
111.319
 31
0.0
  0
LINE
  8
0
 62
     0
 10
325.823
 20
111.319
 30
0.0
 11
326.131
 21
111.163
 31
0.0
  0
LINE
  8
0
 62
     0
 10
326.131
 20
111.163
 30
0.0
 11
326.47
 21
111.11
 31
0.0
  0
LINE
  8
0
 62
     0
 10
326.47
 20
111.11
 30
0.0
 11
326.81
 21
111.163
 31
0.0
  0
LINE
  8
0
 62
     0
 10
326.81
 20
111.163
 30
0.0
 11
327.117
 21
111.319
 31
0.0
  0
LINE
  8
0
 62
     0
 10
327.117
 20
111.319
 30
0.0
 11
327.36
 21
111.565
 31
0.0
  0
LINE
  8
0
 62
     0
 10
327.36
 20
111.565
 30
0.0
 11
327.516
 21
111.869
 31
0.0
  0
LINE
  8
0
 62
     0
 10
327.516
 20
111.869
 30
0.0
 11
327.569
 21
112.209
 31
0.0
  0
LINE
  8
0
 62
     0
 10
327.569
 20
112.209
 30
0.0
 11
327.516
 21
112.55
 31
0.0
  0
LINE
  8
0
 62
     0
 10
327.516
 20
112.55
 30
0.0
 11
327.36
 21
112.857
 31
0.0
  0
LINE
  8
0
 62
     0
 10
327.36
 20
112.857
 30
0.0
 11
327.117
 21
113.1
 31
0.0
  0
LINE
  8
0
 62
     0
 10
327.117
 20
113.1
 30
0.0
 11
326.81
 21
113.255
 31
0.0
  0
LINE
  8
0
 62
     0
 10
326.81
 20
113.255
 30
0.0
 11
326.47
 21
113.309
 31
0.0
  0
LINE
  8
0
 62
     0
 10
326.47
 20
113.309
 30
0.0
 11
326.131
 21
113.255
 31
0.0
  0
LINE
  8
0
 62
     0
 10
7.04176
 20
113.255
 30
0.0
 11
6.73446
 21
113.1
 31
0.0
  0
LINE
  8
0
 62
     0
 10
6.73446
 20
113.1
 30
0.0
 11
6.49192
 21
112.857
 31
0.0
  0
LINE
  8
0
 62
     0
 10
6.49192
 20
112.857
 30
0.0
 11
6.33621
 21
112.55
 31
0.0
  0
LINE
  8
0
 62
     0
 10
6.33621
 20
112.55
 30
0.0
 11
6.28248
 21
112.209
 31
0.0
  0
LINE
  8
0
 62
     0
 10
6.28248
 20
112.209
 30
0.0
 11
6.33621
 21
111.869
 31
0.0
  0
LINE
  8
0
 62
     0
 10
6.33621
 20
111.869
 30
0.0
 11
6.49192
 21
111.565
 31
0.0
  0
LINE
  8
0
 62
     0
 10
6.49192
 20
111.565
 30
0.0
 11
6.73446
 21
111.319
 31
0.0
  0
LINE
  8
0
 62
     0
 10
6.73446
 20
111.319
 30
0.0
 11
7.04176
 21
111.163
 31
0.0
  0
LINE
  8
0
 62
     0
 10
7.04176
 20
111.163
 30
0.0
 11
7.38216
 21
111.11
 31
0.0
  0
LINE
  8
0
 62
     0
 10
7.38216
 20
111.11
 30
0.0
 11
7.72252
 21
111.163
 31
0.0
  0
LINE
  8
0
 62
     0
 10
7.72252
 20
111.163
 30
0.0
 11
8.02707
 21
111.319
 31
0.0
  0
LINE
  8
0
 62
     0
 10
8.02707
 20
111.319
 30
0.0
 11
8.27236
 21
111.565
 31
0.0
  0
LINE
  8
0
 62
     0
 10
8.27236
 20
111.565
 30
0.0
 11
8.42807
 21
111.869
 31
0.0
  0
LINE
  8
0
 62
     0
 10
8.42807
 20
111.869
 30
0.0
 11
8.48184
 21
112.209
 31
0.0
  0
LINE
  8
0
 62
     0
 10
8.48184
 20
112.209
 30
0.0
 11
8.42807
 21
112.55
 31
0.0
  0
LINE
  8
0
 62
     0
 10
8.42807
 20
112.55
 30
0.0
 11
8.27236
 21
112.857
 31
0.0
  0
LINE
  8
0
 62
     0
 10
8.27236
 20
112.857
 30
0.0
 11
8.02707
 21
113.1
 31
0.0
  0
LINE
  8
0
 62
     0
 10
8.02707
 20
113.1
 30
0.0
 11
7.72252
 21
113.255
 31
0.0
  0
LINE
  8
0
 62
     0
 10
7.72252
 20
113.255
 30
0.0
 11
7.38216
 21
113.309
 31
0.0
  0
LINE
  8
0
 62
     0
 10
7.38216
 20
113.309
 30
0.0
 11
7.04176
 21
113.255
 31
0.0
  0
ENDSEC
  0
EOF
