ISO-10303-21;
HEADER;
FILE_DESCRIPTION(('KiCad electronic assembly'),'2;1');
FILE_NAME('hzk65_bottom.step','2026-07-25T11:11:59',('Pcbnew'),('Kicad')
  ,'Open CASCADE STEP processor 7.6','KiCad to STEP converter','Unknown'
  );
FILE_SCHEMA(('AUTOMOTIVE_DESIGN { 1 0 10303 214 1 1 1 1 }'));
ENDSEC;
DATA;
#1 = APPLICATION_PROTOCOL_DEFINITION('international standard',
  'automotive_design',2000,#2);
#2 = APPLICATION_CONTEXT(
  'core data for automotive mechanical design processes');
#3 = SHAPE_DEFINITION_REPRESENTATION(#4,#10);
#4 = PRODUCT_DEFINITION_SHAPE('','',#5);
#5 = PRODUCT_DEFINITION('design','',#6,#9);
#6 = PRODUCT_DEFINITION_FORMATION('','',#7);
#7 = PRODUCT('hzk65_bottom 1','hzk65_bottom 1','',(#8));
#8 = PRODUCT_CONTEXT('',#2,'mechanical');
#9 = PRODUCT_DEFINITION_CONTEXT('part definition',#2,'design');
#10 = SHAPE_REPRESENTATION('',(#11,#15),#19);
#11 = AXIS2_PLACEMENT_3D('',#12,#13,#14);
#12 = CARTESIAN_POINT('',(0.,0.,0.));
#13 = DIRECTION('',(0.,0.,1.));
#14 = DIRECTION('',(1.,0.,-0.));
#15 = AXIS2_PLACEMENT_3D('',#16,#17,#18);
#16 = CARTESIAN_POINT('',(0.,0.,0.));
#17 = DIRECTION('',(0.,0.,1.));
#18 = DIRECTION('',(1.,0.,-0.));
#19 = ( GEOMETRIC_REPRESENTATION_CONTEXT(3) 
GLOBAL_UNCERTAINTY_ASSIGNED_CONTEXT((#23)) GLOBAL_UNIT_ASSIGNED_CONTEXT(
(#20,#21,#22)) REPRESENTATION_CONTEXT('Context #1',
  '3D Context with UNIT and UNCERTAINTY') );
#20 = ( LENGTH_UNIT() NAMED_UNIT(*) SI_UNIT(.MILLI.,.METRE.) );
#21 = ( NAMED_UNIT(*) PLANE_ANGLE_UNIT() SI_UNIT($,.RADIAN.) );
#22 = ( NAMED_UNIT(*) SI_UNIT($,.STERADIAN.) SOLID_ANGLE_UNIT() );
#23 = UNCERTAINTY_MEASURE_WITH_UNIT(LENGTH_MEASURE(1.E-07),#20,
  'distance_accuracy_value','confusion accuracy');
#24 = PRODUCT_RELATED_PRODUCT_CATEGORY('part',$,(#7));
#25 = SHAPE_DEFINITION_REPRESENTATION(#26,#32);
#26 = PRODUCT_DEFINITION_SHAPE('','',#27);
#27 = PRODUCT_DEFINITION('design','',#28,#31);
#28 = PRODUCT_DEFINITION_FORMATION('','',#29);
#29 = PRODUCT('hzk65_bottom-unsaved-export-FWdx8F_PCB',
  'hzk65_bottom-unsaved-export-FWdx8F_PCB','',(#30));
#30 = PRODUCT_CONTEXT('',#2,'mechanical');
#31 = PRODUCT_DEFINITION_CONTEXT('part definition',#2,'design');
#32 = ADVANCED_BREP_SHAPE_REPRESENTATION('',(#11,#33),#635);
#33 = MANIFOLD_SOLID_BREP('',#34);
#34 = CLOSED_SHELL('',(#35,#77,#108,#139,#279,#419,#436,#453,#470,#487,
    #499,#516,#533,#550,#567,#584,#601,#618));
#35 = ADVANCED_FACE('',(#36),#72,.T.);
#36 = FACE_BOUND('',#37,.T.);
#37 = EDGE_LOOP('',(#38,#48,#57,#65));
#38 = ORIENTED_EDGE('',*,*,#39,.T.);
#39 = EDGE_CURVE('',#40,#42,#44,.T.);
#40 = VERTEX_POINT('',#41);
#41 = CARTESIAN_POINT('',(321.46195,7.549516567451E-15,0.));
#42 = VERTEX_POINT('',#43);
#43 = CARTESIAN_POINT('',(321.46195,7.549516567451E-15,1.51));
#44 = LINE('',#45,#46);
#45 = CARTESIAN_POINT('',(321.46195,7.549516567451E-15,0.));
#46 = VECTOR('',#47,1.);
#47 = DIRECTION('',(0.,0.,1.));
#48 = ORIENTED_EDGE('',*,*,#49,.T.);
#49 = EDGE_CURVE('',#42,#50,#52,.T.);
#50 = VERTEX_POINT('',#51);
#51 = CARTESIAN_POINT('',(323.8432,-2.38125,1.51));
#52 = CIRCLE('',#53,2.381301292594);
#53 = AXIS2_PLACEMENT_3D('',#54,#55,#56);
#54 = CARTESIAN_POINT('',(321.46189870795,-2.381301292041,1.51));
#55 = DIRECTION('',(0.,0.,-1.));
#56 = DIRECTION('',(2.153950090566E-05,0.999999999768,0.));
#57 = ORIENTED_EDGE('',*,*,#58,.F.);
#58 = EDGE_CURVE('',#59,#50,#61,.T.);
#59 = VERTEX_POINT('',#60);
#60 = CARTESIAN_POINT('',(323.8432,-2.38125,0.));
#61 = LINE('',#62,#63);
#62 = CARTESIAN_POINT('',(323.8432,-2.38125,0.));
#63 = VECTOR('',#64,1.);
#64 = DIRECTION('',(0.,0.,1.));
#65 = ORIENTED_EDGE('',*,*,#66,.F.);
#66 = EDGE_CURVE('',#40,#59,#67,.T.);
#67 = CIRCLE('',#68,2.381301292594);
#68 = AXIS2_PLACEMENT_3D('',#69,#70,#71);
#69 = CARTESIAN_POINT('',(321.46189870795,-2.381301292041,0.));
#70 = DIRECTION('',(0.,0.,-1.));
#71 = DIRECTION('',(2.153950090566E-05,0.999999999768,0.));
#72 = CYLINDRICAL_SURFACE('',#73,2.381301292594);
#73 = AXIS2_PLACEMENT_3D('',#74,#75,#76);
#74 = CARTESIAN_POINT('',(321.46189870795,-2.381301292041,0.));
#75 = DIRECTION('',(0.,0.,-1.));
#76 = DIRECTION('',(2.153950090566E-05,0.999999999768,0.));
#77 = ADVANCED_FACE('',(#78),#103,.T.);
#78 = FACE_BOUND('',#79,.T.);
#79 = EDGE_LOOP('',(#80,#90,#96,#97));
#80 = ORIENTED_EDGE('',*,*,#81,.T.);
#81 = EDGE_CURVE('',#82,#84,#86,.T.);
#82 = VERTEX_POINT('',#83);
#83 = CARTESIAN_POINT('',(2.38125,0.,0.));
#84 = VERTEX_POINT('',#85);
#85 = CARTESIAN_POINT('',(2.38125,0.,1.51));
#86 = LINE('',#87,#88);
#87 = CARTESIAN_POINT('',(2.38125,0.,0.));
#88 = VECTOR('',#89,1.);
#89 = DIRECTION('',(0.,0.,1.));
#90 = ORIENTED_EDGE('',*,*,#91,.T.);
#91 = EDGE_CURVE('',#84,#42,#92,.T.);
#92 = LINE('',#93,#94);
#93 = CARTESIAN_POINT('',(2.38125,0.,1.51));
#94 = VECTOR('',#95,1.);
#95 = DIRECTION('',(1.,0.,0.));
#96 = ORIENTED_EDGE('',*,*,#39,.F.);
#97 = ORIENTED_EDGE('',*,*,#98,.F.);
#98 = EDGE_CURVE('',#82,#40,#99,.T.);
#99 = LINE('',#100,#101);
#100 = CARTESIAN_POINT('',(2.38125,-0.,0.));
#101 = VECTOR('',#102,1.);
#102 = DIRECTION('',(1.,0.,0.));
#103 = PLANE('',#104);
#104 = AXIS2_PLACEMENT_3D('',#105,#106,#107);
#105 = CARTESIAN_POINT('',(2.38125,0.,0.));
#106 = DIRECTION('',(0.,1.,0.));
#107 = DIRECTION('',(1.,0.,0.));
#108 = ADVANCED_FACE('',(#109),#134,.T.);
#109 = FACE_BOUND('',#110,.T.);
#110 = EDGE_LOOP('',(#111,#112,#120,#128));
#111 = ORIENTED_EDGE('',*,*,#58,.T.);
#112 = ORIENTED_EDGE('',*,*,#113,.T.);
#113 = EDGE_CURVE('',#50,#114,#116,.T.);
#114 = VERTEX_POINT('',#115);
#115 = CARTESIAN_POINT('',(323.8432,-107.15395,1.51));
#116 = LINE('',#117,#118);
#117 = CARTESIAN_POINT('',(323.8432,-2.38125,1.51));
#118 = VECTOR('',#119,1.);
#119 = DIRECTION('',(0.,-1.,0.));
#120 = ORIENTED_EDGE('',*,*,#121,.F.);
#121 = EDGE_CURVE('',#122,#114,#124,.T.);
#122 = VERTEX_POINT('',#123);
#123 = CARTESIAN_POINT('',(323.8432,-107.15395,0.));
#124 = LINE('',#125,#126);
#125 = CARTESIAN_POINT('',(323.8432,-107.15395,0.));
#126 = VECTOR('',#127,1.);
#127 = DIRECTION('',(0.,0.,1.));
#128 = ORIENTED_EDGE('',*,*,#129,.F.);
#129 = EDGE_CURVE('',#59,#122,#130,.T.);
#130 = LINE('',#131,#132);
#131 = CARTESIAN_POINT('',(323.8432,-2.38125,0.));
#132 = VECTOR('',#133,1.);
#133 = DIRECTION('',(0.,-1.,0.));
#134 = PLANE('',#135);
#135 = AXIS2_PLACEMENT_3D('',#136,#137,#138);
#136 = CARTESIAN_POINT('',(323.8432,-2.38125,0.));
#137 = DIRECTION('',(1.,0.,-0.));
#138 = DIRECTION('',(0.,-1.,0.));
#139 = ADVANCED_FACE('',(#140,#186,#197,#208,#219,#230,#241,#252,#263),
  #274,.F.);
#140 = FACE_BOUND('',#141,.F.);
#141 = EDGE_LOOP('',(#142,#143,#144,#153,#161,#170,#178,#185));
#142 = ORIENTED_EDGE('',*,*,#66,.F.);
#143 = ORIENTED_EDGE('',*,*,#98,.F.);
#144 = ORIENTED_EDGE('',*,*,#145,.F.);
#145 = EDGE_CURVE('',#146,#82,#148,.T.);
#146 = VERTEX_POINT('',#147);
#147 = CARTESIAN_POINT('',(0.,-2.38125,0.));
#148 = CIRCLE('',#149,2.381250077504);
#149 = AXIS2_PLACEMENT_3D('',#150,#151,#152);
#150 = CARTESIAN_POINT('',(2.381250077504,-2.381250077504,0.));
#151 = DIRECTION('',(0.,0.,-1.));
#152 = DIRECTION('',(-1.,3.254771254629E-08,0.));
#153 = ORIENTED_EDGE('',*,*,#154,.F.);
#154 = EDGE_CURVE('',#155,#146,#157,.T.);
#155 = VERTEX_POINT('',#156);
#156 = CARTESIAN_POINT('',(-1.33226762955E-15,-107.15395,0.));
#157 = LINE('',#158,#159);
#158 = CARTESIAN_POINT('',(0.,-107.15395,0.));
#159 = VECTOR('',#160,1.);
#160 = DIRECTION('',(0.,1.,0.));
#161 = ORIENTED_EDGE('',*,*,#162,.F.);
#162 = EDGE_CURVE('',#163,#155,#165,.T.);
#163 = VERTEX_POINT('',#164);
#164 = CARTESIAN_POINT('',(2.38125,-109.5352,0.));
#165 = CIRCLE('',#166,2.381250077504);
#166 = AXIS2_PLACEMENT_3D('',#167,#168,#169);
#167 = CARTESIAN_POINT('',(2.381250077504,-107.1539499224,0.));
#168 = DIRECTION('',(0.,0.,-1.));
#169 = DIRECTION('',(-3.254771310577E-08,-1.,-0.));
#170 = ORIENTED_EDGE('',*,*,#171,.F.);
#171 = EDGE_CURVE('',#172,#163,#174,.T.);
#172 = VERTEX_POINT('',#173);
#173 = CARTESIAN_POINT('',(321.46195,-109.5352,0.));
#174 = LINE('',#175,#176);
#175 = CARTESIAN_POINT('',(321.46195,-109.5352,0.));
#176 = VECTOR('',#177,1.);
#177 = DIRECTION('',(-1.,0.,0.));
#178 = ORIENTED_EDGE('',*,*,#179,.F.);
#179 = EDGE_CURVE('',#122,#172,#180,.T.);
#180 = CIRCLE('',#181,2.381301292594);
#181 = AXIS2_PLACEMENT_3D('',#182,#183,#184);
#182 = CARTESIAN_POINT('',(321.46189870795,-107.1538987079,0.));
#183 = DIRECTION('',(0.,0.,-1.));
#184 = DIRECTION('',(0.999999999768,-2.153950090565E-05,0.));
#185 = ORIENTED_EDGE('',*,*,#129,.F.);
#186 = FACE_BOUND('',#187,.F.);
#187 = EDGE_LOOP('',(#188));
#188 = ORIENTED_EDGE('',*,*,#189,.T.);
#189 = EDGE_CURVE('',#190,#190,#192,.T.);
#190 = VERTEX_POINT('',#191);
#191 = CARTESIAN_POINT('',(2.38125,-108.25625,0.));
#192 = CIRCLE('',#193,1.1);
#193 = AXIS2_PLACEMENT_3D('',#194,#195,#196);
#194 = CARTESIAN_POINT('',(2.38125,-107.15625,0.));
#195 = DIRECTION('',(-0.,0.,-1.));
#196 = DIRECTION('',(-0.,-1.,0.));
#197 = FACE_BOUND('',#198,.F.);
#198 = EDGE_LOOP('',(#199));
#199 = ORIENTED_EDGE('',*,*,#200,.T.);
#200 = EDGE_CURVE('',#201,#201,#203,.T.);
#201 = VERTEX_POINT('',#202);
#202 = CARTESIAN_POINT('',(108.744083,-108.25625,0.));
#203 = CIRCLE('',#204,1.1);
#204 = AXIS2_PLACEMENT_3D('',#205,#206,#207);
#205 = CARTESIAN_POINT('',(108.744083,-107.15625,0.));
#206 = DIRECTION('',(-0.,0.,-1.));
#207 = DIRECTION('',(1.2918958832E-14,-1.,-0.));
#208 = FACE_BOUND('',#209,.F.);
#209 = EDGE_LOOP('',(#210));
#210 = ORIENTED_EDGE('',*,*,#211,.T.);
#211 = EDGE_CURVE('',#212,#212,#214,.T.);
#212 = VERTEX_POINT('',#213);
#213 = CARTESIAN_POINT('',(215.106916,-108.25625,0.));
#214 = CIRCLE('',#215,1.1);
#215 = AXIS2_PLACEMENT_3D('',#216,#217,#218);
#216 = CARTESIAN_POINT('',(215.106916,-107.15625,0.));
#217 = DIRECTION('',(-0.,0.,-1.));
#218 = DIRECTION('',(-0.,-1.,0.));
#219 = FACE_BOUND('',#220,.F.);
#220 = EDGE_LOOP('',(#221));
#221 = ORIENTED_EDGE('',*,*,#222,.T.);
#222 = EDGE_CURVE('',#223,#223,#225,.T.);
#223 = VERTEX_POINT('',#224);
#224 = CARTESIAN_POINT('',(321.46875,-108.25625,0.));
#225 = CIRCLE('',#226,1.1);
#226 = AXIS2_PLACEMENT_3D('',#227,#228,#229);
#227 = CARTESIAN_POINT('',(321.46875,-107.15625,0.));
#228 = DIRECTION('',(-0.,0.,-1.));
#229 = DIRECTION('',(-0.,-1.,0.));
#230 = FACE_BOUND('',#231,.F.);
#231 = EDGE_LOOP('',(#232));
#232 = ORIENTED_EDGE('',*,*,#233,.T.);
#233 = EDGE_CURVE('',#234,#234,#236,.T.);
#234 = VERTEX_POINT('',#235);
#235 = CARTESIAN_POINT('',(2.38125,-3.48125,0.));
#236 = CIRCLE('',#237,1.1);
#237 = AXIS2_PLACEMENT_3D('',#238,#239,#240);
#238 = CARTESIAN_POINT('',(2.38125,-2.38125,0.));
#239 = DIRECTION('',(-0.,0.,-1.));
#240 = DIRECTION('',(4.037174635001E-16,-1.,-0.));
#241 = FACE_BOUND('',#242,.F.);
#242 = EDGE_LOOP('',(#243));
#243 = ORIENTED_EDGE('',*,*,#244,.T.);
#244 = EDGE_CURVE('',#245,#245,#247,.T.);
#245 = VERTEX_POINT('',#246);
#246 = CARTESIAN_POINT('',(108.744083,-3.48125,0.));
#247 = CIRCLE('',#248,1.1);
#248 = AXIS2_PLACEMENT_3D('',#249,#250,#251);
#249 = CARTESIAN_POINT('',(108.744083,-2.38125,0.));
#250 = DIRECTION('',(-0.,0.,-1.));
#251 = DIRECTION('',(1.2918958832E-14,-1.,-0.));
#252 = FACE_BOUND('',#253,.F.);
#253 = EDGE_LOOP('',(#254));
#254 = ORIENTED_EDGE('',*,*,#255,.T.);
#255 = EDGE_CURVE('',#256,#256,#258,.T.);
#256 = VERTEX_POINT('',#257);
#257 = CARTESIAN_POINT('',(215.106916,-3.48125,0.));
#258 = CIRCLE('',#259,1.1);
#259 = AXIS2_PLACEMENT_3D('',#260,#261,#262);
#260 = CARTESIAN_POINT('',(215.106916,-2.38125,0.));
#261 = DIRECTION('',(-0.,0.,-1.));
#262 = DIRECTION('',(-0.,-1.,0.));
#263 = FACE_BOUND('',#264,.F.);
#264 = EDGE_LOOP('',(#265));
#265 = ORIENTED_EDGE('',*,*,#266,.T.);
#266 = EDGE_CURVE('',#267,#267,#269,.T.);
#267 = VERTEX_POINT('',#268);
#268 = CARTESIAN_POINT('',(321.46875,-3.48125,0.));
#269 = CIRCLE('',#270,1.1);
#270 = AXIS2_PLACEMENT_3D('',#271,#272,#273);
#271 = CARTESIAN_POINT('',(321.46875,-2.38125,0.));
#272 = DIRECTION('',(-0.,0.,-1.));
#273 = DIRECTION('',(-0.,-1.,0.));
#274 = PLANE('',#275);
#275 = AXIS2_PLACEMENT_3D('',#276,#277,#278);
#276 = CARTESIAN_POINT('',(0.,0.,0.));
#277 = DIRECTION('',(0.,0.,1.));
#278 = DIRECTION('',(1.,0.,-0.));
#279 = ADVANCED_FACE('',(#280,#326,#337,#348,#359,#370,#381,#392,#403),
  #414,.T.);
#280 = FACE_BOUND('',#281,.T.);
#281 = EDGE_LOOP('',(#282,#283,#284,#293,#301,#310,#318,#325));
#282 = ORIENTED_EDGE('',*,*,#49,.F.);
#283 = ORIENTED_EDGE('',*,*,#91,.F.);
#284 = ORIENTED_EDGE('',*,*,#285,.F.);
#285 = EDGE_CURVE('',#286,#84,#288,.T.);
#286 = VERTEX_POINT('',#287);
#287 = CARTESIAN_POINT('',(0.,-2.38125,1.51));
#288 = CIRCLE('',#289,2.381250077504);
#289 = AXIS2_PLACEMENT_3D('',#290,#291,#292);
#290 = CARTESIAN_POINT('',(2.381250077504,-2.381250077504,1.51));
#291 = DIRECTION('',(0.,0.,-1.));
#292 = DIRECTION('',(-1.,3.254771254629E-08,0.));
#293 = ORIENTED_EDGE('',*,*,#294,.F.);
#294 = EDGE_CURVE('',#295,#286,#297,.T.);
#295 = VERTEX_POINT('',#296);
#296 = CARTESIAN_POINT('',(-1.33226762955E-15,-107.15395,1.51));
#297 = LINE('',#298,#299);
#298 = CARTESIAN_POINT('',(0.,-107.15395,1.51));
#299 = VECTOR('',#300,1.);
#300 = DIRECTION('',(0.,1.,0.));
#301 = ORIENTED_EDGE('',*,*,#302,.F.);
#302 = EDGE_CURVE('',#303,#295,#305,.T.);
#303 = VERTEX_POINT('',#304);
#304 = CARTESIAN_POINT('',(2.38125,-109.5352,1.51));
#305 = CIRCLE('',#306,2.381250077504);
#306 = AXIS2_PLACEMENT_3D('',#307,#308,#309);
#307 = CARTESIAN_POINT('',(2.381250077504,-107.1539499224,1.51));
#308 = DIRECTION('',(0.,0.,-1.));
#309 = DIRECTION('',(-3.254771310577E-08,-1.,-0.));
#310 = ORIENTED_EDGE('',*,*,#311,.F.);
#311 = EDGE_CURVE('',#312,#303,#314,.T.);
#312 = VERTEX_POINT('',#313);
#313 = CARTESIAN_POINT('',(321.46195,-109.5352,1.51));
#314 = LINE('',#315,#316);
#315 = CARTESIAN_POINT('',(321.46195,-109.5352,1.51));
#316 = VECTOR('',#317,1.);
#317 = DIRECTION('',(-1.,0.,0.));
#318 = ORIENTED_EDGE('',*,*,#319,.F.);
#319 = EDGE_CURVE('',#114,#312,#320,.T.);
#320 = CIRCLE('',#321,2.381301292594);
#321 = AXIS2_PLACEMENT_3D('',#322,#323,#324);
#322 = CARTESIAN_POINT('',(321.46189870795,-107.1538987079,1.51));
#323 = DIRECTION('',(0.,0.,-1.));
#324 = DIRECTION('',(0.999999999768,-2.153950090565E-05,0.));
#325 = ORIENTED_EDGE('',*,*,#113,.F.);
#326 = FACE_BOUND('',#327,.T.);
#327 = EDGE_LOOP('',(#328));
#328 = ORIENTED_EDGE('',*,*,#329,.T.);
#329 = EDGE_CURVE('',#330,#330,#332,.T.);
#330 = VERTEX_POINT('',#331);
#331 = CARTESIAN_POINT('',(2.38125,-108.25625,1.51));
#332 = CIRCLE('',#333,1.1);
#333 = AXIS2_PLACEMENT_3D('',#334,#335,#336);
#334 = CARTESIAN_POINT('',(2.38125,-107.15625,1.51));
#335 = DIRECTION('',(-0.,0.,-1.));
#336 = DIRECTION('',(-0.,-1.,0.));
#337 = FACE_BOUND('',#338,.T.);
#338 = EDGE_LOOP('',(#339));
#339 = ORIENTED_EDGE('',*,*,#340,.T.);
#340 = EDGE_CURVE('',#341,#341,#343,.T.);
#341 = VERTEX_POINT('',#342);
#342 = CARTESIAN_POINT('',(108.744083,-108.25625,1.51));
#343 = CIRCLE('',#344,1.1);
#344 = AXIS2_PLACEMENT_3D('',#345,#346,#347);
#345 = CARTESIAN_POINT('',(108.744083,-107.15625,1.51));
#346 = DIRECTION('',(-0.,0.,-1.));
#347 = DIRECTION('',(1.2918958832E-14,-1.,-0.));
#348 = FACE_BOUND('',#349,.T.);
#349 = EDGE_LOOP('',(#350));
#350 = ORIENTED_EDGE('',*,*,#351,.T.);
#351 = EDGE_CURVE('',#352,#352,#354,.T.);
#352 = VERTEX_POINT('',#353);
#353 = CARTESIAN_POINT('',(215.106916,-108.25625,1.51));
#354 = CIRCLE('',#355,1.1);
#355 = AXIS2_PLACEMENT_3D('',#356,#357,#358);
#356 = CARTESIAN_POINT('',(215.106916,-107.15625,1.51));
#357 = DIRECTION('',(-0.,0.,-1.));
#358 = DIRECTION('',(-0.,-1.,0.));
#359 = FACE_BOUND('',#360,.T.);
#360 = EDGE_LOOP('',(#361));
#361 = ORIENTED_EDGE('',*,*,#362,.T.);
#362 = EDGE_CURVE('',#363,#363,#365,.T.);
#363 = VERTEX_POINT('',#364);
#364 = CARTESIAN_POINT('',(321.46875,-108.25625,1.51));
#365 = CIRCLE('',#366,1.1);
#366 = AXIS2_PLACEMENT_3D('',#367,#368,#369);
#367 = CARTESIAN_POINT('',(321.46875,-107.15625,1.51));
#368 = DIRECTION('',(-0.,0.,-1.));
#369 = DIRECTION('',(-0.,-1.,0.));
#370 = FACE_BOUND('',#371,.T.);
#371 = EDGE_LOOP('',(#372));
#372 = ORIENTED_EDGE('',*,*,#373,.T.);
#373 = EDGE_CURVE('',#374,#374,#376,.T.);
#374 = VERTEX_POINT('',#375);
#375 = CARTESIAN_POINT('',(2.38125,-3.48125,1.51));
#376 = CIRCLE('',#377,1.1);
#377 = AXIS2_PLACEMENT_3D('',#378,#379,#380);
#378 = CARTESIAN_POINT('',(2.38125,-2.38125,1.51));
#379 = DIRECTION('',(-0.,0.,-1.));
#380 = DIRECTION('',(4.037174635001E-16,-1.,-0.));
#381 = FACE_BOUND('',#382,.T.);
#382 = EDGE_LOOP('',(#383));
#383 = ORIENTED_EDGE('',*,*,#384,.T.);
#384 = EDGE_CURVE('',#385,#385,#387,.T.);
#385 = VERTEX_POINT('',#386);
#386 = CARTESIAN_POINT('',(108.744083,-3.48125,1.51));
#387 = CIRCLE('',#388,1.1);
#388 = AXIS2_PLACEMENT_3D('',#389,#390,#391);
#389 = CARTESIAN_POINT('',(108.744083,-2.38125,1.51));
#390 = DIRECTION('',(-0.,0.,-1.));
#391 = DIRECTION('',(1.2918958832E-14,-1.,-0.));
#392 = FACE_BOUND('',#393,.T.);
#393 = EDGE_LOOP('',(#394));
#394 = ORIENTED_EDGE('',*,*,#395,.T.);
#395 = EDGE_CURVE('',#396,#396,#398,.T.);
#396 = VERTEX_POINT('',#397);
#397 = CARTESIAN_POINT('',(215.106916,-3.48125,1.51));
#398 = CIRCLE('',#399,1.1);
#399 = AXIS2_PLACEMENT_3D('',#400,#401,#402);
#400 = CARTESIAN_POINT('',(215.106916,-2.38125,1.51));
#401 = DIRECTION('',(-0.,0.,-1.));
#402 = DIRECTION('',(-0.,-1.,0.));
#403 = FACE_BOUND('',#404,.T.);
#404 = EDGE_LOOP('',(#405));
#405 = ORIENTED_EDGE('',*,*,#406,.T.);
#406 = EDGE_CURVE('',#407,#407,#409,.T.);
#407 = VERTEX_POINT('',#408);
#408 = CARTESIAN_POINT('',(321.46875,-3.48125,1.51));
#409 = CIRCLE('',#410,1.1);
#410 = AXIS2_PLACEMENT_3D('',#411,#412,#413);
#411 = CARTESIAN_POINT('',(321.46875,-2.38125,1.51));
#412 = DIRECTION('',(-0.,0.,-1.));
#413 = DIRECTION('',(-0.,-1.,0.));
#414 = PLANE('',#415);
#415 = AXIS2_PLACEMENT_3D('',#416,#417,#418);
#416 = CARTESIAN_POINT('',(0.,0.,1.51));
#417 = DIRECTION('',(0.,0.,1.));
#418 = DIRECTION('',(1.,0.,-0.));
#419 = ADVANCED_FACE('',(#420),#431,.T.);
#420 = FACE_BOUND('',#421,.T.);
#421 = EDGE_LOOP('',(#422,#428,#429,#430));
#422 = ORIENTED_EDGE('',*,*,#423,.T.);
#423 = EDGE_CURVE('',#146,#286,#424,.T.);
#424 = LINE('',#425,#426);
#425 = CARTESIAN_POINT('',(0.,-2.38125,0.));
#426 = VECTOR('',#427,1.);
#427 = DIRECTION('',(0.,0.,1.));
#428 = ORIENTED_EDGE('',*,*,#285,.T.);
#429 = ORIENTED_EDGE('',*,*,#81,.F.);
#430 = ORIENTED_EDGE('',*,*,#145,.F.);
#431 = CYLINDRICAL_SURFACE('',#432,2.381250077504);
#432 = AXIS2_PLACEMENT_3D('',#433,#434,#435);
#433 = CARTESIAN_POINT('',(2.381250077504,-2.381250077504,0.));
#434 = DIRECTION('',(0.,0.,-1.));
#435 = DIRECTION('',(-1.,3.254771254629E-08,0.));
#436 = ADVANCED_FACE('',(#437),#448,.T.);
#437 = FACE_BOUND('',#438,.T.);
#438 = EDGE_LOOP('',(#439,#440,#441,#447));
#439 = ORIENTED_EDGE('',*,*,#121,.T.);
#440 = ORIENTED_EDGE('',*,*,#319,.T.);
#441 = ORIENTED_EDGE('',*,*,#442,.F.);
#442 = EDGE_CURVE('',#172,#312,#443,.T.);
#443 = LINE('',#444,#445);
#444 = CARTESIAN_POINT('',(321.46195,-109.5352,0.));
#445 = VECTOR('',#446,1.);
#446 = DIRECTION('',(0.,0.,1.));
#447 = ORIENTED_EDGE('',*,*,#179,.F.);
#448 = CYLINDRICAL_SURFACE('',#449,2.381301292594);
#449 = AXIS2_PLACEMENT_3D('',#450,#451,#452);
#450 = CARTESIAN_POINT('',(321.46189870795,-107.1538987079,0.));
#451 = DIRECTION('',(0.,0.,-1.));
#452 = DIRECTION('',(0.999999999768,-2.153950090565E-05,0.));
#453 = ADVANCED_FACE('',(#454),#465,.T.);
#454 = FACE_BOUND('',#455,.T.);
#455 = EDGE_LOOP('',(#456,#462,#463,#464));
#456 = ORIENTED_EDGE('',*,*,#457,.T.);
#457 = EDGE_CURVE('',#155,#295,#458,.T.);
#458 = LINE('',#459,#460);
#459 = CARTESIAN_POINT('',(-1.33226762955E-15,-107.15395,0.));
#460 = VECTOR('',#461,1.);
#461 = DIRECTION('',(0.,0.,1.));
#462 = ORIENTED_EDGE('',*,*,#294,.T.);
#463 = ORIENTED_EDGE('',*,*,#423,.F.);
#464 = ORIENTED_EDGE('',*,*,#154,.F.);
#465 = PLANE('',#466);
#466 = AXIS2_PLACEMENT_3D('',#467,#468,#469);
#467 = CARTESIAN_POINT('',(0.,-107.15395,0.));
#468 = DIRECTION('',(-1.,0.,0.));
#469 = DIRECTION('',(0.,1.,0.));
#470 = ADVANCED_FACE('',(#471),#482,.T.);
#471 = FACE_BOUND('',#472,.T.);
#472 = EDGE_LOOP('',(#473,#474,#475,#481));
#473 = ORIENTED_EDGE('',*,*,#442,.T.);
#474 = ORIENTED_EDGE('',*,*,#311,.T.);
#475 = ORIENTED_EDGE('',*,*,#476,.F.);
#476 = EDGE_CURVE('',#163,#303,#477,.T.);
#477 = LINE('',#478,#479);
#478 = CARTESIAN_POINT('',(2.38125,-109.5352,0.));
#479 = VECTOR('',#480,1.);
#480 = DIRECTION('',(0.,0.,1.));
#481 = ORIENTED_EDGE('',*,*,#171,.F.);
#482 = PLANE('',#483);
#483 = AXIS2_PLACEMENT_3D('',#484,#485,#486);
#484 = CARTESIAN_POINT('',(321.46195,-109.5352,0.));
#485 = DIRECTION('',(0.,-1.,0.));
#486 = DIRECTION('',(-1.,0.,0.));
#487 = ADVANCED_FACE('',(#488),#494,.T.);
#488 = FACE_BOUND('',#489,.T.);
#489 = EDGE_LOOP('',(#490,#491,#492,#493));
#490 = ORIENTED_EDGE('',*,*,#476,.T.);
#491 = ORIENTED_EDGE('',*,*,#302,.T.);
#492 = ORIENTED_EDGE('',*,*,#457,.F.);
#493 = ORIENTED_EDGE('',*,*,#162,.F.);
#494 = CYLINDRICAL_SURFACE('',#495,2.381250077504);
#495 = AXIS2_PLACEMENT_3D('',#496,#497,#498);
#496 = CARTESIAN_POINT('',(2.381250077504,-107.1539499224,0.));
#497 = DIRECTION('',(0.,0.,-1.));
#498 = DIRECTION('',(-3.254771310577E-08,-1.,-0.));
#499 = ADVANCED_FACE('',(#500),#511,.F.);
#500 = FACE_BOUND('',#501,.T.);
#501 = EDGE_LOOP('',(#502,#503,#509,#510));
#502 = ORIENTED_EDGE('',*,*,#189,.T.);
#503 = ORIENTED_EDGE('',*,*,#504,.T.);
#504 = EDGE_CURVE('',#190,#330,#505,.T.);
#505 = LINE('',#506,#507);
#506 = CARTESIAN_POINT('',(2.38125,-108.25625,-4.6E-02));
#507 = VECTOR('',#508,1.);
#508 = DIRECTION('',(0.,0.,1.));
#509 = ORIENTED_EDGE('',*,*,#329,.F.);
#510 = ORIENTED_EDGE('',*,*,#504,.F.);
#511 = CYLINDRICAL_SURFACE('',#512,1.1);
#512 = AXIS2_PLACEMENT_3D('',#513,#514,#515);
#513 = CARTESIAN_POINT('',(2.38125,-107.15625,-4.6E-02));
#514 = DIRECTION('',(-0.,-0.,-1.));
#515 = DIRECTION('',(-0.,-1.,0.));
#516 = ADVANCED_FACE('',(#517),#528,.F.);
#517 = FACE_BOUND('',#518,.T.);
#518 = EDGE_LOOP('',(#519,#520,#526,#527));
#519 = ORIENTED_EDGE('',*,*,#200,.T.);
#520 = ORIENTED_EDGE('',*,*,#521,.T.);
#521 = EDGE_CURVE('',#201,#341,#522,.T.);
#522 = LINE('',#523,#524);
#523 = CARTESIAN_POINT('',(108.744083,-108.25625,-4.6E-02));
#524 = VECTOR('',#525,1.);
#525 = DIRECTION('',(0.,0.,1.));
#526 = ORIENTED_EDGE('',*,*,#340,.F.);
#527 = ORIENTED_EDGE('',*,*,#521,.F.);
#528 = CYLINDRICAL_SURFACE('',#529,1.1);
#529 = AXIS2_PLACEMENT_3D('',#530,#531,#532);
#530 = CARTESIAN_POINT('',(108.744083,-107.15625,-4.6E-02));
#531 = DIRECTION('',(-0.,0.,-1.));
#532 = DIRECTION('',(1.2918958832E-14,-1.,-0.));
#533 = ADVANCED_FACE('',(#534),#545,.F.);
#534 = FACE_BOUND('',#535,.T.);
#535 = EDGE_LOOP('',(#536,#537,#543,#544));
#536 = ORIENTED_EDGE('',*,*,#211,.T.);
#537 = ORIENTED_EDGE('',*,*,#538,.T.);
#538 = EDGE_CURVE('',#212,#352,#539,.T.);
#539 = LINE('',#540,#541);
#540 = CARTESIAN_POINT('',(215.106916,-108.25625,-4.6E-02));
#541 = VECTOR('',#542,1.);
#542 = DIRECTION('',(0.,0.,1.));
#543 = ORIENTED_EDGE('',*,*,#351,.F.);
#544 = ORIENTED_EDGE('',*,*,#538,.F.);
#545 = CYLINDRICAL_SURFACE('',#546,1.1);
#546 = AXIS2_PLACEMENT_3D('',#547,#548,#549);
#547 = CARTESIAN_POINT('',(215.106916,-107.15625,-4.6E-02));
#548 = DIRECTION('',(-0.,-0.,-1.));
#549 = DIRECTION('',(-0.,-1.,0.));
#550 = ADVANCED_FACE('',(#551),#562,.F.);
#551 = FACE_BOUND('',#552,.T.);
#552 = EDGE_LOOP('',(#553,#554,#560,#561));
#553 = ORIENTED_EDGE('',*,*,#222,.T.);
#554 = ORIENTED_EDGE('',*,*,#555,.T.);
#555 = EDGE_CURVE('',#223,#363,#556,.T.);
#556 = LINE('',#557,#558);
#557 = CARTESIAN_POINT('',(321.46875,-108.25625,-4.6E-02));
#558 = VECTOR('',#559,1.);
#559 = DIRECTION('',(0.,0.,1.));
#560 = ORIENTED_EDGE('',*,*,#362,.F.);
#561 = ORIENTED_EDGE('',*,*,#555,.F.);
#562 = CYLINDRICAL_SURFACE('',#563,1.1);
#563 = AXIS2_PLACEMENT_3D('',#564,#565,#566);
#564 = CARTESIAN_POINT('',(321.46875,-107.15625,-4.6E-02));
#565 = DIRECTION('',(-0.,-0.,-1.));
#566 = DIRECTION('',(-0.,-1.,0.));
#567 = ADVANCED_FACE('',(#568),#579,.F.);
#568 = FACE_BOUND('',#569,.T.);
#569 = EDGE_LOOP('',(#570,#571,#577,#578));
#570 = ORIENTED_EDGE('',*,*,#233,.T.);
#571 = ORIENTED_EDGE('',*,*,#572,.T.);
#572 = EDGE_CURVE('',#234,#374,#573,.T.);
#573 = LINE('',#574,#575);
#574 = CARTESIAN_POINT('',(2.38125,-3.48125,-4.6E-02));
#575 = VECTOR('',#576,1.);
#576 = DIRECTION('',(0.,0.,1.));
#577 = ORIENTED_EDGE('',*,*,#373,.F.);
#578 = ORIENTED_EDGE('',*,*,#572,.F.);
#579 = CYLINDRICAL_SURFACE('',#580,1.1);
#580 = AXIS2_PLACEMENT_3D('',#581,#582,#583);
#581 = CARTESIAN_POINT('',(2.38125,-2.38125,-4.6E-02));
#582 = DIRECTION('',(-0.,0.,-1.));
#583 = DIRECTION('',(4.037174635001E-16,-1.,-0.));
#584 = ADVANCED_FACE('',(#585),#596,.F.);
#585 = FACE_BOUND('',#586,.T.);
#586 = EDGE_LOOP('',(#587,#588,#594,#595));
#587 = ORIENTED_EDGE('',*,*,#244,.T.);
#588 = ORIENTED_EDGE('',*,*,#589,.T.);
#589 = EDGE_CURVE('',#245,#385,#590,.T.);
#590 = LINE('',#591,#592);
#591 = CARTESIAN_POINT('',(108.744083,-3.48125,-4.6E-02));
#592 = VECTOR('',#593,1.);
#593 = DIRECTION('',(0.,0.,1.));
#594 = ORIENTED_EDGE('',*,*,#384,.F.);
#595 = ORIENTED_EDGE('',*,*,#589,.F.);
#596 = CYLINDRICAL_SURFACE('',#597,1.1);
#597 = AXIS2_PLACEMENT_3D('',#598,#599,#600);
#598 = CARTESIAN_POINT('',(108.744083,-2.38125,-4.6E-02));
#599 = DIRECTION('',(-0.,0.,-1.));
#600 = DIRECTION('',(1.2918958832E-14,-1.,-0.));
#601 = ADVANCED_FACE('',(#602),#613,.F.);
#602 = FACE_BOUND('',#603,.T.);
#603 = EDGE_LOOP('',(#604,#605,#611,#612));
#604 = ORIENTED_EDGE('',*,*,#255,.T.);
#605 = ORIENTED_EDGE('',*,*,#606,.T.);
#606 = EDGE_CURVE('',#256,#396,#607,.T.);
#607 = LINE('',#608,#609);
#608 = CARTESIAN_POINT('',(215.106916,-3.48125,-4.6E-02));
#609 = VECTOR('',#610,1.);
#610 = DIRECTION('',(0.,0.,1.));
#611 = ORIENTED_EDGE('',*,*,#395,.F.);
#612 = ORIENTED_EDGE('',*,*,#606,.F.);
#613 = CYLINDRICAL_SURFACE('',#614,1.1);
#614 = AXIS2_PLACEMENT_3D('',#615,#616,#617);
#615 = CARTESIAN_POINT('',(215.106916,-2.38125,-4.6E-02));
#616 = DIRECTION('',(-0.,-0.,-1.));
#617 = DIRECTION('',(-0.,-1.,0.));
#618 = ADVANCED_FACE('',(#619),#630,.F.);
#619 = FACE_BOUND('',#620,.T.);
#620 = EDGE_LOOP('',(#621,#622,#628,#629));
#621 = ORIENTED_EDGE('',*,*,#266,.T.);
#622 = ORIENTED_EDGE('',*,*,#623,.T.);
#623 = EDGE_CURVE('',#267,#407,#624,.T.);
#624 = LINE('',#625,#626);
#625 = CARTESIAN_POINT('',(321.46875,-3.48125,-4.6E-02));
#626 = VECTOR('',#627,1.);
#627 = DIRECTION('',(0.,0.,1.));
#628 = ORIENTED_EDGE('',*,*,#406,.F.);
#629 = ORIENTED_EDGE('',*,*,#623,.F.);
#630 = CYLINDRICAL_SURFACE('',#631,1.1);
#631 = AXIS2_PLACEMENT_3D('',#632,#633,#634);
#632 = CARTESIAN_POINT('',(321.46875,-2.38125,-4.6E-02));
#633 = DIRECTION('',(-0.,-0.,-1.));
#634 = DIRECTION('',(-0.,-1.,0.));
#635 = ( GEOMETRIC_REPRESENTATION_CONTEXT(3) 
GLOBAL_UNCERTAINTY_ASSIGNED_CONTEXT((#639)) GLOBAL_UNIT_ASSIGNED_CONTEXT
((#636,#637,#638)) REPRESENTATION_CONTEXT('Context #1',
  '3D Context with UNIT and UNCERTAINTY') );
#636 = ( LENGTH_UNIT() NAMED_UNIT(*) SI_UNIT(.MILLI.,.METRE.) );
#637 = ( NAMED_UNIT(*) PLANE_ANGLE_UNIT() SI_UNIT($,.RADIAN.) );
#638 = ( NAMED_UNIT(*) SI_UNIT($,.STERADIAN.) SOLID_ANGLE_UNIT() );
#639 = UNCERTAINTY_MEASURE_WITH_UNIT(LENGTH_MEASURE(1.E-07),#636,
  'distance_accuracy_value','confusion accuracy');
#640 = CONTEXT_DEPENDENT_SHAPE_REPRESENTATION(#641,#643);
#641 = ( REPRESENTATION_RELATIONSHIP('','',#32,#10) 
REPRESENTATION_RELATIONSHIP_WITH_TRANSFORMATION(#642) 
SHAPE_REPRESENTATION_RELATIONSHIP() );
#642 = ITEM_DEFINED_TRANSFORMATION('','',#11,#15);
#643 = PRODUCT_DEFINITION_SHAPE('Placement','Placement of an item',#644
  );
#644 = NEXT_ASSEMBLY_USAGE_OCCURRENCE('1','=>[0:1:1:2]','',#5,#27,$);
#645 = PRODUCT_RELATED_PRODUCT_CATEGORY('part',$,(#29));
#646 = MECHANICAL_DESIGN_GEOMETRIC_PRESENTATION_REPRESENTATION('',(#647)
  ,#635);
#647 = STYLED_ITEM('color',(#648),#33);
#648 = PRESENTATION_STYLE_ASSIGNMENT((#649));
#649 = SURFACE_STYLE_USAGE(.BOTH.,#650);
#650 = SURFACE_SIDE_STYLE('',(#651));
#651 = SURFACE_STYLE_FILL_AREA(#652);
#652 = FILL_AREA_STYLE('',(#653));
#653 = FILL_AREA_STYLE_COLOUR('',#654);
#654 = COLOUR_RGB('',0.313304153717,0.484529207832,0.410020903123);
ENDSEC;
END-ISO-10303-21;
